<?xml version="1.0" standalone="no"?>
<!DOCTYPE svg PUBLIC "-//W3C//DTD SVG 1.1//EN" "http://www.w3.org/Graphics/SVG/1.1/DTD/svg11.dtd">
<svg xmlns="http://www.w3.org/2000/svg"><metadata>This SVG WebFont was generated by YouWorkForThem.
Copyright Â© 2017 by Connary Fagen. All rights reserved.</metadata><defs><font horiz-adv-x="723" id="ywftsvg"><font-face ascent="1638" bbox="-305 -524 2098.04 1975" cap-height="1570" descent="-410" font-family="" font-stretch="normal" font-weight="400" panose-1="0 0 5 0 0 0 0 0 0 0" underline-position="0" underline-thickness="0" unicode-range="U+0020-FB01" units-per-em="2048" x-height="1126"/><missing-glyph d="M749 1570v-1826h-578v1826h578zM608 1447h-301v-59h118v-69h-120v-59h303v59h-120v69h120v59zM488 1212h-183v-190h303v62h-120v128zM425 1150v-66h-60v66h60zM608 973h-303v-60h120v-68h-120v-60h183v128h120v60zM608 864h-60v-122h-243v-61h303v183zM608 640h-183v-102 h63v42h60v-85h-183v145h-60v-207h303v207zM608 324h-303v-206h303v206zM548 265v-86h-183v86h183zM608 77h-303v-62h128l-128 -85v-60h303v60h-186l128 85h58v62z" horiz-adv-x="913"/><glyph d="M766 1126l-15 -111l-143 -1015h-132l144 1015h-299l-144 -1015h-131l143 1015h-70l16 111h70l36 253q14 109 74 158.5t148 49.5q39 0 81 -12l-15 -104q-31 7 -49 7q-94 0 -111 -119l-33 -233h430zM698 1570h131l-37 -261h-132z" glyph-name="uniFB01" horiz-adv-x="779" unicode="fi"/><glyph d="M749 1570v-1826h-578v1826h578zM608 1447h-301v-59h118v-69h-120v-59h303v59h-120v69h120v59zM488 1212h-183v-190h303v62h-120v128zM425 1150v-66h-60v66h60zM608 973h-303v-60h120v-68h-120v-60h183v128h120v60zM608 864h-60v-122h-243v-61h303v183zM608 640h-183v-102 h63v42h60v-85h-183v145h-60v-207h303v207zM608 324h-303v-206h303v206zM548 265v-86h-183v86h183zM608 77h-303v-62h128l-128 -85v-60h303v60h-186l128 85h58v62z" glyph-name=".notdef" horiz-adv-x="913"/><glyph glyph-name="glyph1" horiz-adv-x="0"/><glyph glyph-name="glyph2" horiz-adv-x="682"/><glyph glyph-name="space" horiz-adv-x="273" unicode=" "/><glyph d="M80 321l157 1249h147l-195 -1249h-109zM99 -15q-34 0 -59 23.5t-25 58t25 59t59 24.5t59 -24.5t25 -59t-25 -58t-59 -23.5z" glyph-name="exclam" horiz-adv-x="337" unicode="!"/><glyph d="M137 853l90 717h138l-111 -717h-117zM399 853l91 717h138l-111 -717h-118z" glyph-name="quotedbl" horiz-adv-x="571" unicode="&quot;"/><glyph d="M903 1135h-144l-99 -700h146l-18 -121h-145l-44 -314h-126l44 314h-218l-45 -314h-124l44 314h-145l17 121h145l99 700h-145l17 121h145l45 314h124l-44 -314h218l45 314h126l-44 -314h143zM534 435l99 700h-218l-99 -700h218z" glyph-name="numbersign" horiz-adv-x="885" unicode="#"/><glyph d="M505 1427q201 -29 169 -270l-29 -196h-140l29 196q20 152 -104 152q-126 0 -147 -152l-15 -113q-9 -60 24.5 -108.5t86.5 -85t104 -76.5t82.5 -106t19.5 -151l-15 -111q-32 -237 -246 -263l-20 -143h-116l20 143q-203 29 -170 270l29 196h138l-28 -196q-22 -152 106 -152 q126 0 147 152l15 111q9 60 -24.5 108.5t-85.5 85t-104 77t-82.5 106t-18.5 150.5l15 113q32 234 244 263l21 143h116z" glyph-name="dollar" horiz-adv-x="713" unicode="$"/><glyph d="M466 1592q259 0 222 -281l-51 -366q-41 -282 -301 -281q-263 0 -222 281l52 366q41 281 300 281zM283 0l843 1570h137l-841 -1570h-139zM555 1316q20 155 -106 155t-147 -155l-55 -376q-20 -154 105 -153q128 0 148 153zM1080.5 -22q-259.5 0 -222.5 281l53 366 q38 282 299 281q263 0 222 -281l-51 -366q-41 -281 -300.5 -281zM993 254q-22 -155 104.5 -155t148.5 155l53 376q22 154 -104.5 153.5t-148.5 -153.5z" glyph-name="percent" horiz-adv-x="1546" unicode="%"/><glyph d="M637 841l-82 -583q-38 -275 -306 -275q-271 0 -234 275l41 285q24 172 166 235l2 9q-56 31 -82 80t-12 147l42 304q38 268 302 267q263 0 227 -267l-30 -214h-139l29 208q20 152 -106 152t-146 -152l-44 -310q-20 -162 114 -162zM415 256l66 468h-117q-61 0 -106 -39.5 t-57 -123.5l-42 -305q-20 -150 108 -150t148 150z" glyph-name="ampersand" horiz-adv-x="711" unicode="&amp;"/><glyph d="M106 853l90 717h139l-111 -717h-118z" glyph-name="quotesingle" horiz-adv-x="308" unicode="'"/><glyph d="M389 -179q-102 0 -173 33t-107 106.5t-53.5 148.5t-12 203t16 222t32.5 251q15 104 24.5 169t27.5 157t34.5 151t42 133t53.5 120.5t67.5 96t85.5 76.5t105 44t127 17l-17 -121q-65 0 -118 -26.5t-92 -83.5t-68 -123t-53 -172.5t-40.5 -201t-36.5 -236.5 q-15 -104 -24 -180t-16.5 -160.5t-6.5 -145t6 -122t21 -100.5t41 -71.5t62.5 -48t86.5 -15.5z" glyph-name="parenleft" horiz-adv-x="599" unicode="("/><glyph d="M242 1749q102 0 173 -33t107 -106.5t54 -148.5t12 -203t-16.5 -222t-32.5 -251q-15 -104 -24.5 -169t-27.5 -157t-34 -151t-41.5 -133t-54 -120t-67.5 -95.5t-85 -77t-105 -44.5t-127 -17l17 121q56 0 103 21.5t82 57t65 98t51 125.5t41.5 158t34.5 179.5t31 203.5 q20 142 30.5 237.5t15.5 200.5t-5.5 171.5t-34 123.5t-69 83.5t-110.5 26.5z" glyph-name="parenright" horiz-adv-x="600" unicode=")"/><glyph d="M1022 1304l-365 -179l314 -180l-61 -87l-297 205l-40 -384h-100l66 383l-351 -204l-40 87l366 180l-314 179l63 87l295 -203l39 382h103l-69 -384l352 205z" glyph-name="asterisk" horiz-adv-x="1013" unicode="*"/><glyph d="M782 852l-19 -133h-268l-38 -270h-143l38 270h-268l17 133h271l38 269h141l-37 -269h268z" glyph-name="plus" horiz-adv-x="865" unicode="+"/><glyph d="M29 -80l14 85q-5 -5 -12 -5h-60l19 125h145l-17 -123z" glyph-name="comma" horiz-adv-x="308" unicode=","/><glyph d="M84 722l17 126h375l-17 -126h-375z" glyph-name="hyphen" horiz-adv-x="559" unicode="-"/><glyph d="M44.5 -15q-34.5 0 -59 23.5t-24.5 58t24.5 59t59 24.5t59 -24.5t24.5 -59t-24.5 -58t-59 -23.5z" glyph-name="period" horiz-adv-x="291" unicode="."/><glyph d="M-12 0l425 1570h138l-430 -1570h-133z" glyph-name="slash" horiz-adv-x="539" unicode="/"/><glyph d="M280 -19q-271 0 -231 275l149 1058q41 275 307 275q271 0 231 -275l-149 -1058q-41 -275 -307 -275zM297 102q126 0 148 154l147 1058q22 154 -104 154t-148 -154l-147 -1058q-22 -154 104 -154z" glyph-name="zero" unicode="0"/><glyph d="M355 1570h143l-222 -1570h-143l196 1394q-67 -99 -175 -99l18 135q49 0 98 36.5t85 103.5z" glyph-name="one" horiz-adv-x="460" unicode="1"/><glyph d="M476 1585q268 0 231 -274l-35 -243q-12 -85 -52.5 -159t-92 -123t-111 -102.5t-111.5 -100.5t-91.5 -117t-51.5 -152l-25 -193h395l-17 -121h-535l17 121h1l28 200q14 96 53.5 176t92 133t111 106.5t110 99t90 108.5t48.5 136l32 231q20 154 -104 153q-128 0 -148 -153 l-38 -268h-142l38 268q37 274 307 274z" glyph-name="two" horiz-adv-x="721" unicode="2"/><glyph d="M664 1038q-15 -108 -59.5 -164.5t-119.5 -85.5l-2 -6q68 -29 96.5 -84.5t12.5 -165.5l-39 -273q-38 -275 -307.5 -274.5t-228.5 274.5l31 229h143l-32 -229q-20 -154 104 -153q128 0 148 153l41 296q12 85 -23.5 128.5t-107.5 43.5h-50l16 116h51q70 0 118.5 43.5 t60.5 128.5l43 296q20 154 -106 153.5t-147 -153.5l-32 -229h-142l31 229q41 275 307 274q271 0 230 -274z" glyph-name="three" horiz-adv-x="720" unicode="3"/><glyph d="M729 1570l-154 -1087h106l-17 -121h-106l-51 -362h-143l51 362h-393l17 121l446 1087h244zM171 483h261l133 949h-14z" glyph-name="four" horiz-adv-x="797" unicode="4"/><glyph d="M423 1007q104 0 162 -65t38 -208l-67 -471q-38 -275 -309 -275q-266 0 -228 275l25 182h142l-26 -180q-20 -155 105 -156q128 0 148 156l67 464q10 82 -20 118.5t-84.5 36.5t-96.5 -36.5t-52 -118.5l-12 -87h-143l131 928h517l-17 -121h-375l-74 -521q58 79 169 79z" glyph-name="five" horiz-adv-x="721" unicode="5"/><glyph d="M249 -15q-271 0 -230 274l148 1059q38 273 307 273q266 0 226 -273l-29 -212h-140l30 210q20 154 -106 153.5t-146 -153.5l-60 -427q65 80 176 80q99 0 157 -61t38 -203l-64 -446q-37 -274 -307 -274zM266 106q128 0 149 153l61 434q20 154 -106 154q-55 0 -96.5 -36 t-51.5 -118l-62 -434q-20 -153 106 -153z" glyph-name="six" unicode="6"/><glyph d="M193 1570h546l-17 -121l-526 -1449h-141l530 1449h-409z" glyph-name="seven" horiz-adv-x="672" unicode="7"/><glyph d="M251 -15q-273 0 -232 273l44 312q22 174 164 237l2 7q-55 31 -81.5 82t-12.5 148l39 274q38 268 302.5 267.5t228.5 -267.5l-39 -274q-14 -97 -54 -148t-103 -82l-2 -7q125 -63 99 -237l-45 -312q-37 -273 -310 -273zM375.5 865q54.5 0 96.5 39.5t54 124.5l39 282 q20 154 -106 153q-128 0 -148 -153l-41 -282q-10 -85 20.5 -124.5t85 -39.5zM268 106q130 0 150 153l48 335q12 84 -19.5 123t-86.5 39t-97.5 -39t-54.5 -123l-48 -335q-20 -153 108 -153z" glyph-name="eight" horiz-adv-x="727" unicode="8"/><glyph d="M505 1585q270 0 232 -274l-148 -1058q-41 -273 -307 -273q-126 0 -187 62t-40 211l30 211h139l-29 -210q-20 -154 104 -153q126 0 148 153l58 427q-63 -80 -176 -80q-97 0 -155 61.5t-39 202.5l63 446q41 274 307 274zM490 1464q-128 0 -149 -153l-61 -434 q-22 -154 106 -153q55 0 96.5 35.5t51.5 117.5l62 434q20 153 -106 153z" glyph-name="nine" horiz-adv-x="725" unicode="9"/><glyph d="M225 1128q-34 0 -58.5 25t-24.5 59t24.5 58t58.5 24t59 -24t25 -58t-25 -59t-59 -25zM106 276q-36 0 -61 25t-25 59t25 58t61 24q34 0 58.5 -24t24.5 -58t-24.5 -59t-58.5 -25z" glyph-name="colon" horiz-adv-x="291" unicode=":"/><glyph d="M237 1128q-34 0 -58.5 25t-24.5 59t24.5 58t58.5 24t59 -24t25 -58t-25 -59t-59 -25zM89 222l13 85q-5 -5 -12 -5h-59l18 125h146l-18 -123z" glyph-name="semicolon" horiz-adv-x="291" unicode=";"/><glyph d="M452 309l-373 401l20 150l486 401l-20 -152l-376 -319l-1 -15l285 -321z" glyph-name="less" horiz-adv-x="607" unicode="&lt;"/><glyph d="M114 806l17 133h671l-19 -133h-669zM70 493l19 133h669l-19 -133h-669z" glyph-name="equal" horiz-adv-x="853" unicode="="/><glyph d="M22 309l22 152l374 319l2 15l-285 318l20 148l374 -401l-20 -150z" glyph-name="greater" horiz-adv-x="607" unicode=">"/><glyph d="M164 1070l34 244q38 275 307 275q268 0 231 -275l-31 -215q-14 -102 -46.5 -175.5t-70 -114.5t-75 -77t-66.5 -87t-39 -119l-27 -205h-140l29 218q12 87 42.5 149.5t67 100t73.5 74t67.5 95.5t42.5 141l29 215q22 154 -104 154t-148 -154l-35 -244h-141zM276 -15 q-34 0 -58.5 23.5t-24.5 58t24.5 59t58.5 24.5q36 0 61 -24.5t25 -59t-25 -58t-61 -23.5z" glyph-name="question" unicode="?"/><glyph d="M568 1585q294 0 251 -307l-124 -884q-24 -164 -185 -164h-61q-77 0 -111 37t-22 127l44 314q12 90 57.5 127t121.5 37h106l56 406q26 193 -150 193h-56q-177 0 -203 -193l-135 -955q-32 -224 181 -224h94l-17 -114h-115q-321 0 -276 314l138 979q43 307 350 307h56z M500 335q68 0 80 81l50 352h-84q-70 0 -82 -82l-37 -270q-12 -82 58 -81h15z" glyph-name="at" horiz-adv-x="841" unicode="@"/><glyph d="M401 1570h258l-29 -1570h-138l8 345h-287l-90 -345h-137zM244 466h258l22 974h-26z" glyph-name="A" horiz-adv-x="773" unicode="A"/><glyph d="M519 1570q147 0 186 -62t19 -214l-36 -255q-12 -90 -44.5 -144.5t-99.5 -80.5l-1 -10q60 -26 78.5 -82t6.5 -152l-41 -294q-20 -150 -79 -213t-208 -63h-286l222 1570h283zM585 1295q12 90 -11.5 122t-100.5 32h-111l-84 -594h104q77 0 113.5 34t50.5 130zM488 592 q14 94 -12.5 128t-103.5 34h-109l-89 -633h114q77 0 110.5 32.5t45.5 122.5z" glyph-name="B" horiz-adv-x="720" unicode="B"/><glyph d="M280 -20q-270 0 -232 274l150 1060q38 275 307 275q268 0 231 -275l-52 -360h-141l49 360q22 154 -104 154t-148 -154l-149 -1058q-22 -154 104.5 -154t148.5 154l51 364h143l-53 -366q-37 -274 -305 -274z" glyph-name="C" horiz-adv-x="721" unicode="C"/><glyph d="M524 1570q150 0 190 -62t18 -214l-141 -1018q-22 -152 -80.5 -214t-208.5 -62h-288l222 1570h288zM591 1295q12 90 -12 122t-101 32h-116l-188 -1328h116q79 0 112 31.5t45 122.5z" glyph-name="D" unicode="D"/><glyph d="M601 1449h-239l-86 -604h236l-15 -120h-238l-85 -604h239l-17 -121h-382l222 1570h382z" glyph-name="E" horiz-adv-x="559" unicode="E"/><glyph d="M602 1449h-238l-82 -609h237l-14 -120h-240l-96 -720h-143l210 1570h382z" glyph-name="F" horiz-adv-x="566" unicode="F"/><glyph d="M280 -19q-268 0 -231 277l149 1054q38 276 307 277q268 0 231 -277l-40 -285h-143l39 285q22 155 -104 155.5t-148 -155.5l-147 -1054q-22 -155 107 -156q131 0 152 156l65 457h-153l15 111h288l-80 -568q-37 -277 -307 -277z" glyph-name="G" unicode="G"/><glyph d="M635 1570h143l-222 -1570h-143l101 719h-256l-101 -719h-143l222 1570h143l-104 -732h256z" glyph-name="H" horiz-adv-x="728" unicode="H"/><glyph d="M14 0l222 1570h143l-222 -1570h-143z" glyph-name="I" horiz-adv-x="329" unicode="I"/><glyph d="M271 -19q-270 0 -232 275l45 316h141l-42 -316q-20 -154 104 -154q126 0 148 154l185 1314h141l-184 -1314q-38 -275 -306 -275z" glyph-name="J" horiz-adv-x="713" unicode="J"/><glyph d="M800 1570l-317 -703l113 -867h-142l-90 761l-146 -319l-63 -442h-141l222 1570h141l-118 -828h14l387 828h140z" glyph-name="K" horiz-adv-x="730" unicode="K"/><glyph d="M174 121h248l-18 -121h-390l222 1570h143z" glyph-name="L" horiz-adv-x="566" unicode="L"/><glyph d="M14 0l222 1570h230l-14 -1389h14l379 1389h230l-222 -1570h-133l195 1382h-16l-378 -1382h-175l11 1382h-16l-194 -1382h-133z" glyph-name="M" horiz-adv-x="1025" unicode="M"/><glyph d="M14 0l222 1570h196l92 -1346h12l17 143l171 1203h133l-222 -1570h-196l-94 1347h-12l-17 -146l-169 -1201h-133z" glyph-name="N" horiz-adv-x="807" unicode="N"/><glyph d="M280 -19q-271 0 -231 275l149 1058q41 275 307 275q271 0 231 -275l-149 -1058q-41 -275 -307 -275zM297 102q126 0 148 154l147 1058q22 154 -104 154t-148 -154l-147 -1058q-22 -154 104 -154z" glyph-name="O" unicode="O"/><glyph d="M534 1570q138 0 176 -62t15 -213l-87 -626q-22 -150 -76.5 -212.5t-194.5 -62.5h-154l-56 -394h-143l222 1570h298zM587 1299q14 89 -7.5 120.5t-96.5 31.5h-121l-132 -936h122q75 0 104 31t41 120z" glyph-name="P" horiz-adv-x="718" unicode="P"/><glyph d="M505 1589q271 0 231 -275l-149 -1058q-24 -167 -131 -234l58 -68l-87 -75l-91 106q-38 -3 -56 -4q-271 0 -231 275l149 1058q41 275 307 275zM592 1314q22 154 -104 154t-148 -154l-147 -1058q-22 -154 104 -154t148 154z" glyph-name="Q" unicode="Q"/><glyph d="M534 1570q140 0 177 -62t14 -214l-73 -516q-22 -174 -131 -235l46 -543h-132l-41 510q-12 -2 -39 -1h-126l-72 -509h-143l222 1570h298zM587 1297q14 90 -7.5 122t-96.5 32h-121l-118 -837h123q75 0 103 31t42 123z" glyph-name="R" horiz-adv-x="709" unicode="R"/><glyph d="M275 -19q-268 0 -227 273l32 238h138l-34 -238q-20 -152 106 -152t149 152l30 217q9 60 -6.5 106t-45.5 78.5t-67.5 62.5t-75 63t-65.5 72.5t-41 100.5t-2 138l30 224q38 273 304 273q263 0 225 -273l-34 -237h-136l32 237q22 152 -104 152q-125 0 -147 -152l-31 -217 q-9 -60 7 -106t45.5 -78.5t68 -62t75.5 -63t66 -72.5t41.5 -100.5t2.5 -138.5l-32 -224q-38 -273 -304 -273z" glyph-name="S" horiz-adv-x="713" unicode="S"/><glyph d="M741 1570l-17 -121h-198l-205 -1449h-144l205 1449h-198l17 121h540z" glyph-name="T" horiz-adv-x="658" unicode="T"/><glyph d="M282 -19q-270 0 -233 275l185 1314h143l-184 -1314q-22 -154 104 -154t148 154l185 1314h141l-184 -1314q-37 -275 -305 -275z" glyph-name="U" unicode="U"/><glyph d="M207 1570h136l-31 -1440h26l374 1440h138l-415 -1570h-258z" glyph-name="V" horiz-adv-x="773" unicode="V"/><glyph d="M1089 1570h140l-355 -1570h-234l68 1418h-17l-331 -1418h-234l89 1570h140l-92 -1420h15l335 1420h218l-66 -1420h15z" glyph-name="W" horiz-adv-x="1160" unicode="W"/><glyph d="M611 0h-142l-68 669h-8l-256 -669h-142l317 799l-87 771h142l61 -643h11l245 643h142l-307 -771z" glyph-name="X" horiz-adv-x="762" unicode="X"/><glyph d="M824 1570l-377 -944l-89 -626h-140l89 626l-111 944h140l67 -720h10l271 720h140z" glyph-name="Y" horiz-adv-x="737" unicode="Y"/><glyph d="M3 0l17 121l574 1313l2 15h-369l17 121h510l-17 -121l-577 -1312l-3 -16h382l-17 -121h-519z" glyph-name="Z" horiz-adv-x="694" unicode="Z"/><glyph d="M-43 -179l270 1928h379l-17 -121h-239l-236 -1686h239l-17 -121h-379z" glyph-name="bracketleft" horiz-adv-x="563" unicode="["/><glyph d="M582 0h-133l-208 1570h138z" glyph-name="backslash" horiz-adv-x="759" unicode="\"/><glyph d="M638 1749l-269 -1928h-379l17 121h239l235 1686h-239l17 121h379z" glyph-name="bracketright" horiz-adv-x="564" unicode="]"/><glyph d="M125 1058l460 430h151l341 -430h-150l-272 331h-18l-359 -331h-153z" glyph-name="asciicircum" horiz-adv-x="1122" unicode="^"/><glyph d="M0 -128l17 128h751l-17 -128h-751z" glyph-name="underscore" horiz-adv-x="943" unicode="_"/><glyph d="M266 1161h-128l-49 257h128z" glyph-name="grave" horiz-adv-x="213" unicode="`"/><glyph d="M410 1143q114 0 164.5 -47.5t36.5 -153.5l-133 -942h-114l10 131q-56 -148 -203 -148q-79 0 -118 47t-27 134l44 317q27 200 217 200h155l34 246q10 67 -7 96.5t-73 29.5q-58 0 -84.5 -30.5t-36.5 -95.5l-22 -150h-125l24 165q17 108 79.5 154.5t178.5 46.5zM246 82 q49 0 86 37.5t45 100.5v-2l53 383h-106q-58 0 -86 -29t-37 -94l-39 -285q-7 -55 16.5 -83t67.5 -28z" glyph-name="a" horiz-adv-x="638" unicode="a"/><glyph d="M473 1143q77 0 115 -46.5t26 -133.5l-104 -750q-32 -230 -283 -230q-108 0 -222 27l219 1560h131l-79 -565q59 138 197 138zM480 934q7 53 -16.5 81t-67.5 28q-49 0 -87 -37t-46 -100v2l-113 -799q44 -20 92 -20q121 0 137 126z" glyph-name="b" horiz-adv-x="640" unicode="b"/><glyph d="M570 683h-128l34 244q17 116 -89 116q-108 0 -122 -116l-103 -727q-15 -116 90.5 -116t122.5 116l33 237h128l-33 -222q-32 -232 -266 -232q-237 0 -205 232l99 696q32 232 270 232q234 0 201 -232z" glyph-name="c" horiz-adv-x="634" unicode="c"/><glyph d="M637 1116l-157 -1116h-116l11 131q-58 -148 -203 -148q-80 0 -118.5 47t-26.5 134l104 749q19 128 86.5 179t181.5 51q61 0 108 -6l61 433h132zM377 207l115 817q-44 20 -96 20q-65 0 -94 -30.5t-37 -95.5l-103 -725q-7 -53 16 -82t68 -29q48 0 83.5 33.5t47.5 91.5z" glyph-name="d" horiz-adv-x="640" unicode="d"/><glyph d="M403 1143q230 0 196 -237l-55 -399h-339l-41 -299q-17 -128 89 -128q108 0 124 127l21 145h124l-19 -132q-34 -237 -264 -237q-239 0 -205 239l97 684q33 237 272 237zM478 920q19 126 -91 126q-106 0 -124 -126l-45 -324h214z" glyph-name="e" horiz-adv-x="633" unicode="e"/><glyph d="M463 1587q39 0 81 -12l-15 -104q-31 7 -49 7q-94 0 -111 -119l-33 -233h140l-13 -111h-142l-144 -1015h-131l143 1015h-70l16 111h70l36 253q14 109 74.5 158.5t147.5 49.5z" glyph-name="f" horiz-adv-x="457" unicode="f"/><glyph d="M399 1143q108 0 238 -27l-164 -1167q-19 -126 -86.5 -182.5t-202.5 -56.5q-72 0 -162 5l12 94h111q102 0 143 34t55 123l19 138q-61 -121 -191 -121q-79 0 -118 47t-27 134l105 749q19 128 86.5 179t181.5 51zM246 82q48 0 83.5 35t47.5 96l113 811q-61 20 -96 20 q-65 0 -93 -30.5t-38 -95.5l-101 -725q-9 -53 15.5 -82t68.5 -29z" glyph-name="g" horiz-adv-x="640" unicode="g"/><glyph d="M473 1143q77 0 116 -45t27 -132l-136 -966h-132l132 934q7 53 -16.5 81t-67.5 28t-80 -29t-48 -77l-133 -937h-132l159 1126l63 444h132l-77 -543q63 116 193 116z" glyph-name="h" horiz-adv-x="641" unicode="h"/><glyph d="M198 1309l38 261h131l-38 -261h-131zM14 0l158 1126h132l-159 -1126h-131z" glyph-name="i" horiz-adv-x="317" unicode="i"/><glyph d="M193 1309l37 261h132l-38 -261h-131zM-135 -290q-46 0 -101 5l14 94h50q89 0 126 34t51 123l162 1160h132l-166 -1184q-17 -121 -82 -176.5t-186 -55.5z" glyph-name="j" horiz-adv-x="302" unicode="j"/><glyph d="M662 1126l-232 -476l113 -650h-133l-93 570l-143 -295l-39 -275h-132l222 1570h132l-147 -1044h12l305 600h135z" glyph-name="k" horiz-adv-x="660" unicode="k"/><glyph d="M3 0l222 1570h132l-222 -1570h-132z" glyph-name="l" horiz-adv-x="296" unicode="l"/><glyph d="M816 1143q79 0 117 -45t26 -132l-135 -966h-131l131 934q7 53 -17 81t-68 28t-79 -28.5t-47 -74.5l-133 -940h-132l132 934q7 53 -16.5 81t-67.5 28q-46 0 -82 -30t-48 -81l-131 -932h-132l159 1126h116l-12 -128q27 67 82 106t125 39t108.5 -36.5t36.5 -106.5 q58 143 198 143z" glyph-name="m" horiz-adv-x="986" unicode="m"/><glyph d="M473 1143q77 0 116 -45t27 -132l-136 -966h-132l132 934q7 53 -16.5 81t-67.5 28q-46 0 -82 -30t-48 -81l-131 -932h-132l159 1126h116l-12 -128q27 67 82 106t125 39z" glyph-name="n" horiz-adv-x="641" unicode="n"/><glyph d="M237 -17q-237 0 -205 232l99 696q32 232 269.5 232t205.5 -232l-97 -696q-33 -232 -272 -232zM252.5 84q105.5 0 122.5 116l101 727q17 116 -89 116q-108 0 -122 -116l-103 -727q-15 -116 90.5 -116z" glyph-name="o" horiz-adv-x="638" unicode="o"/><glyph d="M473 1143q77 0 115 -46.5t26 -133.5l-104 -739q-19 -131 -83.5 -186t-150.5 -55q-77 0 -139 34l-40 -283h-131l196 1392h116l-10 -126q27 67 81 105t124 38zM480 934q7 53 -16.5 81t-65.5 28q-51 0 -89 -37t-46 -100v2l-111 -789q48 -31 99 -30q113 0 128 126z" glyph-name="p" horiz-adv-x="640" unicode="p"/><glyph d="M637 1116l-157 -1116l-38 -266h-131l53 372q-63 -123 -193 -123q-79 0 -118 47t-27 134l105 749q19 128 86.5 179t181.5 51q108 0 238 -27zM246 82q48 0 83.5 35t47.5 96l113 811q-61 20 -96 20q-65 0 -93 -30.5t-38 -95.5l-101 -725q-9 -53 15.5 -82t68.5 -29z" glyph-name="q" horiz-adv-x="640" unicode="q"/><glyph d="M452 1143q29 0 46 -10l-20 -133h-45q-72 0 -119.5 -62t-69.5 -167l-109 -771h-132l159 1126h116l-19 -175q20 82 70.5 137t122.5 55z" glyph-name="r" horiz-adv-x="465" unicode="r"/><glyph d="M234 -15q-118 0 -168.5 54.5t-31.5 180.5l19 130h123l-19 -132q-20 -137 90 -136q113 0 132 136l17 122q7 48 -7.5 82t-42 55t-60.5 40t-65.5 41t-58 51t-37.5 79.5t-2 118.5l14 98q34 239 266 238q113 0 161.5 -54.5t31.5 -180.5l-17 -123h-120l15 125q19 138 -85 138 q-106 0 -124 -138l-16 -110q-7 -56 13 -95t55 -59t75 -45.5t74 -52.5t51 -83.5t7 -135.5l-15 -105q-19 -131 -88 -185t-187 -54z" glyph-name="s" horiz-adv-x="629" unicode="s"/><glyph d="M343 1015l-111 -785q-12 -75 10.5 -107.5t78.5 -32.5q44 0 73 11l-13 -92q-53 -26 -120 -26q-99 0 -140.5 49.5t-23.5 180.5l113 802h-102l15 111h104l39 284h132l-40 -284h166l-15 -111h-166z" glyph-name="t" horiz-adv-x="503" unicode="t"/><glyph d="M507 1126h131l-158 -1126h-116l11 128q-27 -67 -81.5 -106t-124.5 -39q-77 0 -116 45t-27 132l136 966h132l-132 -933q-7 -53 16 -81t68 -28q46 0 82 29.5t47 81.5z" glyph-name="u" horiz-adv-x="641" unicode="u"/><glyph d="M126 0l17 1126h128l-22 -1005h19l259 1005h128l-297 -1126h-232z" glyph-name="v" horiz-adv-x="641" unicode="v"/><glyph d="M77 0l66 1126h128l-64 -1005h18l232 1005h214l-48 -1005h17l217 1005h128l-248 -1126h-228l47 1005h-18l-233 -1005h-228z" glyph-name="w" horiz-adv-x="971" unicode="w"/><glyph d="M512 0h-128l-65 469h-8l-197 -469h-128l248 573l-84 553h128l62 -452h6l188 452h128l-237 -553z" glyph-name="x" horiz-adv-x="655" unicode="x"/><glyph d="M505 1126h132l-166 -1184q-19 -123 -86.5 -177.5t-200.5 -54.5q-92 0 -179 5l12 94h128q102 0 143 34t55 123l19 138q-63 -121 -195 -121q-77 0 -115 45t-26 132l136 966h132l-132 -933q-7 -53 15.5 -81t66.5 -28q49 0 87 33t46 88z" glyph-name="y" horiz-adv-x="640" unicode="y"/><glyph d="M-2 0l16 113l423 885l3 16h-280l14 112h411l-15 -112l-428 -886l-2 -15h293l-15 -113h-420z" glyph-name="z" horiz-adv-x="578" unicode="z"/><glyph d="M319 -169q-67 0 -99 36t-24 102l79 562l-169 239l3 30l237 239l79 562q10 67 53 102.5t109 35.5h227l-19 -121h-157q-70 0 -82 -70l-71 -522l-224 -226l-3 -30l158 -226l-73 -522q-10 -70 63 -70h157l-17 -121h-227z" glyph-name="braceleft" horiz-adv-x="725" unicode="{"/><glyph d="M-38 -143l260 1851h143l-259 -1851h-144z" glyph-name="bar" horiz-adv-x="327" unicode="|"/><glyph d="M469 1739q67 0 99.5 -36t23.5 -102l-78 -562l169 -239l-4 -30l-237 -239l-78 -562q-9 -67 -52.5 -102.5t-108.5 -35.5h-227l17 121h157q72 0 82 70l72 522l223 226l4 30l-159 226l73 522q10 70 -63 70h-157l17 121h227z" glyph-name="braceright" horiz-adv-x="727" unicode="}"/><glyph d="M464 681q-48 0 -78.5 19.5t-42.5 42.5t-35 43t-55 20q-39 0 -66 -24t-33 -67h-74q24 174 181 174q48 0 78.5 -19.5t42 -41.5t34.5 -42t55 -20q85 0 99 91h73q-22 -176 -179 -176z" glyph-name="asciitilde" unicode="~"/><glyph d="M230 1080q34 0 59 -23.5t25 -58t-24.5 -59t-59.5 -24.5q-36 0 -60.5 24.5t-24.5 59t24.5 58t60.5 23.5zM249 744l-159 -1249h-145l195 1249h109z" glyph-name="exclamdown" horiz-adv-x="337" unicode="¡"/><glyph d="M519 1427q207 -29 170 -278l-23 -183h-144l26 189q22 154 -104.5 154t-148.5 -154l-102 -740q-22 -154 104 -154t148 154l28 193h141l-25 -186q-36 -253 -251 -279l-21 -143h-116l21 143q-207 29 -171 279l101 727q36 253 251 278l20 143h116z" glyph-name="cent" horiz-adv-x="703" unicode="¢"/><glyph d="M606 1582q270 0 229 -275l-33 -237h-143l34 237q20 154 -104 154q-128 0 -149 -154l-75 -534h195l-16 -121h-196l-75 -531h430l-19 -121h-713l19 121h140l75 531h-140l15 121h142l75 534q38 275 309 275z" glyph-name="sterling" horiz-adv-x="868" unicode="£"/><glyph d="M1007 1394q63 -94 63 -218q0 -191 -140 -345l79 -92l-84 -72l-77 91q-142 -106 -309 -106q-166 0 -280 106l-102 -91l-63 72l104 92q-60 97 -60 215q0 193 142 347l-80 94l83 71l79 -92q142 104 307 104q164 0 278 -104l104 92l63 -71zM553 748q169 0 294.5 128 t125.5 281q0 130 -88 224t-230 94q-164 0 -291.5 -125.5t-127.5 -286.5q0 -130 87.5 -222.5t229.5 -92.5z" glyph-name="currency" horiz-adv-x="1116" unicode="¤"/><glyph d="M833 1570l-377 -942h194l-8 -60h-195l-14 -102h195l-8 -60h-195l-58 -406h-140l56 406h-257l8 60h258l13 102h-257l8 60h258l2 5l-111 937h138l68 -720h9l273 720h140z" glyph-name="yen" horiz-adv-x="752" unicode="¥"/><glyph d="M101 847l121 861h143l-121 -861h-143zM227 719l-121 -862h-144l122 862h143z" glyph-name="brokenbar" horiz-adv-x="327" unicode="¦"/><glyph d="M486 1591q283 0 244 -272l-13 -95h-138l12 88q22 154 -121.5 154t-164.5 -154l-10 -64q0 -5 -1 -7h1l-1 -16q-3 -72 36.5 -114.5t97.5 -63t115.5 -46.5t90.5 -87.5t20 -164.5l-63 -447l-7 -51q-39 -271 -323 -271q-285 0 -246 271l14 95h138l-12 -88q-22 -154 123 -154 t166 154l7 44l5 39q5 73 -34.5 116t-98 64.5t-117 48t-91.5 88t-18 163.5l58 420l11 78q38 272 320 272zM512 744q7 53 -4 89.5t-41 59t-60 37t-75 31.5t-71 32l-24 -167q-7 -53 4.5 -89.5t41 -59t59.5 -37t75.5 -31.5t70.5 -32z" glyph-name="section" horiz-adv-x="749" unicode="§"/><glyph d="M137 1190q-29 0 -49 20.5t-20 49.5t20 48.5t49 19.5t48.5 -19.5t19.5 -48.5t-19.5 -49.5t-48.5 -20.5zM418 1190q-29 0 -48.5 20.5t-19.5 49.5t19.5 48.5t48.5 19.5t48.5 -19.5t19.5 -48.5t-19.5 -49.5t-48.5 -20.5z" glyph-name="dieresis" horiz-adv-x="419" unicode="¨"/><glyph d="M464 850q-142 0 -228 88t-86 224q0 177 123 303t295 126q143 0 230.5 -88t87.5 -225q0 -177 -124 -302.5t-298 -125.5zM492 995q67 0 125.5 32.5t89.5 98.5l-72 2q-43 -68 -133 -68q-63 0 -100.5 36t-37.5 95q0 85 52 138t130 53q92 0 116 -68h70q-10 67 -59.5 100 t-117.5 33q-108 0 -184.5 -76.5t-76.5 -186.5q0 -84 54.5 -136.5t143.5 -52.5z" glyph-name="copyright" horiz-adv-x="913" unicode="©"/><glyph d="M404 785l-23 138h-161l-24 -138h-131l118 649h235l118 -649h-132zM236 1012h129l-53 307h-24z" glyph-name="ordfeminine" horiz-adv-x="600" unicode="ª"/><glyph d="M671 1174l-393 -457l265 -458h-149l-266 458l393 457h150zM1000 1174l-391 -457l263 -458h-148l-267 458l393 457h150z" glyph-name="guillemotleft" horiz-adv-x="1020" unicode="«"/><glyph d="M683 882l-45 -326h-143l27 198h-443l17 128h587z" glyph-name="logicalnot" horiz-adv-x="715" unicode="¬"/><glyph d="M116 722l17 126h376l-17 -126h-376z" glyph-name="uni00AD" horiz-adv-x="561" unicode="­"/><glyph d="M464 850q-142 0 -228 88t-86 224q0 177 123 303t295 126q143 0 230.5 -88t87.5 -225q0 -177 -124 -302.5t-298 -125.5zM314 1000h70l19 135h164l58 -135h76l-66 150q97 44 97 152q0 58 -41 91.5t-119 33.5h-198zM411 1198l24 164h128q96 0 96 -67q0 -97 -120 -97h-128z " glyph-name="registered" horiz-adv-x="913" unicode="®"/><glyph d="M53 1172l19 117h411l-17 -117h-413z" glyph-name="macron" horiz-adv-x="411" unicode="¯"/><glyph d="M461 1592q258 0 217 -281l-52 -366q-41 -282 -295 -281q-258 0 -217 281l52 366q41 281 295 281zM550 1316q22 155 -106 155q-125 0 -147 -155l-53 -376q-22 -154 104 -153.5t149 153.5z" glyph-name="degree" horiz-adv-x="696" unicode="°"/><glyph d="M534 983h268l-19 -135h-269l-38 -269h-141l37 269h-270l19 135h270l37 270h144zM-5 82l17 135h671l-19 -135h-669z" glyph-name="plusminus" horiz-adv-x="866" unicode="±"/><glyph d="M53 1161l121 257h128l-121 -257h-128z" glyph-name="acute" horiz-adv-x="213" unicode="´"/><glyph d="M630 1570h141l-184 -1314q-38 -275 -305 -275q-99 0 -154 36l-39 -273h-144l258 1826h174l-184 -1314q-22 -154 104 -154t148 154z" glyph-name="uni00B5" unicode="µ"/><glyph d="M777 1570l-222 -1570h-144l57 394h-183q-150 0 -190 63.5t-18 214.5l87 622q22 152 79 214t208 62h326zM831 1570h144l-222 -1570h-144zM485 522l129 920h-151q-79 0 -111.5 -32.5t-44.5 -120.5l-87 -611q-12 -90 12 -123t101 -33h152z" glyph-name="paragraph" horiz-adv-x="955" unicode="¶"/><glyph d="M229 703q-34 0 -59 25t-25 59t25 58t59 24t58.5 -24t24.5 -58t-24.5 -59t-58.5 -25z" glyph-name="periodcentered" horiz-adv-x="395" unicode="·"/><glyph d="M-36 -87q70 -3 112.5 -40t31.5 -119q-15 -102 -71 -137t-151 -35h-55l10 73h55q55 0 82 22.5t36 78.5q7 55 -19 76t-82 21h-44l8 60l96 87h87z" glyph-name="cedilla" horiz-adv-x="250" unicode="¸"/><glyph d="M471 787q-138 0 -233 95.5t-95 233.5t95 233t233 95t233 -95t95 -233t-95 -233.5t-233 -95.5zM471 908q87 0 147 60.5t60 147.5t-60 147.5t-147 60.5t-146.5 -60.5t-59.5 -147.5t59.5 -147.5t146.5 -60.5z" glyph-name="ordmasculine" horiz-adv-x="848" unicode="º"/><glyph d="M63 259l391 458l-263 457h149l266 -457l-393 -458h-150zM393 259l392 458l-264 457h148l266 -457l-392 -458h-150z" glyph-name="guillemotright" horiz-adv-x="1018" unicode="»"/><glyph d="M370 1080q36 0 61 -23.5t25 -58t-25 -59t-61 -24.5q-34 0 -58.5 24.5t-24.5 59t24.5 58t58.5 23.5zM485 -5l-34 -244q-38 -275 -308 -275q-268 0 -230 275l29 215q15 102 47.5 175.5t70 114.5t74.5 77t66.5 87t38.5 119l29 205h140l-29 -218q-12 -87 -43 -149.5 t-67.5 -100t-73 -74t-67.5 -95.5t-43 -141l-30 -215q-20 -154 106 -154t146 154l34 244h144z" glyph-name="questiondown" horiz-adv-x="720" unicode="¿"/><glyph d="M606 1655h-128l-50 258h128zM401 1570h258l-29 -1570h-138l8 345h-287l-90 -345h-137zM244 466h258l22 974h-26z" glyph-name="Agrave" horiz-adv-x="773" unicode="À"/><glyph d="M727 1913l-121 -258h-128l121 258h128zM-14 0l415 1570h258l-29 -1570h-138l8 345h-287l-90 -345h-137zM524 1440h-26l-254 -974h258z" glyph-name="Aacute" horiz-adv-x="773" unicode="Á"/><glyph d="M558 1826l-111 -171h-111l157 251h164l87 -251h-111l-61 171h-14zM-14 0l415 1570h258l-29 -1570h-138l8 345h-287l-90 -345h-137zM524 1440h-26l-254 -974h258z" glyph-name="Acircumflex" horiz-adv-x="773" unicode="Â"/><glyph d="M766 1847h74q-24 -174 -181 -174q-48 0 -78 18.5t-42 42.5t-35 42.5t-55 18.5q-39 0 -65.5 -23.5t-33.5 -66.5h-74q10 90 59 132t122 42q48 0 79 -19.5t42 -42t34 -42t55 -19.5q39 0 65.5 24t33.5 67zM-14 0l415 1570h258l-29 -1570h-138l8 345h-287l-90 -345h-137z M524 1440h-26l-254 -974h258z" glyph-name="Atilde" horiz-adv-x="773" unicode="Ã"/><glyph d="M389 1684q-29 0 -48.5 20.5t-19.5 49.5t19.5 49t48.5 20t48.5 -20t19.5 -49t-19.5 -49.5t-48.5 -20.5zM671 1823q29 0 48.5 -20t19.5 -49t-19.5 -49.5t-48.5 -20.5t-49 20.5t-20 49.5t20 49t49 20zM-14 0l415 1570h258l-29 -1570h-138l8 345h-287l-90 -345h-137z M524 1440h-26l-254 -974h258z" glyph-name="Adieresis" horiz-adv-x="773" unicode="Ä"/><glyph d="M585 1975q70 0 111 -41t41 -104q0 -82 -58 -141t-140 -59q-68 0 -110 41.5t-42 105.5q0 82 58 140t140 58zM548 1703q46 0 80 33.5t34 81.5q0 36 -24 60.5t-61 24.5q-46 0 -79.5 -34t-33.5 -80q0 -38 23 -62t61 -24zM-14 0l415 1570h258l-29 -1570h-138l8 345h-287 l-90 -345h-137zM524 1440h-26l-254 -974h258z" glyph-name="Aring" horiz-adv-x="773" unicode="Å"/><glyph d="M1073 1449h-238l-86 -604h236l-16 -120h-237l-85 -604h239l-17 -121h-383l55 387h-278l-137 -387h-140l558 1570h547zM307 512h251l131 930h-54z" glyph-name="AE" horiz-adv-x="1032" unicode="Æ"/><glyph d="M505 1589q268 0 231 -275l-52 -360h-141l49 360q22 154 -104 154t-148 -154l-149 -1058q-22 -154 104.5 -154t148.5 154l51 364h143l-53 -366q-34 -249 -257 -273l-75 -68q70 -3 112.5 -40t30.5 -119q-15 -102 -70.5 -137t-151.5 -35h-55l11 73h54q55 0 82.5 22.5 t35.5 78.5q7 55 -18.5 76t-82.5 21h-44l9 60l75 68q-227 17 -193 273l150 1060q37 275 307 275z" glyph-name="Ccedilla" horiz-adv-x="721" unicode="Ç"/><glyph d="M521 1655h-128l-50 258h128zM601 1449h-239l-86 -604h236l-15 -120h-238l-85 -604h239l-17 -121h-382l222 1570h382z" glyph-name="Egrave" horiz-adv-x="559" unicode="È"/><glyph d="M640 1913l-121 -258h-128l121 258h128zM618 1570l-17 -121h-239l-86 -604h236l-15 -120h-238l-85 -604h239l-17 -121h-382l222 1570h382z" glyph-name="Eacute" horiz-adv-x="559" unicode="É"/><glyph d="M473 1826l-111 -171h-111l157 251h164l87 -251h-111l-62 171h-13zM618 1570l-17 -121h-239l-86 -604h236l-15 -120h-238l-85 -604h239l-17 -121h-382l222 1570h382z" glyph-name="Ecircumflex" horiz-adv-x="559" unicode="Ê"/><glyph d="M302 1684q-29 0 -48.5 20.5t-19.5 49.5t19.5 49t48.5 20t48.5 -20t19.5 -49t-19.5 -49.5t-48.5 -20.5zM584 1823q29 0 48.5 -20t19.5 -49t-19.5 -49.5t-48.5 -20.5t-49 20.5t-20 49.5t20 49t49 20zM618 1570l-17 -121h-239l-86 -604h236l-15 -120h-238l-85 -604h239 l-17 -121h-382l222 1570h382z" glyph-name="Edieresis" horiz-adv-x="559" unicode="Ë"/><glyph d="M384 1655h-128l-49 258h128zM14 0l222 1570h143l-222 -1570h-143z" glyph-name="Igrave" horiz-adv-x="329" unicode="Ì"/><glyph d="M256 1655l121 258h128l-121 -258h-128zM14 0l222 1570h143l-222 -1570h-143z" glyph-name="Iacute" horiz-adv-x="329" unicode="Í"/><glyph d="M114 1655l157 251h164l87 -251h-111l-61 171h-14l-111 -171h-111zM14 0l222 1570h143l-222 -1570h-143z" glyph-name="Icircumflex" horiz-adv-x="329" unicode="Î"/><glyph d="M167 1684q-29 0 -48.5 20.5t-19.5 49.5t19.5 49t48.5 20t49 -20t20 -49t-20 -49.5t-49 -20.5zM449 1684q-29 0 -48.5 20.5t-19.5 49.5t19.5 49t48.5 20t48.5 -20t19.5 -49t-19.5 -49.5t-48.5 -20.5zM14 0l222 1570h143l-222 -1570h-143z" glyph-name="Idieresis" horiz-adv-x="329" unicode="Ï"/><glyph d="M522 1570q150 0 190.5 -62t19.5 -214l-143 -1018q-22 -152 -80 -214t-209 -62h-288l102 722h-73l17 126h73l103 722h288zM591 1295q12 90 -12 122t-103 32h-116l-85 -601h90l-17 -126h-90l-86 -601h118q77 0 110 31.5t45 122.5z" glyph-name="Eth" horiz-adv-x="721" unicode="Ð"/><glyph d="M676 1673q-48 0 -78 18.5t-42 42.5t-35 42.5t-55 18.5q-39 0 -65.5 -23.5t-33.5 -66.5h-73q10 90 58.5 132t121.5 42q48 0 79 -19.5t42 -42t34 -42t55 -19.5q39 0 66 24t33 67h74q-24 -174 -181 -174zM14 0l222 1570h196l92 -1346h12l17 143l171 1203h133l-222 -1570 h-196l-94 1347h-12l-17 -146l-169 -1201h-133z" glyph-name="Ntilde" horiz-adv-x="807" unicode="Ñ"/><glyph d="M580 1655h-128l-49 258h128zM280 -19q-271 0 -231 275l149 1058q41 275 307 275q271 0 231 -275l-149 -1058q-41 -275 -307 -275zM297 102q126 0 148 154l147 1058q22 154 -104 154t-148 -154l-147 -1058q-22 -154 104 -154z" glyph-name="Ograve" unicode="Ò"/><glyph d="M452 1655l121 258h128l-121 -258h-128zM280 -19q-271 0 -231 275l149 1058q41 275 307 275q271 0 231 -275l-149 -1058q-41 -275 -307 -275zM297 102q126 0 148 154l147 1058q22 154 -104 154t-148 -154l-147 -1058q-22 -154 104 -154z" glyph-name="Oacute" unicode="Ó"/><glyph d="M311 1655l157 251h163l88 -251h-111l-62 171h-14l-110 -171h-111zM280 -19q-271 0 -231 275l149 1058q41 275 307 275q271 0 231 -275l-149 -1058q-41 -275 -307 -275zM297 102q126 0 148 154l147 1058q22 154 -104 154t-148 -154l-147 -1058q-22 -154 104 -154z" glyph-name="Ocircumflex" unicode="Ô"/><glyph d="M633 1673q-48 0 -77.5 18.5t-41.5 42.5t-35 42.5t-56 18.5q-39 0 -65.5 -23.5t-33.5 -66.5h-73q10 90 58.5 132t122.5 42q48 0 78.5 -19.5t41.5 -42t34 -42t56 -19.5q39 0 65.5 24t33.5 67h73q-24 -174 -181 -174zM280 -19q-271 0 -231 275l149 1058q41 275 307 275 q271 0 231 -275l-149 -1058q-41 -275 -307 -275zM297 102q126 0 148 154l147 1058q22 154 -104 154t-148 -154l-147 -1058q-22 -154 104 -154z" glyph-name="Otilde" unicode="Õ"/><glyph d="M364 1684q-29 0 -49 20.5t-20 49.5t20 49t49 20t48.5 -20t19.5 -49t-19.5 -49.5t-48.5 -20.5zM645 1684q-29 0 -48.5 20.5t-19.5 49.5t19.5 49t48.5 20t48.5 -20t19.5 -49t-19.5 -49.5t-48.5 -20.5zM280 -19q-271 0 -231 275l149 1058q41 275 307 275q271 0 231 -275 l-149 -1058q-41 -275 -307 -275zM297 102q126 0 148 154l147 1058q22 154 -104 154t-148 -154l-147 -1058q-22 -154 104 -154z" glyph-name="Odieresis" unicode="Ö"/><glyph d="M696 971l-218 -191l164 -189l-110 -94l-162 189l-218 -191l-87 101l218 191l-164 189l110 96l164 -190l216 190z" glyph-name="multiply" horiz-adv-x="761" unicode="×"/><glyph d="M775 1591l-50 -116q26 -63 11 -161l-149 -1058q-41 -275 -307 -275q-119 0 -178 51l-22 -51h-70l50 115q-24 65 -11 160l149 1058q41 275 307 275q119 0 178 -51l22 53h70zM340 1314l-116 -840l370 861q12 133 -106 133q-126 0 -148 -154zM445 256l116 841l-370 -860 q-14 -135 106 -135q126 0 148 154z" glyph-name="Oslash" unicode="Ø"/><glyph d="M580 1655h-128l-49 258h128zM282 -19q-270 0 -233 275l185 1314h143l-184 -1314q-22 -154 104 -154t148 154l185 1314h141l-184 -1314q-37 -275 -305 -275z" glyph-name="Ugrave" unicode="Ù"/><glyph d="M451 1655l121 258h128l-121 -258h-128zM282 -19q-270 0 -233 275l185 1314h143l-184 -1314q-22 -154 104 -154t148 154l185 1314h141l-184 -1314q-37 -275 -305 -275z" glyph-name="Uacute" unicode="Ú"/><glyph d="M311 1655l157 251h163l88 -251h-111l-62 171h-14l-110 -171h-111zM282 -19q-270 0 -233 275l185 1314h143l-184 -1314q-22 -154 104 -154t148 154l185 1314h141l-184 -1314q-37 -275 -305 -275z" glyph-name="Ucircumflex" unicode="Û"/><glyph d="M364 1684q-29 0 -49 20.5t-20 49.5t20 49t49 20t48.5 -20t19.5 -49t-19.5 -49.5t-48.5 -20.5zM645 1684q-29 0 -48.5 20.5t-19.5 49.5t19.5 49t48.5 20t48.5 -20t19.5 -49t-19.5 -49.5t-48.5 -20.5zM282 -19q-270 0 -233 275l185 1314h143l-184 -1314q-22 -154 104 -154 t148 154l185 1314h141l-184 -1314q-37 -275 -305 -275z" glyph-name="Udieresis" unicode="Ü"/><glyph d="M708 1913l-121 -258h-128l121 258h128zM824 1570l-377 -944l-89 -626h-140l89 626l-111 944h140l67 -720h10l271 720h140z" glyph-name="Yacute" horiz-adv-x="737" unicode="Ý"/><glyph d="M449 1374q157 0 203 -65t24 -222l-85 -602q-22 -155 -86.5 -221t-221.5 -66h-99l-27 -198h-143l222 1570h143l-27 -196h97zM531 1080q14 96 -13.5 131t-107.5 35h-77l-130 -920h77q80 0 118.5 35t50.5 131z" glyph-name="Thorn" horiz-adv-x="694" unicode="Þ"/><glyph d="M14 0l184 1311q38 275 290 274q121 0 180 -63t39 -211l-38 -260q-15 -113 -56 -164t-116 -83l-2 -7q68 -32 95.5 -83.5t10.5 -163.5l-40 -289q-22 -147 -98.5 -204t-208.5 -57h-46l14 114h46q140 0 162 156l41 298q14 96 -18.5 136t-104.5 40h-36l16 114h34 q73 0 116.5 39.5t57.5 135.5l43 300q22 152 -103 152q-123 0 -145 -152l-186 -1333h-131z" glyph-name="germandbls" horiz-adv-x="696" unicode="ß"/><glyph d="M474 1212h-128l-49 257h128zM410 1143q114 0 164.5 -47.5t36.5 -153.5l-133 -942h-114l10 131q-56 -148 -203 -148q-79 0 -118 47t-27 134l44 317q27 200 217 200h155l34 246q10 67 -7 96.5t-73 29.5q-58 0 -84.5 -30.5t-36.5 -95.5l-22 -150h-125l24 165 q17 108 79.5 154.5t178.5 46.5zM246 82q49 0 86 37.5t45 100.5v-2l53 383h-106q-58 0 -86 -29t-37 -94l-39 -285q-7 -55 16.5 -83t67.5 -28z" glyph-name="agrave" horiz-adv-x="638" unicode="à"/><glyph d="M596 1469l-122 -257h-128l122 257h128zM410 1143q114 0 164.5 -47.5t36.5 -153.5l-133 -942h-114l10 131q-56 -148 -203 -148q-79 0 -118 47t-27 134l44 317q27 200 217 200h155l34 246q10 67 -7 96.5t-73 29.5q-58 0 -84.5 -30.5t-36.5 -95.5l-22 -150h-125l24 165 q17 108 79.5 154.5t178.5 46.5zM246 82q49 0 86 37.5t45 100.5v-2l53 383h-106q-58 0 -86 -29t-37 -94l-39 -285q-7 -55 16.5 -83t67.5 -28z" glyph-name="aacute" horiz-adv-x="638" unicode="á"/><glyph d="M428 1382l-111 -170h-110l157 251h163l87 -251h-111l-61 170h-14zM410 1143q114 0 164.5 -47.5t36.5 -153.5l-133 -942h-114l10 131q-56 -148 -203 -148q-79 0 -118 47t-27 134l44 317q27 200 217 200h155l34 246q10 67 -7 96.5t-73 29.5q-58 0 -84.5 -30.5t-36.5 -95.5 l-22 -150h-125l24 165q17 108 79.5 154.5t178.5 46.5zM246 82q49 0 86 37.5t45 100.5v-2l53 383h-106q-58 0 -86 -29t-37 -94l-39 -285q-7 -55 16.5 -83t67.5 -28z" glyph-name="acircumflex" horiz-adv-x="638" unicode="â"/><glyph d="M637 1403h73q-24 -174 -181 -174q-48 0 -77.5 18.5t-41.5 42.5t-35 43t-56 19q-39 0 -65.5 -24t-33.5 -67h-73q10 90 58.5 132t122.5 42q48 0 78.5 -19.5t41.5 -41.5t34 -42t56 -20q39 0 65.5 24t33.5 67zM410 1143q114 0 164.5 -47.5t36.5 -153.5l-133 -942h-114l10 131 q-56 -148 -203 -148q-79 0 -118 47t-27 134l44 317q27 200 217 200h155l34 246q10 67 -7 96.5t-73 29.5q-58 0 -84.5 -30.5t-36.5 -95.5l-22 -150h-125l24 165q17 108 79.5 154.5t178.5 46.5zM246 82q49 0 86 37.5t45 100.5v-2l53 383h-106q-58 0 -86 -29t-37 -94l-39 -285 q-7 -55 16.5 -83t67.5 -28z" glyph-name="atilde" horiz-adv-x="638" unicode="ã"/><glyph d="M258 1241q-29 0 -49 20.5t-20 49.5t20 48.5t49 19.5t48.5 -19.5t19.5 -48.5t-19.5 -49.5t-48.5 -20.5zM539 1241q-29 0 -48.5 20.5t-19.5 49.5t19.5 48.5t48.5 19.5t49 -19.5t20 -48.5t-20 -49.5t-49 -20.5zM410 1143q114 0 164.5 -47.5t36.5 -153.5l-133 -942h-114 l10 131q-56 -148 -203 -148q-79 0 -118 47t-27 134l44 317q27 200 217 200h155l34 246q10 67 -7 96.5t-73 29.5q-58 0 -84.5 -30.5t-36.5 -95.5l-22 -150h-125l24 165q17 108 79.5 154.5t178.5 46.5zM246 82q49 0 86 37.5t45 100.5v-2l53 383h-106q-58 0 -86 -29t-37 -94 l-39 -285q-7 -55 16.5 -83t67.5 -28z" glyph-name="adieresis" horiz-adv-x="638" unicode="ä"/><glyph d="M410 1186q-68 0 -110 42t-42 105q0 82 58 140t140 58q70 0 111 -41t41 -104q0 -82 -58 -141t-140 -59zM447 1459q-46 0 -79 -34t-33 -80q0 -38 23 -61.5t60 -23.5q46 0 80 33t34 81q0 36 -23.5 60.5t-61.5 24.5zM410 1143q114 0 164.5 -47.5t36.5 -153.5l-133 -942h-114 l10 131q-56 -148 -203 -148q-79 0 -118 47t-27 134l44 317q27 200 217 200h155l34 246q10 67 -7 96.5t-73 29.5q-58 0 -84.5 -30.5t-36.5 -95.5l-22 -150h-125l24 165q17 108 79.5 154.5t178.5 46.5zM246 82q49 0 86 37.5t45 100.5v-2l53 383h-106q-58 0 -86 -29t-37 -94 l-39 -285q-7 -55 16.5 -83t67.5 -28z" glyph-name="aring" horiz-adv-x="638" unicode="å"/><glyph d="M746 1143q106 0 160.5 -52t37.5 -185l-57 -399h-337l-45 -316q-9 -111 91 -111q109 0 126 127l20 145h123l-17 -132q-34 -237 -266 -237q-191 0 -207 154q-56 -154 -204 -154q-79 0 -118 47t-27 134l44 317q29 200 217 200h155l34 246q10 67 -7 96.5t-73 29.5 q-58 0 -84.5 -30.5t-36.5 -95.5l-22 -150h-125l24 165q17 108 79.5 154.5t178.5 46.5t163 -46q65 46 173 46zM821 920q19 126 -91 126q-99 0 -121 -114l-48 -336h214zM246 82q48 0 83.5 35t45.5 96q2 2 2 9l46 328l7 51h-106q-58 0 -86 -29t-37 -94l-39 -285 q-9 -55 15.5 -83t68.5 -28z" glyph-name="ae" horiz-adv-x="977" unicode="æ"/><glyph d="M401 1143q234 0 201 -232l-32 -228h-128l34 244q17 116 -89 116q-108 0 -122 -116l-103 -727q-15 -116 90.5 -116t122.5 116l33 237h128l-33 -222q-29 -207 -215 -229l-80 -73q70 -3 113 -40t31 -119q-15 -102 -71 -137t-151 -35h-55l10 73h55q55 0 82 22.5t36 78.5 q7 55 -19 76t-82 21h-44l8 60l79 72q-196 15 -168 230l99 696q33 232 270 232z" glyph-name="ccedilla" horiz-adv-x="634" unicode="ç"/><glyph d="M473 1212h-128l-50 257h128zM403 1143q230 0 196 -237l-55 -399h-339l-41 -299q-17 -128 89 -128q108 0 124 127l21 145h124l-19 -132q-34 -237 -264 -237q-239 0 -205 239l97 684q33 237 272 237zM478 920q19 126 -91 126q-106 0 -124 -126l-45 -324h214z" glyph-name="egrave" horiz-adv-x="633" unicode="è"/><glyph d="M592 1469l-121 -257h-128l121 257h128zM403 1143q230 0 196 -237l-55 -399h-339l-41 -299q-17 -128 89 -128q108 0 124 127l21 145h124l-19 -132q-34 -237 -264 -237q-239 0 -205 239l97 684q33 237 272 237zM478 920q19 126 -91 126q-106 0 -124 -126l-45 -324h214z" glyph-name="eacute" horiz-adv-x="633" unicode="é"/><glyph d="M425 1382l-111 -170h-111l157 251h164l87 -251h-111l-61 170h-14zM403 1143q230 0 196 -237l-55 -399h-339l-41 -299q-17 -128 89 -128q108 0 124 127l21 145h124l-19 -132q-34 -237 -264 -237q-239 0 -205 239l97 684q33 237 272 237zM478 920q19 126 -91 126 q-106 0 -124 -126l-45 -324h214z" glyph-name="ecircumflex" horiz-adv-x="633" unicode="ê"/><glyph d="M256 1241q-29 0 -48.5 20.5t-19.5 49.5t19.5 48.5t48.5 19.5t48.5 -19.5t19.5 -48.5t-19.5 -49.5t-48.5 -20.5zM538 1241q-29 0 -49 20.5t-20 49.5t20 48.5t49 19.5t48.5 -19.5t19.5 -48.5t-19.5 -49.5t-48.5 -20.5zM403 1143q230 0 196 -237l-55 -399h-339l-41 -299 q-17 -128 89 -128q108 0 124 127l21 145h124l-19 -132q-34 -237 -264 -237q-239 0 -205 239l97 684q33 237 272 237zM478 920q19 126 -91 126q-106 0 -124 -126l-45 -324h214z" glyph-name="edieresis" horiz-adv-x="633" unicode="ë"/><glyph d="M314 1212h-128l-49 257h128zM14 0l158 1126h132l-159 -1126h-131z" glyph-name="igrave" horiz-adv-x="317" unicode="ì"/><glyph d="M186 1212l121 257h128l-121 -257h-128zM14 0l158 1126h132l-159 -1126h-131z" glyph-name="iacute" horiz-adv-x="317" unicode="í"/><glyph d="M46 1212l157 251h164l87 -251h-111l-61 170h-14l-111 -170h-111zM14 0l158 1126h132l-159 -1126h-131z" glyph-name="icircumflex" horiz-adv-x="317" unicode="î"/><glyph d="M97 1241q-29 0 -48.5 20.5t-19.5 49.5t19.5 48.5t48.5 19.5t49 -19.5t20 -48.5t-20 -49.5t-49 -20.5zM379 1241q-29 0 -48.5 20.5t-19.5 49.5t19.5 48.5t48.5 19.5t48.5 -19.5t19.5 -48.5t-19.5 -49.5t-48.5 -20.5zM14 0l158 1126h132l-159 -1126h-131z" glyph-name="idieresis" horiz-adv-x="317" unicode="ï"/><glyph d="M812 1169l-8 -55h-79l-136 -855q-43 -275 -312.5 -274.5t-227.5 274.5l77 477q22 142 98 203t174 61q114 0 153 -80l31 194h-138l8 55h139l23 147q24 154 -102 153.5t-148 -153.5l-29 -179h-140l29 181q43 273 307 273q268 0 227 -273l-24 -149h78zM521 724 q24 154 -105 153q-55 0 -95.5 -35.5t-54.5 -117.5l-75 -465q-22 -154 104.5 -153.5t151.5 153.5z" glyph-name="eth" horiz-adv-x="740" unicode="ð"/><glyph d="M638 1403h74q-24 -174 -181 -174q-48 0 -78 18.5t-42 42.5t-35 43t-55 19q-39 0 -65.5 -24t-33.5 -67h-74q10 90 59 132t122 42q48 0 79 -19.5t42 -41.5t34 -42t55 -20q39 0 65.5 24t33.5 67zM473 1143q77 0 116 -45t27 -132l-136 -966h-132l132 934q7 53 -16.5 81 t-67.5 28q-46 0 -82 -30t-48 -81l-131 -932h-132l159 1126h116l-12 -128q27 67 82 106t125 39z" glyph-name="ntilde" horiz-adv-x="641" unicode="ñ"/><glyph d="M474 1212h-128l-49 257h128zM237 -17q-237 0 -205 232l99 696q32 232 269.5 232t205.5 -232l-97 -696q-33 -232 -272 -232zM252.5 84q105.5 0 122.5 116l101 727q17 116 -89 116q-108 0 -122 -116l-103 -727q-15 -116 90.5 -116z" glyph-name="ograve" horiz-adv-x="638" unicode="ò"/><glyph d="M346 1212l122 257h128l-122 -257h-128zM237 -17q-237 0 -205 232l99 696q32 232 269.5 232t205.5 -232l-97 -696q-33 -232 -272 -232zM252.5 84q105.5 0 122.5 116l101 727q17 116 -89 116q-108 0 -122 -116l-103 -727q-15 -116 90.5 -116z" glyph-name="oacute" horiz-adv-x="638" unicode="ó"/><glyph d="M207 1212l157 251h163l87 -251h-111l-61 170h-14l-111 -170h-110zM237 -17q-237 0 -205 232l99 696q32 232 269.5 232t205.5 -232l-97 -696q-33 -232 -272 -232zM252.5 84q105.5 0 122.5 116l101 727q17 116 -89 116q-108 0 -122 -116l-103 -727q-15 -116 90.5 -116z" glyph-name="ocircumflex" horiz-adv-x="638" unicode="ô"/><glyph d="M529 1229q-48 0 -77.5 18.5t-41.5 42.5t-35 43t-56 19q-39 0 -65.5 -24t-33.5 -67h-73q10 90 58.5 132t122.5 42q48 0 78.5 -19.5t41.5 -41.5t34 -42t56 -20q39 0 65.5 24t33.5 67h73q-24 -174 -181 -174zM237 -17q-237 0 -205 232l99 696q32 232 269.5 232t205.5 -232 l-97 -696q-33 -232 -272 -232zM252.5 84q105.5 0 122.5 116l101 727q17 116 -89 116q-108 0 -122 -116l-103 -727q-15 -116 90.5 -116z" glyph-name="otilde" horiz-adv-x="638" unicode="õ"/><glyph d="M258 1241q-29 0 -49 20.5t-20 49.5t20 48.5t49 19.5t48.5 -19.5t19.5 -48.5t-19.5 -49.5t-48.5 -20.5zM539 1241q-29 0 -48.5 20.5t-19.5 49.5t19.5 48.5t48.5 19.5t49 -19.5t20 -48.5t-20 -49.5t-49 -20.5zM237 -17q-237 0 -205 232l99 696q32 232 269.5 232t205.5 -232 l-97 -696q-33 -232 -272 -232zM252.5 84q105.5 0 122.5 116l101 727q17 116 -89 116q-108 0 -122 -116l-103 -727q-15 -116 90.5 -116z" glyph-name="odieresis" horiz-adv-x="638" unicode="ö"/><glyph d="M506.5 1058q-32.5 0 -55.5 23t-23 55.5t23 54.5t55.5 22t55.5 -22t23 -54.5t-23 -55.5t-55.5 -23zM97 719l21 133h734l-21 -133h-734zM409.5 360q-32.5 0 -55.5 22t-23 54.5t23 55t55.5 22.5t55.5 -22.5t23 -55t-23 -54.5t-55.5 -22z" glyph-name="divide" horiz-adv-x="902" unicode="÷"/><glyph d="M695 1201l-75 -150q26 -53 13 -140l-99 -696q-32 -232 -269 -232q-101 0 -154 41l-56 -114h-55l77 155q-29 56 -17 150l97 696q32 232 271 232q106 0 159 -46l51 104h57zM290 927l-82 -598l295 599q14 114 -90 115q-106 0 -123 -116zM401 200l80 571l-293 -594 q-5 -94 90 -93q108 0 123 116z" glyph-name="oslash" horiz-adv-x="694" unicode="ø"/><glyph d="M476 1212h-128l-49 257h128zM507 1126h131l-158 -1126h-116l11 128q-27 -67 -81.5 -106t-124.5 -39q-77 0 -116 45t-27 132l136 966h132l-132 -933q-7 -53 16 -81t68 -28q46 0 82 29.5t47 81.5z" glyph-name="ugrave" horiz-adv-x="641" unicode="ù"/><glyph d="M597 1469l-121 -257h-128l121 257h128zM507 1126h131l-158 -1126h-116l11 128q-27 -67 -81.5 -106t-124.5 -39q-77 0 -116 45t-27 132l136 966h132l-132 -933q-7 -53 16 -81t68 -28q46 0 82 29.5t47 81.5z" glyph-name="uacute" horiz-adv-x="641" unicode="ú"/><glyph d="M430 1382l-111 -170h-111l157 251h164l87 -251h-111l-61 170h-14zM507 1126h131l-158 -1126h-116l11 128q-27 -67 -81.5 -106t-124.5 -39q-77 0 -116 45t-27 132l136 966h132l-132 -933q-7 -53 16 -81t68 -28q46 0 82 29.5t47 81.5z" glyph-name="ucircumflex" horiz-adv-x="641" unicode="û"/><glyph d="M259 1241q-29 0 -48.5 20.5t-19.5 49.5t19.5 48.5t48.5 19.5t49 -19.5t20 -48.5t-20 -49.5t-49 -20.5zM541 1241q-29 0 -48.5 20.5t-19.5 49.5t19.5 48.5t48.5 19.5t48.5 -19.5t19.5 -48.5t-19.5 -49.5t-48.5 -20.5zM507 1126h131l-158 -1126h-116l11 128 q-27 -67 -81.5 -106t-124.5 -39q-77 0 -116 45t-27 132l136 966h132l-132 -933q-7 -53 16 -81t68 -28q46 0 82 29.5t47 81.5z" glyph-name="udieresis" horiz-adv-x="641" unicode="ü"/><glyph d="M596 1469l-122 -257h-128l122 257h128zM505 1126h132l-166 -1184q-19 -123 -86.5 -177.5t-200.5 -54.5q-92 0 -179 5l12 94h128q102 0 143 34t55 123l19 138q-63 -121 -195 -121q-77 0 -115 45t-26 132l136 966h132l-132 -933q-7 -53 15.5 -81t66.5 -28q49 0 87 33t46 88 z" glyph-name="yacute" horiz-adv-x="640" unicode="ý"/><glyph d="M473 1143q77 0 115 -46.5t26 -133.5l-104 -739q-19 -131 -83.5 -186t-150.5 -55q-77 0 -139 34l-2 -17l-38 -266h-131l196 1392l63 444h132l-77 -546q60 119 193 119zM480 934q7 53 -16.5 81t-65.5 28q-49 0 -86 -35t-47 -95l-113 -794q48 -31 99 -30q113 0 128 126z" glyph-name="thorn" horiz-adv-x="640" unicode="þ"/><glyph d="M258 1241q-29 0 -49 20.5t-20 49.5t20 48.5t49 19.5t48.5 -19.5t19.5 -48.5t-19.5 -49.5t-48.5 -20.5zM539 1241q-29 0 -48.5 20.5t-19.5 49.5t19.5 48.5t48.5 19.5t49 -19.5t20 -48.5t-20 -49.5t-49 -20.5zM505 1126h132l-166 -1184q-19 -123 -86.5 -177.5t-200.5 -54.5 q-92 0 -179 5l12 94h128q102 0 143 34t55 123l19 138q-63 -121 -195 -121q-77 0 -115 45t-26 132l136 966h132l-132 -933q-7 -53 15.5 -81t66.5 -28q49 0 87 33t46 88z" glyph-name="ydieresis" horiz-adv-x="640" unicode="ÿ"/><glyph d="M353 1783h412l-17 -116h-413zM-14 0l415 1570h258l-29 -1570h-138l8 345h-287l-90 -345h-137zM524 1440h-26l-254 -974h258z" glyph-name="Amacron" horiz-adv-x="773" unicode="Ā"/><glyph d="M224 1340h411l-17 -116h-413zM410 1143q114 0 164.5 -47.5t36.5 -153.5l-133 -942h-114l10 131q-56 -148 -203 -148q-79 0 -118 47t-27 134l44 317q27 200 217 200h155l34 246q10 67 -7 96.5t-73 29.5q-58 0 -84.5 -30.5t-36.5 -95.5l-22 -150h-125l24 165 q17 108 79.5 154.5t178.5 46.5zM246 82q49 0 86 37.5t45 100.5v-2l53 383h-106q-58 0 -86 -29t-37 -94l-39 -285q-7 -55 16.5 -83t67.5 -28z" glyph-name="amacron" horiz-adv-x="638" unicode="ā"/><glyph d="M708 1903h99l-7 -50q-15 -113 -80 -152.5t-179 -39.5t-167 40t-38 152l7 50h99l-3 -27q-10 -70 22 -96t94 -26q131 0 150 122zM-14 0l415 1570h258l-29 -1570h-138l8 345h-287l-90 -345h-137zM524 1440h-26l-254 -974h258z" glyph-name="Abreve" horiz-adv-x="773" unicode="Ă"/><glyph d="M577 1459h99l-7 -49q-15 -113 -80 -153t-179.5 -40t-167.5 40t-37 153l7 49h99l-4 -27q-10 -70 22.5 -95.5t93.5 -25.5q131 0 150 121zM410 1143q114 0 164.5 -47.5t36.5 -153.5l-133 -942h-114l10 131q-56 -148 -203 -148q-79 0 -118 47t-27 134l44 317q27 200 217 200 h155l34 246q10 67 -7 96.5t-73 29.5q-58 0 -84.5 -30.5t-36.5 -95.5l-22 -150h-125l24 165q17 108 79.5 154.5t178.5 46.5zM246 82q49 0 86 37.5t45 100.5v-2l53 383h-106q-58 0 -86 -29t-37 -94l-39 -285q-7 -55 16.5 -83t67.5 -28z" glyph-name="abreve" horiz-adv-x="638" unicode="ă"/><glyph d="M631 87l-1 -87h-91q-61 0 -97 -35t-44.5 -91.5t19 -91.5t88.5 -35h79l-33 -100h-63q-119 0 -175.5 62t-42.5 165q12 87 70.5 141.5t152.5 68.5l7 261h-287l-90 -345h-137l415 1570h258zM244 466h258l22 974h-26z" glyph-name="Aogonek" horiz-adv-x="773" unicode="Ą"/><glyph d="M410 1143q114 0 164.5 -47.5t36.5 -153.5l-147 -1048h-107q-84 0 -94 -73q-10 -75 73 -75h108l-31 -86h-111q-79 0 -122 40.5t-32 113.5q20 154 198 154h31l4 32h-17l10 131q-56 -148 -203 -148q-79 0 -118 47t-27 134l44 317q27 200 217 200h155l34 246q10 67 -7 96.5 t-73 29.5q-58 0 -84.5 -30.5t-36.5 -95.5l-22 -150h-125l24 165q17 108 79.5 154.5t178.5 46.5zM246 82q49 0 86 37.5t45 100.5v-2l53 383h-106q-58 0 -86 -29t-37 -94l-39 -285q-7 -55 16.5 -83t67.5 -28z" glyph-name="aogonek" horiz-adv-x="640" unicode="ą"/><glyph d="M452 1655l121 258h128l-121 -258h-128zM280 -20q-270 0 -232 274l150 1060q38 275 307 275q268 0 231 -275l-52 -360h-141l49 360q22 154 -104 154t-148 -154l-149 -1058q-22 -154 104.5 -154t148.5 154l51 364h143l-53 -366q-37 -274 -305 -274z" glyph-name="Cacute" horiz-adv-x="721" unicode="Ć"/><glyph d="M343 1212l121 257h128l-121 -257h-128zM570 683h-128l34 244q17 116 -89 116q-108 0 -122 -116l-103 -727q-15 -116 90.5 -116t122.5 116l33 237h128l-33 -222q-32 -232 -266 -232q-237 0 -205 232l99 696q32 232 270 232q234 0 201 -232z" glyph-name="cacute" horiz-adv-x="634" unicode="ć"/><glyph d="M527 1684q-29 0 -49.5 20.5t-20.5 49.5t20.5 49t49.5 20t50.5 -20t21.5 -49t-21.5 -49.5t-50.5 -20.5zM280 -20q-270 0 -232 274l150 1060q38 275 307 275q268 0 231 -275l-52 -360h-141l49 360q22 154 -104 154t-148 -154l-149 -1058q-22 -154 104.5 -154t148.5 154 l51 364h143l-53 -366q-37 -274 -305 -274z" glyph-name="Cdotaccent" horiz-adv-x="721" unicode="Ċ"/><glyph d="M418 1241q-29 0 -49.5 20.5t-20.5 49.5t20.5 48.5t49.5 19.5t50.5 -19.5t21.5 -48.5t-21.5 -49.5t-50.5 -20.5zM570 683h-128l34 244q17 116 -89 116q-108 0 -122 -116l-103 -727q-15 -116 90.5 -116t122.5 116l33 237h128l-33 -222q-32 -232 -266 -232q-237 0 -205 232 l99 696q32 232 270 232q234 0 201 -232z" glyph-name="cdotaccent" horiz-adv-x="634" unicode="ċ"/><glyph d="M345 1906h111l63 -170h13l111 170h110l-157 -251h-163zM280 -20q-270 0 -232 274l150 1060q38 275 307 275q268 0 231 -275l-52 -360h-141l49 360q22 154 -104 154t-148 -154l-149 -1058q-22 -154 104.5 -154t148.5 154l51 364h143l-53 -366q-37 -274 -305 -274z" glyph-name="Ccaron" horiz-adv-x="721" unicode="Č"/><glyph d="M237 1463h111l63 -171h14l111 171h109l-157 -251h-162zM570 683h-128l34 244q17 116 -89 116q-108 0 -122 -116l-103 -727q-15 -116 90.5 -116t122.5 116l33 237h128l-33 -222q-32 -232 -266 -232q-237 0 -205 232l99 696q32 232 270 232q234 0 201 -232z" glyph-name="ccaron" horiz-adv-x="634" unicode="č"/><glyph d="M594 1655h-162l-89 251h111l63 -170h14l111 170h109zM524 1570q150 0 190 -62t18 -214l-141 -1018q-22 -152 -80.5 -214t-208.5 -62h-288l222 1570h288zM591 1295q12 90 -12 122t-101 32h-116l-188 -1328h116q79 0 112 31.5t45 122.5z" glyph-name="Dcaron" unicode="Ď"/><glyph d="M775 1906h109l-157 -251h-162l-89 251h111l63 -170h14zM568 1570h132l-63 -454l-157 -1116h-116l11 131q-58 -148 -203 -148q-80 0 -118.5 47t-26.5 134l104 749q19 128 86.5 179t181.5 51q61 0 108 -6zM377 207l115 817q-44 20 -96 20q-65 0 -94 -30.5t-37 -95.5 l-103 -725q-7 -53 16 -82t68 -29q48 0 83.5 33.5t47.5 91.5z" glyph-name="dcaron" horiz-adv-x="640" unicode="ď"/><glyph d="M522 1570q150 0 190.5 -62t19.5 -214l-143 -1018q-22 -152 -80 -214t-209 -62h-288l102 722h-73l17 126h73l103 722h288zM591 1295q12 90 -12 122t-103 32h-116l-85 -601h90l-17 -126h-90l-86 -601h118q77 0 110 31.5t45 122.5z" glyph-name="Dcroat" horiz-adv-x="721" unicode="Đ"/><glyph d="M754 1289h-94l-23 -173l-157 -1116h-116l11 131q-58 -148 -203 -148q-80 0 -118.5 47t-26.5 134l104 749q19 128 86.5 179t181.5 51q61 0 108 -6l22 152h-241l9 44h237l34 237h132l-33 -237h96zM377 207l115 817q-44 20 -96 20q-65 0 -94 -30.5t-37 -95.5l-103 -725 q-7 -53 16 -82t68 -29q48 0 83.5 33.5t47.5 91.5z" glyph-name="dcroat" horiz-adv-x="662" unicode="đ"/><glyph d="M268 1783h411l-17 -116h-413zM618 1570l-17 -121h-239l-86 -604h236l-15 -120h-238l-85 -604h239l-17 -121h-382l222 1570h382z" glyph-name="Emacron" horiz-adv-x="559" unicode="Ē"/><glyph d="M220 1340h411l-17 -116h-413zM403 1143q230 0 196 -237l-55 -399h-339l-41 -299q-17 -128 89 -128q108 0 124 127l21 145h124l-19 -132q-34 -237 -264 -237q-239 0 -205 239l97 684q33 237 272 237zM478 920q19 126 -91 126q-106 0 -124 -126l-45 -324h214z" glyph-name="emacron" horiz-adv-x="633" unicode="ē"/><glyph d="M466 1684q-29 0 -49.5 20.5t-20.5 49.5t20.5 49t49.5 20t50.5 -20t21.5 -49t-21.5 -49.5t-50.5 -20.5zM601 1449h-239l-86 -604h236l-15 -120h-238l-85 -604h239l-17 -121h-382l222 1570h382z" glyph-name="Edotaccent" horiz-adv-x="559" unicode="Ė"/><glyph d="M418 1241q-29 0 -49.5 20.5t-20.5 49.5t20.5 48.5t49.5 19.5t50.5 -19.5t21.5 -48.5t-21.5 -49.5t-50.5 -20.5zM403 1143q230 0 196 -237l-55 -399h-339l-41 -299q-17 -128 89 -128q108 0 124 127l21 145h124l-19 -132q-34 -237 -264 -237q-239 0 -205 239l97 684 q33 237 272 237zM478 920q19 126 -91 126q-106 0 -124 -126l-45 -324h214z" glyph-name="edotaccent" horiz-adv-x="633" unicode="ė"/><glyph d="M601 1449h-239l-86 -604h236l-15 -120h-238l-85 -604h239l-5 -34h2l-14 -87h-79q-61 0 -97 -35t-44.5 -91.5t19 -91.5t88.5 -35h79l-33 -100h-63q-119 0 -175.5 62t-42.5 165q10 75 56 126h-90l222 1570h382z" glyph-name="Eogonek" horiz-adv-x="559" unicode="Ę"/><glyph d="M403 1143q230 0 196 -237l-55 -399h-339l-41 -299q-17 -128 89 -128q108 0 124 127l21 145h124l-19 -132q-22 -167 -143 -217l-101 -39q-113 -46 -112 -135q0 -84 87 -83h92l-29 -86h-106q-73 0 -117.5 36t-44.5 108q0 68 36 110t104 76q-164 31 -135 232l97 684 q33 237 272 237zM478 920q19 126 -91 126q-106 0 -124 -126l-45 -324h214z" glyph-name="eogonek" horiz-adv-x="633" unicode="ę"/><glyph d="M536 1655h-162l-89 251h111l63 -170h14l111 170h109zM618 1570l-17 -121h-239l-86 -604h236l-15 -120h-238l-85 -604h239l-17 -121h-382l222 1570h382z" glyph-name="Ecaron" horiz-adv-x="559" unicode="Ě"/><glyph d="M488 1212h-162l-89 251h111l63 -171h14l111 171h109zM403 1143q230 0 196 -237l-55 -399h-339l-41 -299q-17 -128 89 -128q108 0 124 127l21 145h124l-19 -132q-34 -237 -264 -237q-239 0 -205 239l97 684q33 237 272 237zM478 920q19 126 -91 126q-106 0 -124 -126 l-45 -324h214z" glyph-name="ecaron" horiz-adv-x="633" unicode="ě"/><glyph d="M515.5 1661q-114.5 0 -167.5 40t-37 152l6 50h99l-3 -27q-10 -70 22.5 -96t93.5 -26q131 0 150 122l4 27h99l-7 -50q-15 -113 -80 -152.5t-179.5 -39.5zM280 -19q-268 0 -231 277l149 1054q38 276 307 277q268 0 231 -277l-40 -285h-143l39 285q22 155 -104 155.5 t-148 -155.5l-147 -1054q-22 -155 107 -156q131 0 152 156l65 457h-153l15 111h288l-80 -568q-37 -277 -307 -277z" glyph-name="Gbreve" unicode="Ğ"/><glyph d="M582 1459h99l-7 -49q-15 -113 -80 -153t-179.5 -40t-167 40t-37.5 153l7 49h99l-4 -27q-10 -70 22.5 -95.5t93.5 -25.5q131 0 151 121zM131 913q19 128 86.5 179t181.5 51q108 0 238 -27l-164 -1167q-19 -126 -86.5 -182.5t-202.5 -56.5q-72 0 -162 5l12 94h111 q102 0 143 34t55 123l19 138q-61 -121 -191 -121q-79 0 -118 47t-27 134zM246 82q48 0 83.5 35t47.5 96l113 811q-61 20 -96 20q-65 0 -93 -30.5t-38 -95.5l-101 -725q-9 -53 15.5 -82t68.5 -29z" glyph-name="gbreve" horiz-adv-x="640" unicode="ğ"/><glyph d="M527 1684q-29 0 -49.5 20.5t-20.5 49.5t20.5 49t49.5 20t50.5 -20t21.5 -49t-21.5 -49.5t-50.5 -20.5zM280 -19q-268 0 -231 277l149 1054q38 276 307 277q268 0 231 -277l-40 -285h-143l39 285q22 155 -104 155.5t-148 -155.5l-147 -1054q-22 -155 107 -156 q131 0 152 156l65 457h-153l15 111h288l-80 -568q-37 -277 -307 -277z" glyph-name="Gdotaccent" unicode="Ġ"/><glyph d="M425 1241q-29 0 -49.5 20.5t-20.5 49.5t20.5 48.5t49.5 19.5t50.5 -19.5t21.5 -48.5t-21.5 -49.5t-50.5 -20.5zM399 1143q108 0 238 -27l-164 -1167q-19 -126 -86.5 -182.5t-202.5 -56.5q-72 0 -162 5l12 94h111q102 0 143 34t55 123l19 138q-61 -121 -191 -121 q-79 0 -118 47t-27 134l105 749q19 128 86.5 179t181.5 51zM246 82q48 0 83.5 35t47.5 96l113 811q-61 20 -96 20q-65 0 -93 -30.5t-38 -95.5l-101 -725q-9 -53 15.5 -82t68.5 -29z" glyph-name="gdotaccent" horiz-adv-x="640" unicode="ġ"/><glyph d="M280 -19q-268 0 -231 277l149 1054q38 276 307 277q268 0 231 -277l-40 -285h-143l39 285q22 155 -104 155.5t-148 -155.5l-147 -1054q-22 -155 107 -156q131 0 152 156l65 457h-153l15 111h288l-80 -568q-37 -277 -307 -277zM225 -336l12 80q-2 -5 -10 -5h-56l17 116 h136l-17 -114z" glyph-name="Gcommaaccent" unicode="Ģ"/><glyph d="M521 1336l-18 -124h-146l18 123l88 82l-12 -86q5 5 12 5h58zM399 1143q108 0 238 -27l-164 -1167q-19 -126 -86.5 -182.5t-202.5 -56.5q-72 0 -162 5l12 94h111q102 0 143 34t55 123l19 138q-61 -121 -191 -121q-79 0 -118 47t-27 134l105 749q19 128 86.5 179t181.5 51z M246 82q48 0 83.5 35t47.5 96l113 811q-61 20 -96 20q-65 0 -93 -30.5t-38 -95.5l-101 -725q-9 -53 15.5 -82t68.5 -29z" glyph-name="gcommaaccent" horiz-adv-x="640" unicode="ģ"/><glyph d="M640 1570h143l-222 -1570h-143l101 719h-256l-101 -719h-143l222 1570h143l-61 -438h256zM280 838h256l25 176h-256z" glyph-name="Hbar" horiz-adv-x="733" unicode="Ħ"/><glyph d="M473 1143q77 0 116 -45t27 -132l-136 -966h-132l132 934q7 53 -16.5 81t-67.5 28t-80 -29t-48 -77l-133 -937h-132l159 1126l31 210h-63l7 55h63l25 179h132l-26 -179h172l-8 -55h-171l-44 -309q63 116 193 116z" glyph-name="hbar" horiz-adv-x="641" unicode="ħ"/><glyph d="M113 1667l18 116h412l-17 -116h-413zM14 0l222 1570h143l-222 -1570h-143z" glyph-name="Imacron" horiz-adv-x="329" unicode="Ī"/><glyph d="M44 1224l19 116h411l-17 -116h-413zM14 0l158 1126h132l-159 -1126h-131z" glyph-name="imacron" horiz-adv-x="317" unicode="ī"/><glyph d="M236 1570h143l-222 -1570h-80q-61 0 -97 -35t-44.5 -91.5t18.5 -91.5t89 -35h78l-32 -100h-63q-119 0 -176 62t-43 165q12 85 69 139.5t150 68.5z" glyph-name="Iogonek" horiz-adv-x="329" unicode="Į"/><glyph d="M254 1379q29 0 50.5 -19.5t21.5 -48.5t-21.5 -49.5t-50.5 -20.5t-49.5 20.5t-20.5 49.5t20.5 48.5t49.5 19.5zM7 0l159 1126h131l-172 -1232h-110q-84 0 -97 -73q-14 -75 72 -75h106l-33 -86h-111q-79 0 -119.5 40.5t-28.5 113.5q26 154 203 154h31l3 32h-34z" glyph-name="iogonek" horiz-adv-x="315" unicode="į"/><glyph d="M331 1684q-29 0 -49.5 20.5t-20.5 49.5t20.5 49t49.5 20t50.5 -20t21.5 -49t-21.5 -49.5t-50.5 -20.5zM14 0l222 1570h143l-222 -1570h-143z" glyph-name="Idotaccent" horiz-adv-x="329" unicode="İ"/><glyph d="M14 0l158 1126h132l-159 -1126h-131z" glyph-name="dotlessi" horiz-adv-x="317" unicode="ı"/><glyph d="M14 0l222 1570h143l-222 -1570h-143zM575 -19q-270 0 -232 275l44 316h144l-45 -316q-20 -154 105 -154q126 0 148 154l184 1314h142l-183 -1314q-41 -275 -307 -275z" glyph-name="IJ" horiz-adv-x="1017" unicode="Ĳ"/><glyph d="M800 1570l-317 -703l113 -867h-142l-90 761l-146 -319l-63 -442h-141l222 1570h141l-118 -828h14l387 828h140zM188 -261l17 116h136l-17 -114l-82 -77l12 80q-2 -5 -10 -5h-56z" glyph-name="Kcommaaccent" horiz-adv-x="730" unicode="Ķ"/><glyph d="M662 1126l-232 -476l113 -650h-133l-93 570l-143 -295l-39 -275h-132l222 1570h132l-147 -1044h12l305 600h135zM143 -261l17 116h137l-17 -114l-82 -77l12 80q-2 -5 -10 -5h-57z" glyph-name="kcommaaccent" horiz-adv-x="660" unicode="ķ"/><glyph d="M464 1913l-121 -258h-128l121 258h128zM379 1570l-205 -1449h248l-18 -121h-390l222 1570h143z" glyph-name="Lacute" horiz-adv-x="599" unicode="Ĺ"/><glyph d="M241 1655l121 258h128l-121 -258h-128zM3 0l222 1570h132l-222 -1570h-132z" glyph-name="lacute" horiz-adv-x="296" unicode="ĺ"/><glyph d="M174 121h248l-18 -121h-390l222 1570h143zM133 -261l17 116h137l-17 -114l-82 -77l12 80q-2 -5 -11 -5h-56z" glyph-name="Lcommaaccent" horiz-adv-x="566" unicode="Ļ"/><glyph d="M3 0l222 1570h132l-222 -1570h-132zM12 -336l12 80q-3 -5 -10 -5h-57l17 116h137l-17 -114z" glyph-name="lcommaaccent" horiz-adv-x="296" unicode="ļ"/><glyph d="M485 1574h145l-17 -123l-87 -82l12 85q-5 -5 -12 -5h-60zM379 1570l-205 -1449h248l-18 -121h-390l222 1570h143z" glyph-name="Lcaron" horiz-adv-x="641" unicode="Ľ"/><glyph d="M133 1906h111l63 -170h14l111 170h109l-157 -251h-162zM3 0l222 1570h132l-222 -1570h-132z" glyph-name="lcaron" horiz-adv-x="296" unicode="ľ"/><glyph d="M379 1570l-205 -1449h248l-18 -121h-390l222 1570h143zM495 966q36 0 60.5 -24t24.5 -58t-24.5 -59t-60.5 -25q-34 0 -59 25t-25 59t25 58t59 24z" glyph-name="Ldot" horiz-adv-x="653" unicode="Ŀ"/><glyph d="M500 828l-224 -176l-75 -531h250l-18 -121h-390l75 527l-173 -134l19 136l173 135l128 906h141l-111 -782l224 176z" glyph-name="Lslash" horiz-adv-x="607" unicode="Ł"/><glyph d="M488 1072l-24 -137l-167 -145l-111 -790h-131l93 660l-184 -160l24 137l179 155l109 778h132l-92 -648z" glyph-name="lslash" horiz-adv-x="389" unicode="ł"/><glyph d="M495 1655l121 258h128l-121 -258h-128zM14 0l222 1570h196l92 -1346h12l17 143l171 1203h133l-222 -1570h-196l-94 1347h-12l-17 -146l-169 -1201h-133z" glyph-name="Nacute" horiz-adv-x="807" unicode="Ń"/><glyph d="M599 1469l-121 -257h-128l121 257h128zM473 1143q77 0 116 -45t27 -132l-136 -966h-132l132 934q7 53 -16.5 81t-67.5 28q-46 0 -82 -30t-48 -81l-131 -932h-132l159 1126h116l-12 -128q27 67 82 106t125 39z" glyph-name="nacute" horiz-adv-x="641" unicode="ń"/><glyph d="M14 0l222 1570h196l92 -1346h12l17 143l171 1203h133l-222 -1570h-196l-94 1347h-12l-17 -146l-169 -1201h-133zM266 -336l12 80q-2 -5 -10 -5h-56l17 116h136l-17 -114z" glyph-name="Ncommaaccent" horiz-adv-x="807" unicode="Ņ"/><glyph d="M473 1143q77 0 116 -45t27 -132l-136 -966h-132l132 934q7 53 -16.5 81t-67.5 28q-46 0 -82 -30t-48 -81l-131 -932h-132l159 1126h116l-12 -128q27 67 82 106t125 39zM131 -261l17 116h137l-17 -114l-82 -77l12 80q-3 -5 -10 -5h-57z" glyph-name="ncommaaccent" horiz-adv-x="641" unicode="ņ"/><glyph d="M387 1906h111l63 -170h14l111 170h109l-157 -251h-162zM14 0l222 1570h196l92 -1346h12l17 143l171 1203h133l-222 -1570h-196l-94 1347h-12l-17 -146l-169 -1201h-133z" glyph-name="Ncaron" horiz-adv-x="807" unicode="Ň"/><glyph d="M493 1212h-162l-89 251h111l63 -171h14l111 171h109zM473 1143q77 0 116 -45t27 -132l-136 -966h-132l132 934q7 53 -16.5 81t-67.5 28q-46 0 -82 -30t-48 -81l-131 -932h-132l159 1126h116l-12 -128q27 67 82 106t125 39z" glyph-name="ncaron" horiz-adv-x="641" unicode="ň"/><glyph d="M857 1570l-222 -1570h-2l-3 -29q-22 -152 -107.5 -209t-244.5 -57l17 112q85 0 133 35t60 121l4 27h-53l-94 1347h-12l-17 -146l-169 -1201h-133l222 1570h196l92 -1346h12l17 143l171 1203h133z" glyph-name="Eng" horiz-adv-x="807" unicode="Ŋ"/><glyph d="M473 1143q77 0 116 -45t27 -132l-136 -966l-9 -58q-17 -121 -82 -176.5t-186 -55.5q-46 0 -101 5l14 94h50q89 0 126 34t51 123l137 968q7 53 -16.5 81t-67.5 28q-46 0 -82 -30t-48 -81l-131 -932h-132l159 1126h116l-12 -128q27 67 82 106t125 39z" glyph-name="eng" horiz-adv-x="641" unicode="ŋ"/><glyph d="M309 1667l19 116h411l-17 -116h-413zM280 -19q-271 0 -231 275l149 1058q41 275 307 275q271 0 231 -275l-149 -1058q-41 -275 -307 -275zM297 102q126 0 148 154l147 1058q22 154 -104 154t-148 -154l-147 -1058q-22 -154 104 -154z" glyph-name="Omacron" unicode="Ō"/><glyph d="M205 1224l19 116h411l-17 -116h-413zM237 -17q-237 0 -205 232l99 696q32 232 269.5 232t205.5 -232l-97 -696q-33 -232 -272 -232zM252.5 84q105.5 0 122.5 116l101 727q17 116 -89 116q-108 0 -122 -116l-103 -727q-15 -116 90.5 -116z" glyph-name="omacron" horiz-adv-x="638" unicode="ō"/><glyph d="M316 1666l121 257h128l-121 -257h-128zM558 1666l121 257h128l-121 -257h-128zM280 -19q-271 0 -231 275l149 1058q41 275 307 275q271 0 231 -275l-149 -1058q-41 -275 -307 -275zM297 102q126 0 148 154l147 1058q22 154 -104 154t-148 -154l-147 -1058 q-22 -154 104 -154z" glyph-name="Ohungarumlaut" unicode="Ő"/><glyph d="M210 1222l121 258h128l-121 -258h-128zM452 1222l121 258h128l-121 -258h-128zM237 -17q-237 0 -205 232l99 696q32 232 269.5 232t205.5 -232l-97 -696q-33 -232 -272 -232zM252.5 84q105.5 0 122.5 116l101 727q17 116 -89 116q-108 0 -122 -116l-103 -727 q-15 -116 90.5 -116z" glyph-name="ohungarumlaut" horiz-adv-x="638" unicode="ő"/><glyph d="M995 1449h-239l-85 -604h235l-15 -120h-237l-86 -604h239l-17 -121h-382q-55 -19 -128 -19q-271 0 -231 275l149 1058q41 275 307 275q77 0 125 -21v2h382zM297 102q114 0 143 127l79 556l73 529q22 154 -104 154t-148 -154l-147 -1058q-22 -154 104 -154z" glyph-name="OE" horiz-adv-x="954" unicode="Œ"/><glyph d="M746 1143q106 0 160.5 -52t37.5 -185l-57 -399h-337l-41 -292q0 -3 -2 -10t-2 -10q-9 -114 91 -115q109 0 126 127l20 145h123l-17 -132q-34 -237 -266 -237q-111 0 -164 53q-63 -53 -181 -53q-237 0 -205 232l99 696q32 232 270 232q114 0 166 -51q63 51 179 51z M821 920q19 126 -91 126q-104 0 -122 -126l-41 -289l-6 -35h214zM253 84q101 0 121 107q2 5 1.5 15.5t1.5 15.5l53 374l46 331q17 116 -89 116q-108 0 -122 -116l-103 -727q-15 -116 91 -116z" glyph-name="oe" horiz-adv-x="977" unicode="œ"/><glyph d="M700 1913l-121 -258h-128l121 258h128zM534 1570q140 0 177 -62t14 -214l-73 -516q-22 -174 -131 -235l46 -543h-132l-41 510q-12 -2 -39 -1h-126l-72 -509h-143l222 1570h298zM587 1297q14 90 -7.5 122t-96.5 32h-121l-118 -837h123q75 0 103 31t42 123z" glyph-name="Racute" horiz-adv-x="709" unicode="Ŕ"/><glyph d="M524 1469l-121 -257h-128l121 257h128zM259 951q20 82 71 137t122 55q29 0 46 -10l-20 -133h-45q-72 0 -119.5 -62t-69.5 -167l-109 -771h-132l159 1126h116z" glyph-name="racute" horiz-adv-x="465" unicode="ŕ"/><glyph d="M534 1570q140 0 177 -62t14 -214l-73 -516q-22 -174 -131 -235l46 -543h-132l-41 510q-12 -2 -39 -1h-126l-72 -509h-143l222 1570h298zM587 1297q14 90 -7.5 122t-96.5 32h-121l-118 -837h123q75 0 103 31t42 123zM171 -261l17 116h136l-17 -114l-82 -77l12 80 q-2 -5 -10 -5h-56z" glyph-name="Rcommaaccent" horiz-adv-x="709" unicode="Ŗ"/><glyph d="M452 1143q29 0 46 -10l-20 -133h-45q-72 0 -119.5 -62t-69.5 -167l-109 -771h-132l159 1126h116l-19 -175q20 82 70.5 137t122.5 55zM-43 -261l17 116h137l-17 -114l-82 -77l12 80q-3 -5 -10 -5h-57z" glyph-name="rcommaaccent" horiz-adv-x="465" unicode="ŗ"/><glyph d="M596 1655h-163l-88 251h111l63 -170h13l111 170h110zM534 1570q140 0 177 -62t14 -214l-73 -516q-22 -174 -131 -235l46 -543h-132l-41 510q-12 -2 -39 -1h-126l-72 -509h-143l222 1570h298zM587 1297q14 90 -7.5 122t-96.5 32h-121l-118 -837h123q75 0 103 31t42 123z " glyph-name="Rcaron" horiz-adv-x="709" unicode="Ř"/><glyph d="M418 1212h-162l-89 251h111l63 -171h14l111 171h109zM259 951q20 82 71 137t122 55q29 0 46 -10l-20 -133h-45q-72 0 -119.5 -62t-69.5 -167l-109 -771h-132l159 1126h116z" glyph-name="rcaron" horiz-adv-x="465" unicode="ř"/><glyph d="M445 1655l122 258h128l-122 -258h-128zM275 -19q-268 0 -227 273l32 238h138l-34 -238q-20 -152 106 -152t149 152l30 217q9 60 -6.5 106t-45.5 78.5t-67.5 62.5t-75 63t-65.5 72.5t-41 100.5t-2 138l30 224q38 273 304 273q263 0 225 -273l-34 -237h-136l32 237 q22 152 -104 152q-125 0 -147 -152l-31 -217q-9 -60 7 -106t45.5 -78.5t68 -62t75.5 -63t66 -72.5t41.5 -100.5t2.5 -138.5l-32 -224q-38 -273 -304 -273z" glyph-name="Sacute" horiz-adv-x="713" unicode="Ś"/><glyph d="M343 1212l121 257h128l-121 -257h-128zM234 -15q-118 0 -168.5 54.5t-31.5 180.5l19 130h123l-19 -132q-20 -137 90 -136q113 0 132 136l17 122q7 48 -7.5 82t-42 55t-60.5 40t-65.5 41t-58 51t-37.5 79.5t-2 118.5l14 98q34 239 266 238q113 0 161.5 -54.5t31.5 -180.5 l-17 -123h-120l15 125q19 138 -85 138q-106 0 -124 -138l-16 -110q-7 -56 13 -95t55 -59t75 -45.5t74 -52.5t51 -83.5t7 -135.5l-15 -105q-19 -131 -88 -185t-187 -54z" glyph-name="sacute" horiz-adv-x="629" unicode="ś"/><glyph d="M500 1589q263 0 225 -273l-34 -237h-136l32 237q22 152 -104 152q-125 0 -147 -152l-31 -217q-9 -60 7 -106t45.5 -78.5t68 -62t75.5 -63t66 -72.5t41.5 -100.5t2.5 -138.5l-32 -224q-34 -249 -256 -271l-77 -70q70 -3 112.5 -40t30.5 -119q-15 -102 -70.5 -137 t-151.5 -35h-54l10 73h54q55 0 82.5 22.5t35.5 78.5q7 55 -18.5 76t-81.5 21h-45l9 60l77 70q-225 17 -188 271l32 238h138l-34 -238q-20 -152 106 -152t149 152l30 217q9 60 -6.5 106t-45.5 78.5t-67.5 62.5t-75 63t-65.5 72.5t-41 100.5t-2 138l30 224q38 273 304 273z " glyph-name="Scedilla" horiz-adv-x="713" unicode="Ş"/><glyph d="M403 1143q113 0 161.5 -54.5t31.5 -180.5l-17 -123h-120l15 125q19 138 -85 138q-106 0 -124 -138l-16 -110q-7 -56 13 -95t55 -59t75 -45.5t74 -52.5t51 -83.5t7 -135.5l-15 -105q-29 -213 -219 -236l-82 -75q70 -3 113 -40t31 -119q-15 -102 -71 -137t-151 -35h-55 l10 73h55q55 0 82 22.5t36 78.5q7 55 -19 76t-82 21h-44l8 60l80 73q-99 7 -141.5 62.5t-25.5 171.5l19 130h123l-19 -132q-20 -137 90 -136q113 0 132 136l17 122q7 48 -7.5 82t-42 55t-60.5 40t-65.5 41t-58 51t-37.5 79.5t-2 118.5l14 98q34 238 266 238z" glyph-name="scedilla" horiz-adv-x="629" unicode="ş"/><glyph d="M340 1906h111l63 -170h13l111 170h110l-157 -251h-163zM275 -19q-268 0 -227 273l32 238h138l-34 -238q-20 -152 106 -152t149 152l30 217q9 60 -6.5 106t-45.5 78.5t-67.5 62.5t-75 63t-65.5 72.5t-41 100.5t-2 138l30 224q38 273 304 273q263 0 225 -273l-34 -237h-136 l32 237q22 152 -104 152q-125 0 -147 -152l-31 -217q-9 -60 7 -106t45.5 -78.5t68 -62t75.5 -63t66 -72.5t41.5 -100.5t2.5 -138.5l-32 -224q-38 -273 -304 -273z" glyph-name="Scaron" horiz-adv-x="713" unicode="Š"/><glyph d="M236 1463h110l64 -171h13l111 171h109l-157 -251h-162zM234 -15q-118 0 -168.5 54.5t-31.5 180.5l19 130h123l-19 -132q-20 -137 90 -136q113 0 132 136l17 122q7 48 -7.5 82t-42 55t-60.5 40t-65.5 41t-58 51t-37.5 79.5t-2 118.5l14 98q34 239 266 238 q113 0 161.5 -54.5t31.5 -180.5l-17 -123h-120l15 125q19 138 -85 138q-106 0 -124 -138l-16 -110q-7 -56 13 -95t55 -59t75 -45.5t74 -52.5t51 -83.5t7 -135.5l-15 -105q-19 -131 -88 -185t-187 -54z" glyph-name="scaron" horiz-adv-x="629" unicode="š"/><glyph d="M321 0h-5l-96 -87q70 -3 112.5 -40t31.5 -119q-15 -102 -71 -137t-151 -35h-55l10 73h55q55 0 82 22.5t36 78.5q7 55 -19 76t-82 21h-44l8 60l96 87h-52l205 1449h-198l17 121h540l-17 -121h-198z" glyph-name="Tcommaaccent" horiz-adv-x="658" unicode="Ţ"/><glyph d="M343 1015l-111 -785q-12 -75 10.5 -107.5t78.5 -32.5q44 0 73 11l-13 -92q-44 -20 -93 -26l-78 -70q70 -3 112.5 -40t30.5 -119q-15 -102 -70.5 -137t-151.5 -35h-54l10 73h55q55 0 82 22.5t35 78.5q7 55 -18.5 76t-81.5 21h-45l9 60l82 75q-68 10 -95.5 62t-12.5 163 l113 802h-102l15 111h104l39 284h132l-40 -284h166l-15 -111h-166z" glyph-name="tcommaaccent" horiz-adv-x="503" unicode="ţ"/><glyph d="M563 1655h-162l-89 251h111l63 -170h14l111 170h109zM741 1570l-17 -121h-198l-205 -1449h-144l205 1449h-198l17 121h540z" glyph-name="Tcaron" horiz-adv-x="658" unicode="Ť"/><glyph d="M427 1495h-162l-89 251h111l63 -171h14l110 171h110zM398 1410l-40 -284h166l-15 -111h-166l-111 -785q-12 -75 10.5 -107.5t78.5 -32.5q44 0 73 11l-13 -92q-53 -26 -120 -26q-99 0 -140.5 49.5t-23.5 180.5l113 802h-102l15 111h104l39 284h132z" glyph-name="tcaron" horiz-adv-x="503" unicode="ť"/><glyph d="M724 1449h-198l-69 -486h198l-20 -122h-195l-119 -841h-144l120 841h-198l20 122h195l68 486h-198l17 121h540z" glyph-name="Tbar" horiz-adv-x="658" unicode="Ŧ"/><glyph d="M509 1015h-166l-19 -133h166l-16 -111h-167l-75 -541q-12 -75 10.5 -107.5t78.5 -32.5q44 0 73 11l-13 -92q-53 -26 -120 -26q-99 0 -140.5 49.5t-23.5 180.5l79 558h-103l16 111h102l19 133h-102l15 111h104l39 284h132l-40 -284h166z" glyph-name="tbar" horiz-adv-x="503" unicode="ŧ"/><glyph d="M309 1667l19 116h411l-17 -116h-413zM282 -19q-270 0 -233 275l185 1314h143l-184 -1314q-22 -154 104 -154t148 154l185 1314h141l-184 -1314q-37 -275 -305 -275z" glyph-name="Umacron" unicode="Ū"/><glyph d="M637 1340l-17 -116h-413l18 116h412zM507 1126h131l-158 -1126h-116l11 128q-27 -67 -81.5 -106t-124.5 -39q-77 0 -116 45t-27 132l136 966h132l-132 -933q-7 -53 16 -81t68 -28q46 0 82 29.5t47 81.5z" glyph-name="umacron" horiz-adv-x="641" unicode="ū"/><glyph d="M515.5 1661q-114.5 0 -167.5 40t-37 152l6 50h99l-3 -27q-10 -70 22.5 -96t93.5 -26q131 0 150 122l4 27h99l-7 -50q-15 -113 -80 -152.5t-179.5 -39.5zM282 -19q-270 0 -233 275l185 1314h143l-184 -1314q-22 -154 104 -154t148 154l185 1314h141l-184 -1314 q-37 -275 -305 -275z" glyph-name="Ubreve" unicode="Ŭ"/><glyph d="M514 1630q-68 0 -110 41.5t-42 105.5q0 82 58 140t140 58q70 0 111 -41t41 -104q0 -82 -58 -141t-140 -59zM522 1703q46 0 80.5 33.5t34.5 81.5q0 36 -24 60.5t-62 24.5q-46 0 -79 -34t-33 -80q0 -38 22.5 -62t60.5 -24zM282 -19q-270 0 -233 275l185 1314h143 l-184 -1314q-22 -154 104 -154t148 154l185 1314h141l-184 -1314q-37 -275 -305 -275z" glyph-name="Uring" unicode="Ů"/><glyph d="M411 1186q-68 0 -110 42t-42 105q0 82 58 140t140 58q70 0 111 -41t41 -104q0 -82 -58 -141t-140 -59zM449 1459q-46 0 -79.5 -34t-33.5 -80q0 -38 23 -61.5t61 -23.5q46 0 80 33t34 81q0 36 -23.5 60.5t-61.5 24.5zM507 1126h131l-158 -1126h-116l11 128 q-27 -67 -81.5 -106t-124.5 -39q-77 0 -116 45t-27 132l136 966h132l-132 -933q-7 -53 16 -81t68 -28q46 0 82 29.5t47 81.5z" glyph-name="uring" horiz-adv-x="641" unicode="ů"/><glyph d="M316 1666l121 257h128l-121 -257h-128zM558 1666l121 257h128l-121 -257h-128zM282 -19q-270 0 -233 275l185 1314h143l-184 -1314q-22 -154 104 -154t148 154l185 1314h141l-184 -1314q-37 -275 -305 -275z" glyph-name="Uhungarumlaut" unicode="Ű"/><glyph d="M461 1480l-121 -258h-128l121 258h128zM582 1222h-128l121 258h128zM375 195l132 931h131l-158 -1126h-116l11 128q-27 -67 -81.5 -106t-124.5 -39q-77 0 -116 45t-27 132l136 966h132l-132 -933q-7 -53 16 -81t68 -28q46 0 81.5 30t47.5 81z" glyph-name="uhungarumlaut" horiz-adv-x="641" unicode="ű"/><glyph d="M630 1570h141l-184 -1314q-32 -230 -223 -268q-68 -10 -106 -47.5t-38 -94.5q0 -99 109 -99h81l-33 -100h-63q-109 0 -166.5 49.5t-57.5 131.5q0 101 86 167q-157 46 -127 261l185 1314h143l-184 -1314q-22 -154 104 -154t148 154z" glyph-name="Uogonek" unicode="Ų"/><glyph d="M358 -106q-84 0 -93 -73q-10 -75 73 -75h107l-30 -86h-111q-79 0 -122.5 40.5t-31.5 113.5q20 154 198 154h33l3 32h-20l11 128q-27 -67 -81.5 -106t-124.5 -39q-77 0 -116 45t-27 132l136 966h132l-132 -933q-7 -53 16 -81t68 -28q46 0 82 29.5t47 81.5l132 931h131 l-172 -1232h-108z" glyph-name="uogonek" horiz-adv-x="641" unicode="ų"/><glyph d="M529 1655l157 251h164l87 -251h-111l-61 171h-14l-111 -171h-111zM1089 1570h140l-355 -1570h-234l68 1418h-17l-331 -1418h-234l89 1570h140l-92 -1420h15l335 1420h218l-66 -1420h15z" glyph-name="Wcircumflex" horiz-adv-x="1160" unicode="Ŵ"/><glyph d="M387 1212l157 251h164l87 -251h-111l-61 170h-14l-111 -170h-111zM77 0l66 1126h128l-64 -1005h18l232 1005h214l-48 -1005h17l217 1005h128l-248 -1126h-228l47 1005h-18l-233 -1005h-228z" glyph-name="wcircumflex" horiz-adv-x="971" unicode="ŵ"/><glyph d="M539 1826l-111 -171h-111l157 251h164l87 -251h-111l-61 171h-14zM824 1570l-377 -944l-89 -626h-140l89 626l-111 944h140l67 -720h10l271 720h140z" glyph-name="Ycircumflex" horiz-adv-x="737" unicode="Ŷ"/><glyph d="M428 1382l-111 -170h-110l157 251h163l87 -251h-111l-61 170h-14zM505 1126h132l-166 -1184q-19 -123 -86.5 -177.5t-200.5 -54.5q-92 0 -179 5l12 94h128q102 0 143 34t55 123l19 138q-63 -121 -195 -121q-77 0 -115 45t-26 132l136 966h132l-132 -933q-7 -53 15.5 -81 t66.5 -28q49 0 87 33t46 88z" glyph-name="ycircumflex" horiz-adv-x="640" unicode="ŷ"/><glyph d="M370 1684q-29 0 -48.5 20.5t-19.5 49.5t19.5 49t48.5 20t49 -20t20 -49t-20 -49.5t-49 -20.5zM652 1684q-29 0 -48.5 20.5t-19.5 49.5t19.5 49t48.5 20t48.5 -20t19.5 -49t-19.5 -49.5t-48.5 -20.5zM824 1570l-377 -944l-89 -626h-140l89 626l-111 944h140l67 -720h10 l271 720h140z" glyph-name="Ydieresis" horiz-adv-x="737" unicode="Ÿ"/><glyph d="M439 1655l121 258h128l-121 -258h-128zM3 0l17 121l574 1313l2 15h-369l17 121h510l-17 -121l-577 -1312l-3 -16h382l-17 -121h-519z" glyph-name="Zacute" horiz-adv-x="694" unicode="Ź"/><glyph d="M319 1212l121 257h128l-121 -257h-128zM-2 0l16 113l423 885l3 16h-280l14 112h411l-15 -112l-428 -886l-2 -15h293l-15 -113h-420z" glyph-name="zacute" horiz-adv-x="578" unicode="ź"/><glyph d="M514 1684q-29 0 -49.5 20.5t-20.5 49.5t20.5 49t49.5 20t50 -20t21 -49t-21 -49.5t-50 -20.5zM3 0l17 121l574 1313l2 15h-369l17 121h510l-17 -121l-577 -1312l-3 -16h382l-17 -121h-519z" glyph-name="Zdotaccent" horiz-adv-x="694" unicode="Ż"/><glyph d="M394 1241q-29 0 -49.5 20.5t-20.5 49.5t20.5 48.5t49.5 19.5t50.5 -19.5t21.5 -48.5t-21.5 -49.5t-50.5 -20.5zM-2 0l16 113l423 885l3 16h-280l14 112h411l-15 -112l-428 -886l-2 -15h293l-15 -113h-420z" glyph-name="zdotaccent" horiz-adv-x="578" unicode="ż"/><glyph d="M333 1906h111l63 -170h14l110 170h110l-157 -251h-162zM3 0l17 121l574 1313l2 15h-369l17 121h510l-17 -121l-577 -1312l-3 -16h382l-17 -121h-519z" glyph-name="Zcaron" horiz-adv-x="694" unicode="Ž"/><glyph d="M213 1463h111l63 -171h14l111 171h109l-157 -251h-162zM-2 0l16 113l423 885l3 16h-280l14 112h411l-15 -112l-428 -886l-2 -15h293l-15 -113h-420z" glyph-name="zcaron" horiz-adv-x="578" unicode="ž"/><glyph d="M867 1582q268 0 230 -275l-32 -230h-143l32 230q22 154 -104 154t-149 -154l-64 -466h221l-15 -112h-223l-65 -468q-38 -275 -308 -275q-268 0 -230 275l32 236h142l-31 -234q-22 -154 104.5 -154t148.5 154l65 466h-222l15 112h222l65 466q41 275 309 275z" glyph-name="florin" horiz-adv-x="1114" unicode="ƒ"/><glyph d="M621 1655h-162l-89 251h111l63 -170h14l111 170h109zM-14 0l415 1570h258l-29 -1570h-138l8 345h-287l-90 -345h-137zM524 1440h-26l-254 -974h258z" glyph-name="uni01CD" horiz-adv-x="773" unicode="Ǎ"/><glyph d="M492 1212h-163l-88 251h111l63 -171h13l111 171h110zM410 1143q114 0 164.5 -47.5t36.5 -153.5l-133 -942h-114l10 131q-56 -148 -203 -148q-79 0 -118 47t-27 134l44 317q27 200 217 200h155l34 246q10 67 -7 96.5t-73 29.5q-58 0 -84.5 -30.5t-36.5 -95.5l-22 -150 h-125l24 165q17 108 79.5 154.5t178.5 46.5zM246 82q49 0 86 37.5t45 100.5v-2l53 383h-106q-58 0 -86 -29t-37 -94l-39 -285q-7 -55 16.5 -83t67.5 -28z" glyph-name="uni01CE" horiz-adv-x="638" unicode="ǎ"/><glyph d="M148 1906h111l64 -170h13l111 170h109l-157 -251h-162zM14 0l222 1570h143l-222 -1570h-143z" glyph-name="uni01CF" horiz-adv-x="329" unicode="Ǐ"/><glyph d="M80 1463h111l63 -171h14l111 171h109l-157 -251h-162zM14 0l158 1126h132l-159 -1126h-131z" glyph-name="uni01D0" horiz-adv-x="317" unicode="ǐ"/><glyph d="M345 1906h111l63 -170h13l111 170h110l-157 -251h-163zM280 -19q-271 0 -231 275l149 1058q41 275 307 275q271 0 231 -275l-149 -1058q-41 -275 -307 -275zM297 102q126 0 148 154l147 1058q22 154 -104 154t-148 -154l-147 -1058q-22 -154 104 -154z" glyph-name="uni01D1" unicode="Ǒ"/><glyph d="M241 1463h111l63 -171h13l111 171h110l-157 -251h-163zM237 -17q-237 0 -205 232l99 696q32 232 269.5 232t205.5 -232l-97 -696q-33 -232 -272 -232zM252.5 84q105.5 0 122.5 116l101 727q17 116 -89 116q-108 0 -122 -116l-103 -727q-15 -116 90.5 -116z" glyph-name="uni01D2" horiz-adv-x="638" unicode="ǒ"/><glyph d="M345 1906h111l63 -170h13l111 170h110l-157 -251h-163zM282 -19q-270 0 -233 275l185 1314h143l-184 -1314q-22 -154 104 -154t148 154l185 1314h141l-184 -1314q-37 -275 -305 -275z" glyph-name="uni01D3" unicode="Ǔ"/><glyph d="M493 1212h-162l-89 251h111l63 -171h14l111 171h109zM375 195l132 931h131l-158 -1126h-116l11 128q-27 -67 -81.5 -106t-124.5 -39q-77 0 -116 45t-27 132l136 966h132l-132 -933q-7 -53 16 -81t68 -28q46 0 81.5 30t47.5 81z" glyph-name="uni01D4" horiz-adv-x="641" unicode="ǔ"/><glyph d="M505 1589q271 0 231 -275l-149 -1058q-41 -275 -307 -275h-15q-48 -14 -75.5 -50.5t-27.5 -84.5q0 -99 109 -99h81l-33 -100h-63q-109 0 -166.5 49.5t-57.5 131.5q0 116 103 182q-111 61 -86 246l149 1058q41 275 307 275zM592 1314q22 154 -104 154t-148 -154 l-147 -1058q-22 -154 104 -154t148 154z" glyph-name="uni01EA" horiz-adv-x="721" unicode="Ǫ"/><glyph d="M275 -19q-268 0 -227 273l32 238h138l-34 -238q-20 -152 106 -152t149 152l30 217q9 60 -6.5 106t-45.5 78.5t-67.5 62.5t-75 63t-65.5 72.5t-41 100.5t-2 138l30 224q38 273 304 273q263 0 225 -273l-34 -237h-136l32 237q22 152 -104 152q-125 0 -147 -152l-31 -217 q-9 -60 7 -106t45.5 -78.5t68 -62t75.5 -63t66 -72.5t41.5 -100.5t2.5 -138.5l-32 -224q-38 -273 -304 -273zM218 -336l12 80q-2 -5 -10 -5h-56l17 116h136l-17 -114z" glyph-name="Scommaaccent" horiz-adv-x="713" unicode="Ș"/><glyph d="M234 -15q-118 0 -168.5 54.5t-31.5 180.5l19 130h123l-19 -132q-20 -137 90 -136q113 0 132 136l17 122q7 48 -7.5 82t-42 55t-60.5 40t-65.5 41t-58 51t-37.5 79.5t-2 118.5l14 98q34 239 266 238q113 0 161.5 -54.5t31.5 -180.5l-17 -123h-120l15 125q19 138 -85 138 q-106 0 -124 -138l-16 -110q-7 -56 13 -95t55 -59t75 -45.5t74 -52.5t51 -83.5t7 -135.5l-15 -105q-19 -131 -88 -185t-187 -54zM181 -336l12 80q-2 -5 -10 -5h-57l17 116h137l-17 -114z" glyph-name="scommaaccent" horiz-adv-x="629" unicode="ș"/><glyph d="M741 1570l-17 -121h-198l-205 -1449h-144l205 1449h-198l17 121h540zM137 -261l17 116h136l-17 -114l-82 -77l12 80q-2 -5 -10 -5h-56z" glyph-name="uni021A" horiz-adv-x="658" unicode="Ț"/><glyph d="M343 1015l-111 -785q-12 -75 10.5 -107.5t78.5 -32.5q44 0 73 11l-13 -92q-53 -26 -120 -26q-99 0 -140.5 49.5t-23.5 180.5l113 802h-102l15 111h104l39 284h132l-40 -284h166l-15 -111h-166zM128 -261l17 116h137l-17 -114l-82 -77l12 80q-3 -5 -11 -5h-56z" glyph-name="uni021B" horiz-adv-x="503" unicode="ț"/><glyph d="M53 1161l157 250h164l87 -250h-111l-62 170h-13l-111 -170h-111z" glyph-name="circumflex" horiz-adv-x="407" unicode="ˆ"/><glyph d="M87 1411h111l63 -170h14l111 170h109l-157 -250h-162z" glyph-name="caron" horiz-adv-x="407" unicode="ˇ"/><glyph d="M285 1166q-114 0 -167 40t-38 153l7 49h99l-3 -27q-10 -70 22 -95.5t94 -25.5q131 0 150 121l3 27h99l-7 -49q-15 -113 -80 -153t-179 -40z" glyph-name="breve" horiz-adv-x="464" unicode="˘"/><glyph d="M138 1190q-29 0 -49.5 20.5t-20.5 49.5t20.5 48.5t49.5 19.5t50.5 -19.5t21.5 -48.5t-21.5 -49.5t-50.5 -20.5z" glyph-name="dotaccent" horiz-adv-x="145" unicode="˙"/><glyph d="M224 1135q-68 0 -110 42t-42 105q0 82 58 140t140 58q70 0 111 -41t41 -104q0 -82 -58 -141t-140 -59zM232 1208q46 0 80 33.5t34 81.5q0 36 -23.5 60.5t-61.5 24.5q-46 0 -79.5 -34t-33.5 -80q0 -38 23 -62t61 -24z" glyph-name="ring" horiz-adv-x="346" unicode="˚"/><glyph d="M220 0h-78q-61 0 -97 -35t-45 -91.5t18.5 -91.5t89.5 -35h78l-32 -100h-64q-119 0 -175.5 62t-42.5 165q14 101 88 157t192 56h82z" glyph-name="ogonek" horiz-adv-x="331" unicode="˛"/><glyph d="M442 1178q-48 0 -77.5 18.5t-41.5 42.5t-35 42.5t-56 18.5q-39 0 -65.5 -23.5t-33.5 -66.5h-73q10 90 58.5 132t122.5 42q48 0 78.5 -19.5t41.5 -42t34 -42t56 -19.5q39 0 65.5 24t33.5 67h73q-24 -174 -181 -174z" glyph-name="tilde" horiz-adv-x="542" unicode="˜"/><glyph d="M53 1161l121 257h128l-121 -257h-128zM295 1161l121 257h128l-121 -257h-128z" glyph-name="hungarumlaut" horiz-adv-x="455" unicode="˝"/><glyph d="M-251 -336l12 80q-3 -5 -10 -5h-56l17 116h136l-17 -114z" glyph-name="uni0326" horiz-adv-x="0" unicode="̦"/><glyph d="M375 1570h258l-29 -1570h-643zM131 128h340l27 1312h-25z" glyph-name="Delta" horiz-adv-x="783" unicode="Δ"/><glyph d="M573 1591q288 0 248 -280l-166 -1183h103l-19 -128h-246l185 1311q22 154 -122 153q-142 0 -163 -153l-185 -1311h-246l19 128h103l165 1183q41 280 324 280z" glyph-name="Omega" horiz-adv-x="897" unicode="Ω"/><glyph d="M630 1570h141l-184 -1314q-38 -275 -305 -275q-99 0 -154 36l-39 -273h-144l258 1826h174l-184 -1314q-22 -154 104 -154t148 154z" glyph-name="mu" unicode="μ"/><glyph d="M899 1442l-163 -1160q-12 -90 18.5 -126.5t105.5 -36.5l-48 -126q-126 0 -185 58t-38 208l167 1183h-247l-204 -1442h-143l203 1442h-150l19 128h834l-18 -128h-151z" glyph-name="pi" horiz-adv-x="1025" unicode="π"/><glyph d="M799 1655h-128l-50 258h128zM1089 1570h140l-355 -1570h-234l68 1418h-17l-331 -1418h-234l89 1570h140l-92 -1420h15l335 1420h218l-66 -1420h15z" glyph-name="Wgrave" horiz-adv-x="1160" unicode="Ẁ"/><glyph d="M655 1212h-128l-49 257h128zM77 0l66 1126h128l-64 -1005h18l232 1005h214l-48 -1005h17l217 1005h128l-248 -1126h-228l47 1005h-18l-233 -1005h-228z" glyph-name="wgrave" horiz-adv-x="971" unicode="ẁ"/><glyph d="M671 1655l121 258h128l-121 -258h-128zM1089 1570h140l-355 -1570h-234l68 1418h-17l-331 -1418h-234l89 1570h140l-92 -1420h15l335 1420h218l-66 -1420h15z" glyph-name="Wacute" horiz-adv-x="1160" unicode="Ẃ"/><glyph d="M527 1212l122 257h128l-122 -257h-128zM77 0l66 1126h128l-64 -1005h18l232 1005h214l-48 -1005h17l217 1005h128l-248 -1126h-228l47 1005h-18l-233 -1005h-228z" glyph-name="wacute" horiz-adv-x="971" unicode="ẃ"/><glyph d="M582 1684q-29 0 -48.5 20.5t-19.5 49.5t19.5 49t48.5 20t48.5 -20t19.5 -49t-19.5 -49.5t-48.5 -20.5zM864 1684q-29 0 -49 20.5t-20 49.5t20 49t49 20t48.5 -20t19.5 -49t-19.5 -49.5t-48.5 -20.5zM1089 1570h140l-355 -1570h-234l68 1418h-17l-331 -1418h-234l89 1570 h140l-92 -1420h15l335 1420h218l-66 -1420h15z" glyph-name="Wdieresis" horiz-adv-x="1160" unicode="Ẅ"/><glyph d="M439 1241q-29 0 -49 20.5t-20 49.5t20 48.5t49 19.5t48.5 -19.5t19.5 -48.5t-19.5 -49.5t-48.5 -20.5zM720 1241q-29 0 -48.5 20.5t-19.5 49.5t19.5 48.5t48.5 19.5t48.5 -19.5t19.5 -48.5t-19.5 -49.5t-48.5 -20.5zM77 0l66 1126h128l-64 -1005h18l232 1005h214 l-48 -1005h17l217 1005h128l-248 -1126h-228l47 1005h-18l-233 -1005h-228z" glyph-name="wdieresis" horiz-adv-x="971" unicode="ẅ"/><glyph d="M473 896q114 -9 148 -72t17 -189l-49 -359q-22 -152 -80 -214t-207 -62h-80l17 114h49q77 0 110.5 36t45.5 126l51 350q14 90 -10 123.5t-103 33.5h-49l17 115l215 558h-203l-205 -1456h-143l222 1570h501z" glyph-name="uni1E9E" horiz-adv-x="720" unicode="ẞ"/><glyph d="M587 1655h-128l-49 258h128zM824 1570l-377 -944l-89 -626h-140l89 626l-111 944h140l67 -720h10l271 720h140z" glyph-name="Ygrave" horiz-adv-x="737" unicode="Ỳ"/><glyph d="M476 1212h-128l-49 257h128zM505 1126h132l-166 -1184q-19 -123 -86.5 -177.5t-200.5 -54.5q-92 0 -179 5l12 94h128q102 0 143 34t55 123l19 138q-63 -121 -195 -121q-77 0 -115 45t-26 132l136 966h132l-132 -933q-7 -53 15.5 -81t66.5 -28q49 0 87 33t46 88z" glyph-name="ygrave" horiz-adv-x="640" unicode="ỳ"/><glyph d="M84 722l18 126h1245l-19 -126h-1244z" glyph-name="endash" horiz-adv-x="1430" unicode="–"/><glyph d="M84 722l18 126h1400l-19 -126h-1399z" glyph-name="emdash" horiz-adv-x="1585" unicode="—"/><glyph d="M300 1587l-17 -131q3 5 12 5h60l-19 -125h-145l17 123z" glyph-name="quoteleft" horiz-adv-x="308" unicode="‘"/><glyph d="M229 1319l17 130q-5 -5 -12 -5h-60l19 126h145l-17 -124z" glyph-name="quoteright" horiz-adv-x="308" unicode="’"/><glyph d="M29 -80l14 85q-5 -5 -12 -5h-60l19 125h145l-17 -123z" glyph-name="quotesinglbase" horiz-adv-x="308" unicode="‚"/><glyph d="M300 1587l-17 -131q3 5 12 5h60l-19 -125h-145l17 123zM502 1587l-17 -131q2 5 10 5h60l-17 -125h-147l17 123z" glyph-name="quotedblleft" horiz-adv-x="510" unicode="“"/><glyph d="M259 1319l17 130q-5 -5 -11 -5h-60l19 126h145l-17 -124zM459 1319l19 130q-5 -5 -12 -5h-60l19 126h145l-17 -124z" glyph-name="quotedblright" horiz-adv-x="510" unicode="”"/><glyph d="M56 -126l19 131q-5 -5 -12 -5h-60l19 126h145l-17 -124zM258 -126l17 131q-5 -5 -12 -5h-58l17 126h147l-19 -124z" glyph-name="quotedblbase" horiz-adv-x="510" unicode="„"/><glyph d="M864 1439l-17 -135h-270l-38 -270h-143l37 270h-267l18 135h270l38 269h141l-37 -269h268z" glyph-name="dagger" horiz-adv-x="865" unicode="†"/><glyph d="M596 1439h268l-17 -135h-270l-38 -270h-143l37 270h-267l18 135h270l38 269h141zM469 531l-37 -270h268l-19 -135h-270l-37 -269h-142l38 269h-270l19 135h271l38 270h141z" glyph-name="daggerdbl" horiz-adv-x="866" unicode="‡"/><glyph d="M321 618q-70 0 -119.5 48.5t-49.5 118.5t49.5 118.5t119.5 48.5q67 0 115.5 -49.5t48.5 -117.5t-48.5 -117.5t-115.5 -49.5z" glyph-name="bullet" horiz-adv-x="575" unicode="•"/><glyph d="M44.5 -15q-34.5 0 -59 23.5t-24.5 58t24.5 59t59 24.5t59 -24.5t24.5 -59t-24.5 -58t-59 -23.5zM423 -15q-36 0 -60.5 23.5t-24.5 58t24.5 59t60.5 24.5q34 0 59 -24.5t25 -59t-25 -58t-59 -23.5zM800.5 -15q-34.5 0 -59 23.5t-24.5 58t24.5 59t59 24.5t59 -24.5 t24.5 -59t-24.5 -58t-59 -23.5z" glyph-name="ellipsis" horiz-adv-x="1047" unicode="…"/><glyph d="M497 1592q263 0 222 -281l-52 -366q-41 -282 -300 -281.5t-222 281.5l53 366q38 281 299 281zM314 0l843 1570h138l-843 -1570h-138zM585 1316q22 155 -104 155t-148 -155l-53 -376q-22 -154 104 -153.5t148 153.5zM1113 -22q-263 0 -222 281l51 366q41 282 300.5 281.5 t221.5 -281.5l-53 -366q-37 -281 -298 -281zM1743 -22q-265 0 -224 281l53 366q41 282 300 281q263 0 220 -281l-51 -366q-40 -281 -298 -281zM1024 254q-22 -155 104 -155t149 155l52 376q22 154 -104 153.5t-148 -153.5zM1654 254q-22 -155 104 -155t148 155l53 376 q22 154 -104 153.5t-148 -153.5z" glyph-name="perthousand" horiz-adv-x="2176" unicode="‰"/><glyph d="M671 1174l-393 -457l265 -458h-149l-266 458l393 457h150z" glyph-name="guilsinglleft" horiz-adv-x="691" unicode="‹"/><glyph d="M32 259l391 458l-263 457h149l266 -457l-392 -458h-151z" glyph-name="guilsinglright" horiz-adv-x="691" unicode="›"/><glyph d="M604 1589q268 0 231 -275l-52 -360h-141l49 360q22 154 -104 154t-148 -154l-57 -403h236l-9 -56h-235l-19 -140h236l-9 -58h-236l-56 -401q-22 -154 104.5 -154t148.5 154l51 364h143l-53 -366q-38 -275 -305 -274q-270 0 -232 274l56 403h-128l9 58h128l20 140h-131 l8 56h132l56 403q37 275 307 275z" glyph-name="Euro" horiz-adv-x="822" unicode="€"/><glyph d="M1131.5 1582q110.5 0 158.5 -58t28 -205l-60 -433q-22 -145 -88 -203t-175 -58q-111 0 -159 58t-27 203l61 433q19 145 85 204t176.5 59zM-19 0l222 1570h200l54 -1346h12l17 143l169 1203h137l-222 -1570h-195l-61 1347h-10l-19 -146l-169 -1201h-135zM1190 1319 q10 82 -9.5 112t-66.5 30q-48 0 -76.5 -30t-40.5 -112l-60 -428q-10 -82 10.5 -112t66.5 -30q96 0 116 142zM684 0l19 128h447l-18 -128h-448z" glyph-name="afii61352" horiz-adv-x="1334" unicode="№"/><glyph d="M362 1527h-65l-43 -303h-47l42 303h-63l7 43h176zM585 1570h87l-49 -346h-46l41 298h-10l-81 -298h-73l3 298h-10l-43 -298h-46l50 346h87l-3 -304h10z" glyph-name="trademark" horiz-adv-x="605" unicode="™"/><glyph d="M247 -15q-270 0 -228 274l63 446q19 142 94 203t174 61q113 0 153 -80l60 427q20 154 -104 153q-126 0 -147 -153l-30 -210h-139l29 212q38 273 304 273q270 0 229 -273l-149 -1059q-38 -274 -309 -274zM266 106q128 0 149 153l61 434q10 82 -20.5 118t-85.5 36 q-128 0 -148 -154l-62 -434q-20 -153 106 -153z" glyph-name="partialdiff" unicode="∂"/><glyph d="M780 1570l-222 -1570h-143l203 1442h-290l-203 -1442h-144l222 1570h577z" glyph-name="product" horiz-adv-x="761" unicode="∏"/><glyph d="M14 0l18 128l400 642l-215 672l19 128h462l-19 -128h-314l210 -659l-5 -27l-389 -628h314l-19 -128h-462z" glyph-name="summation" horiz-adv-x="640" unicode="∑"/><glyph d="M84 719l17 133h670l-18 -133h-669z" glyph-name="minus" horiz-adv-x="853" unicode="−"/><glyph d="M719 1570h138l-429 -1570h-256l4 761h-115l19 128h236l-9 -759h22z" glyph-name="radical" horiz-adv-x="810" unicode="√"/><glyph d="M1029 1019q119 0 170.5 -77t32.5 -223q-22 -147 -94.5 -225t-192.5 -78q-97 0 -156.5 54t-124.5 172q-102 -119 -176.5 -172.5t-170.5 -53.5q-119 0 -170 78t-29 225q19 147 92 223.5t193 76.5q96 0 155.5 -53t125.5 -172q99 119 174 172t171 53zM343 515q68 0 123 44.5 t155 159.5q-67 113 -110 156t-112 43q-148 0 -177 -201.5t121 -201.5zM1126 717q26 201 -122 201q-68 0 -124 -44.5t-151 -154.5q65 -114 107.5 -159t110.5 -45q150 1 179 202z" glyph-name="infinity" horiz-adv-x="1367" unicode="∞"/><glyph d="M867 1582q268 0 230 -275l-32 -230h-143l32 230q22 154 -104 154t-149 -154l-146 -1046q-38 -275 -308 -275q-268 0 -230 275l32 236h142l-31 -234q-22 -154 104.5 -154t148.5 154l145 1044q41 275 309 275z" glyph-name="integral" horiz-adv-x="1114" unicode="∫"/><glyph d="M515 828q-48 0 -78.5 19.5t-42.5 41.5t-35 42t-55 20q-84 0 -99 -91h-72q22 176 179 176q48 0 79 -19.5t42.5 -42.5t34 -43t54.5 -20q85 0 99 91h74q-10 -89 -59 -131.5t-121 -42.5zM464 468q-48 0 -77.5 18.5t-41.5 42.5t-35 43t-56 19q-39 0 -65.5 -24t-33.5 -67h-73 q10 90 58.5 132t120.5 42q48 0 78.5 -19.5t42.5 -41.5t35 -42t56 -20q39 0 65.5 24t33.5 67h73q-24 -174 -181 -174z" glyph-name="approxequal" unicode="≈"/><glyph d="M800 876h-261l-49 -180h285l-19 -133h-302l-154 -563h-133l152 563h-232l19 133h249l48 180h-272l17 133h291l152 561h138l-154 -561h244z" glyph-name="notequal" horiz-adv-x="868" unicode="≠"/><glyph d="M478 377l-367 401l20 152l478 401l-20 -152l-371 -321v-15l280 -321zM14 82l18 135h424l-19 -135h-423z" glyph-name="lessequal" horiz-adv-x="609" unicode="≤"/><glyph d="M36 377l22 154l375 317l2 16l-287 319l23 148l373 -401l-22 -152zM7 82l19 135h423l-19 -135h-423z" glyph-name="greaterequal" horiz-adv-x="621" unicode="≥"/><glyph d="M99 0l-7 785l229 785h256l7 -785l-229 -785h-256zM234 130h24l189 655l-5 655h-24l-189 -655z" glyph-name="lozenge" horiz-adv-x="675" unicode="◊"/><glyph d="M505 1585q271 0 231 -274l-43 -301h-142l43 301q20 154 -106 153.5t-147 -153.5l-148 -1052q-22 -154 104 -153.5t148 153.5l82 584h142l-75 -538l-43 -305h-66l7 152q-55 -167 -227 -167q-253 0 -216 274l149 1052q37 274 307 274z" glyph-name="G.aalt"/><glyph d="M261 1241q-29 0 -49.5 20.5t-20.5 49.5t20.5 48.5t49.5 19.5t50.5 -19.5t21.5 -48.5t-21.5 -49.5t-50.5 -20.5zM14 0l158 1126h132l-159 -1126h-131z" glyph-name="i.aalt" horiz-adv-x="317"/><glyph d="M386 1143q106 0 239 -27l-157 -1116h-116l10 128q-61 -145 -203 -145q-80 0 -118.5 47t-26.5 134l105 749q19 128 86.5 179t180.5 51zM365 213l113 811q-58 20 -96 20q-65 0 -93 -30.5t-38 -95.5l-103 -725q-7 -53 17 -82t67 -29q49 0 85 35t48 96z" glyph-name="a.salt" horiz-adv-x="640"/><glyph d="M186 1309l38 261h131l-38 -261h-131zM-32 -256l192 1382h132l-193 -1382h-131z" glyph-name="j.aalt" horiz-adv-x="295"/><glyph d="M474 1143q77 0 115.5 -46.5t26.5 -133.5l-34 -243h-131l30 214q7 53 -17 81t-68 28q-51 0 -88 -37t-45 -100v2l-128 -908h-132l159 1126h123l-12 -126q58 143 201 143z" glyph-name="r.aalt" horiz-adv-x="641"/><glyph d="M964 1126l-15 -111h-166l-111 -785q-10 -75 12.5 -107.5t76.5 -32.5q44 0 74 11l-12 -92q-56 -26 -122 -26q-97 0 -139.5 49.5t-23.5 180.5l112 802h-327l-144 -1015h-131l141 1015h-70l16 111h70l36 253q15 109 75.5 158.5t146.5 49.5q43 0 81 -12l-15 -104q-31 7 -49 7 q-94 0 -110 -119l-32 -233h329l40 284h131l-39 -284h165z" glyph-name="f_t.dlig" horiz-adv-x="943"/><glyph d="M-41 -319l111 440h123l-113 -440h-121z" glyph-name="comma.aalt" horiz-adv-x="336"/><glyph d="M-41 -319l111 440h123l-113 -440h-121z" glyph-name="quotesinglbase.aalt" horiz-adv-x="336"/><glyph d="M-41 -319l111 440h123l-113 -440h-121zM172 -319l113 440h121l-111 -440h-123z" glyph-name="quotedblbase.aalt" horiz-adv-x="551"/><glyph d="M423 1570l-177 -706h-121l177 706h121zM638 1570l-177 -706h-123l179 706h121z" glyph-name="quotedblleft.aalt" horiz-adv-x="578"/><glyph d="M125 864l177 706h121l-177 -706h-121zM338 864l179 706h121l-177 -706h-123z" glyph-name="quotedblright.aalt" horiz-adv-x="578"/><glyph d="M423 1570l-177 -706h-121l177 706h121z" glyph-name="quoteleft.aalt" horiz-adv-x="363"/><glyph d="M125 864l177 706h121l-177 -706h-121z" glyph-name="quoteright.aalt" horiz-adv-x="363"/></font>
</defs>
</svg>
