<?xml version="1.0" standalone="no"?>
<!DOCTYPE svg PUBLIC "-//W3C//DTD SVG 1.1//EN" "http://www.w3.org/Graphics/SVG/1.1/DTD/svg11.dtd">
<svg xmlns="http://www.w3.org/2000/svg"><metadata>This SVG WebFont was generated by YouWorkForThem.
Copyright Â© 2018 by Connary Fagen. All rights reserved.</metadata><defs><font horiz-adv-x="913" id="ywftsvg"><font-face ascent="1638" bbox="-372 -524 2997 2050" cap-height="1570" descent="-410" font-family="" font-stretch="normal" font-weight="900" panose-1="0 0 10 0 0 0 0 0 0 0" underline-position="0" underline-thickness="0" unicode-range="U+0020-FB01" units-per-em="2048" x-height="1126"/><missing-glyph d="M749 1570v-1826h-578v1826h578zM608 1447h-301v-59h118v-69h-120v-59h303v59h-120v69h120v59zM488 1212h-183v-190h303v62h-120v128zM425 1150v-66h-60v66h60zM608 973h-303v-60h120v-68h-120v-60h183v128h120v60zM608 864h-60v-122h-243v-61h303v183zM608 640h-183v-102 h63v42h60v-85h-183v145h-60v-207h303v207zM608 324h-303v-206h303v206zM548 265v-86h-183v86h183zM608 77h-303v-62h128l-128 -85v-60h303v60h-186l128 85h58v62z"/><glyph d="M1029 1126v-1126h-367v824h-193v-824h-367v824h-95v302h95v108q0 85 24 150t60 102.5t86.5 61.5t96.5 31.5t97 7.5q68 0 138 -22v-278q-19 2 -41 2q-53 0 -73.5 -33.5t-20.5 -105.5v-24h560zM662 1570h367v-377h-367v377z" glyph-name="uniFB01" horiz-adv-x="1061" unicode="fi"/><glyph d="M749 1570v-1826h-578v1826h578zM608 1447h-301v-59h118v-69h-120v-59h303v59h-120v69h120v59zM488 1212h-183v-190h303v62h-120v128zM425 1150v-66h-60v66h60zM608 973h-303v-60h120v-68h-120v-60h183v128h120v60zM608 864h-60v-122h-243v-61h303v183zM608 640h-183v-102 h63v42h60v-85h-183v145h-60v-207h303v207zM608 324h-303v-206h303v206zM548 265v-86h-183v86h183zM608 77h-303v-62h128l-128 -85v-60h303v60h-186l128 85h58v62z" glyph-name=".notdef"/><glyph glyph-name="glyph1" horiz-adv-x="0"/><glyph glyph-name="glyph2" horiz-adv-x="682"/><glyph glyph-name="space" horiz-adv-x="273" unicode=" "/><glyph d="M85 493l-61 1077h411l-61 -1077h-289zM229 -34q-87 0 -148.5 61.5t-61.5 146.5t61.5 146.5t148.5 61.5t149 -61.5t62 -146.5t-62 -146.5t-149 -61.5z" glyph-name="exclam" horiz-adv-x="459" unicode="!"/><glyph d="M114 799l-29 771h379l-29 -771h-321zM563 799l-29 771h379l-29 -771h-321z" glyph-name="quotedbl" horiz-adv-x="998" unicode="&quot;"/><glyph d="M1063 940h-135v-310h134l1 -340h-135v-290h-348v290h-78v-290h-348v290h-135v340h135v310h-135v340h135v290h348v-290h78v290h348v-290h135v-340zM580 630v310h-78v-310h78z" glyph-name="numbersign" horiz-adv-x="1080" unicode="#"/><glyph d="M430 963q0 -26 25 -41.5t65 -25t87.5 -19.5t96.5 -31.5t89 -53t64.5 -91t24.5 -140.5v-54q0 -244 -264 -299v-208h-311v208q-263 53 -263 299v119h386v-85q0 -39 6 -50t27 -11q17 0 23 11t6 50v63q0 34 -46.5 51t-113 31.5t-133 42t-112.5 97.5t-46 181v55q0 247 266 298 v210h311v-211q254 -53 254 -297v-122h-382v110q0 24 -6 31.5t-25 7.5q-17 0 -23 -8t-6 -31v-87z" glyph-name="dollar" horiz-adv-x="925" unicode="$"/><glyph d="M428.5 1592q196.5 0 299.5 -90.5t103 -301.5v-251q0 -212 -103 -302.5t-299.5 -90.5t-299 90t-102.5 303v251q0 212 102.5 302t299 90zM515 0l726 1570h379l-726 -1570h-379zM457 1215q0 43 -29 43t-29 -43v-283q0 -43 29 -43t29 43v283zM1706.5 -22 q-196.5 0 -299.5 90.5t-103 301.5v251q0 212 103 302.5t299.5 90.5t299 -89.5t102.5 -303.5v-251q0 -212 -102.5 -302t-299 -90zM1678 355q0 -43 29 -43t29 43v283q0 43 -29 43t-29 -43v-283z" glyph-name="percent" horiz-adv-x="2135" unicode="%"/><glyph d="M894 942v-592q0 -198 -107.5 -284t-313.5 -86q-208 0 -320 87t-112 283v177q0 174 136 246v17q-118 68 -117 219v230q0 183 105 264.5t308 81.5q205 0 309 -81t104 -265v-237h-384v218q0 31 -29 31t-29 -31v-254q0 -27 24 -27zM503 345v273h-35q-26 0 -26 -27v-246 q0 -31 30.5 -31t30.5 31z" glyph-name="ampersand" horiz-adv-x="928" unicode="&amp;"/><glyph d="M114 799l-29 771h379l-29 -771h-321z" glyph-name="quotesingle" horiz-adv-x="549" unicode="'"/><glyph d="M713 -179q-137 0 -243 27t-178 69t-122.5 116.5t-77.5 145t-42.5 182.5t-19 200.5t-3.5 223.5q0 102 2 174t9.5 161.5t21 152t38.5 133t61 117.5t87 94t117.5 73.5t154.5 42.5t195 16v-334q-79 0 -131.5 -28t-83 -73.5t-47 -131.5t-21.5 -172.5t-5 -224.5 q0 -114 3.5 -191t13 -154.5t29 -125.5t51 -86.5t79.5 -55.5t112 -17v-334z" glyph-name="parenleft" horiz-adv-x="723" unicode="("/><glyph d="M10 -179v334q65 0 113 17t79.5 55.5t51 86.5t29 125.5t13 154.5t3.5 191q0 138 -5.5 224.5t-21.5 172.5t-46.5 131.5t-83.5 73.5t-132 28v334q108 0 196 -16t154.5 -42.5t117.5 -73.5t87 -94t60.5 -117.5t38.5 -133t21.5 -152t9 -161.5t1.5 -174q0 -135 -3.5 -223.5 t-18.5 -200.5t-42.5 -182.5t-78 -145t-122 -116.5t-178 -69t-243.5 -27z" glyph-name="parenright" horiz-adv-x="723" unicode=")"/><glyph d="M1000 1234l-251 -125l251 -126l-123 -212l-234 156l17 -280h-242l17 280l-234 -156l-122 212l252 126l-252 125l122 212l234 -156l-17 280h242l-17 -280l234 156z" glyph-name="asterisk" horiz-adv-x="1078" unicode="*"/><glyph d="M1157 976v-382h-343v-341h-403v341h-343v382h343v342h403v-342h343z" glyph-name="plus" horiz-adv-x="1225" unicode="+"/><glyph d="M239 -145v159q-9 -14 -29 -14h-159v338h374v-331z" glyph-name="comma" horiz-adv-x="476" unicode=","/><glyph d="M27 572v358h538v-358h-538z" glyph-name="hyphen" horiz-adv-x="592" unicode="-"/><glyph d="M256 -34q-87 0 -149.5 61.5t-62.5 146.5t62.5 146.5t149.5 61.5t148.5 -61.5t61.5 -146.5t-61.5 -146.5t-148.5 -61.5z" glyph-name="period" horiz-adv-x="512" unicode="."/><glyph d="M49 0l128 1570h388l-147 -1570h-369z" glyph-name="slash" horiz-adv-x="614" unicode="/"/><glyph d="M457.5 -19q-208.5 0 -319.5 86.5t-111 285.5v864q0 200 111 286t319.5 86t318.5 -86t110 -286v-864q0 -200 -110 -286t-318.5 -86zM457 316q29 0 29 39v860q0 39 -29 39t-29 -39v-860q0 -39 29 -39z" glyph-name="zero" unicode="0"/><glyph d="M222 1570h401v-1570h-401v1135q-65 -80 -203 -80v379q56 0 112.5 32t90.5 104z" glyph-name="one" horiz-adv-x="650" unicode="1"/><glyph d="M901 940q0 -85 -35 -154t-88 -112t-113.5 -83.5t-113.5 -71.5t-88 -73t-35 -89v-22h463v-335h-850v387q0 87 34 158t85.5 115.5t110 86t110 72.5t85.5 73.5t34 90.5v229q0 39 -29 39t-29 -39v-260h-398v263q0 198 109.5 284t317.5 86q210 0 320 -86t110 -284v-275z" glyph-name="two" horiz-adv-x="943" unicode="2"/><glyph d="M898 1029q0 -82 -24 -137.5t-104 -97.5v-17q80 -43 104 -97.5t24 -136.5v-188q0 -200 -109.5 -285t-319.5 -85t-319 85t-109 285v217h399v-214q0 -39 29 -39t29 39v197q0 46 -17.5 58.5t-69.5 12.5h-112v318h112q51 0 69 12.5t18 58.5v197q0 39 -29 39t-29 -39v-214h-399 v217q0 200 109 285t319 85t319.5 -85t109.5 -285v-186z" glyph-name="three" horiz-adv-x="925" unicode="3"/><glyph d="M986 654v-335h-95v-319h-401v319h-471v335l205 916h667v-916h95zM384 654h106v546h-22z" glyph-name="four" horiz-adv-x="1013" unicode="4"/><glyph d="M558 1126q147 0 236.5 -85t89.5 -278v-405q0 -196 -110 -283t-320 -87t-318.5 86t-108.5 284v164h398v-155q0 -44 29 -44t29 44v375q0 44 -29 44.5t-29 -44.5v-162h-398v990h816v-334h-418v-145q65 35 133 35z" glyph-name="five" horiz-adv-x="911" unicode="5"/><glyph d="M456 -15q-210 0 -319.5 87t-109.5 283v879q0 198 108.5 284t318.5 86q208 0 312 -86t104 -284v-167h-389v162q0 41 -27 41q-29 0 -29 -41l3 -253q2 2 14 9.5t15.5 9.5t17 8t24 8.5t28 4t40.5 1.5q63 0 115 -15.5t99 -51t73.5 -105.5t26.5 -169v-321q0 -198 -108.5 -284 t-316.5 -86zM454 319q29 0 29 39v279q0 41 -29 41q-17 0 -23 -9t-6 -32v-279q0 -39 29 -39z" glyph-name="six" horiz-adv-x="907" unicode="6"/><glyph d="M19 1570h790v-334l-312 -1236h-395l326 1236h-409v334z" glyph-name="seven" horiz-adv-x="827" unicode="7"/><glyph d="M457 -15q-212 0 -321 85t-109 285v201q0 172 137 246v17q-119 77 -120 224v196q0 183 105 264.5t308 81.5q205 0 309 -81t104 -265v-196q0 -148 -117 -224v-17q137 -73 136 -246v-201q0 -200 -109.5 -285t-322.5 -85zM457 954q29 0 29 38v220q0 39 -29 39q-27 0 -27 -39 v-220q0 -38 27 -38zM457 319q31 0 31 41v271q0 36 -31 36q-29 0 -29 -36v-271q0 -41 29 -41z" glyph-name="eight" horiz-adv-x="916" unicode="8"/><glyph d="M452 1585q210 0 319.5 -87t109.5 -283v-879q0 -198 -108.5 -284t-318.5 -86q-208 0 -312 86t-104 284v167h389v-162q0 -41 27 -41q29 0 29 41l-3 253q-2 0 -12.5 -7.5t-13 -8.5t-12.5 -7t-18 -7t-20.5 -4.5t-28 -4t-34.5 -0.5q-314 0 -314 339v321q0 198 107.5 284 t317.5 86zM454 1251q-29 0 -29 -39v-278q0 -41 29 -41t29 41v278q0 39 -29 39z" glyph-name="nine" horiz-adv-x="907" unicode="9"/><glyph d="M256 961q-87 0 -149.5 61.5t-62.5 146.5t62.5 146.5t149.5 61.5t148.5 -61.5t61.5 -146.5t-61.5 -146.5t-148.5 -61.5zM256 193q-87 0 -149.5 61.5t-62.5 146.5t62.5 146.5t149.5 61.5t148.5 -61.5t61.5 -146.5t-61.5 -146.5t-148.5 -61.5z" glyph-name="colon" horiz-adv-x="512" unicode=":"/><glyph d="M256 961q-87 0 -149.5 61.5t-62.5 146.5t62.5 146.5t149.5 61.5t148.5 -61.5t61.5 -146.5t-61.5 -146.5t-148.5 -61.5zM258 -145v159q-10 -14 -29 -14h-161v338h374v-331z" glyph-name="semicolon" horiz-adv-x="512" unicode=";"/><glyph d="M536 174l-480 387v448l480 387v-399l-229 -198v-28l229 -198v-399z" glyph-name="less" horiz-adv-x="592" unicode="&lt;"/><glyph d="M27 778v383h1053v-383h-1053zM27 271v383h1053v-383h-1053z" glyph-name="equal" horiz-adv-x="1107" unicode="="/><glyph d="M56 174v399l229 198v28l-229 198v399l480 -387v-448z" glyph-name="greater" horiz-adv-x="592" unicode=">"/><glyph d="M41 964v253q0 200 111 286t319 86t319 -86t111 -286v-213q0 -85 -18.5 -146t-47 -89t-61 -52t-60.5 -38.5t-46.5 -43.5t-18.5 -72v-70h-391v116q0 85 18 145t45 85.5t58 45.5t58 29t45 32t18 59v210q0 39 -29 39t-29 -39v-251h-401zM452 -34q-87 0 -148.5 61.5 t-61.5 146.5t61.5 146.5t148.5 61.5t148.5 -61.5t61.5 -146.5t-61.5 -146.5t-148.5 -61.5z" glyph-name="question" horiz-adv-x="942" unicode="?"/><glyph d="M625 1585q244 0 349 -116t105 -363v-545q0 -116 -61.5 -168t-184.5 -52h-179q-119 0 -170 50.5t-51 169.5v246q0 119 50.5 169.5t170.5 50.5h114v79q0 84 -32.5 126.5t-110.5 42.5h-98q-79 0 -111 -42.5t-32 -126.5v-534q0 -142 57 -209.5t209 -67.5h99v-310h-170 q-285 0 -418.5 121t-133.5 382v618q0 480 500 479h98zM749 618q19 0 19 19v114h-38q-20 0 -20 -19v-95q0 -19 19 -19h20z" glyph-name="at" horiz-adv-x="1105" unicode="@"/><glyph d="M584 0l-14 225h-154l-13 -225h-388l135 1570h686l135 -1570h-387zM437 561h113l-41 647h-31z" glyph-name="A" horiz-adv-x="986" unicode="A"/><glyph d="M763 799q128 -73 128 -229v-200q0 -212 -67.5 -291t-272.5 -79h-524v1570h521q196 0 262 -79.5t66 -290.5v-179q0 -73 -24 -120.5t-89 -81.5v-20zM447 1236h-19v-311h21q24 0 30.5 8.5t6.5 29.5v230q0 43 -39 43zM492 379v249q0 20 -7 29t-31 9h-26v-328h23 q24 0 32.5 9.5t8.5 31.5z" glyph-name="B" horiz-adv-x="918" unicode="B"/><glyph d="M457 -24q-208 0 -319 87t-111 285v869q0 200 111 286t319.5 86t318.5 -86t110 -286v-403h-400v401q0 39 -29 39t-29 -39v-863q0 -41 29 -41t29 41v402h400v-406q0 -198 -111 -285t-318 -87z" glyph-name="C" unicode="C"/><glyph d="M543 1570q207 0 275.5 -79.5t68.5 -290.5v-830q0 -212 -69 -291t-275 -79h-516v1570h516zM486 377v816q0 43 -41 43h-17v-901h17q41 -1 41 42z" glyph-name="D" horiz-adv-x="914" unicode="D"/><glyph d="M628 1236h-200v-280h195v-331h-195v-290h200v-335h-601v1570h601v-334z" glyph-name="E" horiz-adv-x="646" unicode="E"/><glyph d="M628 1236h-198v-299h198v-329h-198v-608h-403v1570h601v-334z" glyph-name="F" horiz-adv-x="646" unicode="F"/><glyph d="M457 -19q-208 0 -319 87t-111 287v860q0 200 111 287t319 87q207 0 318 -87t111 -287v-268h-400v268q0 39 -29 39t-29 -39v-860q0 -44 43 -44q24 0 33.5 10t9.5 34l1 241h-34v297h405v-538q0 -200 -111 -287t-318 -87z" glyph-name="G" unicode="G"/><glyph d="M486 1570h400v-1570h-400v594h-58v-594h-401v1570h401v-640h58v640z" glyph-name="H" unicode="H"/><glyph d="M27 0v1570h401v-1570h-401z" glyph-name="I" horiz-adv-x="455" unicode="I"/><glyph d="M462.5 -19q-208.5 0 -319.5 86.5t-111 285.5v362h401v-360q0 -39 29.5 -39t29.5 39v1215h401v-1217q0 -200 -111 -286t-319.5 -86z" glyph-name="J" horiz-adv-x="919" unicode="J"/><glyph d="M565 0l-101 567l-39 -163v-404h-398v1570h398v-531h27l96 531h391l-174 -759l192 -811h-392z" glyph-name="K" horiz-adv-x="957" unicode="K"/><glyph d="M428 335h209v-335h-610v1570h401v-1235z" glyph-name="L" horiz-adv-x="670" unicode="L"/><glyph d="M27 0v1570h598l59 -1031h21l58 1031h599v-1570h-369v1021h-29l-63 -1021h-415l-61 1021h-29v-1021h-369z" glyph-name="M" horiz-adv-x="1389" unicode="M"/><glyph d="M27 0v1570h499l121 -903h24l-12 246v657h368v-1570h-500l-121 903h-22l12 -244v-659h-369z" glyph-name="N" horiz-adv-x="1054" unicode="N"/><glyph d="M457.5 -19q-208.5 0 -319.5 86.5t-111 285.5v864q0 200 111 286t319.5 86t318.5 -86t110 -286v-864q0 -200 -110 -286t-318.5 -86zM457 316q29 0 29 39v860q0 39 -29 39t-29 -39v-860q0 -39 29 -39z" glyph-name="O" unicode="O"/><glyph d="M539 1570q207 0 275 -79.5t68 -292.5v-534q0 -213 -68 -292.5t-275 -79.5h-111v-292h-401v1570h512zM492 667v526q0 44 -43 44h-21v-614h21q43 0 43 44z" glyph-name="P" horiz-adv-x="921" unicode="P"/><glyph d="M887 0l-235 -203l-160 184h-35q-208 0 -319 86.5t-111 285.5v864q0 200 111 286t319.5 86t318.5 -86t110 -286v-864q0 -167 -82 -257zM428 1215v-860q0 -39 29 -39t29 39v860q0 39 -29 39t-29 -39z" glyph-name="Q" unicode="Q"/><glyph d="M918 0h-353l-94 430h-31h-12v-430h-401v1570h512q207 0 275 -79.5t68 -290.5v-423q0 -157 -90 -243zM428 1237v-525h21q43 0 43 42v441q0 43 -43 42h-21z" glyph-name="R" horiz-adv-x="935" unicode="R"/><glyph d="M462.5 -19q-204.5 0 -311.5 87t-107 284v227h384v-226q0 -39 31 -39q29 0 29 39v212q0 31 -33 50.5t-82.5 28t-107.5 29t-107.5 50.5t-83 96.5t-33.5 161.5v238q0 196 107.5 283t310.5 87q205 0 311 -87t106 -283v-227h-384v225q0 41 -29 41q-31 0 -31 -41v-212 q0 -31 33 -50.5t83.5 -28t108.5 -29t108.5 -50.5t83.5 -96.5t33 -161.5v-237q0 -196 -107.5 -283.5t-312 -87.5z" glyph-name="S" horiz-adv-x="925" unicode="S"/><glyph d="M826 1570v-334h-203v-1236h-401v1236h-203v334h807z" glyph-name="T" horiz-adv-x="844" unicode="T"/><glyph d="M457.5 -19q-208.5 0 -319.5 86.5t-111 285.5v1217h401v-1215q0 -39 29 -39t29 39v1215h400v-1217q0 -200 -110 -286t-318.5 -86z" glyph-name="U" unicode="U"/><glyph d="M15 1570h388l75 -1208h31l75 1208h387l-135 -1570h-686z" glyph-name="V" horiz-adv-x="986" unicode="V"/><glyph d="M1234 1570h389l-121 -1570h-615l-54 1137h-17l-57 -1137h-614l-121 1570h389l51 -1138h17l65 1138h555l65 -1138h17z" glyph-name="W" horiz-adv-x="1646" unicode="W"/><glyph d="M963 0h-395l-66 497h-26l-66 -497h-395l171 797l-164 773h393l61 -476h26l61 476h393l-164 -773z" glyph-name="X" horiz-adv-x="977" unicode="X"/><glyph d="M606 1570h386l-289 -1121v-449h-394v449l-287 1121h386l87 -580h22z" glyph-name="Y" horiz-adv-x="1013" unicode="Y"/><glyph d="M32 0v335l321 875v26h-307v334h691v-334l-334 -876v-25h326v-335h-697z" glyph-name="Z" horiz-adv-x="769" unicode="Z"/><glyph d="M27 -179v1928h630v-334h-239v-1260h239v-334h-630z" glyph-name="bracketleft" horiz-adv-x="684" unicode="["/><glyph d="M565 0h-369l-147 1570h388z" glyph-name="backslash" horiz-adv-x="614" unicode="\"/><glyph d="M657 -179h-630v334h239v1260h-239v334h630v-1928z" glyph-name="bracketright" horiz-adv-x="684" unicode="]"/><glyph d="M85 1043l388 478h447l387 -478h-399l-198 227h-27l-198 -227h-400z" glyph-name="asciicircum" horiz-adv-x="1392" unicode="^"/><glyph d="M39 -358v358h1075v-358h-1075z" glyph-name="underscore" horiz-adv-x="1153" unicode="_"/><glyph d="M444 1161h-350l-94 281h350z" glyph-name="grave" horiz-adv-x="443" unicode="`"/><glyph d="M430 1143q200 0 298 -62t98 -223v-858h-321l-19 164h-23q-41 -97 -94 -139t-139 -42q-198 0 -198 210v258q0 116 67 180t193 64h167v169q0 46 -29 46q-31 0 -31 -46v-110h-343v104q0 166 89 225.5t285 59.5zM433 246q26 0 26 41v213h-19q-41 0 -41 -46v-150q0 -58 34 -58 z" glyph-name="a" horiz-adv-x="860" unicode="a"/><glyph d="M640 1143q82 0 135 -49.5t53 -159.5v-586q0 -365 -388 -365q-133 0 -408 26v1561h367v-607h16q43 96 95.5 138t129.5 42zM463 326v497q0 58 -33 58q-31 0 -31 -41v-558q15 -12 38 -12q26 0 26 56z" glyph-name="b" horiz-adv-x="861" unicode="b"/><glyph d="M812 599h-353v239q0 39 -29 39q-31 0 -31 -39v-550q0 -39 31 -39q29 0 29 39v255h353v-195q0 -96 -24.5 -165.5t-61.5 -107t-92 -60t-100.5 -27.5t-103.5 -5t-105 5t-105 27.5t-96.5 60t-65 107.5t-26.5 165v430q0 96 26.5 166t65 107.5t96.5 59.5t105 27t105 5t103.5 -5 t100.5 -27t92 -59.5t61.5 -107.5t24.5 -166v-179z" glyph-name="c" horiz-adv-x="846" unicode="c"/><glyph d="M463 1570h365v-1570h-321l-19 164h-22q-43 -97 -95 -139t-137 -42q-201 0 -202 210v585q0 97 23.5 167t57.5 108t86 59t95.5 26t101.5 5h67v427zM463 287v580q-17 14 -33 14q-31 0 -31 -58v-519q0 -58 34 -58q30 0 30 41z" glyph-name="d" horiz-adv-x="855" unicode="d"/><glyph d="M807 459h-408v-155q0 -67 33 -67q34 0 34 67v99h341v-58q0 -96 -24.5 -165t-59.5 -106.5t-89.5 -59t-99 -26.5t-102.5 -5t-105 5t-105 26.5t-96.5 58t-66 105.5t-27.5 165v439q0 96 26 164.5t63.5 106.5t95.5 59t105.5 26t109.5 5q58 0 102.5 -5t99 -26t89.5 -59 t59.5 -107t24.5 -164v-323zM432 887q-7 0 -11.5 -0.5t-7.5 -2.5t-6 -4.5t-4.5 -6.5t-2.5 -6.5t-1 -9.5v-11.5v-13v-13.5v-135h65v137v16v15.5t-0.5 12t-2.5 10t-5.5 7t-9 5t-14.5 0.5z" glyph-name="e" horiz-adv-x="841" unicode="e"/><glyph d="M563 1289q-53 0 -73.5 -33.5t-20.5 -105.5v-24h125v-302h-125v-824h-367v824h-95v302h95v108q0 85 24 150t60 102.5t86.5 61.5t96.5 31.5t97 7.5q68 0 138 -22v-278q-19 2 -41 2z" glyph-name="f" horiz-adv-x="610" unicode="f"/><glyph d="M396 1143q160 0 432 -25v-1118q-2 -191 -83 -259.5t-279 -68.5q-195 0 -316 12v246h166q94 0 120.5 27.5t26.5 127.5v72q-41 -94 -93.5 -134t-135.5 -40q-201 0 -202 210v585q0 97 23.5 167t57.5 108t86 59t95.5 26t101.5 5zM463 867q-10 14 -33 14q-31 0 -31 -58v-519 q0 -58 34 -58q29 0 30 41v580z" glyph-name="g" horiz-adv-x="861" unicode="g"/><glyph d="M640 1143q82 0 135 -50t53 -161v-932h-365v823q0 58 -33 58q-31 0 -31 -48v-833h-367v1570h367v-599q75 172 241 172z" glyph-name="h" horiz-adv-x="861" unicode="h"/><glyph d="M32 1193v377h367v-377h-367zM32 0v1126h367v-1126h-367z" glyph-name="i" horiz-adv-x="433" unicode="i"/><glyph d="M32 1193v377h367v-377h-367zM24 -328q-140 0 -213 12v246h63q104 0 131 27.5t27 127.5v1041h367v-1119q0 -196 -83.5 -265.5t-291.5 -69.5z" glyph-name="j" horiz-adv-x="431" unicode="j"/><glyph d="M922 0h-371l-106 452h-13l-33 -116v-336h-367v1570h367v-720h33l75 276h375l-145 -483z" glyph-name="k" horiz-adv-x="911" unicode="k"/><glyph d="M32 0v1570h367v-1570h-367z" glyph-name="l" horiz-adv-x="433" unicode="l"/><glyph d="M1068 1143q82 0 136 -50t54 -161v-932h-367v823q0 58 -33 58q-31 0 -30 -48v-833h-365v823q0 58 -33 58q-31 0 -31 -48v-833h-367v1126h323l22 -163h19q75 181 244 180q75 0 127 -43.5t59 -136.5h22q39 96 92 138t128 42z" glyph-name="m" horiz-adv-x="1290" unicode="m"/><glyph d="M640 1143q82 0 135 -50t53 -161v-932h-365v823q0 58 -33 58q-31 0 -31 -48v-833h-367v1126h323l22 -163h19q75 180 244 180z" glyph-name="n" horiz-adv-x="861" unicode="n"/><glyph d="M430 -17q-58 0 -105 5t-105 27.5t-96.5 60t-65 107.5t-26.5 165v430q0 96 26.5 166t65 107.5t96.5 59.5t105 27t105 5q75 0 133 -11t124 -45t102.5 -112.5t36.5 -196.5v-430q0 -118 -36.5 -196.5t-102.5 -112.5t-124 -45t-133 -11zM430 249q29 0 29 39v550q0 39 -29 39 q-31 0 -31 -39v-550q0 -39 31 -39z" glyph-name="o" horiz-adv-x="860" unicode="o"/><glyph d="M640 1143q82 0 135 -49.5t53 -159.5v-591q0 -96 -19 -165t-46 -105.5t-66.5 -58t-69.5 -26.5t-66 -5q-85 0 -162 32v-266h-367v1377h323l22 -163h19q75 180 244 180zM463 326v497q0 58 -33 58q-31 0 -31 -41v-564q9 -7 33 -6q9 0 14 1.5t11 15t6 39.5z" glyph-name="p" horiz-adv-x="861" unicode="p"/><glyph d="M396 1143q160 0 432 -25v-1369h-365v408q-41 -94 -93.5 -134t-135.5 -40q-201 0 -202 210v585q0 97 23.5 167t57.5 108t86 59t95.5 26t101.5 5zM463 287v580q-10 14 -33 14q-31 0 -31 -58v-519q0 -58 34 -58q30 0 30 41z" glyph-name="q" horiz-adv-x="861" unicode="q"/><glyph d="M560 1143q46 0 75 -20v-387h-79q-89 0 -123 -61.5t-34 -188.5v-486h-367v1126h318l27 -189h16q5 96 47.5 151t119.5 55z" glyph-name="r" horiz-adv-x="675" unicode="r"/><glyph d="M393 -15q-193 0 -277 67t-84 223v124h333v-129q0 -39 28 -40q29 0 29 40v129q0 20 -40.5 30.5t-97.5 23.5t-114 37.5t-97.5 88.5t-40.5 165v99q0 300 381 300q181 0 268 -69t87 -221v-138h-328v149q0 36 -27 35q-32 0 -32 -35v-139q0 -27 41 -40t99.5 -24.5t116.5 -35 t99 -86.5t41 -164v-90q0 -167 -98 -233.5t-287 -66.5z" glyph-name="s" horiz-adv-x="802" unicode="s"/><glyph d="M645 824h-148v-397q0 -155 105 -156q9 0 36 -3v-246q-80 -39 -181 -39q-65 0 -113.5 11t-101.5 45t-82 112t-29 197v476h-104v302h104v284h366v-284h148v-302z" glyph-name="t" horiz-adv-x="665" unicode="t"/><glyph d="M463 1126h366v-1126h-322l-22 164h-19q-75 -181 -244 -181q-82 0 -135 50.5t-53 161.5v931h365v-822q0 -58 33 -58q31 0 31 48v832z" glyph-name="u" horiz-adv-x="861" unicode="u"/><glyph d="M131 0l-116 1126h357l51 -788h24l51 788h355l-116 -1126h-606z" glyph-name="v" horiz-adv-x="868" unicode="v"/><glyph d="M87 0l-72 1126h354l30 -788h26l38 788h541l37 -788h24l32 788h352l-72 -1126h-595l-36 792h-26l-36 -792h-597z" glyph-name="w" horiz-adv-x="1466" unicode="w"/><glyph d="M858 0h-355l-56 335h-20l-55 -335h-357l144 563l-139 563h355l52 -336h20l51 336h355l-138 -563z" glyph-name="x" horiz-adv-x="873" unicode="x"/><glyph d="M463 1126h365v-1119q0 -195 -81 -265t-281 -70q-212 0 -333 12v246h183q94 0 120.5 27.5t26.5 127.5v70q-75 -172 -241 -172q-82 0 -136 50.5t-54 161.5v931h367v-822q0 -58 33 -58q31 0 31 48v832z" glyph-name="y" horiz-adv-x="861" unicode="y"/><glyph d="M36 0v305l249 490v26h-236v305h588v-305l-263 -490v-26h254v-305h-592z" glyph-name="z" horiz-adv-x="663" unicode="z"/><glyph d="M514 -186q-99 0 -161.5 52t-62.5 163v488l-213 249v38l213 249v488q0 111 63 163t161 52h356v-336h-121q-70 0 -70 -61v-323l-191 -232v-38l191 -232v-322q0 -61 70 -62h121v-336h-356z" glyph-name="braceleft" horiz-adv-x="947" unicode="{"/><glyph d="M27 -143v1851h403v-1851h-403z" glyph-name="bar" horiz-adv-x="457" unicode="|"/><glyph d="M433 -186h-356v336h121q70 0 70 62v322l191 232v38l-191 232v323q0 61 -70 61h-121v336h356q97 0 160.5 -52t63.5 -163v-488l213 -249v-38l-213 -249v-488q0 -111 -62.5 -163t-161.5 -52z" glyph-name="braceright" horiz-adv-x="947" unicode="}"/><glyph d="M580 626q-58 0 -103 18t-67.5 38.5t-52 38.5t-60.5 18q-38 0 -63.5 -19t-26.5 -51h-166q-5 275 242 275q58 0 103.5 -18t67.5 -38.5t52 -38.5t61 -18q38 0 63 19t27 49h166q2 -138 -61.5 -205.5t-181.5 -67.5z" glyph-name="asciitilde" horiz-adv-x="863" unicode="~"/><glyph d="M229 1099q87 0 149 -61.5t62 -146.5t-62 -146.5t-149 -61.5t-148.5 61.5t-61.5 146.5t61.5 146.5t148.5 61.5zM85 572h289l61 -1077h-411z" glyph-name="exclamdown" horiz-adv-x="459" unicode="¡"/><glyph d="M893 821h-401v179q0 39 -29.5 39t-29.5 -39v-430q0 -39 29.5 -39t29.5 39v183h401v-161q0 -326 -275 -382v-210h-311v210q-275 58 -275 382v388q0 323 275 380v210h311v-210q275 -56 275 -380v-159z" glyph-name="cent" horiz-adv-x="925" unicode="¢"/><glyph d="M532 335h477v-335h-990v335h112v238h-112v335h112v302q0 200 111 286t319.5 86t318.5 -86t110 -286v-246h-399v244q0 39 -29.5 39.5t-29.5 -39.5v-300h263v-335h-263v-238z" glyph-name="sterling" horiz-adv-x="1049" unicode="£"/><glyph d="M1056 1111q0 -101 -42 -195l90 -90l-186 -186l-82 82q-113 -70 -246 -70t-245 70l-82 -82l-186 186l90 90q-43 94 -42 195q0 109 47 201l-95 96l186 184l89 -87q111 65 239 65t238 -65l89 87l186 -184l-95 -96q47 -92 47 -201zM590.5 894q112.5 0 169.5 72t57 145 q0 72 -57 146t-169.5 74t-169.5 -74t-57 -146q0 -73 57 -145t169.5 -72z" glyph-name="currency" horiz-adv-x="1181" unicode="¤"/><glyph d="M986 1570l-271 -1061h186v-108h-201v-55h201v-109h-201v-237h-395v237h-199v109h199v55h-199v108h184l-271 1061h384l89 -580h22l87 580h385z" glyph-name="yen" horiz-adv-x="1005" unicode="¥"/><glyph d="M27 847v861h403v-861h-403zM430 719v-862h-403v862h403z" glyph-name="brokenbar" horiz-adv-x="457" unicode="¦"/><glyph d="M905 809v-360v-17v-84q0 -198 -109.5 -283t-322.5 -85q-215 0 -323.5 85t-108.5 283v85h389v-64q0 -46 43 -46q41 0 41 46v41q0 38 -35 55.5t-88 21t-113.5 15.5t-113.5 32.5t-88 78.5t-35 148v461q0 198 109 283.5t321 85.5t320 -85.5t108 -283.5v-85h-389v64 q0 46 -39 47q-41 0 -41 -47v-40q0 -36 35 -55t88 -21.5t114.5 -15.5t114.5 -33.5t88 -78.5t35 -148zM430 785q0 -53 84 -70v70q0 56 -84 70v-70z" glyph-name="section" horiz-adv-x="947" unicode="§"/><glyph d="M157 1176q-67 0 -112 45t-45 113.5t45 114.5t112 46t113 -46t46 -114.5t-46 -113.5t-113 -45zM544.5 1176q-66.5 0 -112 45t-45.5 113.5t45.5 114.5t112 46t111.5 -46t45 -114.5t-45 -113.5t-111.5 -45z" glyph-name="dieresis" horiz-adv-x="701" unicode="¨"/><glyph d="M396 852q-162 0 -265.5 104t-103.5 264.5t103.5 265.5t265.5 105t266 -105t104 -265.5t-103 -264.5t-267 -104zM401 1004q73 0 130.5 35.5t72.5 110.5h-90q-36 -68 -116 -68q-56 0 -94 36.5t-38 101.5t37.5 102.5t94.5 37.5q79 0 116 -68h90q-15 75 -73 112.5t-130 37.5 q-97 0 -161 -62t-64 -160q0 -96 64 -156t161 -60z" glyph-name="copyright" horiz-adv-x="793" unicode="©"/><glyph d="M512 640l-9 94h-114l-8 -94h-366l122 794h619l121 -794h-365zM413 966h67l-16 157h-36z" glyph-name="ordfeminine" horiz-adv-x="892" unicode="ª"/><glyph d="M807 227h-403l-331 490l331 490h403l-331 -490zM1312 227h-402l-331 490l331 490h402l-331 -490z" glyph-name="guillemotleft" horiz-adv-x="1385" unicode="«"/><glyph d="M865 957v-503h-402v147h-444v356h846z" glyph-name="logicalnot" horiz-adv-x="885" unicode="¬"/><glyph d="M27 572v358h538v-358h-538z" glyph-name="uni00AD" horiz-adv-x="592" unicode="­"/><glyph d="M396 852q-162 0 -265.5 104t-103.5 264.5t103.5 265.5t265.5 105t266 -105t104 -265.5t-103 -264.5t-267 -104zM222 1002h90v133h127l76 -133h99l-90 152q80 38 80 126q0 70 -47.5 110t-134.5 40h-200v-428zM312 1212v140h111q84 0 84 -72q0 -68 -84 -68h-111z" glyph-name="registered" horiz-adv-x="793" unicode="®"/><glyph d="M0 1183v322h620v-322h-620z" glyph-name="macron" horiz-adv-x="619" unicode="¯"/><glyph d="M413 1592q186 0 286 -90.5t100 -301.5v-251q0 -212 -99 -302.5t-287 -90.5t-287 90.5t-99 302.5v251q0 212 100 302t286 90zM442 1215q0 43 -29 43t-29 -43v-283q0 -43 29 -43t29 43v283z" glyph-name="degree" horiz-adv-x="826" unicode="°"/><glyph d="M807 1229h343v-381h-343v-343h-403v343h-343v381h343v343h403v-343zM27 27v381h1053v-381h-1053z" glyph-name="plusminus" horiz-adv-x="1177" unicode="±"/><glyph d="M0 1161l94 281h350l-94 -281h-350z" glyph-name="acute" horiz-adv-x="443" unicode="´"/><glyph d="M486 1570h400v-1217q0 -200 -110 -286t-319 -86h-15v-237h-403v492q-12 49 -12 117v1217h415v-1251q10 -3 15 -3q29 0 29 39v1215z" glyph-name="uni00B5" unicode="µ"/><glyph d="M882 1570v-1570h-399v292h-113q-207 0 -275 79.5t-68 292.5v534q0 213 68.5 292.5t274.5 79.5h512zM947 1570h403v-1570h-403v1570zM461 623h22v614h-22q-43 0 -43 -44v-526q0 -44 43 -44z" glyph-name="paragraph" horiz-adv-x="1377" unicode="¶"/><glyph d="M307 577q-87 0 -149 61.5t-62 146.5t62 146.5t149 61.5t148.5 -61.5t61.5 -146.5t-61.5 -146.5t-148.5 -61.5z" glyph-name="periodcentered" horiz-adv-x="614" unicode="·"/><glyph d="M212 -65q63 -15 109 -57t46 -113.5t-25.5 -119.5t-74.5 -69t-93 -28t-106 -7h-68v176h68q24 0 41 12.5t17 34.5q0 46 -51 47h-75v121l89 68h206l-83 -63v-2z" glyph-name="cedilla" horiz-adv-x="366" unicode="¸"/><glyph d="M425 647q-171 0 -284.5 113.5t-113.5 282.5q0 172 113.5 286.5t284.5 114.5q172 0 285 -114.5t113 -286.5q0 -169 -113 -282.5t-285 -113.5zM425 978q29 0 48 18.5t19 46.5q0 29 -19 48.5t-48 19.5q-27 0 -46 -19.5t-19 -48.5t18 -47t47 -18z" glyph-name="ordmasculine" horiz-adv-x="849" unicode="º"/><glyph d="M73 227l331 490l-331 490h403l331 -490l-331 -490h-403zM579 227l331 490l-331 490h402l331 -490l-331 -490h-402z" glyph-name="guillemotright" horiz-adv-x="1385" unicode="»"/><glyph d="M492 1099q87 0 148 -61.5t61 -146.5t-61 -146.5t-148 -61.5q-89 0 -150.5 61.5t-61.5 146.5t61.5 146.5t150.5 61.5zM901 101v-253q0 -200 -111 -286t-319 -86t-318 86t-110 286v213q0 85 18.5 146t46 89t60.5 52t60.5 38.5t46.5 43.5t19 72v70h390v-116 q0 -85 -17.5 -145t-45 -85.5t-58.5 -45.5t-58 -29t-45 -32t-18 -59v-210q0 -39 29 -39t29 39v251h401z" glyph-name="questiondown" horiz-adv-x="942" unicode="¿"/><glyph d="M671 1655h-350l-94 282h350zM584 0l-14 225h-154l-13 -225h-388l135 1570h686l135 -1570h-387zM437 561h113l-41 647h-31z" glyph-name="Agrave" horiz-adv-x="986" unicode="À"/><glyph d="M761 1937l-94 -282h-350l94 282h350zM584 0l-14 225h-154l-13 -225h-388l135 1570h686l135 -1570h-387zM437 561h113l-41 647h-31z" glyph-name="Aacute" horiz-adv-x="986" unicode="Á"/><glyph d="M476 1746l-25 -91h-284l101 287h445l103 -287h-285l-24 91h-31zM584 0l-14 225h-154l-13 -225h-388l135 1570h686l135 -1570h-387zM437 561h113l-41 647h-31z" glyph-name="Acircumflex" horiz-adv-x="986" unicode="Â"/><glyph d="M278 1681h-165q-3 137 60 205t182 68q75 0 125.5 -28t84.5 -55.5t72 -27.5q39 0 63.5 18t26.5 50h166q3 -138 -60 -205.5t-181 -67.5q-60 0 -105 17.5t-67.5 38.5t-51.5 38t-59 17q-39 0 -64 -18t-27 -50zM584 0l-14 225h-154l-13 -225h-388l135 1570h686l135 -1570h-387 zM437 561h113l-41 647h-31z" glyph-name="Atilde" horiz-adv-x="986" unicode="Ã"/><glyph d="M297 1671q-67 0 -112 45t-45 113.5t45 114.5t112 46t113 -46t46 -114.5t-46 -113.5t-113 -45zM684.5 1671q-66.5 0 -112 45t-45.5 113.5t45.5 114.5t112 46t111.5 -46t45 -114.5t-45 -113.5t-111.5 -45zM584 0l-14 225h-154l-13 -225h-388l135 1570h686l135 -1570h-387z M437 561h113l-41 647h-31z" glyph-name="Adieresis" horiz-adv-x="986" unicode="Ä"/><glyph d="M490 1632q-94 0 -153 59.5t-59 150t58 149.5t153.5 59t154.5 -59t59 -149.5t-59.5 -150t-153.5 -59.5zM490 1874q-31 0 -31 -32.5t31 -32.5q32 0 32 32.5t-32 32.5zM584 0l-14 225h-154l-13 -225h-388l135 1570h686l135 -1570h-387zM437 561h113l-41 647h-31z" glyph-name="Aring" horiz-adv-x="986" unicode="Å"/><glyph d="M1224 1236h-202v-280h195v-331h-195v-290h202v-335h-603v210h-186l-32 -210h-388l267 1570h942v-334zM488 555h133v657h-32z" glyph-name="AE" horiz-adv-x="1242" unicode="Æ"/><glyph d="M886 814h-400v401q0 39 -29 39t-29 -39v-863q0 -41 29 -41t29 41v402h400v-406q0 -321 -314 -365l-62 -46v-2q63 -15 109.5 -57t46.5 -113.5t-26 -119.5t-74.5 -69t-93 -28t-105.5 -7h-68v176h68q24 0 41 12.5t17 34.5q0 46 -51 47h-75v121l63 49q-335 36 -335 367v869 q0 200 111 286t319.5 86t318.5 -86t110 -286v-403z" glyph-name="Ccedilla" unicode="Ç"/><glyph d="M529 1655h-350l-94 282h350zM628 1236h-200v-280h195v-331h-195v-290h200v-335h-601v1570h601v-334z" glyph-name="Egrave" horiz-adv-x="646" unicode="È"/><glyph d="M620 1937l-94 -282h-350l94 282h350zM628 1236h-200v-280h195v-331h-195v-290h200v-335h-601v1570h601v-334z" glyph-name="Eacute" horiz-adv-x="646" unicode="É"/><glyph d="M335 1746l-26 -91h-283l100 287h446l102 -287h-285l-24 91h-30zM628 1570v-334h-200v-280h195v-331h-195v-290h200v-335h-601v1570h601z" glyph-name="Ecircumflex" horiz-adv-x="646" unicode="Ê"/><glyph d="M155.5 1671q-66.5 0 -112 45t-45.5 113.5t45.5 114.5t112 46t112.5 -46t46 -114.5t-46 -113.5t-112.5 -45zM542.5 1990q66.5 0 112 -46t45.5 -114.5t-45.5 -113.5t-112 -45t-111.5 45t-45 113.5t45 114.5t111.5 46zM628 1570v-334h-200v-280h195v-331h-195v-290h200v-335 h-601v1570h601z" glyph-name="Edieresis" horiz-adv-x="646" unicode="Ë"/><glyph d="M408 1655h-350l-94 282h350zM27 0v1570h401v-1570h-401z" glyph-name="Igrave" horiz-adv-x="455" unicode="Ì"/><glyph d="M55 1655l93 282h350l-94 -282h-349zM27 0v1570h401v-1570h-401z" glyph-name="Iacute" horiz-adv-x="455" unicode="Í"/><glyph d="M-96 1655l101 287h446l102 -287h-285l-24 91h-31l-25 -91h-284zM27 0v1570h401v-1570h-401z" glyph-name="Icircumflex" horiz-adv-x="455" unicode="Î"/><glyph d="M34.5 1671q-66.5 0 -112 45t-45.5 113.5t45.5 114.5t112 46t112.5 -46t46 -114.5t-46 -113.5t-112.5 -45zM421.5 1671q-66.5 0 -111.5 45t-45 113.5t45 114.5t111.5 46t112 -46t45.5 -114.5t-45.5 -113.5t-112 -45zM27 0v1570h401v-1570h-401z" glyph-name="Idieresis" horiz-adv-x="455" unicode="Ï"/><glyph d="M616 1570q207 0 276 -79.5t69 -290.5v-830q0 -212 -69 -291t-276 -79h-515v606h-50v358h50v606h515zM560 377v816q0 43 -39 43h-19v-272h49v-358h-49v-271h19q39 -1 39 42z" glyph-name="Eth" horiz-adv-x="988" unicode="Ð"/><glyph d="M688 1638q-60 0 -105 17.5t-67.5 38.5t-51.5 38t-60 17q-39 0 -63.5 -18t-26.5 -50h-166q-3 137 60 205t183 68q75 0 125.5 -28t84.5 -55.5t71 -27.5q39 0 64 18t27 50h165q3 -138 -59.5 -205.5t-180.5 -67.5zM27 0v1570h499l121 -903h24l-12 246v657h368v-1570h-500 l-121 903h-22l12 -244v-659h-369z" glyph-name="Ntilde" horiz-adv-x="1054" unicode="Ñ"/><glyph d="M635 1655h-350l-94 282h350zM457.5 -19q-208.5 0 -319.5 86.5t-111 285.5v864q0 200 111 286t319.5 86t318.5 -86t110 -286v-864q0 -200 -110 -286t-318.5 -86zM457 316q29 0 29 39v860q0 39 -29 39t-29 -39v-860q0 -39 29 -39z" glyph-name="Ograve" unicode="Ò"/><glyph d="M283 1655l94 282h350l-94 -282h-350zM457.5 -19q-208.5 0 -319.5 86.5t-111 285.5v864q0 200 111 286t319.5 86t318.5 -86t110 -286v-864q0 -200 -110 -286t-318.5 -86zM457 316q29 0 29 39v860q0 39 -29 39t-29 -39v-860q0 -39 29 -39z" glyph-name="Oacute" unicode="Ó"/><glyph d="M133 1655l101 287h445l103 -287h-285l-24 91h-31l-26 -91h-283zM457.5 -19q-208.5 0 -319.5 86.5t-111 285.5v864q0 200 111 286t319.5 86t318.5 -86t110 -286v-864q0 -200 -110 -286t-318.5 -86zM457 316q29 0 29 39v860q0 39 -29 39t-29 -39v-860q0 -39 29 -39z" glyph-name="Ocircumflex" unicode="Ô"/><glyph d="M616 1638q-60 0 -105 17.5t-67 38.5t-51 38t-60 17q-39 0 -64 -18t-27 -50h-165q-3 137 60 205t182 68q75 0 125.5 -28t84.5 -55.5t72 -27.5q39 0 63.5 18t26.5 50h166q3 -138 -60 -205.5t-181 -67.5zM457.5 -19q-208.5 0 -319.5 86.5t-111 285.5v864q0 200 111 286 t319.5 86t318.5 -86t110 -286v-864q0 -200 -110 -286t-318.5 -86zM457 316q29 0 29 39v860q0 39 -29 39t-29 -39v-860q0 -39 29 -39z" glyph-name="Otilde" unicode="Õ"/><glyph d="M262.5 1671q-66.5 0 -111.5 45t-45 113.5t45 114.5t111.5 46t113 -46t46.5 -114.5t-46.5 -113.5t-113 -45zM650.5 1671q-66.5 0 -112 45t-45.5 113.5t45.5 114.5t112 46t111.5 -46t45 -114.5t-45 -113.5t-111.5 -45zM457.5 -19q-208.5 0 -319.5 86.5t-111 285.5v864 q0 200 111 286t319.5 86t318.5 -86t110 -286v-864q0 -200 -110 -286t-318.5 -86zM457 316q29 0 29 39v860q0 39 -29 39t-29 -39v-860q0 -39 29 -39z" glyph-name="Odieresis" unicode="Ö"/><glyph d="M1108 529l-270 -268l-242 242l-243 -242l-285 285l243 242l-243 243l268 269l243 -242l242 242l285 -285l-242 -242z" glyph-name="multiply" horiz-adv-x="1174" unicode="×"/><glyph d="M790 1475q82 -90 82 -258v-864q0 -200 -110 -286t-318 -86q-162 0 -258 48l-20 -49h-120l50 116q-82 90 -82 257v864q0 200 111 286t319 86q160 0 256 -48l20 50h120zM415 1215v-355l58 138v217q0 39 -29 39t-29 -39zM444 316q29 0 29 39v358l-58 -138v-220q0 -39 29 -39 z" glyph-name="Oslash" horiz-adv-x="885" unicode="Ø"/><glyph d="M635 1655h-350l-94 282h350zM457.5 -19q-208.5 0 -319.5 86.5t-111 285.5v1217h401v-1215q0 -39 29 -39t29 39v1215h400v-1217q0 -200 -110 -286t-318.5 -86z" glyph-name="Ugrave" unicode="Ù"/><glyph d="M283 1655l94 282h350l-94 -282h-350zM457.5 -19q-208.5 0 -319.5 86.5t-111 285.5v1217h401v-1215q0 -39 29 -39t29 39v1215h400v-1217q0 -200 -110 -286t-318.5 -86z" glyph-name="Uacute" unicode="Ú"/><glyph d="M133 1655l101 287h445l103 -287h-285l-24 91h-31l-26 -91h-283zM457.5 -19q-208.5 0 -319.5 86.5t-111 285.5v1217h401v-1215q0 -39 29 -39t29 39v1215h400v-1217q0 -200 -110 -286t-318.5 -86z" glyph-name="Ucircumflex" unicode="Û"/><glyph d="M262.5 1671q-66.5 0 -111.5 45t-45 113.5t45 114.5t111.5 46t113 -46t46.5 -114.5t-46.5 -113.5t-113 -45zM650.5 1671q-66.5 0 -112 45t-45.5 113.5t45.5 114.5t112 46t111.5 -46t45 -114.5t-45 -113.5t-111.5 -45zM457.5 -19q-208.5 0 -319.5 86.5t-111 285.5v1217h401 v-1215q0 -39 29 -39t29 39v1215h400v-1217q0 -200 -110 -286t-318.5 -86z" glyph-name="Udieresis" unicode="Ü"/><glyph d="M777 1937l-94 -282h-350l94 282h350zM606 1570h386l-289 -1121v-449h-394v449l-287 1121h386l87 -580h22z" glyph-name="Yacute" horiz-adv-x="1013" unicode="Ý"/><glyph d="M524 1425q119 0 191 -18t112 -65t53 -111t13 -171v-548q0 -108 -13 -172t-53 -110.5t-112 -64.5t-191 -18h-94v-147h-403v1570h403v-145h94zM490 546v480q0 43 -34 42h-26v-563h26q34 0 34 41z" glyph-name="Thorn" horiz-adv-x="919" unicode="Þ"/><glyph d="M27 0v1213q0 200 100 286t291 86q200 0 302.5 -86t102.5 -286v-162q0 -82 -27.5 -141.5t-102.5 -103.5v-18q133 -75 133 -244v-218q0 -196 -96.5 -261t-307.5 -65h-7v311h3q22 0 30.5 9t8.5 37v245q0 39 -34 40h-8v312h8q32 0 33 41v295q0 31 -31 31t-31 -31v-1290h-367z " glyph-name="germandbls" horiz-adv-x="853" unicode="ß"/><glyph d="M609 1212h-350l-93 281h349zM430 1143q200 0 298 -62t98 -223v-858h-321l-19 164h-23q-41 -97 -94 -139t-139 -42q-198 0 -198 210v258q0 116 67 180t193 64h167v169q0 46 -29 46q-31 0 -31 -46v-110h-343v104q0 166 89 225.5t285 59.5zM433 246q26 0 26 41v213h-19 q-41 0 -41 -46v-150q0 -58 34 -58z" glyph-name="agrave" horiz-adv-x="860" unicode="à"/><glyph d="M700 1493l-94 -281h-350l94 281h350zM430 1143q200 0 298 -62t98 -223v-858h-321l-19 164h-23q-41 -97 -94 -139t-139 -42q-198 0 -198 210v258q0 116 67 180t193 64h167v169q0 46 -29 46q-31 0 -31 -46v-110h-343v104q0 166 89 225.5t285 59.5zM433 246q26 0 26 41v213 h-19q-41 0 -41 -46v-150q0 -58 34 -58z" glyph-name="aacute" horiz-adv-x="860" unicode="á"/><glyph d="M415 1302l-26 -90h-283l101 286h445l102 -286h-285l-24 90h-30zM430 1143q200 0 298 -62t98 -223v-858h-321l-19 164h-23q-41 -97 -94 -139t-139 -42q-198 0 -198 210v258q0 116 67 180t193 64h167v169q0 46 -29 46q-31 0 -31 -46v-110h-343v104q0 166 89 225.5t285 59.5 zM433 246q26 0 26 41v213h-19q-41 0 -41 -46v-150q0 -58 34 -58z" glyph-name="acircumflex" horiz-adv-x="860" unicode="â"/><glyph d="M217 1237h-166q-3 137 60 205t183 68q75 0 125 -28t84.5 -55.5t71.5 -27.5q39 0 64 18t27 51h165q3 -138 -60 -205.5t-180 -67.5q-60 0 -105.5 17t-67.5 38t-51 38.5t-60 17.5q-39 0 -63.5 -18.5t-26.5 -50.5zM430 1143q200 0 298 -62t98 -223v-858h-321l-19 164h-23 q-41 -97 -94 -139t-139 -42q-198 0 -198 210v258q0 116 67 180t193 64h167v169q0 46 -29 46q-31 0 -31 -46v-110h-343v104q0 166 89 225.5t285 59.5zM433 246q26 0 26 41v213h-19q-41 0 -41 -46v-150q0 -58 34 -58z" glyph-name="atilde" horiz-adv-x="860" unicode="ã"/><glyph d="M235.5 1227q-66.5 0 -111.5 45.5t-45 113.5t45 114t111.5 46t112.5 -46t46 -114t-46 -113.5t-112.5 -45.5zM622.5 1227q-66.5 0 -111.5 45.5t-45 113.5t45 114t111.5 46t112 -46t45.5 -114t-45.5 -113.5t-112 -45.5zM430 1143q200 0 298 -62t98 -223v-858h-321l-19 164 h-23q-41 -97 -94 -139t-139 -42q-198 0 -198 210v258q0 116 67 180t193 64h167v169q0 46 -29 46q-31 0 -31 -46v-110h-343v104q0 166 89 225.5t285 59.5zM433 246q26 0 26 41v213h-19q-41 0 -41 -46v-150q0 -58 34 -58z" glyph-name="adieresis" horiz-adv-x="860" unicode="ä"/><glyph d="M428.5 1188q-93.5 0 -152.5 59.5t-59 150t58 149.5t153.5 59t154.5 -59t59 -149.5t-60 -150t-153.5 -59.5zM428 1430q-31 0 -30.5 -32.5t30.5 -32.5q32 0 32 32.5t-32 32.5zM430 1143q200 0 298 -62t98 -223v-858h-321l-19 164h-23q-41 -97 -94 -139t-139 -42 q-198 0 -198 210v258q0 116 67 180t193 64h167v169q0 46 -29 46q-31 0 -31 -46v-110h-343v104q0 166 89 225.5t285 59.5zM433 246q26 0 26 41v213h-19q-41 0 -41 -46v-150q0 -58 34 -58z" glyph-name="aring" horiz-adv-x="860" unicode="å"/><glyph d="M1237 459h-408v-155q0 -67 33 -67q34 0 34 67v99h341v-58q0 -96 -24.5 -165t-59.5 -106.5t-89.5 -59t-99 -26.5t-102.5 -5q-300 0 -374 196h-25v9h-2q-72 -119 -121.5 -162t-121.5 -43q-186 0 -186 268v532q0 96 22.5 165t55.5 106t86 58t97.5 26t105.5 5q150 0 304 -13 q60 14 159 13q58 0 102.5 -5t99 -26t89.5 -59t59.5 -107t24.5 -164v-323zM862 887q-29 0 -33 -25v-178h65v137v15.5v13.5t-0.5 10t-1.5 10.5t-3.5 7.5t-6 5t-8.5 2.5t-12 1.5zM444 261q10 0 19 5v63v512q-10 14 -35 14q-29 0 -29 -55v-476q0 -24 3.5 -37.5t12 -18.5t13 -6 t16.5 -1z" glyph-name="ae" horiz-adv-x="1271" unicode="æ"/><glyph d="M812 599h-353v239q0 39 -29 39q-31 0 -31 -39v-550q0 -39 31 -39q29 0 29 39v255h353v-195q0 -312 -264 -357l-72 -54v-2q63 -15 109 -57t46 -113.5t-25.5 -119.5t-74 -69t-93 -28t-105.5 -7h-68v176h68q24 0 41 12.5t17 34.5q0 46 -51 47h-75v121l71 56 q-304 32 -304 360v430q0 96 26.5 166t65 107.5t96.5 59.5t105 27t105 5t103.5 -5t100.5 -27t92 -59.5t61.5 -107.5t24.5 -166v-179z" glyph-name="ccedilla" horiz-adv-x="846" unicode="ç"/><glyph d="M599 1212h-350l-94 281h350zM807 459h-408v-155q0 -67 33 -67q34 0 34 67v99h341v-58q0 -96 -24.5 -165t-59.5 -106.5t-89.5 -59t-99 -26.5t-102.5 -5t-105 5t-105 26.5t-96.5 58t-66 105.5t-27.5 165v439q0 96 26 164.5t63.5 106.5t95.5 59t105.5 26t109.5 5 q58 0 102.5 -5t99 -26t89.5 -59t59.5 -107t24.5 -164v-323zM432 887q-7 0 -11.5 -0.5t-7.5 -2.5t-6 -4.5t-4.5 -6.5t-2.5 -6.5t-1 -9.5v-11.5v-13v-13.5v-135h65v137v16v15.5t-0.5 12t-2.5 10t-5.5 7t-9 5t-14.5 0.5z" glyph-name="egrave" horiz-adv-x="841" unicode="è"/><glyph d="M691 1493l-94 -281h-350l94 281h350zM807 459h-408v-155q0 -67 33 -67q34 0 34 67v99h341v-58q0 -96 -24.5 -165t-59.5 -106.5t-89.5 -59t-99 -26.5t-102.5 -5t-105 5t-105 26.5t-96.5 58t-66 105.5t-27.5 165v439q0 96 26 164.5t63.5 106.5t95.5 59t105.5 26t109.5 5 q58 0 102.5 -5t99 -26t89.5 -59t59.5 -107t24.5 -164v-323zM432 887q-7 0 -11.5 -0.5t-7.5 -2.5t-6 -4.5t-4.5 -6.5t-2.5 -6.5t-1 -9.5v-11.5v-13v-13.5v-135h65v137v16v15.5t-0.5 12t-2.5 10t-5.5 7t-9 5t-14.5 0.5z" glyph-name="eacute" horiz-adv-x="841" unicode="é"/><glyph d="M406 1302l-25 -90h-284l101 286h445l103 -286h-285l-24 90h-31zM807 459h-408v-155q0 -67 33 -67q34 0 34 67v99h341v-58q0 -96 -24.5 -165t-59.5 -106.5t-89.5 -59t-99 -26.5t-102.5 -5t-105 5t-105 26.5t-96.5 58t-66 105.5t-27.5 165v439q0 96 26 164.5t63.5 106.5 t95.5 59t105.5 26t109.5 5q58 0 102.5 -5t99 -26t89.5 -59t59.5 -107t24.5 -164v-323zM432 887q-7 0 -11.5 -0.5t-7.5 -2.5t-6 -4.5t-4.5 -6.5t-2.5 -6.5t-1 -9.5v-11.5v-13v-13.5v-135h65v137v16v15.5t-0.5 12t-2.5 10t-5.5 7t-9 5t-14.5 0.5z" glyph-name="ecircumflex" horiz-adv-x="841" unicode="ê"/><glyph d="M227 1227q-67 0 -112 45.5t-45 113.5t45 114t112 46t113 -46t46 -114t-46 -113.5t-113 -45.5zM614.5 1227q-66.5 0 -112 45.5t-45.5 113.5t45.5 114t112 46t111.5 -46t45 -114t-45 -113.5t-111.5 -45.5zM807 459h-408v-155q0 -67 33 -67q34 0 34 67v99h341v-58 q0 -96 -24.5 -165t-59.5 -106.5t-89.5 -59t-99 -26.5t-102.5 -5t-105 5t-105 26.5t-96.5 58t-66 105.5t-27.5 165v439q0 96 26 164.5t63.5 106.5t95.5 59t105.5 26t109.5 5q58 0 102.5 -5t99 -26t89.5 -59t59.5 -107t24.5 -164v-323zM432 887q-7 0 -11.5 -0.5t-7.5 -2.5 t-6 -4.5t-4.5 -6.5t-2.5 -6.5t-1 -9.5v-11.5v-13v-13.5v-135h65v137v16v15.5t-0.5 12t-2.5 10t-5.5 7t-9 5t-14.5 0.5z" glyph-name="edieresis" horiz-adv-x="841" unicode="ë"/><glyph d="M413 1212h-350l-94 281h350zM32 0v1126h367v-1126h-367z" glyph-name="igrave" horiz-adv-x="433" unicode="ì"/><glyph d="M61 1212l94 281h350l-94 -281h-350zM32 0v1126h367v-1126h-367z" glyph-name="iacute" horiz-adv-x="433" unicode="í"/><glyph d="M-89 1212l101 286h445l103 -286h-285l-24 90h-31l-25 -90h-284zM32 0v1126h367v-1126h-367z" glyph-name="icircumflex" horiz-adv-x="433" unicode="î"/><glyph d="M41 1227q-67 0 -112 45.5t-45 113.5t45 114t112 46t113 -46t46 -114t-46 -113.5t-113 -45.5zM428.5 1227q-66.5 0 -112 45.5t-45.5 113.5t45.5 114t112 46t111.5 -46t45 -114t-45 -113.5t-111.5 -45.5zM32 0v1126h367v-1126h-367z" glyph-name="idieresis" horiz-adv-x="433" unicode="ï"/><glyph d="M942 1128v-102h-61v-671q0 -196 -109.5 -283t-319.5 -87t-317.5 86t-107.5 284v321q0 99 26.5 169t73.5 105.5t99 51t115 15.5q22 0 40 -1.5t28.5 -4t24 -8.5t17 -8t15.5 -9.5t14 -9.5v50h-36v102h37l2 101q0 41 -29 41q-27 0 -27 -41v-162h-389v167q0 198 104 284 t312 86q210 0 318.5 -86t108.5 -284v-106h61zM483 358v279q0 41 -29 41t-29 -41v-279q0 -39 29 -39t29 39z" glyph-name="eth" horiz-adv-x="907" unicode="ð"/><glyph d="M220 1237h-165q-3 137 59.5 205t182.5 68q75 0 125.5 -28t84.5 -55.5t72 -27.5q39 0 63.5 18t26.5 51h166q3 -138 -60 -205.5t-181 -67.5q-60 0 -105 17t-67.5 38t-51.5 38.5t-59 17.5q-39 0 -64 -18.5t-27 -50.5zM640 1143q82 0 135 -50t53 -161v-932h-365v823 q0 58 -33 58q-31 0 -31 -48v-833h-367v1126h323l22 -163h19q75 180 244 180z" glyph-name="ntilde" horiz-adv-x="861" unicode="ñ"/><glyph d="M609 1212h-350l-93 281h349zM430 -17q-58 0 -105 5t-105 27.5t-96.5 60t-65 107.5t-26.5 165v430q0 96 26.5 166t65 107.5t96.5 59.5t105 27t105 5q75 0 133 -11t124 -45t102.5 -112.5t36.5 -196.5v-430q0 -118 -36.5 -196.5t-102.5 -112.5t-124 -45t-133 -11zM430 249 q29 0 29 39v550q0 39 -29 39q-31 0 -31 -39v-550q0 -39 31 -39z" glyph-name="ograve" horiz-adv-x="860" unicode="ò"/><glyph d="M256 1212l94 281h350l-94 -281h-350zM430 -17q-58 0 -105 5t-105 27.5t-96.5 60t-65 107.5t-26.5 165v430q0 96 26.5 166t65 107.5t96.5 59.5t105 27t105 5q75 0 133 -11t124 -45t102.5 -112.5t36.5 -196.5v-430q0 -118 -36.5 -196.5t-102.5 -112.5t-124 -45t-133 -11z M430 249q29 0 29 39v550q0 39 -29 39q-31 0 -31 -39v-550q0 -39 31 -39z" glyph-name="oacute" horiz-adv-x="860" unicode="ó"/><glyph d="M106 1212l101 286h445l102 -286h-285l-24 90h-30l-26 -90h-283zM430 -17q-58 0 -105 5t-105 27.5t-96.5 60t-65 107.5t-26.5 165v430q0 96 26.5 166t65 107.5t96.5 59.5t105 27t105 5q75 0 133 -11t124 -45t102.5 -112.5t36.5 -196.5v-430q0 -118 -36.5 -196.5 t-102.5 -112.5t-124 -45t-133 -11zM430 249q29 0 29 39v550q0 39 -29 39q-31 0 -31 -39v-550q0 -39 31 -39z" glyph-name="ocircumflex" horiz-adv-x="860" unicode="ô"/><glyph d="M591 1195q-60 0 -105.5 17t-67.5 38t-51 38.5t-60 17.5q-39 0 -64 -18t-26 -51h-166q-3 137 60 205t183 68q75 0 125 -28t84.5 -55.5t71.5 -27.5q39 0 64 18t27 51h165q3 -138 -59.5 -205.5t-180.5 -67.5zM430 -17q-58 0 -105 5t-105 27.5t-96.5 60t-65 107.5t-26.5 165 v430q0 96 26.5 166t65 107.5t96.5 59.5t105 27t105 5q75 0 133 -11t124 -45t102.5 -112.5t36.5 -196.5v-430q0 -118 -36.5 -196.5t-102.5 -112.5t-124 -45t-133 -11zM430 249q29 0 29 39v550q0 39 -29 39q-31 0 -31 -39v-550q0 -39 31 -39z" glyph-name="otilde" horiz-adv-x="860" unicode="õ"/><glyph d="M235.5 1227q-66.5 0 -111.5 45.5t-45 113.5t45 114t111.5 46t112.5 -46t46 -114t-46 -113.5t-112.5 -45.5zM622.5 1227q-66.5 0 -111.5 45.5t-45 113.5t45 114t111.5 46t112 -46t45.5 -114t-45.5 -113.5t-112 -45.5zM430 -17q-58 0 -105 5t-105 27.5t-96.5 60t-65 107.5 t-26.5 165v430q0 96 26.5 166t65 107.5t96.5 59.5t105 27t105 5q75 0 133 -11t124 -45t102.5 -112.5t36.5 -196.5v-430q0 -118 -36.5 -196.5t-102.5 -112.5t-124 -45t-133 -11zM430 249q29 0 29 39v550q0 39 -29 39q-31 0 -31 -39v-550q0 -39 31 -39z" glyph-name="odieresis" horiz-adv-x="860" unicode="ö"/><glyph d="M546 1079q-77 0 -131.5 54.5t-54.5 131.5q0 75 54.5 130.5t131.5 55.5q79 0 133.5 -55t54.5 -131.5t-54.5 -131t-133.5 -54.5zM32 594v382h995v-382h-995zM546 116q-77 0 -131.5 54.5t-54.5 131.5q0 75 54.5 130.5t131.5 55.5q79 0 133.5 -54.5t54.5 -131.5t-54.5 -131.5 t-133.5 -54.5z" glyph-name="divide" horiz-adv-x="1078" unicode="÷"/><glyph d="M693 1077q125 -89 124 -299v-430q0 -96 -26 -165.5t-64.5 -107t-96.5 -60t-104 -27.5t-104 -5q-113 0 -186 24l-43 -103h-97l59 140q-131 85 -131 304v430q0 96 26.5 166t65 107.5t96.5 59.5t105 27t105 5q116 0 189 -25l38 87h99zM391 838v-239l60 140v99q0 39 -29 39 q-31 0 -31 -39zM422 249q29 0 29 39v221l-60 -140v-81q0 -39 31 -39z" glyph-name="oslash" horiz-adv-x="841" unicode="ø"/><glyph d="M611 1212h-350l-94 281h350zM463 1126h366v-1126h-322l-22 164h-19q-75 -181 -244 -181q-82 0 -135 50.5t-53 161.5v931h365v-822q0 -58 33 -58q31 0 31 48v832z" glyph-name="ugrave" horiz-adv-x="861" unicode="ù"/><glyph d="M701 1493l-93 -281h-350l94 281h349zM463 1126h366v-1126h-322l-22 164h-19q-75 -181 -244 -181q-82 0 -135 50.5t-53 161.5v931h365v-822q0 -58 33 -58q31 0 31 48v832z" glyph-name="uacute" horiz-adv-x="861" unicode="ú"/><glyph d="M416 1302l-25 -90h-283l100 286h446l102 -286h-285l-24 90h-31zM463 1126h366v-1126h-322l-22 164h-19q-75 -181 -244 -181q-82 0 -135 50.5t-53 161.5v931h365v-822q0 -58 33 -58q31 0 31 48v832z" glyph-name="ucircumflex" horiz-adv-x="861" unicode="û"/><glyph d="M237.5 1227q-66.5 0 -112 45.5t-45.5 113.5t45.5 114t112 46t112.5 -46t46 -114t-46 -113.5t-112.5 -45.5zM624.5 1227q-66.5 0 -111.5 45.5t-45 113.5t45 114t111.5 46t112 -46t45.5 -114t-45.5 -113.5t-112 -45.5zM463 1126h366v-1126h-322l-22 164h-19 q-75 -181 -244 -181q-82 0 -135 50.5t-53 161.5v931h365v-822q0 -58 33 -58q31 0 31 48v832z" glyph-name="udieresis" horiz-adv-x="861" unicode="ü"/><glyph d="M698 1493l-94 -281h-350l94 281h350zM463 1126h365v-1119q0 -195 -81 -265t-281 -70q-212 0 -333 12v246h183q94 0 120.5 27.5t26.5 127.5v70q-75 -172 -241 -172q-82 0 -136 50.5t-54 161.5v931h367v-822q0 -58 33 -58q31 0 31 48v832z" glyph-name="yacute" horiz-adv-x="861" unicode="ý"/><glyph d="M640 1143q82 0 135 -49.5t53 -159.5v-591q0 -96 -19 -165t-46 -105.5t-66.5 -58t-69.5 -26.5t-66 -5q-85 0 -162 32v-266h-367v1821h367v-599q75 172 241 172zM463 326v497q0 58 -33 58q-31 0 -31 -41v-564q9 -7 33 -6q9 0 14 1.5t11 15t6 39.5z" glyph-name="thorn" horiz-adv-x="861" unicode="þ"/><glyph d="M233.5 1227q-66.5 0 -111.5 45.5t-45 113.5t45 114t111.5 46t113 -46t46.5 -114t-46.5 -113.5t-113 -45.5zM621.5 1227q-66.5 0 -112 45.5t-45.5 113.5t45.5 114t112 46t111.5 -46t45 -114t-45 -113.5t-111.5 -45.5zM463 1126h365v-1119q0 -195 -81 -265t-281 -70 q-212 0 -333 12v246h183q94 0 120.5 27.5t26.5 127.5v70q-75 -172 -241 -172q-82 0 -136 50.5t-54 161.5v931h367v-822q0 -58 33 -58q31 0 31 48v832z" glyph-name="ydieresis" horiz-adv-x="861" unicode="ÿ"/><glyph d="M800 2000v-322h-619v322h619zM584 0l-14 225h-154l-13 -225h-388l135 1570h686l135 -1570h-387zM437 561h113l-41 647h-31z" glyph-name="Amacron" horiz-adv-x="986" unicode="Ā"/><glyph d="M739 1556v-322h-620v322h620zM430 1143q200 0 298 -62t98 -223v-858h-321l-19 164h-23q-41 -97 -94 -139t-139 -42q-198 0 -198 210v258q0 116 67 180t193 64h167v169q0 46 -29 46q-31 0 -31 -46v-110h-343v104q0 166 89 225.5t285 59.5zM433 246q26 0 26 41v213h-19 q-41 0 -41 -46v-150q0 -58 34 -58z" glyph-name="amacron" horiz-adv-x="860" unicode="ā"/><glyph d="M491.5 1652q-184.5 0 -258.5 43.5t-74 168.5v80h257v-26q0 -26 76 -25q73 0 73 25v26h258v-80q0 -125 -73.5 -168.5t-258 -43.5zM584 0l-14 225h-154l-13 -225h-388l135 1570h686l135 -1570h-387zM437 561h113l-41 647h-31z" glyph-name="Abreve" horiz-adv-x="986" unicode="Ă"/><glyph d="M430 1208q-184 0 -258.5 43.5t-74.5 168.5v80h258v-25q0 -26 75 -26q73 0 73 26v25h258v-80q0 -125 -73.5 -168.5t-257.5 -43.5zM430 1143q200 0 298 -62t98 -223v-858h-321l-19 164h-23q-41 -97 -94 -139t-139 -42q-198 0 -198 210v258q0 116 67 180t193 64h167v169 q0 46 -29 46q-31 0 -31 -46v-110h-343v104q0 166 89 225.5t285 59.5zM433 246q26 0 26 41v213h-19q-41 0 -41 -46v-150q0 -58 34 -58z" glyph-name="abreve" horiz-adv-x="860" unicode="ă"/><glyph d="M841 0q-75 0 -75 -58q0 -60 75 -60h106l-31 -264h-81q-203 0 -311 85t-108 239q0 167 157 235l-3 48h-154l-13 -225h-388l135 1570h686l135 -1570h-130zM437 561h113l-41 647h-31z" glyph-name="Aogonek" horiz-adv-x="986" unicode="Ą"/><glyph d="M826 858v-858h-3v-101h-149q-39 0 -39 -27t39 -27h149l-29 -219h-192q-108 0 -189.5 61.5t-81.5 162.5q0 172 167 211l-12 103h-23q-41 -97 -94 -139t-139 -42q-198 0 -198 210v258q0 116 67 180t193 64h167v169q0 46 -29 46q-31 0 -31 -46v-110h-343v104q0 166 89 225.5 t285 59.5q200 0 298 -62.5t98 -222.5zM433 246q26 0 26 41v213h-19q-41 0 -41 -46v-150q0 -58 34 -58z" glyph-name="aogonek" horiz-adv-x="856" unicode="ą"/><glyph d="M283 1655l94 282h350l-94 -282h-350zM457 -24q-208 0 -319 87t-111 285v869q0 200 111 286t319.5 86t318.5 -86t110 -286v-403h-400v401q0 39 -29 39t-29 -39v-863q0 -41 29 -41t29 41v402h400v-406q0 -198 -111 -285t-318 -87z" glyph-name="Cacute" unicode="Ć"/><glyph d="M249 1212l94 281h350l-94 -281h-350zM812 599h-353v239q0 39 -29 39q-31 0 -31 -39v-550q0 -39 31 -39q29 0 29 39v255h353v-195q0 -96 -24.5 -165.5t-61.5 -107t-92 -60t-100.5 -27.5t-103.5 -5t-105 5t-105 27.5t-96.5 60t-65 107.5t-26.5 165v430q0 96 26.5 166 t65 107.5t96.5 59.5t105 27t105 5t103.5 -5t100.5 -27t92 -59.5t61.5 -107.5t24.5 -166v-179z" glyph-name="cacute" horiz-adv-x="846" unicode="ć"/><glyph d="M457 1671q-70 0 -118.5 46t-48.5 113q0 68 48.5 114t118.5 46q68 0 117 -46t49 -114q0 -67 -49 -113t-117 -46zM457 -24q-208 0 -319 87t-111 285v869q0 200 111 286t319.5 86t318.5 -86t110 -286v-403h-400v401q0 39 -29 39t-29 -39v-863q0 -41 29 -41t29 41v402h400 v-406q0 -198 -111 -285t-318 -87z" glyph-name="Cdotaccent" unicode="Ċ"/><glyph d="M423 1227q-70 0 -118.5 46t-48.5 113q0 68 48.5 114t118.5 46q68 0 117 -46t49 -114q0 -67 -49 -113t-117 -46zM812 599h-353v239q0 39 -29 39q-31 0 -31 -39v-550q0 -39 31 -39q29 0 29 39v255h353v-195q0 -96 -24.5 -165.5t-61.5 -107t-92 -60t-100.5 -27.5t-103.5 -5 t-105 5t-105 27.5t-96.5 60t-65 107.5t-26.5 165v430q0 96 26.5 166t65 107.5t96.5 59.5t105 27t105 5t103.5 -5t100.5 -27t92 -59.5t61.5 -107.5t24.5 -166v-179z" glyph-name="cdotaccent" horiz-adv-x="846" unicode="ċ"/><glyph d="M133 1942h283l26 -90h31l24 90h285l-103 -287h-445zM457 -24q-208 0 -319 87t-111 285v869q0 200 111 286t319.5 86t318.5 -86t110 -286v-403h-400v401q0 39 -29 39t-29 -39v-863q0 -41 29 -41t29 41v402h400v-406q0 -198 -111 -285t-318 -87z" glyph-name="Ccaron" unicode="Č"/><glyph d="M99 1498h283l26 -90h31l24 90h285l-103 -286h-445zM812 599h-353v239q0 39 -29 39q-31 0 -31 -39v-550q0 -39 31 -39q29 0 29 39v255h353v-195q0 -96 -24.5 -165.5t-61.5 -107t-92 -60t-100.5 -27.5t-103.5 -5t-105 5t-105 27.5t-96.5 60t-65 107.5t-26.5 165v430 q0 96 26.5 166t65 107.5t96.5 59.5t105 27t105 5t103.5 -5t100.5 -27t92 -59.5t61.5 -107.5t24.5 -166v-179z" glyph-name="ccaron" horiz-adv-x="846" unicode="č"/><glyph d="M681 1655h-445l-101 287h283l26 -90h30l24 90h285zM543 1570q207 0 275.5 -79.5t68.5 -290.5v-830q0 -212 -69 -291t-275 -79h-516v1570h516zM486 377v816q0 43 -41 43h-17v-901h17q41 -1 41 42z" glyph-name="Dcaron" horiz-adv-x="914" unicode="Ď"/><glyph d="M686 1942h285l-102 -287h-446l-100 287h283l25 -90h31zM463 1143v427h365v-1570h-321l-19 164h-22q-43 -97 -95 -139t-137 -42q-201 0 -202 210v585q0 97 23.5 167t57.5 108t86 59t95.5 26t101.5 5h67zM463 287v580q-17 14 -33 14q-31 0 -31 -58v-519q0 -58 34 -58 q30 0 30 41z" glyph-name="dcaron" horiz-adv-x="855" unicode="ď"/><glyph d="M616 1570q207 0 276 -79.5t69 -290.5v-830q0 -212 -69 -291t-276 -79h-515v606h-50v358h50v606h515zM560 377v816q0 43 -39 43h-19v-272h49v-358h-49v-271h19q39 -1 39 42z" glyph-name="Dcroat" horiz-adv-x="988" unicode="Đ"/><glyph d="M915 1362v-70h-87v-1292h-321l-19 164h-22q-43 -97 -95 -139t-137 -42q-201 0 -202 210v585q0 97 23.5 167t57.5 108t86 59t95.5 26t101.5 5h67v149h-248v70h248v208h365v-208h87zM463 287v580q-17 14 -33 14q-31 0 -31 -58v-519q0 -58 34 -58q30 0 30 41z" glyph-name="dcroat" horiz-adv-x="856" unicode="đ"/><glyph d="M39 2000h620v-322h-620v322zM628 1570v-334h-200v-280h195v-331h-195v-290h200v-335h-601v1570h601z" glyph-name="Emacron" horiz-adv-x="646" unicode="Ē"/><glyph d="M730 1556v-322h-619v322h619zM807 459h-408v-155q0 -67 33 -67q34 0 34 67v99h341v-58q0 -96 -24.5 -165t-59.5 -106.5t-89.5 -59t-99 -26.5t-102.5 -5t-105 5t-105 26.5t-96.5 58t-66 105.5t-27.5 165v439q0 96 26 164.5t63.5 106.5t95.5 59t105.5 26t109.5 5 q58 0 102.5 -5t99 -26t89.5 -59t59.5 -107t24.5 -164v-323zM432 887q-7 0 -11.5 -0.5t-7.5 -2.5t-6 -4.5t-4.5 -6.5t-2.5 -6.5t-1 -9.5v-11.5v-13v-13.5v-135h65v137v16v15.5t-0.5 12t-2.5 10t-5.5 7t-9 5t-14.5 0.5z" glyph-name="emacron" horiz-adv-x="841" unicode="ē"/><glyph d="M350 1671q-70 0 -118.5 46t-48.5 113q0 68 48.5 114t118.5 46q68 0 116.5 -46t48.5 -114q0 -67 -48.5 -113t-116.5 -46zM628 1236h-200v-280h195v-331h-195v-290h200v-335h-601v1570h601v-334z" glyph-name="Edotaccent" horiz-adv-x="646" unicode="Ė"/><glyph d="M422 1227q-70 0 -119 46t-49 113q0 68 49 114t119 46q68 0 116.5 -46t48.5 -114q0 -67 -48.5 -113t-116.5 -46zM807 459h-408v-155q0 -67 33 -67q34 0 34 67v99h341v-58q0 -96 -24.5 -165t-59.5 -106.5t-89.5 -59t-99 -26.5t-102.5 -5t-105 5t-105 26.5t-96.5 58 t-66 105.5t-27.5 165v439q0 96 26 164.5t63.5 106.5t95.5 59t105.5 26t109.5 5q58 0 102.5 -5t99 -26t89.5 -59t59.5 -107t24.5 -164v-323zM432 887q-7 0 -11.5 -0.5t-7.5 -2.5t-6 -4.5t-4.5 -6.5t-2.5 -6.5t-1 -9.5v-11.5v-13v-13.5v-135h65v137v16v15.5t-0.5 12t-2.5 10 t-5.5 7t-9 5t-14.5 0.5z" glyph-name="edotaccent" horiz-adv-x="841" unicode="ė"/><glyph d="M539 0q-75 0 -75 -58q0 -60 75 -60h106l-31 -264h-82q-203 0 -310.5 85t-107.5 239q0 31 5 58h-92v1570h601v-334h-200v-280h195v-331h-195v-290h200v-115h17v-220h-106z" glyph-name="Eogonek" horiz-adv-x="646" unicode="Ę"/><glyph d="M807 459h-408v-155q0 -67 33 -67q34 0 34 67v99h341v-58q0 -287 -216 -345l-77 -31q-67 -26 -67 -70q0 -19 15.5 -36.5t47.5 -17.5h125l-31 -219h-193q-106 0 -187 60.5t-81 158.5q0 96 110 158q-220 63 -221 340v439q0 96 26 164.5t63.5 106.5t95.5 59t105.5 26t109.5 5 q58 0 102.5 -5t99 -26t89.5 -59t59.5 -107t24.5 -164v-323zM432 887q-7 0 -11.5 -0.5t-7.5 -2.5t-6 -4.5t-4.5 -6.5t-2.5 -6.5t-1 -9.5v-11.5v-13v-13.5v-135h65v137v16v15.5t-0.5 12t-2.5 10t-5.5 7t-9 5t-14.5 0.5z" glyph-name="eogonek" horiz-adv-x="841" unicode="ę"/><glyph d="M572 1655h-446l-100 287h283l26 -90h30l24 90h285zM628 1570v-334h-200v-280h195v-331h-195v-290h200v-335h-601v1570h601z" glyph-name="Ecaron" horiz-adv-x="646" unicode="Ě"/><glyph d="M643 1212h-445l-101 286h284l25 -90h31l24 90h285zM807 459h-408v-155q0 -67 33 -67q34 0 34 67v99h341v-58q0 -96 -24.5 -165t-59.5 -106.5t-89.5 -59t-99 -26.5t-102.5 -5t-105 5t-105 26.5t-96.5 58t-66 105.5t-27.5 165v439q0 96 26 164.5t63.5 106.5t95.5 59 t105.5 26t109.5 5q58 0 102.5 -5t99 -26t89.5 -59t59.5 -107t24.5 -164v-323zM432 887q-7 0 -11.5 -0.5t-7.5 -2.5t-6 -4.5t-4.5 -6.5t-2.5 -6.5t-1 -9.5v-11.5v-13v-13.5v-135h65v137v16v15.5t-0.5 12t-2.5 10t-5.5 7t-9 5t-14.5 0.5z" glyph-name="ecaron" horiz-adv-x="841" unicode="ě"/><glyph d="M457.5 1652q-184.5 0 -258.5 43.5t-74 168.5v80h257v-26q0 -26 75 -25q73 0 74 25v26h257v-80q0 -125 -73 -168.5t-257.5 -43.5zM457 -19q-208 0 -319 87t-111 287v860q0 200 111 287t319 87q207 0 318 -87t111 -287v-268h-400v268q0 39 -29 39t-29 -39v-860 q0 -44 43 -44q24 0 33.5 10t9.5 34l1 241h-34v297h405v-538q0 -200 -111 -287t-318 -87z" glyph-name="Gbreve" unicode="Ğ"/><glyph d="M425 1208q-184 0 -258.5 43.5t-74.5 168.5v80h258v-25q0 -26 75 -26q73 0 73 26v25h258v-80q0 -125 -73.5 -168.5t-257.5 -43.5zM396 1143q160 0 432 -25v-1118q-2 -191 -83 -259.5t-279 -68.5q-195 0 -316 12v246h166q94 0 120.5 27.5t26.5 127.5v72q-41 -94 -93.5 -134 t-135.5 -40q-201 0 -202 210v585q0 97 23.5 167t57.5 108t86 59t95.5 26t101.5 5zM463 867q-10 14 -33 14q-31 0 -31 -58v-519q0 -58 34 -58q29 0 30 41v580z" glyph-name="gbreve" horiz-adv-x="861" unicode="ğ"/><glyph d="M457 1671q-70 0 -118.5 46t-48.5 113q0 68 48.5 114t118.5 46q68 0 117 -46t49 -114q0 -67 -49 -113t-117 -46zM457 -19q-208 0 -319 87t-111 287v860q0 200 111 287t319 87q207 0 318 -87t111 -287v-268h-400v268q0 39 -29 39t-29 -39v-860q0 -44 43 -44q24 0 33.5 10 t9.5 34l1 241h-34v297h405v-538q0 -200 -111 -287t-318 -87z" glyph-name="Gdotaccent" unicode="Ġ"/><glyph d="M425 1227q-70 0 -118.5 46t-48.5 113q0 68 48.5 114t118.5 46q68 0 117 -46t49 -114q0 -67 -49 -113t-117 -46zM396 1143q160 0 432 -25v-1118q-2 -191 -83 -259.5t-279 -68.5q-195 0 -316 12v246h166q94 0 120.5 27.5t26.5 127.5v72q-41 -94 -93.5 -134t-135.5 -40 q-201 0 -202 210v585q0 97 23.5 167t57.5 108t86 59t95.5 26t101.5 5zM463 867q-10 14 -33 14q-31 0 -31 -58v-519q0 -58 34 -58q29 0 30 41v580z" glyph-name="gdotaccent" horiz-adv-x="861" unicode="ġ"/><glyph d="M457 -19q-208 0 -319 87t-111 287v860q0 200 111 287t319 87q207 0 318 -87t111 -287v-268h-400v268q0 39 -29 39t-29 -39v-860q0 -44 43 -44q24 0 33.5 10t9.5 34l1 241h-34v297h405v-538q0 -200 -111 -287t-318 -87zM456 -503v139q-12 -12 -26 -11h-143v302h334v-296z " glyph-name="Gcommaaccent" unicode="Ģ"/><glyph d="M654 1550v-338h-374v331l186 152v-159q7 14 27 14h161zM396 1143q160 0 432 -25v-1118q-2 -191 -83 -259.5t-279 -68.5q-195 0 -316 12v246h166q94 0 120.5 27.5t26.5 127.5v72q-41 -94 -93.5 -134t-135.5 -40q-201 0 -202 210v585q0 97 23.5 167t57.5 108t86 59t95.5 26 t101.5 5zM463 867q-10 14 -33 14q-31 0 -31 -58v-519q0 -58 34 -58q29 0 30 41v580z" glyph-name="gcommaaccent" horiz-adv-x="863" unicode="ģ"/><glyph d="M486 1570h400v-1570h-400v594h-58v-594h-401v1570h401v-155h58v155zM428 930h58v162h-58v-162z" glyph-name="Hbar" unicode="Ħ"/><glyph d="M640 1143q82 0 135 -50t53 -161v-932h-365v823q0 58 -33 58q-31 0 -31 -48v-833h-367v1309h-44v104h44v157h367v-157h111v-104h-111v-338q75 172 241 172z" glyph-name="hbar" horiz-adv-x="861" unicode="ħ"/><glyph d="M-80 1678v322h619v-322h-619zM27 0v1570h401v-1570h-401z" glyph-name="Imacron" horiz-adv-x="455" unicode="Ī"/><glyph d="M-75 1234v322h619v-322h-619zM32 0v1126h367v-1126h-367z" glyph-name="imacron" horiz-adv-x="433" unicode="ī"/><glyph d="M27 1570h401v-1570h-105q-75 0 -76 -58q0 -60 76 -60h105l-30 -264h-82q-203 0 -310.5 85t-107.5 239q0 152 129 222v1406z" glyph-name="Iogonek" horiz-adv-x="455" unicode="Į"/><glyph d="M236 1227q-70 0 -119 46t-49 113q0 68 49 114t119 46q68 0 116.5 -46t48.5 -114q0 -67 -48.5 -113t-116.5 -46zM32 49v1077h367v-1227h-148q-39 0 -39 -27t39 -27h148l-30 -219h-190q-108 0 -189.5 61.5t-81.5 162.5q-1 146 124 199z" glyph-name="iogonek" horiz-adv-x="435" unicode="į"/><glyph d="M229 1671q-70 0 -119 46t-49 113q0 68 49 114t119 46q68 0 116.5 -46t48.5 -114q0 -67 -48.5 -113t-116.5 -46zM27 0v1570h401v-1570h-401z" glyph-name="Idotaccent" horiz-adv-x="455" unicode="İ"/><glyph d="M32 0v1126h367v-1126h-367z" glyph-name="dotlessi" horiz-adv-x="433" unicode="ı"/><glyph d="M27 0v1570h401v-1570h-401zM944 -19q-208 0 -319 86.5t-111 285.5v362h401v-360q0 -39 29 -39t29 39v1215h399v-1217q0 -200 -110 -286t-318 -86z" glyph-name="IJ" horiz-adv-x="1399" unicode="Ĳ"/><glyph d="M425 404v-404h-398v1570h398v-531h27l96 531h391l-174 -759l192 -811h-392l-101 567zM326 -375v302h334v-296l-165 -134v139q-12 -12 -26 -11h-143z" glyph-name="Kcommaaccent" horiz-adv-x="957" unicode="Ķ"/><glyph d="M399 336v-336h-367v1570h367v-720h33l75 276h375l-145 -483l185 -643h-371l-106 452h-13zM297 -375v302h334v-296l-165 -134v139q-12 -12 -26 -11h-143z" glyph-name="kcommaaccent" horiz-adv-x="911" unicode="ķ"/><glyph d="M505 1937l-94 -282h-350l94 282h350zM428 335h209v-335h-610v1570h401v-1235z" glyph-name="Lacute" horiz-adv-x="704" unicode="Ĺ"/><glyph d="M43 1655l94 282h349l-93 -282h-350zM32 0v1570h367v-1570h-367z" glyph-name="lacute" horiz-adv-x="433" unicode="ĺ"/><glyph d="M428 335h209v-335h-610v1570h401v-1235zM215 -375v302h335v-296l-166 -134v139q-12 -12 -26 -11h-143z" glyph-name="Lcommaaccent" horiz-adv-x="670" unicode="Ļ"/><glyph d="M32 0v1570h367v-1570h-367zM215 -503v139q-12 -12 -26 -11h-143v302h335v-296z" glyph-name="lcommaaccent" horiz-adv-x="433" unicode="ļ"/><glyph d="M502 1574h375v-332l-186 -151v158q-10 -14 -29 -13h-160v338zM428 1570v-1235h209v-335h-610v1570h401z" glyph-name="Lcaron" horiz-adv-x="974" unicode="Ľ"/><glyph d="M-108 1942h284l25 -90h31l24 90h285l-102 -287h-446zM32 0v1570h367v-1570h-367z" glyph-name="lcaron" horiz-adv-x="433" unicode="ľ"/><glyph d="M428 1570v-1235h209v-335h-610v1570h401zM724 1104q87 0 149 -62t62 -147.5t-62 -147t-149 -61.5t-148.5 61.5t-61.5 147t61.5 147.5t148.5 62z" glyph-name="Ldot" horiz-adv-x="967" unicode="Ŀ"/><glyph d="M684 882l-208 -172v-375h208v-335h-609v379l-75 -62v352l75 61v840h401v-508l208 172v-352z" glyph-name="Lslash" horiz-adv-x="718" unicode="Ł"/><glyph d="M608 1244v-351l-122 -111v-782h-367v445l-129 -117v351l129 118v773h367v-437z" glyph-name="lslash" horiz-adv-x="595" unicode="ł"/><glyph d="M353 1655l94 282h350l-94 -282h-350zM27 0v1570h499l121 -903h24l-12 246v657h368v-1570h-500l-121 903h-22l12 -244v-659h-369z" glyph-name="Nacute" horiz-adv-x="1054" unicode="Ń"/><glyph d="M705 1493l-94 -281h-350l94 281h350zM640 1143q82 0 135 -50t53 -161v-932h-365v823q0 58 -33 58q-31 0 -31 -48v-833h-367v1126h323l22 -163h19q75 180 244 180z" glyph-name="nacute" horiz-adv-x="861" unicode="ń"/><glyph d="M27 0v1570h499l121 -903h24l-12 246v657h368v-1570h-500l-121 903h-22l12 -244v-659h-369zM527 -503v139q-12 -12 -25 -11h-144v302h335v-296z" glyph-name="Ncommaaccent" horiz-adv-x="1054" unicode="Ņ"/><glyph d="M640 1143q82 0 135 -50t53 -161v-932h-365v823q0 58 -33 58q-31 0 -31 -48v-833h-367v1126h323l22 -163h19q75 180 244 180zM265 -375v302h334v-296l-166 -134v139q-12 -12 -25 -11h-143z" glyph-name="ncommaaccent" horiz-adv-x="861" unicode="ņ"/><glyph d="M203 1942h283l26 -90h31l24 90h285l-103 -287h-445zM27 0v1570h499l121 -903h24l-12 246v657h368v-1570h-500l-121 903h-22l12 -244v-659h-369z" glyph-name="Ncaron" horiz-adv-x="1054" unicode="Ň"/><glyph d="M657 1212h-445l-101 286h283l26 -90h31l23 90h285zM640 1143q82 0 135 -50t53 -161v-932h-365v823q0 58 -33 58q-31 0 -31 -48v-833h-367v1126h323l22 -163h19q75 180 244 180z" glyph-name="ncaron" horiz-adv-x="861" unicode="ň"/><glyph d="M1027 147h26v-186q0 -113 -29 -183t-95.5 -106t-149.5 -47.5t-216 -11.5v303q49 0 68 8.5t19 37.5v38h-123l-121 903h-22l12 -244v-659h-369v1570h499l121 -903h24l-12 246v657h368v-1423z" glyph-name="Eng" horiz-adv-x="1080" unicode="Ŋ"/><glyph d="M640 1143q82 0 135 -50t53 -161v-932h-2q-5 -99 -45 -167.5t-104 -101.5t-126.5 -46t-135.5 -13q-111 0 -198 23v230q20 0 57.5 -1t49.5 -1q92 0 115.5 37t23.5 127v736q0 58 -33 58q-31 0 -31 -48v-833h-367v1126h323l22 -163h19q75 180 244 180z" glyph-name="eng" horiz-adv-x="861" unicode="ŋ"/><glyph d="M147 1678v322h619v-322h-619zM457.5 -19q-208.5 0 -319.5 86.5t-111 285.5v864q0 200 111 286t319.5 86t318.5 -86t110 -286v-864q0 -200 -110 -286t-318.5 -86zM457 316q29 0 29 39v860q0 39 -29 39t-29 -39v-860q0 -39 29 -39z" glyph-name="Omacron" unicode="Ō"/><glyph d="M119 1234v322h620v-322h-620zM430 -17q-58 0 -105 5t-105 27.5t-96.5 60t-65 107.5t-26.5 165v430q0 96 26.5 166t65 107.5t96.5 59.5t105 27t105 5q75 0 133 -11t124 -45t102.5 -112.5t36.5 -196.5v-430q0 -118 -36.5 -196.5t-102.5 -112.5t-124 -45t-133 -11zM430 249 q29 0 29 39v550q0 39 -29 39q-31 0 -31 -39v-550q0 -39 31 -39z" glyph-name="omacron" horiz-adv-x="860" unicode="ō"/><glyph d="M38 1666l93 281h350l-94 -281h-349zM503 1666l94 281h350l-94 -281h-350zM457.5 -19q-208.5 0 -319.5 86.5t-111 285.5v864q0 200 111 286t319.5 86t318.5 -86t110 -286v-864q0 -200 -110 -286t-318.5 -86zM457 316q29 0 29 39v860q0 39 -29 39t-29 -39v-860 q0 -39 29 -39z" glyph-name="Ohungarumlaut" unicode="Ő"/><glyph d="M10 1222l94 282h350l-94 -282h-350zM476 1222l94 282h350l-94 -282h-350zM430 -17q-58 0 -105 5t-105 27.5t-96.5 60t-65 107.5t-26.5 165v430q0 96 26.5 166t65 107.5t96.5 59.5t105 27t105 5q75 0 133 -11t124 -45t102.5 -112.5t36.5 -196.5v-430q0 -118 -36.5 -196.5 t-102.5 -112.5t-124 -45t-133 -11zM430 249q29 0 29 39v550q0 39 -29 39q-31 0 -31 -39v-550q0 -39 31 -39z" glyph-name="ohungarumlaut" horiz-adv-x="860" unicode="ő"/><glyph d="M886 1236v-280h194v-331h-194v-290h201v-335h-454q-70 -19 -176 -19q-208 0 -319 86.5t-111 285.5v864q0 200 111 286t319 86q106 0 176 -19h454v-334h-201zM457 316q29 0 29 39v860q0 39 -29 39t-29 -39v-860q0 -39 29 -39z" glyph-name="OE" horiz-adv-x="1105" unicode="Œ"/><glyph d="M1244 459h-408v-155q0 -67 31 -67q36 0 36 67v99h341v-58q0 -96 -24.5 -165t-59.5 -106.5t-90 -59t-100 -26.5t-103 -5q-137 0 -220 36q-82 -36 -217 -36q-58 0 -105 5t-105 27.5t-96.5 60t-65 107.5t-26.5 165v430q0 96 26.5 166t65 107.5t96.5 59.5t105 27t105 5 q133 0 215 -34q82 34 222 34q58 0 103 -5t100 -26t90 -59t59.5 -107t24.5 -164v-323zM867 887q-9 0 -14 -0.5t-8.5 -5t-5 -7t-2.5 -10t-1 -12v-15.5v-18v-135h63v137v16v15.5t-0.5 12t-2.5 10t-5.5 7t-9 5t-14.5 0.5zM459 288v550q0 39 -29 39q-31 0 -31 -39v-550 q0 -39 31 -39q29 0 29 39z" glyph-name="oe" horiz-adv-x="1276" unicode="œ"/><glyph d="M741 1937l-94 -282h-350l94 282h350zM918 0h-353l-94 430h-31h-12v-430h-401v1570h512q207 0 275 -79.5t68 -290.5v-423q0 -157 -90 -243zM428 1237v-525h21q43 0 43 42v441q0 43 -43 42h-21z" glyph-name="Racute" horiz-adv-x="935" unicode="Ŕ"/><glyph d="M613 1493l-94 -281h-350l94 281h350zM560 1143q46 0 75 -20v-387h-79q-89 0 -123 -61.5t-34 -188.5v-486h-367v1126h318l27 -189h16q5 96 47.5 151t119.5 55z" glyph-name="racute" horiz-adv-x="675" unicode="ŕ"/><glyph d="M428 430v-430h-401v1570h512q207 0 275 -79.5t68 -290.5v-423q0 -157 -90 -243l126 -534h-353l-94 430h-31h-12zM449 1237h-21v-525h21q43 0 43 42v441q0 42 -43 42zM300 -375v302h335v-296l-166 -134v139q-12 -12 -25 -11h-144z" glyph-name="Rcommaaccent" horiz-adv-x="935" unicode="Ŗ"/><glyph d="M560 1143q46 0 75 -20v-387h-79q-89 0 -123 -61.5t-34 -188.5v-486h-367v1126h318l27 -189h16q5 96 47.5 151t119.5 55zM48 -375v302h334v-296l-165 -134v139q-12 -12 -26 -11h-143z" glyph-name="rcommaaccent" horiz-adv-x="675" unicode="ŗ"/><glyph d="M693 1655h-446l-100 287h283l26 -90h30l24 90h285zM918 0h-353l-94 430h-31h-12v-430h-401v1570h512q207 0 275 -79.5t68 -290.5v-423q0 -157 -90 -243zM428 1237v-525h21q43 0 43 42v441q0 43 -43 42h-21z" glyph-name="Rcaron" horiz-adv-x="935" unicode="Ř"/><glyph d="M565 1212h-446l-100 286h283l26 -90h30l24 90h285zM393 937q5 96 47.5 151t119.5 55q46 0 75 -20v-387h-79q-89 0 -123 -61.5t-34 -188.5v-486h-367v1126h318l27 -189h16z" glyph-name="rcaron" horiz-adv-x="675" unicode="ř"/><glyph d="M288 1655l94 282h350l-94 -282h-350zM462.5 -19q-204.5 0 -311.5 87t-107 284v227h384v-226q0 -39 31 -39q29 0 29 39v212q0 31 -33 50.5t-82.5 28t-107.5 29t-107.5 50.5t-83 96.5t-33.5 161.5v238q0 196 107.5 283t310.5 87q205 0 311 -87t106 -283v-227h-384v225 q0 41 -29 41q-31 0 -31 -41v-212q0 -31 33 -50.5t83.5 -28t108.5 -29t108.5 -50.5t83.5 -96.5t33 -161.5v-237q0 -196 -107.5 -283.5t-312 -87.5z" glyph-name="Sacute" horiz-adv-x="925" unicode="Ś"/><glyph d="M229 1212l94 281h349l-93 -281h-350zM393 -15q-193 0 -277 67t-84 223v124h333v-129q0 -39 28 -40q29 0 29 40v129q0 20 -40.5 30.5t-97.5 23.5t-114 37.5t-97.5 88.5t-40.5 165v99q0 300 381 300q181 0 268 -69t87 -221v-138h-328v149q0 36 -27 35q-32 0 -32 -35v-139 q0 -27 41 -40t99.5 -24.5t116.5 -35t99 -86.5t41 -164v-90q0 -167 -98 -233.5t-287 -66.5z" glyph-name="sacute" horiz-adv-x="802" unicode="ś"/><glyph d="M432 1005q0 -31 33 -50.5t83.5 -28t108.5 -29t108.5 -50.5t83.5 -96.5t33 -161.5v-237q0 -316 -297 -362l-70 -53v-2q63 -15 109.5 -57t46.5 -113.5t-25.5 -119.5t-74.5 -69t-93.5 -28t-105.5 -7h-68v176h68q24 0 41 12.5t17 34.5q0 46 -51 47h-75v121l70 54 q-329 32 -330 366v227h384v-226q0 -39 31 -39q29 0 29 39v212q0 31 -33 50.5t-82.5 28t-107.5 29t-107.5 50.5t-83 96.5t-33.5 161.5v238q0 196 107.5 283t310.5 87q205 0 311 -87t106 -283v-227h-384v225q0 41 -29 41q-31 0 -31 -41v-212z" glyph-name="Scedilla" horiz-adv-x="925" unicode="Ş"/><glyph d="M381 725q0 -27 41 -40t99.5 -24.5t116.5 -35t99 -86.5t41 -164v-90q0 -249 -246 -290l-76 -58v-2q63 -15 109 -57t46 -113.5t-25.5 -119.5t-74 -69t-93 -28t-106.5 -7h-68v176h68q24 0 41 12.5t17 34.5q0 46 -51 47h-75v121l72 56q-148 12 -216 80.5t-68 206.5v124h333 v-129q0 -39 28 -40q29 0 29 40v129q0 20 -40.5 30.5t-97.5 23.5t-114 37.5t-97.5 88.5t-40.5 165v99q0 300 381 300q181 0 268 -69t87 -221v-138h-328v149q0 36 -27 35q-32 0 -32 -35v-139z" glyph-name="scedilla" horiz-adv-x="802" unicode="ş"/><glyph d="M138 1942h284l25 -90h31l24 90h285l-103 -287h-445zM462.5 -19q-204.5 0 -311.5 87t-107 284v227h384v-226q0 -39 31 -39q29 0 29 39v212q0 31 -33 50.5t-82.5 28t-107.5 29t-107.5 50.5t-83 96.5t-33.5 161.5v238q0 196 107.5 283t310.5 87q205 0 311 -87t106 -283v-227 h-384v225q0 41 -29 41q-31 0 -31 -41v-212q0 -31 33 -50.5t83.5 -28t108.5 -29t108.5 -50.5t83.5 -96.5t33 -161.5v-237q0 -196 -107.5 -283.5t-312 -87.5z" glyph-name="Scaron" horiz-adv-x="925" unicode="Š"/><glyph d="M79 1498h283l25 -90h31l24 90h285l-102 -286h-446zM393 -15q-193 0 -277 67t-84 223v124h333v-129q0 -39 28 -40q29 0 29 40v129q0 20 -40.5 30.5t-97.5 23.5t-114 37.5t-97.5 88.5t-40.5 165v99q0 300 381 300q181 0 268 -69t87 -221v-138h-328v149q0 36 -27 35 q-32 0 -32 -35v-139q0 -27 41 -40t99.5 -24.5t116.5 -35t99 -86.5t41 -164v-90q0 -167 -98 -233.5t-287 -66.5z" glyph-name="scaron" horiz-adv-x="802" unicode="š"/><glyph d="M558 0l-84 -63v-2q63 -15 109.5 -57t46.5 -113.5t-25.5 -119.5t-74.5 -69t-93 -28t-106 -7h-68v176h68q24 0 41 12.5t17 34.5q0 46 -51 47h-75v121l89 68h-130v1236h-203v334h807v-334h-203v-1236h-65z" glyph-name="Tcommaaccent" horiz-adv-x="844" unicode="Ţ"/><glyph d="M645 824h-148v-397q0 -155 105 -156q9 0 36 -3v-246q-61 -29 -116 -36l-65 -49v-2q63 -15 109.5 -57t46.5 -113.5t-26 -119.5t-74.5 -69t-93 -28t-105.5 -7h-68v176h68q24 0 41 12.5t17 34.5q0 46 -51 47h-75v121l85 65q-200 55 -200 351v476h-104v302h104v284h366v-284 h148v-302z" glyph-name="tcommaaccent" horiz-adv-x="665" unicode="ţ"/><glyph d="M643 1655h-445l-101 287h284l25 -90h31l24 90h285zM826 1570v-334h-203v-1236h-401v1236h-203v334h807z" glyph-name="Tcaron" horiz-adv-x="844" unicode="Ť"/><glyph d="M539 1495h-445l-101 287h283l26 -91h31l24 91h285zM645 824h-148v-397q0 -155 105 -156q9 0 36 -3v-246q-80 -39 -181 -39q-65 0 -113.5 11t-101.5 45t-82 112t-29 197v476h-104v302h104v284h366v-284h148v-302z" glyph-name="tcaron" horiz-adv-x="665" unicode="ť"/><glyph d="M826 1236h-203v-219h203v-334h-203v-683h-401v683h-203v334h203v219h-203v334h807v-334z" glyph-name="Tbar" horiz-adv-x="844" unicode="Ŧ"/><glyph d="M645 824h-148v-58h148v-302h-148v-37q0 -155 105 -156q9 0 36 -3v-246q-80 -39 -181 -39q-65 0 -113.5 11t-101.5 45t-82 112t-29 197v116h-104v302h104v58h-104v302h104v284h366v-284h148v-302z" glyph-name="tbar" horiz-adv-x="665" unicode="ŧ"/><glyph d="M147 1678v322h619v-322h-619zM457.5 -19q-208.5 0 -319.5 86.5t-111 285.5v1217h401v-1215q0 -39 29 -39t29 39v1215h400v-1217q0 -200 -110 -286t-318.5 -86z" glyph-name="Umacron" unicode="Ū"/><glyph d="M742 1556v-322h-619v322h619zM463 1126h366v-1126h-322l-22 164h-19q-75 -181 -244 -181q-82 0 -135 50.5t-53 161.5v931h365v-822q0 -58 33 -58q31 0 31 48v832z" glyph-name="umacron" horiz-adv-x="861" unicode="ū"/><glyph d="M457.5 1652q-184.5 0 -258.5 43.5t-74 168.5v80h257v-26q0 -26 75 -25q73 0 74 25v26h257v-80q0 -125 -73 -168.5t-257.5 -43.5zM457.5 -19q-208.5 0 -319.5 86.5t-111 285.5v1217h401v-1215q0 -39 29 -39t29 39v1215h400v-1217q0 -200 -110 -286t-318.5 -86z" glyph-name="Ubreve" unicode="Ŭ"/><glyph d="M431.5 1208q-184.5 0 -258.5 43.5t-74 168.5v80h258v-25q0 -26 75 -26q73 0 73 26v25h258v-80q0 -125 -73.5 -168.5t-258 -43.5zM463 1126h366v-1126h-322l-22 164h-19q-75 -181 -244 -181q-82 0 -135 50.5t-53 161.5v931h365v-822q0 -58 33 -58q31 0 31 48v832z" glyph-name="ubreve" horiz-adv-x="861" unicode="ŭ"/><glyph d="M456 1632q-94 0 -153 59.5t-59 150t58 149.5t153.5 59t154.5 -59t59 -149.5t-59.5 -150t-153.5 -59.5zM456 1809q32 0 32 32.5t-32 32.5q-31 0 -31 -32.5t31 -32.5zM457.5 -19q-208.5 0 -319.5 86.5t-111 285.5v1217h401v-1215q0 -39 29 -39t29 39v1215h400v-1217 q0 -200 -110 -286t-318.5 -86z" glyph-name="Uring" unicode="Ů"/><glyph d="M432 1188q-94 0 -153 59.5t-59 150t58 149.5t153.5 59t154.5 -59t59 -149.5t-59.5 -150t-153.5 -59.5zM432 1430q-31 0 -31 -32.5t31 -32.5q32 0 32 32.5t-32 32.5zM463 1126h366v-1126h-322l-22 164h-19q-75 -181 -244 -181q-82 0 -135 50.5t-53 161.5v931h365v-822 q0 -58 33 -58q31 0 31 48v832z" glyph-name="uring" horiz-adv-x="861" unicode="ů"/><glyph d="M38 1666l93 281h350l-94 -281h-349zM503 1666l94 281h350l-94 -281h-350zM457.5 -19q-208.5 0 -319.5 86.5t-111 285.5v1217h401v-1215q0 -39 29 -39t29 39v1215h400v-1217q0 -200 -110 -286t-318.5 -86z" glyph-name="Uhungarumlaut" unicode="Ű"/><glyph d="M457 1504l-93 -282h-350l94 282h349zM573 1504h350l-94 -282h-349zM463 294v832h366v-1126h-322l-22 164h-19q-75 -181 -244 -181q-82 0 -135 50.5t-53 161.5v931h365v-822q0 -58 33 -58q31 0 31 48z" glyph-name="uhungarumlaut" horiz-adv-x="861" unicode="ű"/><glyph d="M486 1570h400v-1217q0 -331 -333 -367q-29 -12 -29 -47q0 -56 72 -57h109l-31 -264h-82q-200 0 -309 79t-109 204q0 68 34 123q-181 84 -181 329v1217h401v-1215q0 -39 29 -39t29 39v1215z" glyph-name="Uogonek" unicode="Ų"/><glyph d="M829 1126v-1126h-1v-101h-149q-39 0 -39 -27t39 -27h149l-29 -219h-190q-109 0 -191 61.5t-82 162.5q0 169 162 211l-13 103h-19q-75 -181 -244 -181q-82 0 -135 50.5t-53 161.5v931h365v-822q0 -58 33 -58q31 0 31 48v832h366z" glyph-name="uogonek" horiz-adv-x="861" unicode="ų"/><glyph d="M500 1655l101 287h445l103 -287h-285l-24 91h-31l-26 -91h-283zM1234 1570h389l-121 -1570h-615l-54 1137h-17l-57 -1137h-614l-121 1570h389l51 -1138h17l65 1138h555l65 -1138h17z" glyph-name="Wcircumflex" horiz-adv-x="1646" unicode="Ŵ"/><glyph d="M440 1212l101 286h445l103 -286h-285l-24 90h-31l-25 -90h-284zM87 0l-72 1126h354l30 -788h26l38 788h541l37 -788h24l32 788h352l-72 -1126h-595l-36 792h-26l-36 -792h-597z" glyph-name="wcircumflex" horiz-adv-x="1466" unicode="ŵ"/><glyph d="M492 1746l-26 -91h-283l100 287h446l102 -287h-285l-24 91h-30zM606 1570h386l-289 -1121v-449h-394v449l-287 1121h386l87 -580h22z" glyph-name="Ycircumflex" horiz-adv-x="1013" unicode="Ŷ"/><glyph d="M413 1302l-26 -90h-283l101 286h445l103 -286h-285l-24 90h-31zM463 1126h365v-1119q0 -195 -81 -265t-281 -70q-212 0 -333 12v246h183q94 0 120.5 27.5t26.5 127.5v70q-75 -172 -241 -172q-82 0 -136 50.5t-54 161.5v931h367v-822q0 -58 33 -58q31 0 31 48v832z" glyph-name="ycircumflex" horiz-adv-x="861" unicode="ŷ"/><glyph d="M312.5 1671q-66.5 0 -112 45t-45.5 113.5t45.5 114.5t112 46t112.5 -46t46 -114.5t-46 -113.5t-112.5 -45zM699.5 1671q-66.5 0 -111.5 45t-45 113.5t45 114.5t111.5 46t112 -46t45.5 -114.5t-45.5 -113.5t-112 -45zM606 1570h386l-289 -1121v-449h-394v449l-287 1121 h386l87 -580h22z" glyph-name="Ydieresis" horiz-adv-x="1013" unicode="Ÿ"/><glyph d="M218 1655l94 282h350l-94 -282h-350zM32 0v335l321 875v26h-307v334h691v-334l-334 -876v-25h326v-335h-697z" glyph-name="Zacute" horiz-adv-x="769" unicode="Ź"/><glyph d="M164 1212l94 281h350l-94 -281h-350zM36 0v305l249 490v26h-236v305h588v-305l-263 -490v-26h254v-305h-592z" glyph-name="zacute" horiz-adv-x="663" unicode="ź"/><glyph d="M393 1671q-70 0 -119 46t-49 113q0 68 49 114t119 46q68 0 116.5 -46t48.5 -114q0 -67 -48.5 -113t-116.5 -46zM32 0v335l321 875v26h-307v334h691v-334l-334 -876v-25h326v-335h-697z" glyph-name="Zdotaccent" horiz-adv-x="769" unicode="Ż"/><glyph d="M338 1227q-70 0 -118.5 46t-48.5 113q0 68 48.5 114t118.5 46q68 0 116.5 -46t48.5 -114q0 -67 -48.5 -113t-116.5 -46zM36 0v305l249 490v26h-236v305h588v-305l-263 -490v-26h254v-305h-592z" glyph-name="zdotaccent" horiz-adv-x="663" unicode="ż"/><glyph d="M68 1942h284l25 -90h31l24 90h285l-103 -287h-445zM32 0v335l321 875v26h-307v334h691v-334l-334 -876v-25h326v-335h-697z" glyph-name="Zcaron" horiz-adv-x="769" unicode="Ž"/><glyph d="M14 1498h283l26 -90h30l24 90h285l-102 -286h-446zM36 0v305l249 490v26h-236v305h588v-305l-263 -490v-26h254v-305h-592z" glyph-name="zcaron" horiz-adv-x="663" unicode="ž"/><glyph d="M1359 990h-400v218q0 39 -29 39.5t-29 -39.5v-268h224v-310h-224v-275q0 -198 -111 -285t-319 -87t-319 87t-111 285v224h401v-221q0 -41 29 -41t29 41v272h-222v310h222v270q0 200 111 286t319 86t318.5 -86t110.5 -286v-220z" glyph-name="florin" horiz-adv-x="1401" unicode="ƒ"/><glyph d="M713 1655h-445l-101 287h284l25 -90h31l24 90h285zM584 0l-14 225h-154l-13 -225h-388l135 1570h686l135 -1570h-387zM437 561h113l-41 647h-31z" glyph-name="uni01CD" horiz-adv-x="986" unicode="Ǎ"/><glyph d="M652 1212h-445l-101 286h283l26 -90h30l24 90h285zM430 1143q200 0 298 -62t98 -223v-858h-321l-19 164h-23q-41 -97 -94 -139t-139 -42q-198 0 -198 210v258q0 116 67 180t193 64h167v169q0 46 -29 46q-31 0 -31 -46v-110h-343v104q0 166 89 225.5t285 59.5zM433 246 q26 0 26 41v213h-19q-41 0 -41 -46v-150q0 -58 34 -58z" glyph-name="uni01CE" horiz-adv-x="860" unicode="ǎ"/><glyph d="M-96 1942h284l25 -90h31l24 90h285l-102 -287h-446zM27 0v1570h401v-1570h-401z" glyph-name="uni01CF" horiz-adv-x="455" unicode="Ǐ"/><glyph d="M133 1942h283l26 -90h31l24 90h285l-103 -287h-445zM457.5 -19q-208.5 0 -319.5 86.5t-111 285.5v864q0 200 111 286t319.5 86t318.5 -86t110 -286v-864q0 -200 -110 -286t-318.5 -86zM457 316q29 0 29 39v860q0 39 -29 39t-29 -39v-860q0 -39 29 -39z" glyph-name="uni01D1" unicode="Ǒ"/><glyph d="M106 1498h283l26 -90h30l24 90h285l-102 -286h-445zM430 -17q-58 0 -105 5t-105 27.5t-96.5 60t-65 107.5t-26.5 165v430q0 96 26.5 166t65 107.5t96.5 59.5t105 27t105 5q75 0 133 -11t124 -45t102.5 -112.5t36.5 -196.5v-430q0 -118 -36.5 -196.5t-102.5 -112.5 t-124 -45t-133 -11zM430 249q29 0 29 39v550q0 39 -29 39q-31 0 -31 -39v-550q0 -39 31 -39z" glyph-name="uni01D2" horiz-adv-x="860" unicode="ǒ"/><glyph d="M133 1942h283l26 -90h31l24 90h285l-103 -287h-445zM457.5 -19q-208.5 0 -319.5 86.5t-111 285.5v1217h401v-1215q0 -39 29 -39t29 39v1215h400v-1217q0 -200 -110 -286t-318.5 -86z" glyph-name="uni01D3" unicode="Ǔ"/><glyph d="M654 1212h-446l-100 286h283l25 -90h31l24 90h285zM463 1126h366v-1126h-322l-22 164h-19q-75 -181 -244 -181q-82 0 -135 50.5t-53 161.5v931h365v-822q0 -58 33 -58q31 0 31 48v832z" glyph-name="uni01D4" horiz-adv-x="861" unicode="ǔ"/><glyph d="M457.5 1589q208.5 0 318.5 -86t110 -286v-864q0 -305 -282 -360v-5q-68 -5 -68 -53q0 -53 72 -53h109l-31 -264h-82q-198 0 -308 79t-110 201q0 70 39 119q-198 79 -198 336v864q0 200 111 286t319.5 86zM428 1215v-860q0 -39 29 -39t29 39v860q0 39 -29 39t-29 -39z" glyph-name="uni01EA" unicode="Ǫ"/><glyph d="M462.5 -19q-204.5 0 -311.5 87t-107 284v227h384v-226q0 -39 31 -39q29 0 29 39v212q0 31 -33 50.5t-82.5 28t-107.5 29t-107.5 50.5t-83 96.5t-33.5 161.5v238q0 196 107.5 283t310.5 87q205 0 311 -87t106 -283v-227h-384v225q0 41 -29 41q-31 0 -31 -41v-212 q0 -31 33 -50.5t83.5 -28t108.5 -29t108.5 -50.5t83.5 -96.5t33 -161.5v-237q0 -196 -107.5 -283.5t-312 -87.5zM461 -503v139q-12 -12 -26 -11h-143v302h334v-296z" glyph-name="Scommaaccent" horiz-adv-x="925" unicode="Ș"/><glyph d="M393 -15q-193 0 -277 67t-84 223v124h333v-129q0 -39 28 -40q29 0 29 40v129q0 20 -40.5 30.5t-97.5 23.5t-114 37.5t-97.5 88.5t-40.5 165v99q0 300 381 300q181 0 268 -69t87 -221v-138h-328v149q0 36 -27 35q-32 0 -32 -35v-139q0 -27 41 -40t99.5 -24.5t116.5 -35 t99 -86.5t41 -164v-90q0 -167 -98 -233.5t-287 -66.5zM403 -503v139q-12 -12 -26 -11h-143v302h334v-296z" glyph-name="scommaaccent" horiz-adv-x="802" unicode="ș"/><glyph d="M826 1570v-334h-203v-1236h-401v1236h-203v334h807zM253 -375v302h334v-296l-165 -134v139q-12 -12 -26 -11h-143z" glyph-name="uni021A" horiz-adv-x="844" unicode="Ț"/><glyph d="M645 824h-148v-397q0 -155 105 -156q9 0 36 -3v-246q-80 -39 -181 -39q-65 0 -113.5 11t-101.5 45t-82 112t-29 197v476h-104v302h104v284h366v-284h148v-302zM234 -375v302h334v-296l-165 -134v139q-12 -12 -26 -11h-143z" glyph-name="uni021B" horiz-adv-x="665" unicode="ț"/><glyph d="M0 1161l101 286h445l103 -286h-285l-24 90h-31l-26 -90h-283z" glyph-name="circumflex" horiz-adv-x="648" unicode="ˆ"/><glyph d="M0 1447h283l26 -90h31l24 90h285l-103 -286h-445z" glyph-name="caron" horiz-adv-x="648" unicode="ˇ"/><glyph d="M332.5 1157q-184.5 0 -258.5 43.5t-74 168.5v80h258v-26q0 -26 75 -25q73 0 73 25v26h258v-80q0 -125 -73.5 -168.5t-258 -43.5z" glyph-name="breve" horiz-adv-x="663" unicode="˘"/><glyph d="M167 1176q-70 0 -118.5 46t-48.5 113q0 68 48.5 114t118.5 46q68 0 117 -46t49 -114q0 -67 -49 -113t-117 -46z" glyph-name="dotaccent" horiz-adv-x="332" unicode="˙"/><glyph d="M211.5 1137q-93.5 0 -152.5 59.5t-59 150t58 149.5t153.5 59t154.5 -59t59 -149.5t-60 -150t-153.5 -59.5zM212 1314q32 0 32 32.5t-32 32.5q-31 0 -31 -32.5t31 -32.5z" glyph-name="ring" horiz-adv-x="424" unicode="˚"/><glyph d="M531 0h-106q-75 0 -75 -58q0 -60 75 -60h106l-31 -264h-82q-203 0 -310.5 85t-107.5 239q0 278 418 278h113v-220z" glyph-name="ogonek" horiz-adv-x="530" unicode="˛"/><glyph d="M539 1143q-60 0 -105 17.5t-67 38.5t-51 38t-60 17q-39 0 -64 -17.5t-26 -50.5h-166q-3 137 60 205t182 68q75 0 125.5 -28t84.5 -55.5t72 -27.5q39 0 64 18t26 51h166q3 -138 -60 -206t-181 -68z" glyph-name="tilde" horiz-adv-x="779" unicode="˜"/><glyph d="M0 1161l94 281h350l-94 -281h-350zM466 1161l94 281h350l-94 -281h-350z" glyph-name="hungarumlaut" horiz-adv-x="909" unicode="˝"/><glyph d="M-203 -503v139q-12 -12 -26 -11h-143v302h334v-296z" glyph-name="uni0326" horiz-adv-x="0" unicode="̦"/><glyph d="M836 1570l135 -1570h-956l135 1570h686zM425 358h136l-52 850h-31z" glyph-name="Delta" horiz-adv-x="981" unicode="Δ"/><glyph d="M1060 358h165v-358h-568v1195q0 46 -36 46q-34 0 -34 -46v-1195h-568v358h165v840q0 217 109.5 305t327.5 88q220 0 329.5 -88t109.5 -305v-840z" glyph-name="Omega" horiz-adv-x="1244" unicode="Ω"/><glyph d="M486 1570h400v-1217q0 -200 -110 -286t-319 -86h-15v-237h-403v492q-12 49 -12 117v1217h415v-1251q10 -3 15 -3q29 0 29 39v1215z" glyph-name="mu" unicode="μ"/><glyph d="M1362 1212h-183v-755q0 -121 144 -121l-63 -351q-244 0 -363.5 91t-119.5 310v826h-164v-1212h-403v1212h-183v358h1335v-358z" glyph-name="pi" horiz-adv-x="1385" unicode="π"/><glyph d="M1002 1655h-350l-94 282h350zM1234 1570h389l-121 -1570h-615l-54 1137h-17l-57 -1137h-614l-121 1570h389l51 -1138h17l65 1138h555l65 -1138h17z" glyph-name="Wgrave" horiz-adv-x="1646" unicode="Ẁ"/><glyph d="M944 1212h-350l-94 281h350zM87 0l-72 1126h354l30 -788h26l38 788h541l37 -788h24l32 788h352l-72 -1126h-595l-36 792h-26l-36 -792h-597z" glyph-name="wgrave" horiz-adv-x="1466" unicode="ẁ"/><glyph d="M650 1655l94 282h350l-94 -282h-350zM1234 1570h389l-121 -1570h-615l-54 1137h-17l-57 -1137h-614l-121 1570h389l51 -1138h17l65 1138h555l65 -1138h17z" glyph-name="Wacute" horiz-adv-x="1646" unicode="Ẃ"/><glyph d="M591 1212l93 281h350l-94 -281h-349zM87 0l-72 1126h354l30 -788h26l38 788h541l37 -788h24l32 788h352l-72 -1126h-595l-36 792h-26l-36 -792h-597z" glyph-name="wacute" horiz-adv-x="1466" unicode="ẃ"/><glyph d="M629.5 1671q-66.5 0 -111.5 45t-45 113.5t45 114.5t111.5 46t112.5 -46t46 -114.5t-46 -113.5t-112.5 -45zM1017.5 1671q-66.5 0 -112 45t-45.5 113.5t45.5 114.5t112 46t111.5 -46t45 -114.5t-45 -113.5t-111.5 -45zM1234 1570h389l-121 -1570h-615l-54 1137h-17 l-57 -1137h-614l-121 1570h389l51 -1138h17l65 1138h555l65 -1138h17z" glyph-name="Wdieresis" horiz-adv-x="1646" unicode="Ẅ"/><glyph d="M570 1227q-67 0 -112 45.5t-45 113.5t45 114t112 46t113 -46t46 -114t-46 -113.5t-113 -45.5zM957.5 1227q-66.5 0 -112 45.5t-45.5 113.5t45.5 114t112 46t111.5 -46t45 -114t-45 -113.5t-111.5 -45.5zM87 0l-72 1126h354l30 -788h26l38 788h541l37 -788h24l32 788h352 l-72 -1126h-595l-36 792h-26l-36 -792h-597z" glyph-name="wdieresis" horiz-adv-x="1466" unicode="ẅ"/><glyph d="M775 922q121 -79 121 -282v-270q0 -212 -67.5 -291t-272.5 -79h-104v311h4q39 0 39 68v223q0 19 -1.5 29.5t-11 19t-26.5 8.5h-4v312l51 289h-75v-1260h-401v1570h881z" glyph-name="uni1E9E" horiz-adv-x="923" unicode="ẞ"/><glyph d="M686 1655h-350l-94 282h350zM606 1570h386l-289 -1121v-449h-394v449l-287 1121h386l87 -580h22z" glyph-name="Ygrave" horiz-adv-x="1013" unicode="Ỳ"/><glyph d="M606 1212h-350l-94 281h350zM463 1126h365v-1119q0 -195 -81 -265t-281 -70q-212 0 -333 12v246h183q94 0 120.5 27.5t26.5 127.5v70q-75 -172 -241 -172q-82 0 -136 50.5t-54 161.5v931h367v-822q0 -58 33 -58q31 0 31 48v832z" glyph-name="ygrave" horiz-adv-x="861" unicode="ỳ"/><glyph d="M27 572v358h1262v-358h-1262z" glyph-name="endash" horiz-adv-x="1315" unicode="–"/><glyph d="M27 572v358h1400v-358h-1400z" glyph-name="emdash" horiz-adv-x="1454" unicode="—"/><glyph d="M237 1582v-218q7 12 28 12h160v-333h-374v326z" glyph-name="quoteleft" horiz-adv-x="476" unicode="‘"/><glyph d="M239 1031v218q-9 -14 -29 -13h-159v334h374v-328z" glyph-name="quoteright" horiz-adv-x="476" unicode="’"/><glyph d="M239 -145v159q-9 -14 -29 -14h-159v338h374v-331z" glyph-name="quotesinglbase" horiz-adv-x="476" unicode="‚"/><glyph d="M237 1582v-218q7 12 28 12h160v-333h-374v326zM710 1582v-218q10 12 29 12h160v-333h-375v326z" glyph-name="quotedblleft" horiz-adv-x="948" unicode="“"/><glyph d="M239 1031v218q-9 -14 -29 -13h-159v334h374v-328zM713 1031v218q-10 -14 -29 -13h-160v334h375v-328z" glyph-name="quotedblright" horiz-adv-x="948" unicode="”"/><glyph d="M239 -200v219q-7 -12 -29 -12h-159v333h374v-326zM713 -200v219q-10 -12 -29 -12h-160v333h375v-326z" glyph-name="quotedblbase" horiz-adv-x="948" unicode="„"/><glyph d="M1157 1365v-380h-343v-343h-403v343h-343v380h343v343h403v-343h343z" glyph-name="dagger" horiz-adv-x="1225" unicode="†"/><glyph d="M814 580h343v-380h-343v-343h-403v343h-343v380h343v405h-343v380h343v343h403v-343h343v-380h-343v-405z" glyph-name="daggerdbl" horiz-adv-x="1225" unicode="‡"/><glyph d="M454 451q-138 0 -236.5 98t-98.5 236t98.5 236.5t236.5 98.5q137 0 235 -98.5t98 -236.5t-98 -236t-235 -98z" glyph-name="bullet" horiz-adv-x="906" unicode="•"/><glyph d="M256 -34q-87 0 -149.5 61.5t-62.5 146.5t62.5 146.5t149.5 61.5t148.5 -61.5t61.5 -146.5t-61.5 -146.5t-148.5 -61.5zM773 -34q-87 0 -148.5 61.5t-61.5 146.5t61.5 146.5t148.5 61.5t148.5 -61.5t61.5 -146.5t-61.5 -146.5t-148.5 -61.5zM1290 -34q-87 0 -148.5 61.5 t-61.5 146.5t61.5 146.5t148.5 61.5t148.5 -61.5t61.5 -146.5t-61.5 -146.5t-148.5 -61.5z" glyph-name="ellipsis" horiz-adv-x="1546" unicode="…"/><glyph d="M428.5 1592q196.5 0 299.5 -90.5t103 -301.5v-251q0 -212 -103 -302.5t-299.5 -90.5t-299 90t-102.5 303v251q0 212 102.5 302t299 90zM515 0l726 1570h379l-726 -1570h-379zM457 1215q0 43 -29 43t-29 -43v-283q0 -43 29 -43t29 43v283zM1706.5 -22 q-196.5 0 -299.5 90.5t-103 301.5v251q0 212 103 302.5t299.5 90.5t299 -89.5t102.5 -303.5v-251q0 -212 -102.5 -302t-299 -90zM2596 -22q-196 0 -299.5 90.5t-103.5 301.5v251q0 212 103.5 302.5t299.5 90.5t298.5 -89.5t102.5 -303.5v-251q0 -212 -102.5 -302t-298.5 -90 zM1678 355q0 -43 29 -43t29 43v283q0 43 -29 43t-29 -43v-283zM2567 355q0 -43 29 -43t29 43v283q0 43 -29 43t-29 -43v-283z" glyph-name="perthousand" horiz-adv-x="3024" unicode="‰"/><glyph d="M807 227h-403l-331 490l331 490h403l-331 -490z" glyph-name="guilsinglleft" horiz-adv-x="880" unicode="‹"/><glyph d="M73 227l331 490l-331 490h403l331 -490l-331 -490h-403z" glyph-name="guilsinglright" horiz-adv-x="880" unicode="›"/><glyph d="M978 814h-401v401q0 39 -29 39t-29 -39v-863q0 -41 29 -41t29 41v402h401v-406q0 -198 -111 -285t-319 -87t-319 87t-111 285v304h-91v109h91v43h-91v111h91v302q0 200 111 286t319 86t319 -86t111 -286v-403z" glyph-name="Euro" horiz-adv-x="1005" unicode="€"/><glyph d="M1468 1582q193 0 284 -87t91 -287v-332q0 -201 -90.5 -287t-285 -86t-285 86.5t-90.5 286.5v332q0 201 90.5 287.5t285.5 86.5zM27 0v1570h514l92 -903h22l-12 246v657h376v-1570h-490l-114 903h-24l12 -244v-659h-376zM1493 1208q0 39 -25.5 39.5t-25.5 -39.5v-319 q0 -41 26 -41q15 0 20 8.5t5 32.5v319zM1092 0v358h751v-358h-751z" glyph-name="afii61352" horiz-adv-x="1870" unicode="№"/><glyph d="M213 1570v-72h-56v-274h-80v274h-58v72h194zM428 1570h135v-346h-75v269h-10l-24 -269h-97l-24 269h-10v-269h-76v346h137l17 -275h10z" glyph-name="trademark" horiz-adv-x="583" unicode="™"/><glyph d="M452 -15q-210 0 -317.5 86t-107.5 284v321q0 99 26.5 169t73.5 105.5t99 51t115 15.5q22 0 40 -1.5t28.5 -4t24 -8.5t17 -8t15.5 -9.5t14 -9.5l3 253q0 41 -29 41q-27 0 -27 -41v-162h-389v167q0 198 104 284t312 86q210 0 318.5 -86t108.5 -284v-879q0 -196 -109.5 -283 t-319.5 -87zM454 319q29 0 29 39v279q0 41 -29 41t-29 -41v-279q0 -39 29 -39z" glyph-name="partialdiff" horiz-adv-x="907" unicode="∂"/><glyph d="M901 1570v-1570h-403v1212h-68v-1212h-403v1570h874z" glyph-name="product" horiz-adv-x="928" unicode="∏"/><glyph d="M27 0v358l287 412l-287 442v358h731v-358h-313l270 -415v-55l-270 -384h313v-358h-731z" glyph-name="summation" horiz-adv-x="776" unicode="∑"/><glyph d="M27 594v382h1053v-382h-1053z" glyph-name="minus" horiz-adv-x="1107" unicode="−"/><glyph d="M654 1570h385l-145 -1570h-677l-55 589h-147v356h485l39 -583h31z" glyph-name="radical" horiz-adv-x="1056" unicode="√"/><glyph d="M1046 1097q160 0 242 -106.5t82 -271.5q0 -171 -81.5 -277t-242.5 -106q-104 0 -181 53t-150 152q-73 -99 -149 -152t-179 -53q-162 0 -244.5 106t-82.5 277q0 167 82.5 272.5t244.5 105.5q101 0 178 -53.5t150 -150.5q75 97 151 150.5t180 53.5zM427 585q27 0 54.5 19 t45 38.5t65.5 76.5q-48 56 -65 74.5t-45 37.5t-55 19q-58 0 -84 -37.5t-26 -93.5q1 -134 110 -134zM1004 585q109 0 109 134q0 56 -25.5 93.5t-83.5 37.5q-27 0 -55.5 -19t-45.5 -37.5t-65 -74.5q48 -56 66 -76t45.5 -39t54.5 -19z" glyph-name="infinity" horiz-adv-x="1430" unicode="∞"/><glyph d="M930 1582q208 0 318.5 -86t110.5 -286v-220h-400v218q0 39 -29 39.5t-29 -39.5v-853q0 -198 -111 -285t-319 -87t-319 87t-111 285v224h401v-221q0 -41 29 -41t29 41v852q0 200 111 286t319 86z" glyph-name="integral" horiz-adv-x="1401" unicode="∫"/><glyph d="M580 758q-58 0 -103 18t-67.5 38.5t-52 38t-60.5 17.5q-38 0 -63.5 -18.5t-26.5 -51.5h-166q-5 273 242 273q75 0 125.5 -28t85.5 -55t72.5 -27t63 17.5t27.5 50.5h166q2 -138 -61.5 -205.5t-181.5 -67.5zM580 352q-58 0 -103 17.5t-67.5 38t-52 38.5t-60.5 18 q-38 0 -63.5 -18.5t-26.5 -51.5h-166q-5 275 242 275q58 0 103.5 -18t67.5 -38.5t52 -38.5t61 -18q38 0 63 19t27 51h166q4 -274 -243 -274z" glyph-name="approxequal" horiz-adv-x="863" unicode="≈"/><glyph d="M1103 848h-326l-11 -124h337v-383h-373l-32 -341h-367l27 341h-309v383h342l10 124h-352v383h383l27 339h386l-33 -339h291v-383z" glyph-name="notequal" horiz-adv-x="1153" unicode="≠"/><glyph d="M517 432l-483 387v446l483 389v-400l-230 -198v-29l230 -198v-397zM38 27v381h428v-381h-428z" glyph-name="lessequal" horiz-adv-x="544" unicode="≤"/><glyph d="M27 432v397l231 198v29l-231 198v400l483 -389v-446zM507 27h-428v381h428v-381z" glyph-name="greaterequal" horiz-adv-x="544" unicode="≥"/><glyph d="M148 0l-121 785l121 785h678l119 -785l-119 -785h-678zM473 362h29l61 423l-61 423h-29l-63 -423z" glyph-name="lozenge" horiz-adv-x="972" unicode="◊"/><glyph d="M886 1002h-400v210q0 39 -29 39t-29 -39v-854q0 -39 29 -39t29 39v587h400v-945h-138l-65 254q-14 -147 -80.5 -208t-201.5 -61q-169 0 -271.5 87.5t-102.5 284.5v856q0 200 111 286t319.5 86t318.5 -86t110 -286v-211zM705 435h-17v-3z" glyph-name="G.aalt"/><glyph d="M236 1227q-70 0 -119 46t-49 113q0 68 49 114t119 46q68 0 116.5 -46t48.5 -114q0 -67 -48.5 -113t-116.5 -46zM32 0v1126h367v-1126h-367z" glyph-name="i.aalt" horiz-adv-x="433"/><glyph d="M396 1143q160 0 432 -25v-1118h-321l-19 164h-22q-43 -97 -95 -139t-137 -42q-201 0 -202 210v585q0 97 23.5 167t57.5 108t86 59t95.5 26t101.5 5zM463 287v580q-10 14 -33 14q-31 0 -31 -58v-519q0 -58 34 -58q30 0 30 41z" glyph-name="a.salt" horiz-adv-x="861"/><glyph d="M32 1193v377h367v-377h-367zM32 -256v1382h367v-1382h-367z" glyph-name="j.aalt" horiz-adv-x="433"/><glyph d="M647 1143q82 0 135.5 -49.5t53.5 -159.5v-347h-367v236q0 58 -37 58q-32 0 -33 -41v-840h-367v1126h345l22 -163h21q77 180 227 180z" glyph-name="r.aalt" horiz-adv-x="868"/><glyph d="M1205 1126v-302h-154v-397q0 -155 104 -156q9 0 36 -3v-246q-80 -39 -181 -39q-65 0 -113.5 11t-101.5 45t-82 112t-29 197v476h-215v-824h-367v824h-95v302h95v108q0 85 24 150t60 102.5t86.5 61.5t96.5 31.5t97 7.5q68 0 138 -22v-278q-19 2 -41 2q-53 0 -73.5 -33.5 t-20.5 -105.5v-24h215v284h367v-284h154z" glyph-name="f_t.dlig" horiz-adv-x="1220"/><glyph d="M51 -355l77 690h335l-77 -690h-335z" glyph-name="comma.aalt" horiz-adv-x="512"/><glyph d="M51 -355l77 690h335l-77 -690h-335z" glyph-name="quotesinglbase.aalt" horiz-adv-x="512"/><glyph d="M51 -355l77 690h335l-77 -690h-335zM442 -355l77 690h334l-76 -690h-335z" glyph-name="quotedblbase.aalt" horiz-adv-x="902"/><glyph d="M471 1570l-85 -776h-335l87 776h333zM864 1570l-87 -776h-335l87 776h335z" glyph-name="quotedblleft.aalt"/><glyph d="M51 794l87 776h333l-85 -776h-335zM442 794l87 776h335l-87 -776h-335z" glyph-name="quotedblright.aalt"/><glyph d="M471 1570l-85 -776h-335l87 776h333z" glyph-name="quoteleft.aalt" horiz-adv-x="522"/><glyph d="M51 794l87 776h333l-85 -776h-335z" glyph-name="quoteright.aalt" horiz-adv-x="522"/><glyph glyph-name="glyph369" horiz-adv-x="1024"/><glyph glyph-name="glyph370" horiz-adv-x="1024"/></font>
</defs>
</svg>
