<?xml version="1.0" standalone="no"?>
<!DOCTYPE svg PUBLIC "-//W3C//DTD SVG 1.1//EN" "http://www.w3.org/Graphics/SVG/1.1/DTD/svg11.dtd">
<svg xmlns="http://www.w3.org/2000/svg"><metadata>This SVG WebFont was generated by YouWorkForThem.
Copyright Â© 2020 by Connary Fagen. All rights reserved.</metadata><defs><font horiz-adv-x="1259" id="ywftsvg"><font-face ascent="1638" bbox="-126 -701 4921 2247" cap-height="1336" descent="-410" font-family="" font-stretch="normal" font-weight="700" panose-1="0 0 0 0 0 0 0 0 0 0" underline-position="0" underline-thickness="0" unicode-range="U+0020-FFFD" units-per-em="2048" x-height="1014"/><missing-glyph d="M831 1638v-2027h-643v2027h643zM339 -249h336v67h-207l142 95h65v67h-336v-67h141l-141 -95v-67zM339 27h336v229h-336v-229zM339 377h336v229h-203v-113h70v47h66v-96h-202v162h-67v-229zM339 651h336v203h-67v-134h-269v-69zM339 767h203v141h133v68h-336v-68h133v-74 h-133v-67zM339 1030h336v69h-133v142h-203v-211zM339 1293h336v68h-133v75h133v66h-334v-66h131v-75h-133v-68zM406 93v95h202v-95h-202zM406 1099v73h66v-73h-66z" horiz-adv-x="1013"/><glyph d="M2988 94l-114 133l410 350h-3120l26 191h3121l-311 349l151 134l496 -578z" glyph-name="hyphen_hyphen_greater.liga" horiz-adv-x="3778" unicode="-->"/><glyph d="M1729 94l-114 133l409 350h-1860l26 191h1861l-310 349l150 134l497 -578z" glyph-name="hyphen_greater.liga" horiz-adv-x="2519" unicode="->"/><glyph d="M2335 112l-114 133l411 349h-2467l28 191h2465l-311 350l151 134l497 -579zM2876 245l524 445l-399 445l152 134l498 -579l-661 -578z" glyph-name="hyphen_greater_greater.liga" horiz-adv-x="3778" unicode="->>"/><glyph d="M2988 94l-114 133l410 350h-3120l26 191h3121l-311 349l151 134l496 -578z" glyph-name="endash_endash_greater.liga" horiz-adv-x="3778" unicode="––>"/><glyph d="M1729 94l-114 133l409 350h-1860l26 191h1861l-310 349l150 134l497 -578z" glyph-name="endash_greater.liga" horiz-adv-x="2519" unicode="–>"/><glyph d="M2335 112l-114 133l411 349h-2467l28 191h2465l-311 350l151 134l497 -579zM2876 245l524 445l-399 445l152 134l498 -579l-661 -578z" glyph-name="endash_greater_greater.liga" horiz-adv-x="3778" unicode="–>>"/><glyph d="M488 -223q-111 0 -95 109l221 1572q15 111 126 111h940q80 0 68 -79l-10 -67q-10 -79 -90 -78h-740q-48 0 -56 -51l-174 -1244q-8 -49 42 -49h740q80 0 68 -79l-10 -66q-10 -79 -90 -79h-940zM1687 -154l232 1652q5 34 25.5 52.5t54.5 18.5h119q69 0 60 -71l-232 -1652 q-9 -70 -80 -69h-119q-69 -1 -60 69z" glyph-name="bracketleft_bar.liga" horiz-adv-x="2519" unicode="[|"/><glyph d="M1416 545q-58 0 -87 28t-21 78q14 105 122 106h748q59 0 88 -28t22 -78q-17 -106 -124 -106h-748zM451 682q0 97 67.5 165t164.5 68t165 -68t68 -165t-68 -164.5t-165 -67.5t-164.5 67.5t-67.5 164.5z" glyph-name="period_hyphen.liga" horiz-adv-x="2519" unicode=".-"/><glyph d="M1416 545q-58 0 -87 28t-21 78q14 105 122 106h748q59 0 88 -28t22 -78q-17 -106 -124 -106h-748zM451 682q0 97 67.5 165t164.5 68t165 -68t68 -165t-68 -164.5t-165 -67.5t-164.5 67.5t-67.5 164.5z" glyph-name="period_endash.liga" horiz-adv-x="2519" unicode=".–"/><glyph d="M684 450q-97 0 -164.5 67.5t-67.5 164.5t67.5 165t164.5 68t165.5 -68t68.5 -165t-68.5 -164.5t-165.5 -67.5zM1266 413l7 55q9 69 80 69h870q70 0 61 -69l-8 -55q-9 -70 -81 -70h-869q-69 0 -60 70zM1331 877l7 55q9 69 80 68h871q70 0 60 -68l-7 -55q-9 -70 -81 -70 h-869q-70 0 -61 70z" glyph-name="period_equal.liga" horiz-adv-x="2519" unicode=".="/><glyph d="M392 122q-69 52 5 135l151 166q52 59 108 16l32 -24q55 -42 6 -106l-134 -176q-71 -90 -138 -36zM215 564l5 40q11 94 117 88l207 -9q75 -4 63 -78l-6 -41q-9 -75 -85 -79l-210 -9q-52 -3 -74.5 20t-16.5 68zM493 911q-50 81 31 137l36 22q83 54 127 -35l87 -177 q32 -61 -37 -103l-36 -24q-68 -44 -104 14zM784 309q-33 63 36 106l36 23q69 44 106 -15l103 -166q50 -83 -32 -135l-37 -24q-82 -54 -126 35zM862 858l135 177q70 89 138 36l30 -23q69 -54 -5 -137l-151 -166q-51 -57 -108 -15l-32 25q-55 41 -7 103zM951 564l6 41 q9 74 85 78l210 9q52 3 75 -20t16 -68l-5 -40q-11 -94 -116 -88l-207 9q-39 2 -54 21.5t-10 57.5zM1420 82l733 1175q34 53 91 54h120q40 0 52.5 -23t-10.5 -59l-734 -1176q-34 -53 -89 -53h-121q-40 0 -52 22.5t10 59.5z" glyph-name="asterisk_slash.liga" horiz-adv-x="2519" unicode="*/"/><glyph d="M197 0q-40 0 -52 22.5t10 59.5l733 1175q34 53 90 54h121q40 0 52 -23t-10 -59l-734 -1176q-34 -53 -90 -53h-120zM1198 564l5 40q11 94 117 88l207 -9q75 -4 63 -78l-6 -41q-9 -75 -85 -79l-210 -9q-52 -3 -74.5 20t-16.5 68zM1375 122q-69 52 5 135l151 166 q52 59 108 16l32 -24q55 -42 6 -106l-134 -176q-71 -90 -138 -36zM1476 911q-50 81 31 137l36 22q83 54 127 -35l87 -177q32 -61 -37 -103l-36 -24q-68 -44 -104 14zM1767 309q-33 63 36 106l36 23q69 44 106 -15l103 -166q50 -83 -32 -135l-37 -24q-82 -54 -126 35z M1845 858l135 177q70 89 138 36l30 -23q69 -54 -5 -137l-151 -166q-51 -57 -108 -15l-32 25q-55 41 -7 103zM1934 564l6 41q9 74 85 78l210 9q52 3 75 -20t17 -68l-6 -40q-11 -94 -116 -88l-207 9q-39 2 -54 21.5t-10 57.5z" glyph-name="slash_asterisk.liga" horiz-adv-x="2519" unicode="/*"/><glyph d="M1360 0q-40 0 -52 22.5t10 59.5l733 1175q34 53 90 54h121q40 0 52.5 -23t-10.5 -59l-734 -1176q-34 -53 -89 -53h-121zM210 273q-12 27 17 43l669 359l-562 359q-26 15 -6 42l94 129q18 25 43 9l663 -437q20 -12 18 -35l-21 -144q-3 -20 -27 -35l-785 -437 q-29 -15 -40 10z" glyph-name="slash_greater.liga" horiz-adv-x="2519" unicode="/>"/><glyph d="M1371 0q-40 0 -51.5 22.5t9.5 59.5l733 1175q34 53 90 54h121q40 0 52.5 -23t-10.5 -59l-734 -1176q-34 -53 -89 -53h-121zM246 82l733 1175q34 53 90 54h121q40 0 52 -23t-10 -59l-734 -1176q-34 -53 -89 -53h-121q-40 0 -52 22.5t10 59.5z" glyph-name="slash_slash.liga" horiz-adv-x="2519" unicode="//"/><glyph d="M-100 -212l28 212h2519l-28 -212h-2519z" glyph-name="underscore_underscore.liga" horiz-adv-x="2519" unicode="__"/><glyph d="M886 -223q-41 0 -57.5 19t-11.5 60l10 66q12 79 91 79h739q50 0 56 49l175 1244q4 24 -7.5 37.5t-35.5 13.5h-739q-41 0 -57.5 18.5t-11.5 59.5l11 67q12 79 90 79h940q56 0 79 -27.5t16 -83.5l-222 -1572q-15 -110 -125 -109h-940zM388 -154l232 1652q4 34 25.5 52.5 t54.5 18.5h119q69 0 60 -71l-232 -1652q-9 -70 -80 -69h-118q-70 -1 -61 69z" glyph-name="bar_bracketright.liga" horiz-adv-x="2519" unicode="|]"/><glyph d="M1058 -184q-69 0 -60 69l215 1530q9 70 80 70h119q70 0 61 -70l-217 -1530q-8 -70 -79 -69h-119zM1953 -115l215 1530q9 70 80 70h118q70 0 61 -70l-216 -1530q-8 -70 -80 -69h-119q-68 -1 -59 69zM2994 -84l207 1468q7 49 38 75t77 26h70q69 0 148 -54l846 -588 q82 -56 68 -156l-10 -73q-14 -99 -113 -154l-1010 -589q-96 -55 -164 -55h-71q-45 0 -69 25.5t-17 74.5zM3297 156l865 499l-724 498z" glyph-name="bar_bar_bar_greater.liga" horiz-adv-x="5038" unicode="|||>"/><glyph d="M866 -184q-69 0 -59 69l215 1530q9 70 80 70h119q70 0 60 -70l-216 -1530q-8 -70 -80 -69h-119zM1731 -84l206 1468q7 49 38 75t77 26h71q69 0 147 -54l846 -588q82 -56 69 -156l-11 -73q-14 -99 -112 -154l-1011 -589q-96 -55 -164 -55h-70q-45 0 -69 25.5t-17 74.5z M2034 156l864 499l-724 498z" glyph-name="bar_bar_greater.liga" horiz-adv-x="3778" unicode="||>"/><glyph d="M705 -184q-45 0 -69.5 25.5t-17.5 74.5l207 1468q7 49 38 75t77 26h71q69 0 147 -54l846 -588q82 -56 69 -156l-11 -73q-14 -99 -112 -154l-1011 -589q-96 -55 -164 -55h-70zM922 156l864 499l-724 498z" glyph-name="bar_greater.liga" horiz-adv-x="2519" unicode="|>"/><glyph d="M197 807q-30 0 -27 31l19 132q1 13 11 21.5t24 8.5h2210q30 0 27 -30l-20 -132q-1 -13 -10.5 -22t-24.5 -9h-2209zM105 374l19 132q1 13 10.5 22t24.5 9h2210q30 0 26 -31l-18 -132q-5 -31 -35 -31h-2210q-30 0 -27 31z" glyph-name="equal_equal.liga" horiz-adv-x="2519" unicode="=="/><glyph d="M197 807q-30 0 -27 31l19 132q1 13 11 21.5t24 8.5h3470q14 0 21 -8.5t5 -21.5l-19 -132q-5 -31 -35 -31h-3469zM105 374l19 132q1 13 10.5 22t24.5 9h3469q14 0 21.5 -9t5.5 -22l-19 -132q-5 -31 -35 -31h-3469q-30 0 -27 31z" glyph-name="equal_equal_equal.liga" horiz-adv-x="3778" unicode="==="/><glyph d="M2988 94l-114 133l136 116h-2878q-30 0 -27 31l19 132q1 13 10.5 22t24.5 9h3078l160 136l-120 134h-3080q-14 0 -21.5 8.5t-5.5 22.5l19 132q1 13 11 21.5t24 8.5h2881l-105 117l151 134l496 -578z" glyph-name="equal_equal_greater.liga" horiz-adv-x="3778" unicode="==>"/><glyph d="M1729 94l-114 133l135 116h-1618q-30 0 -27 31l19 132q1 13 10.5 22t24.5 9h1818l160 136l-120 134h-1820q-14 0 -21.5 8.5t-5.5 22.5l19 132q1 13 11 21.5t24 8.5h1621l-104 117l150 134l497 -578z" glyph-name="equal_greater.liga" horiz-adv-x="2519" unicode="=>"/><glyph d="M2988 94l-114 133l523 446l-397 444l151 134l496 -578zM105 374l19 132q1 13 10.5 22t24.5 9h2423l159 136l-120 134h-2424q-14 0 -21.5 8.5t-5.5 22.5l19 132q1 13 11 21.5t24 8.5h2225l-104 117l150 134l498 -578l-660 -579l-113 133l135 116h-2223q-30 0 -27 31z" glyph-name="equal_greater_greater.liga" horiz-adv-x="3778" unicode="=>>"/><glyph d="M1471 88q-40 0 -51.5 22.5t10.5 59.5l107 173h-1405q-30 0 -27 31l19 132q1 13 10.5 22t24.5 9h1499l169 270h-1630q-30 0 -27 31l19 132q1 13 11 21.5t24 8.5h1724l215 346q34 53 90 53h121q40 0 52 -23t-10 -59l-198 -317h1476q14 0 21 -8.5t5 -21.5l-19 -132 q-5 -31 -35 -31h-1569l-169 -270h1700q14 0 21.5 -9t5.5 -22l-19 -132q-5 -31 -35 -31h-1794l-126 -202q-34 -53 -89 -53h-121z" glyph-name="equal_slash_equal.liga" horiz-adv-x="3778" unicode="=/="/><glyph d="M389 1247l415 -482h2507l-313 349l152 133l497 -578l-660 -579l-114 134l412 349h-2507l-552 -483l-113 134l523 445l-398 445z" glyph-name="greater_hyphen_greater.liga" horiz-adv-x="3778" unicode=">->"/><glyph d="M389 1247l415 -482h2507l-313 349l152 133l497 -578l-660 -579l-114 134l412 349h-2507l-552 -483l-113 134l523 445l-398 445z" glyph-name="greater_endash_greater.liga" horiz-adv-x="3778" unicode=">–>"/><glyph d="M2988 94l-114 133l136 116h-2499l-284 -249l-112 133l521 446l-396 444l150 134l216 -251h2499l-105 117l151 134l496 -578zM732 537h2505l160 136l-120 134h-2505l116 -134z" glyph-name="greater_equal_greater.liga" horiz-adv-x="3778" unicode=">=>"/><glyph d="M839 1268l113 -133l-409 -350h1860l-26 -191h-1861l310 -349l-150 -134l-497 578z" glyph-name="less_hyphen.liga" horiz-adv-x="2519" unicode="&lt;-"/><glyph d="M836 1247l113 -133l-409 -349h3120l-27 -192h-3120l310 -349l-150 -134l-497 579z" glyph-name="less_hyphen_hyphen.liga" horiz-adv-x="3778" unicode="&lt;--"/><glyph d="M2988 94l-114 133l410 350h-2771l312 -350l-151 -133l-498 579l661 578l113 -134l-410 -349h2772l-312 349l151 134l496 -578z" glyph-name="less_hyphen_greater.liga" horiz-adv-x="3778" unicode="&lt;->"/><glyph d="M3434 94l-414 483h-2507l312 -350l-151 -133l-498 579l661 578l113 -134l-410 -349h2505l552 483l114 -134l-523 -444l398 -446z" glyph-name="less_hyphen_less.liga" horiz-adv-x="3778" unicode="&lt;-&lt;"/><glyph d="M839 1268l113 -133l-409 -350h1860l-26 -191h-1861l310 -349l-150 -134l-497 578z" glyph-name="less_endash.liga" horiz-adv-x="2519" unicode="&lt;–"/><glyph d="M836 1247l113 -133l-409 -349h3120l-27 -192h-3120l310 -349l-150 -134l-497 579z" glyph-name="less_endash_endash.liga" horiz-adv-x="3778" unicode="&lt;––"/><glyph d="M2988 94l-114 133l410 350h-2771l312 -350l-151 -133l-498 579l661 578l113 -134l-410 -349h2772l-312 349l151 134l496 -578z" glyph-name="less_endash_greater.liga" horiz-adv-x="3778" unicode="&lt;–>"/><glyph d="M3434 94l-414 483h-2507l312 -350l-151 -133l-498 579l661 578l113 -134l-410 -349h2505l552 483l114 -134l-523 -444l398 -446z" glyph-name="less_endash_less.liga" horiz-adv-x="3778" unicode="&lt;–&lt;"/><glyph d="M674 94l-498 579l661 578l113 -134l-523 -444l398 -446zM1318 174q0 85 58.5 144t142.5 59t142.5 -59.5t58.5 -143.5t-58.5 -142.5t-142.5 -58.5t-142.5 58.5t-58.5 142.5zM1466 629l12 510q1 88 51.5 140t126.5 52q78 0 122.5 -53t21.5 -139l-128 -510q-10 -42 -37 -70 t-65 -28h-19q-38 0 -62 28.5t-23 69.5zM2331 577l27 191h2563l-26 -191h-2564z" glyph-name="less_exclam_hyphen_hyphen.liga" horiz-adv-x="5038" unicode="&lt;!--"/><glyph d="M674 94l-498 579l661 578l113 -134l-523 -444l398 -446zM1318 174q0 85 58.5 144t142.5 59t142.5 -59.5t58.5 -143.5t-58.5 -142.5t-142.5 -58.5t-142.5 58.5t-58.5 142.5zM1466 629l12 510q1 88 51.5 140t126.5 52q78 0 122.5 -53t21.5 -139l-128 -510q-10 -42 -37 -70 t-65 -28h-19q-38 0 -62 28.5t-23 69.5zM2331 577l27 191h2563l-26 -191h-2564z" glyph-name="less_exclam_endash_endash.liga" horiz-adv-x="5038" unicode="&lt;!––"/><glyph d="M1636 -184q-39 0 -71 11.5t-77 42.5l-846 588q-82 56 -69 155l11 73q14 99 112 155l1012 589q96 55 164 55h71q45 0 69 -25.5t17 -75.5l-207 -1468q-7 -49 -38 -74.5t-77 -25.5h-71zM860 645l725 -498l140 998z" glyph-name="less_bar.liga" horiz-adv-x="2519" unicode="&lt;|"/><glyph d="M2606 -184q-69 0 -59 69l215 1530q9 70 80 70h118q70 0 61 -70l-216 -1530q-8 -70 -80 -69h-119zM721 613l10 73q14 99 113 155l1011 589q96 55 164 55h71q45 0 69 -25.5t17 -75.5l-207 -1468q-7 -49 -37.5 -74.5t-77.5 -25.5h-70q-39 0 -71.5 11.5t-77.5 42.5l-845 588 q-82 56 -69 155zM1008 645l725 -498l140 998z" glyph-name="less_bar_bar.liga" horiz-adv-x="3778" unicode="&lt;||"/><glyph d="M2713 -184q-69 0 -60 69l215 1530q9 70 80 70h119q70 0 60 -70l-216 -1530q-8 -70 -80 -69h-118zM717 613l10 73q14 99 113 155l1011 589q96 55 164 55h71q45 0 69 -25.5t17 -75.5l-207 -1468q-7 -49 -38 -74.5t-77 -25.5h-70q-39 0 -71.5 11.5t-77.5 42.5l-846 588 q-81 56 -68 155zM1004 645l725 -498l140 998zM3607 -115l215 1530q9 70 79 70h119q70 0 61 -70l-216 -1530q-8 -70 -80 -69h-119q-68 -1 -59 69z" glyph-name="less_bar_bar_bar.liga" horiz-adv-x="5038" unicode="&lt;|||"/><glyph d="M839 1268l113 -133l-135 -116h2878q30 0 26 -31l-18 -132q-1 -13 -11 -22t-24 -9h-3078l-160 -136l120 -134h3080q14 0 21.5 -8.5t5.5 -22.5l-20 -132q-1 -13 -10.5 -22t-24.5 -9h-2880l104 -116l-150 -134l-497 578z" glyph-name="less_equal_equal.liga" horiz-adv-x="3778" unicode="&lt;=="/><glyph d="M674 94l-498 579l661 578l113 -134l-137 -117h3551l-104 117l150 134l497 -578l-659 -579l-114 133l135 116h-3547l103 -116zM427 673l122 -136h3947l160 136l-120 134h-3951z" glyph-name="less_equal_equal_greater.liga" horiz-adv-x="5038" unicode="&lt;==>"/><glyph d="M2988 94l-114 133l136 116h-2288l103 -116l-151 -133l-498 579l661 578l113 -134l-137 -117h2292l-105 117l151 134l496 -578zM427 673l122 -136h2688l160 136l-120 134h-2692z" glyph-name="less_equal_greater.liga" horiz-adv-x="3778" unicode="&lt;=>"/><glyph d="M836 1247l113 -133l-135 -116h2499l283 249l113 -133l-521 -445l396 -445l-151 -134l-216 251h-2498l104 -117l-150 -134l-497 579zM427 669l120 -134h2505l-116 134l155 136h-2504z" glyph-name="less_equal_less.liga" horiz-adv-x="3778" unicode="&lt;=&lt;"/><glyph d="M1329 94l-498 579l661 578l114 -134l-411 -349h2467l-27 -191h-2467l312 -350zM176 673l661 578l113 -134l-523 -444l398 -446l-151 -133z" glyph-name="less_less_hyphen.liga" horiz-adv-x="3778" unicode="&lt;&lt;-"/><glyph d="M1329 94l-498 579l661 578l114 -134l-411 -349h2467l-27 -191h-2467l312 -350zM176 673l661 578l113 -134l-523 -444l398 -446l-151 -133z" glyph-name="less_less_endash.liga" horiz-adv-x="3778" unicode="&lt;&lt;–"/><glyph d="M839 1268l113 -133l-522 -446l396 -444l-150 -134l-497 578zM834 689l660 579l113 -133l-136 -116h2224q30 0 26 -31l-18 -132q-1 -13 -11 -22t-24 -9h-2423l-160 -136l120 -134h2425q14 0 21.5 -8.5t5.5 -22.5l-20 -132q-1 -13 -10.5 -22t-24.5 -9h-2225l105 -116 l-151 -134z" glyph-name="less_less_equal.liga" horiz-adv-x="3778" unicode="&lt;&lt;="/><glyph d="M269 566q-20 12 -17 35l20 144q3 20 28 35l783 438q29 15 40 -11l64 -137q12 -27 -18 -43l-667 -358l562 -360q26 -15 6 -42l-94 -129q-18 -25 -43 -9zM1318 82l733 1175q34 53 90 54h121q40 0 52.5 -23t-10.5 -59l-734 -1176q-34 -53 -89 -53h-121q-40 0 -52 22.5 t10 59.5z" glyph-name="less_slash.liga" horiz-adv-x="2519" unicode="&lt;/"/><glyph d="M932 508q-75 -37 -133 6l-106 79q-35 27 -80 4l-151 -75q-38 -19 -75.5 -7t-51.5 48q-15 37 2.5 76.5t56.5 57.5l234 115q77 38 134 -6l105 -80q34 -27 79 -4l150 73q26 12 90 12h985q39 0 57 -20t13 -58l-7 -36q-11 -78 -90 -78h-992z" glyph-name="asciitilde_hyphen.liga" horiz-adv-x="2519" unicode="~-"/><glyph d="M1182 508q-76 -38 -135 6l-107 79q-35 26 -79 4l-151 -75q-38 -19 -75.5 -7t-51.5 48q-15 37 2.5 76.5t56.5 57.5l234 115q77 38 134 -6l105 -80q34 -26 73 -8l192 94q77 38 134 -6l106 -80q34 -27 79 -4l152 75q39 18 76 6.5t52 -47.5q14 -36 -3 -75t-56 -58l-236 -115 q-75 -37 -133 6l-106 79q-35 25 -86 0z" glyph-name="asciitilde_asciitilde.liga" horiz-adv-x="2519" unicode="~~"/><glyph d="M1090 37q-40 33 -39 74.5t40 86.5l934 1068q79 91 164 21l16 -13q79 -69 -2 -161l-936 -1068q-78 -89 -163 -20zM357 37q-39 33 -37.5 75t39.5 86l935 1068q39 45 81.5 50t81.5 -29l16 -13q80 -69 -2 -161l-935 -1068q-78 -89 -163 -20zM453 1159q0 80 45 128.5t129 48.5 q85 0 131 -48.5t46 -128.5q0 -79 -46.5 -128t-130.5 -49t-129 48.5t-45 128.5zM1757 153q0 79 45.5 127.5t129.5 48.5t130 -49t46 -127q0 -80 -46 -129.5t-130 -49.5t-129.5 49.5t-45.5 129.5z" glyph-name="percent_percent.liga" horiz-adv-x="2519" unicode="%%"/><glyph d="M831 1638v-2027h-643v2027h643zM339 -249h336v67h-207l142 95h65v67h-336v-67h141l-141 -95v-67zM339 27h336v229h-336v-229zM339 377h336v229h-203v-113h70v47h66v-96h-202v162h-67v-229zM339 651h336v203h-67v-134h-269v-69zM339 767h203v141h133v68h-336v-68h133v-74 h-133v-67zM339 1030h336v69h-133v142h-203v-211zM339 1293h336v68h-133v75h133v66h-334v-66h131v-75h-133v-68zM406 93v95h202v-95h-202zM406 1099v73h66v-73h-66z" glyph-name=".notdef" horiz-adv-x="1013"/><glyph glyph-name="glyph1" horiz-adv-x="0"/><glyph glyph-name="glyph2" horiz-adv-x="681"/><glyph glyph-name="space" unicode=" "/><glyph glyph-name="space" unicode=" "/><glyph d="M615 531q-38 0 -62 28.5t-23 69.5l12 510q1 88 51.5 140t126.5 52q78 0 122.5 -53t21.5 -139l-128 -510q-10 -42 -37 -70t-65 -28h-19zM382 174q0 85 58.5 144t142.5 59t142.5 -59.5t58.5 -143.5t-58.5 -142.5t-142.5 -58.5t-142.5 58.5t-58.5 142.5z" glyph-name="exclam" unicode="!"/><glyph d="M849 659q-70 0 -62 70l66 532q4 34 25 52t55 18h94q34 0 50 -18.5t10 -51.5l-83 -532q-11 -70 -80 -70h-75zM319 729l66 532q4 34 25 52t55 18h94q34 0 50 -18.5t11 -51.5l-84 -532q-11 -70 -80 -70h-75q-70 0 -62 70z" glyph-name="quotedbl" unicode="&quot;"/><glyph d="M174 0q-14 0 -20.5 8.5t-1.5 22.5l91 325h-158q-14 0 -20.5 9t-2.5 22l38 132q10 31 39 31h158l94 334h-158q-14 0 -20 8.5t-2 21.5l38 133q8 31 39 30h157l93 326q10 31 39 31h151q14 0 20.5 -9t2.5 -22l-92 -326h203l92 326q10 31 39 31h153q14 0 20 -9t2 -22l-92 -326 h158q14 0 21 -8.5t2 -21.5l-37 -133q-10 -31 -40 -30h-158l-94 -334h157q14 0 21 -9t3 -22l-38 -132q-8 -31 -40 -31h-158l-91 -325q-10 -31 -39 -31h-152q-14 0 -20.5 8.5t-2.5 22.5l92 325h-203l-92 -325q-10 -31 -39 -31h-152zM511 550h204l93 334h-203z" glyph-name="numbersign" unicode="#"/><glyph d="M517 -144q-69 0 -57 73l36 241q-150 13 -237 71t-76 142q6 41 34 68t75 27h8q48 0 93 -55q53 -74 211 -74q212 0 212 112q0 50 -46.5 71t-155.5 34q-55 7 -98.5 16.5t-93.5 29t-83 46t-55 70.5t-22 100q0 136 105 217t276 95l36 236q11 69 79 69h23q68 0 57 -73l-34 -234 q135 -15 214.5 -73t67.5 -141q-6 -40 -32.5 -64.5t-74.5 -24.5h-13q-54 0 -92 54q-45 70 -188 69q-196 0 -196 -109q0 -47 43.5 -69.5t139.5 -35.5q45 -5 71.5 -9t72 -13.5t73.5 -20.5t62.5 -31t53.5 -44t33 -60t14 -79q0 -140 -109.5 -222t-287.5 -96l-38 -244 q-11 -70 -77 -69h-24z" glyph-name="dollar" unicode="$"/><glyph d="M93 37q-39 33 -38 75t40 86l935 1068q79 91 164 21l14 -13q80 -68 -1 -161l-936 -1068q-78 -89 -162 -20zM188 1159q0 80 45.5 128.5t128.5 48.5q85 0 131.5 -48.5t46.5 -128.5t-46.5 -128.5t-131.5 -48.5q-84 0 -129 48.5t-45 128.5zM762 153q0 79 45.5 127.5 t129.5 48.5t130 -49t46 -127q0 -80 -46 -129.5t-130 -49.5t-129.5 49.5t-45.5 129.5z" glyph-name="percent" unicode="%"/><glyph d="M492 -27q-198 0 -321 118.5t-123 303.5q0 161 94.5 280t251.5 146q-127 138 -127 287q0 147 108 244.5t276 97.5q160 0 257.5 -88t97.5 -215q0 -72 -31 -105.5t-81 -33.5q-87 0 -109 103q-10 56 -46.5 89t-96.5 33q-65 0 -102.5 -37.5t-37.5 -99.5q0 -58 31 -114t88 -123 q35 -42 38.5 -86.5t-27 -75t-85.5 -30.5q-123 0 -192.5 -70.5t-69.5 -174.5q0 -106 69.5 -167t171.5 -61q68 0 125 25.5t77 67.5t-18 97q-67 89 7 154l16 14q40 34 79.5 27.5t72.5 -49.5l258 -348q62 -87 -14 -153l-15 -15q-79 -69 -147 23l-110 148q-6 -68 -63 -117.5 t-135.5 -72t-166.5 -22.5z" glyph-name="ampersand" unicode="&amp;"/><glyph d="M614 659q-70 0 -61 70l65 532q4 34 25.5 52t54.5 18h95q34 0 49.5 -18.5t10.5 -51.5l-84 -532q-11 -70 -80 -70h-75z" glyph-name="quotesingle" unicode="'"/><glyph d="M724 -216q-102 0 -180 30t-126.5 79.5t-79.5 123t-43.5 148t-12.5 169t6.5 171.5t19.5 169q10 73 20 129t26.5 132t35.5 134t47.5 126t62.5 118t80.5 98t100.5 79t124.5 50t149.5 19q86 0 122.5 -29.5t28.5 -93.5q-8 -54 -41.5 -86t-90.5 -32q-66 0 -119 -21.5t-92.5 -65 t-68.5 -97.5t-51 -131.5t-37 -153t-29 -175.5q-13 -95 -19.5 -172.5t-5 -153t15.5 -130.5t39 -98.5t68 -65.5t101 -22q62 0 91.5 -37t21.5 -98q-8 -58 -47.5 -85.5t-117.5 -27.5z" glyph-name="parenleft" unicode="("/><glyph d="M355 -193q-86 0 -122 29.5t-27 93.5q7 54 40.5 86t90.5 32q66 0 119 21.5t92.5 65t68.5 97.5t51 131.5t37 153t29 175.5q13 95 19.5 172.5t5 153t-15.5 130.5t-39 98.5t-68 65.5t-101 22q-62 0 -91.5 37t-21.5 98q8 58 47.5 85.5t117.5 27.5q102 0 180 -30t126.5 -79.5 t79.5 -123t43.5 -148t12.5 -169t-6.5 -171.5t-20.5 -169q-10 -73 -19.5 -129t-26 -132t-35.5 -134t-47.5 -126t-62.5 -118t-80.5 -98t-101 -79t-124.5 -50t-150 -19z" glyph-name="parenright" unicode=")"/><glyph d="M243 43q-69 52 5 135l150 166q52 59 109 16l32 -24q55 -42 6 -106l-134 -176q-71 -90 -139 -36zM66 485l5 40q11 94 116 88l207 -9q75 -4 64 -78l-6 -41q-9 -75 -85 -78l-210 -10q-52 -3 -74.5 20t-16.5 68zM343 833q-50 81 32 136l36 22q83 54 127 -35l87 -177 q32 -61 -37 -103l-36 -24q-68 -44 -105 15zM635 230q-33 63 36 106l36 23q69 44 105 -15l103 -166q50 -83 -31 -135l-37 -24q-82 -54 -126 35zM713 779l135 177q70 89 137 36l31 -23q69 -54 -5 -136l-152 -166q-51 -57 -107 -16l-32 25q-55 41 -7 103zM802 485l6 41 q9 74 85 78l210 9q52 3 74.5 -20t16.5 -68l-5 -40q-11 -94 -117 -88l-207 10q-39 2 -53.5 21t-9.5 57z" glyph-name="asterisk" unicode="*"/><glyph d="M163 569q-30 0 -44.5 16.5t-8.5 46.5l11 79q9 62 70 62h374l53 383q5 30 23.5 46t47.5 16h80q29 0 43 -16t10 -46l-54 -383h375q30 0 43.5 -16.5t9.5 -45.5l-11 -79q-10 -62 -71 -63h-375l-53 -382q-8 -62 -71 -62h-78q-62 0 -54 62l54 382h-374z" glyph-name="plus" unicode="+"/><glyph d="M725 -26q-43 0 -66 26t-17 67l23 160q12 85 -26.5 129.5t-123.5 44.5h-122q-41 0 -64 24.5t-18 66.5l6 43q4 41 34.5 65.5t72.5 24.5h202q145 0 223 -91t57 -237l-33 -230q-5 -41 -35 -67t-73 -26h-40z" glyph-name="comma" unicode=","/><glyph d="M269 545q-58 0 -86.5 28t-21.5 78q14 105 122 106h748q59 0 88 -28t22 -78q-17 -106 -124 -106h-748z" glyph-name="hyphen" unicode="-"/><glyph d="M584 -27q-88 0 -149.5 61.5t-61.5 149.5t61.5 150t149.5 62t150 -62t62 -150t-62 -149.5t-150 -61.5z" glyph-name="period" unicode="."/><glyph d="M200 0q-40 0 -52 22.5t10 59.5l733 1175q34 53 90 54h121q40 0 52 -23t-10 -59l-734 -1176q-34 -53 -89 -53h-121z" glyph-name="slash" unicode="/"/><glyph d="M608 -26q-219 0 -352 137.5t-133 361.5q0 157 65.5 285.5t183.5 203t267 74.5q105 0 177 -39t60 -117q-4 -26 -16 -43.5t-25 -25.5t-37.5 -12t-40 -4t-46.5 1t-44 1q-134 0 -212.5 -87t-78.5 -226q0 -96 40 -161q173 209 380 357q72 49 148 49q81 0 132 -77t51 -193 q0 -96 -37.5 -184.5t-104 -155t-165 -106t-212.5 -39.5zM552 222q36 -8 71 -8q114 0 185 70.5t71 160.5q0 42 -21 78q-164 -131 -306 -301z" glyph-name="zero" unicode="0"/><glyph d="M724 0q-61 0 -91.5 35t-21.5 97l91 607q-29 -49 -72 -86.5t-91.5 -56.5t-93 -29t-85.5 -10q-72 0 -105 34t-26 93q15 112 140 112q71 0 168 44t168 126q41 48 126 48h61q110 0 93 -110l-111 -789q-15 -115 -132 -115h-18z" glyph-name="one" unicode="1"/><glyph d="M292 0q-115 0 -163.5 49t-36.5 134q10 69 56.5 121t112.5 84t143 56.5t154.5 45t141.5 43t107.5 57t49.5 80.5q9 58 -39.5 101.5t-159.5 43.5q-103 0 -172 -42t-86 -124q-6 -31 -28.5 -44t-68.5 -13h-38q-57 0 -82 34t-15 99q22 130 153 221t338 91q224 0 346 -107.5 t100 -269.5q-11 -82 -59 -143t-112 -95.5t-145.5 -62t-155.5 -43.5t-146.5 -38.5t-112.5 -47.5q-10 -7 -6.5 -14t15.5 -7h569q50 0 76 -21.5t19 -66.5l-5 -33q-12 -88 -119 -88h-631z" glyph-name="two" unicode="2"/><glyph d="M516 -325q-239 0 -364.5 93t-103.5 245q9 67 41 96t85 29h56q36 0 54 -19t17 -50q-3 -164 242 -164q251 0 272 174q11 89 -54 138t-231 49q-42 0 -62.5 20t-14.5 59l5 38q10 79 99 79q290 0 311 175q11 88 -46.5 129t-162.5 41q-109 0 -178 -42.5t-87 -127.5 q-13 -66 -79 -66h-48q-61 0 -90.5 29.5t-19.5 97.5q19 150 159 244.5t367 94.5q220 0 341 -92.5t97 -265.5q-13 -100 -75 -170t-177 -116l-3 -21q255 -86 221 -320q-24 -178 -174.5 -277.5t-396.5 -99.5z" glyph-name="three" unicode="3"/><glyph d="M745 -204q-49 0 -70 22t-13 76l14 106h-549q-117 0 -101 106l14 107q172 196 283.5 374.5t180.5 366.5q22 59 100 60h105q44 0 54.5 -23.5t-7.5 -69.5q-134 -351 -420 -709h370l28 199q7 53 34 75t76 22h64q49 0 70 -22.5t14 -74.5l-28 -199h73q42 0 62.5 -18.5 t16.5 -52.5l-10 -71q-4 -34 -30 -52t-68 -18h-74l-14 -106q-7 -52 -34 -75t-76 -23h-65z" glyph-name="four" unicode="4"/><glyph d="M508 -323q-218 0 -337 86t-112 251q1 39 26.5 64t73.5 25h48q76 0 96 -71q16 -68 72.5 -98t164.5 -30q138 0 207.5 46.5t85.5 155.5q15 109 -33.5 153.5t-171.5 44.5h-346q-60 0 -85.5 35t-11.5 96l120 486q24 93 121 93h576q44 0 67 -19.5t17 -59.5l-8 -62 q-10 -79 -106 -78h-473l-68 -274h285q202 0 299.5 -103t67.5 -304q-31 -220 -179 -328.5t-396 -108.5z" glyph-name="five" unicode="5"/><glyph d="M557 -26q-236 0 -355.5 134.5t-90.5 350.5q35 258 304 540l256 267q44 45 104 45h117q51 0 58.5 -29.5t-30.5 -66.5l-308 -311q61 15 129 16q187 0 292 -110t105 -293q0 -239 -163 -391t-418 -152zM354 417q0 -104 59.5 -160.5t169.5 -56.5q136 0 219 82t83 208 q0 103 -60.5 159.5t-170.5 56.5q-136 0 -218 -81t-82 -208z" glyph-name="six" unicode="6"/><glyph d="M330 -297q-51 0 -67.5 35t2.5 73q120 274 293 534h-152q-45 0 -67 24.5t-14 68.5l3 19q12 81 92 81h274q91 122 208 257h-613q-108 0 -94 102l4 27q11 90 108 90h747q65 0 97 -40.5t19 -119.5q-9 -63 -57 -129q-68 -92 -138 -187h99q44 0 64.5 -25t15.5 -69l-2 -18 q-9 -81 -93 -81h-224q-221 -314 -331 -581q-25 -61 -103 -61h-71z" glyph-name="seven" unicode="7"/><glyph d="M564 -26q-245 0 -364 110t-91 298q37 254 288 335l4 26q-153 66 -127 259q18 154 140.5 244t325.5 90q205 0 306 -92.5t79 -248.5q-26 -185 -197 -252l-4 -26q229 -82 191 -341q-29 -187 -169 -294.5t-382 -107.5zM360 410q-14 -108 50.5 -161t181.5 -53q113 0 188.5 52 t89.5 158q14 108 -48 161t-177 53t-193 -52.5t-92 -157.5zM508 963.5q-10 -78.5 36 -120.5t133 -42q86 0 140.5 41.5t65.5 115.5q11 82 -35 125t-133 43t-142 -42t-65 -120.5z" glyph-name="eight" unicode="8"/><glyph d="M702 1037q236 0 356 -134t91 -350q-35 -258 -304 -541l-256 -266q-44 -45 -105 -45h-116q-51 0 -59 29t31 66l307 312q-61 -15 -129 -16q-187 0 -291.5 109.5t-104.5 293.5q0 239 162.5 390.5t417.5 151.5zM375 521q0 -103 60.5 -159t169.5 -56q136 0 218 81t82 208 q0 104 -59.5 160.5t-168.5 56.5q-136 0 -219 -82t-83 -209z" glyph-name="nine" unicode="9"/><glyph d="M584 -27q-88 0 -149.5 61.5t-61.5 149.5t61.5 150t149.5 62t150 -62t62 -150t-62 -149.5t-150 -61.5zM465 846q0 88 61.5 150t149.5 62t150 -62t62 -150t-62 -149.5t-150 -61.5t-149.5 61.5t-61.5 149.5z" glyph-name="colon" unicode=":"/><glyph d="M679 -26q-43 0 -66 26t-18 67l9 67q8 52 -17 83t-77 31h-77q-41 0 -64 24t-18 65l5 35q6 41 36 65t72 24h175q117 0 169.5 -60t35.5 -180l-22 -154q-6 -41 -36 -67t-73 -26h-34zM493 846q0 88 61 150t149.5 62t150 -62t61.5 -150t-61.5 -149.5t-150 -61.5t-149.5 61.5 t-61 149.5z" glyph-name="semicolon" unicode=";"/><glyph d="M224 566q-20 12 -17 35l20 144q3 20 28 35l783 438q29 15 40 -11l64 -137q12 -27 -18 -43l-667 -358l562 -360q26 -15 6 -42l-94 -129q-18 -25 -43 -9z" glyph-name="less" unicode="&lt;"/><glyph d="M173 343q-70 0 -60 70l7 55q9 69 80 69h870q70 0 60 -69l-7 -55q-9 -70 -81 -70h-869zM177 877l7 55q9 69 80 68h871q70 0 60 -68l-7 -55q-9 -70 -81 -70h-869q-70 0 -61 70z" glyph-name="equal" unicode="="/><glyph d="M1083 777q20 -12 18 -35l-21 -144q-3 -20 -27 -35l-784 -437q-29 -15 -40 10l-63 137q-12 27 17 43l668 359l-562 359q-26 15 -6 42l94 129q18 25 43 9z" glyph-name="greater" unicode=">"/><glyph d="M588 442q-55 0 -78 23t-16 73q7 57 29 100t52 68t67.5 45t75 31.5t74 26t66 30t50.5 43.5t26 66q10 71 -43 110.5t-172 39.5q-232 0 -275 -168q-11 -45 -37.5 -71t-83.5 -26q-136 0 -118 145q20 165 154.5 259t364.5 94q231 0 358 -98t102 -285q-10 -68 -37 -119 t-63 -81.5t-77.5 -53.5t-83.5 -41t-78.5 -36.5t-64 -46.5t-38.5 -65q-17 -62 -100 -63h-54zM376 174q0 84 59 143.5t142 59.5q84 0 142.5 -59t58.5 -144q0 -84 -59 -142.5t-142 -58.5t-142 58.5t-59 142.5z" glyph-name="question" unicode="?"/><glyph d="M639 -26q-304 0 -437.5 118.5t-98.5 376.5l52 368q36 262 181.5 378t415.5 116q264 0 373 -113t72 -381l-33 -244q-11 -77 -39.5 -129t-75.5 -80t-101 -38.5t-129 -10.5q-74 0 -124.5 10.5t-88 39t-50.5 80t-3 128.5l19 138q16 115 83 169t188 54h164q-4 109 -64 147.5 t-200 38.5q-187 0 -277.5 -68t-117.5 -256l-45 -327q-13 -98 4 -162t68 -99t122 -49t180 -14q99 0 170 7q58 5 87.5 -13.5t23.5 -58.5q-15 -99 -125 -113q-99 -13 -194 -13zM751 603q-7 -48 14 -70t78 -22q60 0 89.5 23t35.5 69l26 194h-111q-56 0 -83 -22t-34 -72z" glyph-name="at" unicode="@"/><glyph d="M105 0q-54 0 -78 34t-5 82l334 868q41 105 72.5 165.5t71 98.5t83 50.5t109.5 12.5h42q58 0 96 -10.5t66.5 -32t46.5 -67t30 -105t24 -156.5l43 -346l17 3q49 10 85.5 -6t48.5 -46t9.5 -63t-30.5 -62t-74 -38l-28 -6l34 -268q6 -51 -18.5 -79.5t-75.5 -28.5h-44 q-95 0 -107 94l-29 232l-4 -1q-283 -59 -396.5 -107.5t-146.5 -139.5v-1q-29 -77 -116 -77h-60zM391 384q55 56 142.5 87t267.5 70l-30 235q-13 105 -21 158t-18 86t-19.5 40t-27.5 7q-19 0 -32.5 -12.5t-37.5 -64.5t-64 -162z" glyph-name="A" unicode="A"/><glyph d="M752 -5q-69 0 -128.5 17t-89.5 42q-40 34 -54 65.5t-8 70.5q12 86 93 63q67 -20 127 -21q180 0 180 168q0 84 -49 122t-161 38h-210l-64 -471q-12 -89 -103 -89h-73q-45 0 -70.5 23t-21.5 62l134 974q16 124 86.5 188t207.5 64h196q193 0 282 -83t89 -218 q0 -118 -63 -202t-170 -111l-3 -20q259 -37 259 -307q0 -97 -33.5 -172t-90 -118t-122 -64t-140.5 -21zM482 783h157q218 0 218 161q0 69 -40.5 99t-130.5 30h-96q-69 0 -78 -69z" glyph-name="B" unicode="B"/><glyph d="M684 -26q-270 0 -413.5 154t-143.5 444q0 114 21.5 220.5t70.5 206.5t122 174t182 118.5t243 44.5q206 0 320 -101t85 -307q-9 -69 -37.5 -97.5t-78.5 -28.5h-51q-101 0 -89 91q7 53 -6.5 91t-42.5 58t-62.5 29t-73.5 9q-74 0 -133 -31t-96.5 -80.5t-62 -116t-35 -130.5 t-10.5 -129q0 -380 372 -380q110 0 215 23q35 7 52 -12.5t11 -55.5l-8 -57q-5 -38 -41 -66t-89 -42.5t-108.5 -21.5t-112.5 -7z" glyph-name="C" unicode="C"/><glyph d="M243 0q-51 0 -75.5 28t-16.5 78l89 634q16 115 77 182.5t153 67.5q37 0 51.5 -11.5t10.5 -35.5l-95 -705h60q95 0 169 30t121 78.5t77 116.5t42 138t12 148q0 75 -13 129.5t-45 101t-93 70t-152 23.5h-355q-63 0 -93.5 32.5t-23.5 90.5q15 115 132 115h408 q110 0 196 -29.5t142 -78.5t93 -119.5t52.5 -149t15.5 -169.5q0 -116 -24 -223t-80 -206.5t-138.5 -173.5t-207 -118t-277.5 -44h-212z" glyph-name="D" unicode="D"/><glyph d="M641 -26q-221 0 -346 103.5t-125 281.5q0 155 91.5 259t230.5 128q-68 34 -104.5 97.5t-36.5 143.5q0 159 133 254t352 95q140 0 227 -42.5t87 -131.5q0 -32 -8.5 -70t-25.5 -77t-49 -65t-72 -26q-26 0 -45.5 10.5t-19.5 31.5q0 15 2.5 39t2.5 42q0 67 -112 66 q-100 0 -158 -43.5t-58 -116.5q0 -58 39.5 -98.5t120.5 -47.5q101 -9 93 -106q-4 -49 -34.5 -74.5t-82.5 -25.5q-147 0 -222 -51.5t-75 -146.5q0 -87 64 -137.5t195 -50.5q75 0 161.5 15t132.5 29q43 13 65.5 -10.5t21.5 -68.5q-1 -85 -85 -131q-56 -31 -155.5 -53 t-204.5 -22z" glyph-name="E" unicode="E"/><glyph d="M507 425q-57 0 -85 29t-21 83q14 103 120 103h160l77 402q6 31 -29 31h-244q-54 0 -74.5 -17t-15.5 -54q6 -51 -23.5 -76.5t-77.5 -25.5q-76 0 -120.5 59.5t-44.5 137.5q0 40 13 75.5t40 68t76.5 51.5t115.5 19h435q75 0 152 10t97 10q65 0 102.5 -35.5t37.5 -95.5 q0 -38 -17.5 -64t-44 -42t-54 -31.5t-50.5 -45t-32 -70.5l-57 -307h129q58 0 86.5 -29.5t20.5 -82.5q-15 -103 -120 -103h-156l-61 -327q-10 -51 -35.5 -74.5t-70.5 -23.5h-70q-47 0 -72.5 26t-15.5 76l61 323h-132z" glyph-name="F" unicode="F"/><glyph d="M654 -26q-249 0 -389 148t-140 435q0 119 24 229t79.5 211.5t136 175.5t203 118.5t273.5 44.5q59 0 114.5 -6.5t106 -21.5t78.5 -42.5t23 -64.5l-7 -56q-4 -35 -30.5 -54t-61.5 -15q-133 17 -207 18q-103 0 -185.5 -33t-134 -85.5t-85.5 -124t-48 -143t-14 -146.5 q0 -174 77.5 -262t215.5 -88q84 0 139.5 40.5t69.5 144.5l19 137h-195q-35 0 -51 17.5t-11 51.5l11 69q9 70 79 69h357q70 0 60 -69l-47 -340q-13 -97 -55.5 -168.5t-106 -111.5t-137.5 -59t-161 -19z" glyph-name="G" unicode="G"/><glyph d="M882 0q-50 0 -74 27t-16 76l44 317h-381l-47 -335q-12 -90 -103 -90h-73q-49 0 -72.5 27t-17.5 76l45 322h-26q-49 0 -73.5 27t-16.5 75l6 46q13 89 103 89h41l78 560q12 90 102 90h73q49 0 73 -28t17 -77l-77 -545h382l79 565q12 90 103 90h72q49 0 73.5 -27.5 t16.5 -76.5l-156 -1118q-12 -90 -103 -90h-72z" glyph-name="H" unicode="H"/><glyph d="M489 -26q-45 0 -84.5 6.5t-81 21t-67 46t-25.5 76.5q0 47 29 79.5t93 32.5q23 0 70.5 -6.5t72.5 -6.5q139 0 213 155q57 120 101 418q8 52 25 169l5 36q7 55 -9.5 76t-73.5 21q-115 0 -205.5 -60t-143.5 -168q-13 -24 -21 -36t-23.5 -29t-35.5 -24t-46 -7q-55 0 -84 33.5 t-29 87.5q0 72 46 149t125.5 142t198.5 107.5t252 42.5h47q175 0 232.5 -83t32.5 -267l-5 -37q-24 -168 -48.5 -290.5t-59.5 -239t-79.5 -194t-104.5 -136.5t-139 -87t-178 -28z" glyph-name="I" unicode="I"/><glyph d="M508 -26q-195 0 -301.5 92.5t-106.5 258.5q0 41 7 78.5t25 79.5t46.5 76.5t76 67t110 54.5t151.5 35.5t197 13.5q22 0 85 -2l47 357h-89q-106 0 -162.5 -26.5t-57.5 -101.5q0 -96 -92 -96q-66 0 -104 44t-38 118q0 122 104.5 205t304.5 83h295q56 0 89.5 -38.5 t26.5 -94.5l-63 -473q17 -2 52 -9q60 -10 91.5 -44t24.5 -83q-8 -52 -44 -79t-89 -17l-65 11l-4 -27q-14 -106 -50.5 -192t-98 -152.5t-154.5 -102.5t-214 -36zM364 350q0 -67 45 -98.5t118 -31.5q63 0 108.5 22t71 64.5t39 86.5t21.5 106l2 17q-55 2 -82 2q-95 0 -161 -13 t-100.5 -38.5t-48 -53t-13.5 -63.5z" glyph-name="J" unicode="J"/><glyph d="M1148 1311q57 0 71 -36.5t-30 -83.5q-292 -306 -436 -482l333 -593q29 -50 9.5 -83t-76.5 -33h-79q-77 0 -116 68l-131 231q-74 131 -99 207q-153 -225 -241 -416q-22 -46 -47.5 -68t-74.5 -22h-32q-61 0 -89.5 33t-20.5 90l153 1099q12 89 102 89h73q45 0 71 -23t21 -62 l-94 -673q82 175 216.5 356t277.5 325q42 42 79.5 59.5t82.5 17.5h77z" glyph-name="K" unicode="K"/><glyph d="M895 -27q-83 0 -237.5 47.5t-229.5 47.5q-56 0 -106 -18t-87 -36.5t-65 -18.5q-41 0 -67 22t-26 64q0 40 27.5 79t59 80.5t37.5 83.5l71 513q38 269 158.5 384t323.5 115q164 0 264 -68t100 -197q0 -74 -34 -123t-106 -49q-55 0 -86 29.5t-36 79.5q-3 38 -29 62t-81.5 24 t-95 -31t-73.5 -120.5t-57 -245.5l-45 -324q-8 -49 -33 -93q26 7 60 7q89 0 213 -39.5t201 -39.5q37 0 72 6t45 6q67 0 67 -86q0 -77 -55 -119t-150 -42z" glyph-name="L" unicode="L"/><glyph d="M1019 -26q-91 0 -135 67.5t-28 180.5l92 647q18 126 12 166.5t-40 40.5q-61 0 -105.5 -133.5t-89.5 -446.5l-58 -407q-12 -89 -101 -89h-30q-48 0 -71.5 27.5t-15.5 75.5l109 766q17 126 10 166.5t-42 40.5q-62 0 -103.5 -131t-87.5 -450l-59 -406q-14 -89 -105 -89h-47 q-49 0 -73.5 27.5t-17.5 75.5l158 1119q13 89 105 89h21q48 0 72 -27.5t20 -76.5l-21 -191q52 176 112.5 246.5t134.5 70.5q78 0 118.5 -75.5t41.5 -241.5q51 178 114 247.5t143 69.5q101 0 143.5 -89t17.5 -253l-103 -699q-10 -60 -1.5 -89.5t36.5 -23.5q18 4 26.5 -14 t2.5 -54q-8 -56 -44.5 -96.5t-110.5 -40.5z" glyph-name="M" unicode="M"/><glyph d="M849 0q-39 0 -62.5 17.5t-46.5 52.5q-81 128 -157 299t-128 354l-88 -633q-13 -90 -104 -90h-73q-49 0 -73 27t-17 76l157 1118q12 90 102 90h119q39 0 68 -18t29 -51q0 -197 67.5 -434.5t171.5 -459.5l122 873q12 90 102 90h73q49 0 73 -27.5t17 -76.5l-157 -1117 q-12 -90 -102 -90h-93z" glyph-name="N" unicode="N"/><glyph d="M568 -26q-251 0 -366.5 174.5t-68.5 515.5q46 334 200 503t401 169q252 0 367.5 -174t66.5 -517q-46 -332 -199.5 -501.5t-400.5 -169.5zM392 664q-15 -101 -9 -175.5t23 -124.5t48.5 -79.5t66.5 -42t79 -12.5q253 0 309 415q59 435 -208 435q-253 1 -309 -416z" glyph-name="O" unicode="O"/><glyph d="M252 0q-45 0 -71 23t-21 62l82 593q26 187 68 275.5t125 119.5h-175q-63 0 -93.5 32.5t-23.5 90.5q15 115 132 115h422q261 0 384.5 -106t123.5 -300q0 -100 -32 -186t-94 -151.5t-162 -103t-226 -37.5h-218l-46 -337q-12 -90 -103 -90h-72zM504 651h120q94 0 160 17.5 t100.5 50t48.5 70t14 85.5q0 111 -71 155t-223 44h-53q-31 -38 -44.5 -90t-25.5 -134q-1 -12 -2 -19z" glyph-name="P" unicode="P"/><glyph d="M392 -6q-68 8 -123.5 55.5t-94 132.5t-50 206t8.5 276q46 334 200 503t401 169q252 0 367.5 -174t66.5 -517q-44 -317 -189 -488l54 -98q19 -35 2.5 -60t-60.5 -25h-103q-50 0 -75 44l-242 431q-20 35 -3 60t61 25h104q53 0 78 -45l49 -88q45 94 65 244q59 435 -208 435 q-253 0 -309 -416q-25 -179 9 -277t110 -144q6 -4 16 -10.5t15 -9.5t12 -9t11 -10t8.5 -11t6 -14t1.5 -16t-2 -21q-5 -27 -17.5 -53t-34 -50.5t-57 -37t-78.5 -7.5z" glyph-name="Q" unicode="Q"/><glyph d="M143 0q-59 0 -88.5 36.5t-21.5 103.5l54 422q26 199 83.5 348t142 242t190.5 138.5t233 45.5q202 0 314 -105.5t112 -278.5q0 -166 -104 -283t-279 -156l292 -411q38 -55 8 -96.5t-100 -41.5h-9q-58 0 -89 21t-61 66l-318 475q-28 43 -21 85q12 78 102 89 q171 18 246.5 72.5t75.5 155.5q0 91 -50.5 130.5t-127.5 39.5q-84 0 -151.5 -46.5t-113 -131.5t-75 -191t-45.5 -239l-44 -363q-7 -67 -37 -97t-86 -30h-32z" glyph-name="R" unicode="R"/><glyph d="M568 -26q-218 0 -350 66t-132 160q0 59 49 88.5t111 5.5q183 -86 342 -86q102 0 157.5 32.5t55.5 97.5q0 43 -28.5 83t-73 72t-98.5 66t-108.5 73.5t-99 84.5t-72.5 109t-28 139q0 116 61 201.5t159 127.5t217 42q112 0 208 -36t159 -111.5t63 -176.5q0 -75 -35 -119.5 t-111 -44.5q-92 0 -92 77q0 85 -51 131t-143 46q-81 0 -130.5 -36t-49.5 -102q0 -48 29 -91t75 -77t102.5 -68.5t112.5 -74t102 -84.5t75 -109t29 -138q0 -170 -130.5 -259t-374.5 -89z" glyph-name="S" unicode="S"/><glyph d="M666 0q-47 0 -72.5 26t-15.5 76l180 940q6 31 -29 31h-244q-54 0 -74.5 -17t-15.5 -54q6 -51 -23.5 -76.5t-77.5 -25.5q-76 0 -120.5 59.5t-44.5 137.5q0 40 13 75.5t40 68t76.5 51.5t115.5 19h435q75 0 152 10t97 10q65 0 102.5 -35.5t37.5 -95.5q0 -38 -17.5 -64 t-44 -42t-54 -31.5t-50.5 -45t-32 -70.5l-158 -849q-10 -51 -35.5 -74.5t-70.5 -23.5h-70z" glyph-name="T" unicode="T"/><glyph d="M497 -26q-202 0 -300.5 122t-66.5 351l108 774q13 90 103 90h73q49 0 72.5 -28t17.5 -76l-104 -738q-16 -119 26.5 -179t134.5 -60q91 0 148 59.5t73 179.5l105 752q13 90 103 90h73q49 0 72.5 -28t17.5 -76l-122 -871q-11 -76 6 -113.5t65 -31.5q61 7 61 -67 q0 -62 -41.5 -100t-101.5 -38q-73 0 -117.5 48.5t-46.5 123.5q-118 -184 -359 -184z" glyph-name="U" unicode="U"/><glyph d="M428 0q-94 0 -103 91l-110 1080q-6 62 23 99t89.5 43t96 -24.5t41.5 -92.5l93 -914q2 -14 16 -15h7q76 48 148.5 153t122.5 236t72 276t-3 273q-11 59 18 82.5t88 23.5q128 0 153 -137q33 -178 -28 -408t-185.5 -425t-268.5 -278q-109 -63 -172 -63h-98z" glyph-name="V" unicode="V"/><glyph d="M266 -26q-111 0 -161.5 90t-25.5 252l134 902q13 90 104 90h49q49 0 73.5 -28t17.5 -77l-111 -766q-17 -126 -10.5 -166.5t41.5 -40.5q61 0 106 134.5t89 446.5l14 88q12 89 100 89h28q49 0 71.5 -27t16.5 -76l-64 -448q-17 -126 -10 -166.5t43 -40.5q60 0 108.5 127 t72 297.5t23.5 333.5q0 120 -20 217q-11 56 21.5 81t85.5 25q65 0 100 -32.5t49 -98.5q13 -69 14 -186q0 -140 -14.5 -277.5t-48 -273.5t-83 -239t-125 -166.5t-169.5 -63.5q-227 0 -218 279q-45 -150 -128.5 -214.5t-172.5 -64.5z" glyph-name="W" unicode="W"/><glyph d="M894 0q-52 0 -76 47l-192 391l-298 -391q-37 -47 -90 -47h-139q-42 0 -52.5 24t16.5 60l448 588l-273 555q-17 36 0 60t59 24h124q53 0 77 -47l181 -370l282 370q37 47 90 47h138q42 0 52.5 -24t-16.5 -60l-431 -567l283 -576q17 -36 0 -60t-59 -24h-124z" glyph-name="X" unicode="X"/><glyph d="M515 -26q-103 0 -186.5 19.5t-123.5 43.5q-35 20 -47.5 61t3.5 79q15 39 52.5 57t75.5 7q123 -36 218 -36q61 0 114.5 13t103 42.5t83.5 83t45 127.5l35 216q-63 -119 -159 -183.5t-212 -64.5q-148 0 -224 100t-45 281l68 402q13 89 103 89h65q46 0 73 -23t20 -62 l-58 -338q-18 -113 11.5 -171.5t100.5 -58.5q112 0 201 144t123 393q16 116 143 116q65 0 99.5 -32t25.5 -91l-107 -756q-15 -106 -60.5 -189t-105.5 -133t-137.5 -81t-149 -43t-148.5 -12z" glyph-name="Y" unicode="Y"/><glyph d="M880 -41q-74 0 -230.5 47t-253.5 47q-103 0 -212 -51q-48 -24 -80 -5.5t-25 73.5l6 46q10 75 54 124l749 833h-541q-49 0 -72.5 27t-17.5 77l5 44q12 90 105 90h737q50 0 73.5 -28t16.5 -76l-9 -69q-7 -62 -53 -114l-697 -770q40 11 90 11q73 0 204 -39t201 -39 q41 0 81 9.5t45 9.5q31 0 23 -38l-14 -81q-24 -128 -185 -128z" glyph-name="Z" unicode="Z"/><glyph d="M304 -223q-111 0 -95 109l222 1572q15 111 125 111h477q79 0 69 -79l-9 -57q-10 -79 -89 -79h-278q-49 0 -57 -49l-179 -1264q-4 -24 8 -37t36 -13h277q79 0 69 -78l-9 -58q-12 -78 -90 -78h-477z" glyph-name="bracketleft" unicode="["/><glyph d="M815 0q-55 0 -75 53l-418 1176q-13 36 5 59t58 23h102q55 0 75 -54l418 -1175q13 -36 -5 -59t-57 -23h-103z" glyph-name="backslash" unicode="\"/><glyph d="M274 -223q-80 0 -67 78l8 58q10 78 90 78h278q48 0 56 50l178 1264q4 24 -7.5 36.5t-35.5 12.5h-277q-80 0 -68 79l8 57q10 79 89 79h479q111 0 94 -111l-221 -1572q-16 -110 -125 -109h-479z" glyph-name="bracketright" unicode="]"/><glyph d="M242 464q-50 0 -66 32t10 81l389 670q36 63 112 64h97q81 0 105 -79l200 -663q14 -48 -4.5 -76.5t-68.5 -28.5h-46q-82 0 -105 80l-158 532l-304 -547q-36 -66 -111 -65h-50z" glyph-name="asciicircum" unicode="^"/><glyph d="M140 -212q-58 0 -86.5 28t-21.5 79q14 105 122 105h792q59 0 88 -27.5t22 -77.5q-15 -106 -123 -107h-793z" glyph-name="underscore" unicode="_"/><glyph d="M804 1215q-76 0 -118 71l-103 170q-19 33 -4.5 55t54.5 22h69q35 0 67 -19t51 -52l103 -169q19 -32 4.5 -55t-54.5 -23h-69z" glyph-name="grave" unicode="`"/><glyph d="M451 -26q-142 0 -230.5 105t-88.5 309q0 100 22.5 194t70.5 177t117 144.5t167.5 97t215.5 35.5q164 0 276 -60.5t99 -147.5q-9 -54 -57 -77t-116 5q-109 47 -226 47q-80 0 -142 -32t-99 -85.5t-56 -118.5t-19 -137q0 -119 44.5 -172t110.5 -53q159 0 279 312 q26 65 61.5 95t93.5 30q61 0 90 -43t17 -120l-29 -212q-5 -33 -7.5 -62t-2.5 -44t0.5 -37t0.5 -29q0 -51 -18 -73t-77 -22q-159 0 -144 179l5 60q-63 -130 -154.5 -197.5t-203.5 -67.5z" glyph-name="a" unicode="a"/><glyph d="M480 -26q-187 0 -299 65q-74 41 -60 129l150 1054q13 89 103 89h63q50 0 74.5 -28t15.5 -76l-37 -256q139 85 295 85q168 0 264 -100t96 -294q0 -132 -46.5 -252.5t-130.5 -213t-211 -147.5t-277 -55zM385 244q47 -36 141 -36q113 0 199.5 56.5t130 145.5t43.5 193 q0 202 -179 202q-144 0 -266 -100z" glyph-name="b" unicode="b"/><glyph d="M682 -26q-151 0 -269 53.5t-189.5 164t-71.5 263.5q0 85 22 167.5t68.5 157.5t112.5 132t161 90.5t207 33.5q111 0 196 -31.5t138 -103t53 -172.5q0 -83 -35.5 -137t-109.5 -54q-49 0 -80 22.5t-31 60.5q0 12 6 34.5t6 36.5q0 53 -47 79.5t-120 26.5q-61 0 -111.5 -19.5 t-84 -52t-56.5 -75t-33 -86.5t-10 -90q0 -138 90.5 -211.5t237.5 -73.5q95 0 221 44q39 13 61.5 -5t15.5 -58l-9 -57q-10 -62 -65 -86q-126 -54 -274 -54z" glyph-name="c" unicode="c"/><glyph d="M431 -26q-152 0 -239 101t-87 292q0 178 73 330t208.5 245.5t304.5 93.5q130 0 204 -46l32 231q13 90 103 90h56q49 0 73.5 -28t17.5 -76l-133 -940q-5 -33 -7 -62t-2 -43.5t0.5 -35t0.5 -25.5q0 -55 -18.5 -78t-77.5 -23q-31 0 -55 6t-46.5 22t-34 42.5t-17.5 68 t5 100.5l63 460q6 47 -37 75.5t-121 28.5q-105 0 -184 -56t-117.5 -142t-38.5 -186q0 -214 188 -214q50 0 113 20q29 11 39 5.5t3 -43.5l-7 -46q-8 -62 -53 -99q-82 -68 -209 -68z" glyph-name="d" unicode="d"/><glyph d="M650 -26q-240 0 -372 125t-132 336q0 163 78 300.5t214.5 219t300.5 81.5t254.5 -77t90.5 -191q0 -55 -22 -108t-69 -106.5t-133 -102.5t-203 -84q-77 -24 -123 -11t-59 59q-12 40 7.5 71.5t67.5 44.5q297 81 297 197q0 40 -34.5 66.5t-98.5 26.5q-58 0 -116 -25 t-105.5 -70t-77 -116t-29.5 -156q0 -127 72.5 -198.5t223.5 -71.5q126 0 230 50q94 44 137 -23q25 -36 14 -75t-59 -67q-151 -95 -354 -95z" glyph-name="e" unicode="e"/><glyph d="M574 -289q-189 0 -285 114t-67 296l56 343q14 87 19 115q-56 2 -85.5 32t-22.5 86q12 93 108 94h43q39 168 83.5 283t93.5 177t98 87.5t106 25.5q73 0 108 -35t35 -86q0 -42 -24.5 -77.5t-69.5 -52.5q-44 -15 -85.5 -82.5t-85.5 -239.5h448q49 0 72.5 -27.5t16.5 -75.5 l-3 -21q-12 -88 -103 -88h-274q114 -82 184 -197t70 -254q0 -187 -123 -302t-313 -115zM470 84q-11 -74 17.5 -115.5t94.5 -41.5q77 0 135 52.5t58 148.5q0 103 -68 200.5t-169 173.5q-3 -14 -27 -158z" glyph-name="f" unicode="f"/><glyph d="M506 -219q-170 0 -295 55q-41 17 -56 55t4 80q17 40 53.5 53.5t76.5 -0.5q100 -31 207 -31q260 0 292 231l18 121q-60 -93 -136 -131t-174 -38q-161 0 -251.5 89t-90.5 257q0 80 20.5 154.5t64.5 140t107 114t153.5 77t197.5 28.5q109 0 203.5 -27t149 -75t45.5 -105 q-8 -52 -57.5 -76t-109.5 -1q-133 51 -256 51q-131 0 -198.5 -72t-67.5 -173q0 -85 46.5 -128.5t121.5 -43.5q146 0 260 182q46 74 125 74q67 0 97 -43t19 -120l-40 -283q-13 -93 -50 -166.5t-87.5 -119.5t-116.5 -76t-133 -41.5t-142 -11.5z" glyph-name="g" unicode="g"/><glyph d="M195 0q-49 0 -73 27.5t-18 75.5l158 1119q12 89 103 89h63q49 0 73 -28t17 -76l-93 -655l24 44q125 227 234.5 334t231.5 107q116 0 174 -85.5t35 -223.5l-76 -461q-5 -33 -8 -62t-3 -43.5t0.5 -34t0.5 -26.5q0 -53 -22 -77t-82 -24q-190 0 -151 239l57 330 q23 134 17 170q-5 43 -39 43q-18 0 -38.5 -12.5t-44.5 -39.5t-46.5 -57t-51.5 -77.5t-52.5 -87.5t-55.5 -100.5t-54.5 -103.5t-57 -109.5t-55.5 -105.5q-27 -48 -50 -68.5t-65 -20.5h-52z" glyph-name="h" unicode="h"/><glyph d="M698 1167q-67 0 -113.5 47t-46.5 113.5t47 113.5t113.5 47t113 -47t46.5 -114q0 -66 -47 -113t-113 -47zM176 894q14 99 109 99h261q117 0 171 -64.5t35 -178.5l-54 -317q-9 -70 -3.5 -115.5t30 -71.5t52 -36t64.5 -10q68 0 157 40q42 18 75.5 10t51.5 -42 q18 -31 13 -70.5t-36 -64.5q-49 -40 -128 -69.5t-180 -29.5q-65 0 -121.5 13.5t-108.5 43.5t-83.5 80.5t-46.5 123.5t3 173l46 276q8 51 -11 74t-71 23h-133q-50 0 -75 29.5t-17 83.5z" glyph-name="i" unicode="i"/><glyph d="M428 -155q-150 0 -257 53q-43 20 -61 57.5t1 82.5q16 38 51.5 51t75.5 0q98 -31 183 -31q237 0 273 272l48 354q7 52 -11.5 74.5t-71.5 22.5h-187q-50 0 -75.5 29.5t-17.5 83.5q14 99 109 99h314q116 0 169 -63.5t37 -179.5l-60 -442q-14 -108 -53.5 -191t-90.5 -133.5 t-117.5 -82.5t-128.5 -44t-130 -12zM786 1327q0 67 47 114t113.5 47t113.5 -47t47 -113.5t-47 -113.5t-114 -47q-66 0 -113 47t-47 113z" glyph-name="j" unicode="j"/><glyph d="M898 -26q-153 0 -256.5 106t-126.5 289q-9 65 27 101t109 54q92 22 146.5 72t54.5 115q0 45 -26.5 71t-76 26t-101.5 -26t-101 -76t-86.5 -132t-51.5 -185l-43 -300q-12 -89 -103 -89h-62q-49 0 -73.5 27.5t-16.5 75.5l157 1119q14 89 104 89h62q49 0 72.5 -28t17.5 -76 l-51 -363q133 180 351 180q129 0 204 -64.5t75 -182.5q0 -145 -106.5 -257t-259.5 -140q19 -83 68.5 -133t125.5 -50q18 0 34 2.5t39 9t26 7.5q33 8 60.5 -9t39.5 -51q25 -69 -46.5 -125.5t-185.5 -56.5z" glyph-name="k" unicode="k"/><glyph d="M664 -26q-58 0 -110 11t-101.5 37t-84 65.5t-55.5 100t-20 136.5l-98 -31q-56 -17 -91.5 7.5t-30.5 71.5l3 22q6 49 29.5 77.5t73.5 42.5l143 41l36 245q19 130 60.5 231t91 162.5t112.5 101t121.5 54.5t121.5 15q285 0 285 -302q0 -428 -595 -652q-12 -117 35.5 -169 t127.5 -52q30 0 60.5 8.5t46 15t49.5 24.5q39 19 75.5 12t57.5 -42q19 -28 13 -66.5t-41 -64.5q-48 -41 -131 -71.5t-184 -30.5zM593 648q92 41 156.5 86.5t99 92.5t48.5 92.5t14 95.5q0 121 -85 121q-71 0 -127.5 -89t-88.5 -289z" glyph-name="l" unicode="l"/><glyph d="M135 0q-49 0 -73.5 27.5t-17.5 75.5l117 822q13 89 104 89h19q49 0 73 -28t17 -76l-34 -229q37 115 71 188.5t67 108.5t60 46.5t61 11.5q33 0 57.5 -9t47 -33.5t33.5 -66t16 -105.5t-4 -153q39 117 78 194.5t76.5 113t66.5 47.5t64 12q106 0 142 -95.5t5 -295.5l-57 -346 q-13 -82 -13 -198q0 -53 -19 -77t-72 -24q-171 0 -134 239l50 331q15 91 13.5 141.5t-12.5 68t-36 17.5q-34 0 -69.5 -74t-65 -189.5t-51.5 -227.5t-36 -217q-13 -89 -101 -89h-20q-49 0 -71.5 27t-16.5 76l67 467q18 140 9 183.5t-51 43.5q-41 0 -88 -130.5t-79 -282 t-53 -295.5q-13 -89 -104 -89h-36z" glyph-name="m" unicode="m"/><glyph d="M195 0q-49 0 -73 27.5t-18 75.5l117 822q12 89 103 89h63q49 0 73 -28t17 -76l-52 -360q140 260 253.5 373.5t236.5 113.5q116 0 174 -85.5t35 -223.5l-76 -461q-5 -33 -8 -62t-3 -43.5t0.5 -34t0.5 -26.5q0 -53 -22 -77t-82 -24q-190 0 -151 239l57 330q23 134 17 170 q-5 43 -39 43q-18 0 -38.5 -12.5t-44.5 -39.5t-46.5 -57t-51.5 -77.5t-52.5 -87.5t-55.5 -100.5t-54.5 -103.5t-57 -109.5t-55.5 -105.5q-27 -48 -50 -68.5t-65 -20.5h-52z" glyph-name="n" unicode="n"/><glyph d="M608 -26q-219 0 -352 137.5t-133 361.5q0 157 65.5 285.5t183.5 203t267 74.5q49 0 92.5 -8.5t80.5 -26.5t55.5 -49.5t11.5 -74.5q-4 -23 -12.5 -39.5t-22.5 -25t-28 -13.5t-34.5 -5.5t-36.5 0t-39.5 2t-38.5 1.5q-134 0 -212.5 -87t-78.5 -226q0 -127 68 -198.5 t179 -71.5q114 0 185 70.5t71 160.5q0 45 -29 92t-29 80q0 53 37 81.5t86 28.5q81 0 132 -76.5t51 -191.5q0 -96 -37.5 -184.5t-104 -155t-165 -106t-212.5 -39.5z" glyph-name="o" unicode="o"/><glyph d="M682 52q-84 0 -143.5 30.5t-59.5 94.5q0 42 25 68.5t65 26.5q16 0 43 -10t57 -10q109 0 174.5 99t65.5 240q0 112 -44 163t-112 51q-79 0 -154 -66.5t-125 -171.5t-67 -222l-60 -420q-13 -89 -103 -89h-62q-50 0 -74 27.5t-16 76.5l141 985q12 89 103 89h62 q49 0 73.5 -28t16.5 -76l-24 -161q160 288 395 287q138 0 217.5 -98t79.5 -282q0 -167 -58 -304t-167 -218.5t-249 -81.5z" glyph-name="p" unicode="p"/><glyph d="M838 -164q-50 0 -74.5 27.5t-15.5 76.5l49 345q-63 -99 -164.5 -146t-210.5 -47q-148 0 -227 89.5t-79 254.5q0 119 41.5 226t117.5 191t195 133.5t263 49.5q169 0 284.5 -61t101.5 -147q-9 -52 -57 -75t-118 1q-129 49 -243 49q-154 0 -243.5 -93t-89.5 -217 q0 -85 43 -127.5t116 -42.5q83 0 163 56.5t137 165.5q29 52 55 74.5t76 22.5q68 0 97.5 -42.5t19.5 -120.5l-79 -554q-12 -89 -103 -89h-55z" glyph-name="q" unicode="q"/><glyph d="M946 -20q-120 0 -176.5 81.5t-32.5 231.5l74 436l-143 1q-118 1 -206 15l-61 -348q-8 -48 -41 -79.5t-86 -31.5q-60 0 -93 41.5t-21 103.5l72 403q-74 59 -73 151q0 76 44.5 123.5t118.5 47.5q63 0 107.5 -36t44.5 -89t30.5 -67t134.5 -14h317q60 0 88 -34.5t19 -87.5 l-85 -525q-7 -47 11 -77.5t60 -30.5h13.5h13.5t12.5 -0.5t12.5 -2.5t9.5 -5t8.5 -7.5t6 -11t4 -16t1 -21.5q0 -79 -53.5 -115t-130.5 -36z" glyph-name="r" unicode="r"/><glyph d="M625 -26q-119 0 -241 24.5t-201 66.5q-70 38 -93 83.5t-5 87.5q17 38 55 50t85 -5q232 -88 410 -88q123 0 176 43.5t53 108.5q0 44 -24 99t-55 102t-64.5 115t-46.5 131l-160 -225q-49 -70 -118 -62t-91 65.5t16 123.5l194 264q35 46 70.5 62.5t84.5 16.5h58 q55 0 93.5 -19t38.5 -51q0 -8 -5 -22.5t-5 -30.5q0 -47 41 -118.5t89.5 -138t89.5 -159t41 -176.5q0 -69 -27 -129.5t-82.5 -110t-152 -79t-224.5 -29.5z" glyph-name="s" unicode="s"/><glyph d="M727 -26q-53 0 -100.5 9.5t-94.5 30t-80 53t-58 81t-30 113t7 147.5l61 373h-212q-49 0 -72.5 27.5t-16.5 75.5l3 20q13 89 103 89h230l31 189q8 52 34.5 75t77.5 23h46q55 0 81 -28.5t17 -84.5l-29 -174h325q49 0 72.5 -27.5t16.5 -75.5l-3 -20q-12 -89 -103 -89h-344 l-57 -348q-37 -233 142 -233q68 0 158 40q42 18 75 10t52 -42q18 -31 12.5 -70.5t-36.5 -64.5q-49 -40 -128 -69.5t-180 -29.5z" glyph-name="t" unicode="t"/><glyph d="M345 -24q-117 0 -175 86t-35 224l77 460q5 33 7.5 62.5t2.5 43.5t-0.5 34t-0.5 26q0 53 22 77.5t83 24.5q190 0 150 -239l-56 -331q-23 -134 -18 -169q5 -43 39 -43q23 0 50.5 20.5t60.5 64t62 88.5t69.5 118t68.5 126t73.5 140.5t71.5 135.5q27 48 50.5 68.5t65.5 20.5 h52q49 0 72.5 -28t17.5 -76l-117 -821q-12 -89 -102 -89h-64q-49 0 -73 27.5t-17 75.5l53 361q-141 -260 -254 -374t-236 -114z" glyph-name="u" unicode="u"/><glyph d="M391 -26q-139 0 -196.5 62t-38.5 183l107 706q13 89 103 89h62q49 0 72.5 -28t15.5 -76l-98 -648q-5 -28 7 -42t39 -11q55 7 114 35t115 77t100.5 110.5t71.5 143.5t27 171q0 72 -22 148q-18 68 13.5 105.5t98.5 37.5q123 0 163 -146q17 -61 17 -147q0 -156 -66.5 -300 t-174.5 -246t-248 -163t-282 -61z" glyph-name="v" unicode="v"/><glyph d="M338 -26q-127 0 -194 94.5t-42 248.5l100 608q13 89 102 89h51q50 0 74 -28t15 -76l-92 -576q-8 -54 7.5 -85.5t53.5 -31.5q81 0 97 116l86 581q14 99 113 100q55 0 81.5 -31t18.5 -85l-84 -570q-7 -49 5 -80t43 -31q54 0 97.5 100t67.5 256t24 330q0 65 30.5 99.5 t90.5 34.5q121 0 121 -144q0 -166 -24 -323.5t-71.5 -293.5t-129.5 -219t-186 -83q-79 0 -132 43.5t-64 125.5h-12q-80 -169 -247 -169z" glyph-name="w" unicode="w"/><glyph d="M137 0q-58 0 -71.5 36.5t29.5 83.5l357 388l-247 386q-30 47 -7 83.5t82 36.5h70q73 0 106 -53l168 -265l242 265q47 53 120 53h74q58 0 71.5 -36.5t-29.5 -83.5l-357 -388l246 -386q30 -47 7.5 -83.5t-80.5 -36.5h-72q-72 0 -105 53l-169 264l-241 -264 q-47 -53 -120 -53h-74z" glyph-name="x" unicode="x"/><glyph d="M838 -165q-50 0 -81.5 26t-31.5 77q0 24 17 98t28 154l42 293q-159 -358 -413 -358q-130 0 -200 80.5t-45 228.5l80 491q14 89 104 89h62q49 0 74 -28t16 -76l-69 -416q-11 -65 13.5 -97.5t69.5 -32.5q77 0 161.5 104t139 230t68.5 218l1 9q14 89 104 89h61 q50 0 74.5 -28t15.5 -76l-116 -822q-11 -78 -30.5 -131t-45.5 -78t-48.5 -34.5t-50.5 -9.5z" glyph-name="y" unicode="y"/><glyph d="M932 -26q-79 0 -235.5 54t-233.5 54q-49 0 -94.5 -15.5t-73.5 -33.5t-59 -33t-56 -15q-33 0 -51.5 25.5t-11.5 67.5l6 38q11 80 72 133l629 553h-520q-49 0 -72.5 27t-16.5 75l3 21q12 89 101 89h708q58 0 86.5 -29.5t21.5 -82.5l-6 -32q-11 -80 -71 -133l-526 -464 q17 4 46 5q62 0 196 -42.5t208 -42.5q40 0 69.5 9.5t34.5 9.5q27 0 23 -29l-15 -81q-24 -128 -162 -128z" glyph-name="z" unicode="z"/><glyph d="M441 -223q-79 0 -129.5 46.5t-36.5 147.5l67 473q4 26 -13 37l-255 162q-10 7 -7 29t15 29l300 162q20 11 25 38l65 472q10 70 47.5 116t81.5 63t92 17h417q30 0 27 -31l-22 -150q-1 -13 -10.5 -22t-24.5 -9h-271q-33 0 -55 -17.5t-26 -49.5l-63 -457q-3 -25 -24 -33 l-262 -127l226 -127q17 -9 15 -33l-65 -459q-4 -32 13 -49t49 -17h271q30 0 26 -31l-21 -150q-1 -13 -11 -21.5t-24 -8.5h-417z" glyph-name="braceleft" unicode="{"/><glyph d="M472 -184q-69 0 -59 69l215 1530q9 70 80 70h118q70 0 61 -70l-216 -1530q-8 -70 -80 -69h-119z" glyph-name="bar" unicode="|"/><glyph d="M198 -223q-30 0 -27 30l22 150q1 13 10.5 22t23.5 9h271q33 0 54.5 17.5t26.5 48.5l64 459q3 24 24 33l262 127l-227 127q-17 8 -14 33l65 457q4 32 -13 49.5t-50 17.5h-270q-30 0 -27 31l22 150q1 13 10.5 22t24.5 9h416q36 0 67 -10.5t57 -32t37.5 -61t4.5 -92.5 l-66 -472q-4 -27 12 -38l256 -162q10 -7 7 -29t-15 -29l-301 -162q-19 -11 -24 -37l-66 -473q-14 -101 -78.5 -147.5t-142.5 -46.5h-416z" glyph-name="braceright" unicode="}"/><glyph d="M803 508q-75 -38 -133 6l-107 79q-34 27 -80 4l-150 -75q-38 -19 -75.5 -7t-51.5 48q-14 37 3 76.5t56 57.5l234 115q77 38 134 -6l105 -80q33 -27 79 -4l153 75q39 19 76 7t51.5 -48t-3 -75t-56.5 -58z" glyph-name="asciitilde" unicode="~"/><glyph d="M540 -321q-78 0 -122.5 53t-22.5 140l128 510q10 42 37.5 69.5t65.5 27.5h18q38 0 62 -28t23 -69l-11 -510q-1 -88 -51.5 -140.5t-126.5 -52.5zM475 837q0 84 59 142t143 58t142.5 -58t58.5 -142t-58.5 -143t-142.5 -59t-143 59t-59 143z" glyph-name="exclamdown" unicode="¡"/><glyph d="M407 -116q-76 13 -55 83l69 214q-117 57 -183.5 164t-66.5 256q0 85 22 167t68 157t111.5 132t160.5 91t205 35l58 179q22 68 99 54q79 -13 56 -83l-54 -170q108 -30 170 -102.5t62 -184.5q0 -83 -35 -137.5t-110 -54.5q-49 0 -80 22.5t-31 60.5q0 12 6.5 34.5t6.5 37.5 q0 53 -47 79t-120 26q-61 0 -112 -19.5t-84.5 -51.5t-56.5 -74.5t-32.5 -86.5t-9.5 -90q0 -142 98 -219l129 407q15 45 73 45q73 0 55 -61l-141 -444q52 -13 114 -13q95 0 221 44q39 13 61.5 -5.5t15.5 -58.5l-10 -57q-10 -62 -64 -86q-126 -53 -275 -53q-69 0 -132 12 l-61 -194q-20 -68 -101 -55z" glyph-name="cent" unicode="¢"/><glyph d="M187 495q-36 0 -53 16t-13 48q8 65 74 65h48l29 213q38 269 158.5 384t323.5 115q164 0 264 -68t100 -197q0 -74 -34 -123t-106 -49q-55 0 -86 29.5t-36 79.5q-3 38 -29 62t-81.5 24t-95 -31t-73.5 -120.5t-57 -245.5l-10 -73h326q36 0 53 -17t13 -48q-9 -65 -75 -64 h-334l-18 -122q-8 -49 -33 -93q26 7 60 7q89 0 213 -39.5t201 -39.5q37 0 72 6t45 6q67 0 67 -86q0 -77 -55 -119t-150 -42q-83 0 -237.5 47.5t-229.5 47.5q-56 0 -106 -18t-87 -36.5t-65 -18.5q-41 0 -67 22t-26 64q0 40 27.5 79t59 80.5t37.5 83.5l23 171h-37z" glyph-name="sterling" unicode="£"/><glyph d="M585 183q-145 0 -250 74l-97 -86q-55 -48 -105 7l-32 38q-48 55 7 103l102 91q-38 84 -38 183q0 177 108 322l-5 5l-64 75q-48 55 6 104l61 52q55 50 103 -6l65 -77l3 -2q126 73 270 73q145 0 251 -74l98 86q55 50 103 -6l32 -38q47 -56 -6 -105l-102 -89q38 -84 38 -184 q0 -175 -108 -320l4 -6l66 -75q45 -56 -8 -105l-59 -52q-55 -48 -104 7l-66 76l-2 3q-127 -74 -271 -74zM401 622q0 -100 58.5 -160.5t155.5 -60.5q122 0 205 89.5t83 210.5q0 100 -59 160.5t-156 60.5q-121 0 -204 -88.5t-83 -211.5z" glyph-name="currency" unicode="¤"/><glyph d="M839 0q-106 0 -90 108l4 28h-293q-55 0 -55.5 48t55.5 48h308l9 54h-287q-54 0 -54 49q0 48 54 48h303l48 305q-63 -120 -158.5 -184.5t-212.5 -64.5q-148 0 -224 100t-45 281l68 402q13 89 103 89h65q46 0 73 -23t19 -62l-57 -338q-18 -113 11.5 -171.5t100.5 -58.5 q112 0 200.5 144t123.5 393q16 116 143 116q65 0 99.5 -32t25.5 -91l-114 -805h54q55 0 55 -48q0 -49 -55 -49h-68l-8 -54h44q55 0 55.5 -48t-55.5 -48h-57l-6 -41q-12 -95 -115 -95h-67z" glyph-name="yen" unicode="¥"/><glyph d="M415 -287q-14 0 -21.5 9t-5.5 22l100 714q5 31 36 30h206q13 0 20.5 -8.5t5.5 -21.5l-100 -714q-5 -31 -34 -31h-207zM537 792l100 713q5 31 35 31h207q14 0 21 -8.5t5 -22.5l-101 -713q-5 -31 -35 -31h-206q-14 0 -21 9t-5 22z" glyph-name="brokenbar" unicode="¦"/><glyph d="M482 -389q-221 0 -334.5 92.5t-96.5 285.5q1 15 10.5 25.5t22.5 10.5h185q24 0 26 -30q6 -69 64.5 -106t160.5 -37q227 0 252 180q10 78 -34.5 120t-171.5 77q-79 23 -133 43t-120 58.5t-103 85t-57 121t-7 166.5q23 158 137 265q-37 85 -21 202q27 188 162 298t350 110 q194 0 298.5 -92t96.5 -279q-1 -15 -9.5 -24t-22.5 -9h-171q-24 0 -27 27q-5 61 -57.5 99.5t-140.5 38.5q-95 0 -156 -46.5t-72 -130.5q-20 -146 158 -193q90 -24 145 -41.5t132 -55.5t117.5 -83.5t65 -119.5t11.5 -167q-24 -170 -140 -277q40 -85 23 -207 q-29 -199 -167.5 -303t-375.5 -104zM394 684q-13 -88 35 -138.5t170 -81.5q139 -35 223 -74q60 44 72 123q12 89 -49 135.5t-207 85.5q-112 30 -182 66q-53 -44 -62 -116z" glyph-name="section" unicode="§"/><glyph d="M536.5 1254q-54.5 0 -93.5 39t-39 96q0 54 39 92.5t93.5 38.5t93.5 -38.5t39 -92.5q0 -56 -39 -95.5t-93.5 -39.5zM839 1389q0 54 38.5 92.5t93 38.5t93.5 -38.5t39 -92.5q0 -56 -39 -95.5t-93.5 -39.5t-93 39.5t-38.5 95.5z" glyph-name="dieresis" unicode="¨"/><glyph d="M572.5 94q-163.5 0 -292.5 81.5t-192 221.5t-39.5 303.5t124.5 303.5t253.5 221.5t315.5 81.5q165 0 294 -81.5t191.5 -221.5t39 -303.5t-125 -303.5t-253.5 -221.5t-315.5 -81.5zM201 700q-13 -94 11 -179.5t76 -147.5t131.5 -98t173.5 -36q191 0 342 134.5t178 326.5 q28 193 -86 327.5t-304.5 134.5t-342 -134.5t-179.5 -327.5zM366.5 700q18.5 130 120.5 219t229 89q110 0 169 -65q18 -19 -6 -44l-56 -54q-16 -16 -42 -1q-36 22 -84 21q-69 0 -121.5 -47.5t-62.5 -117.5q-9 -70 30.5 -117t107.5 -47q45 0 90 21q31 14 43 -1l41 -54 q18 -24 -7 -44q-85 -65 -189 -65q-127 0 -204 88.5t-58.5 218.5z" glyph-name="copyright" unicode="©"/><glyph d="M641 698q-135 0 -218.5 96t-83.5 240q0 169 110 289.5t267 120.5q71 0 129.5 -26t85.5 -78l12 36q11 31 33 44.5t60 13.5q42 0 64.5 -21t17.5 -57l-83 -590q-11 -68 -90 -68q-76 0 -79 72l-1 33q-37 -52 -96.5 -78.5t-127.5 -26.5zM521 1049q0 -76 48.5 -122t122.5 -46 q87 0 151 62.5t64 150.5q0 76 -49 122.5t-123 46.5q-88 0 -151 -63t-63 -151z" glyph-name="ordfeminine" unicode="ª"/><glyph d="M882 147q-26 0 -37 23l-208 383q-12 20 4 43l317 389q15 18 37 19h204q18 0 24.5 -11t-5.5 -26l-320 -392l207 -391q7 -15 1 -26t-24 -11h-200zM116 553q-12 20 4 43l317 389q15 18 37 19h204q18 0 24.5 -11t-6.5 -26l-320 -392l208 -391q7 -15 1 -26t-24 -11h-200 q-26 0 -36 23z" glyph-name="guillemotleft" unicode="«"/><glyph d="M1149 768q14 0 21 -8t5 -23l-65 -464q-1 -13 -10.5 -21.5t-24.5 -8.5h-162q-14 0 -20.5 8.5t-4.5 21.5l42 301h-771q-30 0 -27 31l19 132q5 31 35 31h963z" glyph-name="logicalnot" unicode="¬"/><glyph d="M269 545q-58 0 -86.5 28t-21.5 78q14 105 122 106h748q59 0 88 -28t22 -78q-17 -106 -124 -106h-748z" glyph-name="uni00AD" unicode="­"/><glyph d="M572.5 94q-163.5 0 -292.5 81.5t-192 221.5t-39.5 303.5t124.5 303.5t253.5 221.5t315.5 81.5q165 0 294 -81.5t191.5 -221.5t39 -303.5t-125 -303.5t-253.5 -221.5t-315.5 -81.5zM201 700q-13 -94 11 -179.5t76 -147.5t131.5 -98t173.5 -36q191 0 342 134.5t178 326.5 q28 193 -86 327.5t-304.5 134.5t-342 -134.5t-179.5 -327.5zM383 450l71 501q2 16 18 17h297q89 0 141.5 -46t39.5 -139q-11 -77 -58.5 -121.5t-117.5 -57.5l126 -150q6 -7 2.5 -14t-13.5 -7h-120q-12 0 -20 9l-125 157h-84l-22 -149q-3 -16 -17 -17h-104q-17 1 -14 17z M555 713h165q79 0 90 70q4 34 -14.5 53t-56.5 19h-164z" glyph-name="registered" unicode="®"/><glyph d="M493 1286q-36 0 -54 20t-14 55l8 52q4 34 28.5 54.5t59.5 20.5h494q36 0 53.5 -20t13.5 -55l-8 -52q-4 -34 -28.5 -54.5t-59.5 -20.5h-493z" glyph-name="macron" unicode="¯"/><glyph d="M671 692q-128 0 -209.5 80t-81.5 208q0 150 103.5 250.5t248.5 100.5q128 0 209.5 -80t81.5 -208q0 -150 -103.5 -250.5t-248.5 -100.5zM549 991q0 -56 34.5 -93.5t99.5 -37.5q77 0 124 52t47 120q0 56 -35 93.5t-99 37.5q-77 0 -124 -51t-47 -121z" glyph-name="degree" unicode="°"/><glyph d="M77 0q-30 0 -27 31l20 132q1 13 10.5 22t23.5 9h964q14 0 21.5 -9t5.5 -22l-19 -132q-5 -31 -35 -31h-964zM139 840l12 79q9 62 70 62h374l53 383q5 30 23.5 45.5t47.5 15.5h80q29 0 43 -15.5t10 -45.5l-54 -383h374q30 0 44 -16.5t10 -45.5l-12 -79q-10 -62 -70 -63 h-375l-53 -382q-8 -62 -71 -62h-79q-62 0 -53 62l53 382h-373q-30 0 -44.5 16.5t-9.5 46.5z" glyph-name="plusminus" unicode="±"/><glyph d="M129 214q-32 0 -29 33l15 102q12 91 61 159.5t117.5 107.5t149.5 68t160.5 48t145.5 37.5t110 48.5t49 72q9 59 -47.5 88.5t-164.5 29.5q-114 0 -183 -35t-94 -116q-10 -30 -35 -27l-178 23q-14 2 -21 11.5t-5 25.5q24 118 99 195t180 110.5t241 33.5q232 0 355.5 -94 t101.5 -244q-10 -74 -54 -129.5t-107 -89t-137 -58.5t-146.5 -43.5t-133.5 -38t-102 -49.5t-47 -70h632q32 0 29 -33l-20 -136q-3 -29 -33 -29z" glyph-name="uni00B2" unicode="²"/><glyph d="M595 188q-95 0 -168 8t-137 28.5t-103.5 53.5t-60 86t-14.5 124q2 31 31 31l193 5q28 0 31 -28q7 -55 62.5 -72.5t176.5 -17.5q138 0 209 27.5t80 90.5q9 57 -58 81.5t-267 26.5q-35 0 -31 33l7 99q3 29 34 29q136 1 213 14t108 36t36 63q7 56 -51 81t-168 25 q-112 0 -183.5 -30t-98.5 -106q-10 -31 -37 -25l-187 32q-30 6 -26 35q18 88 63.5 149.5t117 96.5t157.5 50t199 15q236 0 362 -74.5t105 -222.5q-23 -164 -239 -208q117 -29 172 -87.5t39 -166.5q-20 -150 -164 -216t-403 -66z" glyph-name="uni00B3" unicode="³"/><glyph d="M633 1215q-40 0 -54.5 23.5t5.5 54.5l102 169q19 33 51 52t67 19h66q40 0 55 -22t-4 -55l-104 -170q-42 -71 -118 -71h-66z" glyph-name="acute" unicode="´"/><glyph d="M163 -291q-59 0 -86.5 33.5t-17.5 91.5l152 914q5 33 7.5 61.5t3 42t0 35t-0.5 25.5q0 54 21.5 78t82.5 24q191 0 150 -239l-67 -395q-12 -66 -6 -107t37 -41q18 0 39.5 12.5t46 40t46.5 56.5t52 78t52 86.5t56 101.5t54.5 102.5t57.5 110t54 105.5q25 48 49 68.5 t66 20.5h52q49 0 72.5 -27.5t17.5 -76.5l-116 -820q-13 -90 -103 -90h-64q-49 0 -73 27.5t-17 76.5l52 358q-141 -257 -244.5 -371.5t-198.5 -114.5q-39 0 -50 14l-30 -176q-17 -104 -124 -105h-23z" glyph-name="uni00B5" unicode="µ"/><glyph d="M542 0q-14 0 -21.5 8.5t-5.5 22.5l48 343h-84q-158 0 -242 53.5t-103.5 158t0.5 257.5q17 119 47.5 201.5t85.5 144.5t140 92t204 30h293q14 0 21.5 -9t5.5 -22l-176 -1249q-5 -31 -35 -31h-178zM864 31l176 1249q5 31 35 31h179q14 0 21.5 -9t5.5 -22l-176 -1249 q-5 -31 -35 -31h-179q-14 0 -21.5 9t-5.5 22z" glyph-name="paragraph" unicode="¶"/><glyph d="M648 431q-88 0 -150 61.5t-62 149.5t62 150t150 62t149.5 -62t61.5 -150t-61.5 -149.5t-149.5 -61.5z" glyph-name="periodcentered" unicode="·"/><glyph d="M333 -442q-18 3 -16 22l14 90q4 24 25 21q46 -5 86 -2.5t67.5 20.5t27.5 46q0 33 -46.5 47t-118.5 -13q-11 -4 -18 -0.5t-5 14.5l13 94q1 15 15 24l92 79h175l-86 -71q68 -6 114 -44t46 -100q0 -86 -57.5 -145t-144.5 -78.5t-183 -3.5z" glyph-name="cedilla" unicode="¸"/><glyph d="M560 215q-28 0 -41 15.5t-9 42.5l101 690q-120 -102 -322 -109q-34 0 -31 33l15 169q3 29 34 29q176 8 333 134h208q23 0 36 -14t9 -38l-127 -901q-6 -51 -57 -51h-149z" glyph-name="uni00B9" unicode="¹"/><glyph d="M677 698q-150 0 -246 96t-96 242q0 167 120 287.5t290 120.5q148 0 243.5 -96t95.5 -242q0 -167 -119 -287.5t-288 -120.5zM519 1051q0 -77 48.5 -123.5t125.5 -46.5q90 0 150.5 62.5t60.5 147.5q0 76 -49.5 124t-127.5 48q-90 0 -149 -63t-59 -149z" glyph-name="ordmasculine" unicode="º"/><glyph d="M602 147q-18 0 -24.5 11t6.5 26l320 391l-208 392q-7 15 -1 26t24 11h199q26 0 36 -23l210 -383q12 -20 -4 -43l-319 -389q-15 -18 -37 -19h-202zM62 184l322 391l-209 392q-7 15 -1 26t24 11h198q26 0 37 -23l210 -383q12 -20 -4 -43l-320 -389q-15 -18 -36 -19h-202 q-18 0 -24.5 11t5.5 26z" glyph-name="guillemotright" unicode="»"/><glyph d="M84 538q-33 0 -29 32l17 117q3 29 32 29h1106q33 0 29 -33l-16 -117q-3 -29 -33 -28h-1106zM4 -87l87 540q3 26 33 25h197q32 0 28 -28l-61 -381h394l62 384q3 26 33 25h197q32 0 28 -28l-62 -381h140q32 0 29 -29l-22 -130q-3 -25 -32 -25h-145l-39 -250q-3 -25 -32 -24 h-197q-32 0 -29 29l39 245h-619q-32 0 -29 28zM348 1363l16 140q3 24 33 25q177 7 333 110h208q23 0 36 -11.5t9 -30.5l-127 -747q-6 -42 -57 -42h-149q-28 0 -41 13t-9 35l101 571q-121 -85 -322 -90q-15 0 -23.5 7.5t-7.5 19.5z" glyph-name="onequarter" unicode="¼"/><glyph d="M84 538q-33 0 -29 32l17 117q3 29 32 29h1106q33 0 29 -33l-16 -117q-3 -29 -33 -28h-1106zM22 -362l14 84q14 87 77.5 149.5t148.5 93.5t183 55.5t180.5 39.5t140 42.5t63.5 67.5q9 50 -47.5 74t-164.5 24q-230 0 -277 -125q-10 -26 -35 -22l-178 18q-13 1 -20.5 10 t-5.5 21q24 97 99 161.5t180 92.5t242 28q232 0 355 -78t101 -203q-11 -71 -69 -122t-135 -77t-167 -49t-165.5 -38.5t-129.5 -43.5t-61 -66h632q32 0 29 -28l-20 -113q-3 -24 -33 -23l-909 -1q-31 0 -28 28zM348 1363l16 140q3 24 33 25q177 7 333 110h208q23 0 36 -11.5 t9 -30.5l-127 -747q-6 -42 -57 -42h-149q-28 0 -41 13t-9 35l101 571q-121 -85 -322 -90q-15 0 -23.5 7.5t-7.5 19.5z" glyph-name="onehalf" unicode="½"/><glyph d="M84 538q-33 0 -29 32l17 117q3 29 32 29h1106q33 0 29 -33l-16 -117q-3 -29 -33 -28h-1106zM27 -87l87 540q3 26 32 25h197q32 0 29 -28l-62 -381h395l62 384q3 26 33 25h196q32 0 29 -28l-62 -381h140q32 0 29 -29l-22 -130q-3 -25 -33 -25h-144l-39 -250 q-3 -25 -33 -24h-196q-32 0 -29 29l39 245h-620q-31 0 -28 28zM179 1035q2 26 32 26l192 4q28 0 31 -24q7 -46 63 -60t177 -14q138 0 208.5 23t80.5 75q6 32 -18 50t-97 28t-210 11q-35 0 -32 27l7 83q3 24 34 23q136 1 213.5 12.5t108 30.5t36.5 51q7 47 -51 67t-169 20 q-112 0 -183.5 -24t-97.5 -88q-10 -25 -37 -21l-187 27q-30 5 -26 29q18 74 63 125t117 79.5t158 41t199 12.5q237 0 362.5 -61.5t103.5 -184.5q-22 -135 -238 -172q117 -25 171.5 -73.5t39.5 -137.5q-20 -124 -164.5 -179t-402.5 -55q-95 0 -168 7t-137 23.5t-103.5 44 t-60 71.5t-15.5 103z" glyph-name="threequarters" unicode="¾"/><glyph d="M537 -321q-232 0 -359.5 98.5t-101.5 284.5q10 68 36.5 119t63 82t78 54t83.5 41t78.5 36.5t64 46.5t37.5 65q17 62 100 62h55q55 0 77.5 -23t16.5 -72q-7 -57 -29 -100t-52.5 -68t-67.5 -45t-74.5 -31.5t-74.5 -26.5t-66 -30t-50 -43.5t-26 -66.5q-10 -71 43 -110 t172 -39q232 0 274 168q11 45 38 71t84 26q136 0 118 -145q-20 -165 -154.5 -259.5t-363.5 -94.5zM481 837q0 84 59 142t142 58q84 0 143 -58t59 -142q0 -85 -59 -143.5t-143 -58.5q-83 0 -142 59t-59 143z" glyph-name="questiondown" unicode="¿"/><glyph d="M105 0q-54 0 -78 34t-5 82l334 868q41 105 72.5 165.5t71 98.5t83 50.5t109.5 12.5h42q58 0 96 -10.5t66.5 -32t46.5 -67t30 -105t24 -156.5l43 -346l17 3q49 10 85.5 -6t48.5 -46t9.5 -63t-30.5 -62t-74 -38l-28 -6l34 -268q6 -51 -18.5 -79.5t-75.5 -28.5h-44 q-95 0 -107 94l-29 232l-4 -1q-283 -59 -396.5 -107.5t-146.5 -139.5v-1q-29 -77 -116 -77h-60zM391 384q55 56 142.5 87t267.5 70l-30 235q-13 105 -21 158t-18 86t-19.5 40t-27.5 7q-19 0 -32.5 -12.5t-37.5 -64.5t-64 -162zM484 1753q-19 33 -4 55t55 22h69 q35 0 66.5 -19t51.5 -52l102 -169q19 -32 5 -55t-54 -23h-69q-76 0 -118 71z" glyph-name="Agrave" unicode="À"/><glyph d="M105 0q-54 0 -78 34t-5 82l334 868q41 105 72.5 165.5t71 98.5t83 50.5t109.5 12.5h42q58 0 96 -10.5t66.5 -32t46.5 -67t30 -105t24 -156.5l43 -346l17 3q49 10 85.5 -6t48.5 -46t9.5 -63t-30.5 -62t-74 -38l-28 -6l34 -268q6 -51 -18.5 -79.5t-75.5 -28.5h-44 q-95 0 -107 94l-29 232l-4 -1q-283 -59 -396.5 -107.5t-146.5 -139.5v-1q-29 -77 -116 -77h-60zM391 384q55 56 142.5 87t267.5 70l-30 235q-13 105 -21 158t-18 86t-19.5 40t-27.5 7q-19 0 -32.5 -12.5t-37.5 -64.5t-64 -162zM639 1590l102 169q19 33 51 52t67 19h67 q40 0 54.5 -22t-4.5 -55l-104 -170q-42 -71 -117 -71h-67q-40 0 -54 23t5 55z" glyph-name="Aacute" unicode="Á"/><glyph d="M105 0q-54 0 -78 34t-5 82l334 868q41 105 72.5 165.5t71 98.5t83 50.5t109.5 12.5h42q58 0 96 -10.5t66.5 -32t46.5 -67t30 -105t24 -156.5l43 -346l17 3q49 10 85.5 -6t48.5 -46t9.5 -63t-30.5 -62t-74 -38l-28 -6l34 -268q6 -51 -18.5 -79.5t-75.5 -28.5h-44 q-95 0 -107 94l-29 232l-4 -1q-283 -59 -396.5 -107.5t-146.5 -139.5v-1q-29 -77 -116 -77h-60zM368 1579l188 202q27 28 53 38.5t66 10.5h164q40 0 63 -11t41 -38l133 -202q18 -29 6 -51t-47 -22h-123q-51 0 -85 52l-65 98q-20 32 -50 0l-92 -98q-47 -51 -98 -52h-133 q-35 0 -41.5 22t20.5 51zM391 384q55 56 142.5 87t267.5 70l-30 235q-13 105 -21 158t-18 86t-19.5 40t-27.5 7q-19 0 -32.5 -12.5t-37.5 -64.5t-64 -162z" glyph-name="Acircumflex" unicode="Â"/><glyph d="M105 0q-54 0 -78 34t-5 82l334 868q41 105 72.5 165.5t71 98.5t83 50.5t109.5 12.5h42q58 0 96 -10.5t66.5 -32t46.5 -67t30 -105t24 -156.5l43 -346l17 3q49 10 85.5 -6t48.5 -46t9.5 -63t-30.5 -62t-74 -38l-28 -6l34 -268q6 -51 -18.5 -79.5t-75.5 -28.5h-44 q-95 0 -107 94l-29 232l-4 -1q-283 -59 -396.5 -107.5t-146.5 -139.5v-1q-29 -77 -116 -77h-60zM327 1537q-13 34 3.5 69.5t53.5 53.5l219 107q72 36 126 -6l98 -74q33 -24 76 -5l143 70q38 18 72.5 5.5t47.5 -47.5q13 -34 -2 -68.5t-52 -53.5l-222 -108q-71 -35 -126 6 l-98 74q-33 26 -75 4l-142 -70q-36 -17 -72 -4t-50 47zM391 384q55 56 142.5 87t267.5 70l-30 235q-13 105 -21 158t-18 86t-19.5 40t-27.5 7q-19 0 -32.5 -12.5t-37.5 -64.5t-64 -162z" glyph-name="Atilde" unicode="Ã"/><glyph d="M105 0q-54 0 -78 34t-5 82l334 868q41 105 72.5 165.5t71 98.5t83 50.5t109.5 12.5h42q58 0 96 -10.5t66.5 -32t46.5 -67t30 -105t24 -156.5l43 -346l17 3q49 10 85.5 -6t48.5 -46t9.5 -63t-30.5 -62t-74 -38l-28 -6l34 -268q6 -51 -18.5 -79.5t-75.5 -28.5h-44 q-95 0 -107 94l-29 232l-4 -1q-283 -59 -396.5 -107.5t-146.5 -139.5v-1q-29 -77 -116 -77h-60zM391 384q55 56 142.5 87t267.5 70l-30 235q-13 105 -21 158t-18 86t-19.5 40t-27.5 7q-19 0 -32.5 -12.5t-37.5 -64.5t-64 -162zM396 1686q0 54 39 92.5t93.5 38.5t93 -38.5 t38.5 -92.5q0 -56 -38.5 -95.5t-93 -39.5t-93.5 39.5t-39 95.5zM830 1686q0 54 39 92.5t93.5 38.5t93.5 -38.5t39 -92.5q0 -56 -39 -95.5t-93.5 -39.5t-93.5 39.5t-39 95.5z" glyph-name="Adieresis" unicode="Ä"/><glyph d="M105 0q-54 0 -78 34t-5 82l334 868q41 105 72.5 165.5t71 98.5t83 50.5t109.5 12.5h42q58 0 96 -10.5t66.5 -32t46.5 -67t30 -105t24 -156.5l43 -346l17 3q49 10 85.5 -6t48.5 -46t9.5 -63t-30.5 -62t-74 -38l-28 -6l34 -268q6 -51 -18.5 -79.5t-75.5 -28.5h-44 q-95 0 -107 94l-29 232l-4 -1q-283 -59 -396.5 -107.5t-146.5 -139.5v-1q-29 -77 -116 -77h-60zM391 384q55 56 142.5 87t267.5 70l-30 235q-13 105 -21 158t-18 86t-19.5 40t-27.5 7q-19 0 -32.5 -12.5t-37.5 -64.5t-64 -162zM542 1628q0 83 58.5 142.5t144.5 59.5 q85 0 144 -59.5t59 -142.5q0 -82 -59 -142t-144 -60q-86 0 -144.5 59.5t-58.5 142.5zM680 1629.5q0 -28.5 18.5 -46t47 -17.5t47.5 18t18 45q-1 29 -19.5 46.5t-46.5 17.5q-29 0 -47 -17.5t-18 -46z" glyph-name="Aring" unicode="Å"/><glyph d="M37 0q-38 0 -51 21t3 58l495 1172q26 59 86 60h684q71 0 62 -70l-14 -98q-11 -70 -81 -70h-260l-40 -290h214q70 0 60 -69l-13 -98q-9 -71 -81 -70h-213l-43 -308h262q34 0 49 -18t10 -52l-14 -97q-9 -71 -79 -71h-460q-70 0 -60 71l27 187h-249l-81 -198 q-24 -60 -85 -60h-128zM420 477h190l79 557h-42z" glyph-name="AE" unicode="Æ"/><glyph d="M684 -26q-22 0 -58 2l-58 -47q68 -6 114 -44t46 -100q0 -86 -57.5 -145t-144.5 -79t-183 -3q-18 3 -15 22l13 90q4 24 26 21q46 -5 86 -2.5t67 20.5t27 46q0 33 -46 47t-119 -13q-11 -4 -18 -0.5t-5 14.5l14 94q1 15 14 24l92 79h6q-175 50 -266.5 195.5t-91.5 376.5 q0 114 21.5 220.5t70.5 206.5t122 174t182 118.5t243 44.5q206 0 320 -101t85 -307q-9 -69 -37.5 -97.5t-78.5 -28.5h-51q-101 0 -89 91q7 53 -6.5 91t-42.5 58t-62.5 29t-73.5 9q-74 0 -133 -31t-96.5 -80.5t-62 -116t-35 -130.5t-10.5 -129q0 -380 372 -380q110 0 215 23 q35 7 52 -12.5t11 -55.5l-8 -57q-5 -38 -41 -66t-89 -42.5t-108.5 -21.5t-112.5 -7z" glyph-name="Ccedilla" unicode="Ç"/><glyph d="M641 -26q-221 0 -346 103.5t-125 281.5q0 155 91.5 259t230.5 128q-68 34 -104.5 97.5t-36.5 143.5q0 159 133 254t352 95q140 0 227 -42.5t87 -131.5q0 -32 -8.5 -70t-25.5 -77t-49 -65t-72 -26q-26 0 -45.5 10.5t-19.5 31.5q0 15 2.5 39t2.5 42q0 67 -112 66 q-100 0 -158 -43.5t-58 -116.5q0 -58 39.5 -98.5t120.5 -47.5q101 -9 93 -106q-4 -49 -34.5 -74.5t-82.5 -25.5q-147 0 -222 -51.5t-75 -146.5q0 -87 64 -137.5t195 -50.5q75 0 161.5 15t132.5 29q43 13 65.5 -10.5t21.5 -68.5q-1 -85 -85 -131q-56 -31 -155.5 -53 t-204.5 -22zM525 1753q-19 33 -4 55t54 22h70q35 0 66.5 -19t51.5 -52l102 -169q19 -32 5 -55t-54 -23h-70q-76 0 -117 71z" glyph-name="Egrave" unicode="È"/><glyph d="M641 -26q-221 0 -346 103.5t-125 281.5q0 155 91.5 259t230.5 128q-68 34 -104.5 97.5t-36.5 143.5q0 159 133 254t352 95q140 0 227 -42.5t87 -131.5q0 -32 -8.5 -70t-25.5 -77t-49 -65t-72 -26q-26 0 -45.5 10.5t-19.5 31.5q0 15 2.5 39t2.5 42q0 67 -112 66 q-100 0 -158 -43.5t-58 -116.5q0 -58 39.5 -98.5t120.5 -47.5q101 -9 93 -106q-4 -49 -34.5 -74.5t-82.5 -25.5q-147 0 -222 -51.5t-75 -146.5q0 -87 64 -137.5t195 -50.5q75 0 161.5 15t132.5 29q43 13 65.5 -10.5t21.5 -68.5q-1 -85 -85 -131q-56 -31 -155.5 -53 t-204.5 -22zM680 1590l102 169q19 33 51 52t67 19h67q40 0 54.5 -22t-4.5 -55l-104 -170q-42 -71 -117 -71h-67q-40 0 -54 23t5 55z" glyph-name="Eacute" unicode="É"/><glyph d="M641 -26q-221 0 -346 103.5t-125 281.5q0 155 91.5 259t230.5 128q-68 34 -104.5 97.5t-36.5 143.5q0 159 133 254t352 95q140 0 227 -42.5t87 -131.5q0 -32 -8.5 -70t-25.5 -77t-49 -65t-72 -26q-26 0 -45.5 10.5t-19.5 31.5q0 15 2.5 39t2.5 42q0 67 -112 66 q-100 0 -158 -43.5t-58 -116.5q0 -58 39.5 -98.5t120.5 -47.5q101 -9 93 -106q-4 -49 -34.5 -74.5t-82.5 -25.5q-147 0 -222 -51.5t-75 -146.5q0 -87 64 -137.5t195 -50.5q75 0 161.5 15t132.5 29q43 13 65.5 -10.5t21.5 -68.5q-1 -85 -85 -131q-56 -31 -155.5 -53 t-204.5 -22zM409 1579l188 202q27 28 53 38.5t66 10.5h164q40 0 63 -11t41 -38l133 -202q18 -29 6 -51t-47 -22h-123q-51 0 -85 52l-65 98q-20 32 -50 0l-93 -98q-47 -51 -97 -52h-133q-35 0 -41.5 22t20.5 51z" glyph-name="Ecircumflex" unicode="Ê"/><glyph d="M641 -26q-221 0 -346 103.5t-125 281.5q0 155 91.5 259t230.5 128q-68 34 -104.5 97.5t-36.5 143.5q0 159 133 254t352 95q140 0 227 -42.5t87 -131.5q0 -32 -8.5 -70t-25.5 -77t-49 -65t-72 -26q-26 0 -45.5 10.5t-19.5 31.5q0 15 2.5 39t2.5 42q0 67 -112 66 q-100 0 -158 -43.5t-58 -116.5q0 -58 39.5 -98.5t120.5 -47.5q101 -9 93 -106q-4 -49 -34.5 -74.5t-82.5 -25.5q-147 0 -222 -51.5t-75 -146.5q0 -87 64 -137.5t195 -50.5q75 0 161.5 15t132.5 29q43 13 65.5 -10.5t21.5 -68.5q-1 -85 -85 -131q-56 -31 -155.5 -53 t-204.5 -22zM437 1686q0 54 39 92.5t93.5 38.5t93 -38.5t38.5 -92.5q0 -56 -38.5 -95.5t-93 -39.5t-93.5 39.5t-39 95.5zM871 1686q0 54 39 92.5t93.5 38.5t93.5 -38.5t39 -92.5q0 -56 -39 -95.5t-93.5 -39.5t-93.5 39.5t-39 95.5z" glyph-name="Edieresis" unicode="Ë"/><glyph d="M489 -26q-45 0 -84.5 6.5t-81 21t-67 46t-25.5 76.5q0 47 29 79.5t93 32.5q23 0 70.5 -6.5t72.5 -6.5q139 0 213 155q57 120 101 418q8 52 25 169l5 36q7 55 -9.5 76t-73.5 21q-115 0 -205.5 -60t-143.5 -168q-13 -24 -21 -36t-23.5 -29t-35.5 -24t-46 -7q-55 0 -84 33.5 t-29 87.5q0 72 46 149t125.5 142t198.5 107.5t252 42.5h47q175 0 232.5 -83t32.5 -267l-5 -37q-24 -168 -48.5 -290.5t-59.5 -239t-79.5 -194t-104.5 -136.5t-139 -87t-178 -28zM525 1753q-19 33 -4 55t54 22h70q35 0 66.5 -19t51.5 -52l102 -169q19 -32 5 -55t-54 -23h-70 q-76 0 -117 71z" glyph-name="Igrave" unicode="Ì"/><glyph d="M489 -26q-45 0 -84.5 6.5t-81 21t-67 46t-25.5 76.5q0 47 29 79.5t93 32.5q23 0 70.5 -6.5t72.5 -6.5q139 0 213 155q57 120 101 418q8 52 25 169l5 36q7 55 -9.5 76t-73.5 21q-115 0 -205.5 -60t-143.5 -168q-13 -24 -21 -36t-23.5 -29t-35.5 -24t-46 -7q-55 0 -84 33.5 t-29 87.5q0 72 46 149t125.5 142t198.5 107.5t252 42.5h47q175 0 232.5 -83t32.5 -267l-5 -37q-24 -168 -48.5 -290.5t-59.5 -239t-79.5 -194t-104.5 -136.5t-139 -87t-178 -28zM680 1590l102 169q19 33 51 52t67 19h67q40 0 54.5 -22t-4.5 -55l-104 -170q-42 -71 -117 -71 h-67q-40 0 -54 23t5 55z" glyph-name="Iacute" unicode="Í"/><glyph d="M489 -26q-45 0 -84.5 6.5t-81 21t-67 46t-25.5 76.5q0 47 29 79.5t93 32.5q23 0 70.5 -6.5t72.5 -6.5q139 0 213 155q57 120 101 418q8 52 25 169l5 36q7 55 -9.5 76t-73.5 21q-115 0 -205.5 -60t-143.5 -168q-13 -24 -21 -36t-23.5 -29t-35.5 -24t-46 -7q-55 0 -84 33.5 t-29 87.5q0 72 46 149t125.5 142t198.5 107.5t252 42.5h47q175 0 232.5 -83t32.5 -267l-5 -37q-24 -168 -48.5 -290.5t-59.5 -239t-79.5 -194t-104.5 -136.5t-139 -87t-178 -28zM409 1579l188 202q27 28 53 38.5t66 10.5h164q40 0 63 -11t41 -38l133 -202q18 -29 6 -51 t-47 -22h-123q-51 0 -85 52l-65 98q-20 32 -50 0l-93 -98q-47 -51 -97 -52h-133q-35 0 -41.5 22t20.5 51z" glyph-name="Icircumflex" unicode="Î"/><glyph d="M489 -26q-45 0 -84.5 6.5t-81 21t-67 46t-25.5 76.5q0 47 29 79.5t93 32.5q23 0 70.5 -6.5t72.5 -6.5q139 0 213 155q57 120 101 418q8 52 25 169l5 36q7 55 -9.5 76t-73.5 21q-115 0 -205.5 -60t-143.5 -168q-13 -24 -21 -36t-23.5 -29t-35.5 -24t-46 -7q-55 0 -84 33.5 t-29 87.5q0 72 46 149t125.5 142t198.5 107.5t252 42.5h47q175 0 232.5 -83t32.5 -267l-5 -37q-24 -168 -48.5 -290.5t-59.5 -239t-79.5 -194t-104.5 -136.5t-139 -87t-178 -28zM437 1686q0 54 39 92.5t93.5 38.5t93 -38.5t38.5 -92.5q0 -56 -38.5 -95.5t-93 -39.5 t-93.5 39.5t-39 95.5zM871 1686q0 54 39 92.5t93.5 38.5t93.5 -38.5t39 -92.5q0 -56 -39 -95.5t-93.5 -39.5t-93.5 39.5t-39 95.5z" glyph-name="Idieresis" unicode="Ï"/><glyph d="M243 0q-51 0 -75.5 28t-16.5 78l67 482h-117q-27 0 -41.5 14t-14.5 38q0 25 15 38.5t41 13.5h131l8 48q16 115 77 182.5t153 67.5q37 0 51.5 -11.5t10.5 -35.5l-33 -251h146q27 0 41 -13.5t14 -38.5q0 -24 -14 -38t-41 -14h-161l-47 -350h60q95 0 169 30t121 78.5 t77 116.5t42 138t12 148q0 75 -13 129.5t-45 101t-93 70t-152 23.5h-355q-63 0 -93.5 32.5t-23.5 90.5q15 115 132 115h408q110 0 196 -29.5t142 -78.5t93 -119.5t52.5 -149t15.5 -169.5q0 -116 -24 -223t-80 -206.5t-138.5 -173.5t-207 -118t-277.5 -44h-212z" glyph-name="Eth" unicode="Ð"/><glyph d="M849 0q-39 0 -62.5 17.5t-46.5 52.5q-81 128 -157 299t-128 354l-88 -633q-13 -90 -104 -90h-73q-49 0 -73 27t-17 76l157 1118q12 90 102 90h119q39 0 68 -18t29 -51q0 -197 67.5 -434.5t171.5 -459.5l122 873q12 90 102 90h73q49 0 73 -27.5t17 -76.5l-157 -1117 q-12 -90 -102 -90h-93zM370 1558q-13 34 3.5 69.5t53.5 52.5l219 108q72 36 126 -6l98 -75q33 -24 76 -4l143 70q38 18 72.5 5t47.5 -47t-2 -69t-52 -53l-222 -109q-71 -35 -126 6l-98 74q-33 26 -75 4l-142 -70q-36 -17 -72 -3.5t-50 47.5z" glyph-name="Ntilde" unicode="Ñ"/><glyph d="M568 -26q-251 0 -366.5 174.5t-68.5 515.5q46 334 200 503t401 169q252 0 367.5 -174t66.5 -517q-46 -332 -199.5 -501.5t-400.5 -169.5zM392 664q-15 -101 -9 -175.5t23 -124.5t48.5 -79.5t66.5 -42t79 -12.5q253 0 309 415q59 435 -208 435q-253 1 -309 -416zM535 1815 q-19 33 -4.5 54.5t54.5 21.5h69q35 0 67 -19t51 -51l102 -169q19 -32 5 -55t-54 -23h-69q-76 0 -118 71z" glyph-name="Ograve" unicode="Ò"/><glyph d="M568 -26q-251 0 -366.5 174.5t-68.5 515.5q46 334 200 503t401 169q252 0 367.5 -174t66.5 -517q-46 -332 -199.5 -501.5t-400.5 -169.5zM392 664q-15 -101 -9 -175.5t23 -124.5t48.5 -79.5t66.5 -42t79 -12.5q253 0 309 415q59 435 -208 435q-253 1 -309 -416zM689 1652 l103 169q19 33 50.5 51.5t66.5 18.5h67q40 0 55 -22t-5 -54l-103 -170q-42 -71 -118 -71h-67q-40 0 -54 23t5 55z" glyph-name="Oacute" unicode="Ó"/><glyph d="M568 -26q-251 0 -366.5 174.5t-68.5 515.5q46 334 200 503t401 169q252 0 367.5 -174t66.5 -517q-46 -332 -199.5 -501.5t-400.5 -169.5zM392 664q-15 -101 -9 -175.5t23 -124.5t48.5 -79.5t66.5 -42t79 -12.5q253 0 309 415q59 435 -208 435q-253 1 -309 -416zM417 1640 l188 202q27 28 53 38.5t66 10.5h164q40 0 63 -10.5t41 -38.5l133 -202q18 -29 6 -50.5t-47 -21.5h-122q-51 0 -85 51l-66 98q-20 32 -50 0l-92 -98q-47 -51 -98 -51h-133q-35 0 -41.5 21.5t20.5 50.5z" glyph-name="Ocircumflex" unicode="Ô"/><glyph d="M568 -26q-251 0 -366.5 174.5t-68.5 515.5q46 334 200 503t401 169q252 0 367.5 -174t66.5 -517q-46 -332 -199.5 -501.5t-400.5 -169.5zM376 1598q-13 34 3.5 70t53.5 53l219 108q72 36 126 -6l99 -75q33 -24 75 -4l143 70q38 18 72.5 5t47.5 -47t-2 -69t-52 -53 l-222 -109q-71 -35 -126 6l-98 74q-33 26 -75 4l-142 -70q-36 -17 -72 -4t-50 47zM392 664q-15 -101 -9 -175.5t23 -124.5t48.5 -79.5t66.5 -42t79 -12.5q253 0 309 415q59 435 -208 435q-253 1 -309 -416z" glyph-name="Otilde" unicode="Õ"/><glyph d="M568 -26q-251 0 -366.5 174.5t-68.5 515.5q46 334 200 503t401 169q252 0 367.5 -174t66.5 -517q-46 -332 -199.5 -501.5t-400.5 -169.5zM392 664q-15 -101 -9 -175.5t23 -124.5t48.5 -79.5t66.5 -42t79 -12.5q253 0 309 415q59 435 -208 435q-253 1 -309 -416zM446 1747 q0 54 39 92.5t93.5 38.5t93.5 -38.5t39 -92.5q0 -56 -39 -95t-93.5 -39t-93.5 39t-39 95zM881 1747q0 54 38.5 92.5t93 38.5t93.5 -38.5t39 -92.5q0 -56 -39 -95t-93.5 -39t-93 39t-38.5 95z" glyph-name="Odieresis" unicode="Ö"/><glyph d="M249 984q-18 22 7 44l105 93q26 22 45 0l267 -311l355 311q25 22 43 0l82 -93q18 -22 -7 -44l-354 -311l267 -312q18 -23 -6 -44l-107 -93q-25 -22 -43 0l-268 312l-355 -312q-25 -22 -43 0l-81 93q-18 23 6 44l355 312z" glyph-name="multiply" unicode="×"/><glyph d="M70 -133q-17 0 -22.5 10t4.5 27l155 236q-122 178 -74 524q46 334 200 503t401 169q131 0 225 -47l120 184q14 23 38 22h123q17 0 22.5 -10t-5.5 -27l-176 -268q138 -176 87 -545q-46 -332 -199.5 -501.5t-400.5 -169.5q-143 0 -243 58l-94 -143q-14 -23 -38 -22h-123z M390 421l418 637q-44 23 -107 22q-253 0 -309 -416q-19 -148 -2 -243zM477 265q51 -35 123 -35q253 0 309 415q24 171 -3 276z" glyph-name="Oslash" unicode="Ø"/><glyph d="M497 -26q-202 0 -300.5 122t-66.5 351l108 774q13 90 103 90h73q49 0 72.5 -28t17.5 -76l-104 -738q-16 -119 26.5 -179t134.5 -60q91 0 148 59.5t73 179.5l105 752q13 90 103 90h73q49 0 72.5 -28t17.5 -76l-122 -871q-11 -76 6 -113.5t65 -31.5q61 7 61 -67 q0 -62 -41.5 -100t-101.5 -38q-73 0 -117.5 48.5t-46.5 123.5q-118 -184 -359 -184zM525 1753q-19 33 -4 55t54 22h70q35 0 66.5 -19t51.5 -52l102 -169q19 -32 5 -55t-54 -23h-70q-76 0 -117 71z" glyph-name="Ugrave" unicode="Ù"/><glyph d="M497 -26q-202 0 -300.5 122t-66.5 351l108 774q13 90 103 90h73q49 0 72.5 -28t17.5 -76l-104 -738q-16 -119 26.5 -179t134.5 -60q91 0 148 59.5t73 179.5l105 752q13 90 103 90h73q49 0 72.5 -28t17.5 -76l-122 -871q-11 -76 6 -113.5t65 -31.5q61 7 61 -67 q0 -62 -41.5 -100t-101.5 -38q-73 0 -117.5 48.5t-46.5 123.5q-118 -184 -359 -184zM680 1590l102 169q19 33 51 52t67 19h67q40 0 54.5 -22t-4.5 -55l-104 -170q-42 -71 -117 -71h-67q-40 0 -54 23t5 55z" glyph-name="Uacute" unicode="Ú"/><glyph d="M497 -26q-202 0 -300.5 122t-66.5 351l108 774q13 90 103 90h73q49 0 72.5 -28t17.5 -76l-104 -738q-16 -119 26.5 -179t134.5 -60q91 0 148 59.5t73 179.5l105 752q13 90 103 90h73q49 0 72.5 -28t17.5 -76l-122 -871q-11 -76 6 -113.5t65 -31.5q61 7 61 -67 q0 -62 -41.5 -100t-101.5 -38q-73 0 -117.5 48.5t-46.5 123.5q-118 -184 -359 -184zM409 1579l188 202q27 28 53 38.5t66 10.5h164q40 0 63 -11t41 -38l133 -202q18 -29 6 -51t-47 -22h-123q-51 0 -85 52l-65 98q-20 32 -50 0l-93 -98q-47 -51 -97 -52h-133q-35 0 -41.5 22 t20.5 51z" glyph-name="Ucircumflex" unicode="Û"/><glyph d="M497 -26q-202 0 -300.5 122t-66.5 351l108 774q13 90 103 90h73q49 0 72.5 -28t17.5 -76l-104 -738q-16 -119 26.5 -179t134.5 -60q91 0 148 59.5t73 179.5l105 752q13 90 103 90h73q49 0 72.5 -28t17.5 -76l-122 -871q-11 -76 6 -113.5t65 -31.5q61 7 61 -67 q0 -62 -41.5 -100t-101.5 -38q-73 0 -117.5 48.5t-46.5 123.5q-118 -184 -359 -184zM437 1686q0 54 39 92.5t93.5 38.5t93 -38.5t38.5 -92.5q0 -56 -38.5 -95.5t-93 -39.5t-93.5 39.5t-39 95.5zM871 1686q0 54 39 92.5t93.5 38.5t93.5 -38.5t39 -92.5q0 -56 -39 -95.5 t-93.5 -39.5t-93.5 39.5t-39 95.5z" glyph-name="Udieresis" unicode="Ü"/><glyph d="M515 -26q-103 0 -186.5 19.5t-123.5 43.5q-35 20 -47.5 61t3.5 79q15 39 52.5 57t75.5 7q123 -36 218 -36q61 0 114.5 13t103 42.5t83.5 83t45 127.5l35 216q-63 -119 -159 -183.5t-212 -64.5q-148 0 -224 100t-45 281l68 402q13 89 103 89h65q46 0 73 -23t20 -62 l-58 -338q-18 -113 11.5 -171.5t100.5 -58.5q112 0 201 144t123 393q16 116 143 116q65 0 99.5 -32t25.5 -91l-107 -756q-15 -106 -60.5 -189t-105.5 -133t-137.5 -81t-149 -43t-148.5 -12zM680 1590l102 169q19 33 51 52t67 19h67q40 0 54.5 -22t-4.5 -55l-104 -170 q-42 -71 -117 -71h-67q-40 0 -54 23t5 55z" glyph-name="Yacute" unicode="Ý"/><glyph d="M140 0q-45 0 -70.5 23t-20.5 62l158 1137q12 89 102 89h73q45 0 71 -23t21 -62l-14 -106h263q248 0 366.5 -128t87.5 -352q-31 -214 -178 -332t-395 -118h-273l-15 -101q-13 -89 -103 -89h-73zM364 428h242q284 0 318 243q16 120 -46 166t-196 46h-255z" glyph-name="Thorn" unicode="Þ"/><glyph d="M164 -256q-49 0 -72.5 27.5t-17.5 75.5l119 852h-15q-49 0 -72.5 27.5t-16.5 75.5l3 21q13 88 103 88h27l1 10q28 201 155.5 305.5t331.5 104.5q181 0 286.5 -78.5t105.5 -226.5q0 -60 -17.5 -106.5t-42 -72.5t-49 -47.5t-42 -46t-17.5 -54t18.5 -54t46.5 -41.5 t60.5 -40.5t60.5 -50.5t46.5 -73t18.5 -104q0 -87 -38.5 -152.5t-109.5 -105t-164.5 -59t-207.5 -19.5q-54 0 -85 29t-27 79q5 47 34.5 71t74.5 24q144 0 205 31t61 103q0 50 -26 87.5t-63 61.5t-74 47t-63 58t-26 80q0 38 17 69t40.5 53.5t47 45.5t40.5 57t17 75 q0 127 -161 127q-89 0 -136 -45.5t-62 -145.5l-149 -1074q-14 -89 -104 -89h-62z" glyph-name="germandbls" unicode="ß"/><glyph d="M451 -26q-142 0 -230.5 105t-88.5 309q0 100 22.5 194t70.5 177t117 144.5t167.5 97t215.5 35.5q164 0 276 -60.5t99 -147.5q-9 -54 -57 -77t-116 5q-109 47 -226 47q-80 0 -142 -32t-99 -85.5t-56 -118.5t-19 -137q0 -119 44.5 -172t110.5 -53q159 0 279 312 q26 65 61.5 95t93.5 30q61 0 90 -43t17 -120l-29 -212q-5 -33 -7.5 -62t-2.5 -44t0.5 -37t0.5 -29q0 -51 -18 -73t-77 -22q-159 0 -144 179l5 60q-63 -130 -154.5 -197.5t-203.5 -67.5zM478 1456q-19 33 -4.5 55t54.5 22h70q35 0 66.5 -19t51.5 -52l102 -169q19 -32 5 -55 t-54 -23h-70q-76 0 -117 71z" glyph-name="agrave" unicode="à"/><glyph d="M451 -26q-142 0 -230.5 105t-88.5 309q0 100 22.5 194t70.5 177t117 144.5t167.5 97t215.5 35.5q164 0 276 -60.5t99 -147.5q-9 -54 -57 -77t-116 5q-109 47 -226 47q-80 0 -142 -32t-99 -85.5t-56 -118.5t-19 -137q0 -119 44.5 -172t110.5 -53q159 0 279 312 q26 65 61.5 95t93.5 30q61 0 90 -43t17 -120l-29 -212q-5 -33 -7.5 -62t-2.5 -44t0.5 -37t0.5 -29q0 -51 -18 -73t-77 -22q-159 0 -144 179l5 60q-63 -130 -154.5 -197.5t-203.5 -67.5zM633 1293l102 169q19 33 51 52t67 19h67q40 0 54.5 -22t-4.5 -55l-104 -170 q-42 -71 -117 -71h-67q-40 0 -54 23t5 55z" glyph-name="aacute" unicode="á"/><glyph d="M451 -26q-142 0 -230.5 105t-88.5 309q0 100 22.5 194t70.5 177t117 144.5t167.5 97t215.5 35.5q164 0 276 -60.5t99 -147.5q-9 -54 -57 -77t-116 5q-109 47 -226 47q-80 0 -142 -32t-99 -85.5t-56 -118.5t-19 -137q0 -119 44.5 -172t110.5 -53q159 0 279 312 q26 65 61.5 95t93.5 30q61 0 90 -43t17 -120l-29 -212q-5 -33 -7.5 -62t-2.5 -44t0.5 -37t0.5 -29q0 -51 -18 -73t-77 -22q-159 0 -144 179l5 60q-63 -130 -154.5 -197.5t-203.5 -67.5zM361 1282l189 202q27 28 53 38.5t66 10.5h164q40 0 63 -11t41 -38l133 -202 q18 -29 6 -51t-47 -22h-123q-51 0 -85 52l-65 98q-20 32 -50 0l-93 -98q-47 -51 -97 -52h-133q-35 0 -42 22t20 51z" glyph-name="acircumflex" unicode="â"/><glyph d="M451 -26q-142 0 -230.5 105t-88.5 309q0 100 22.5 194t70.5 177t117 144.5t167.5 97t215.5 35.5q164 0 276 -60.5t99 -147.5q-9 -54 -57 -77t-116 5q-109 47 -226 47q-80 0 -142 -32t-99 -85.5t-56 -118.5t-19 -137q0 -119 44.5 -172t110.5 -53q159 0 279 312 q26 65 61.5 95t93.5 30q61 0 90 -43t17 -120l-29 -212q-5 -33 -7.5 -62t-2.5 -44t0.5 -37t0.5 -29q0 -51 -18 -73t-77 -22q-159 0 -144 179l5 60q-63 -130 -154.5 -197.5t-203.5 -67.5zM321 1240q-13 34 3.5 70t53.5 53l219 107q72 36 126 -6l98 -74q33 -24 76 -5l142 70 q38 18 73 5.5t48 -47.5q13 -34 -2 -68.5t-52 -53.5l-222 -108q-71 -35 -126 6l-99 74q-33 26 -74 4l-143 -70q-36 -17 -71.5 -4t-49.5 47z" glyph-name="atilde" unicode="ã"/><glyph d="M451 -26q-142 0 -230.5 105t-88.5 309q0 100 22.5 194t70.5 177t117 144.5t167.5 97t215.5 35.5q164 0 276 -60.5t99 -147.5q-9 -54 -57 -77t-116 5q-109 47 -226 47q-80 0 -142 -32t-99 -85.5t-56 -118.5t-19 -137q0 -119 44.5 -172t110.5 -53q159 0 279 312 q26 65 61.5 95t93.5 30q61 0 90 -43t17 -120l-29 -212q-5 -33 -7.5 -62t-2.5 -44t0.5 -37t0.5 -29q0 -51 -18 -73t-77 -22q-159 0 -144 179l5 60q-63 -130 -154.5 -197.5t-203.5 -67.5zM390 1389q0 54 39 92.5t93.5 38.5t93 -38.5t38.5 -92.5q0 -56 -38.5 -95.5t-93 -39.5 t-93.5 39.5t-39 95.5zM824 1389q0 54 39 92.5t93.5 38.5t93.5 -38.5t39 -92.5q0 -56 -39 -95.5t-93.5 -39.5t-93.5 39.5t-39 95.5z" glyph-name="adieresis" unicode="ä"/><glyph d="M451 -26q-142 0 -230.5 105t-88.5 309q0 100 22.5 194t70.5 177t117 144.5t167.5 97t215.5 35.5q164 0 276 -60.5t99 -147.5q-9 -54 -57 -77t-116 5q-109 47 -226 47q-80 0 -142 -32t-99 -85.5t-56 -118.5t-19 -137q0 -119 44.5 -172t110.5 -53q159 0 279 312 q26 65 61.5 95t93.5 30q61 0 90 -43t17 -120l-29 -212q-5 -33 -7.5 -62t-2.5 -44t0.5 -37t0.5 -29q0 -51 -18 -73t-77 -22q-159 0 -144 179l5 60q-63 -130 -154.5 -197.5t-203.5 -67.5zM536 1331q0 83 58.5 142.5t144.5 59.5q85 0 144 -59.5t59 -142.5q0 -82 -59 -142 t-144 -60q-86 0 -144.5 59.5t-58.5 142.5zM674 1332.5q0 -28.5 18.5 -46t47 -17.5t47.5 18t18 45q-1 29 -19.5 46.5t-46.5 17.5q-29 0 -47 -17.5t-18 -46z" glyph-name="aring" unicode="å"/><glyph d="M285 -26q-125 0 -195 79t-49 228q19 134 103 216t236 82h195l12 89q12 91 -16 129.5t-100 38.5q-110 0 -146 -92q-14 -31 -32 -43t-50 -12h-23q-79 0 -65 81q20 129 113.5 197.5t230.5 68.5q167 0 222 -114q98 115 244 114q55 0 99 -17t72 -44.5t46.5 -65.5t26.5 -75.5 t8 -78.5q0 -78 -28.5 -148t-85 -130t-153 -100.5t-223.5 -53.5q18 -144 151 -145q75 0 136 34q54 30 84 -17l13 -21q34 -54 -14 -98q-112 -101 -268 -102q-181 0 -243 153q-130 -153 -301 -153zM243 299q-6 -53 19 -84.5t86 -31.5q125 0 188 116l16 118h-160 q-133 0 -149 -118zM733 505q143 16 213 73.5t70 140.5q0 44 -21.5 71.5t-66.5 27.5q-151 0 -195 -313z" glyph-name="ae" unicode="æ"/><glyph d="M682 -26q-27 0 -40 1l-56 -46q68 -6 113.5 -44t45.5 -100q0 -86 -57 -145t-144 -79t-184 -3q-18 3 -15 22l13 90q4 24 26 21q46 -5 86 -2.5t67 20.5t27 46q0 33 -46 47t-119 -13q-11 -4 -17.5 -0.5t-4.5 14.5l13 94q1 15 14 24l92 78q-158 44 -251 160.5t-93 295.5 q0 85 22 167.5t68.5 157.5t112.5 132t161 90.5t207 33.5q111 0 196 -31.5t138 -103t53 -172.5q0 -83 -35.5 -137t-109.5 -54q-49 0 -80 22.5t-31 60.5q0 12 6 34.5t6 36.5q0 53 -47 79.5t-120 26.5q-61 0 -111.5 -19.5t-84 -52t-56.5 -75t-33 -86.5t-10 -90 q0 -138 90.5 -211.5t237.5 -73.5q95 0 221 44q39 13 61.5 -5t15.5 -58l-9 -57q-10 -62 -65 -86q-126 -54 -274 -54z" glyph-name="ccedilla" unicode="ç"/><glyph d="M650 -26q-240 0 -372 125t-132 336q0 163 78 300.5t214.5 219t300.5 81.5t254.5 -77t90.5 -191q0 -55 -22 -108t-69 -106.5t-133 -102.5t-203 -84q-77 -24 -123 -11t-59 59q-12 40 7.5 71.5t67.5 44.5q297 81 297 197q0 40 -34.5 66.5t-98.5 26.5q-58 0 -116 -25 t-105.5 -70t-77 -116t-29.5 -156q0 -127 72.5 -198.5t223.5 -71.5q126 0 230 50q94 44 137 -23q25 -36 14 -75t-59 -67q-151 -95 -354 -95zM507 1456q-19 33 -4.5 55t54.5 22h70q35 0 66.5 -19t50.5 -52l103 -169q19 -32 5 -55t-54 -23h-70q-76 0 -118 71z" glyph-name="egrave" unicode="è"/><glyph d="M650 -26q-240 0 -372 125t-132 336q0 163 78 300.5t214.5 219t300.5 81.5t254.5 -77t90.5 -191q0 -55 -22 -108t-69 -106.5t-133 -102.5t-203 -84q-77 -24 -123 -11t-59 59q-12 40 7.5 71.5t67.5 44.5q297 81 297 197q0 40 -34.5 66.5t-98.5 26.5q-58 0 -116 -25 t-105.5 -70t-77 -116t-29.5 -156q0 -127 72.5 -198.5t223.5 -71.5q126 0 230 50q94 44 137 -23q25 -36 14 -75t-59 -67q-151 -95 -354 -95zM662 1293l102 169q19 33 51 52t67 19h66q40 0 55 -22t-5 -55l-103 -170q-42 -71 -118 -71h-66q-40 0 -54 23t5 55z" glyph-name="eacute" unicode="é"/><glyph d="M650 -26q-240 0 -372 125t-132 336q0 163 78 300.5t214.5 219t300.5 81.5t254.5 -77t90.5 -191q0 -55 -22 -108t-69 -106.5t-133 -102.5t-203 -84q-77 -24 -123 -11t-59 59q-12 40 7.5 71.5t67.5 44.5q297 81 297 197q0 40 -34.5 66.5t-98.5 26.5q-58 0 -116 -25 t-105.5 -70t-77 -116t-29.5 -156q0 -127 72.5 -198.5t223.5 -71.5q126 0 230 50q94 44 137 -23q25 -36 14 -75t-59 -67q-151 -95 -354 -95zM389 1282l189 202q27 28 52.5 38.5t65.5 10.5h164q40 0 63 -11t42 -38l133 -202q18 -29 6 -51t-47 -22h-123q-51 0 -85 52l-66 98 q-20 32 -50 0l-92 -98q-47 -51 -97 -52h-133q-35 0 -42 22t20 51z" glyph-name="ecircumflex" unicode="ê"/><glyph d="M650 -26q-240 0 -372 125t-132 336q0 163 78 300.5t214.5 219t300.5 81.5t254.5 -77t90.5 -191q0 -55 -22 -108t-69 -106.5t-133 -102.5t-203 -84q-77 -24 -123 -11t-59 59q-12 40 7.5 71.5t67.5 44.5q297 81 297 197q0 40 -34.5 66.5t-98.5 26.5q-58 0 -116 -25 t-105.5 -70t-77 -116t-29.5 -156q0 -127 72.5 -198.5t223.5 -71.5q126 0 230 50q94 44 137 -23q25 -36 14 -75t-59 -67q-151 -95 -354 -95zM419 1389q0 54 39 92.5t93 38.5t93 -38.5t39 -92.5q0 -56 -39 -95.5t-93 -39.5t-93 39.5t-39 95.5zM853 1389q0 54 39 92.5t93 38.5 t93 -38.5t39 -92.5q0 -56 -39 -95.5t-93 -39.5t-93 39.5t-39 95.5z" glyph-name="edieresis" unicode="ë"/><glyph d="M794 -27q-53 0 -101 9.5t-94.5 30t-80 53.5t-58.5 81.5t-29.5 113t6.5 147.5l49 297q8 51 -11 74t-71 23h-138q-50 0 -75 29t-17 83q14 99 109 100h266q117 0 171 -64t36 -180l-58 -337q-9 -71 -3.5 -116t30 -71.5t52 -36.5t64.5 -10q68 0 157 40q42 18 75.5 10t51.5 -42 q18 -31 13 -70.5t-36 -64.5q-49 -40 -128 -69.5t-180 -29.5zM430 1456q-19 33 -4.5 55t54.5 22h70q35 0 66.5 -19t51.5 -52l102 -169q19 -32 5 -55t-54 -23h-70q-76 0 -117 71z" glyph-name="igrave" unicode="ì"/><glyph d="M794 -27q-53 0 -101 9.5t-94.5 30t-80 53.5t-58.5 81.5t-29.5 113t6.5 147.5l49 297q8 51 -11 74t-71 23h-138q-50 0 -75 29t-17 83q14 99 109 100h266q117 0 171 -64t36 -180l-58 -337q-9 -71 -3.5 -116t30 -71.5t52 -36.5t64.5 -10q68 0 157 40q42 18 75.5 10t51.5 -42 q18 -31 13 -70.5t-36 -64.5q-49 -40 -128 -69.5t-180 -29.5zM584 1293l102 169q19 33 51 52t67 19h66q40 0 55 -22t-4 -55l-104 -170q-42 -71 -118 -71h-66q-40 0 -54 23t5 55z" glyph-name="iacute" unicode="í"/><glyph d="M794 -27q-53 0 -101 9.5t-94.5 30t-80 53.5t-58.5 81.5t-29.5 113t6.5 147.5l49 297q8 51 -11 74t-71 23h-138q-50 0 -75 29t-17 83q14 99 109 100h266q117 0 171 -64t36 -180l-58 -337q-9 -71 -3.5 -116t30 -71.5t52 -36.5t64.5 -10q68 0 157 40q42 18 75.5 10t51.5 -42 q18 -31 13 -70.5t-36 -64.5q-49 -40 -128 -69.5t-180 -29.5zM312 1282l189 202q27 28 53 38.5t66 10.5h163q40 0 63 -11t42 -38l133 -202q18 -29 6 -51t-47 -22h-123q-51 0 -85 52l-65 98q-20 32 -51 0l-92 -98q-47 -51 -97 -52h-133q-35 0 -42 22t20 51z" glyph-name="icircumflex" unicode="î"/><glyph d="M794 -27q-53 0 -101 9.5t-94.5 30t-80 53.5t-58.5 81.5t-29.5 113t6.5 147.5l49 297q8 51 -11 74t-71 23h-138q-50 0 -75 29t-17 83q14 99 109 100h266q117 0 171 -64t36 -180l-58 -337q-9 -71 -3.5 -116t30 -71.5t52 -36.5t64.5 -10q68 0 157 40q42 18 75.5 10t51.5 -42 q18 -31 13 -70.5t-36 -64.5q-49 -40 -128 -69.5t-180 -29.5zM342 1389q0 54 39 92.5t93 38.5t93 -38.5t39 -92.5q0 -56 -39 -95.5t-93 -39.5t-93 39.5t-39 95.5zM776 1389q0 54 39 92.5t93.5 38.5t93 -38.5t38.5 -92.5q0 -56 -38.5 -95.5t-93 -39.5t-93.5 39.5t-39 95.5z " glyph-name="idieresis" unicode="ï"/><glyph d="M755 1084q-33 -3 -33 29v46q0 30 29 33l175 18l1 11q13 90 103 90h56q41 0 65 -19t27 -54l85 9q33 3 32 -28v-47q0 -30 -28 -32l-102 -12l-121 -861q-5 -33 -7 -62t-2 -43.5t0.5 -35t0.5 -25.5q0 -55 -18.5 -78t-77.5 -23q-31 0 -55 6t-46.5 22t-34 42.5t-17.5 68 t5 100.5l63 460q6 47 -37 75.5t-121 28.5q-105 0 -184 -56t-117.5 -142t-38.5 -186q0 -214 188 -214q50 0 113 20q29 11 39 5.5t3 -43.5l-7 -46q-8 -62 -53 -99q-82 -68 -209 -68q-152 0 -239 101t-87 292q0 178 73 330t208.5 245.5t304.5 93.5q130 0 204 -46l15 111z" glyph-name="eth" unicode="ð"/><glyph d="M195 0q-49 0 -73 27.5t-18 75.5l117 822q12 89 103 89h63q49 0 73 -28t17 -76l-52 -360q140 260 253.5 373.5t236.5 113.5q116 0 174 -85.5t35 -223.5l-76 -461q-5 -33 -8 -62t-3 -43.5t0.5 -34t0.5 -26.5q0 -53 -22 -77t-82 -24q-190 0 -151 239l57 330q23 134 17 170 q-5 43 -39 43q-18 0 -38.5 -12.5t-44.5 -39.5t-46.5 -57t-51.5 -77.5t-52.5 -87.5t-55.5 -100.5t-54.5 -103.5t-57 -109.5t-55.5 -105.5q-27 -48 -50 -68.5t-65 -20.5h-52zM339 1240q-13 34 3.5 70t53.5 53l219 107q72 36 126 -6l99 -74q33 -24 75 -5l143 70q38 18 72.5 5.5 t48.5 -47.5q13 -34 -2.5 -68.5t-52.5 -53.5l-222 -108q-71 -35 -126 6l-98 74q-33 26 -75 4l-142 -70q-36 -17 -72 -4t-50 47z" glyph-name="ntilde" unicode="ñ"/><glyph d="M608 -26q-219 0 -352 137.5t-133 361.5q0 157 65.5 285.5t183.5 203t267 74.5q49 0 92.5 -8.5t80.5 -26.5t55.5 -49.5t11.5 -74.5q-4 -23 -12.5 -39.5t-22.5 -25t-28 -13.5t-34.5 -5.5t-36.5 0t-39.5 2t-38.5 1.5q-134 0 -212.5 -87t-78.5 -226q0 -127 68 -198.5 t179 -71.5q114 0 185 70.5t71 160.5q0 45 -29 92t-29 80q0 53 37 81.5t86 28.5q81 0 132 -76.5t51 -191.5q0 -96 -37.5 -184.5t-104 -155t-165 -106t-212.5 -39.5zM499 1456q-19 33 -4.5 55t54.5 22h69q35 0 67 -19t51 -52l103 -169q19 -32 4.5 -55t-53.5 -23h-70 q-76 0 -118 71z" glyph-name="ograve" unicode="ò"/><glyph d="M608 -26q-219 0 -352 137.5t-133 361.5q0 157 65.5 285.5t183.5 203t267 74.5q49 0 92.5 -8.5t80.5 -26.5t55.5 -49.5t11.5 -74.5q-4 -23 -12.5 -39.5t-22.5 -25t-28 -13.5t-34.5 -5.5t-36.5 0t-39.5 2t-38.5 1.5q-134 0 -212.5 -87t-78.5 -226q0 -127 68 -198.5 t179 -71.5q114 0 185 70.5t71 160.5q0 45 -29 92t-29 80q0 53 37 81.5t86 28.5q81 0 132 -76.5t51 -191.5q0 -96 -37.5 -184.5t-104 -155t-165 -106t-212.5 -39.5zM652 1293l103 169q19 33 51 52t66 19h67q40 0 55 -22t-5 -55l-103 -170q-42 -71 -118 -71h-67q-40 0 -54 23 t5 55z" glyph-name="oacute" unicode="ó"/><glyph d="M608 -26q-219 0 -352 137.5t-133 361.5q0 157 65.5 285.5t183.5 203t267 74.5q49 0 92.5 -8.5t80.5 -26.5t55.5 -49.5t11.5 -74.5q-4 -23 -12.5 -39.5t-22.5 -25t-28 -13.5t-34.5 -5.5t-36.5 0t-39.5 2t-38.5 1.5q-134 0 -212.5 -87t-78.5 -226q0 -127 68 -198.5 t179 -71.5q114 0 185 70.5t71 160.5q0 45 -29 92t-29 80q0 53 37 81.5t86 28.5q81 0 132 -76.5t51 -191.5q0 -96 -37.5 -184.5t-104 -155t-165 -106t-212.5 -39.5zM381 1282l188 202q27 28 53 38.5t66 10.5h164q40 0 63 -11t41 -38l134 -202q18 -29 5.5 -51t-46.5 -22h-123 q-51 0 -85 52l-66 98q-20 32 -50 0l-92 -98q-47 -51 -97 -52h-134q-35 0 -41.5 22t20.5 51z" glyph-name="ocircumflex" unicode="ô"/><glyph d="M608 -26q-219 0 -352 137.5t-133 361.5q0 157 65.5 285.5t183.5 203t267 74.5q49 0 92.5 -8.5t80.5 -26.5t55.5 -49.5t11.5 -74.5q-4 -23 -12.5 -39.5t-22.5 -25t-28 -13.5t-34.5 -5.5t-36.5 0t-39.5 2t-38.5 1.5q-134 0 -212.5 -87t-78.5 -226q0 -127 68 -198.5 t179 -71.5q114 0 185 70.5t71 160.5q0 45 -29 92t-29 80q0 53 37 81.5t86 28.5q81 0 132 -76.5t51 -191.5q0 -96 -37.5 -184.5t-104 -155t-165 -106t-212.5 -39.5zM340 1240q-13 34 3.5 70t53.5 53l219 107q72 36 126 -6l99 -74q33 -24 75 -5l143 70q38 18 72.5 5.5 t48.5 -47.5q13 -34 -2.5 -68.5t-52.5 -53.5l-222 -108q-71 -35 -126 6l-98 74q-33 26 -75 4l-142 -70q-36 -17 -72 -4t-50 47z" glyph-name="otilde" unicode="õ"/><glyph d="M608 -26q-219 0 -352 137.5t-133 361.5q0 157 65.5 285.5t183.5 203t267 74.5q49 0 92.5 -8.5t80.5 -26.5t55.5 -49.5t11.5 -74.5q-4 -23 -12.5 -39.5t-22.5 -25t-28 -13.5t-34.5 -5.5t-36.5 0t-39.5 2t-38.5 1.5q-134 0 -212.5 -87t-78.5 -226q0 -127 68 -198.5 t179 -71.5q114 0 185 70.5t71 160.5q0 45 -29 92t-29 80q0 53 37 81.5t86 28.5q81 0 132 -76.5t51 -191.5q0 -96 -37.5 -184.5t-104 -155t-165 -106t-212.5 -39.5zM411 1389q0 54 38.5 92.5t93 38.5t93.5 -38.5t39 -92.5q0 -56 -39 -95.5t-93.5 -39.5t-93 39.5t-38.5 95.5z M845 1389q0 54 39 92.5t93 38.5t93 -38.5t39 -92.5q0 -56 -39 -95.5t-93 -39.5t-93 39.5t-39 95.5z" glyph-name="odieresis" unicode="ö"/><glyph d="M158 557q-30 0 -27 31l19 132q5 31 35 31h960q14 0 20.5 -9t4.5 -22l-18 -132q-1 -13 -10.5 -22t-24.5 -9h-959zM389 177q0 81 57 138.5t138 57.5t137.5 -57t56.5 -139q0 -81 -56 -137.5t-138 -56.5q-81 0 -138 56.5t-57 137.5zM525 1148q0 81 57 137.5t138 56.5 q82 0 138.5 -56.5t56.5 -137.5t-56.5 -138t-138.5 -57q-81 0 -138 57t-57 138z" glyph-name="divide" unicode="÷"/><glyph d="M181 -143q-17 0 -22 10t5 27l120 191q-161 139 -161 388q0 157 65.5 285.5t183.5 203t267 74.5q141 0 206 -58l89 142q14 23 38 23h107q17 0 22.5 -10.5t-4.5 -26.5l-554 -881q39 -11 80 -11q114 0 185 70.5t71 160.5q0 45 -29 92t-29 80q0 53 37 81.5t86 28.5 q81 0 132 -76.5t51 -191.5q0 -96 -37.5 -184.5t-104 -155t-165 -106t-212.5 -39.5q-112 0 -200 37l-83 -132q-14 -23 -38 -22h-106zM376 484q0 -106 49 -175l304 485q-61 3 -62 3q-134 0 -212.5 -87.5t-78.5 -225.5z" glyph-name="oslash" unicode="ø"/><glyph d="M345 -24q-117 0 -175 86t-35 224l77 460q5 33 7.5 62.5t2.5 43.5t-0.5 34t-0.5 26q0 53 22 77.5t83 24.5q190 0 150 -239l-56 -331q-23 -134 -18 -169q5 -43 39 -43q23 0 50.5 20.5t60.5 64t62 88.5t69.5 118t68.5 126t73.5 140.5t71.5 135.5q27 48 50.5 68.5t65.5 20.5 h52q49 0 72.5 -28t17.5 -76l-117 -821q-12 -89 -102 -89h-64q-49 0 -73 27.5t-17 75.5l53 361q-141 -260 -254 -374t-236 -114zM484 1456q-19 33 -4 55t55 22h69q35 0 66.5 -19t51.5 -52l102 -169q19 -32 5 -55t-54 -23h-69q-76 0 -118 71z" glyph-name="ugrave" unicode="ù"/><glyph d="M345 -24q-117 0 -175 86t-35 224l77 460q5 33 7.5 62.5t2.5 43.5t-0.5 34t-0.5 26q0 53 22 77.5t83 24.5q190 0 150 -239l-56 -331q-23 -134 -18 -169q5 -43 39 -43q23 0 50.5 20.5t60.5 64t62 88.5t69.5 118t68.5 126t73.5 140.5t71.5 135.5q27 48 50.5 68.5t65.5 20.5 h52q49 0 72.5 -28t17.5 -76l-117 -821q-12 -89 -102 -89h-64q-49 0 -73 27.5t-17 75.5l53 361q-141 -260 -254 -374t-236 -114zM638 1293l102 169q19 33 51 52t67 19h67q40 0 54.5 -22t-4.5 -55l-104 -170q-42 -71 -117 -71h-67q-40 0 -54 23t5 55z" glyph-name="uacute" unicode="ú"/><glyph d="M345 -24q-117 0 -175 86t-35 224l77 460q5 33 7.5 62.5t2.5 43.5t-0.5 34t-0.5 26q0 53 22 77.5t83 24.5q190 0 150 -239l-56 -331q-23 -134 -18 -169q5 -43 39 -43q23 0 50.5 20.5t60.5 64t62 88.5t69.5 118t68.5 126t73.5 140.5t71.5 135.5q27 48 50.5 68.5t65.5 20.5 h52q49 0 72.5 -28t17.5 -76l-117 -821q-12 -89 -102 -89h-64q-49 0 -73 27.5t-17 75.5l53 361q-141 -260 -254 -374t-236 -114zM367 1282l188 202q27 28 53 38.5t66 10.5h164q40 0 63 -11t41 -38l133 -202q18 -29 6 -51t-47 -22h-123q-51 0 -85 52l-65 98q-20 32 -50 0 l-93 -98q-47 -51 -97 -52h-133q-35 0 -41.5 22t20.5 51z" glyph-name="ucircumflex" unicode="û"/><glyph d="M345 -24q-117 0 -175 86t-35 224l77 460q5 33 7.5 62.5t2.5 43.5t-0.5 34t-0.5 26q0 53 22 77.5t83 24.5q190 0 150 -239l-56 -331q-23 -134 -18 -169q5 -43 39 -43q23 0 50.5 20.5t60.5 64t62 88.5t69.5 118t68.5 126t73.5 140.5t71.5 135.5q27 48 50.5 68.5t65.5 20.5 h52q49 0 72.5 -28t17.5 -76l-117 -821q-12 -89 -102 -89h-64q-49 0 -73 27.5t-17 75.5l53 361q-141 -260 -254 -374t-236 -114zM396 1389q0 54 39 92.5t93.5 38.5t93 -38.5t38.5 -92.5q0 -56 -38.5 -95.5t-93 -39.5t-93.5 39.5t-39 95.5zM830 1389q0 54 39 92.5t93.5 38.5 t93.5 -38.5t39 -92.5q0 -56 -39 -95.5t-93.5 -39.5t-93.5 39.5t-39 95.5z" glyph-name="udieresis" unicode="ü"/><glyph d="M838 -165q-50 0 -81.5 26t-31.5 77q0 24 17 98t28 154l42 293q-159 -358 -413 -358q-130 0 -200 80.5t-45 228.5l80 491q14 89 104 89h62q49 0 74 -28t16 -76l-69 -416q-11 -65 13.5 -97.5t69.5 -32.5q77 0 161.5 104t139 230t68.5 218l1 9q14 89 104 89h61 q50 0 74.5 -28t15.5 -76l-116 -822q-11 -78 -30.5 -131t-45.5 -78t-48.5 -34.5t-50.5 -9.5zM638 1293l102 169q19 33 51 52t67 19h67q40 0 54.5 -22t-4.5 -55l-104 -170q-42 -71 -117 -71h-67q-40 0 -54 23t5 55z" glyph-name="yacute" unicode="ý"/><glyph d="M273 1222q13 89 103 89h62q50 0 74.5 -28t16.5 -76l-65 -455q158 285 393 284q138 0 217.5 -98t79.5 -282q0 -167 -58 -304t-167 -218.5t-249 -81.5q-84 0 -143.5 30.5t-59.5 94.5q0 42 25 68.5t65 26.5q16 0 43 -10t57 -10q109 0 174.5 99t65.5 240q0 112 -44 163 t-112 51q-113 0 -210 -126t-130 -297l-30 -201l-36 -256q-13 -89 -103 -89h-62q-50 0 -74 27.5t-16 76.5l31 215z" glyph-name="thorn" unicode="þ"/><glyph d="M838 -165q-50 0 -81.5 26t-31.5 77q0 24 17 98t28 154l42 293q-159 -358 -413 -358q-130 0 -200 80.5t-45 228.5l80 491q14 89 104 89h62q49 0 74 -28t16 -76l-69 -416q-11 -65 13.5 -97.5t69.5 -32.5q77 0 161.5 104t139 230t68.5 218l1 9q14 89 104 89h61 q50 0 74.5 -28t15.5 -76l-116 -822q-11 -78 -30.5 -131t-45.5 -78t-48.5 -34.5t-50.5 -9.5zM396 1389q0 54 39 92.5t93.5 38.5t93 -38.5t38.5 -92.5q0 -56 -38.5 -95.5t-93 -39.5t-93.5 39.5t-39 95.5zM830 1389q0 54 39 92.5t93.5 38.5t93.5 -38.5t39 -92.5 q0 -56 -39 -95.5t-93.5 -39.5t-93.5 39.5t-39 95.5z" glyph-name="ydieresis" unicode="ÿ"/><glyph d="M105 0q-54 0 -78 34t-5 82l334 868q41 105 72.5 165.5t71 98.5t83 50.5t109.5 12.5h42q58 0 96 -10.5t66.5 -32t46.5 -67t30 -105t24 -156.5l43 -346l17 3q49 10 85.5 -6t48.5 -46t9.5 -63t-30.5 -62t-74 -38l-28 -6l34 -268q6 -51 -18.5 -79.5t-75.5 -28.5h-44 q-95 0 -107 94l-29 232l-4 -1q-283 -59 -396.5 -107.5t-146.5 -139.5v-1q-29 -77 -116 -77h-60zM391 384q55 56 142.5 87t267.5 70l-30 235q-13 105 -21 158t-18 86t-19.5 40t-27.5 7q-19 0 -32.5 -12.5t-37.5 -64.5t-64 -162zM416 1658l8 52q4 34 28.5 54.5t59.5 20.5h494 q36 0 53.5 -20t13.5 -55l-8 -52q-4 -34 -28.5 -54.5t-59.5 -20.5h-494q-36 0 -53.5 20t-13.5 55z" glyph-name="Amacron" unicode="Ā"/><glyph d="M451 -26q-142 0 -230.5 105t-88.5 309q0 100 22.5 194t70.5 177t117 144.5t167.5 97t215.5 35.5q164 0 276 -60.5t99 -147.5q-9 -54 -57 -77t-116 5q-109 47 -226 47q-80 0 -142 -32t-99 -85.5t-56 -118.5t-19 -137q0 -119 44.5 -172t110.5 -53q159 0 279 312 q26 65 61.5 95t93.5 30q61 0 90 -43t17 -120l-29 -212q-5 -33 -7.5 -62t-2.5 -44t0.5 -37t0.5 -29q0 -51 -18 -73t-77 -22q-159 0 -144 179l5 60q-63 -130 -154.5 -197.5t-203.5 -67.5zM410 1361l8 52q4 34 28.5 54.5t59.5 20.5h493q36 0 54 -20t14 -55l-8 -52 q-4 -34 -28.5 -54.5t-59.5 -20.5h-494q-36 0 -53.5 20t-13.5 55z" glyph-name="amacron" unicode="ā"/><glyph d="M105 0q-54 0 -78 34t-5 82l334 868q41 105 72.5 165.5t71 98.5t83 50.5t109.5 12.5h42q58 0 96 -10.5t66.5 -32t46.5 -67t30 -105t24 -156.5l43 -346l17 3q49 10 85.5 -6t48.5 -46t9.5 -63t-30.5 -62t-74 -38l-28 -6l34 -268q6 -51 -18.5 -79.5t-75.5 -28.5h-44 q-95 0 -107 94l-29 232l-4 -1q-283 -59 -396.5 -107.5t-146.5 -139.5v-1q-29 -77 -116 -77h-60zM391 384q55 56 142.5 87t267.5 70l-30 235q-13 105 -21 158t-18 86t-19.5 40t-27.5 7q-19 0 -32.5 -12.5t-37.5 -64.5t-64 -162zM428 1798q2 32 36 32h106q27 0 29 -30 q4 -50 44.5 -87t107.5 -37q120 0 164 124q10 30 37 30h115q32 0 26 -32q-27 -136 -117 -213t-237 -77q-148 0 -232 78t-79 212z" glyph-name="Abreve" unicode="Ă"/><glyph d="M451 -26q-142 0 -230.5 105t-88.5 309q0 100 22.5 194t70.5 177t117 144.5t167.5 97t215.5 35.5q164 0 276 -60.5t99 -147.5q-9 -54 -57 -77t-116 5q-109 47 -226 47q-80 0 -142 -32t-99 -85.5t-56 -118.5t-19 -137q0 -119 44.5 -172t110.5 -53q159 0 279 312 q26 65 61.5 95t93.5 30q61 0 90 -43t17 -120l-29 -212q-5 -33 -7.5 -62t-2.5 -44t0.5 -37t0.5 -29q0 -51 -18 -73t-77 -22q-159 0 -144 179l5 60q-63 -130 -154.5 -197.5t-203.5 -67.5zM422 1501q2 32 36 32h106q27 0 29 -30q4 -50 44.5 -87t106.5 -37q120 0 165 124 q10 30 37 30h115q32 0 25 -32q-27 -136 -116.5 -213t-236.5 -77q-148 0 -232 78t-79 212z" glyph-name="abreve" unicode="ă"/><glyph d="M105 0q-54 0 -78 34t-5 82l334 868q41 105 72.5 165.5t71 98.5t83 50.5t109.5 12.5h42q58 0 96 -10.5t66.5 -32t46.5 -67t30 -105t24 -156.5l43 -346l17 3q49 10 85.5 -6t48.5 -46t9.5 -63t-30.5 -62t-74 -38l-28 -6l34 -268q6 -51 -18.5 -79.5t-75.5 -28.5h-47 q-56 0 -87.5 -26.5t-31.5 -78.5q0 -102 115 -103q38 0 56 -24t14 -58q-4 -33 -28 -55.5t-65 -22.5h-23q-50 0 -94.5 11.5t-83.5 36t-61.5 68.5t-22.5 104q0 95 57.5 152.5t152.5 79.5q-2 6 -2 10l-29 232l-4 -1q-283 -59 -396.5 -107.5t-146.5 -139.5v-1q-29 -77 -116 -77 h-60zM391 384q55 56 142.5 87t267.5 70l-30 235q-13 105 -21 158t-18 86t-19.5 40t-27.5 7q-19 0 -32.5 -12.5t-37.5 -64.5t-64 -162z" glyph-name="Aogonek" unicode="Ą"/><glyph d="M451 -26q-142 0 -230.5 105t-88.5 309q0 100 22.5 194t70.5 177t117 144.5t167.5 97t215.5 35.5q164 0 276 -60.5t99 -147.5q-9 -54 -57 -77t-116 5q-109 47 -226 47q-80 0 -142 -32t-99 -85.5t-56 -118.5t-19 -137q0 -119 44.5 -172t110.5 -53q159 0 279 312 q26 65 61.5 95t93.5 30q61 0 90 -43t17 -120l-29 -212q-5 -33 -7.5 -62t-2.5 -44t0.5 -37t0.5 -29q0 -51 -18 -73t-77 -22h-47q-56 0 -87.5 -26.5t-31.5 -78.5q0 -102 116 -103q38 0 56 -24t14 -58q-4 -33 -28.5 -55.5t-65.5 -22.5h-22q-50 0 -94.5 11.5t-83.5 36 t-61.5 68.5t-22.5 104q0 99 61 156.5t161 77.5q-12 38 -8 93l5 60q-63 -130 -154.5 -197.5t-203.5 -67.5z" glyph-name="aogonek" unicode="ą"/><glyph d="M684 -26q-270 0 -413.5 154t-143.5 444q0 114 21.5 220.5t70.5 206.5t122 174t182 118.5t243 44.5q206 0 320 -101t85 -307q-9 -69 -37.5 -97.5t-78.5 -28.5h-51q-101 0 -89 91q7 53 -6.5 91t-42.5 58t-62.5 29t-73.5 9q-74 0 -133 -31t-96.5 -80.5t-62 -116t-35 -130.5 t-10.5 -129q0 -380 372 -380q110 0 215 23q35 7 52 -12.5t11 -55.5l-8 -57q-5 -38 -41 -66t-89 -42.5t-108.5 -21.5t-112.5 -7zM680 1590l102 169q19 33 51 52t67 19h67q40 0 54.5 -22t-4.5 -55l-104 -170q-42 -71 -117 -71h-67q-40 0 -54 23t5 55z" glyph-name="Cacute" unicode="Ć"/><glyph d="M682 -26q-151 0 -269 53.5t-189.5 164t-71.5 263.5q0 85 22 167.5t68.5 157.5t112.5 132t161 90.5t207 33.5q111 0 196 -31.5t138 -103t53 -172.5q0 -83 -35.5 -137t-109.5 -54q-49 0 -80 22.5t-31 60.5q0 12 6 34.5t6 36.5q0 53 -47 79.5t-120 26.5q-61 0 -111.5 -19.5 t-84 -52t-56.5 -75t-33 -86.5t-10 -90q0 -138 90.5 -211.5t237.5 -73.5q95 0 221 44q39 13 61.5 -5t15.5 -58l-9 -57q-10 -62 -65 -86q-126 -54 -274 -54zM621 1293l102 169q19 33 51 52t67 19h66q40 0 55 -22t-5 -55l-103 -170q-42 -71 -118 -71h-66q-40 0 -54 23t5 55z " glyph-name="cacute" unicode="ć"/><glyph d="M684 -26q-270 0 -413.5 154t-143.5 444q0 114 21.5 220.5t70.5 206.5t122 174t182 118.5t243 44.5q206 0 320 -101t85 -307q-9 -69 -37.5 -97.5t-78.5 -28.5h-51q-101 0 -89 91q7 53 -6.5 91t-42.5 58t-62.5 29t-73.5 9q-74 0 -133 -31t-96.5 -80.5t-62 -116t-35 -130.5 t-10.5 -129q0 -380 372 -380q110 0 215 23q35 7 52 -12.5t11 -55.5l-8 -57q-5 -38 -41 -66t-89 -42.5t-108.5 -21.5t-112.5 -7zM426 1579l188 202q27 28 53 38.5t66 10.5h164q40 0 63 -11t41 -38l134 -202q18 -29 5.5 -51t-46.5 -22h-123q-51 0 -85 52l-66 98q-20 32 -50 0 l-92 -98q-47 -51 -97 -52h-134q-35 0 -41.5 22t20.5 51z" glyph-name="Ccircumflex" unicode="Ĉ"/><glyph d="M682 -26q-151 0 -269 53.5t-189.5 164t-71.5 263.5q0 85 22 167.5t68.5 157.5t112.5 132t161 90.5t207 33.5q111 0 196 -31.5t138 -103t53 -172.5q0 -83 -35.5 -137t-109.5 -54q-49 0 -80 22.5t-31 60.5q0 12 6 34.5t6 36.5q0 53 -47 79.5t-120 26.5q-61 0 -111.5 -19.5 t-84 -52t-56.5 -75t-33 -86.5t-10 -90q0 -138 90.5 -211.5t237.5 -73.5q95 0 221 44q39 13 61.5 -5t15.5 -58l-9 -57q-10 -62 -65 -86q-126 -54 -274 -54zM367 1282l188 202q27 28 53 38.5t66 10.5h164q40 0 63 -11t41 -38l133 -202q18 -29 6 -51t-47 -22h-123q-51 0 -85 52 l-65 98q-20 32 -50 0l-93 -98q-47 -51 -97 -52h-133q-35 0 -41.5 22t20.5 51z" glyph-name="ccircumflex" unicode="ĉ"/><glyph d="M684 -26q-270 0 -413.5 154t-143.5 444q0 114 21.5 220.5t70.5 206.5t122 174t182 118.5t243 44.5q206 0 320 -101t85 -307q-9 -69 -37.5 -97.5t-78.5 -28.5h-51q-101 0 -89 91q7 53 -6.5 91t-42.5 58t-62.5 29t-73.5 9q-74 0 -133 -31t-96.5 -80.5t-62 -116t-35 -130.5 t-10.5 -129q0 -380 372 -380q110 0 215 23q35 7 52 -12.5t11 -55.5l-8 -57q-5 -38 -41 -66t-89 -42.5t-108.5 -21.5t-112.5 -7zM656 1699q0 54 39 92.5t93.5 38.5t93.5 -38.5t39 -92.5q0 -56 -39 -95t-93.5 -39t-93.5 39t-39 95z" glyph-name="Cdotaccent" unicode="Ċ"/><glyph d="M682 -26q-151 0 -269 53.5t-189.5 164t-71.5 263.5q0 85 22 167.5t68.5 157.5t112.5 132t161 90.5t207 33.5q111 0 196 -31.5t138 -103t53 -172.5q0 -83 -35.5 -137t-109.5 -54q-49 0 -80 22.5t-31 60.5q0 12 6 34.5t6 36.5q0 53 -47 79.5t-120 26.5q-61 0 -111.5 -19.5 t-84 -52t-56.5 -75t-33 -86.5t-10 -90q0 -138 90.5 -211.5t237.5 -73.5q95 0 221 44q39 13 61.5 -5t15.5 -58l-9 -57q-10 -62 -65 -86q-126 -54 -274 -54zM597 1402q0 54 39 92.5t93 38.5t93 -38.5t39 -92.5q0 -56 -39 -95t-93 -39t-93 39t-39 95z" glyph-name="cdotaccent" unicode="ċ"/><glyph d="M684 -26q-270 0 -413.5 154t-143.5 444q0 114 21.5 220.5t70.5 206.5t122 174t182 118.5t243 44.5q206 0 320 -101t85 -307q-9 -69 -37.5 -97.5t-78.5 -28.5h-51q-101 0 -89 91q7 53 -6.5 91t-42.5 58t-62.5 29t-73.5 9q-74 0 -133 -31t-96.5 -80.5t-62 -116t-35 -130.5 t-10.5 -129q0 -380 372 -380q110 0 215 23q35 7 52 -12.5t11 -55.5l-8 -57q-5 -38 -41 -66t-89 -42.5t-108.5 -21.5t-112.5 -7zM460 1758q-18 29 -6 51t47 22h123q51 0 85 -51l65 -99q20 -32 50 0l92 99q47 51 98 51h133q35 0 41.5 -21.5t-20.5 -51.5l-188 -202 q-27 -28 -53 -38.5t-66 -10.5h-164q-40 0 -63 11t-41 38z" glyph-name="Ccaron" unicode="Č"/><glyph d="M682 -26q-151 0 -269 53.5t-189.5 164t-71.5 263.5q0 85 22 167.5t68.5 157.5t112.5 132t161 90.5t207 33.5q111 0 196 -31.5t138 -103t53 -172.5q0 -83 -35.5 -137t-109.5 -54q-49 0 -80 22.5t-31 60.5q0 12 6 34.5t6 36.5q0 53 -47 79.5t-120 26.5q-61 0 -111.5 -19.5 t-84 -52t-56.5 -75t-33 -86.5t-10 -90q0 -138 90.5 -211.5t237.5 -73.5q95 0 221 44q39 13 61.5 -5t15.5 -58l-9 -57q-10 -62 -65 -86q-126 -54 -274 -54zM399 1461q-18 29 -5.5 51t46.5 22h123q51 0 85 -51l66 -99q20 -32 50 0l92 99q47 51 97 51h133q35 0 42 -21.5 t-20 -51.5l-188 -201q-27 -28 -53 -39t-66 -11h-164q-40 0 -63 11t-42 39z" glyph-name="ccaron" unicode="č"/><glyph d="M243 0q-51 0 -75.5 28t-16.5 78l89 634q16 115 77 182.5t153 67.5q37 0 51.5 -11.5t10.5 -35.5l-95 -705h60q95 0 169 30t121 78.5t77 116.5t42 138t12 148q0 75 -13 129.5t-45 101t-93 70t-152 23.5h-355q-63 0 -93.5 32.5t-23.5 90.5q15 115 132 115h408 q110 0 196 -29.5t142 -78.5t93 -119.5t52.5 -149t15.5 -169.5q0 -116 -24 -223t-80 -206.5t-138.5 -173.5t-207 -118t-277.5 -44h-212zM460 1758q-18 29 -6 51t47 22h123q51 0 85 -51l65 -99q20 -32 50 0l92 99q47 51 98 51h133q35 0 41.5 -21.5t-20.5 -51.5l-188 -202 q-27 -28 -53 -38.5t-66 -10.5h-164q-40 0 -63 11t-41 38z" glyph-name="Dcaron" unicode="Ď"/><glyph d="M431 -26q-152 0 -239 101t-87 292q0 178 73 330t208.5 245.5t304.5 93.5q130 0 204 -46l32 231q13 90 103 90h56q49 0 73.5 -28t17.5 -76l-133 -940q-5 -33 -7 -62t-2 -43.5t0.5 -35t0.5 -25.5q0 -55 -18.5 -78t-77.5 -23q-31 0 -55 6t-46.5 22t-34 42.5t-17.5 68 t5 100.5l63 460q6 47 -37 75.5t-121 28.5q-105 0 -184 -56t-117.5 -142t-38.5 -186q0 -214 188 -214q50 0 113 20q29 11 39 5.5t3 -43.5l-7 -46q-8 -62 -53 -99q-82 -68 -209 -68zM1217 1092l102 169q19 33 51 51.5t67 18.5h66q40 0 55 -22.5t-5 -54.5l-103 -170 q-42 -71 -118 -70h-66q-40 0 -54 22.5t5 55.5z" glyph-name="dcaron" unicode="ď"/><glyph d="M243 0q-51 0 -75.5 28t-16.5 78l67 482h-117q-27 0 -41.5 14t-14.5 38q0 25 15 38.5t41 13.5h131l8 48q16 115 77 182.5t153 67.5q37 0 51.5 -11.5t10.5 -35.5l-33 -251h146q27 0 41 -13.5t14 -38.5q0 -24 -14 -38t-41 -14h-161l-47 -350h60q95 0 169 30t121 78.5 t77 116.5t42 138t12 148q0 75 -13 129.5t-45 101t-93 70t-152 23.5h-355q-63 0 -93.5 32.5t-23.5 90.5q15 115 132 115h408q110 0 196 -29.5t142 -78.5t93 -119.5t52.5 -149t15.5 -169.5q0 -116 -24 -223t-80 -206.5t-138.5 -173.5t-207 -118t-277.5 -44h-212z" glyph-name="Dcroat" unicode="Đ"/><glyph d="M756 1082q-25 0 -39.5 14t-14.5 38q0 23 14.5 36.5t39.5 13.5h166l5 37q13 90 103 90h56q49 0 73.5 -28t17.5 -76l-3 -23h61q26 0 40 -14t14 -36q0 -24 -14 -38t-40 -14h-76l-115 -815q-5 -33 -7 -62t-2 -43.5t0.5 -35t0.5 -25.5q0 -55 -18.5 -78t-77.5 -23q-31 0 -55 6 t-46.5 22t-34 42.5t-17.5 68t5 100.5l63 460q6 47 -37 75.5t-121 28.5q-105 0 -184 -56t-117.5 -142t-38.5 -186q0 -214 188 -214q50 0 113 20q29 11 39 5.5t3 -43.5l-7 -46q-8 -62 -53 -99q-82 -68 -209 -68q-152 0 -239 101t-87 292q0 178 73 330t208.5 245.5t304.5 93.5 q130 0 204 -46l12 92h-151z" glyph-name="dcroat" unicode="đ"/><glyph d="M641 -26q-221 0 -346 103.5t-125 281.5q0 155 91.5 259t230.5 128q-68 34 -104.5 97.5t-36.5 143.5q0 159 133 254t352 95q140 0 227 -42.5t87 -131.5q0 -32 -8.5 -70t-25.5 -77t-49 -65t-72 -26q-26 0 -45.5 10.5t-19.5 31.5q0 15 2.5 39t2.5 42q0 67 -112 66 q-100 0 -158 -43.5t-58 -116.5q0 -58 39.5 -98.5t120.5 -47.5q101 -9 93 -106q-4 -49 -34.5 -74.5t-82.5 -25.5q-147 0 -222 -51.5t-75 -146.5q0 -87 64 -137.5t195 -50.5q75 0 161.5 15t132.5 29q43 13 65.5 -10.5t21.5 -68.5q-1 -85 -85 -131q-56 -31 -155.5 -53 t-204.5 -22zM457 1658l8 52q4 34 28.5 54.5t59.5 20.5h494q36 0 53.5 -20t13.5 -55l-8 -52q-4 -34 -28.5 -54.5t-59.5 -20.5h-494q-36 0 -53.5 20t-13.5 55z" glyph-name="Emacron" unicode="Ē"/><glyph d="M650 -26q-240 0 -372 125t-132 336q0 163 78 300.5t214.5 219t300.5 81.5t254.5 -77t90.5 -191q0 -55 -22 -108t-69 -106.5t-133 -102.5t-203 -84q-77 -24 -123 -11t-59 59q-12 40 7.5 71.5t67.5 44.5q297 81 297 197q0 40 -34.5 66.5t-98.5 26.5q-58 0 -116 -25 t-105.5 -70t-77 -116t-29.5 -156q0 -127 72.5 -198.5t223.5 -71.5q126 0 230 50q94 44 137 -23q25 -36 14 -75t-59 -67q-151 -95 -354 -95zM438 1361l8 52q4 34 29 54.5t60 20.5h493q36 0 54 -20t14 -55l-9 -52q-4 -34 -28.5 -54.5t-59.5 -20.5h-493q-36 0 -54 20t-14 55z " glyph-name="emacron" unicode="ē"/><glyph d="M641 -26q-221 0 -346 103.5t-125 281.5q0 155 91.5 259t230.5 128q-68 34 -104.5 97.5t-36.5 143.5q0 159 133 254t352 95q140 0 227 -42.5t87 -131.5q0 -32 -8.5 -70t-25.5 -77t-49 -65t-72 -26q-26 0 -45.5 10.5t-19.5 31.5q0 15 2.5 39t2.5 42q0 67 -112 66 q-100 0 -158 -43.5t-58 -116.5q0 -58 39.5 -98.5t120.5 -47.5q101 -9 93 -106q-4 -49 -34.5 -74.5t-82.5 -25.5q-147 0 -222 -51.5t-75 -146.5q0 -87 64 -137.5t195 -50.5q75 0 161.5 15t132.5 29q43 13 65.5 -10.5t21.5 -68.5q-1 -85 -85 -131q-56 -31 -155.5 -53 t-204.5 -22zM656 1699q0 54 39 92.5t93.5 38.5t93.5 -38.5t39 -92.5q0 -56 -39 -95t-93.5 -39t-93.5 39t-39 95z" glyph-name="Edotaccent" unicode="Ė"/><glyph d="M650 -26q-240 0 -372 125t-132 336q0 163 78 300.5t214.5 219t300.5 81.5t254.5 -77t90.5 -191q0 -55 -22 -108t-69 -106.5t-133 -102.5t-203 -84q-77 -24 -123 -11t-59 59q-12 40 7.5 71.5t67.5 44.5q297 81 297 197q0 40 -34.5 66.5t-98.5 26.5q-58 0 -116 -25 t-105.5 -70t-77 -116t-29.5 -156q0 -127 72.5 -198.5t223.5 -71.5q126 0 230 50q94 44 137 -23q25 -36 14 -75t-59 -67q-151 -95 -354 -95zM638 1402q0 54 39 92.5t93 38.5t93 -38.5t39 -92.5q0 -56 -39 -95t-93 -39t-93 39t-39 95z" glyph-name="edotaccent" unicode="ė"/><glyph d="M641 -26h-47q-56 0 -87.5 -26.5t-31.5 -78.5q0 -102 116 -102q38 0 56 -24.5t13 -57.5q-4 -33 -28 -55.5t-65 -22.5h-22q-50 0 -94.5 11t-83.5 35.5t-61.5 69t-22.5 103.5q0 130 109 193q-108 46 -165 134t-57 206q0 155 91.5 259t230.5 128q-68 34 -104.5 97.5 t-36.5 143.5q0 159 133 254t352 95q140 0 227 -42.5t87 -131.5q0 -32 -8.5 -70t-25.5 -77t-49 -65t-72 -26q-26 0 -45.5 10.5t-19.5 31.5q0 15 2.5 39t2.5 42q0 67 -112 66q-100 0 -158 -43.5t-58 -116.5q0 -58 39.5 -98.5t120.5 -47.5q101 -9 93 -106q-4 -49 -34.5 -74.5 t-82.5 -25.5q-147 0 -222 -51.5t-75 -146.5q0 -87 64 -137.5t195 -50.5q75 0 161.5 15t132.5 29q43 13 65.5 -10.5t21.5 -68.5q-1 -85 -85 -131q-56 -31 -155.5 -53t-204.5 -22z" glyph-name="Eogonek" unicode="Ę"/><glyph d="M650 -26h-1h-47q-56 0 -87.5 -26.5t-31.5 -78.5q0 -102 116 -102q38 0 56 -24.5t14 -57.5t-28.5 -55.5t-65.5 -22.5h-22q-50 0 -94.5 11t-83.5 35.5t-61.5 69t-22.5 103.5q0 129 110 194q-124 53 -189.5 161t-65.5 254q0 163 78 300.5t214.5 219t300.5 81.5t254.5 -77 t90.5 -191q0 -55 -22 -108t-69 -106.5t-133 -102.5t-203 -84q-77 -24 -123 -11t-59 59q-12 40 7.5 71.5t67.5 44.5q297 81 297 197q0 40 -34.5 66.5t-98.5 26.5q-58 0 -116 -25t-105.5 -70t-77 -116t-29.5 -156q0 -127 72.5 -198.5t223.5 -71.5q126 0 230 50q94 44 137 -23 q25 -36 14 -75t-59 -67q-151 -95 -354 -95z" glyph-name="eogonek" unicode="ę"/><glyph d="M641 -26q-221 0 -346 103.5t-125 281.5q0 155 91.5 259t230.5 128q-68 34 -104.5 97.5t-36.5 143.5q0 159 133 254t352 95q140 0 227 -42.5t87 -131.5q0 -32 -8.5 -70t-25.5 -77t-49 -65t-72 -26q-26 0 -45.5 10.5t-19.5 31.5q0 15 2.5 39t2.5 42q0 67 -112 66 q-100 0 -158 -43.5t-58 -116.5q0 -58 39.5 -98.5t120.5 -47.5q101 -9 93 -106q-4 -49 -34.5 -74.5t-82.5 -25.5q-147 0 -222 -51.5t-75 -146.5q0 -87 64 -137.5t195 -50.5q75 0 161.5 15t132.5 29q43 13 65.5 -10.5t21.5 -68.5q-1 -85 -85 -131q-56 -31 -155.5 -53 t-204.5 -22zM460 1758q-18 29 -6 51t47 22h123q51 0 85 -51l65 -99q20 -32 50 0l92 99q47 51 98 51h133q35 0 41.5 -21.5t-20.5 -51.5l-188 -202q-27 -28 -53 -38.5t-66 -10.5h-164q-40 0 -63 11t-41 38z" glyph-name="Ecaron" unicode="Ě"/><glyph d="M650 -26q-240 0 -372 125t-132 336q0 163 78 300.5t214.5 219t300.5 81.5t254.5 -77t90.5 -191q0 -55 -22 -108t-69 -106.5t-133 -102.5t-203 -84q-77 -24 -123 -11t-59 59q-12 40 7.5 71.5t67.5 44.5q297 81 297 197q0 40 -34.5 66.5t-98.5 26.5q-58 0 -116 -25 t-105.5 -70t-77 -116t-29.5 -156q0 -127 72.5 -198.5t223.5 -71.5q126 0 230 50q94 44 137 -23q25 -36 14 -75t-59 -67q-151 -95 -354 -95zM441 1461q-18 29 -6 51t47 22h123q51 0 85 -51l66 -99q20 -32 50 0l92 99q47 51 97 51h133q35 0 42 -21.5t-20 -51.5l-188 -201 q-27 -28 -53 -39t-66 -11h-164q-40 0 -63 11t-42 39z" glyph-name="ecaron" unicode="ě"/><glyph d="M654 -26q-249 0 -389 148t-140 435q0 119 24 229t79.5 211.5t136 175.5t203 118.5t273.5 44.5q59 0 114.5 -6.5t106 -21.5t78.5 -42.5t23 -64.5l-7 -56q-4 -35 -30.5 -54t-61.5 -15q-133 17 -207 18q-103 0 -185.5 -33t-134 -85.5t-85.5 -124t-48 -143t-14 -146.5 q0 -174 77.5 -262t215.5 -88q84 0 139.5 40.5t69.5 144.5l19 137h-195q-35 0 -51 17.5t-11 51.5l11 69q9 70 79 69h357q70 0 60 -69l-47 -340q-13 -97 -55.5 -168.5t-106 -111.5t-137.5 -59t-161 -19zM426 1579l188 202q27 28 53 38.5t66 10.5h164q40 0 63 -11t41 -38 l134 -202q18 -29 5.5 -51t-46.5 -22h-123q-51 0 -85 52l-66 98q-20 32 -50 0l-92 -98q-47 -51 -97 -52h-134q-35 0 -41.5 22t20.5 51z" glyph-name="Gcircumflex" unicode="Ĝ"/><glyph d="M506 -219q-170 0 -295 55q-41 17 -56 55t4 80q17 40 53.5 53.5t76.5 -0.5q100 -31 207 -31q260 0 292 231l18 121q-60 -93 -136 -131t-174 -38q-161 0 -251.5 89t-90.5 257q0 80 20.5 154.5t64.5 140t107 114t153.5 77t197.5 28.5q109 0 203.5 -27t149 -75t45.5 -105 q-8 -52 -57.5 -76t-109.5 -1q-133 51 -256 51q-131 0 -198.5 -72t-67.5 -173q0 -85 46.5 -128.5t121.5 -43.5q146 0 260 182q46 74 125 74q67 0 97 -43t19 -120l-40 -283q-13 -93 -50 -166.5t-87.5 -119.5t-116.5 -76t-133 -41.5t-142 -11.5zM384 1282l188 202 q27 28 53 38.5t66 10.5h164q40 0 63 -11t41 -38l134 -202q18 -29 5.5 -51t-46.5 -22h-123q-51 0 -85 52l-66 98q-20 32 -50 0l-92 -98q-47 -51 -97 -52h-133q-35 0 -42 22t20 51z" glyph-name="gcircumflex" unicode="ĝ"/><glyph d="M654 -26q-249 0 -389 148t-140 435q0 119 24 229t79.5 211.5t136 175.5t203 118.5t273.5 44.5q59 0 114.5 -6.5t106 -21.5t78.5 -42.5t23 -64.5l-7 -56q-4 -35 -30.5 -54t-61.5 -15q-133 17 -207 18q-103 0 -185.5 -33t-134 -85.5t-85.5 -124t-48 -143t-14 -146.5 q0 -174 77.5 -262t215.5 -88q84 0 139.5 40.5t69.5 144.5l19 137h-195q-35 0 -51 17.5t-11 51.5l11 69q9 70 79 69h357q70 0 60 -69l-47 -340q-13 -97 -55.5 -168.5t-106 -111.5t-137.5 -59t-161 -19zM469 1798q2 32 36 32h106q27 0 29 -30q4 -50 44.5 -87t107.5 -37 q120 0 164 124q10 30 37 30h115q32 0 26 -32q-27 -136 -117 -213t-237 -77q-148 0 -232 78t-79 212z" glyph-name="Gbreve" unicode="Ğ"/><glyph d="M506 -219q-170 0 -295 55q-41 17 -56 55t4 80q17 40 53.5 53.5t76.5 -0.5q100 -31 207 -31q260 0 292 231l18 121q-60 -93 -136 -131t-174 -38q-161 0 -251.5 89t-90.5 257q0 80 20.5 154.5t64.5 140t107 114t153.5 77t197.5 28.5q109 0 203.5 -27t149 -75t45.5 -105 q-8 -52 -57.5 -76t-109.5 -1q-133 51 -256 51q-131 0 -198.5 -72t-67.5 -173q0 -85 46.5 -128.5t121.5 -43.5q146 0 260 182q46 74 125 74q67 0 97 -43t19 -120l-40 -283q-13 -93 -50 -166.5t-87.5 -119.5t-116.5 -76t-133 -41.5t-142 -11.5zM428 1501q2 32 36 32h106 q27 0 29 -30q4 -50 44.5 -87t107.5 -37q120 0 164 124q10 30 37 30h115q32 0 26 -32q-27 -136 -117 -213t-237 -77q-148 0 -232 78t-79 212z" glyph-name="gbreve" unicode="ğ"/><glyph d="M654 -26q-249 0 -389 148t-140 435q0 119 24 229t79.5 211.5t136 175.5t203 118.5t273.5 44.5q59 0 114.5 -6.5t106 -21.5t78.5 -42.5t23 -64.5l-7 -56q-4 -35 -30.5 -54t-61.5 -15q-133 17 -207 18q-103 0 -185.5 -33t-134 -85.5t-85.5 -124t-48 -143t-14 -146.5 q0 -174 77.5 -262t215.5 -88q84 0 139.5 40.5t69.5 144.5l19 137h-195q-35 0 -51 17.5t-11 51.5l11 69q9 70 79 69h357q70 0 60 -69l-47 -340q-13 -97 -55.5 -168.5t-106 -111.5t-137.5 -59t-161 -19zM656 1699q0 54 39 92.5t93.5 38.5t93.5 -38.5t39 -92.5q0 -56 -39 -95 t-93.5 -39t-93.5 39t-39 95z" glyph-name="Gdotaccent" unicode="Ġ"/><glyph d="M506 -219q-170 0 -295 55q-41 17 -56 55t4 80q17 40 53.5 53.5t76.5 -0.5q100 -31 207 -31q260 0 292 231l18 121q-60 -93 -136 -131t-174 -38q-161 0 -251.5 89t-90.5 257q0 80 20.5 154.5t64.5 140t107 114t153.5 77t197.5 28.5q109 0 203.5 -27t149 -75t45.5 -105 q-8 -52 -57.5 -76t-109.5 -1q-133 51 -256 51q-131 0 -198.5 -72t-67.5 -173q0 -85 46.5 -128.5t121.5 -43.5q146 0 260 182q46 74 125 74q67 0 97 -43t19 -120l-40 -283q-13 -93 -50 -166.5t-87.5 -119.5t-116.5 -76t-133 -41.5t-142 -11.5zM615 1402q0 54 39 92.5 t93.5 38.5t93.5 -38.5t39 -92.5q0 -56 -39 -95t-93.5 -39t-93.5 39t-39 95z" glyph-name="gdotaccent" unicode="ġ"/><glyph d="M654 -26q-249 0 -389 148t-140 435q0 119 24 229t79.5 211.5t136 175.5t203 118.5t273.5 44.5q59 0 114.5 -6.5t106 -21.5t78.5 -42.5t23 -64.5l-7 -56q-4 -35 -30.5 -54t-61.5 -15q-133 17 -207 18q-103 0 -185.5 -33t-134 -85.5t-85.5 -124t-48 -143t-14 -146.5 q0 -174 77.5 -262t215.5 -88q84 0 139.5 40.5t69.5 144.5l19 137h-195q-35 0 -51 17.5t-11 51.5l11 69q9 70 79 69h357q70 0 60 -69l-47 -340q-13 -97 -55.5 -168.5t-106 -111.5t-137.5 -59t-161 -19zM302 -228l5 39q4 38 32 59.5t65 21.5h185q133 0 204 -82t53 -217 l-31 -210q-4 -38 -31.5 -61t-66.5 -23h-37q-39 0 -60 23t-16 61l21 147q11 78 -24 118.5t-113 40.5h-111q-38 0 -59 22t-16 61z" glyph-name="Gcommaaccent" unicode="Ģ"/><glyph d="M506 -219q-170 0 -295 55q-41 17 -56 55t4 80q17 40 53.5 53.5t76.5 -0.5q100 -31 207 -31q260 0 292 231l18 121q-60 -93 -136 -131t-174 -38q-161 0 -251.5 89t-90.5 257q0 80 20.5 154.5t64.5 140t107 114t153.5 77t197.5 28.5q109 0 203.5 -27t149 -75t45.5 -105 q-8 -52 -57.5 -76t-109.5 -1q-133 51 -256 51q-131 0 -198.5 -72t-67.5 -173q0 -85 46.5 -128.5t121.5 -43.5q146 0 260 182q46 74 125 74q67 0 97 -43t19 -120l-40 -283q-13 -93 -50 -166.5t-87.5 -119.5t-116.5 -76t-133 -41.5t-142 -11.5zM426 1455l30 210 q5 38 32.5 61.5t66.5 23.5h37q39 0 60 -23.5t16 -61.5l-21 -146q-11 -78 24 -118.5t112 -40.5h112q38 0 59 -22.5t16 -60.5l-5 -39q-4 -38 -32 -60.5t-66 -22.5h-184q-133 0 -204 83t-53 217z" glyph-name="gcommaaccent" unicode="ģ"/><glyph d="M882 0q-50 0 -74 27t-16 76l44 317h-381l-47 -335q-12 -90 -103 -90h-73q-49 0 -72.5 27t-17.5 76l45 322h-26q-49 0 -73.5 27t-16.5 75l6 46q13 89 103 89h41l78 560q12 90 102 90h73q49 0 73 -28t17 -77l-77 -545h382l79 565q12 90 103 90h72q49 0 73.5 -27.5 t16.5 -76.5l-156 -1118q-12 -90 -103 -90h-72zM429 1599l188 202q27 28 53 38.5t66 10.5h164q40 0 63 -10.5t42 -38.5l133 -202q18 -29 6 -50.5t-47 -21.5h-123q-51 0 -85 51l-66 98q-20 32 -50 0l-92 -98q-47 -51 -97 -51h-133q-35 0 -42 21.5t20 50.5z" glyph-name="Hcircumflex" unicode="Ĥ"/><glyph d="M195 0q-49 0 -73 27.5t-18 75.5l158 1119q12 89 103 89h63q49 0 73 -28t17 -76l-93 -655l24 44q125 227 234.5 334t231.5 107q116 0 174 -85.5t35 -223.5l-76 -461q-5 -33 -8 -62t-3 -43.5t0.5 -34t0.5 -26.5q0 -53 -22 -77t-82 -24q-190 0 -151 239l57 330 q23 134 17 170q-5 43 -39 43q-18 0 -38.5 -12.5t-44.5 -39.5t-46.5 -57t-51.5 -77.5t-52.5 -87.5t-55.5 -100.5t-54.5 -103.5t-57 -109.5t-55.5 -105.5q-27 -48 -50 -68.5t-65 -20.5h-52zM112 1579l188 202q27 28 53 38.5t66 10.5h164q40 0 63 -11t41 -38l133 -202 q18 -29 6 -51t-47 -22h-123q-51 0 -85 52l-65 98q-20 32 -50 0l-92 -98q-47 -51 -98 -52h-133q-35 0 -41.5 22t20.5 51z" glyph-name="hcircumflex" unicode="ĥ"/><glyph d="M882 0q-50 0 -74 27t-16 76l44 317h-381l-47 -335q-12 -90 -103 -90h-73q-49 0 -72.5 27t-17.5 76l45 322h-26q-49 0 -73.5 27t-16.5 75l6 46q13 89 103 89h41l78 560q12 90 102 90h73q49 0 73 -28t17 -77l-29 -214h380l33 234q12 90 103 90h72q49 0 73.5 -27.5 t16.5 -76.5l-156 -1118q-12 -90 -103 -90h-72zM487 657h382l19 133h-382z" glyph-name="Hbar" unicode="Ħ"/><glyph d="M134 1118q-14 0 -21.5 9t-4.5 22l6 45q5 31 34 31h114q14 86 103 86h63q45 0 68.5 -22.5t22.5 -63.5h322q14 0 21 -9t5 -22l-7 -45q-1 -13 -10.5 -22t-24.5 -9h-319l-81 -566l24 44q125 227 234.5 334t231.5 107q116 0 174 -85.5t35 -223.5l-76 -461q-5 -33 -8 -62 t-3 -43.5t0.5 -34t0.5 -26.5q0 -53 -22 -77t-82 -24q-190 0 -151 239l57 330q23 134 17 170q-5 43 -39 43q-18 0 -38.5 -12.5t-44.5 -39.5t-46.5 -57t-51.5 -77.5t-52.5 -87.5t-55.5 -100.5t-54.5 -103.5t-57 -109.5t-55.5 -105.5q-27 -48 -50 -68.5t-65 -20.5h-52 q-49 0 -73 27.5t-18 75.5l144 1015h-114z" glyph-name="hbar" unicode="ħ"/><glyph d="M489 -26q-45 0 -84.5 6.5t-81 21t-67 46t-25.5 76.5q0 47 29 79.5t93 32.5q23 0 70.5 -6.5t72.5 -6.5q139 0 213 155q57 120 101 418q8 52 25 169l5 36q7 55 -9.5 76t-73.5 21q-115 0 -205.5 -60t-143.5 -168q-13 -24 -21 -36t-23.5 -29t-35.5 -24t-46 -7q-55 0 -84 33.5 t-29 87.5q0 72 46 149t125.5 142t198.5 107.5t252 42.5h47q175 0 232.5 -83t32.5 -267l-5 -37q-24 -168 -48.5 -290.5t-59.5 -239t-79.5 -194t-104.5 -136.5t-139 -87t-178 -28zM367 1537q-13 34 3.5 69.5t53.5 53.5l219 107q72 36 126 -6l98 -74q33 -24 76 -5l142 70 q38 18 73 5.5t48 -47.5q13 -34 -2 -68.5t-52 -53.5l-222 -108q-71 -35 -126 6l-98 74q-33 26 -75 4l-143 -70q-36 -17 -71.5 -4t-49.5 47z" glyph-name="Itilde" unicode="Ĩ"/><glyph d="M794 -27q-53 0 -101 9.5t-94.5 30t-80 53.5t-58.5 81.5t-29.5 113t6.5 147.5l49 297q8 51 -11 74t-71 23h-138q-50 0 -75 29t-17 83q14 99 109 100h266q117 0 171 -64t36 -180l-58 -337q-9 -71 -3.5 -116t30 -71.5t52 -36.5t64.5 -10q68 0 157 40q42 18 75.5 10t51.5 -42 q18 -31 13 -70.5t-36 -64.5q-49 -40 -128 -69.5t-180 -29.5zM271 1240q-13 34 4 70t54 53l219 107q72 36 126 -6l98 -74q33 -24 76 -5l142 70q38 18 73 5.5t48 -47.5q13 -34 -2 -68.5t-52 -53.5l-222 -108q-71 -35 -126 6l-99 74q-33 26 -74 4l-143 -70q-36 -17 -72 -4 t-50 47z" glyph-name="itilde" unicode="ĩ"/><glyph d="M489 -26q-45 0 -84.5 6.5t-81 21t-67 46t-25.5 76.5q0 47 29 79.5t93 32.5q23 0 70.5 -6.5t72.5 -6.5q139 0 213 155q57 120 101 418q8 52 25 169l5 36q7 55 -9.5 76t-73.5 21q-115 0 -205.5 -60t-143.5 -168q-13 -24 -21 -36t-23.5 -29t-35.5 -24t-46 -7q-55 0 -84 33.5 t-29 87.5q0 72 46 149t125.5 142t198.5 107.5t252 42.5h47q175 0 232.5 -83t32.5 -267l-5 -37q-24 -168 -48.5 -290.5t-59.5 -239t-79.5 -194t-104.5 -136.5t-139 -87t-178 -28zM457 1658l8 52q4 34 28.5 54.5t59.5 20.5h494q36 0 53.5 -20t13.5 -55l-8 -52 q-4 -34 -28.5 -54.5t-59.5 -20.5h-494q-36 0 -53.5 20t-13.5 55z" glyph-name="Imacron" unicode="Ī"/><glyph d="M794 -27q-53 0 -101 9.5t-94.5 30t-80 53.5t-58.5 81.5t-29.5 113t6.5 147.5l49 297q8 51 -11 74t-71 23h-138q-50 0 -75 29t-17 83q14 99 109 100h266q117 0 171 -64t36 -180l-58 -337q-9 -71 -3.5 -116t30 -71.5t52 -36.5t64.5 -10q68 0 157 40q42 18 75.5 10t51.5 -42 q18 -31 13 -70.5t-36 -64.5q-49 -40 -128 -69.5t-180 -29.5zM361 1361l9 52q4 34 28.5 54.5t59.5 20.5h493q36 0 54 -20t14 -55l-8 -52q-4 -34 -29 -54.5t-59 -20.5h-494q-36 0 -54 20t-14 55z" glyph-name="imacron" unicode="ī"/><glyph d="M489 -26h-1h-47q-56 0 -87 -26.5t-31 -78.5q0 -102 115 -102q38 0 56 -24.5t14 -57.5t-28 -55.5t-65 -22.5h-23q-50 0 -94.5 11t-83.5 35.5t-61.5 69t-22.5 103.5q0 145 138 209q-37 35 -37 89q0 47 29 79.5t93 32.5q23 0 70.5 -6.5t72.5 -6.5q139 0 213 155 q57 120 101 418q8 52 25 169l5 36q7 55 -9.5 76t-73.5 21q-115 0 -205.5 -60t-143.5 -168q-13 -24 -21 -36t-23.5 -29t-35.5 -24t-46 -7q-55 0 -84 33.5t-29 87.5q0 72 46 149t125.5 142t198.5 107.5t252 42.5h47q175 0 232.5 -83t32.5 -267l-5 -37q-24 -168 -48.5 -290.5 t-59.5 -239t-79.5 -194t-104.5 -136.5t-139 -87t-178 -28z" glyph-name="Iogonek" unicode="Į"/><glyph d="M794 -27h-48q-56 0 -87 -26.5t-31 -78.5q0 -102 115 -102q38 0 56 -24.5t14 -57.5t-28 -55.5t-65 -22.5h-23q-50 0 -94.5 11t-83.5 35.5t-61.5 69t-22.5 103.5q0 142 130 205q-172 108 -128 378l49 297q8 51 -11 74t-71 23h-138q-50 0 -75 29t-17 83q14 99 109 100h266 q117 0 171 -64t36 -180l-58 -337q-9 -71 -3.5 -116t30 -71.5t52 -36.5t64.5 -10q68 0 157 40q42 18 75.5 10t51.5 -42q18 -31 13 -70.5t-36 -64.5q-49 -40 -128 -69.5t-180 -29.5zM561 1402q0 54 39 92.5t93.5 38.5t93 -38.5t38.5 -92.5q0 -56 -38.5 -95t-93 -39t-93.5 39 t-39 95z" glyph-name="iogonek" unicode="į"/><glyph d="M489 -26q-45 0 -84.5 6.5t-81 21t-67 46t-25.5 76.5q0 47 29 79.5t93 32.5q23 0 70.5 -6.5t72.5 -6.5q139 0 213 155q57 120 101 418q8 52 25 169l5 36q7 55 -9.5 76t-73.5 21q-115 0 -205.5 -60t-143.5 -168q-13 -24 -21 -36t-23.5 -29t-35.5 -24t-46 -7q-55 0 -84 33.5 t-29 87.5q0 72 46 149t125.5 142t198.5 107.5t252 42.5h47q175 0 232.5 -83t32.5 -267l-5 -37q-24 -168 -48.5 -290.5t-59.5 -239t-79.5 -194t-104.5 -136.5t-139 -87t-178 -28zM656 1699q0 54 39 92.5t93.5 38.5t93.5 -38.5t39 -92.5q0 -56 -39 -95t-93.5 -39t-93.5 39 t-39 95z" glyph-name="Idotaccent" unicode="İ"/><glyph d="M794 -27q-53 0 -101 9.5t-94.5 30t-80 53.5t-58.5 81.5t-29.5 113t6.5 147.5l49 297q8 51 -11 74t-71 23h-138q-50 0 -75 29t-17 83q14 99 109 100h266q117 0 171 -64t36 -180l-58 -337q-9 -71 -3.5 -116t30 -71.5t52 -36.5t64.5 -10q68 0 157 40q42 18 75.5 10t51.5 -42 q18 -31 13 -70.5t-36 -64.5q-49 -40 -128 -69.5t-180 -29.5z" glyph-name="dotlessi" unicode="ı"/><glyph d="M634 -18q-125 0 -191 44t-31 129l6 17q17 43 45.5 58.5t52.5 10.5q67 -13 107 -14q119 0 203 81.5t109 254.5l73 510h-340q-54 0 -83 25.5t-21 81.5l5 37q8 53 41 73.5t86 20.5h490q54 0 83 -35.5t21 -94.5l-89 -633q-20 -150 -75 -262t-133 -177t-167.5 -96t-191.5 -31z M8 103l156 1118q13 90 103 90h73q49 0 73 -27.5t17 -76.5l-157 -1117q-12 -90 -102 -90h-73q-50 0 -73.5 27t-16.5 76z" glyph-name="IJ" unicode="Ĳ"/><glyph d="M169 171q-50 0 -74 27.5t-17 76.5l90 629q12 89 102 89h63q49 0 73 -27.5t17 -75.5l-89 -629q-13 -90 -104 -90h-61zM202 1327q0 65 44.5 109.5t108.5 44.5q63 0 108.5 -44.5t45.5 -109.5q0 -63 -45 -108t-109 -45q-65 0 -109 45t-44 108zM300 38q16 38 51.5 51t75.5 0 q98 -31 183 -31q237 0 274 272l48 354q7 52 -12 74.5t-71 22.5h-187q-50 0 -76 29.5t-18 83.5q14 99 110 99h313q116 0 169 -63.5t37 -179.5l-59 -442q-14 -108 -54 -191t-91 -133.5t-117.5 -82.5t-128.5 -44t-130 -12q-150 0 -257 53q-43 20 -60.5 57.5t0.5 82.5zM976 1327 q0 67 46.5 114t113 47t113.5 -47t47 -113.5t-47 -113.5t-113.5 -47t-113 47t-46.5 113z" glyph-name="ij" unicode="ĳ"/><glyph d="M508 -26q-195 0 -301.5 92.5t-106.5 258.5q0 41 7 78.5t25 79.5t46.5 76.5t76 67t110 54.5t151.5 35.5t197 13.5q22 0 85 -2l47 357h-89q-106 0 -162.5 -26.5t-57.5 -101.5q0 -96 -92 -96q-66 0 -104 44t-38 118q0 122 104.5 205t304.5 83h295q56 0 89.5 -38.5 t26.5 -94.5l-63 -473q17 -2 52 -9q60 -10 91.5 -44t24.5 -83q-8 -52 -44 -79t-89 -17l-65 11l-4 -27q-14 -106 -50.5 -192t-98 -152.5t-154.5 -102.5t-214 -36zM364 350q0 -67 45 -98.5t118 -31.5q63 0 108.5 22t71 64.5t39 86.5t21.5 106l2 17q-55 2 -82 2q-95 0 -161 -13 t-100.5 -38.5t-48 -53t-13.5 -63.5zM426 1579l188 202q27 28 53 38.5t66 10.5h164q40 0 63 -11t41 -38l134 -202q18 -29 5.5 -51t-46.5 -22h-123q-51 0 -85 52l-66 98q-20 32 -50 0l-92 -98q-47 -51 -97 -52h-134q-35 0 -41.5 22t20.5 51z" glyph-name="Jcircumflex" unicode="Ĵ"/><glyph d="M427 -155q-148 0 -256 53q-43 20 -61 57.5t1 82.5q16 38 52 51t76 0q98 -31 183 -31q236 0 272 272l51 375q7 52 -11.5 74.5t-70.5 22.5h-188q-50 0 -75.5 29t-17.5 83q14 99 110 100h313q116 0 169 -63.5t37 -180.5l-63 -462q-14 -108 -53.5 -191t-91 -133.5 t-117.5 -82.5t-128.5 -44t-130.5 -12zM378 1282l188 202q27 28 53 38.5t66 10.5h164q40 0 63 -11t41 -38l133 -202q18 -29 6 -51t-46 -22h-123q-51 0 -85 52l-66 98q-20 32 -50 0l-92 -98q-47 -51 -98 -52h-133q-35 0 -41.5 22t20.5 51z" glyph-name="jcircumflex" unicode="ĵ"/><glyph d="M1148 1311q57 0 71 -36.5t-30 -83.5q-292 -306 -436 -482l333 -593q29 -50 9.5 -83t-76.5 -33h-79q-77 0 -116 68l-131 231q-74 131 -99 207q-153 -225 -241 -416q-22 -46 -47.5 -68t-74.5 -22h-32q-61 0 -89.5 33t-20.5 90l153 1099q12 89 102 89h73q45 0 71 -23t21 -62 l-94 -673q82 175 216.5 356t277.5 325q42 42 79.5 59.5t82.5 17.5h77zM303 -228l5 39q4 38 32 59.5t66 21.5h184q133 0 204 -82t53 -217l-31 -210q-4 -38 -31.5 -61t-66.5 -23h-37q-39 0 -60 23t-16 61l21 147q11 78 -24 118.5t-113 40.5h-111q-38 0 -59 22t-16 61z" glyph-name="Kcommaaccent" unicode="Ķ"/><glyph d="M898 -26q-153 0 -256.5 106t-126.5 289q-9 65 27 101t109 54q92 22 146.5 72t54.5 115q0 45 -26.5 71t-76 26t-101.5 -26t-101 -76t-86.5 -132t-51.5 -185l-43 -300q-12 -89 -103 -89h-62q-49 0 -73.5 27.5t-16.5 75.5l157 1119q14 89 104 89h62q49 0 72.5 -28t17.5 -76 l-51 -363q133 180 351 180q129 0 204 -64.5t75 -182.5q0 -145 -106.5 -257t-259.5 -140q19 -83 68.5 -133t125.5 -50q18 0 34 2.5t39 9t26 7.5q33 8 60.5 -9t39.5 -51q25 -69 -46.5 -125.5t-185.5 -56.5zM304 -228l5 39q4 38 32 59.5t66 21.5h184q133 0 204 -82t53 -217 l-31 -210q-4 -38 -31.5 -61t-66.5 -23h-37q-39 0 -60 23t-16 61l21 147q11 78 -24 118.5t-113 40.5h-111q-38 0 -59 22t-16 61z" glyph-name="kcommaaccent" unicode="ķ"/><glyph d="M895 -27q-83 0 -237.5 47.5t-229.5 47.5q-56 0 -106 -18t-87 -36.5t-65 -18.5q-41 0 -67 22t-26 64q0 40 27.5 79t59 80.5t37.5 83.5l71 513q38 269 158.5 384t323.5 115q164 0 264 -68t100 -197q0 -74 -34 -123t-106 -49q-55 0 -86 29.5t-36 79.5q-3 38 -29 62t-81.5 24 t-95 -31t-73.5 -120.5t-57 -245.5l-45 -324q-8 -49 -33 -93q26 7 60 7q89 0 213 -39.5t201 -39.5q37 0 72 6t45 6q67 0 67 -86q0 -77 -55 -119t-150 -42zM469 1637l102 169q19 33 51 52t67 19h67q40 0 54.5 -22t-4.5 -55l-104 -170q-42 -71 -117 -70h-67q-40 0 -54 22.5 t5 54.5z" glyph-name="Lacute" unicode="Ĺ"/><glyph d="M664 -26q-58 0 -110 11t-101.5 37t-84 65.5t-55.5 100t-20 136.5l-98 -31q-56 -17 -91.5 7.5t-30.5 71.5l3 22q6 49 29.5 77.5t73.5 42.5l143 41l36 245q19 130 60.5 231t91 162.5t112.5 101t121.5 54.5t121.5 15q285 0 285 -302q0 -428 -595 -652q-12 -117 35.5 -169 t127.5 -52q30 0 60.5 8.5t46 15t49.5 24.5q39 19 75.5 12t57.5 -42q19 -28 13 -66.5t-41 -64.5q-48 -41 -131 -71.5t-184 -30.5zM593 648q92 41 156.5 86.5t99 92.5t48.5 92.5t14 95.5q0 121 -85 121q-71 0 -127.5 -89t-88.5 -289zM751 1576l102 169q19 33 51 52t67 19h66 q40 0 55 -22t-5 -55l-103 -170q-42 -71 -118 -71h-66q-40 0 -54 23t5 55z" glyph-name="lacute" unicode="ĺ"/><glyph d="M895 -27q-83 0 -237.5 47.5t-229.5 47.5q-56 0 -106 -18t-87 -36.5t-65 -18.5q-41 0 -67 22t-26 64q0 40 27.5 79t59 80.5t37.5 83.5l71 513q38 269 158.5 384t323.5 115q164 0 264 -68t100 -197q0 -74 -34 -123t-106 -49q-55 0 -86 29.5t-36 79.5q-3 38 -29 62t-81.5 24 t-95 -31t-73.5 -120.5t-57 -245.5l-45 -324q-8 -49 -33 -93q26 7 60 7q89 0 213 -39.5t201 -39.5q37 0 72 6t45 6q67 0 67 -86q0 -77 -55 -119t-150 -42zM303 -228l5 39q4 38 32 59.5t66 21.5h184q133 0 204 -82t53 -217l-31 -210q-4 -38 -31.5 -61t-66.5 -23h-37 q-39 0 -60 23t-16 61l21 147q11 78 -24 118.5t-113 40.5h-111q-38 0 -59 22t-16 61z" glyph-name="Lcommaaccent" unicode="Ļ"/><glyph d="M664 -26q-58 0 -110 11t-101.5 37t-84 65.5t-55.5 100t-20 136.5l-98 -31q-56 -17 -91.5 7.5t-30.5 71.5l3 22q6 49 29.5 77.5t73.5 42.5l143 41l36 245q19 130 60.5 231t91 162.5t112.5 101t121.5 54.5t121.5 15q285 0 285 -302q0 -428 -595 -652q-12 -117 35.5 -169 t127.5 -52q30 0 60.5 8.5t46 15t49.5 24.5q39 19 75.5 12t57.5 -42q19 -28 13 -66.5t-41 -64.5q-48 -41 -131 -71.5t-184 -30.5zM309 -228l5 39q4 38 32 59.5t66 21.5h184q133 0 204 -82t53 -217l-31 -210q-4 -38 -31.5 -61t-66.5 -23h-37q-39 0 -60 23t-16 61l21 147 q11 78 -24 118.5t-112 40.5h-112q-38 0 -59 22t-16 61zM593 648q92 41 156.5 86.5t99 92.5t48.5 92.5t14 95.5q0 121 -85 121q-71 0 -127.5 -89t-88.5 -289z" glyph-name="lcommaaccent" unicode="ļ"/><glyph d="M842 -27q-83 0 -237.5 47.5t-229.5 47.5q-56 0 -106 -18t-87.5 -36.5t-64.5 -18.5q-41 0 -67 22t-26 64q0 40 27.5 79t58.5 80.5t37 83.5l72 513q38 269 158.5 384t322.5 115q164 0 264.5 -68t100.5 -197q0 -74 -34.5 -123t-105.5 -49q-55 0 -86 29.5t-36 79.5 q-3 38 -29 62t-81.5 24t-95 -31t-74 -120.5t-56.5 -245.5l-45 -324q-8 -49 -33 -93q26 7 60 7q89 0 212.5 -39.5t201.5 -39.5q37 0 72 6t45 6q67 0 67 -86q0 -77 -55 -119t-150 -42zM843 1594l5 40q4 38 31.5 60t65.5 22h183q133 0 204 -83t51 -215l-29 -210q-4 -38 -32 -61 t-67 -23h-36q-39 0 -60 23.5t-15 60.5l20 147q22 158 -136 157h-110q-38 0 -58.5 22t-16.5 60z" glyph-name="Lcaron" unicode="Ľ"/><glyph d="M600 -26q-58 0 -110 11t-101 37t-84 65.5t-56 100t-20 136.5l-98 -31q-56 -17 -91.5 7.5t-30.5 71.5l3 22q6 49 30 77.5t74 42.5l142 41l37 245q19 130 60 231t91 162.5t113 101t121 54.5t122 15q285 0 284 -302q0 -428 -594 -652q-12 -117 35 -169t127 -52 q30 0 60.5 8.5t46 15t50.5 24.5q39 19 75.5 12t56.5 -42q19 -28 13 -66.5t-41 -64.5q-48 -41 -131 -71.5t-184 -30.5zM529 648q92 41 157 86.5t99 92.5t48.5 92.5t14.5 95.5q0 121 -85 121q-71 0 -127.5 -89t-88.5 -289zM907 1585l5 37q4 36 29.5 57.5t59.5 21.5h168 q122 0 187 -79t48 -207l-28 -200q-4 -36 -29 -58t-61 -22h-34q-36 0 -54.5 22.5t-13.5 57.5l18 140q20 152 -125 151h-101q-35 0 -54 21t-15 58z" glyph-name="lcaron" unicode="ľ"/><glyph d="M895 -27q-83 0 -237.5 47.5t-229.5 47.5q-56 0 -106 -18t-87 -36.5t-65 -18.5q-41 0 -67 22t-26 64q0 40 27.5 79t59 80.5t37.5 83.5l71 513q38 269 158.5 384t323.5 115q164 0 264 -68t100 -197q0 -74 -34 -123t-106 -49q-55 0 -86 29.5t-36 79.5q-3 38 -29 62t-81.5 24 t-95 -31t-73.5 -120.5t-57 -245.5l-45 -324q-8 -49 -33 -93q26 7 60 7q89 0 213 -39.5t201 -39.5q37 0 72 6t45 6q67 0 67 -86q0 -77 -55 -119t-150 -42zM676 585q0 88 62 150t150 62t149.5 -62t61.5 -150t-61.5 -149.5t-149.5 -61.5t-150 61.5t-62 149.5z" glyph-name="Ldot" unicode="Ŀ"/><glyph d="M617 -26q-58 0 -109.5 11t-101 37t-84 65.5t-55.5 100t-20 136.5l-99 -31q-56 -17 -91 7.5t-30 71.5l3 22q6 49 29.5 77.5t73.5 42.5l142 41l37 245q19 130 60.5 231t91 162.5t112.5 101t121.5 54.5t121.5 15q285 0 285 -302q0 -428 -595 -652q-12 -117 35.5 -169 t127.5 -52q30 0 60.5 8.5t46 15t49.5 24.5q39 19 75.5 12t57.5 -42q19 -28 13 -66.5t-41 -64.5q-48 -41 -131.5 -71.5t-184.5 -30.5zM547 648q92 41 156.5 86.5t99 92.5t48.5 92.5t14 95.5q0 121 -85 121q-71 0 -127.5 -89t-88.5 -289zM882 461.5q0 68.5 48 116.5t117 48 q68 0 115 -48t47 -116.5t-47.5 -116t-114.5 -47.5q-70 0 -117.5 47.5t-47.5 116z" glyph-name="ldot" unicode="ŀ"/><glyph d="M118 379q-23 -12 -38 -3.5t-18 35.5l-1 23q-3 39 31 55l142 76l38 272q38 269 158.5 384t323.5 115q164 0 264 -68t100 -197q0 -74 -34 -123t-106 -49q-55 0 -86 29.5t-36 79.5q-3 38 -29 62t-82 24q-54 0 -93 -29.5t-72.5 -114t-56.5 -231.5l163 87q23 12 38.5 4 t16.5 -34l2 -23q3 -38 -30 -56l-208 -111l-30 -213q-8 -49 -33 -93q26 7 60 7q89 0 213 -39.5t201 -39.5q37 0 72 6t45 6q67 0 67 -86q0 -77 -55 -119t-150 -42q-83 0 -237.5 47.5t-229.5 47.5q-56 0 -106 -18t-87 -36.5t-65 -18.5q-41 0 -67 22t-26 64q0 40 27.5 79 t59 80.5t37.5 83.5l15 107z" glyph-name="Lslash" unicode="Ł"/><glyph d="M229 669q-24 -8 -37 2.5t-9 36.5l4 28q6 34 38 47l140 52q22 122 62.5 216.5t90 152.5t110.5 94.5t118.5 51t118.5 14.5q285 0 285 -302q0 -428 -595 -652q-12 -117 35.5 -169t127.5 -52q30 0 60.5 8.5t46 15t49.5 24.5q39 19 75.5 12t57.5 -42q19 -28 13 -66.5 t-41 -64.5q-48 -41 -131 -71.5t-184 -30.5q-58 0 -110 11t-101.5 37t-84 65.5t-55.5 100t-20 136.5l-98 -31q-56 -17 -91.5 7.5t-30.5 71.5l3 22q6 49 29.5 77.5t73.5 42.5l143 41l23 157zM593 648q92 41 156.5 86.5t99 92.5t48.5 92.5t14 95.5q0 121 -85 121 q-110 0 -174 -194l84 31q24 8 37.5 -2t9.5 -36l-5 -30q-4 -35 -38 -47l-119 -45q-4 -19 -11 -55z" glyph-name="lslash" unicode="ł"/><glyph d="M849 0q-39 0 -62.5 17.5t-46.5 52.5q-81 128 -157 299t-128 354l-88 -633q-13 -90 -104 -90h-73q-49 0 -73 27t-17 76l157 1118q12 90 102 90h119q39 0 68 -18t29 -51q0 -197 67.5 -434.5t171.5 -459.5l122 873q12 90 102 90h73q49 0 73 -27.5t17 -76.5l-157 -1117 q-12 -90 -102 -90h-93zM683 1611l102 169q19 33 51 51.5t67 18.5h67q40 0 54.5 -22t-4.5 -54l-104 -170q-42 -71 -117 -71h-67q-40 0 -54 23t5 55z" glyph-name="Nacute" unicode="Ń"/><glyph d="M195 0q-49 0 -73 27.5t-18 75.5l117 822q12 89 103 89h63q49 0 73 -28t17 -76l-52 -360q140 260 253.5 373.5t236.5 113.5q116 0 174 -85.5t35 -223.5l-76 -461q-5 -33 -8 -62t-3 -43.5t0.5 -34t0.5 -26.5q0 -53 -22 -77t-82 -24q-190 0 -151 239l57 330q23 134 17 170 q-5 43 -39 43q-18 0 -38.5 -12.5t-44.5 -39.5t-46.5 -57t-51.5 -77.5t-52.5 -87.5t-55.5 -100.5t-54.5 -103.5t-57 -109.5t-55.5 -105.5q-27 -48 -50 -68.5t-65 -20.5h-52zM652 1293l103 169q19 33 51 52t66 19h67q40 0 55 -22t-5 -55l-103 -170q-42 -71 -118 -71h-67 q-40 0 -54 23t5 55z" glyph-name="nacute" unicode="ń"/><glyph d="M849 0q-39 0 -62.5 17.5t-46.5 52.5q-81 128 -157 299t-128 354l-88 -633q-13 -90 -104 -90h-73q-49 0 -73 27t-17 76l157 1118q12 90 102 90h119q39 0 68 -18t29 -51q0 -197 67.5 -434.5t171.5 -459.5l122 873q12 90 102 90h73q49 0 73 -27.5t17 -76.5l-157 -1117 q-12 -90 -102 -90h-93zM303 -228l5 39q4 38 32 59.5t66 21.5h184q133 0 204 -82t53 -217l-31 -210q-4 -38 -31.5 -61t-66.5 -23h-37q-39 0 -60 23t-16 61l21 147q11 78 -24 118.5t-113 40.5h-111q-38 0 -59 22t-16 61z" glyph-name="Ncommaaccent" unicode="Ņ"/><glyph d="M195 0q-49 0 -73 27.5t-18 75.5l117 822q12 89 103 89h63q49 0 73 -28t17 -76l-52 -360q140 260 253.5 373.5t236.5 113.5q116 0 174 -85.5t35 -223.5l-76 -461q-5 -33 -8 -62t-3 -43.5t0.5 -34t0.5 -26.5q0 -53 -22 -77t-82 -24q-190 0 -151 239l57 330q23 134 17 170 q-5 43 -39 43q-18 0 -38.5 -12.5t-44.5 -39.5t-46.5 -57t-51.5 -77.5t-52.5 -87.5t-55.5 -100.5t-54.5 -103.5t-57 -109.5t-55.5 -105.5q-27 -48 -50 -68.5t-65 -20.5h-52zM309 -228l5 39q4 38 32 59.5t66 21.5h184q133 0 204 -82t53 -217l-31 -210q-4 -38 -31.5 -61 t-66.5 -23h-37q-39 0 -60 23t-16 61l21 147q11 78 -24 118.5t-112 40.5h-112q-38 0 -59 22t-16 61z" glyph-name="ncommaaccent" unicode="ņ"/><glyph d="M849 0q-39 0 -62.5 17.5t-46.5 52.5q-81 128 -157 299t-128 354l-88 -633q-13 -90 -104 -90h-73q-49 0 -73 27t-17 76l157 1118q12 90 102 90h119q39 0 68 -18t29 -51q0 -197 67.5 -434.5t171.5 -459.5l122 873q12 90 102 90h73q49 0 73 -27.5t17 -76.5l-157 -1117 q-12 -90 -102 -90h-93zM463 1779q-18 29 -6 50.5t47 21.5h123q51 0 85 -51l65 -98q20 -32 50 0l93 98q47 51 97 51h133q35 0 41.5 -21.5t-20.5 -50.5l-188 -202q-27 -28 -53 -38.5t-66 -10.5h-164q-40 0 -63 10.5t-41 38.5z" glyph-name="Ncaron" unicode="Ň"/><glyph d="M195 0q-49 0 -73 27.5t-18 75.5l117 822q12 89 103 89h63q49 0 73 -28t17 -76l-52 -360q140 260 253.5 373.5t236.5 113.5q116 0 174 -85.5t35 -223.5l-76 -461q-5 -33 -8 -62t-3 -43.5t0.5 -34t0.5 -26.5q0 -53 -22 -77t-82 -24q-190 0 -151 239l57 330q23 134 17 170 q-5 43 -39 43q-18 0 -38.5 -12.5t-44.5 -39.5t-46.5 -57t-51.5 -77.5t-52.5 -87.5t-55.5 -100.5t-54.5 -103.5t-57 -109.5t-55.5 -105.5q-27 -48 -50 -68.5t-65 -20.5h-52zM432 1461q-18 29 -6 51t47 22h123q51 0 85 -51l65 -99q20 -32 51 0l92 99q47 51 97 51h133 q35 0 41.5 -21.5t-19.5 -51.5l-189 -201q-27 -28 -53 -39t-65 -11h-164q-40 0 -63 11t-42 39z" glyph-name="ncaron" unicode="ň"/><glyph d="M542 -387q-80 0 -71 77l12 95q9 70 79 70q209 0 230 152l1 6q-26 16 -53 57q-81 128 -157 299t-128 354l-88 -633q-13 -90 -104 -90h-73q-49 0 -73 27t-17 76l157 1118q12 90 102 90h119q39 0 68 -18t29 -51q0 -197 67.5 -434.5t171.5 -459.5l122 873q12 90 102 90h73 q49 0 73 -27.5t17 -76.5l-137 -980l-8 -55l-12 -82l-2 -12l-12 -85q-28 -199 -147 -289.5t-341 -90.5z" glyph-name="Eng" unicode="Ŋ"/><glyph d="M498 -352q-138 0 -255 52q-43 20 -62 59.5t0 81.5q16 37 51 50.5t77 0.5q102 -32 183 -31q227 0 264 272l58 433q15 115 -13.5 173.5t-91.5 58.5q-117 0 -217.5 -185t-148.5 -524q-13 -89 -103 -89h-63q-49 0 -73 27.5t-17 75.5l117 822q13 89 103 89h63q49 0 73 -28 t17 -76l-35 -245h15q69 172 169.5 271.5t228.5 99.5q132 0 200.5 -106t42.5 -296l-70 -522q-14 -108 -53.5 -191.5t-90 -133.5t-116 -83t-126 -44.5t-127.5 -11.5z" glyph-name="eng" unicode="ŋ"/><glyph d="M568 -26q-251 0 -366.5 174.5t-68.5 515.5q46 334 200 503t401 169q252 0 367.5 -174t66.5 -517q-46 -332 -199.5 -501.5t-400.5 -169.5zM392 664q-15 -101 -9 -175.5t23 -124.5t48.5 -79.5t66.5 -42t79 -12.5q253 0 309 415q59 435 -208 435q-253 1 -309 -416zM466 1719 l8 53q4 34 28.5 54t59.5 20h494q36 0 53.5 -20t13.5 -54l-8 -53q-4 -34 -28.5 -54t-59.5 -20h-493q-36 0 -54 19.5t-14 54.5z" glyph-name="Omacron" unicode="Ō"/><glyph d="M608 -26q-219 0 -352 137.5t-133 361.5q0 157 65.5 285.5t183.5 203t267 74.5q49 0 92.5 -8.5t80.5 -26.5t55.5 -49.5t11.5 -74.5q-4 -23 -12.5 -39.5t-22.5 -25t-28 -13.5t-34.5 -5.5t-36.5 0t-39.5 2t-38.5 1.5q-134 0 -212.5 -87t-78.5 -226q0 -127 68 -198.5 t179 -71.5q114 0 185 70.5t71 160.5q0 45 -29 92t-29 80q0 53 37 81.5t86 28.5q81 0 132 -76.5t51 -191.5q0 -96 -37.5 -184.5t-104 -155t-165 -106t-212.5 -39.5zM430 1361l8 52q4 34 29 54.5t59 20.5h494q36 0 54 -20t13 -55l-8 -52q-4 -34 -28.5 -54.5t-59.5 -20.5h-493 q-36 0 -54 20t-14 55z" glyph-name="omacron" unicode="ō"/><glyph d="M568 -26q-251 0 -366.5 174.5t-68.5 515.5q46 334 200 503t401 169q252 0 367.5 -174t66.5 -517q-46 -332 -199.5 -501.5t-400.5 -169.5zM392 664q-15 -101 -9 -175.5t23 -124.5t48.5 -79.5t66.5 -42t79 -12.5q253 0 309 415q59 435 -208 435q-253 1 -309 -416zM493 1652 l102 169q19 33 51 51.5t67 18.5h66q40 0 55 -22t-5 -54l-103 -170q-42 -71 -118 -71h-66q-40 0 -54 23t5 55zM859 1652l103 169q19 33 50.5 51.5t66.5 18.5h67q40 0 54.5 -22t-4.5 -54l-103 -170q-42 -71 -118 -71h-67q-40 0 -54 23t5 55z" glyph-name="Ohungarumlaut" unicode="Ő"/><glyph d="M608 -26q-219 0 -352 137.5t-133 361.5q0 157 65.5 285.5t183.5 203t267 74.5q49 0 92.5 -8.5t80.5 -26.5t55.5 -49.5t11.5 -74.5q-4 -23 -12.5 -39.5t-22.5 -25t-28 -13.5t-34.5 -5.5t-36.5 0t-39.5 2t-38.5 1.5q-134 0 -212.5 -87t-78.5 -226q0 -127 68 -198.5 t179 -71.5q114 0 185 70.5t71 160.5q0 45 -29 92t-29 80q0 53 37 81.5t86 28.5q81 0 132 -76.5t51 -191.5q0 -96 -37.5 -184.5t-104 -155t-165 -106t-212.5 -39.5zM456 1293l102 169q19 33 51 52t67 19h66q40 0 55 -22t-4 -55l-104 -170q-42 -71 -118 -71h-66q-40 0 -54 23 t5 55zM822 1293l103 169q19 33 51 52t66 19h67q40 0 55 -22t-5 -55l-103 -170q-42 -71 -118 -71h-67q-40 0 -54 23t5 55z" glyph-name="ohungarumlaut" unicode="ő"/><glyph d="M538 0q-96 -1 -167 13t-126 45.5t-87.5 83t-49 128t-14.5 177.5t21 235q28 200 74.5 331.5t122 212.5t176 114t243.5 32h527q30 0 27 -31l-25 -176q-1 -13 -11 -21.5t-24 -8.5h-259l-46 -325h217q14 0 21 -8.5t5 -22.5l-24 -176q-5 -31 -35 -31h-217l-48 -334h262 q14 0 21 -9t5 -22l-24 -176q-5 -31 -36 -31h-529zM374 682q-17 -120 -18.5 -200t9.5 -128t41.5 -72.5t67 -31.5t98.5 -6l124 885q-60 0 -100 -8.5t-77 -34.5t-61.5 -75.5t-45.5 -129.5t-38 -199z" glyph-name="OE" unicode="Œ"/><glyph d="M323 -26q-161 0 -228 143t-33 388q34 247 137 389t263 142q169 0 236 -158q104 159 277 158q55 0 99 -17t72.5 -44.5t46.5 -65.5t26 -75.5t8 -78.5q0 -78 -28.5 -148t-85 -130t-153 -100.5t-223.5 -53.5q18 -144 151 -145q74 0 137 34q52 30 84 -17l12 -21 q35 -55 -13 -98q-113 -101 -268 -102q-182 0 -245 155q-106 -155 -272 -155zM256 505q-23 -156 4 -234t89 -78q63 0 110.5 77.5t69.5 234.5q22 156 -4.5 234.5t-89.5 78.5t-110 -78t-69 -235zM743 505q143 16 213 73.5t70 140.5q0 99 -88 99q-150 0 -195 -313z" glyph-name="oe" unicode="œ"/><glyph d="M143 0q-59 0 -88.5 36.5t-21.5 103.5l54 422q26 199 83.5 348t142 242t190.5 138.5t233 45.5q202 0 314 -105.5t112 -278.5q0 -166 -104 -283t-279 -156l292 -411q38 -55 8 -96.5t-100 -41.5h-9q-58 0 -89 21t-61 66l-318 475q-28 43 -21 85q12 78 102 89 q171 18 246.5 72.5t75.5 155.5q0 91 -50.5 130.5t-127.5 39.5q-84 0 -151.5 -46.5t-113 -131.5t-75 -191t-45.5 -239l-44 -363q-7 -67 -37 -97t-86 -30h-32zM680 1590l102 169q19 33 51 52t67 19h67q40 0 54.5 -22t-4.5 -55l-104 -170q-42 -71 -117 -71h-67q-40 0 -54 23 t5 55z" glyph-name="Racute" unicode="Ŕ"/><glyph d="M946 -20q-120 0 -176.5 81.5t-32.5 231.5l74 436l-143 1q-118 1 -206 15l-61 -348q-8 -48 -41 -79.5t-86 -31.5q-60 0 -93 41.5t-21 103.5l72 403q-74 59 -73 151q0 76 44.5 123.5t118.5 47.5q63 0 107.5 -36t44.5 -89t30.5 -67t134.5 -14h317q60 0 88 -34.5t19 -87.5 l-85 -525q-7 -47 11 -77.5t60 -30.5h13.5h13.5t12.5 -0.5t12.5 -2.5t9.5 -5t8.5 -7.5t6 -11t4 -16t1 -21.5q0 -79 -53.5 -115t-130.5 -36zM638 1293l102 169q19 33 51 52t67 19h67q40 0 54.5 -22t-4.5 -55l-104 -170q-42 -71 -117 -71h-67q-40 0 -54 23t5 55z" glyph-name="racute" unicode="ŕ"/><glyph d="M143 0q-59 0 -88.5 36.5t-21.5 103.5l54 422q26 199 83.5 348t142 242t190.5 138.5t233 45.5q202 0 314 -105.5t112 -278.5q0 -166 -104 -283t-279 -156l292 -411q38 -55 8 -96.5t-100 -41.5h-9q-58 0 -89 21t-61 66l-318 475q-28 43 -21 85q12 78 102 89 q171 18 246.5 72.5t75.5 155.5q0 91 -50.5 130.5t-127.5 39.5q-84 0 -151.5 -46.5t-113 -131.5t-75 -191t-45.5 -239l-44 -363q-7 -67 -37 -97t-86 -30h-32zM302 -228l5 39q4 38 32 59.5t65 21.5h185q133 0 204 -82t53 -217l-31 -210q-4 -38 -31.5 -61t-66.5 -23h-37 q-39 0 -60 23t-16 61l21 147q11 78 -24 118.5t-113 40.5h-111q-38 0 -59 22t-16 61z" glyph-name="Rcommaaccent" unicode="Ŗ"/><glyph d="M946 -20q-120 0 -176.5 81.5t-32.5 231.5l74 436l-143 1q-118 1 -206 15l-61 -348q-8 -48 -41 -79.5t-86 -31.5q-60 0 -93 41.5t-21 103.5l72 403q-74 59 -73 151q0 76 44.5 123.5t118.5 47.5q63 0 107.5 -36t44.5 -89t30.5 -67t134.5 -14h317q60 0 88 -34.5t19 -87.5 l-85 -525q-7 -47 11 -77.5t60 -30.5h13.5h13.5t12.5 -0.5t12.5 -2.5t9.5 -5t8.5 -7.5t6 -11t4 -16t1 -21.5q0 -79 -53.5 -115t-130.5 -36zM302 -228l5 39q4 38 32 59.5t65 21.5h185q133 0 204 -82t53 -217l-31 -210q-4 -38 -31.5 -61t-66.5 -23h-37q-39 0 -60 23t-16 61 l21 147q11 78 -24 118.5t-113 40.5h-111q-38 0 -59 22t-16 61z" glyph-name="rcommaaccent" unicode="ŗ"/><glyph d="M143 0q-59 0 -88.5 36.5t-21.5 103.5l54 422q26 199 83.5 348t142 242t190.5 138.5t233 45.5q202 0 314 -105.5t112 -278.5q0 -166 -104 -283t-279 -156l292 -411q38 -55 8 -96.5t-100 -41.5h-9q-58 0 -89 21t-61 66l-318 475q-28 43 -21 85q12 78 102 89 q171 18 246.5 72.5t75.5 155.5q0 91 -50.5 130.5t-127.5 39.5q-84 0 -151.5 -46.5t-113 -131.5t-75 -191t-45.5 -239l-44 -363q-7 -67 -37 -97t-86 -30h-32zM460 1758q-18 29 -6 51t47 22h123q51 0 85 -51l65 -99q20 -32 50 0l92 99q47 51 98 51h133q35 0 41.5 -21.5 t-20.5 -51.5l-188 -202q-27 -28 -53 -38.5t-66 -10.5h-164q-40 0 -63 11t-41 38z" glyph-name="Rcaron" unicode="Ř"/><glyph d="M946 -20q-120 0 -176.5 81.5t-32.5 231.5l74 436l-143 1q-118 1 -206 15l-61 -348q-8 -48 -41 -79.5t-86 -31.5q-60 0 -93 41.5t-21 103.5l72 403q-74 59 -73 151q0 76 44.5 123.5t118.5 47.5q63 0 107.5 -36t44.5 -89t30.5 -67t134.5 -14h317q60 0 88 -34.5t19 -87.5 l-85 -525q-7 -47 11 -77.5t60 -30.5h13.5h13.5t12.5 -0.5t12.5 -2.5t9.5 -5t8.5 -7.5t6 -11t4 -16t1 -21.5q0 -79 -53.5 -115t-130.5 -36zM418 1461q-18 29 -6 51t47 22h123q51 0 85 -51l65 -99q20 -32 50 0l92 99q47 51 98 51h133q35 0 41.5 -21.5t-20.5 -51.5l-188 -201 q-27 -28 -53 -39t-66 -11h-164q-40 0 -63 11t-41 39z" glyph-name="rcaron" unicode="ř"/><glyph d="M568 -26q-218 0 -350 66t-132 160q0 59 49 88.5t111 5.5q183 -86 342 -86q102 0 157.5 32.5t55.5 97.5q0 43 -28.5 83t-73 72t-98.5 66t-108.5 73.5t-99 84.5t-72.5 109t-28 139q0 116 61 201.5t159 127.5t217 42q112 0 208 -36t159 -111.5t63 -176.5q0 -75 -35 -119.5 t-111 -44.5q-92 0 -92 77q0 85 -51 131t-143 46q-81 0 -130.5 -36t-49.5 -102q0 -48 29 -91t75 -77t102.5 -68.5t112.5 -74t102 -84.5t75 -109t29 -138q0 -170 -130.5 -259t-374.5 -89zM680 1590l102 169q19 33 51 52t67 19h67q40 0 54.5 -22t-4.5 -55l-104 -170 q-42 -71 -117 -71h-67q-40 0 -54 23t5 55z" glyph-name="Sacute" unicode="Ś"/><glyph d="M625 -26q-119 0 -241 24.5t-201 66.5q-70 38 -93 83.5t-5 87.5q17 38 55 50t85 -5q232 -88 410 -88q123 0 176 43.5t53 108.5q0 44 -24 99t-55 102t-64.5 115t-46.5 131l-160 -225q-49 -70 -118 -62t-91 65.5t16 123.5l194 264q35 46 70.5 62.5t84.5 16.5h58 q55 0 93.5 -19t38.5 -51q0 -8 -5 -22.5t-5 -30.5q0 -47 41 -118.5t89.5 -138t89.5 -159t41 -176.5q0 -69 -27 -129.5t-82.5 -110t-152 -79t-224.5 -29.5zM614 1293l103 169q19 33 51 52t67 19h66q40 0 55 -22t-5 -55l-103 -170q-42 -71 -118 -71h-66q-40 0 -54.5 23t4.5 55z " glyph-name="sacute" unicode="ś"/><glyph d="M568 -26q-218 0 -350 66t-132 160q0 59 49 88.5t111 5.5q183 -86 342 -86q102 0 157.5 32.5t55.5 97.5q0 43 -28.5 83t-73 72t-98.5 66t-108.5 73.5t-99 84.5t-72.5 109t-28 139q0 116 61 201.5t159 127.5t217 42q112 0 208 -36t159 -111.5t63 -176.5q0 -75 -35 -119.5 t-111 -44.5q-92 0 -92 77q0 85 -51 131t-143 46q-81 0 -130.5 -36t-49.5 -102q0 -48 29 -91t75 -77t102.5 -68.5t112.5 -74t102 -84.5t75 -109t29 -138q0 -170 -130.5 -259t-374.5 -89zM426 1579l188 202q27 28 53 38.5t66 10.5h164q40 0 63 -11t41 -38l134 -202 q18 -29 5.5 -51t-46.5 -22h-123q-51 0 -85 52l-66 98q-20 32 -50 0l-92 -98q-47 -51 -97 -52h-134q-35 0 -41.5 22t20.5 51z" glyph-name="Scircumflex" unicode="Ŝ"/><glyph d="M625 -26q-119 0 -241 24.5t-201 66.5q-70 38 -93 83.5t-5 87.5q17 38 55 50t85 -5q232 -88 410 -88q123 0 176 43.5t53 108.5q0 44 -24 99t-55 102t-64.5 115t-46.5 131l-160 -225q-49 -70 -118 -62t-91 65.5t16 123.5l194 264q35 46 70.5 62.5t84.5 16.5h58 q55 0 93.5 -19t38.5 -51q0 -8 -5 -22.5t-5 -30.5q0 -47 41 -118.5t89.5 -138t89.5 -159t41 -176.5q0 -69 -27 -129.5t-82.5 -110t-152 -79t-224.5 -29.5zM360 1282l189 202q27 28 53 38.5t66 10.5h163q40 0 63.5 -11t41.5 -38l133 -202q18 -29 6 -51t-47 -22h-123 q-51 0 -85 52l-65 98q-20 32 -50 0l-93 -98q-47 -51 -97 -52h-133q-35 0 -42 22t20 51z" glyph-name="scircumflex" unicode="ŝ"/><glyph d="M342 -442q-18 3 -15 22l13 90q4 24 26 21q46 -5 86 -2.5t67 20.5t27 46q0 33 -46 47t-119 -13q-11 -4 -18 -0.5t-5 14.5l14 94q1 15 14 24l69 59q-170 17 -269.5 78.5t-99.5 141.5q0 59 49 88.5t111 5.5q183 -86 342 -86q102 0 157.5 32.5t55.5 97.5q0 43 -28.5 83 t-73 72t-98.5 66t-108.5 73.5t-99 84.5t-72.5 109t-28 139q0 116 61 201.5t159 127.5t217 42q112 0 208 -36t159 -111.5t63 -176.5q0 -75 -35 -119.5t-111 -44.5q-92 0 -92 77q0 85 -51 131t-143 46q-81 0 -130.5 -36t-49.5 -102q0 -48 29 -91t75 -77t102.5 -68.5t112.5 -74 t102 -84.5t75 -109t29 -138q0 -160 -116 -248t-333 -99l-57 -46q68 -6 114 -44t46 -100q0 -86 -57.5 -145t-144.5 -78.5t-183 -3.5z" glyph-name="Scedilla" unicode="Ş"/><glyph d="M625 -26h-23l-55 -45q68 -6 114 -44t46 -100q0 -86 -57.5 -145t-144.5 -79t-183 -3q-18 3 -16 22l13 90q4 24 26 21q46 -5 86 -2.5t67 20.5t27 46q0 33 -46 47t-119 -13q-11 -4 -17.5 -0.5t-4.5 14.5l13 94q1 15 15 24l77 67q-166 26 -260 77q-70 38 -93 83.5t-5 87.5 q17 38 55 50t85 -5q232 -88 410 -88q123 0 176 43.5t53 108.5q0 44 -24 99t-55 102t-64.5 115t-46.5 131l-160 -225q-49 -70 -118 -62t-91 65.5t16 123.5l194 264q35 46 70.5 62.5t84.5 16.5h58q55 0 93.5 -19t38.5 -51q0 -8 -5 -22.5t-5 -30.5q0 -47 41 -118.5t89.5 -138 t89.5 -159t41 -176.5q0 -69 -27 -129.5t-82.5 -110t-152 -79t-224.5 -29.5z" glyph-name="scedilla" unicode="ş"/><glyph d="M568 -26q-218 0 -350 66t-132 160q0 59 49 88.5t111 5.5q183 -86 342 -86q102 0 157.5 32.5t55.5 97.5q0 43 -28.5 83t-73 72t-98.5 66t-108.5 73.5t-99 84.5t-72.5 109t-28 139q0 116 61 201.5t159 127.5t217 42q112 0 208 -36t159 -111.5t63 -176.5q0 -75 -35 -119.5 t-111 -44.5q-92 0 -92 77q0 85 -51 131t-143 46q-81 0 -130.5 -36t-49.5 -102q0 -48 29 -91t75 -77t102.5 -68.5t112.5 -74t102 -84.5t75 -109t29 -138q0 -170 -130.5 -259t-374.5 -89zM460 1758q-18 29 -6 51t47 22h123q51 0 85 -51l65 -99q20 -32 50 0l92 99q47 51 98 51 h133q35 0 41.5 -21.5t-20.5 -51.5l-188 -202q-27 -28 -53 -38.5t-66 -10.5h-164q-40 0 -63 11t-41 38z" glyph-name="Scaron" unicode="Š"/><glyph d="M625 -26q-119 0 -241 24.5t-201 66.5q-70 38 -93 83.5t-5 87.5q17 38 55 50t85 -5q232 -88 410 -88q123 0 176 43.5t53 108.5q0 44 -24 99t-55 102t-64.5 115t-46.5 131l-160 -225q-49 -70 -118 -62t-91 65.5t16 123.5l194 264q35 46 70.5 62.5t84.5 16.5h58 q55 0 93.5 -19t38.5 -51q0 -8 -5 -22.5t-5 -30.5q0 -47 41 -118.5t89.5 -138t89.5 -159t41 -176.5q0 -69 -27 -129.5t-82.5 -110t-152 -79t-224.5 -29.5zM393 1461q-18 29 -6 51t47 22h123q51 0 85 -51l66 -99q20 -32 50 0l92 99q47 51 97 51h133q35 0 41.5 -21.5 t-19.5 -51.5l-189 -201q-27 -28 -52.5 -39t-65.5 -11h-164q-40 0 -63 11t-42 39z" glyph-name="scaron" unicode="š"/><glyph d="M504 -442q-18 3 -16 22l14 90q4 24 25 21q78 -10 138 4.5t60 52.5t-51.5 54t-130.5 -12q-11 -5 -18 -0.5t-5 14.5l58 298l180 940q6 31 -29 31h-244q-54 0 -74.5 -17t-15.5 -54q6 -51 -23.5 -76.5t-77.5 -25.5q-76 0 -120.5 59.5t-44.5 137.5q0 40 13 75.5t40 68 t76.5 51.5t115.5 19h435q75 0 152 10t97 10q65 0 102.5 -35.5t37.5 -95.5q0 -38 -17.5 -64t-44 -42t-54 -31.5t-50.5 -45t-32 -70.5l-158 -849l-36 -183q100 -30 100 -142q0 -85 -60 -141t-150.5 -73t-191.5 -1z" glyph-name="Tcommaaccent" unicode="Ţ"/><glyph d="M727 -26h-10l-55 -45q68 -6 113.5 -44t45.5 -100q0 -86 -57 -145t-144.5 -79t-183.5 -3q-18 3 -15 22l13 90q4 24 26 21q46 -5 86 -2.5t67 20.5t27 46q0 33 -46 47t-119 -13q-11 -4 -17.5 -0.5t-4.5 14.5l13 94q1 15 14 24l90 77q-74 25 -123 72t-72.5 134t-3.5 204 l61 373h-212q-49 0 -72.5 27.5t-16.5 75.5l3 20q13 89 103 89h230l31 189q8 52 34.5 75t77.5 23h46q55 0 81 -28.5t17 -84.5l-29 -174h325q49 0 72.5 -27.5t16.5 -75.5l-3 -20q-12 -89 -103 -89h-344l-57 -348q-37 -233 142 -233q68 0 158 40q42 18 75 10t52 -42 q18 -31 12.5 -70.5t-36.5 -64.5q-49 -40 -128 -69.5t-180 -29.5z" glyph-name="tcommaaccent" unicode="ţ"/><glyph d="M666 0q-47 0 -72.5 26t-15.5 76l180 940q6 31 -29 31h-244q-54 0 -74.5 -17t-15.5 -54q6 -51 -23.5 -76.5t-77.5 -25.5q-76 0 -120.5 59.5t-44.5 137.5q0 40 13 75.5t40 68t76.5 51.5t115.5 19h435q75 0 152 10t97 10q65 0 102.5 -35.5t37.5 -95.5q0 -38 -17.5 -64 t-44 -42t-54 -31.5t-50.5 -45t-32 -70.5l-158 -849q-10 -51 -35.5 -74.5t-70.5 -23.5h-70zM460 1758q-18 29 -6 51t47 22h123q51 0 85 -51l65 -99q20 -32 50 0l92 99q47 51 98 51h133q35 0 41.5 -21.5t-20.5 -51.5l-188 -202q-27 -28 -53 -38.5t-66 -10.5h-164q-40 0 -63 11 t-41 38z" glyph-name="Tcaron" unicode="Ť"/><glyph d="M727 -26q-53 0 -100.5 9.5t-94.5 30t-80 53t-58 81t-30 113t7 147.5l61 373h-212q-49 0 -72.5 27.5t-16.5 75.5l3 20q13 89 103 89h230l31 189q8 52 34.5 75t77.5 23h46q55 0 81 -28.5t17 -84.5l-29 -174h325q49 0 72.5 -27.5t16.5 -75.5l-3 -20q-12 -89 -103 -89h-344 l-57 -348q-37 -233 142 -233q68 0 158 40q42 18 75 10t52 -42q18 -31 12.5 -70.5t-36.5 -64.5q-49 -40 -128 -69.5t-180 -29.5zM1025 1437l102 169q19 33 51 51.5t67 18.5h67q40 0 54.5 -22t-4.5 -55l-104 -169q-42 -71 -117 -71h-67q-40 0 -54 23t5 55z" glyph-name="tcaron" unicode="ť"/><glyph d="M618 672q-56 0 -83.5 26.5t-20.5 73.5q14 101 118 101h93l33 169q6 31 -29 31h-244q-54 0 -74.5 -17t-15.5 -54q6 -51 -23.5 -76.5t-77.5 -25.5q-76 0 -120.5 59.5t-44.5 137.5q0 40 13 75.5t40 68t76.5 51.5t115.5 19h435q75 0 152 10t97 10q65 0 102.5 -35.5 t37.5 -95.5q0 -38 -17.5 -64t-44 -42t-54 -31.5t-50.5 -45t-32 -70.5l-13 -74h131q56 0 84 -27t21 -74q-14 -100 -118 -100h-156l-107 -574q-10 -51 -35.5 -74.5t-70.5 -23.5h-70q-47 0 -72.5 26t-15.5 76l109 570h-69z" glyph-name="Tbar" unicode="Ŧ"/><glyph d="M173 449q-49 0 -72 27t-16 75l3 20q12 89 101 89h244l20 121h-212q-49 0 -73 27.5t-16 75.5l3 20q13 89 102 89h230l31 189q8 52 35 75t78 23h46q55 0 80.5 -28.5t16.5 -84.5l-29 -174h325q49 0 72.5 -27.5t16.5 -75.5l-3 -20q-12 -89 -102 -89h-344l-20 -121h344 q49 0 72.5 -27.5t15.5 -75.5l-2 -20q-13 -88 -103 -88h-363l-2 -16q-37 -233 143 -233q68 0 157 40q42 18 75.5 10t51.5 -42q18 -31 12.5 -70.5t-35.5 -64.5q-49 -40 -128 -69.5t-180 -29.5q-53 0 -101 9.5t-94.5 30t-80 53t-58.5 81t-29.5 113t6.5 147.5l7 41h-225z" glyph-name="tbar" horiz-adv-x="1280" unicode="ŧ"/><glyph d="M497 -26q-202 0 -300.5 122t-66.5 351l108 774q13 90 103 90h73q49 0 72.5 -28t17.5 -76l-104 -738q-16 -119 26.5 -179t134.5 -60q91 0 148 59.5t73 179.5l105 752q13 90 103 90h73q49 0 72.5 -28t17.5 -76l-122 -871q-11 -76 6 -113.5t65 -31.5q61 7 61 -67 q0 -62 -41.5 -100t-101.5 -38q-73 0 -117.5 48.5t-46.5 123.5q-118 -184 -359 -184zM367 1537q-13 34 3.5 69.5t53.5 53.5l219 107q72 36 126 -6l98 -74q33 -24 76 -5l142 70q38 18 73 5.5t48 -47.5q13 -34 -2 -68.5t-52 -53.5l-222 -108q-71 -35 -126 6l-98 74 q-33 26 -75 4l-143 -70q-36 -17 -71.5 -4t-49.5 47z" glyph-name="Utilde" unicode="Ũ"/><glyph d="M345 -24q-117 0 -175 86t-35 224l77 460q5 33 7.5 62.5t2.5 43.5t-0.5 34t-0.5 26q0 53 22 77.5t83 24.5q190 0 150 -239l-56 -331q-23 -134 -18 -169q5 -43 39 -43q23 0 50.5 20.5t60.5 64t62 88.5t69.5 118t68.5 126t73.5 140.5t71.5 135.5q27 48 50.5 68.5t65.5 20.5 h52q49 0 72.5 -28t17.5 -76l-117 -821q-12 -89 -102 -89h-64q-49 0 -73 27.5t-17 75.5l53 361q-141 -260 -254 -374t-236 -114zM325 1240q-13 34 3.5 70t53.5 53l219 107q72 36 126 -6l98 -74q33 -24 76 -5l142 70q38 18 73 5.5t48 -47.5q13 -34 -2 -68.5t-52 -53.5 l-222 -108q-71 -35 -126 6l-98 74q-33 26 -75 4l-143 -70q-36 -17 -71.5 -4t-49.5 47z" glyph-name="utilde" unicode="ũ"/><glyph d="M497 -26q-202 0 -300.5 122t-66.5 351l108 774q13 90 103 90h73q49 0 72.5 -28t17.5 -76l-104 -738q-16 -119 26.5 -179t134.5 -60q91 0 148 59.5t73 179.5l105 752q13 90 103 90h73q49 0 72.5 -28t17.5 -76l-122 -871q-11 -76 6 -113.5t65 -31.5q61 7 61 -67 q0 -62 -41.5 -100t-101.5 -38q-73 0 -117.5 48.5t-46.5 123.5q-118 -184 -359 -184zM457 1658l8 52q4 34 28.5 54.5t59.5 20.5h494q36 0 53.5 -20t13.5 -55l-8 -52q-4 -34 -28.5 -54.5t-59.5 -20.5h-494q-36 0 -53.5 20t-13.5 55z" glyph-name="Umacron" unicode="Ū"/><glyph d="M345 -24q-117 0 -175 86t-35 224l77 460q5 33 7.5 62.5t2.5 43.5t-0.5 34t-0.5 26q0 53 22 77.5t83 24.5q190 0 150 -239l-56 -331q-23 -134 -18 -169q5 -43 39 -43q23 0 50.5 20.5t60.5 64t62 88.5t69.5 118t68.5 126t73.5 140.5t71.5 135.5q27 48 50.5 68.5t65.5 20.5 h52q49 0 72.5 -28t17.5 -76l-117 -821q-12 -89 -102 -89h-64q-49 0 -73 27.5t-17 75.5l53 361q-141 -260 -254 -374t-236 -114zM416 1361l8 52q4 34 28.5 54.5t59.5 20.5h494q36 0 53.5 -20t13.5 -55l-8 -52q-4 -34 -28.5 -54.5t-59.5 -20.5h-494q-36 0 -53.5 20t-13.5 55z " glyph-name="umacron" unicode="ū"/><glyph d="M497 -26q-202 0 -300.5 122t-66.5 351l108 774q13 90 103 90h73q49 0 72.5 -28t17.5 -76l-104 -738q-16 -119 26.5 -179t134.5 -60q91 0 148 59.5t73 179.5l105 752q13 90 103 90h73q49 0 72.5 -28t17.5 -76l-122 -871q-11 -76 6 -113.5t65 -31.5q61 7 61 -67 q0 -62 -41.5 -100t-101.5 -38q-73 0 -117.5 48.5t-46.5 123.5q-118 -184 -359 -184zM469 1798q2 32 36 32h106q27 0 29 -30q4 -50 44.5 -87t107.5 -37q120 0 164 124q10 30 37 30h115q32 0 26 -32q-27 -136 -117 -213t-237 -77q-148 0 -232 78t-79 212z" glyph-name="Ubreve" unicode="Ŭ"/><glyph d="M345 -24q-117 0 -175 86t-35 224l77 460q5 33 7.5 62.5t2.5 43.5t-0.5 34t-0.5 26q0 53 22 77.5t83 24.5q190 0 150 -239l-56 -331q-23 -134 -18 -169q5 -43 39 -43q23 0 50.5 20.5t60.5 64t62 88.5t69.5 118t68.5 126t73.5 140.5t71.5 135.5q27 48 50.5 68.5t65.5 20.5 h52q49 0 72.5 -28t17.5 -76l-117 -821q-12 -89 -102 -89h-64q-49 0 -73 27.5t-17 75.5l53 361q-141 -260 -254 -374t-236 -114zM428 1501q2 32 36 32h106q27 0 29 -30q4 -50 44.5 -87t107.5 -37q120 0 164 124q10 30 37 30h115q32 0 26 -32q-27 -136 -117 -213t-237 -77 q-148 0 -232 78t-79 212z" glyph-name="ubreve" unicode="ŭ"/><glyph d="M497 -26q-202 0 -300.5 122t-66.5 351l108 774q13 90 103 90h73q49 0 72.5 -28t17.5 -76l-104 -738q-16 -119 26.5 -179t134.5 -60q91 0 148 59.5t73 179.5l105 752q13 90 103 90h73q49 0 72.5 -28t17.5 -76l-122 -871q-11 -76 6 -113.5t65 -31.5q61 7 61 -67 q0 -62 -41.5 -100t-101.5 -38q-73 0 -117.5 48.5t-46.5 123.5q-118 -184 -359 -184zM583 1628q0 83 58.5 142.5t144.5 59.5q85 0 144 -59.5t59 -142.5q0 -82 -59 -142t-144 -60q-86 0 -144.5 59.5t-58.5 142.5zM721 1629.5q0 -28.5 18.5 -46t47 -17.5t47.5 18t18 45 q-1 29 -19.5 46.5t-46.5 17.5q-29 0 -47 -17.5t-18 -46z" glyph-name="Uring" unicode="Ů"/><glyph d="M345 -24q-117 0 -175 86t-35 224l77 460q5 33 7.5 62.5t2.5 43.5t-0.5 34t-0.5 26q0 53 22 77.5t83 24.5q190 0 150 -239l-56 -331q-23 -134 -18 -169q5 -43 39 -43q23 0 50.5 20.5t60.5 64t62 88.5t69.5 118t68.5 126t73.5 140.5t71.5 135.5q27 48 50.5 68.5t65.5 20.5 h52q49 0 72.5 -28t17.5 -76l-117 -821q-12 -89 -102 -89h-64q-49 0 -73 27.5t-17 75.5l53 361q-141 -260 -254 -374t-236 -114zM541 1331q0 83 58.5 142.5t144.5 59.5q85 0 144 -59.5t59 -142.5q0 -82 -59 -142t-144 -60q-86 0 -144.5 59.5t-58.5 142.5zM679 1332.5 q0 -28.5 18.5 -46t47 -17.5t47.5 18t18 45q-1 29 -19.5 46.5t-46.5 17.5q-29 0 -47 -17.5t-18 -46z" glyph-name="uring" unicode="ů"/><glyph d="M497 -26q-202 0 -300.5 122t-66.5 351l108 774q13 90 103 90h73q49 0 72.5 -28t17.5 -76l-104 -738q-16 -119 26.5 -179t134.5 -60q91 0 148 59.5t73 179.5l105 752q13 90 103 90h73q49 0 72.5 -28t17.5 -76l-122 -871q-11 -76 6 -113.5t65 -31.5q61 7 61 -67 q0 -62 -41.5 -100t-101.5 -38q-73 0 -117.5 48.5t-46.5 123.5q-118 -184 -359 -184zM483 1590l103 169q19 33 51 52t66 19h67q40 0 55 -22t-5 -55l-103 -170q-42 -71 -118 -71h-67q-40 0 -54 23t5 55zM850 1590l102 169q19 33 51 52t67 19h67q40 0 54.5 -22t-4.5 -55 l-104 -170q-42 -71 -117 -71h-67q-40 0 -54 23t5 55z" glyph-name="Uhungarumlaut" unicode="Ű"/><glyph d="M345 -24q-117 0 -175 86t-35 224l77 460q5 33 7.5 62.5t2.5 43.5t-0.5 34t-0.5 26q0 53 22 77.5t83 24.5q190 0 150 -239l-56 -331q-23 -134 -18 -169q5 -43 39 -43q23 0 50.5 20.5t60.5 64t62 88.5t69.5 118t68.5 126t73.5 140.5t71.5 135.5q27 48 50.5 68.5t65.5 20.5 h52q49 0 72.5 -28t17.5 -76l-117 -821q-12 -89 -102 -89h-64q-49 0 -73 27.5t-17 75.5l53 361q-141 -260 -254 -374t-236 -114zM442 1293l103 169q19 33 51 52t67 19h66q40 0 55 -22t-5 -55l-103 -170q-42 -71 -118 -71h-66q-40 0 -54.5 23t4.5 55zM809 1293l102 169 q19 33 51 52t67 19h67q40 0 54.5 -22t-4.5 -55l-104 -170q-42 -71 -117 -71h-67q-40 0 -54 23t5 55z" glyph-name="uhungarumlaut" unicode="ű"/><glyph d="M497 -26q-202 0 -300.5 122t-66.5 351l108 774q13 90 103 90h73q49 0 72.5 -28t17.5 -76l-104 -738q-16 -119 26.5 -179t134.5 -60q91 0 148 59.5t73 179.5l105 752q13 90 103 90h73q49 0 72.5 -28t17.5 -76l-122 -871q-11 -76 6 -113.5t65 -31.5q61 7 61 -67 q0 -62 -41.5 -100t-101.5 -38h-47q-56 0 -87.5 -27t-31.5 -79q0 -102 116 -102q38 0 55.5 -24t13.5 -58q-4 -33 -28 -55.5t-65 -22.5h-22q-50 0 -95 11.5t-83.5 36t-61 68.5t-22.5 103q0 97 59 155t157 79q-19 38 -22 87q-118 -184 -359 -184z" glyph-name="Uogonek" unicode="Ų"/><glyph d="M345 -24q-117 0 -175 86t-35 224l77 460q5 33 7.5 62.5t2.5 43.5t-0.5 34t-0.5 26q0 53 22 77.5t83 24.5q190 0 150 -239l-56 -331q-23 -134 -18 -169q5 -43 39 -43q23 0 50.5 20.5t60.5 64t62 88.5t69.5 118t68.5 126t73.5 140.5t71.5 135.5q27 48 50.5 68.5t65.5 20.5 h52q49 0 72.5 -28t17.5 -76l-117 -821q-12 -89 -102 -89h-51q-56 0 -87.5 -26.5t-31.5 -78.5q0 -102 116 -103q38 0 55.5 -24t13.5 -58q-4 -33 -28 -55.5t-65 -22.5h-22q-50 0 -95 11.5t-84 36t-61.5 68.5t-22.5 104q0 95 57 152t151 79q0 13 1 20l53 361 q-141 -260 -254 -374t-236 -114z" glyph-name="uogonek" unicode="ų"/><glyph d="M266 -26q-111 0 -161.5 90t-25.5 252l134 902q13 90 104 90h49q49 0 73.5 -28t17.5 -77l-111 -766q-17 -126 -10.5 -166.5t41.5 -40.5q61 0 106 134.5t89 446.5l14 88q12 89 100 89h28q49 0 71.5 -27t16.5 -76l-64 -448q-17 -126 -10 -166.5t43 -40.5q60 0 108.5 127 t72 297.5t23.5 333.5q0 120 -20 217q-11 56 21.5 81t85.5 25q65 0 100 -32.5t49 -98.5q13 -69 14 -186q0 -140 -14.5 -277.5t-48 -273.5t-83 -239t-125 -166.5t-169.5 -63.5q-227 0 -218 279q-45 -150 -128.5 -214.5t-172.5 -64.5zM409 1579l188 202q27 28 53 38.5t66 10.5 h164q40 0 63 -11t41 -38l133 -202q18 -29 6 -51t-47 -22h-123q-51 0 -85 52l-65 98q-20 32 -50 0l-93 -98q-47 -51 -97 -52h-133q-35 0 -41.5 22t20.5 51z" glyph-name="Wcircumflex" unicode="Ŵ"/><glyph d="M338 -26q-127 0 -194 94.5t-42 248.5l100 608q13 89 102 89h51q50 0 74 -28t15 -76l-92 -576q-8 -54 7.5 -85.5t53.5 -31.5q81 0 97 116l86 581q14 99 113 100q55 0 81.5 -31t18.5 -85l-84 -570q-7 -49 5 -80t43 -31q54 0 97.5 100t67.5 256t24 330q0 65 30.5 99.5 t90.5 34.5q121 0 121 -144q0 -166 -24 -323.5t-71.5 -293.5t-129.5 -219t-186 -83q-79 0 -132 43.5t-64 125.5h-12q-80 -169 -247 -169zM365 1282l188 202q27 28 53 38.5t66 10.5h164q40 0 63 -11t41 -38l133 -202q18 -29 6 -51t-47 -22h-123q-51 0 -85 52l-65 98 q-20 32 -50 0l-93 -98q-47 -51 -97 -52h-133q-35 0 -41.5 22t20.5 51z" glyph-name="wcircumflex" unicode="ŵ"/><glyph d="M515 -26q-103 0 -186.5 19.5t-123.5 43.5q-35 20 -47.5 61t3.5 79q15 39 52.5 57t75.5 7q123 -36 218 -36q61 0 114.5 13t103 42.5t83.5 83t45 127.5l35 216q-63 -119 -159 -183.5t-212 -64.5q-148 0 -224 100t-45 281l68 402q13 89 103 89h65q46 0 73 -23t20 -62 l-58 -338q-18 -113 11.5 -171.5t100.5 -58.5q112 0 201 144t123 393q16 116 143 116q65 0 99.5 -32t25.5 -91l-107 -756q-15 -106 -60.5 -189t-105.5 -133t-137.5 -81t-149 -43t-148.5 -12zM409 1579l188 202q27 28 53 38.5t66 10.5h164q40 0 63 -11t41 -38l133 -202 q18 -29 6 -51t-47 -22h-123q-51 0 -85 52l-65 98q-20 32 -50 0l-93 -98q-47 -51 -97 -52h-133q-35 0 -41.5 22t20.5 51z" glyph-name="Ycircumflex" unicode="Ŷ"/><glyph d="M838 -165q-50 0 -81.5 26t-31.5 77q0 24 17 98t28 154l42 293q-159 -358 -413 -358q-130 0 -200 80.5t-45 228.5l80 491q14 89 104 89h62q49 0 74 -28t16 -76l-69 -416q-11 -65 13.5 -97.5t69.5 -32.5q77 0 161.5 104t139 230t68.5 218l1 9q14 89 104 89h61 q50 0 74.5 -28t15.5 -76l-116 -822q-11 -78 -30.5 -131t-45.5 -78t-48.5 -34.5t-50.5 -9.5zM367 1282l188 202q27 28 53 38.5t66 10.5h164q40 0 63 -11t41 -38l133 -202q18 -29 6 -51t-47 -22h-123q-51 0 -85 52l-65 98q-20 32 -50 0l-93 -98q-47 -51 -97 -52h-133 q-35 0 -41.5 22t20.5 51z" glyph-name="ycircumflex" unicode="ŷ"/><glyph d="M515 -26q-103 0 -186.5 19.5t-123.5 43.5q-35 20 -47.5 61t3.5 79q15 39 52.5 57t75.5 7q123 -36 218 -36q61 0 114.5 13t103 42.5t83.5 83t45 127.5l35 216q-63 -119 -159 -183.5t-212 -64.5q-148 0 -224 100t-45 281l68 402q13 89 103 89h65q46 0 73 -23t20 -62 l-58 -338q-18 -113 11.5 -171.5t100.5 -58.5q112 0 201 144t123 393q16 116 143 116q65 0 99.5 -32t25.5 -91l-107 -756q-15 -106 -60.5 -189t-105.5 -133t-137.5 -81t-149 -43t-148.5 -12zM437 1686q0 54 39 92.5t93.5 38.5t93 -38.5t38.5 -92.5q0 -56 -38.5 -95.5 t-93 -39.5t-93.5 39.5t-39 95.5zM871 1686q0 54 39 92.5t93.5 38.5t93.5 -38.5t39 -92.5q0 -56 -39 -95.5t-93.5 -39.5t-93.5 39.5t-39 95.5z" glyph-name="Ydieresis" unicode="Ÿ"/><glyph d="M880 -41q-74 0 -230.5 47t-253.5 47q-103 0 -212 -51q-48 -24 -80 -5.5t-25 73.5l6 46q10 75 54 124l749 833h-541q-49 0 -72.5 27t-17.5 77l5 44q12 90 105 90h737q50 0 73.5 -28t16.5 -76l-9 -69q-7 -62 -53 -114l-697 -770q40 11 90 11q73 0 204 -39t201 -39 q41 0 81 9.5t45 9.5q31 0 23 -38l-14 -81q-24 -128 -185 -128zM689 1652l103 169q19 33 50.5 51.5t66.5 18.5h67q40 0 55 -22t-5 -54l-103 -170q-42 -71 -118 -71h-67q-40 0 -54 23t5 55z" glyph-name="Zacute" unicode="Ź"/><glyph d="M932 -26q-79 0 -235.5 54t-233.5 54q-49 0 -94.5 -15.5t-73.5 -33.5t-59 -33t-56 -15q-33 0 -51.5 25.5t-11.5 67.5l6 38q11 80 72 133l629 553h-520q-49 0 -72.5 27t-16.5 75l3 21q12 89 101 89h708q58 0 86.5 -29.5t21.5 -82.5l-6 -32q-11 -80 -71 -133l-526 -464 q17 4 46 5q62 0 196 -42.5t208 -42.5q40 0 69.5 9.5t34.5 9.5q27 0 23 -29l-15 -81q-24 -128 -162 -128zM637 1283l102 169q19 33 51 52t67 19h67q40 0 54.5 -22t-4.5 -55l-104 -170q-42 -71 -117 -71h-67q-40 0 -54 23t5 55z" glyph-name="zacute" unicode="ź"/><glyph d="M880 -41q-74 0 -230.5 47t-253.5 47q-103 0 -212 -51q-48 -24 -80 -5.5t-25 73.5l6 46q10 75 54 124l749 833h-541q-49 0 -72.5 27t-17.5 77l5 44q12 90 105 90h737q50 0 73.5 -28t16.5 -76l-9 -69q-7 -62 -53 -114l-697 -770q40 11 90 11q73 0 204 -39t201 -39 q41 0 81 9.5t45 9.5q31 0 23 -38l-14 -81q-24 -128 -185 -128zM666 1760q0 54 38.5 92.5t93 38.5t93.5 -38t39 -93q0 -56 -39 -95t-93.5 -39t-93 39t-38.5 95z" glyph-name="Zdotaccent" unicode="Ż"/><glyph d="M932 -26q-79 0 -235.5 54t-233.5 54q-49 0 -94.5 -15.5t-73.5 -33.5t-59 -33t-56 -15q-33 0 -51.5 25.5t-11.5 67.5l6 38q11 80 72 133l629 553h-520q-49 0 -72.5 27t-16.5 75l3 21q12 89 101 89h708q58 0 86.5 -29.5t21.5 -82.5l-6 -32q-11 -80 -71 -133l-526 -464 q17 4 46 5q62 0 196 -42.5t208 -42.5q40 0 69.5 9.5t34.5 9.5q27 0 23 -29l-15 -81q-24 -128 -162 -128zM613 1392q0 54 39 92.5t93.5 38.5t93.5 -38.5t39 -92.5q0 -56 -39 -95.5t-93.5 -39.5t-93.5 39.5t-39 95.5z" glyph-name="zdotaccent" unicode="ż"/><glyph d="M880 -41q-74 0 -230.5 47t-253.5 47q-103 0 -212 -51q-48 -24 -80 -5.5t-25 73.5l6 46q10 75 54 124l749 833h-541q-49 0 -72.5 27t-17.5 77l5 44q12 90 105 90h737q50 0 73.5 -28t16.5 -76l-9 -69q-7 -62 -53 -114l-697 -770q40 11 90 11q73 0 204 -39t201 -39 q41 0 81 9.5t45 9.5q31 0 23 -38l-14 -81q-24 -128 -185 -128zM469 1820q-18 29 -6 50.5t47 21.5h123q51 0 85 -51l65 -98q20 -32 51 0l92 98q47 51 97 51h133q35 0 41.5 -21.5t-19.5 -50.5l-189 -202q-27 -28 -53 -38.5t-66 -10.5h-163q-40 0 -63 10.5t-42 38.5z" glyph-name="Zcaron" unicode="Ž"/><glyph d="M932 -26q-79 0 -235.5 54t-233.5 54q-49 0 -94.5 -15.5t-73.5 -33.5t-59 -33t-56 -15q-33 0 -51.5 25.5t-11.5 67.5l6 38q11 80 72 133l629 553h-520q-49 0 -72.5 27t-16.5 75l3 21q12 89 101 89h708q58 0 86.5 -29.5t21.5 -82.5l-6 -32q-11 -80 -71 -133l-526 -464 q17 4 46 5q62 0 196 -42.5t208 -42.5q40 0 69.5 9.5t34.5 9.5q27 0 23 -29l-15 -81q-24 -128 -162 -128zM417 1451q-18 29 -6 51t47 22h123q51 0 85 -51l65 -99q20 -32 50 0l92 99q47 51 98 51h133q35 0 41.5 -21.5t-20.5 -51.5l-188 -202q-27 -28 -53 -38.5t-66 -10.5h-164 q-40 0 -63 11t-41 38z" glyph-name="zcaron" unicode="ž"/><glyph d="M241 -399q-121 0 -200.5 40.5t-71.5 91.5l16 98q4 23 18 31.5t33 2.5q9 -3 34.5 -12t42.5 -14t43.5 -9.5t51.5 -4.5q83 0 143 51.5t75 171.5l79 651h-296q-49 0 -72.5 27.5t-16.5 75.5l3 21q13 88 102 88h306l18 146q10 83 41 147.5t74 106t100 68t116.5 37t126.5 10.5 q75 0 141 -11.5t113 -41.5t39 -70l-16 -96q-9 -49 -63 -32q-98 28 -180 27q-115 0 -170.5 -45t-68.5 -150l-126 -1007q-12 -92 -43.5 -163t-73.5 -115.5t-97 -72t-108.5 -38t-112.5 -10.5z" glyph-name="longs" unicode="ſ"/><glyph d="M495 -26q-209 0 -319.5 63t-93.5 191l62 444q9 70 77 69h703q9 105 -5 173t-56 108t-105.5 56t-162.5 16q-102 0 -250 -19q-37 -4 -54 13t-11 52l9 57q5 37 41.5 64t93 42t118.5 21.5t131 6.5q325 0 438.5 -154t63.5 -519q-52 -371 -209.5 -527.5t-470.5 -156.5zM341 337 q-10 -71 32.5 -98t148.5 -27q76 0 130 13t102 47t81.5 98.5t56.5 163.5h-525z" glyph-name="uni018F" unicode="Ə"/><glyph d="M291 -10q-62 0 -127.5 8.5t-112 26.5t-42.5 40l21 136q4 30 32 23q90 -17 176 -17q223 0 255 229l34 254h-271q-46 0 -68 25t-17 71l4 30q11 85 95 85h286l14 105q56 399 453 399q102 0 195 -21.5t88 -53.5l-21 -141q-4 -26 -33 -21q-3 0 -33 7t-61 10t-71 3 q-232 0 -264 -230l-8 -57h256q46 0 68.5 -25t16.5 -71l-3 -30q-12 -85 -96 -85h-272l-42 -300q-16 -116 -58.5 -196.5t-105.5 -123.5t-132.5 -61.5t-155.5 -18.5z" glyph-name="florin" unicode="ƒ"/><glyph d="M568 -26q-251 0 -366.5 174.5t-68.5 515.5q46 334 200 503t401 169q119 0 207 -38q47 -19 73.5 -16t36.5 15t13 37l12 89q5 37 29 58t62 21h58q37 0 54.5 -21t12.5 -58l-16 -121q-10 -68 -51 -112t-106 -60q93 -175 49 -485q-46 -332 -199.5 -501.5t-400.5 -169.5z M392 664q-15 -101 -9 -175.5t23 -124.5t48.5 -79.5t66.5 -42t79 -12.5q253 0 309 415q59 435 -208 435q-253 1 -309 -416z" glyph-name="Ohorn" unicode="Ơ"/><glyph d="M608 -26q-219 0 -352 137.5t-133 361.5q0 158 64.5 285.5t186.5 202.5t279 75q60 0 135.5 -13.5t90.5 -13.5q56 0 63 54l10 63q5 37 30 58t61 21h58q37 0 55 -21t12 -58l-19 -139q-13 -102 -71.5 -155.5t-172.5 -53.5q-44 0 -118 13.5t-114 13.5q-137 0 -217 -90 t-80 -229q0 -127 68 -199.5t179 -72.5q115 0 185.5 69t70.5 159q0 45 -29 89t-29 78q0 53 36 80.5t86 27.5q82 0 133 -73t51 -188q0 -128 -64 -237.5t-183.5 -177t-271.5 -67.5z" glyph-name="ohorn" unicode="ơ"/><glyph d="M497 -26q-202 0 -300.5 122t-66.5 351l108 774q13 90 103 90h73q49 0 72.5 -28t17.5 -76l-104 -738q-16 -119 26.5 -179t134.5 -60q91 0 148 59.5t73 179.5l105 752q13 90 103 90h102q25 0 35.5 10t14.5 37l8 65q5 37 29.5 58t61.5 21h57q37 0 55 -21t13 -58l-19 -139 q-11 -83 -69 -133.5t-140 -52.5l-107 -762q-11 -76 6 -113.5t65 -31.5q61 7 61 -67q0 -62 -41.5 -100t-101.5 -38q-73 0 -117.5 48.5t-46.5 123.5q-118 -184 -359 -184z" glyph-name="Uhorn" unicode="Ư"/><glyph d="M345 -24q-117 0 -175 86t-35 224l77 460q5 33 7.5 62.5t2.5 43.5t-0.5 34t-0.5 26q0 53 22 77.5t83 24.5q190 0 150 -239l-56 -331q-23 -134 -18 -169q5 -43 39 -43q23 0 50.5 20.5t60.5 64t62 88.5t69.5 118t68.5 126t73.5 140.5t71.5 135.5q27 48 50.5 68.5t65.5 20.5 h81q25 0 35.5 10t14.5 37l8 65q5 37 29.5 58t61.5 21h57q37 0 55 -21t13 -58l-19 -139q-11 -83 -69 -133.5t-140 -52.5l-102 -712q-12 -89 -102 -89h-64q-49 0 -73 27.5t-17 75.5l53 361q-141 -260 -254 -374t-236 -114z" glyph-name="uhorn" unicode="ư"/><glyph d="M532 -26q-200 0 -339 68q-82 40 -68 140q17 127 125 89q1 0 22 -7.5t28.5 -10t31 -9.5t38 -10.5t40 -9t47 -8t49.5 -4.5t54 -2q152 0 236.5 57.5t84.5 166.5q0 100 -76 139.5t-248 39.5q-38 0 -55.5 20.5t-12.5 57.5l8 55q8 55 44 91l253 236h-471q-70 0 -61 70l13 98 q4 34 26 52t55 18h818q43 0 51.5 -36.5t-29.5 -71.5l-420 -383q179 -20 276.5 -112.5t97.5 -254.5q0 -222 -171 -350.5t-447 -128.5z" glyph-name="uni01B7" unicode="Ʒ"/><glyph d="M105 0q-54 0 -78 34t-5 82l334 868q41 105 72.5 165.5t71 98.5t83 50.5t109.5 12.5h42q58 0 96 -10.5t66.5 -32t46.5 -67t30 -105t24 -156.5l43 -346l17 3q49 10 85.5 -6t48.5 -46t9.5 -63t-30.5 -62t-74 -38l-28 -6l34 -268q6 -51 -18.5 -79.5t-75.5 -28.5h-44 q-95 0 -107 94l-29 232l-4 -1q-283 -59 -396.5 -107.5t-146.5 -139.5v-1q-29 -77 -116 -77h-60zM391 384q55 56 142.5 87t267.5 70l-30 235q-13 105 -21 158t-18 86t-19.5 40t-27.5 7q-19 0 -32.5 -12.5t-37.5 -64.5t-64 -162zM419 1758q-18 29 -6 51t47 22h123q51 0 85 -51 l65 -99q20 -32 50 0l93 99q47 51 97 51h133q35 0 41.5 -21.5t-20.5 -51.5l-188 -202q-27 -28 -53 -38.5t-66 -10.5h-164q-40 0 -63 11t-41 38z" glyph-name="uni01CD" unicode="Ǎ"/><glyph d="M451 -26q-142 0 -230.5 105t-88.5 309q0 100 22.5 194t70.5 177t117 144.5t167.5 97t215.5 35.5q164 0 276 -60.5t99 -147.5q-9 -54 -57 -77t-116 5q-109 47 -226 47q-80 0 -142 -32t-99 -85.5t-56 -118.5t-19 -137q0 -119 44.5 -172t110.5 -53q159 0 279 312 q26 65 61.5 95t93.5 30q61 0 90 -43t17 -120l-29 -212q-5 -33 -7.5 -62t-2.5 -44t0.5 -37t0.5 -29q0 -51 -18 -73t-77 -22q-159 0 -144 179l5 60q-63 -130 -154.5 -197.5t-203.5 -67.5zM413 1461q-18 29 -6 51t47 22h123q51 0 85 -51l65 -99q20 -32 50 0l92 99q47 51 98 51 h133q35 0 41.5 -21.5t-20.5 -51.5l-188 -201q-27 -28 -53 -39t-66 -11h-164q-40 0 -63 11t-41 39z" glyph-name="uni01CE" unicode="ǎ"/><glyph d="M489 -26q-45 0 -84.5 6.5t-81 21t-67 46t-25.5 76.5q0 47 29 79.5t93 32.5q23 0 70.5 -6.5t72.5 -6.5q139 0 213 155q57 120 101 418q8 52 25 169l5 36q7 55 -9.5 76t-73.5 21q-115 0 -205.5 -60t-143.5 -168q-13 -24 -21 -36t-23.5 -29t-35.5 -24t-46 -7q-55 0 -84 33.5 t-29 87.5q0 72 46 149t125.5 142t198.5 107.5t252 42.5h47q175 0 232.5 -83t32.5 -267l-5 -37q-24 -168 -48.5 -290.5t-59.5 -239t-79.5 -194t-104.5 -136.5t-139 -87t-178 -28zM460 1758q-18 29 -6 51t47 22h123q51 0 85 -51l65 -99q20 -32 50 0l92 99q47 51 98 51h133 q35 0 41.5 -21.5t-20.5 -51.5l-188 -202q-27 -28 -53 -38.5t-66 -10.5h-164q-40 0 -63 11t-41 38z" glyph-name="uni01CF" unicode="Ǐ"/><glyph d="M794 -27q-53 0 -101 9.5t-94.5 30t-80 53.5t-58.5 81.5t-29.5 113t6.5 147.5l49 297q8 51 -11 74t-71 23h-138q-50 0 -75 29t-17 83q14 99 109 100h266q117 0 171 -64t36 -180l-58 -337q-9 -71 -3.5 -116t30 -71.5t52 -36.5t64.5 -10q68 0 157 40q42 18 75.5 10t51.5 -42 q18 -31 13 -70.5t-36 -64.5q-49 -40 -128 -69.5t-180 -29.5zM364 1461q-18 29 -6 51t46 22h123q51 0 85 -51l66 -99q20 -32 50 0l92 99q47 51 98 51h133q35 0 41.5 -21.5t-20.5 -51.5l-188 -201q-27 -28 -53 -39t-66 -11h-164q-40 0 -63 11t-41 39z" glyph-name="uni01D0" unicode="ǐ"/><glyph d="M568 -26q-251 0 -366.5 174.5t-68.5 515.5q46 334 200 503t401 169q252 0 367.5 -174t66.5 -517q-46 -332 -199.5 -501.5t-400.5 -169.5zM392 664q-15 -101 -9 -175.5t23 -124.5t48.5 -79.5t66.5 -42t79 -12.5q253 0 309 415q59 435 -208 435q-253 1 -309 -416zM469 1820 q-18 29 -6 50.5t47 21.5h123q51 0 85 -51l65 -98q20 -32 51 0l92 98q47 51 97 51h133q35 0 41.5 -21.5t-19.5 -50.5l-189 -202q-27 -28 -53 -38.5t-66 -10.5h-163q-40 0 -63 10.5t-42 38.5z" glyph-name="uni01D1" unicode="Ǒ"/><glyph d="M608 -26q-219 0 -352 137.5t-133 361.5q0 157 65.5 285.5t183.5 203t267 74.5q49 0 92.5 -8.5t80.5 -26.5t55.5 -49.5t11.5 -74.5q-4 -23 -12.5 -39.5t-22.5 -25t-28 -13.5t-34.5 -5.5t-36.5 0t-39.5 2t-38.5 1.5q-134 0 -212.5 -87t-78.5 -226q0 -127 68 -198.5 t179 -71.5q114 0 185 70.5t71 160.5q0 45 -29 92t-29 80q0 53 37 81.5t86 28.5q81 0 132 -76.5t51 -191.5q0 -96 -37.5 -184.5t-104 -155t-165 -106t-212.5 -39.5zM432 1461q-18 29 -6 51t47 22h123q51 0 85 -51l65 -99q20 -32 51 0l92 99q47 51 97 51h133q35 0 41.5 -21.5 t-19.5 -51.5l-189 -201q-27 -28 -53 -39t-65 -11h-164q-40 0 -63 11t-42 39z" glyph-name="uni01D2" unicode="ǒ"/><glyph d="M497 -26q-202 0 -300.5 122t-66.5 351l108 774q13 90 103 90h73q49 0 72.5 -28t17.5 -76l-104 -738q-16 -119 26.5 -179t134.5 -60q91 0 148 59.5t73 179.5l105 752q13 90 103 90h73q49 0 72.5 -28t17.5 -76l-122 -871q-11 -76 6 -113.5t65 -31.5q61 7 61 -67 q0 -62 -41.5 -100t-101.5 -38q-73 0 -117.5 48.5t-46.5 123.5q-118 -184 -359 -184zM460 1758q-18 29 -6 51t47 22h123q51 0 85 -51l65 -99q20 -32 50 0l92 99q47 51 98 51h133q35 0 41.5 -21.5t-20.5 -51.5l-188 -202q-27 -28 -53 -38.5t-66 -10.5h-164q-40 0 -63 11 t-41 38z" glyph-name="uni01D3" unicode="Ǔ"/><glyph d="M345 -24q-117 0 -175 86t-35 224l77 460q5 33 7.5 62.5t2.5 43.5t-0.5 34t-0.5 26q0 53 22 77.5t83 24.5q190 0 150 -239l-56 -331q-23 -134 -18 -169q5 -43 39 -43q23 0 50.5 20.5t60.5 64t62 88.5t69.5 118t68.5 126t73.5 140.5t71.5 135.5q27 48 50.5 68.5t65.5 20.5 h52q49 0 72.5 -28t17.5 -76l-117 -821q-12 -89 -102 -89h-64q-49 0 -73 27.5t-17 75.5l53 361q-141 -260 -254 -374t-236 -114zM418 1461q-18 29 -6 51t47 22h123q51 0 85 -51l65 -99q20 -32 50 0l92 99q47 51 98 51h133q35 0 41.5 -21.5t-20.5 -51.5l-188 -201 q-27 -28 -53 -39t-66 -11h-164q-40 0 -63 11t-41 39z" glyph-name="uni01D4" unicode="ǔ"/><glyph d="M497 -26q-202 0 -300.5 122t-66.5 351l108 774q13 90 103 90h73q49 0 72.5 -28t17.5 -76l-104 -738q-16 -119 26.5 -179t134.5 -60q91 0 148 59.5t73 179.5l105 752q13 90 103 90h73q49 0 72.5 -28t17.5 -76l-122 -871q-11 -76 6 -113.5t65 -31.5q61 7 61 -67 q0 -62 -41.5 -100t-101.5 -38q-73 0 -117.5 48.5t-46.5 123.5q-118 -184 -359 -184zM445 1686q0 54 39 92.5t93.5 38.5t93.5 -38.5t39 -92.5q0 -56 -39 -95.5t-93.5 -39.5t-93.5 39.5t-39 95.5zM523 2074l8 52q4 34 29 54.5t60 20.5h493q36 0 54 -20t14 -55l-9 -52 q-4 -34 -28.5 -54.5t-59.5 -20.5h-493q-36 0 -54 20t-14 55zM880 1686q0 54 38.5 92.5t93 38.5t93.5 -38.5t39 -92.5q0 -56 -39 -95.5t-93.5 -39.5t-93 39.5t-38.5 95.5z" glyph-name="uni01D5" unicode="Ǖ"/><glyph d="M345 -24q-117 0 -175 86t-35 224l77 460q5 33 7.5 62.5t2.5 43.5t-0.5 34t-0.5 26q0 53 22 77.5t83 24.5q190 0 150 -239l-56 -331q-23 -134 -18 -169q5 -43 39 -43q23 0 50.5 20.5t60.5 64t62 88.5t69.5 118t68.5 126t73.5 140.5t71.5 135.5q27 48 50.5 68.5t65.5 20.5 h52q49 0 72.5 -28t17.5 -76l-117 -821q-12 -89 -102 -89h-64q-49 0 -73 27.5t-17 75.5l53 361q-141 -260 -254 -374t-236 -114zM404 1389q0 54 39 92.5t93.5 38.5t93.5 -38.5t39 -92.5q0 -56 -39 -95.5t-93.5 -39.5t-93.5 39.5t-39 95.5zM481 1777l8 52q4 34 29 54.5 t60 20.5h493q36 0 54 -20t14 -55l-9 -52q-4 -34 -28.5 -54.5t-59.5 -20.5h-493q-36 0 -54 20t-14 55zM839 1389q0 54 38.5 92.5t93 38.5t93.5 -38.5t39 -92.5q0 -56 -39 -95.5t-93.5 -39.5t-93 39.5t-38.5 95.5z" glyph-name="uni01D6" unicode="ǖ"/><glyph d="M497 -26q-202 0 -300.5 122t-66.5 351l108 774q13 90 103 90h73q49 0 72.5 -28t17.5 -76l-104 -738q-16 -119 26.5 -179t134.5 -60q91 0 148 59.5t73 179.5l105 752q13 90 103 90h73q49 0 72.5 -28t17.5 -76l-122 -871q-11 -76 6 -113.5t65 -31.5q61 7 61 -67 q0 -62 -41.5 -100t-101.5 -38q-73 0 -117.5 48.5t-46.5 123.5q-118 -184 -359 -184zM445 1686q0 54 39 92.5t93.5 38.5t93.5 -38.5t39 -92.5q0 -56 -39 -95.5t-93.5 -39.5t-93.5 39.5t-39 95.5zM682 2006l102 169q19 33 51 52t67 19h67q40 0 54.5 -22t-4.5 -55l-104 -170 q-42 -71 -117 -71h-67q-40 0 -54 23t5 55zM880 1686q0 54 38.5 92.5t93 38.5t93.5 -38.5t39 -92.5q0 -56 -39 -95.5t-93.5 -39.5t-93 39.5t-38.5 95.5z" glyph-name="uni01D7" unicode="Ǘ"/><glyph d="M345 -24q-117 0 -175 86t-35 224l77 460q5 33 7.5 62.5t2.5 43.5t-0.5 34t-0.5 26q0 53 22 77.5t83 24.5q190 0 150 -239l-56 -331q-23 -134 -18 -169q5 -43 39 -43q23 0 50.5 20.5t60.5 64t62 88.5t69.5 118t68.5 126t73.5 140.5t71.5 135.5q27 48 50.5 68.5t65.5 20.5 h52q49 0 72.5 -28t17.5 -76l-117 -821q-12 -89 -102 -89h-64q-49 0 -73 27.5t-17 75.5l53 361q-141 -260 -254 -374t-236 -114zM404 1389q0 54 39 92.5t93.5 38.5t93.5 -38.5t39 -92.5q0 -56 -39 -95.5t-93.5 -39.5t-93.5 39.5t-39 95.5zM640 1709l102 169q19 33 51 52 t67 19h67q40 0 54.5 -22t-4.5 -55l-104 -170q-42 -71 -117 -71h-67q-40 0 -54 23t5 55zM839 1389q0 54 38.5 92.5t93 38.5t93.5 -38.5t39 -92.5q0 -56 -39 -95.5t-93.5 -39.5t-93 39.5t-38.5 95.5z" glyph-name="uni01D8" unicode="ǘ"/><glyph d="M497 -26q-202 0 -300.5 122t-66.5 351l108 774q13 90 103 90h73q49 0 72.5 -28t17.5 -76l-104 -738q-16 -119 26.5 -179t134.5 -60q91 0 148 59.5t73 179.5l105 752q13 90 103 90h73q49 0 72.5 -28t17.5 -76l-122 -871q-11 -76 6 -113.5t65 -31.5q61 7 61 -67 q0 -62 -41.5 -100t-101.5 -38q-73 0 -117.5 48.5t-46.5 123.5q-118 -184 -359 -184zM445 1686q0 54 39 92.5t93.5 38.5t93.5 -38.5t39 -92.5q0 -56 -39 -95.5t-93.5 -39.5t-93.5 39.5t-39 95.5zM509 2174q-18 29 -6 51t47 22h123q51 0 85 -52l65 -98q20 -32 50 0l93 98 q47 51 97 52h133q35 0 41.5 -21.5t-19.5 -51.5l-189 -202q-27 -28 -53 -38.5t-66 -10.5h-164q-40 0 -63 11t-41 38zM880 1686q0 54 38.5 92.5t93 38.5t93.5 -38.5t39 -92.5q0 -56 -39 -95.5t-93.5 -39.5t-93 39.5t-38.5 95.5z" glyph-name="uni01D9" unicode="Ǚ"/><glyph d="M345 -24q-117 0 -175 86t-35 224l77 460q5 33 7.5 62.5t2.5 43.5t-0.5 34t-0.5 26q0 53 22 77.5t83 24.5q190 0 150 -239l-56 -331q-23 -134 -18 -169q5 -43 39 -43q23 0 50.5 20.5t60.5 64t62 88.5t69.5 118t68.5 126t73.5 140.5t71.5 135.5q27 48 50.5 68.5t65.5 20.5 h52q49 0 72.5 -28t17.5 -76l-117 -821q-12 -89 -102 -89h-64q-49 0 -73 27.5t-17 75.5l53 361q-141 -260 -254 -374t-236 -114zM404 1389q0 54 39 92.5t93.5 38.5t93.5 -38.5t39 -92.5q0 -56 -39 -95.5t-93.5 -39.5t-93.5 39.5t-39 95.5zM467 1877q-18 29 -6 51t47 22h123 q51 0 85 -52l65 -98q20 -32 50 0l93 98q47 51 97 52h133q35 0 41.5 -21.5t-19.5 -51.5l-189 -202q-27 -28 -53 -38.5t-66 -10.5h-163q-40 0 -63.5 11t-41.5 38zM839 1389q0 54 38.5 92.5t93 38.5t93.5 -38.5t39 -92.5q0 -56 -39 -95.5t-93.5 -39.5t-93 39.5t-38.5 95.5z" glyph-name="uni01DA" unicode="ǚ"/><glyph d="M497 -26q-202 0 -300.5 122t-66.5 351l108 774q13 90 103 90h73q49 0 72.5 -28t17.5 -76l-104 -738q-16 -119 26.5 -179t134.5 -60q91 0 148 59.5t73 179.5l105 752q13 90 103 90h73q49 0 72.5 -28t17.5 -76l-122 -871q-11 -76 6 -113.5t65 -31.5q61 7 61 -67 q0 -62 -41.5 -100t-101.5 -38q-73 0 -117.5 48.5t-46.5 123.5q-118 -184 -359 -184zM445 1686q0 54 39 92.5t93.5 38.5t93.5 -38.5t39 -92.5q0 -56 -39 -95.5t-93.5 -39.5t-93.5 39.5t-39 95.5zM680 2169q-19 33 -4.5 55t54.5 22h70q35 0 66.5 -19t51.5 -52l102 -169 q19 -32 5 -55t-54 -23h-70q-76 0 -118 71zM880 1686q0 54 38.5 92.5t93 38.5t93.5 -38.5t39 -92.5q0 -56 -39 -95.5t-93.5 -39.5t-93 39.5t-38.5 95.5z" glyph-name="uni01DB" unicode="Ǜ"/><glyph d="M345 -24q-117 0 -175 86t-35 224l77 460q5 33 7.5 62.5t2.5 43.5t-0.5 34t-0.5 26q0 53 22 77.5t83 24.5q190 0 150 -239l-56 -331q-23 -134 -18 -169q5 -43 39 -43q23 0 50.5 20.5t60.5 64t62 88.5t69.5 118t68.5 126t73.5 140.5t71.5 135.5q27 48 50.5 68.5t65.5 20.5 h52q49 0 72.5 -28t17.5 -76l-117 -821q-12 -89 -102 -89h-64q-49 0 -73 27.5t-17 75.5l53 361q-141 -260 -254 -374t-236 -114zM404 1389q0 54 39 92.5t93.5 38.5t93.5 -38.5t39 -92.5q0 -56 -39 -95.5t-93.5 -39.5t-93.5 39.5t-39 95.5zM638 1872q-19 33 -4.5 55t54.5 22 h70q35 0 66.5 -19t51.5 -52l102 -169q19 -32 5 -55t-54 -23h-70q-76 0 -118 71zM839 1389q0 54 38.5 92.5t93 38.5t93.5 -38.5t39 -92.5q0 -56 -39 -95.5t-93.5 -39.5t-93 39.5t-38.5 95.5z" glyph-name="uni01DC" unicode="ǜ"/><glyph d="M633 339q-27 0 -41 14t-14 38.5t14 38t41 13.5h265l13 91h-195q-35 0 -51 17.5t-11 51.5l11 69q9 70 79 69h357q70 0 60 -69l-32 -229h48q27 0 41.5 -13.5t14.5 -38t-15 -38.5t-41 -14h-62l-1 -7q-13 -97 -55.5 -168.5t-106 -111.5t-137.5 -59t-161 -19q-249 0 -389 148 t-140 435q0 119 24 229t79.5 211.5t136 175.5t203 118.5t273.5 44.5q59 0 114.5 -6.5t106 -21.5t78.5 -42.5t23 -64.5l-7 -56q-4 -35 -30.5 -54t-61.5 -15q-133 17 -207 18q-103 0 -185.5 -33t-134 -85.5t-85.5 -124t-48 -143t-14 -146.5q0 -174 77.5 -262t215.5 -88 q154 0 196 127h-246z" glyph-name="uni01E4" unicode="Ǥ"/><glyph d="M506 -219q-170 0 -295 55q-41 17 -56 55t4 80q17 40 53.5 53.5t76.5 -0.5q100 -31 207 -31q135 0 210 62h-103q-26 0 -39.5 14t-13.5 36q0 50 53 51h169q12 36 16 68l18 121q-60 -93 -136 -131t-174 -38q-161 0 -251.5 89t-90.5 257q0 80 20.5 154.5t64.5 140t107 114 t153.5 77t197.5 28.5q109 0 203.5 -27t149 -75t45.5 -105q-8 -52 -57.5 -76t-109.5 -1q-133 51 -256 51q-131 0 -198.5 -72t-67.5 -173q0 -85 46.5 -128.5t121.5 -43.5q146 0 260 182q46 74 125 74q67 0 97 -43t19 -120l-40 -283q-4 -27 -7 -40h54q26 0 40.5 -13.5 t14.5 -37.5q0 -23 -14.5 -36.5t-40.5 -13.5h-85q-32 -76 -85.5 -131t-120.5 -85t-137 -44t-148 -14z" glyph-name="uni01E5" unicode="ǥ"/><glyph d="M654 -26q-249 0 -389 148t-140 435q0 119 24 229t79.5 211.5t136 175.5t203 118.5t273.5 44.5q59 0 114.5 -6.5t106 -21.5t78.5 -42.5t23 -64.5l-7 -56q-4 -35 -30.5 -54t-61.5 -15q-133 17 -207 18q-103 0 -185.5 -33t-134 -85.5t-85.5 -124t-48 -143t-14 -146.5 q0 -174 77.5 -262t215.5 -88q84 0 139.5 40.5t69.5 144.5l19 137h-195q-35 0 -51 17.5t-11 51.5l11 69q9 70 79 69h357q70 0 60 -69l-47 -340q-13 -97 -55.5 -168.5t-106 -111.5t-137.5 -59t-161 -19zM460 1758q-18 29 -6 51t47 22h123q51 0 85 -51l65 -99q20 -32 50 0 l92 99q47 51 98 51h133q35 0 41.5 -21.5t-20.5 -51.5l-188 -202q-27 -28 -53 -38.5t-66 -10.5h-164q-40 0 -63 11t-41 38z" glyph-name="Gcaron" unicode="Ǧ"/><glyph d="M506 -219q-170 0 -295 55q-41 17 -56 55t4 80q17 40 53.5 53.5t76.5 -0.5q100 -31 207 -31q260 0 292 231l18 121q-60 -93 -136 -131t-174 -38q-161 0 -251.5 89t-90.5 257q0 80 20.5 154.5t64.5 140t107 114t153.5 77t197.5 28.5q109 0 203.5 -27t149 -75t45.5 -105 q-8 -52 -57.5 -76t-109.5 -1q-133 51 -256 51q-131 0 -198.5 -72t-67.5 -173q0 -85 46.5 -128.5t121.5 -43.5q146 0 260 182q46 74 125 74q67 0 97 -43t19 -120l-40 -283q-13 -93 -50 -166.5t-87.5 -119.5t-116.5 -76t-133 -41.5t-142 -11.5zM418 1461q-18 29 -6 51t47 22 h123q51 0 85 -51l65 -99q20 -32 50 0l92 99q47 51 98 51h133q35 0 41.5 -21.5t-20.5 -51.5l-188 -201q-27 -28 -53 -39t-66 -11h-164q-40 0 -63 11t-41 39z" glyph-name="gcaron" unicode="ǧ"/><glyph d="M1148 1311q57 0 71 -36.5t-30 -83.5q-292 -306 -436 -482l333 -593q29 -50 9.5 -83t-76.5 -33h-79q-77 0 -116 68l-131 231q-74 131 -99 207q-153 -225 -241 -416q-22 -46 -47.5 -68t-74.5 -22h-32q-61 0 -89.5 33t-20.5 90l153 1099q12 89 102 89h73q45 0 71 -23t21 -62 l-94 -673q82 175 216.5 356t277.5 325q42 42 79.5 59.5t82.5 17.5h77zM452 1758q-18 29 -6 51t47 22h122q51 0 85 -51l66 -99q20 -32 50 0l92 99q47 51 98 51h133q35 0 41.5 -21.5t-20.5 -51.5l-188 -202q-27 -28 -53 -38.5t-66 -10.5h-164q-40 0 -63 11t-41 38z" glyph-name="uni01E8" unicode="Ǩ"/><glyph d="M898 -26q-153 0 -256.5 106t-126.5 289q-9 65 27 101t109 54q92 22 146.5 72t54.5 115q0 45 -26.5 71t-76 26t-101.5 -26t-101 -76t-86.5 -132t-51.5 -185l-43 -300q-12 -89 -103 -89h-62q-49 0 -73.5 27.5t-16.5 75.5l157 1119q14 89 104 89h62q49 0 72.5 -28t17.5 -76 l-51 -363q133 180 351 180q129 0 204 -64.5t75 -182.5q0 -145 -106.5 -257t-259.5 -140q19 -83 68.5 -133t125.5 -50q18 0 34 2.5t39 9t26 7.5q33 8 60.5 -9t39.5 -51q25 -69 -46.5 -125.5t-185.5 -56.5zM497 1461q-18 29 -6 51t47 22h122q51 0 85 -51l66 -99q20 -32 50 0 l92 99q47 51 98 51h133q35 0 41.5 -21.5t-20.5 -51.5l-188 -201q-27 -28 -53 -39t-66 -11h-164q-40 0 -63 11t-41 39z" glyph-name="uni01E9" unicode="ǩ"/><glyph d="M568 -26h-47q-56 0 -87.5 -26.5t-31.5 -78.5q0 -102 116 -102q38 0 56 -24.5t14 -57.5t-28 -55.5t-65 -22.5h-23q-50 0 -94.5 11t-83.5 35.5t-61.5 69t-22.5 103.5q0 138 123 201q-267 145 -200 637q46 334 200 503t401 169q252 0 367.5 -174t66.5 -517 q-46 -332 -199.5 -501.5t-400.5 -169.5zM392 664q-15 -101 -9 -175.5t23 -124.5t48.5 -79.5t66.5 -42t79 -12.5q253 0 309 415q59 435 -208 435q-253 1 -309 -416z" glyph-name="uni01EA" unicode="Ǫ"/><glyph d="M608 -26h-47q-56 0 -87.5 -26.5t-31.5 -78.5q0 -102 116 -102q38 0 56 -24.5t14 -57.5t-28.5 -55.5t-64.5 -22.5h-23q-50 0 -94.5 11t-83.5 35.5t-61.5 69t-22.5 103.5q0 136 122 201q-118 58 -183.5 174.5t-65.5 271.5q0 157 65.5 285.5t183.5 203t267 74.5 q49 0 92.5 -8.5t80.5 -26.5t55.5 -49.5t11.5 -74.5q-4 -23 -12.5 -39.5t-22.5 -25t-28 -13.5t-34.5 -5.5t-36.5 0t-39.5 2t-38.5 1.5q-134 0 -212.5 -87t-78.5 -226q0 -127 68 -198.5t179 -71.5q114 0 185 70.5t71 160.5q0 45 -29 92t-29 80q0 53 37 81.5t86 28.5 q81 0 132 -76.5t51 -191.5q0 -96 -37.5 -184.5t-104 -155t-165 -106t-212.5 -39.5z" glyph-name="uni01EB" unicode="ǫ"/><glyph d="M532 -26q-200 0 -339 68q-82 40 -68 140q17 127 125 89q1 0 22 -7.5t28.5 -10t31 -9.5t38 -10.5t40 -9t47 -8t49.5 -4.5t54 -2q152 0 236.5 57.5t84.5 166.5q0 100 -76 139.5t-248 39.5q-38 0 -55.5 20.5t-12.5 57.5l8 55q8 55 44 91l253 236h-471q-70 0 -61 70l13 98 q4 34 26 52t55 18h818q43 0 51.5 -36.5t-29.5 -71.5l-420 -383q179 -20 276.5 -112.5t97.5 -254.5q0 -222 -171 -350.5t-447 -128.5zM452 1758q-18 29 -6 51t47 22h122q51 0 85 -51l66 -99q20 -32 50 0l92 99q47 51 98 51h133q35 0 41.5 -21.5t-20.5 -51.5l-188 -202 q-27 -28 -53 -38.5t-66 -10.5h-164q-40 0 -63 11t-41 38z" glyph-name="uni01EE" unicode="Ǯ"/><glyph d="M493 -155q-222 0 -331 56q-35 17 -50 42.5t-9 70.5q15 115 123 82q129 -38 296 -38q324 0 324 168q0 79 -77 110.5t-248 31.5q-38 0 -54.5 20.5t-11.5 56.5l8 51q9 66 44 94l242 211h-464q-69 0 -61 69l10 74q9 70 80 70h801q44 0 53.5 -37.5t-29.5 -70.5l-415 -356 q187 -9 285.5 -81t98.5 -216q0 -135 -84 -229t-219.5 -136.5t-311.5 -42.5zM411 1461q-18 29 -6 51t47 22h122q51 0 85 -51l66 -99q20 -32 50 0l92 99q47 51 98 51h133q35 0 41.5 -21.5t-20.5 -51.5l-188 -201q-27 -28 -53 -39t-66 -11h-164q-40 0 -63 11t-41 39z" glyph-name="uni01EF" unicode="ǯ"/><glyph d="M568 -26q-218 0 -350 66t-132 160q0 59 49 88.5t111 5.5q183 -86 342 -86q102 0 157.5 32.5t55.5 97.5q0 43 -28.5 83t-73 72t-98.5 66t-108.5 73.5t-99 84.5t-72.5 109t-28 139q0 116 61 201.5t159 127.5t217 42q112 0 208 -36t159 -111.5t63 -176.5q0 -75 -35 -119.5 t-111 -44.5q-92 0 -92 77q0 85 -51 131t-143 46q-81 0 -130.5 -36t-49.5 -102q0 -48 29 -91t75 -77t102.5 -68.5t112.5 -74t102 -84.5t75 -109t29 -138q0 -170 -130.5 -259t-374.5 -89zM302 -228l5 39q4 38 32 59.5t65 21.5h185q133 0 204 -82t53 -217l-31 -210 q-4 -38 -31.5 -61t-66.5 -23h-37q-39 0 -60 23t-16 61l21 147q11 78 -24 118.5t-113 40.5h-111q-38 0 -59 22t-16 61z" glyph-name="Scommaaccent" unicode="Ș"/><glyph d="M625 -26q-119 0 -241 24.5t-201 66.5q-70 38 -93 83.5t-5 87.5q17 38 55 50t85 -5q232 -88 410 -88q123 0 176 43.5t53 108.5q0 44 -24 99t-55 102t-64.5 115t-46.5 131l-160 -225q-49 -70 -118 -62t-91 65.5t16 123.5l194 264q35 46 70.5 62.5t84.5 16.5h58 q55 0 93.5 -19t38.5 -51q0 -8 -5 -22.5t-5 -30.5q0 -47 41 -118.5t89.5 -138t89.5 -159t41 -176.5q0 -69 -27 -129.5t-82.5 -110t-152 -79t-224.5 -29.5zM282 -228l5 39q4 38 31.5 59.5t65.5 21.5h184q133 0 204.5 -82t52.5 -217l-30 -210q-4 -38 -32 -61t-67 -23h-37 q-39 0 -59.5 23t-15.5 61l20 147q11 78 -23.5 118.5t-112.5 40.5h-112q-38 0 -58.5 22t-15.5 61z" glyph-name="scommaaccent" unicode="ș"/><glyph d="M666 0q-47 0 -72.5 26t-15.5 76l180 940q6 31 -29 31h-244q-54 0 -74.5 -17t-15.5 -54q6 -51 -23.5 -76.5t-77.5 -25.5q-76 0 -120.5 59.5t-44.5 137.5q0 40 13 75.5t40 68t76.5 51.5t115.5 19h435q75 0 152 10t97 10q65 0 102.5 -35.5t37.5 -95.5q0 -38 -17.5 -64 t-44 -42t-54 -31.5t-50.5 -45t-32 -70.5l-158 -849q-10 -51 -35.5 -74.5t-70.5 -23.5h-70zM410 -228l5 39q4 38 31.5 59.5t65.5 21.5h184q133 0 204.5 -82t52.5 -217l-30 -210q-4 -38 -32 -61t-67 -23h-37q-39 0 -59.5 23t-15.5 61l20 147q11 78 -23.5 118.5t-112.5 40.5 h-112q-38 0 -58.5 22t-15.5 61z" glyph-name="uni021A" unicode="Ț"/><glyph d="M727 -26q-53 0 -100.5 9.5t-94.5 30t-80 53t-58 81t-30 113t7 147.5l61 373h-212q-49 0 -72.5 27.5t-16.5 75.5l3 20q13 89 103 89h230l31 189q8 52 34.5 75t77.5 23h46q55 0 81 -28.5t17 -84.5l-29 -174h325q49 0 72.5 -27.5t16.5 -75.5l-3 -20q-12 -89 -103 -89h-344 l-57 -348q-37 -233 142 -233q68 0 158 40q42 18 75 10t52 -42q18 -31 12.5 -70.5t-36.5 -64.5q-49 -40 -128 -69.5t-180 -29.5zM459 -228l5 39q4 38 31.5 59.5t65.5 21.5h184q133 0 204.5 -82t52.5 -217l-30 -210q-4 -38 -32 -61t-67 -23h-36q-39 0 -60 23t-16 61l20 147 q11 78 -23.5 118.5t-112.5 40.5h-111q-38 0 -59 22t-16 61z" glyph-name="uni021B" unicode="ț"/><glyph d="M427 -155q-148 0 -256 53q-43 20 -61 57.5t1 82.5q16 38 52 51t76 0q98 -31 183 -31q236 0 272 272l51 375q7 52 -11.5 74.5t-70.5 22.5h-188q-50 0 -75.5 29t-17.5 83q14 99 110 100h313q116 0 169 -63.5t37 -180.5l-63 -462q-14 -108 -53.5 -191t-91 -133.5 t-117.5 -82.5t-128.5 -44t-130.5 -12z" glyph-name="uni0237" unicode="ȷ"/><glyph d="M609 1039q240 0 372 -124.5t132 -335.5q0 -163 -78 -301t-214.5 -219.5t-300.5 -81.5t-254.5 77.5t-90.5 191.5q0 55 22 108t69 106.5t133 102t203 84.5q77 24 123 11t59 -59q12 -40 -7 -71.5t-67 -45.5q-297 -81 -297 -196q0 -40 34 -66.5t99 -26.5q58 0 116 25t105 70 t76.5 116t29.5 156q0 127 -72.5 198t-222.5 71q-126 0 -231 -50q-94 -44 -136 24q-25 36 -14 74.5t59 67.5q150 94 353 94z" glyph-name="uni0259" unicode="ə"/><glyph d="M493 -155q-222 0 -331 56q-35 17 -50 42.5t-9 70.5q15 115 123 82q129 -38 296 -38q324 0 324 168q0 79 -77 110.5t-248 31.5q-38 0 -54.5 20.5t-11.5 56.5l8 51q9 66 44 94l242 211h-464q-69 0 -61 69l10 74q9 70 80 70h801q44 0 53.5 -37.5t-29.5 -70.5l-415 -356 q187 -9 285.5 -81t98.5 -216q0 -135 -84 -229t-219.5 -136.5t-311.5 -42.5z" glyph-name="uni0292" unicode="ʒ"/><glyph d="M406 1209q-35 0 -42 22t20 51l188 202q27 28 53 38.5t66 10.5h164q40 0 63 -11t41 -38l134 -202q18 -29 5.5 -51t-46.5 -22h-123q-51 0 -85 52l-66 98q-20 32 -50 0l-92 -98q-47 -51 -97 -52h-133z" glyph-name="circumflex" unicode="ˆ"/><glyph d="M1097 1534q35 0 41.5 -21.5t-20.5 -51.5l-188 -201q-27 -28 -53 -39t-66 -11h-164q-40 0 -63 11t-41 39l-133 201q-18 29 -6 51t47 22h122q51 0 85 -51l66 -99q20 -32 50 0l92 99q47 51 98 51h133z" glyph-name="caron" unicode="ˇ"/><glyph d="M749 1211q-148 0 -232.5 78t-79.5 212q2 32 36 32h107q27 0 28 -30q4 -50 44.5 -87t107.5 -37q120 0 165 124q10 30 37 30h114q32 0 26 -32q-27 -136 -117 -213t-236 -77z" glyph-name="breve" unicode="˘"/><glyph d="M755.5 1268q-54.5 0 -93 39t-38.5 95q0 54 38.5 92.5t93 38.5t93.5 -38.5t39 -92.5q0 -56 -39 -95t-93.5 -39z" glyph-name="dotaccent" unicode="˙"/><glyph d="M746 1129q-86 0 -144.5 59.5t-58.5 142.5t58.5 142.5t144.5 59.5q85 0 144 -59.5t59 -142.5q0 -82 -59 -142t-144 -60zM681 1332.5q0 -28.5 18.5 -46t47 -17.5t47.5 18t18 45q-1 29 -19.5 46.5t-46.5 17.5q-29 0 -47 -17.5t-18 -46z" glyph-name="ring" unicode="˚"/><glyph d="M606 -368q-50 0 -94.5 11.5t-83.5 36t-61.5 68.5t-22.5 104q0 65 27.5 113t75.5 76.5t104.5 41.5t121.5 13h29v-96h-47q-56 0 -87 -26.5t-31 -78.5q0 -102 115 -103q38 0 56 -24t14 -58q-4 -33 -28 -55.5t-65 -22.5h-23z" glyph-name="ogonek" unicode="˛"/><glyph d="M888 1183q-71 -35 -126 6l-98 74q-33 26 -75 4l-143 -70q-36 -17 -71.5 -4t-49.5 47q-13 34 3.5 70t53.5 53l219 107q72 36 126 -6l98 -74q33 -24 76 -5l142 70q38 18 73 5.5t48 -47.5q13 -34 -2 -68.5t-52 -53.5z" glyph-name="tilde" unicode="˜"/><glyph d="M815 1215q-40 0 -54.5 23.5t5.5 54.5l102 169q19 33 51 52t67 19h67q40 0 54.5 -22t-4.5 -55l-104 -170q-42 -71 -117 -71h-67zM399 1293l103 169q19 33 51 52t67 19h66q40 0 55 -22t-5 -55l-103 -170q-42 -71 -118 -71h-66q-40 0 -54.5 23t4.5 55z" glyph-name="hungarumlaut" unicode="˝"/><glyph d="M804 1215q-76 0 -118 71l-103 170q-19 33 -4.5 55t54.5 22h69q35 0 67 -19t51 -52l103 -169q19 -32 4.5 -55t-54.5 -23h-69z" glyph-name="gravecomb" horiz-adv-x="0" unicode="̀"/><glyph d="M633 1215q-40 0 -54.5 23.5t5.5 54.5l102 169q19 33 51 52t67 19h66q40 0 55 -22t-4 -55l-104 -170q-42 -71 -118 -71h-66z" glyph-name="acutecomb" horiz-adv-x="0" unicode="́"/><glyph d="M406 1209q-35 0 -42 22t20 51l188 202q27 28 53 38.5t66 10.5h164q40 0 63 -11t41 -38l134 -202q18 -29 5.5 -51t-46.5 -22h-123q-51 0 -85 52l-66 98q-20 32 -50 0l-92 -98q-47 -51 -97 -52h-133z" glyph-name="uni0302" horiz-adv-x="0" unicode="̂"/><glyph d="M888 1183q-71 -35 -126 6l-98 74q-33 26 -75 4l-143 -70q-36 -17 -71.5 -4t-49.5 47q-13 34 3.5 70t53.5 53l219 107q72 36 126 -6l98 -74q33 -24 76 -5l142 70q38 18 73 5.5t48 -47.5q13 -34 -2 -68.5t-52 -53.5z" glyph-name="tildecomb" horiz-adv-x="0" unicode="̃"/><glyph d="M493 1286q-36 0 -54 20t-14 55l8 52q4 34 28.5 54.5t59.5 20.5h494q36 0 53.5 -20t13.5 -55l-8 -52q-4 -34 -28.5 -54.5t-59.5 -20.5h-493z" glyph-name="uni0304" horiz-adv-x="0" unicode="̄"/><glyph d="M749 1211q-148 0 -232.5 78t-79.5 212q2 32 36 32h107q27 0 28 -30q4 -50 44.5 -87t107.5 -37q120 0 165 124q10 30 37 30h114q32 0 26 -32q-27 -136 -117 -213t-236 -77z" glyph-name="uni0306" horiz-adv-x="0" unicode="̆"/><glyph d="M536.5 1254q-54.5 0 -93.5 39t-39 96q0 54 39 92.5t93.5 38.5t93.5 -38.5t39 -92.5q0 -56 -39 -95.5t-93.5 -39.5zM839 1389q0 54 38.5 92.5t93 38.5t93.5 -38.5t39 -92.5q0 -56 -39 -95.5t-93.5 -39.5t-93 39.5t-38.5 95.5z" glyph-name="uni0308" horiz-adv-x="0" unicode="̈"/><glyph d="M749 1120q-19 -2 -27 5t-6 23l9 71q2 23 26.5 32t40.5 30t16 45q0 26 -16 41t-43 15q-46 0 -62 -37q-11 -22 -35 -22h-88q-33 0 -21 44q16 65 75.5 111t147.5 46t138 -47t50 -131q0 -93 -60 -157t-145 -69z" glyph-name="hookabovecomb" horiz-adv-x="0" unicode="̉"/><glyph d="M746 1129q-86 0 -144.5 59.5t-58.5 142.5t58.5 142.5t144.5 59.5q85 0 144 -59.5t59 -142.5q0 -82 -59 -142t-144 -60zM681 1332.5q0 -28.5 18.5 -46t47 -17.5t47.5 18t18 45q-1 29 -19.5 46.5t-46.5 17.5q-29 0 -47 -17.5t-18 -46z" glyph-name="uni030A" horiz-adv-x="0" unicode="̊"/><glyph d="M1097 1534q35 0 41.5 -21.5t-20.5 -51.5l-188 -201q-27 -28 -53 -39t-66 -11h-164q-40 0 -63 11t-41 39l-133 201q-18 29 -6 51t47 22h122q51 0 85 -51l66 -99q20 -32 50 0l92 99q47 51 98 51h133z" glyph-name="uni030C" horiz-adv-x="0" unicode="̌"/><glyph d="M551 968l30 213h28q25 0 35.5 10t14.5 37l9 65q5 37 29.5 58t61.5 21h57q37 0 55 -21t13 -58l-20 -139q-11 -84 -70 -135t-143 -51h-100z" glyph-name="uni031B" horiz-adv-x="0" unicode="̛"/><glyph d="M508 -383q-54 0 -93 39t-39 95q0 54 39 92.5t93 38.5t93 -38.5t39 -92.5q0 -56 -39 -95t-93 -39z" glyph-name="dotbelowcomb" horiz-adv-x="0" unicode="̣"/><glyph d="M682 -701q-39 0 -60 23t-16 61l21 147q11 78 -24 118.5t-113 40.5h-111q-38 0 -59 22t-16 61l5 39q4 38 32 59.5t66 21.5h184q133 0 204 -82t53 -217l-31 -210q-4 -38 -31.5 -61t-66.5 -23h-37z" glyph-name="uni0326" horiz-adv-x="0" unicode="̦"/><glyph d="M341 339q-27 0 -41 14t-14 38.5t14 38t41 13.5h544q27 0 41.5 -13.5t14.5 -38t-15 -38.5t-41 -14h-544z" glyph-name="uni0335" horiz-adv-x="0" unicode="̵"/><glyph d="M62 0q-33 0 -27 33l20 150q3 29 33 29h177l5 34q-193 110 -132 528q44 313 192 466t424.5 153t381.5 -153t61 -466q-60 -420 -281 -528l-5 -34h172q33 0 28 -33l-20 -150q-3 -29 -33 -29h-401q-33 0 -27 33l45 316q51 16 89.5 42.5t73 72.5t59.5 119.5t39 177.5 q13 73 9.5 140.5t-22 119.5t-70.5 83.5t-135 31.5q-67 0 -119.5 -21t-86 -54.5t-58 -84.5t-37.5 -101.5t-22 -113.5q-13 -83 -11 -147t11 -108t32 -76t50 -50.5t64 -30.5l-45 -320q-4 -29 -33 -29h-401z" glyph-name="Omega" unicode="Ω"/><glyph d="M163 -291q-59 0 -86.5 33.5t-17.5 91.5l152 914q5 33 7.5 61.5t3 42t0 35t-0.5 25.5q0 54 21.5 78t82.5 24q191 0 150 -239l-67 -395q-12 -66 -6 -107t37 -41q18 0 39.5 12.5t46 40t46.5 56.5t52 78t52 86.5t56 101.5t54.5 102.5t57.5 110t54 105.5q25 48 49 68.5 t66 20.5h52q49 0 72.5 -27.5t17.5 -76.5l-116 -820q-13 -90 -103 -90h-64q-49 0 -73 27.5t-17 76.5l52 358q-141 -257 -244.5 -371.5t-198.5 -114.5q-39 0 -50 14l-30 -176q-17 -104 -124 -105h-23z" glyph-name="mu" unicode="μ"/><glyph d="M934 -14q-56 0 -101.5 14.5t-79.5 46.5t-48 87t-4 130l75 538h-230l-108 -771q-5 -31 -35 -31h-196q-14 0 -21.5 8.5t-5.5 22.5l108 771h-133q-14 0 -21.5 8.5t-5.5 22.5l23 150q5 31 34 31h1032q14 0 21 -9t5 -22l-22 -150q-5 -31 -35 -31h-152l-68 -495q-12 -88 66 -88 q42 0 67 4q17 3 26 -5t7 -23l-22 -151q-8 -58 -176 -58z" glyph-name="pi" unicode="π"/><glyph d="M1096.5 528q-52.5 0 -88.5 36.5t-36 89t36 88t88.5 35.5t89 -35.5t36.5 -88t-36.5 -89t-89 -36.5zM79 653.5q0 52.5 36.5 88t89.5 35.5q51 0 87.5 -35.5t36.5 -88t-36.5 -89t-87.5 -36.5q-53 0 -89.5 36.5t-36.5 89zM376 653.5q0 52.5 37 88t89 35.5t88.5 -35.5t36.5 -88 t-37 -89t-88 -36.5q-52 0 -89 36.5t-37 89zM673 654.5q0 52.5 36.5 88t89 35.5t89 -35.5t36.5 -88t-37 -89t-88 -36.5q-52 0 -89 36.5t-37 89z" glyph-name="uni1801" unicode="᠁"/></font>
</defs>
</svg>
