<?xml version="1.0" standalone="no"?>
<!DOCTYPE svg PUBLIC "-//W3C//DTD SVG 1.1//EN" "http://www.w3.org/Graphics/SVG/1.1/DTD/svg11.dtd">
<svg xmlns="http://www.w3.org/2000/svg"><metadata>This SVG WebFont was generated by YouWorkForThem.
Copyright Â© 2020 by Connary Fagen. All rights reserved.</metadata><defs><font horiz-adv-x="1259" id="ywftsvg"><font-face ascent="1638" bbox="-126 -708 4920 2230" cap-height="1336" descent="-410" font-family="" font-stretch="normal" font-weight="400" panose-1="0 0 0 0 0 0 0 0 0 0" underline-position="0" underline-thickness="0" unicode-range="U+0020-FFFD" units-per-em="2048" x-height="1014"/><missing-glyph d="M831 1638v-2027h-643v2027h643zM339 -249h336v67h-207l142 95h65v67h-336v-67h141l-141 -95v-67zM339 27h336v229h-336v-229zM339 377h336v229h-203v-113h70v47h66v-96h-202v162h-67v-229zM339 651h336v203h-67v-134h-269v-69zM339 767h203v141h133v68h-336v-68h133v-74 h-133v-67zM339 1030h336v69h-133v142h-203v-211zM339 1293h336v68h-133v75h133v66h-334v-66h131v-75h-133v-68zM406 93v95h202v-95h-202zM406 1099v73h66v-73h-66z" horiz-adv-x="1013"/><glyph d="M2989 98l-101 119l437 375h-3160l24 170h3161l-332 375l134 118l497 -578z" glyph-name="hyphen_hyphen_greater.liga" horiz-adv-x="3778" unicode="-->"/><glyph d="M1730 98l-102 119l437 375h-1900l24 170h1901l-332 375l134 118l497 -578z" glyph-name="hyphen_greater.liga" horiz-adv-x="2519" unicode="->"/><glyph d="M2354 106l-101 119l438 375h-2524l23 170h2525l-332 375l134 119l498 -579zM2889 225l537 460l-407 460l134 119l497 -579l-660 -579z" glyph-name="hyphen_greater_greater.liga" horiz-adv-x="3778" unicode="->>"/><glyph d="M2989 98l-101 119l437 375h-3160l24 170h3161l-332 375l134 118l497 -578z" glyph-name="endash_endash_greater.liga" horiz-adv-x="3778" unicode="––>"/><glyph d="M1730 98l-102 119l437 375h-1900l24 170h1901l-332 375l134 118l497 -578z" glyph-name="endash_greater.liga" horiz-adv-x="2519" unicode="–>"/><glyph d="M2354 106l-101 119l438 375h-2524l23 170h2525l-332 375l134 119l498 -579zM2889 225l537 460l-407 460l134 119l497 -579l-660 -579z" glyph-name="endash_greater_greater.liga" horiz-adv-x="3778" unicode="–>>"/><glyph d="M508 -218q-100 0 -88 101l224 1588q14 102 116 103h961q72 0 61 -70l-6 -42q-11 -70 -80 -69h-811q-45 0 -51 -46l-189 -1339q-6 -46 40 -46h810q71 0 60 -70l-6 -40q-9 -70 -80 -70h-961zM1711 -153l235 1661q8 66 74 66h75q66 0 56 -66l-233 -1661q-8 -66 -75 -65h-75 q-65 -1 -57 65z" glyph-name="bracketleft_bar.liga" horiz-adv-x="2519" unicode="[|"/><glyph d="M1388 571q-48 0 -71.5 22t-17.5 63q11 85 99 85h783q47 0 70.5 -22.5t18.5 -62.5q-12 -85 -99 -85h-783zM466 686q0 90 62 152t151 62q90 0 152 -62t62 -152t-62 -152t-152 -62q-89 0 -151 62t-62 152z" glyph-name="period_hyphen.liga" horiz-adv-x="2519" unicode=".-"/><glyph d="M1388 571q-48 0 -71.5 22t-17.5 63q11 85 99 85h783q47 0 70.5 -22.5t18.5 -62.5q-12 -85 -99 -85h-783zM466 686q0 90 62 152t151 62q90 0 152 -62t62 -152t-62 -152t-152 -62q-89 0 -151 62t-62 152z" glyph-name="period_endash.liga" horiz-adv-x="2519" unicode=".–"/><glyph d="M679 472q-90 0 -151.5 62t-61.5 152t61.5 152t151.5 62t152 -62t62 -152t-62 -152t-152 -62zM1292 440l4 36q9 62 75 63h843q65 0 56 -63l-5 -36q-8 -62 -74 -62h-842q-65 0 -57 62zM1354 877l4 35q9 62 75 63h842q65 0 57 -63l-5 -35q-8 -62 -74 -63h-843q-64 1 -56 63z " glyph-name="period_equal.liga" horiz-adv-x="2519" unicode=".="/><glyph d="M399 144q-60 46 4 118l153 171q47 51 94 13l25 -18q48 -37 5 -92l-137 -179q-59 -76 -120 -31zM233 569l5 30q8 80 100 77l213 -8q65 -3 55 -68l-4 -31q-5 -34 -22.5 -50.5t-53.5 -17.5l-214 -8q-46 -1 -64.5 17.5t-14.5 58.5zM496 906q-44 72 27 118l27 17 q71 46 109 -29l91 -181q27 -54 -30 -91l-28 -17q-58 -37 -89 14zM772 336q-28 57 30 92l27 17q58 37 90 -14l107 -169q44 -72 -29 -118l-25 -17q-72 -45 -110 30zM842 831l137 181q59 76 119 30l24 -18q59 -45 -4 -118l-153 -171q-45 -49 -94 -13l-24 18q-48 37 -5 91z M920 569l4 31q9 65 74 68l214 8q46 1 65 -18t14 -59l-3 -30q-9 -80 -100 -76l-213 8q-35 1 -47.5 17.5t-7.5 50.5zM1424 77l758 1185q33 49 85 49h83q38 0 48.5 -22t-10.5 -55l-761 -1185q-32 -49 -83 -49h-82q-38 0 -49 21.5t11 55.5z" glyph-name="asterisk_slash.liga" horiz-adv-x="2519" unicode="*/"/><glyph d="M211 0q-38 0 -48.5 21.5t10.5 55.5l758 1185q33 49 85 49h83q38 0 48.5 -22t-10.5 -55l-761 -1185q-32 -49 -83 -49h-82zM1249 569l4 30q8 80 101 77l213 -8q65 -3 55 -68l-4 -31q-5 -34 -22.5 -50.5t-53.5 -17.5l-214 -8q-46 -1 -64.5 17.5t-14.5 58.5zM1415 144 q-60 46 4 118l153 171q47 51 94 13l25 -18q48 -37 5 -92l-137 -179q-59 -76 -120 -31zM1511 906q-44 72 28 118l27 17q71 46 109 -29l90 -181q27 -54 -29 -91l-28 -17q-58 -37 -89 14zM1788 336q-28 57 30 92l27 17q58 37 89 -14l108 -169q44 -72 -29 -118l-25 -17 q-72 -45 -110 30zM1858 831l137 181q59 76 119 30l24 -18q59 -45 -4 -118l-154 -171q-45 -49 -93 -13l-24 18q-48 37 -5 91zM1935 569l4 31q9 65 75 68l214 8q46 1 65 -18t14 -59l-3 -30q-9 -80 -100 -76l-213 8q-35 1 -48 17.5t-8 50.5z" glyph-name="slash_asterisk.liga" horiz-adv-x="2519" unicode="/*"/><glyph d="M1360 0q-38 0 -49 21.5t11 55.5l758 1185q33 49 85 49h83q38 0 48.5 -22t-10.5 -55l-761 -1185q-32 -49 -83 -49h-82zM230 252q-12 27 18 42l701 377l-592 376q-24 14 -6 42l71 97q18 27 43 11l665 -434q20 -12 18 -36l-18 -122q-3 -24 -27 -36l-786 -433q-26 -15 -38 10 z" glyph-name="slash_greater.liga" horiz-adv-x="2519" unicode="/>"/><glyph d="M1376 0q-38 0 -48.5 21.5t10.5 55.5l758 1185q33 49 85 49h83q38 0 48.5 -22t-10.5 -55l-761 -1185q-32 -49 -83 -49h-82zM259 77l758 1185q33 49 85 49h83q38 0 48.5 -22t-10.5 -55l-761 -1185q-32 -49 -83 -49h-82q-38 0 -49 21.5t11 55.5z" glyph-name="slash_slash.liga" horiz-adv-x="2519" unicode="//"/><glyph d="M-95 -170l23 170h2519l-23 -170h-2519z" glyph-name="underscore_underscore.liga" horiz-adv-x="2519" unicode="__"/><glyph d="M846 -218q-71 0 -62 70l8 40q9 70 79 70h810q46 0 53 46l188 1339q6 46 -40 46h-810q-72 0 -60 69l6 42q9 70 80 70h960q102 0 88 -103l-223 -1588q-14 -101 -117 -101h-960zM415 -153l234 1661q8 66 75 66h75q66 0 56 -66l-233 -1661q-8 -66 -75 -65h-75q-65 -1 -57 65z " glyph-name="bar_bracketright.liga" horiz-adv-x="2519" unicode="|]"/><glyph d="M1129 -184q-65 0 -56 65l216 1538q9 66 76 66h75q65 0 56 -66l-216 -1538q-9 -66 -76 -65h-75zM1989 -119l216 1538q9 66 75 66h75q65 0 57 -66l-217 -1538q-9 -66 -75 -65h-75q-64 -1 -56 65zM2945 -102l213 1505q5 39 30 60.5t63 21.5h52q60 0 128 -47l903 -624 q79 -56 67 -136l-8 -54q-11 -80 -106 -136l-1078 -625q-82 -47 -141 -47h-52q-38 0 -57 21.5t-14 60.5zM3184 83l991 573l-830 572z" glyph-name="bar_bar_bar_greater.liga" horiz-adv-x="5038" unicode="|||>"/><glyph d="M900 -184q-65 0 -56 65l216 1538q9 66 76 66h74q65 0 57 -66l-216 -1538q-9 -66 -76 -65h-75zM1700 -102l213 1505q5 39 30 60.5t63 21.5h52q60 0 128 -47l902 -624q79 -56 68 -136l-8 -54q-11 -80 -106 -136l-1078 -625q-82 -47 -141 -47h-53q-38 0 -56.5 21.5 t-13.5 60.5zM1938 83l992 573l-830 572z" glyph-name="bar_bar_greater.liga" horiz-adv-x="3778" unicode="||>"/><glyph d="M640 -184q-38 0 -57 21.5t-14 60.5l213 1505q5 39 30.5 60.5t63.5 21.5h52q60 0 128 -47l902 -624q79 -56 67 -136l-8 -54q-11 -80 -105 -136l-1078 -625q-82 -47 -142 -47h-52zM808 83l991 573l-829 572z" glyph-name="bar_greater.liga" horiz-adv-x="2519" unicode="|>"/><glyph d="M217 814q-14 0 -21.5 8.5t-5.5 22.5l14 99q5 31 36 31h2172q30 0 26 -31l-14 -99q-1 -13 -11 -22t-24 -9h-2172zM129 409l13 99q5 31 36 31h2172q13 0 20.5 -8.5t5.5 -22.5l-14 -99q-5 -31 -34 -31h-2172q-14 0 -21.5 9t-5.5 22z" glyph-name="equal_equal.liga" horiz-adv-x="2519" unicode="=="/><glyph d="M217 814q-14 0 -21.5 8.5t-5.5 22.5l14 99q5 31 36 31h3431q30 0 27 -31l-15 -99q-1 -13 -10.5 -22t-23.5 -9h-3432zM129 409l13 99q5 31 36 31h3432q13 0 20 -8.5t5 -22.5l-13 -99q-1 -13 -11 -22t-24 -9h-3431q-14 0 -21.5 9t-5.5 22z" glyph-name="equal_equal_equal.liga" horiz-adv-x="3778" unicode="==="/><glyph d="M2989 98l-101 119l188 161h-2920q-14 0 -21.5 8.5t-5.5 22.5l13 99q5 31 36 31h3085l162 138l-122 137h-3087q-30 0 -27 31l15 99q1 13 10.5 22t24.5 9h2922l-143 162l134 118l497 -578z" glyph-name="equal_equal_greater.liga" horiz-adv-x="3778" unicode="==>"/><glyph d="M1730 98l-102 119l189 161h-1661q-14 0 -21.5 8.5t-5.5 22.5l13 99q5 31 36 31h1826l162 138l-122 137h-1828q-30 0 -27 31l15 99q1 13 10.5 22t24.5 9h1663l-144 162l134 118l497 -578z" glyph-name="equal_greater.liga" horiz-adv-x="2519" unicode="=>"/><glyph d="M2989 98l-101 119l537 460l-407 460l134 118l497 -578zM129 409l13 99q5 31 36 31h2450l161 138l-121 137h-2452q-30 0 -27 31l15 99q1 13 10.5 22t24.5 9h2286l-143 162l134 118l497 -578l-660 -579l-100 119l187 161h-2284q-14 0 -21.5 9t-5.5 22z" glyph-name="equal_greater_greater.liga" horiz-adv-x="3778" unicode="=>>"/><glyph d="M1479 93q-38 0 -49 21.5t11 55.5l133 208h-1418q-14 0 -21.5 8.5t-5.5 22.5l13 99q5 31 36 31h1498l176 275h-1635q-14 0 -21.5 8.5t-5.5 22.5l14 99q5 31 36 31h1716l243 380q33 49 85 49h82q38 0 49 -22t-11 -55l-226 -352h1493q30 0 27 -31l-15 -99q-1 -13 -10.5 -22 t-23.5 -9h-1574l-177 -275h1712q13 0 20 -8.5t5 -22.5l-13 -99q-1 -13 -11 -22t-24 -9h-1792l-151 -236q-32 -49 -83 -49h-82z" glyph-name="equal_slash_equal.liga" horiz-adv-x="3778" unicode="=/="/><glyph d="M375 1243l425 -493h2547l-331 374l134 119l497 -578l-660 -579l-100 119l437 375h-2549l-563 -494l-101 119l537 460l-407 459z" glyph-name="greater_hyphen_greater.liga" horiz-adv-x="3778" unicode=">->"/><glyph d="M375 1243l425 -493h2547l-331 374l134 119l497 -578l-660 -579l-100 119l437 375h-2549l-563 -494l-101 119l537 460l-407 459z" glyph-name="greater_endash_greater.liga" horiz-adv-x="3778" unicode=">–>"/><glyph d="M2989 98l-101 119l188 161h-2544l-319 -280l-100 119l536 460l-406 460l133 118l241 -280h2544l-143 162l134 118l497 -578zM716 539h2547l162 138l-122 137h-2547l117 -137z" glyph-name="greater_equal_greater.liga" horiz-adv-x="3778" unicode=">=>"/><glyph d="M839 1264l101 -119l-437 -375h1900l-24 -170h-1901l332 -375l-134 -119l-497 579z" glyph-name="less_hyphen.liga" horiz-adv-x="2519" unicode="&lt;-"/><glyph d="M836 1243l101 -119l-437 -374h3160l-25 -170h-3160l332 -375l-134 -119l-497 579z" glyph-name="less_hyphen_hyphen.liga" horiz-adv-x="3778" unicode="&lt;--"/><glyph d="M2989 98l-101 119l438 375h-2849l332 -375l-134 -119l-498 579l661 578l100 -118l-437 -375h2849l-332 375l134 118l497 -578z" glyph-name="less_hyphen_greater.liga" horiz-adv-x="3778" unicode="&lt;->"/><glyph d="M3450 98l-425 494h-2548l332 -375l-134 -119l-498 579l661 578l100 -118l-437 -375h2548l564 493l101 -118l-538 -460l408 -460z" glyph-name="less_hyphen_less.liga" horiz-adv-x="3778" unicode="&lt;-&lt;"/><glyph d="M839 1264l101 -119l-437 -375h1900l-24 -170h-1901l332 -375l-134 -119l-497 579z" glyph-name="less_endash.liga" horiz-adv-x="2519" unicode="&lt;–"/><glyph d="M836 1243l101 -119l-437 -374h3160l-25 -170h-3160l332 -375l-134 -119l-497 579z" glyph-name="less_endash_endash.liga" horiz-adv-x="3778" unicode="&lt;––"/><glyph d="M2989 98l-101 119l438 375h-2849l332 -375l-134 -119l-498 579l661 578l100 -118l-437 -375h2849l-332 375l134 118l497 -578z" glyph-name="less_endash_greater.liga" horiz-adv-x="3778" unicode="&lt;–>"/><glyph d="M3450 98l-425 494h-2548l332 -375l-134 -119l-498 579l661 578l100 -118l-437 -375h2548l564 493l101 -118l-538 -460l408 -460z" glyph-name="less_endash_less.liga" horiz-adv-x="3778" unicode="&lt;–&lt;"/><glyph d="M675 98l-498 579l661 578l100 -118l-537 -460l408 -460zM1292 158q0 78 53.5 131t131 53t131 -53t53.5 -131t-53.5 -132t-131 -54t-131 54t-53.5 132zM1448 597l28 581q3 70 44 111.5t103 41.5q65 0 102 -42.5t21 -110.5l-132 -581q-8 -36 -29.5 -59t-53.5 -23h-15 q-32 0 -51 24t-17 58zM2265 592l24 170h2631l-24 -170h-2631z" glyph-name="less_exclam_hyphen_hyphen.liga" horiz-adv-x="5038" unicode="&lt;!--"/><glyph d="M675 98l-498 579l661 578l100 -118l-537 -460l408 -460zM1292 158q0 78 53.5 131t131 53t131 -53t53.5 -131t-53.5 -132t-131 -54t-131 54t-53.5 132zM1448 597l28 581q3 70 44 111.5t103 41.5q65 0 102 -42.5t21 -110.5l-132 -581q-8 -36 -29.5 -59t-53.5 -23h-15 q-32 0 -51 24t-17 58zM2265 592l24 170h2631l-24 -170h-2631z" glyph-name="less_exclam_endash_endash.liga" horiz-adv-x="5038" unicode="&lt;!––"/><glyph d="M1672 -184q-60 0 -127 47l-903 623q-79 56 -68 137l9 54q11 80 105 135l1078 626q83 47 142 47h52q38 0 57.5 -21.5t13.5 -60.5l-212 -1505q-6 -39 -31.5 -60.5t-63.5 -21.5h-52zM801 644l829 -571l162 1145z" glyph-name="less_bar.liga" horiz-adv-x="2519" unicode="&lt;|"/><glyph d="M2608 -184q-65 0 -56 65l216 1538q9 66 76 66h74q65 0 57 -66l-216 -1538q-9 -66 -76 -65h-75zM703 623l9 54q11 80 105 135l1078 626q83 47 142 47h52q38 0 57.5 -21.5t13.5 -60.5l-212 -1505q-6 -39 -31.5 -60.5t-63.5 -21.5h-52q-60 0 -127 47l-903 623 q-79 57 -68 137zM930 644l829 -571l162 1145z" glyph-name="less_bar_bar.liga" horiz-adv-x="3778" unicode="&lt;||"/><glyph d="M2724 -184q-65 0 -56 65l216 1538q9 66 75 66h75q65 0 56 -66l-216 -1538q-9 -66 -75 -65h-75zM718 623l8 54q11 80 105 135l1079 626q83 47 141 47h52q38 0 57.5 -21.5t13.5 -60.5l-212 -1505q-6 -39 -31 -60.5t-63 -21.5h-52q-60 0 -127 47l-904 623q-78 57 -67 137z M944 644l830 -571l161 1145zM3582 -119l216 1538q9 66 76 66h75q65 0 56 -66l-216 -1538q-9 -66 -76 -65h-75q-64 -1 -56 65z" glyph-name="less_bar_bar_bar.liga" horiz-adv-x="5038" unicode="&lt;|||"/><glyph d="M839 1264l101 -119l-188 -161h2920q14 0 21.5 -8.5t5.5 -22.5l-14 -99q-5 -31 -35 -31h-3086l-162 -138l122 -137h3088q30 0 26 -31l-14 -99q-1 -13 -11 -22t-24 -9h-2922l143 -162l-134 -119l-497 579z" glyph-name="less_equal_equal.liga" horiz-adv-x="3778" unicode="&lt;=="/><glyph d="M675 98l-498 579l661 578l100 -118l-188 -162h3671l-144 162l134 118l497 -578l-659 -579l-102 119l189 161h-3669l142 -161zM401 677l123 -138h3999l162 138l-122 137h-4002z" glyph-name="less_equal_equal_greater.liga" horiz-adv-x="5038" unicode="&lt;==>"/><glyph d="M2989 98l-101 119l188 161h-2409l142 -161l-134 -119l-498 579l661 578l100 -118l-188 -162h2411l-143 162l134 118l497 -578zM401 677l123 -138h2739l162 138l-122 137h-2742z" glyph-name="less_equal_greater.liga" horiz-adv-x="3778" unicode="&lt;=>"/><glyph d="M836 1243l101 -119l-188 -160h2543l320 279l100 -119l-537 -459l407 -460l-133 -119l-242 281h-2543l143 -162l-134 -119l-497 579zM399 665l122 -138h2548l-118 138l158 138h-2548z" glyph-name="less_equal_less.liga" horiz-adv-x="3778" unicode="&lt;=&lt;"/><glyph d="M1310 98l-497 579l660 578l101 -118l-437 -375h2524l-25 -170h-2524l333 -375zM177 677l661 578l100 -118l-537 -460l408 -460l-134 -119z" glyph-name="less_less_hyphen.liga" horiz-adv-x="3778" unicode="&lt;&lt;-"/><glyph d="M1310 98l-497 579l660 578l101 -118l-437 -375h2524l-25 -170h-2524l333 -375zM177 677l661 578l100 -118l-537 -460l408 -460l-134 -119z" glyph-name="less_less_endash.liga" horiz-adv-x="3778" unicode="&lt;&lt;–"/><glyph d="M839 1264l101 -119l-538 -460l408 -460l-134 -119l-497 579zM815 685l660 579l100 -119l-187 -161h2284q14 0 21.5 -8.5t5.5 -22.5l-14 -99q-5 -31 -35 -31h-2450l-162 -138l122 -137h2452q30 0 26 -31l-14 -99q-1 -13 -11 -22t-24 -9h-2286l143 -162l-134 -119z" glyph-name="less_less_equal.liga" horiz-adv-x="3778" unicode="&lt;&lt;="/><glyph d="M294 581q-20 12 -18 35l18 122q3 24 28 36l785 433q26 15 39 -10l48 -105q12 -27 -17 -42l-702 -377l592 -376q24 -14 6 -42l-71 -97q-18 -27 -43 -12zM1322 77l758 1185q33 49 85 49h83q38 0 48.5 -22t-10.5 -55l-761 -1185q-32 -49 -83 -49h-82q-38 0 -49 21.5t11 55.5 z" glyph-name="less_slash.liga" horiz-adv-x="2519" unicode="&lt;/"/><glyph d="M918 547q-37 -18 -63 -17.5t-56 23.5l-111 83q-33 25 -77 3l-159 -77q-33 -16 -65 -6.5t-44 39.5q-11 31 3.5 64t47.5 49l232 111q69 34 119 -6l110 -82q34 -26 77 -4l159 76q22 11 71 11h1010q34 0 49.5 -17.5t11.5 -48.5l-4 -26q-9 -67 -80 -67h-1009z" glyph-name="asciitilde_hyphen.liga" horiz-adv-x="2519" unicode="~-"/><glyph d="M1182 547q-37 -18 -63 -17.5t-57 23.5l-111 83q-33 25 -77 3l-160 -77q-32 -16 -64.5 -6.5t-43.5 39.5q-11 31 4 64t47 49l232 111q69 34 120 -6l109 -82q33 -25 67 -9l201 97q70 34 120 -6l110 -82q34 -27 77 -4l162 78q32 15 64 6t43 -38q12 -32 -2 -64t-47 -49 l-234 -113q-37 -18 -63 -17.5t-56 23.5l-111 83q-33 24 -79 2z" glyph-name="asciitilde_asciitilde.liga" horiz-adv-x="2519" unicode="~~"/><glyph d="M1087 23q-31 26 -30 58.5t32 65.5l987 1137q63 72 128 16l14 -12q62 -54 -1 -125l-988 -1136q-60 -70 -126 -17zM343 23q-31 26 -30.5 58.5t31.5 65.5l988 1137q62 72 127 16l15 -12q62 -53 -1 -125l-988 -1136q-61 -70 -127 -17zM452 1170q0 74 43.5 120t119.5 46 q79 0 122.5 -45.5t43.5 -120t-43.5 -120.5t-122.5 -46q-78 0 -120.5 45.5t-42.5 120.5zM1780 141.5q0 74.5 43 120t120.5 45.5t121.5 -46t44 -119.5t-44 -120.5t-121.5 -47t-120.5 46.5t-43 121z" glyph-name="percent_percent.liga" horiz-adv-x="2519" unicode="%%"/><glyph d="M831 1638v-2027h-643v2027h643zM339 -249h336v67h-207l142 95h65v67h-336v-67h141l-141 -95v-67zM339 27h336v229h-336v-229zM339 377h336v229h-203v-113h70v47h66v-96h-202v162h-67v-229zM339 651h336v203h-67v-134h-269v-69zM339 767h203v141h133v68h-336v-68h133v-74 h-133v-67zM339 1030h336v69h-133v142h-203v-211zM339 1293h336v68h-133v75h133v66h-334v-66h131v-75h-133v-68zM406 93v95h202v-95h-202zM406 1099v73h66v-73h-66z" glyph-name=".notdef" horiz-adv-x="1013"/><glyph glyph-name="glyph1" horiz-adv-x="0"/><glyph glyph-name="glyph2" horiz-adv-x="681"/><glyph glyph-name="space" unicode=" "/><glyph glyph-name="space" unicode=" "/><glyph d="M620 515q-32 0 -51 24t-17 58l28 581q3 70 44 111.5t103 41.5q65 0 102 -42.5t21 -110.5l-132 -581q-8 -36 -29.5 -59t-53.5 -23h-15zM396 158q0 78 53.5 131t131 53t131 -53t53.5 -131t-53.5 -132t-131 -54t-131 54t-53.5 132z" glyph-name="exclam" unicode="!"/><glyph d="M854 673q-32 0 -47 16.5t-11 47.5l66 529q8 66 74 65h78q32 0 46 -17t9 -48l-82 -529q-9 -65 -75 -64h-58zM337 737l66 529q8 66 74 65h78q32 0 46 -17t9 -48l-82 -529q-9 -65 -74 -64h-59q-32 0 -47 16t-11 48z" glyph-name="quotedbl" unicode="&quot;"/><glyph d="M200 0q-14 0 -20.5 8.5t-2.5 22.5l94 331h-161q-14 0 -20.5 9t-2.5 22l29 100q10 31 39 30h161l109 387h-161q-14 0 -20 9t-2 22l28 99q7 31 39 31h161l93 332q10 31 39 31h118q14 0 20 -9t2 -22l-94 -332h218l95 332q10 31 38 31h117q14 0 20.5 -9t2.5 -22l-93 -332h160 q14 0 22 -8.5t5 -22.5l-29 -99q-4 -13 -16 -22t-27 -9h-161l-108 -387h161q14 0 21.5 -8.5t3.5 -21.5l-28 -100q-4 -13 -16 -22t-26 -9h-161l-94 -331q-10 -31 -39 -31h-117q-14 0 -20.5 8.5t-2.5 22.5l94 331h-218l-94 -331q-10 -31 -39 -31h-117zM495 523h218l108 387 h-218z" glyph-name="numbersign" unicode="#"/><glyph d="M522 -143q-62 0 -54 68l35 235q-152 13 -244.5 70t-80.5 146q5 36 28.5 59t61.5 23h8q53 0 76 -52q35 -94 243 -95q271 0 271 144q0 32 -15 53.5t-50.5 35.5t-74 21.5t-104.5 16.5q-62 7 -110 17t-97 29.5t-81.5 46t-52.5 68.5t-20 96q0 141 108 221.5t285 91.5l35 228 q9 66 74 66h14q62 0 53 -69l-34 -227q140 -14 223 -72t72 -148q-4 -34 -27.5 -55t-62.5 -21h-11q-54 0 -75 52q-30 92 -221 92q-248 0 -248 -138q0 -59 53.5 -86.5t171.5 -41.5q49 -6 81 -11t76 -15t73.5 -21.5t61 -30.5t50 -42.5t31 -57.5t12.5 -75q0 -98 -55 -169 t-145 -107.5t-211 -43.5l-36 -238q-9 -67 -72 -64h-15z" glyph-name="dollar" unicode="$"/><glyph d="M86 23q-31 26 -30.5 58t31.5 66l987 1137q62 72 127 16l16 -12q61 -53 -2 -125l-988 -1136q-60 -70 -127 -17zM194 1170q0 74 43.5 120t119.5 46q79 0 123 -46t44 -120q0 -75 -44 -120.5t-123 -45.5q-78 0 -120.5 45.5t-42.5 120.5zM777 141q0 74 43.5 120t121.5 46 t122 -46t44 -119.5t-44 -120.5t-122 -47t-121.5 46t-43.5 121z" glyph-name="percent" unicode="%"/><glyph d="M493 -27q-195 0 -317 118t-122 300q0 161 97 283t266 150q-130 139 -130 294q0 142 101 237t262 95q152 0 241 -83.5t89 -200.5q0 -114 -90 -113q-76 0 -89 85q-8 65 -49.5 100.5t-108.5 35.5q-77 0 -122.5 -44.5t-45.5 -118.5q0 -112 131 -260q45 -51 27.5 -105.5 t-82.5 -54.5q-142 0 -224 -80.5t-82 -200t79 -188.5t195 -69q79 0 144 32t86 80.5t-16 106.5q-53 74 6 124l14 11q67 57 123 -19l250 -346q52 -70 -11 -124l-13 -11q-63 -55 -118 19l-123 169q-4 -68 -59.5 -119t-136.5 -77t-172 -26z" glyph-name="ampersand" unicode="&amp;"/><glyph d="M625 673q-32 0 -47.5 16.5t-11.5 47.5l67 529q8 66 74 65h77q32 0 46.5 -17t9.5 -48l-82 -529q-9 -65 -75 -64h-58z" glyph-name="quotesingle" unicode="'"/><glyph d="M741 -213q-102 0 -181 28t-128.5 74t-81.5 117t-45.5 144t-14 169t6.5 178t21 182q10 78 21 141t28.5 139t37.5 136t49 125.5t64 114t81.5 94.5t101.5 75t125 46.5t151 17.5q72 0 101.5 -23.5t22.5 -74.5q-6 -44 -33.5 -68.5t-73.5 -24.5q-94 0 -165.5 -34t-119 -91 t-83.5 -150.5t-56.5 -190t-40.5 -232.5q-13 -92 -19.5 -167t-6.5 -148.5t9 -130t29 -105t52.5 -80t80 -49t109.5 -17.5q51 0 76 -29t18 -78q-7 -45 -39 -66.5t-97 -21.5z" glyph-name="parenleft" unicode="("/><glyph d="M334 -202q-72 0 -101.5 23.5t-22.5 74.5q6 44 33 68.5t73 24.5q94 0 166 34t119.5 91t83.5 150.5t56.5 190t39.5 232.5q13 92 20 167t7 148.5t-9 130t-29 105t-52.5 80t-80 49t-110.5 17.5q-51 0 -75.5 29t-17.5 78q7 45 39 66.5t96 21.5q102 0 181 -28t129 -74 t81.5 -117t45.5 -144t14.5 -169t-6.5 -178t-22 -182q-10 -78 -20.5 -141t-28 -139t-37.5 -136t-49.5 -125.5t-64 -114t-81 -94.5t-101.5 -75t-125 -46.5t-151 -17.5z" glyph-name="parenright" unicode=")"/><glyph d="M266 66q-60 46 4 117l153 171q47 51 94 14l25 -19q48 -37 5 -92l-137 -179q-59 -76 -120 -31zM100 490l4 30q8 80 101 77l213 -8q65 -3 55 -68l-4 -31q-5 -34 -22.5 -50.5t-53.5 -17.5l-214 -8q-46 -1 -64.5 17.5t-14.5 58.5zM362 827q-44 72 28 118l27 18q71 46 109 -30 l90 -180q27 -54 -29 -91l-28 -18q-58 -37 -89 14zM639 257q-28 57 30 92l27 18q58 37 89 -15l108 -169q44 -72 -29 -117l-25 -18q-72 -45 -110 30zM709 753l137 180q59 76 119 31l24 -19q59 -45 -4 -118l-154 -171q-45 -49 -93 -13l-24 19q-48 37 -5 91zM786 490l5 31 q9 65 74 68l214 8q46 1 65 -18t14 -59l-3 -30q-9 -80 -100 -76l-213 8q-35 1 -48 17.5t-8 50.5z" glyph-name="asterisk" unicode="*"/><glyph d="M159 592q-26 0 -38.5 15t-8.5 40l8 59q4 26 20.5 40.5t41.5 14.5h400l56 402q3 26 19.5 41t42.5 15h59q26 0 38.5 -14.5t8.5 -41.5l-56 -402h398q26 0 38.5 -14.5t8.5 -40.5l-8 -59q-8 -55 -63 -55h-398l-56 -403q-4 -26 -20.5 -40t-42.5 -14h-59q-26 0 -38 14.5t-9 39.5 l56 403h-398z" glyph-name="plus" unicode="+"/><glyph d="M733 -26q-36 0 -55.5 20.5t-14.5 54.5l27 191q13 91 -24.5 135t-127.5 44h-139q-36 0 -54 20t-14 55l4 32q4 35 29 55.5t61 20.5h204q133 0 205 -85t54 -219l-35 -249q-4 -34 -29.5 -54.5t-61.5 -20.5h-29z" glyph-name="comma" unicode=","/><glyph d="M254 571q-48 0 -71 22t-17 63q11 85 98 85h784q47 0 70.5 -22.5t18.5 -62.5q-12 -85 -100 -85h-783z" glyph-name="hyphen" unicode="-"/><glyph d="M582 -28q-81 0 -137.5 56.5t-56.5 138.5q0 81 56 137t138 56t137.5 -56t55.5 -137q0 -82 -56 -138.5t-137 -56.5z" glyph-name="period" unicode="."/><glyph d="M207 0q-38 0 -49 21.5t11 55.5l758 1185q33 49 85 49h83q38 0 48.5 -22t-10.5 -55l-761 -1185q-32 -49 -83 -49h-82z" glyph-name="slash" unicode="/"/><glyph d="M606 -26q-215 0 -344.5 137.5t-129.5 361.5q0 244 147 403.5t372 159.5q68 0 124 -14t90 -48t23 -82q-6 -26 -19 -39t-35.5 -15.5t-44 -0.5t-58 5.5t-63.5 3.5q-153 0 -245 -101t-92 -264q0 -138 69 -222q217 272 435 437q61 46 121 46q71 0 117 -76t46 -192 q0 -99 -37.5 -190t-103 -160t-162.5 -109.5t-210 -40.5zM520 177q46 -14 97 -14q134 0 221 90t87 209q0 58 -30 105q-197 -164 -375 -390z" glyph-name="zero" unicode="0"/><glyph d="M720 0q-49 0 -72 27t-16 76l100 680q-43 -66 -115 -110t-135.5 -60.5t-120.5 -16.5q-65 0 -93 27.5t-23 75.5q12 88 107 88q83 0 189.5 46.5t186.5 136.5q37 44 108 44h35q97 0 83 -101l-114 -824q-12 -89 -103 -89h-17z" glyph-name="one" unicode="1"/><glyph d="M293 0q-101 0 -148.5 43.5t-34.5 125.5q9 67 55.5 118t113.5 83t146 58.5t158 49.5t145.5 49t111.5 66t52 92q11 72 -47.5 123.5t-187.5 51.5q-124 0 -200.5 -51.5t-94.5 -144.5q-10 -56 -79 -57h-27q-96 0 -80 115q20 131 148.5 223t337.5 92q220 0 332 -103t91 -256 q-10 -73 -49 -129.5t-95.5 -93.5t-123.5 -65t-140 -48.5t-137.5 -39.5t-122 -44.5t-87.5 -55.5q-11 -12 -5.5 -21.5t22.5 -9.5h602q43 0 64.5 -18.5t16.5 -55.5l-3 -23q-12 -74 -102 -74h-632z" glyph-name="two" unicode="2"/><glyph d="M520 -325q-233 0 -356 92.5t-104 238.5q8 58 33.5 83t68.5 25h40q62 0 59 -64q-5 -89 64.5 -141t211.5 -52q145 0 228.5 55t96.5 159q14 110 -68 168.5t-259 58.5q-35 0 -53 18t-14 52l3 22q4 34 27 52t59 18q171 0 254.5 59t94.5 147q11 94 -53.5 141.5t-187.5 47.5 q-129 0 -205 -50t-94 -139q-12 -62 -71 -63h-34q-99 0 -85 110q20 142 153 233t352 91q217 0 330.5 -90.5t91.5 -254.5q-28 -208 -262 -291l-3 -21q269 -81 233 -333q-24 -175 -167.5 -273.5t-383.5 -98.5z" glyph-name="three" unicode="3"/><glyph d="M772 -194q-82 0 -71 83l16 111h-595q-97 0 -85 88l11 83q342 390 494 791q20 52 88 52h70q39 0 48.5 -21t-7.5 -61q-148 -386 -456 -762h456l36 258q11 83 91 83h43q80 0 69 -83l-36 -258h83q39 0 57 -16.5t14 -48.5l-6 -40q-9 -65 -90 -65h-82l-16 -111q-11 -83 -90 -83 h-42z" glyph-name="four" unicode="4"/><glyph d="M511 -323q-217 0 -330 86.5t-108 251.5q1 33 22 55.5t60 22.5h34q63 0 76 -65q11 -87 77 -128.5t197 -41.5q154 0 238 56t103 188q18 129 -40.5 182.5t-195.5 53.5h-361q-50 0 -72 28.5t-8 79.5l128 488q20 80 103 80h579q39 0 58.5 -17.5t14.5 -51.5l-5 -40 q-5 -34 -30 -51t-63 -17h-503l-84 -324h306q204 0 301 -103t68 -302q-32 -217 -178 -324t-387 -107z" glyph-name="five" unicode="5"/><glyph d="M559 -26q-228 0 -346 133.5t-90 344.5q17 129 94 262.5t223 289.5l248 262q42 45 100 45h80q43 0 49.5 -26.5t-24.5 -55.5l-330 -339q75 23 157 22q190 0 296.5 -109.5t106.5 -293.5q0 -232 -158.5 -383.5t-405.5 -151.5zM314 404q0 -121 68 -185t195 -64 q158 0 253.5 95.5t95.5 243.5q0 120 -69 183t-194 63q-160 0 -254.5 -94.5t-94.5 -241.5z" glyph-name="six" unicode="6"/><glyph d="M334 -297q-42 0 -56.5 30.5t2.5 63.5q134 302 322 583h-198q-38 0 -55 20.5t-12 58.5l2 12q10 69 77 69h298q113 153 235 297h-665q-42 0 -62.5 22t-15.5 63l2 17q10 75 90 75h771q54 0 80.5 -32t17.5 -90q-9 -60 -52 -118q-127 -163 -180 -234h143q76 0 68 -79l-2 -12 q-7 -69 -77 -69h-247q-224 -325 -349 -624q-23 -53 -89 -53h-48z" glyph-name="seven" unicode="7"/><glyph d="M562 -26q-237 0 -354.5 105t-90.5 295q37 257 295 339l4 25q-160 69 -133 266q20 156 140 244t316 88q199 0 299.5 -91t78.5 -249q-26 -189 -205 -258l-4 -25q234 -83 197 -344q-28 -187 -169 -291t-374 -104zM315 393q-16 -121 59 -181.5t212 -60.5q136 0 222.5 59.5 t102.5 178.5q16 122 -56 183.5t-208 61.5q-135 0 -225 -60.5t-107 -180.5zM468 977q-12 -93 43 -143t162.5 -50t173 49t78.5 139q13 95 -42.5 144.5t-163 49.5t-173 -48t-78.5 -141z" glyph-name="eight" unicode="8"/><glyph d="M700 1037q228 0 346 -133t91 -344q-17 -129 -94 -262.5t-224 -289.5l-248 -262q-42 -45 -100 -45h-80q-43 0 -49 26t25 56l329 339q-75 -23 -156 -23q-190 0 -297 109.5t-107 294.5q0 232 158.5 383t405.5 151zM334 518q0 -120 68.5 -183.5t194.5 -63.5q160 0 254 94.5 t94 241.5q0 121 -67.5 185.5t-194.5 64.5q-158 0 -253.5 -96t-95.5 -243z" glyph-name="nine" unicode="9"/><glyph d="M582 -28q-81 0 -137.5 56.5t-56.5 138.5q0 81 56 137t138 56t137.5 -56t55.5 -137q0 -82 -56 -138.5t-137 -56.5zM486 861q0 81 56 137.5t138 56.5t137.5 -56.5t55.5 -137.5q0 -82 -56 -138t-137 -56t-137.5 56t-56.5 138z" glyph-name="colon" unicode=":"/><glyph d="M681 -26q-35 0 -55 20.5t-16 54.5l14 98q7 51 -17.5 79.5t-79.5 28.5h-86q-37 0 -55.5 20t-13.5 55l4 27q4 34 28.5 53.5t60.5 19.5h162q109 0 159.5 -58t33.5 -171l-21 -152q-4 -34 -30 -54.5t-61 -20.5h-27zM508 861q0 81 56.5 137.5t137 56.5t137 -56.5t56.5 -137.5 q0 -82 -56.5 -138t-137 -56t-137 56t-56.5 138z" glyph-name="semicolon" unicode=";"/><glyph d="M236 581q-20 12 -18 35l18 122q3 24 27 36l786 433q26 15 38 -10l49 -105q12 -27 -18 -42l-701 -377l592 -376q24 -14 6 -42l-71 -97q-18 -27 -43 -12z" glyph-name="less" unicode="&lt;"/><glyph d="M190 378q-65 0 -56 62l4 36q9 62 75 63h843q65 0 56 -63l-5 -36q-8 -62 -74 -62h-843zM196 877l4 35q9 62 74 63h843q65 0 57 -63l-6 -35q-8 -62 -73 -63h-843q-64 1 -56 63z" glyph-name="equal" unicode="="/><glyph d="M1072 763q20 -12 18 -36l-18 -122q-3 -24 -28 -36l-785 -433q-26 -15 -39 10l-48 106q-12 27 17 42l702 377l-592 376q-24 14 -6 42l71 97q18 27 43 11z" glyph-name="greater" unicode=">"/><glyph d="M572 419q-86 0 -75 83q8 65 31.5 114t56.5 77.5t73 52t81 37t81 30t72 34.5t54.5 50t28.5 74q12 83 -50.5 129.5t-200.5 46.5q-269 0 -310 -189q-18 -85 -99 -85q-109 0 -92 123q22 156 151.5 245.5t353.5 89.5q229 0 348 -94.5t94 -267.5q-10 -70 -39 -121.5t-69 -82 t-86 -53.5t-91.5 -43t-85 -42.5t-68.5 -59.5t-38 -87q-12 -61 -86 -61h-35zM374 158q0 78 53 131t131 53t131 -53t53 -131t-53 -132t-131 -54t-131 54t-53 132z" glyph-name="question" unicode="?"/><glyph d="M634 -26q-309 0 -437 116.5t-92 380.5l52 364q38 263 178.5 379.5t415.5 116.5q269 0 375.5 -113.5t68.5 -382.5l-36 -257q-11 -76 -40 -128t-76 -79t-99.5 -37.5t-122.5 -10.5q-45 0 -80.5 4.5t-69.5 15t-55 29t-38 46.5t-19 67.5t3 92.5l21 149q16 118 80.5 176.5 t186.5 58.5h178q-4 121 -67.5 162.5t-212.5 41.5q-99 0 -167.5 -14.5t-121.5 -53.5t-84.5 -107.5t-45.5 -173.5l-47 -329q-6 -44 -7 -81t4.5 -68t15 -56.5t25.5 -45t35 -35t44.5 -26t52.5 -17.5t62 -11.5t69.5 -6.5t78.5 -2q113 0 202 12q51 5 77.5 -10.5t21.5 -51.5 q-13 -84 -107 -98q-109 -17 -222 -17zM736 586q-8 -56 15.5 -81.5t90.5 -25.5q68 0 101.5 26t41.5 81l33 231l1 4h-128q-66 0 -96.5 -27t-39.5 -84z" glyph-name="at" unicode="@"/><glyph d="M93 0q-45 0 -65.5 29t-3.5 69l369 902q54 134 96 199t88.5 88.5t120.5 23.5h29q62 0 98.5 -13t64.5 -54t43.5 -106t31.5 -181l53 -388l41 11q63 15 96.5 -22.5t15 -86.5t-79.5 -63l-49 -13l42 -307q5 -42 -14.5 -65t-61.5 -23h-31q-77 0 -88 77l-37 272l-69 -16 q-278 -67 -396.5 -119.5t-155.5 -145.5v-1q-26 -67 -99 -67h-39zM339 342q57 54 149 87.5t278 77.5l62 15l-44 321q-16 127 -28.5 183t-25 72.5t-37.5 16.5q-22 0 -36.5 -12.5t-39.5 -63t-65 -153.5z" glyph-name="A" unicode="A"/><glyph d="M725 -5q-82 0 -151.5 20.5t-100.5 52.5q-30 29 -40 53.5t-5 56.5q6 40 28 49.5t60 -9.5q76 -33 171 -33q224 0 224 204q0 101 -60 150.5t-196 49.5h-248l-70 -514q-9 -75 -86 -75h-47q-40 0 -60.5 20.5t-15.5 56.5l138 1018q14 109 70.5 162.5t175.5 53.5h226 q99 0 172.5 -24t114 -66.5t59.5 -94.5t19 -114q0 -117 -62 -199.5t-169 -111.5l-3 -20q252 -42 252 -312q0 -97 -32.5 -171.5t-89 -117.5t-125.5 -64t-149 -21zM431 768h205q127 0 194.5 51.5t67.5 148.5q0 81 -49.5 116.5t-156.5 35.5h-153q-59 0 -69 -59z" glyph-name="B" unicode="B"/><glyph d="M696 -26q-267 0 -411.5 149.5t-144.5 443.5q0 81 11.5 159.5t35.5 155t60 144t87.5 124.5t115 98.5t146 64.5t176.5 23q196 0 307 -94t86 -279q-8 -59 -31.5 -84.5t-64.5 -25.5h-35q-39 0 -59 19.5t-14 57.5q8 54 -6.5 95t-46 64t-72 34.5t-88.5 11.5q-85 0 -154.5 -34.5 t-114 -90t-74.5 -128.5t-43 -148t-13 -151q0 -417 401 -417q112 0 225 27q32 7 47 -10.5t11 -52.5l-6 -39q-4 -31 -37 -55t-82.5 -36.5t-103.5 -19t-108 -6.5z" glyph-name="C" unicode="C"/><glyph d="M238 0q-46 0 -69 25t-15 71l101 725q14 99 60.5 156.5t120.5 57.5q30 0 42 -10t10 -32l-110 -803h67q111 0 199.5 32.5t146 86t95.5 128.5t53.5 156.5t15.5 172.5q0 87 -16 149.5t-55.5 110t-110.5 71t-173 23.5h-357q-51 0 -75.5 26t-17.5 74q12 91 105 91h402 q136 0 236 -39t158.5 -112.5t86 -168.5t27.5 -216q0 -120 -25 -229.5t-82.5 -209.5t-142 -174t-212.5 -118t-285 -44h-180z" glyph-name="D" unicode="D"/><glyph d="M636 -26q-220 0 -340.5 106t-120.5 280q0 160 95 266.5t235 132.5q-67 33 -103.5 95t-36.5 143q0 154 125 246.5t337 92.5q81 0 144 -13.5t105.5 -48.5t42.5 -88q0 -27 -6.5 -61t-20.5 -72t-41 -63t-62 -25q-24 0 -41 10t-17 32q0 13 4.5 37t4.5 41q0 41 -31 57t-90 16 q-120 0 -186.5 -48.5t-66.5 -132.5q0 -71 49 -116t148 -50q45 -3 66 -26t17 -61q-6 -82 -100 -82q-174 0 -264 -66t-90 -183q0 -106 73.5 -165.5t219.5 -59.5q150 0 309 53q39 12 60 -6t20 -56q0 -70 -78 -110q-57 -30 -156 -52.5t-204 -22.5z" glyph-name="E" unicode="E"/><glyph d="M483 475q-47 0 -69 24t-17 68q11 84 99 84h206l81 441q5 29 -25 28h-322q-48 0 -67.5 -14.5t-15.5 -44.5q7 -49 -16 -72t-63 -23q-62 0 -98 50t-36 116q0 74 48.5 126.5t150.5 52.5h489q74 0 142 10t83 10q50 0 78.5 -29t28.5 -75q0 -34 -16.5 -55.5t-41.5 -34t-51 -25 t-48 -38.5t-29 -66l-65 -357h172q47 0 70 -23.5t17 -67.5q-12 -85 -98 -85h-192l-71 -393q-14 -82 -87 -82h-46q-41 0 -62 22.5t-13 65.5l71 387h-187z" glyph-name="F" unicode="F"/><glyph d="M654 -26q-115 0 -207.5 34t-162.5 102t-108.5 179.5t-38.5 259.5q0 119 24.5 230t79.5 213.5t135 178t199.5 120.5t266.5 45q56 0 110.5 -6t103 -19t76.5 -36t24 -53l-5 -41q-4 -32 -26 -48t-56 -11q-127 20 -211 21q-114 0 -204 -36t-146.5 -94t-94 -136.5t-52.5 -157.5 t-15 -164q0 -390 335 -390q105 0 166.5 44.5t77.5 156.5l25 180h-221q-66 0 -56 65l6 40q8 63 74 64h341q65 0 55 -66l-47 -341q-10 -75 -41.5 -133.5t-74 -95.5t-99 -61t-113.5 -34t-120 -10z" glyph-name="G" unicode="G"/><glyph d="M902 0q-41 0 -60.5 22.5t-14.5 63.5l51 359h-471l-53 -372q-10 -75 -86 -75h-48q-41 0 -60.5 22.5t-14.5 63.5l52 361h-45q-42 0 -61.5 22t-14.5 63l5 32q11 74 86 74h56l84 598q10 75 86 75h47q42 0 61.5 -22.5t13.5 -63.5l-82 -587h472l84 600q10 75 86 75h47 q42 0 61.5 -22.5t14.5 -63.5l-163 -1150q-10 -75 -85 -75h-48z" glyph-name="H" unicode="H"/><glyph d="M484 -26q-41 0 -78.5 5.5t-78 18t-64.5 40t-24 65.5q0 37 22.5 62.5t72.5 25.5q19 0 71.5 -9.5t84.5 -9.5q48 0 87.5 13.5t71.5 48t55.5 68.5t45 101t35.5 116.5t31 145t26 157.5t25 179l5 37q8 61 -11 84t-83 23q-130 0 -241.5 -73t-161.5 -198q-17 -40 -39.5 -61.5 t-64.5 -21.5t-65.5 25.5t-23.5 73.5q0 68 46.5 145.5t125 144.5t197 111.5t248.5 44.5h42q81 0 133.5 -21t78 -61t32 -98t-5.5 -134l-5 -37q-20 -152 -40 -265.5t-48 -223.5t-59.5 -187.5t-74.5 -144t-96.5 -106.5t-121 -62t-150.5 -22z" glyph-name="I" unicode="I"/><glyph d="M504 -26q-183 0 -288 90t-105 252q0 61 14.5 114.5t56 108t107 93t175.5 62.5t254 24q48 0 112 -3l58 415h-102q-122 0 -183.5 -32t-62.5 -121q0 -22 -1.5 -33t-8 -29t-23.5 -26.5t-43 -8.5q-55 0 -85 38.5t-30 102.5q0 124 101 207t299 83h256q48 0 78 -34.5t23 -82.5 l-69 -500q22 -3 76 -11q51 -8 76.5 -34.5t19.5 -67.5q-5 -43 -35.5 -65t-77.5 -13q-55 10 -83 14l-9 -66q-31 -223 -156.5 -350t-343.5 -127zM318 334q0 -83 54 -123.5t145 -40.5q132 0 196.5 82t86.5 238l7 51q-52 4 -112 4q-377 0 -377 -211z" glyph-name="J" unicode="J"/><glyph d="M1147 1311q46 0 56.5 -31.5t-24.5 -68.5q-281 -275 -470 -511l360 -604q25 -41 9 -68.5t-64 -27.5h-55q-63 0 -97 55l-182 303q-72 120 -95 184q-166 -233 -283 -467q-19 -38 -40 -56.5t-59 -18.5h-27q-44 0 -65.5 27.5t-15.5 72.5l158 1136q10 75 86 75h47 q40 0 60.5 -20.5t15.5 -56.5l-110 -780q93 194 268.5 418.5t341.5 378.5q62 59 129 60h56z" glyph-name="K" unicode="K"/><glyph d="M905 -27q-82 0 -246.5 51.5t-240.5 51.5q-59 0 -108.5 -20.5t-85.5 -40.5t-61 -20q-33 0 -55.5 19t-22.5 55q0 35 25 66.5t54 67.5t35 77l85 600q34 241 147 348.5t307 107.5q162 0 252.5 -68.5t90.5 -180.5q0 -63 -29.5 -102t-84.5 -39q-45 0 -70.5 26.5t-27.5 70.5 q-2 43 -34.5 70.5t-103.5 27.5q-68 0 -114 -31t-82 -115t-57 -229l-62 -448q-7 -45 -24 -76q33 11 81 11q91 0 228 -45t220 -45q37 0 69.5 6.5t39.5 6.5q26 0 41 -19t15 -54q0 -62 -49 -96t-132 -34z" glyph-name="L" unicode="L"/><glyph d="M1027 -26q-77 0 -113 57.5t-22 156.5l104 725q16 115 5.5 166t-55.5 51q-77 0 -136 -159.5t-112 -526.5l-53 -369q-11 -75 -82 -75h-25q-39 0 -58 22.5t-13 63.5l118 827q16 115 1.5 166t-62.5 51q-79 0 -131 -154t-106 -536l-53 -365q-11 -75 -87 -75h-35 q-40 0 -59 22.5t-13 63.5l163 1150q9 75 84 75h18q79 0 71 -86l-22 -202q46 172 109 241t140 69q169 0 166 -310q89 310 270 310q101 0 145.5 -89t20.5 -253l-109 -753q-9 -58 -1 -81t35 -16q17 4 23.5 -12t2.5 -45q-7 -46 -38 -78t-91 -32z" glyph-name="M" unicode="M"/><glyph d="M871 0q-32 0 -52.5 14.5t-41.5 44.5q-108 156 -203.5 366.5t-148.5 428.5l-110 -779q-10 -75 -86 -75h-47q-41 0 -61 22.5t-15 63.5l163 1150q10 75 85 75h101q33 0 57 -14t24 -42q0 -227 88.5 -499t222.5 -509l139 989q10 75 86 75h47q41 0 61 -22.5t15 -63.5 l-163 -1150q-10 -75 -85 -75h-76z" glyph-name="N" unicode="N"/><glyph d="M567 -26q-239 0 -356 172.5t-70 515.5q47 338 201.5 506t391.5 168q117 0 205 -41t147.5 -125.5t78.5 -214t-5 -307.5q-47 -337 -201 -505.5t-392 -168.5zM347 662q-17 -113 -10 -196t26.5 -139t56.5 -89t79 -47.5t94 -14.5q298 0 361 472q17 113 10.5 196.5t-25 138.5 t-55.5 89t-79.5 48.5t-94.5 14.5q-298 0 -363 -473z" glyph-name="O" unicode="O"/><glyph d="M241 1q-39 0 -59.5 20.5t-16.5 57.5l94 680q24 171 59 252t105 109h-180q-51 0 -75.5 26t-17.5 74q12 91 105 91h451q247 0 364 -102.5t117 -287.5q0 -101 -34 -186.5t-100 -149.5t-171.5 -99.5t-240.5 -35.5h-215l-51 -374q-10 -75 -86 -75h-48zM452 630h137 q111 0 189 19.5t122 56.5t63.5 85t19.5 110q0 123 -77.5 171t-245.5 48h-105q-22 -26 -35.5 -65.5t-18 -66t-13.5 -87.5z" glyph-name="P" unicode="P"/><glyph d="M422 -9q-69 7 -127.5 52.5t-102.5 129t-57.5 206t6.5 283.5q47 338 201.5 506t391.5 168q117 0 205 -41t147.5 -125.5t78.5 -214t-5 -307.5q-46 -335 -203 -507l52 -87q18 -33 2.5 -56.5t-56.5 -23.5h-63q-48 0 -72 40l-241 414q-19 33 -4 56.5t55 23.5h66q49 0 72 -40 l84 -144q73 113 102 324q17 113 10.5 196.5t-25 138.5t-55.5 89t-79.5 48.5t-94.5 14.5q-298 0 -363 -473q-13 -119 -9.5 -200t30 -138.5t61.5 -89t84 -51.5q5 -2 15.5 -6.5t15 -6.5t12.5 -6.5t11.5 -8t8.5 -10t6 -12.5t1 -14t-2 -19q-11 -49 -49 -83t-110 -26z" glyph-name="Q" unicode="Q"/><glyph d="M138 0q-46 0 -69.5 30t-16.5 86l58 442q23 170 66.5 303t101.5 221t132.5 146t155.5 83t174 25q191 0 295 -99t104 -258q0 -170 -118.5 -288t-322.5 -149l357 -454q35 -46 13.5 -85t-78.5 -39h-8q-46 0 -72 18.5t-52 55.5l-387 515q-23 32 -19 69q7 66 93 73 q201 16 296 82t95 184q0 97 -56.5 141t-146.5 44q-343 0 -424 -651l-48 -393q-7 -53 -30 -77.5t-66 -24.5h-27z" glyph-name="R" unicode="R"/><glyph d="M579 -26q-208 0 -345 64t-137 149q0 49 41.5 73t90.5 -2q169 -97 365 -97q120 0 184.5 39.5t64.5 115.5q0 48 -29.5 92.5t-76 81t-103 74t-113 79.5t-103 89t-76 112t-29.5 140q0 163 118.5 257.5t292.5 94.5q110 0 202.5 -37.5t150.5 -113.5t58 -174q0 -142 -118 -143 q-41 0 -57 17.5t-16 49.5q0 101 -57 157.5t-165 56.5q-95 0 -151.5 -43t-56.5 -121q0 -53 29.5 -101t78 -86.5t105.5 -76.5t115 -80t106 -88t78 -110t30 -137q0 -159 -123 -245.5t-354 -86.5z" glyph-name="S" unicode="S"/><glyph d="M674 0q-41 0 -62 22.5t-13 65.5l184 1004q5 29 -25 28h-322q-48 0 -67.5 -14.5t-15.5 -44.5q7 -49 -16 -72t-63 -23q-62 0 -98 50t-36 116q0 74 48.5 126.5t150.5 52.5h489q74 0 142 10t83 10q50 0 78.5 -29t28.5 -75q0 -34 -16.5 -55.5t-41.5 -34t-51 -25t-48 -38.5 t-29 -66l-167 -926q-14 -82 -87 -82h-46z" glyph-name="T" unicode="T"/><glyph d="M513 -26q-200 0 -300.5 121.5t-69.5 347.5l111 793q10 75 86 75h47q41 0 61 -22.5t15 -63.5l-107 -763q-19 -138 33.5 -212t170.5 -74q117 0 187.5 73.5t91.5 212.5l107 774q10 75 86 75h47q42 0 61.5 -22.5t13.5 -63.5l-131 -938q-9 -68 9.5 -102t63.5 -32 q26 2 38.5 -13t12.5 -43q0 -49 -36 -80t-88 -31q-67 0 -108.5 47.5t-36.5 127.5q-122 -187 -365 -187z" glyph-name="U" unicode="U"/><glyph d="M453 0q-81 0 -91 77l-135 1123q-5 48 17.5 77.5t70.5 35.5q99 12 112 -89l121 -997q1 -14 16 -14h5q115 70 220 237t158 379t19 384q-20 97 84 98q100 0 120 -111q28 -137 -3.5 -312t-103.5 -334.5t-175.5 -295t-211.5 -202.5q-93 -56 -155 -56h-68z" glyph-name="V" unicode="V"/><glyph d="M274 -25q-109 0 -160 90t-26 252l135 918q10 74 87 74h36q40 0 59 -22.5t13 -63.5l-119 -828q-16 -115 -4 -165.5t57 -50.5q77 0 137.5 161t111.5 524l7 54q11 75 83 74h25q39 0 57.5 -22.5t12.5 -63.5l-72 -511q-16 -115 -2 -165.5t64 -50.5q47 0 91 58.5t78 161.5 t54.5 255.5t20.5 327.5q0 146 -18 231q-10 51 14.5 74.5t69.5 23.5q50 0 78 -27t41 -81q14 -69 15 -197q0 -117 -10 -232.5t-30.5 -233t-56.5 -218t-83 -178.5t-114.5 -123.5t-148.5 -45.5q-100 0 -154.5 67.5t-51.5 223.5q-24 -83 -59.5 -143t-76.5 -90.5t-80.5 -44 t-80.5 -13.5z" glyph-name="W" unicode="W"/><glyph d="M941 0q-50 0 -72 43l-235 451l-356 -451q-33 -43 -84 -43h-96q-39 0 -48 23t18 56l471 596l-292 557q-16 34 -1 56.5t54 22.5h78q50 0 72 -43l222 -425l336 425q33 43 84 43h93q39 0 48.5 -23t-16.5 -56l-450 -569l305 -584q16 -34 0.5 -56.5t-55.5 -22.5h-76z" glyph-name="X" unicode="X"/><glyph d="M511 -26q-98 0 -179 18t-124 42q-32 18 -42.5 53t2.5 67q13 33 44 45t61 2q110 -40 233 -40q73 0 134 14.5t116 47t92 92t49 142.5l38 259q-76 -143 -183 -215.5t-231 -72.5q-152 0 -227.5 101.5t-43.5 280.5l74 426q12 75 86 75h44q40 0 61.5 -20.5t13.5 -56.5l-66 -380 q-20 -121 16.5 -184t119.5 -63q140 0 254.5 169.5t151.5 438.5q13 95 112 96q51 0 78 -25t19 -75l-111 -785q-15 -103 -59 -184t-102 -130.5t-133.5 -81t-147.5 -44t-150 -12.5z" glyph-name="Y" unicode="Y"/><glyph d="M886 -41q-63 0 -149 25.5t-177 51t-169 25.5q-46 0 -90.5 -10.5t-64.5 -19t-60 -28.5q-42 -23 -71 -8.5t-23 60.5l3 29q8 62 45 104l817 932h-606q-41 0 -60.5 23t-14.5 64l4 29q9 75 86 75h761q41 0 61 -22.5t15 -63.5l-7 -50q-7 -54 -44 -95l-759 -862q43 14 99 14 q79 0 221.5 -45t220.5 -45q40 0 75.5 8.5t39.5 8.5q31 0 23 -38l-10 -51q-24 -111 -166 -111z" glyph-name="Z" unicode="Z"/><glyph d="M318 -218q-101 0 -88 101l225 1588q14 102 115 103h451q72 0 60 -69l-5 -37q-9 -68 -80 -67h-302q-44 0 -52 -46l-191 -1355q-6 -45 39 -45h304q71 0 59 -69l-5 -37q-9 -68 -79 -67h-451z" glyph-name="bracketleft" unicode="["/><glyph d="M842 0q-49 0 -69 49l-435 1185q-12 33 3.5 55t53.5 22h66q50 0 69 -49l434 -1185q12 -34 -3.5 -55.5t-53.5 -21.5h-65z" glyph-name="backslash" unicode="\"/><glyph d="M288 -218q-71 0 -62 67l6 37q11 69 80 69h303q45 0 52 45l191 1355q3 22 -7.5 34t-32.5 12h-302q-71 0 -61 67l6 37q9 69 79 69h450q102 0 88 -103l-223 -1588q-15 -101 -117 -101h-450z" glyph-name="bracketright" unicode="]"/><glyph d="M240 472q-44 0 -57 28t12 70l401 684q33 56 97 57h87q71 0 92 -69l208 -678q12 -43 -4 -67.5t-59 -24.5h-36q-72 0 -91 69l-177 576l-333 -589q-31 -56 -101 -56h-39z" glyph-name="asciicircum" unicode="^"/><glyph d="M123 -170q-48 0 -71 22t-17 63q10 85 98 85h837q48 0 71 -22t18 -63q-12 -85 -100 -85h-836z" glyph-name="underscore" unicode="_"/><glyph d="M810 1210q-58 0 -91 56l-121 198q-15 28 -3.5 46t43.5 18h55q59 0 91 -54l120 -200q16 -27 4.5 -45.5t-43.5 -18.5h-55z" glyph-name="grave" unicode="`"/><glyph d="M456 -26q-142 0 -230 102.5t-88 303.5q0 127 37.5 242.5t109 209.5t187.5 149t260 55q99 0 184.5 -24t135 -67t41.5 -94q-7 -45 -49 -60.5t-95 9.5q-108 51 -230 51q-91 0 -165.5 -36.5t-120.5 -98.5t-70.5 -139.5t-24.5 -163.5q0 -134 51.5 -194.5t127.5 -60.5 q49 0 95.5 25.5t83.5 66t71.5 96.5t58.5 111t46 116q20 53 48.5 78t72.5 25q50 0 74 -34t15 -93l-40 -299q-5 -41 -6.5 -73t0 -62t1.5 -35q0 -42 -16.5 -61t-62.5 -19q-58 0 -89.5 42t-19.5 154l10 97q-152 -319 -403 -319z" glyph-name="a" unicode="a"/><glyph d="M475 -26q-85 0 -166 18t-133 53q-54 34 -44 106l155 1085q11 75 86 75h41q41 0 61 -22.5t13 -63.5l-42 -285q142 96 311 96q170 0 266 -100t96 -297q0 -133 -45 -253t-126 -211.5t-204 -146t-269 -54.5zM336 202q59 -44 171 -44q186 0 301 131.5t115 325.5 q0 125 -53.5 181t-154.5 56q-164 0 -299 -113z" glyph-name="b" unicode="b"/><glyph d="M687 -26q-229 0 -376.5 125.5t-147.5 353.5q0 109 35.5 211t104 186t179 135t247.5 51q77 0 142 -17t117.5 -50.5t82.5 -91.5t30 -134q0 -74 -28.5 -123.5t-90.5 -49.5q-40 0 -64.5 20.5t-24.5 54.5q0 13 6.5 35t6.5 41q0 65 -53.5 96t-139.5 31q-90 0 -161 -35.5 t-111 -92.5t-60 -121.5t-20 -131.5q0 -157 102.5 -238t262.5 -81q103 0 233 46q36 13 56 -2.5t15 -49.5l-6 -38q-9 -54 -57 -75q-128 -55 -280 -55z" glyph-name="c" unicode="c"/><glyph d="M458 -26q-156 0 -246 100.5t-90 291.5q0 179 74.5 331.5t215.5 245.5t318 93q151 0 216 -48l35 248q9 75 86 75h35q41 0 60.5 -22.5t14.5 -63.5l-138 -975q-6 -41 -7 -73t0.5 -60t1.5 -31q0 -46 -17 -66t-63 -20q-66 0 -99 47.5t-16 171.5l75 535q6 45 -47.5 72 t-136.5 27q-122 0 -216.5 -62.5t-144.5 -165t-50 -224.5q0 -245 221 -244q36 0 71 7t47.5 11.5t39.5 17.5q26 12 33.5 8.5t2.5 -33.5l-5 -41q-8 -51 -53 -87q-88 -66 -218 -66z" glyph-name="d" unicode="d"/><glyph d="M645 -26q-236 0 -365 125t-129 334q0 162 76.5 300t212 220.5t298.5 82.5q159 0 245 -74.5t86 -182.5q0 -58 -26 -113.5t-80.5 -110t-150 -104.5t-223.5 -87q-125 -37 -151 38q-10 34 5.5 61t54.5 37q198 51 290 116t92 135q0 47 -40.5 79.5t-119.5 32.5 q-69 0 -136.5 -29t-121.5 -81t-87.5 -131.5t-33.5 -172.5q0 -141 81 -223t249 -82q147 0 268 67q75 40 110 -14q20 -30 11 -62.5t-49 -57.5q-155 -103 -366 -103z" glyph-name="e" unicode="e"/><glyph d="M564 -285q-175 0 -259.5 108t-57.5 277l55 350q4 23 13 72.5t13 73.5q-47 1 -73 26t-21 71q8 76 89 76h41q40 174 85.5 294t94.5 183t95 88.5t99 25.5q60 0 89 -27.5t29 -68.5q0 -36 -22 -66t-62 -42q-56 -12 -105.5 -98.5t-98.5 -288.5h478q39 0 58 -22t13 -60l-3 -20 q-11 -71 -83 -71h-350q117 -85 193.5 -215.5t76.5 -277.5q0 -175 -107.5 -281.5t-279.5 -106.5zM442 74q-14 -85 20.5 -134t108.5 -50q83 -1 138.5 57.5t55.5 157.5q0 117 -73.5 229.5t-175.5 188.5q-17 -90 -35 -204z" glyph-name="f" unicode="f"/><glyph d="M509 -219q-174 0 -297 53q-34 15 -46.5 45t1.5 67q14 32 44.5 42.5t63.5 -0.5q116 -36 232 -36q140 0 226 62t108 209l22 156q-71 -116 -161 -165.5t-202 -49.5q-161 0 -250.5 88t-89.5 260q0 104 34 197.5t100 167t172.5 116.5t241.5 43q160 0 278.5 -53.5t106.5 -128.5 q-7 -45 -50 -60.5t-93 6.5q-125 53 -256 53q-159 0 -248 -90t-89 -224q0 -105 54 -155t144 -50q210 0 327 264q35 78 107 78q52 0 77 -34t16 -93l-50 -356q-13 -92 -48 -164t-84 -118t-113.5 -76t-132.5 -42t-145 -12z" glyph-name="g" unicode="g"/><glyph d="M186 0q-41 0 -60.5 22.5t-13.5 63.5l161 1150q11 75 86 75h44q41 0 60.5 -22.5t14.5 -63.5l-109 -757l32 55q164 283 281 398.5t238 115.5q116 0 168.5 -83t28.5 -223l-80 -481q-5 -32 -7.5 -61t-3 -43.5t0 -35.5t0.5 -24q0 -46 -18.5 -66t-64.5 -20q-156 0 -119 219 l66 389q9 56 13 91.5t2 69t-15 49t-38 15.5q-47 0 -106.5 -56t-137.5 -182t-121.5 -203.5t-130.5 -241.5q-27 -50 -40 -75q-22 -41 -41.5 -58t-53.5 -17h-36z" glyph-name="h" unicode="h"/><glyph d="M691.5 1184q-59.5 0 -100.5 41t-41 100t41 100t100.5 41t100.5 -41t41 -100t-41 -100t-100.5 -41zM190 911q11 82 89 82h262q103 0 152 -57.5t33 -160.5l-60 -371q-9 -76 -2 -124t36 -75.5t61 -37.5t72 -10q82 0 180 52q37 17 64.5 11t42.5 -34q15 -26 9.5 -57.5 t-28.5 -51.5q-48 -43 -127.5 -73t-175.5 -30q-49 0 -94 8.5t-89 28t-76 50.5t-56 76.5t-29 107t6 141.5l54 338q8 51 -11 74t-70 23h-168q-40 0 -61 23.5t-14 66.5z" glyph-name="i" unicode="i"/><glyph d="M419 -134q-145 0 -253 51q-34 16 -50 48.5t-1 66.5q13 32 42 43t64 0q108 -37 195 -37q53 0 98 14t87 46t71 92.5t42 145.5l54 388q8 52 -11 74.5t-71 22.5h-204q-40 0 -61 23.5t-13 66.5q11 82 88 82h298q102 0 150 -57.5t34 -160.5l-63 -452q-14 -104 -51 -186 t-85 -132t-110.5 -82.5t-122.5 -44.5t-127 -12zM801 1325q0 59 41 100t99 41q59 0 100 -41t41 -100t-41 -100t-100 -41q-58 0 -99 41t-41 100z" glyph-name="j" unicode="j"/><glyph d="M892 -26q-161 0 -273 108.5t-136 295.5q-13 100 110 126q122 23 204.5 88.5t82.5 152.5q0 50 -29.5 77.5t-86.5 27.5q-59 0 -121.5 -29t-119 -83.5t-99.5 -145t-58 -202.5l-45 -315q-9 -75 -87 -75h-39q-41 0 -60.5 22.5t-14.5 63.5l162 1150q11 75 86 75h40 q41 0 60.5 -22.5t14.5 -63.5l-59 -418q73 106 173.5 161.5t218.5 55.5q126 0 194 -61t68 -169q0 -151 -122.5 -268.5t-292.5 -143.5q20 -104 87 -167t168 -63q48 0 119 25q27 8 51 -5.5t34 -42.5q20 -58 -49.5 -106.5t-180.5 -48.5z" glyph-name="k" unicode="k"/><glyph d="M665 -26q-57 0 -109 11.5t-100.5 39.5t-81.5 70t-49 108.5t-7 150.5l-129 -41q-48 -15 -78.5 5t-25.5 58l2 19q5 39 24.5 61.5t60.5 35.5l175 51l34 222q22 139 60.5 245.5t84.5 171.5t104 106t113 56.5t116 15.5q257 0 257 -279q0 -67 -13 -128.5t-52 -137 t-101.5 -141.5t-170.5 -133t-251 -119l-4 -28q-11 -69 0.5 -119t39.5 -76.5t62 -39t75 -12.5q82 0 189 61q34 18 64 14t47 -32q17 -25 12 -56t-34 -54q-50 -42 -132.5 -74t-181.5 -32zM559 615q110 46 185.5 100t114 110.5t54 108t15.5 109.5q0 67 -21 100.5t-77 33.5 q-40 0 -74 -20.5t-68 -69t-62 -140.5t-49 -225z" glyph-name="l" unicode="l"/><glyph d="M125 0q-40 0 -59 22.5t-13 63.5l121 853q9 75 84 75h15q40 0 58.5 -22.5t12.5 -63.5l-42 -268q37 120 73 198t70.5 115.5t63.5 50t65 12.5q33 0 57.5 -8.5t50 -32t37.5 -65.5t18 -108.5t-6 -161.5q39 119 78.5 198t77.5 115.5t68.5 49.5t67.5 13q108 0 146 -94t8 -293 l-60 -384q-12 -78 -12 -179q0 -45 -17.5 -65.5t-59.5 -20.5q-137 0 -103 219l60 389q36 239 -51 239q-45 0 -91 -83t-81.5 -211t-60 -249.5t-39.5 -228.5q-9 -75 -82 -75h-18q-39 0 -57.5 22.5t-12.5 63.5l75 522q33 239 -59 239q-45 0 -89.5 -82.5t-79.5 -212.5 t-59.5 -247.5t-40.5 -229.5q-11 -75 -87 -75h-27z" glyph-name="m" unicode="m"/><glyph d="M186 0q-41 0 -60.5 22.5t-13.5 63.5l119 853q11 75 86 75h44q42 0 61.5 -22.5t13.5 -63.5l-67 -468l26 49q163 291 282.5 409.5t242.5 118.5q116 0 168.5 -83t28.5 -223l-80 -481q-5 -32 -7.5 -61t-3 -43.5t0 -35.5t0.5 -24q0 -46 -18.5 -66t-64.5 -20q-156 0 -119 219 l66 389q9 56 13 91.5t2 69t-15 49t-38 15.5q-48 0 -108 -57.5t-139.5 -185.5t-123.5 -207t-131 -245q-23 -43 -34 -63q-22 -41 -41.5 -58t-53.5 -17h-36z" glyph-name="n" unicode="n"/><glyph d="M606 -26q-215 0 -344.5 137.5t-129.5 361.5q0 244 147 403.5t372 159.5q69 0 125.5 -14t90.5 -48.5t23 -82.5q-7 -33 -29 -45.5t-45 -11.5t-70.5 6.5t-77.5 5.5q-153 0 -245 -101t-92 -264q0 -152 80.5 -235t205.5 -83q134 0 221 90t87 209q0 48 -17 81.5t-34 58 t-17 50.5q0 42 29 65.5t70 23.5q71 0 117 -76t46 -191q0 -99 -37.5 -190t-103 -160t-162.5 -109.5t-210 -40.5z" glyph-name="o" unicode="o"/><glyph d="M648 51q-85 0 -146.5 27.5t-61.5 87.5q0 35 21.5 57t55.5 22q16 0 49 -15t73 -15q133 0 222.5 115t89.5 287q0 122 -49 179t-127 57q-98 0 -192 -86.5t-152 -207t-76 -237.5l-58 -411q-9 -75 -86 -75h-40q-41 0 -61 22.5t-14 63.5l146 1017q11 75 86 75h40q41 0 61 -22.5 t13 -63.5l-30 -213q175 322 434 321q143 0 222.5 -96.5t79.5 -280.5q0 -169 -61.5 -307t-177 -219.5t-261.5 -81.5z" glyph-name="p" unicode="p"/><glyph d="M869 -164q-41 0 -60 22.5t-14 63.5l58 409q-74 -127 -187 -186t-234 -59q-150 0 -231 88.5t-81 256.5q0 120 42.5 229t120.5 193t197.5 133.5t263.5 49.5q103 0 192 -24t139.5 -67t42.5 -94q-7 -44 -50 -59t-96 8q-126 53 -248 53q-180 0 -293.5 -113t-113.5 -270 q0 -103 51 -152t136 -49q116 0 217 88.5t159 229.5q20 47 43.5 68t63.5 21q51 0 75.5 -34t16.5 -93l-89 -638q-11 -75 -86 -75h-35z" glyph-name="q" unicode="q"/><glyph d="M956 -20q-102 0 -151 69.5t-29 192.5l88 530l-174 1q-150 1 -254 21l-65 -398q-7 -41 -34 -65.5t-69 -24.5q-48 0 -74 33.5t-17 85.5l77 439q-71 51 -71 132q0 61 37 102t98 41q53 0 90 -31t37 -76q0 -51 36.5 -65.5t149.5 -15.5h343q53 0 75 -30t15 -75l-95 -588 q-7 -48 9 -77.5t60 -29.5q18 0 25.5 -0.5t19 -5.5t16 -16.5t4.5 -32.5q0 -59 -42.5 -87.5t-104.5 -28.5z" glyph-name="r" unicode="r"/><glyph d="M633 -26q-126 0 -252 28t-205 71q-60 34 -82.5 72.5t-7.5 73.5q14 33 47 42.5t73 -6.5q232 -103 432 -103q141 0 206 50t65 129q0 43 -19 91t-47.5 94.5t-57.5 95t-53.5 108.5t-32.5 119l-199 -277q-41 -56 -97.5 -50t-74.5 53t14 102l232 310q26 35 53.5 47.5t67.5 12.5 h46q48 0 85.5 -20t37.5 -51q0 -7 -5 -24.5t-5 -33.5q0 -52 39.5 -126.5t86 -141t86 -157t39.5 -171.5q0 -67 -25.5 -124.5t-79.5 -106.5t-148 -78t-219 -29z" glyph-name="s" unicode="s"/><glyph d="M731 -26q-59 0 -111.5 12.5t-102.5 41t-80 76t-45.5 117.5t1.5 165l71 435h-254q-39 0 -58 22t-13 61l2 18q10 72 82 71h269l32 206q7 43 29 62.5t64 19.5h31q44 0 65 -24t14 -69l-32 -195h375q40 0 58.5 -22t13.5 -61l-3 -17q-9 -72 -82 -72h-389l-69 -417 q-6 -51 -5.5 -88.5t12.5 -65.5t27.5 -46t38.5 -28.5t45.5 -14.5t48.5 -4q82 0 180 52q37 17 64.5 11t43.5 -34q15 -26 9.5 -57.5t-29.5 -51.5q-48 -43 -127.5 -73t-175.5 -30z" glyph-name="t" unicode="t"/><glyph d="M340 -24q-116 0 -168.5 83t-29.5 224l80 481q5 32 7.5 61t3 43.5t0 35.5t-0.5 24q0 46 18.5 66t64.5 20q156 0 119 -219l-65 -389q-9 -56 -13.5 -91.5t-2.5 -69t15.5 -49t38.5 -15.5q47 0 105 55t134.5 177.5t120 200.5t129.5 239q31 58 46 86q22 41 42 58t53 17h36 q41 0 60.5 -22.5t14.5 -63.5l-120 -853q-11 -75 -86 -75h-44q-42 0 -61.5 22.5t-13.5 63.5l68 464l-26 -45q-168 -292 -286 -410.5t-239 -118.5z" glyph-name="u" unicode="u"/><glyph d="M371 -26q-231 0 -200 204l113 761q12 75 86 75h40q41 0 59.5 -22.5t13.5 -63.5l-106 -714q-4 -28 7.5 -41.5t39.5 -10.5q60 6 128.5 34t136.5 81t122.5 121.5t89 163.5t34.5 200q0 85 -24 158q-15 54 9 85.5t76 31.5q95 0 131 -118q18 -65 19 -156q0 -136 -47.5 -261.5 t-127.5 -220t-180 -164.5t-209 -106.5t-211 -36.5z" glyph-name="v" unicode="v"/><glyph d="M342 -26q-115 0 -183.5 83.5t-42.5 244.5l103 637q11 75 86 75h34q41 0 60.5 -22.5t13.5 -63.5l-100 -618q-23 -145 79 -145q52 0 87 36.5t44 102.5l92 628q12 82 94 82q44 0 65.5 -25t15.5 -70l-92 -618q-9 -65 9.5 -100.5t59.5 -35.5q69 0 122.5 109.5t80.5 282 t27 371.5q0 51 25.5 80t72.5 29q95 0 95 -117q0 -142 -15.5 -276.5t-48.5 -257t-80.5 -213.5t-116.5 -145t-151 -54q-75 0 -127 41t-60 120h-10q-74 -161 -239 -161z" glyph-name="w" unicode="w"/><glyph d="M130 0q-47 0 -57.5 30t25.5 69l382 412l-264 403q-25 39 -6.5 69.5t65.5 30.5h52q58 0 87 -43l203 -313l290 313q40 43 100 43h57q47 0 58 -30.5t-25 -69.5l-379 -408l266 -407q25 -39 6.5 -69t-65.5 -30h-53q-57 0 -86 43l-205 315l-293 -315q-40 -43 -101 -43h-57z" glyph-name="x" unicode="x"/><glyph d="M858 -165q-40 0 -64.5 22t-24.5 64q0 22 17 94t28 149l52 373q-187 -410 -455 -410q-128 0 -198 80t-46 227l82 505q12 75 87 75h40q41 0 62 -23t14 -63l-75 -455q-13 -80 18 -118.5t87 -38.5q74 0 154.5 76.5t139 182t98.5 205t50 156.5v3q11 75 86 75h40q42 0 61 -22.5 t13 -63.5l-122 -873q-30 -220 -144 -220z" glyph-name="y" unicode="y"/><glyph d="M921 -26q-78 0 -238.5 57t-240.5 57q-50 0 -94 -16t-68.5 -35.5t-53 -35t-52.5 -15.5q-30 0 -46.5 21.5t-11.5 55.5l4 26q8 62 55 104l704 649h-589q-40 0 -59 21.5t-13 60.5l2 17q11 73 82 73h742q45 0 67.5 -23.5t16.5 -65.5l-4 -28q-8 -59 -55 -103l-599 -553 q26 6 56 6q71 0 215 -48t225 -48q38 0 64.5 8.5t31.5 8.5q29 0 22 -30l-11 -53q-23 -111 -152 -111z" glyph-name="z" unicode="z"/><glyph d="M433 -218q-71 0 -114 44.5t-31 128.5l69 498q3 24 -15 34l-263 163q-10 6 -7 27t15 28l308 162q23 11 26 35l71 498q11 83 67 128.5t126 45.5h402q30 0 27 -31l-15 -108q-5 -31 -36 -31h-290q-33 0 -55 -19t-26 -51l-69 -497q-4 -26 -22 -33l-262 -126l226 -127 q16 -7 13 -33l-70 -498q-4 -32 12.5 -50t48.5 -18h290q30 0 27 -31l-16 -108q-1 -13 -10.5 -22t-23.5 -9h-403z" glyph-name="braceleft" unicode="{"/><glyph d="M495 -184q-65 0 -57 65l216 1538q9 66 76 66h75q65 0 56 -66l-216 -1538q-9 -66 -76 -65h-74z" glyph-name="bar" unicode="|"/><glyph d="M221 -218q-14 0 -20.5 8.5t-4.5 22.5l14 108q5 31 36 31h290q33 0 54.5 18.5t25.5 49.5l70 498q3 25 22 33l263 127l-228 126q-15 8 -12 33l71 497q4 32 -13 51t-50 19h-289q-30 0 -27 31l15 108q5 31 35 31h403q72 0 114.5 -45t30.5 -129l-70 -498q-3 -24 16 -35 l263 -162q10 -6 7.5 -27.5t-14.5 -27.5l-310 -163q-23 -12 -25 -34l-70 -498q-11 -83 -67.5 -128t-126.5 -45h-403z" glyph-name="braceright" unicode="}"/><glyph d="M800 547q-37 -18 -62.5 -17.5t-56.5 23.5l-111 83q-33 25 -76 3l-160 -77q-33 -16 -64.5 -6.5t-44.5 39.5q-11 31 4 64t47 49l232 111q69 34 120 -6l109 -82q34 -26 77 -4l162 78q32 16 64 6.5t43 -38.5q11 -32 -2.5 -64t-46.5 -49z" glyph-name="asciitilde" unicode="~"/><glyph d="M531 -321q-65 0 -102 43.5t-19 110.5l131 581q8 36 30 59t54 23h14q33 0 51.5 -23.5t17.5 -58.5l-29 -581q-2 -70 -44 -112t-104 -42zM494 853q0 77 53.5 131t130.5 54q78 0 131.5 -54t53.5 -131q0 -78 -53.5 -131.5t-131.5 -53.5q-77 0 -130.5 53.5t-53.5 131.5z" glyph-name="exclamdown" unicode="¡"/><glyph d="M418 -115q-67 13 -46 77l68 213q-120 56 -188.5 164t-68.5 260q0 109 36 211t104 186t178.5 135.5t248.5 51.5h10l57 182q19 62 88 52q67 -12 46 -78l-55 -174q103 -27 164 -95.5t61 -179.5q0 -74 -28 -123.5t-91 -49.5q-40 0 -64.5 20.5t-24.5 54.5q0 13 7 35t7 40 q0 65 -54 96t-140 31q-90 0 -160.5 -35t-110.5 -92.5t-60 -122t-20 -131.5q0 -178 135 -261l161 506q12 41 65 41q30 0 44 -15.5t7 -40.5l-170 -534q54 -14 122 -14q103 0 234 45q36 13 56 -2t15 -49l-7 -38q-9 -54 -57 -76q-128 -54 -279 -54q-76 0 -140 13l-62 -197 q-20 -65 -88 -52z" glyph-name="cent" unicode="¢"/><glyph d="M180 471q-33 0 -49 15.5t-12 42.5q9 58 68 59h56l41 292q34 241 147 348.5t307 107.5q162 0 252.5 -68.5t90.5 -180.5q0 -63 -29.5 -102t-84.5 -39q-45 0 -70.5 26.5t-27.5 70.5q-2 43 -34.5 70.5t-103.5 27.5q-68 0 -114 -31t-82 -115t-57 -229l-24 -178h366 q33 0 49 -15.5t12 -43.5q-8 -58 -68 -58h-376l-21 -153q-7 -45 -24 -76q33 11 81 11q91 0 228 -45t220 -45q37 0 69.5 6.5t39.5 6.5q26 0 41 -19t15 -54q0 -62 -49 -96t-132 -34q-82 0 -246.5 51.5t-240.5 51.5q-59 0 -108.5 -20.5t-85.5 -40.5t-61 -20q-33 0 -55.5 19 t-22.5 55q0 35 25 66.5t54 67.5t35 77l26 191h-45z" glyph-name="sterling" unicode="£"/><glyph d="M586 184q-156 0 -264 86l-98 -86q-49 -43 -92 6l-20 25q-41 49 6 90l102 90q-44 88 -44 198q0 188 118 337l-70 83q-41 49 6 90l42 37q49 42 92 -6l67 -79q134 85 289 85q156 0 264 -86l97 86q49 42 91 -6l21 -24q41 -49 -6 -91l-103 -89q44 -90 44 -199 q0 -186 -117 -337l69 -82q42 -49 -6 -91l-41 -37q-50 -42 -92 6l-68 80q-130 -86 -287 -86zM356 614q0 -118 69.5 -189t183.5 -71q143 0 241 105t98 251q0 118 -69 188.5t-184 70.5q-143 0 -241 -104.5t-98 -250.5z" glyph-name="currency" unicode="¤"/><glyph d="M872 0q-88 0 -73 88l5 35h-346q-54 0 -54.5 46t54.5 46h359l8 54h-337q-54 0 -54 46t54 46h352l52 355q-77 -143 -184 -215.5t-231 -72.5q-152 0 -227 101.5t-44 280.5l74 426q13 75 86 75h45q39 0 60.5 -20.5t14.5 -56.5l-67 -380q-20 -121 16.5 -184t119.5 -63 q140 0 254.5 169.5t151.5 438.5q13 95 113 96q50 0 77 -25t19 -75l-120 -850h58q53 0 53 -46t-53 -46h-72l-8 -54h49q54 0 54.5 -46t-54.5 -46h-62l-6 -45q-10 -78 -90 -78h-47z" glyph-name="yen" unicode="¥"/><glyph d="M443 -287q-14 0 -21 9t-5 22l99 705q5 31 35 30h149q14 0 21.5 -8.5t5.5 -21.5l-99 -705q-5 -31 -35 -31h-150zM565 801l101 704q5 31 34 31h149q14 0 21.5 -8.5t5.5 -22.5l-100 -704q-5 -31 -35 -31h-149q-14 0 -21.5 9t-5.5 22z" glyph-name="brokenbar" unicode="¦"/><glyph d="M484 -389q-214 0 -328 89.5t-103 266.5q1 15 10.5 26t22.5 11h138q24 0 26 -31q2 -81 69.5 -126.5t192.5 -45.5q129 0 210 52t95 161q7 51 -4 86.5t-47 61.5t-78 43t-118 40q-83 25 -134 43.5t-118.5 57t-103 83t-55.5 116.5t-7 163q24 161 149 272q-44 87 -27 208 q26 179 156.5 284.5t340.5 105.5q190 0 296.5 -89t98.5 -263q-2 -32 -32 -32h-127q-25 0 -27 26q-2 75 -65 122.5t-171 47.5q-112 0 -185.5 -54t-87.5 -152q-24 -174 199 -235q94 -26 146 -42.5t130 -54t116 -80t62.5 -113t12.5 -158.5q-26 -175 -150 -284q47 -86 30 -211 q-27 -187 -164 -291t-369 -104zM347 690q-8 -56 6 -98t50 -71t81 -48.5t113 -38.5q170 -46 249 -88q78 54 92 153q15 111 -55.5 161t-239.5 99q-133 39 -211 86q-70 -55 -85 -155z" glyph-name="section" unicode="§"/><glyph d="M554 1286q-45 0 -77.5 32.5t-32.5 78.5q0 44 32.5 76t77.5 32t78 -32t33 -76q0 -46 -33 -78.5t-78 -32.5zM845 1397q0 44 32.5 76t77.5 32t77.5 -32t32.5 -76q0 -46 -32.5 -78.5t-77.5 -32.5t-77.5 32.5t-32.5 78.5z" glyph-name="dieresis" unicode="¨"/><glyph d="M572 93q-165 0 -293.5 81t-191 221.5t-39.5 304.5q17 124 82 237t158 193.5t212.5 129t243 48.5t229 -48.5t176.5 -129t103 -193.5t14.5 -236.5t-81.5 -236.5t-157 -194t-212.5 -129t-243.5 -48zM180 700q-18 -132 29.5 -242.5t148.5 -175t232 -64.5q200 0 357.5 141 t186.5 341q18 132 -29 243t-147.5 175.5t-231.5 64.5q-200 0 -358.5 -141t-187.5 -342zM351.5 700.5q19.5 136.5 124.5 229t238 92.5q113 0 179 -67q16 -17 -8 -42l-42 -43q-16 -17 -42 0q-44 29 -102 29q-83 0 -147 -57.5t-75 -141.5q-12 -84 36 -141t130 -57q57 0 112 28 q30 16 42 0l30 -43q17 -24 -5 -42q-89 -67 -198 -66q-133 0 -212.5 92.5t-60 229z" glyph-name="copyright" unicode="©"/><glyph d="M651 698q-139 0 -225.5 96.5t-86.5 241.5q0 167 111.5 287.5t273.5 120.5q77 0 142.5 -30.5t96.5 -90.5l17 61q16 49 76 50q34 0 51 -17.5t13 -48.5l-87 -613q-8 -56 -70 -57q-61 0 -65 60l-2 52q-43 -55 -108 -83.5t-137 -28.5zM485 1046q0 -88 58.5 -144.5t145.5 -56.5 q102 0 177 74t75 177q0 88 -58 145t-145 57q-102 0 -177.5 -75t-75.5 -177z" glyph-name="ordfeminine" unicode="ª"/><glyph d="M889 147q-26 0 -37 23l-207 383q-12 22 4 43l318 389q15 18 37 19h151q18 0 24.5 -11t-5.5 -26l-314 -392l202 -391q7 -15 1 -26t-24 -11h-150zM160 553q-13 23 4 43l317 389q15 18 37 19h152q18 0 24 -11t-6 -26l-319 -392l208 -391q7 -15 0.5 -26t-23.5 -11h-151 q-26 0 -36 23z" glyph-name="guillemotleft" unicode="«"/><glyph d="M1147 757q30 0 27 -31l-59 -418q-5 -31 -36 -30h-117q-30 0 -27 30l41 288h-814q-30 0 -27 31l15 99q1 13 10.5 22t23.5 9h963z" glyph-name="logicalnot" unicode="¬"/><glyph d="M254 571q-48 0 -71 22t-17 63q11 85 98 85h784q47 0 70.5 -22.5t18.5 -62.5q-12 -85 -100 -85h-783z" glyph-name="uni00AD" unicode="­"/><glyph d="M572 93q-165 0 -293.5 81t-191 221.5t-39.5 304.5q17 124 82 237t158 193.5t212.5 129t243 48.5t229 -48.5t176.5 -129t103 -193.5t14.5 -236.5t-81.5 -236.5t-157 -194t-212.5 -129t-243.5 -48zM180 700q-28 -201 91 -341.5t319 -140.5t357.5 141t186.5 341 q18 132 -29 243t-147.5 175.5t-231.5 64.5q-200 0 -358.5 -141t-187.5 -342zM375 434l75 534q2 17 19 17h301q91 0 143 -50t38 -141q-10 -78 -62 -125.5t-128 -59.5l134 -170q6 -7 2.5 -14t-15.5 -7h-103q-10 0 -19 10l-136 178h-105l-24 -172q-4 -16 -20 -16h-85 q-17 0 -15 16zM534 711h189q96 0 107 83q6 40 -15 62.5t-70 22.5h-188z" glyph-name="registered" unicode="®"/><glyph d="M490 1307q-29 0 -44 15.5t-11 44.5l6 41q4 29 24 44.5t49 15.5h503q29 0 44 -15.5t11 -44.5l-6 -41q-4 -29 -24 -44.5t-49 -15.5h-503z" glyph-name="macron" unicode="¯"/><glyph d="M668 692q-127 0 -208 79.5t-81 207.5q0 150 104.5 251t251.5 101q127 0 208 -79.5t81 -207.5q0 -150 -104.5 -251t-251.5 -101zM522 990q0 -72 42.5 -114t114.5 -42q86 0 144 57.5t58 141.5q0 72 -42.5 114.5t-114.5 42.5q-86 0 -144 -58t-58 -142z" glyph-name="degree" unicode="°"/><glyph d="M78 0q-30 0 -27 31l15 99q1 13 10.5 22t23.5 9h963q30 0 27 -31l-15 -99q-1 -13 -10.5 -22t-24.5 -9h-962zM135 814l8 58q4 26 20.5 41t42.5 15h399l57 402q3 26 19 40.5t43 14.5h58q26 0 39 -14t8 -41l-56 -402h398q26 0 39 -14.5t9 -41.5l-9 -58q-8 -55 -62 -55h-398 l-57 -403q-4 -26 -20.5 -40t-41.5 -14h-60q-26 0 -38 14.5t-9 39.5l57 403h-399q-26 0 -38.5 14.5t-8.5 40.5z" glyph-name="plusminus" unicode="±"/><glyph d="M148 213q-32 0 -28 33l14 98q12 88 62.5 155t121 106.5t153.5 68.5t165.5 50.5t150.5 44.5t114 57t52 81q9 68 -54.5 106.5t-193.5 38.5q-262 0 -311 -175q-7 -28 -35 -25l-127 16q-14 2 -21 11.5t-4 24.5q62 325 500 325q231 0 346 -88t95 -233q-9 -67 -46.5 -120 t-91.5 -85.5t-121 -60.5t-135 -45.5t-134 -39.5t-118 -43.5t-87.5 -56.5t-41.5 -80h669q32 0 29 -33l-14 -100q-3 -29 -33 -29z" glyph-name="uni00B2" unicode="²"/><glyph d="M590 188q-119 0 -203 14t-148 47t-92.5 91t-21.5 144q2 30 32 30l137 4q29 0 31 -30q2 -75 66 -100.5t205 -25.5q77 0 133 6.5t103.5 21t74 43t32.5 70.5q11 79 -68.5 108t-299.5 31q-35 0 -31 33l7 79q3 29 34 28q207 2 297 38t99 109q9 69 -58.5 98.5t-202.5 29.5 q-132 0 -211.5 -37.5t-104.5 -128.5q-9 -28 -36 -25l-134 22q-30 5 -25 35q23 113 94 182.5t173 96.5t249 27q233 0 353 -72.5t100 -216.5q-12 -85 -79 -141t-173 -80q119 -27 178 -84.5t43 -169.5q-10 -78 -53.5 -132t-118 -85.5t-167 -45.5t-214.5 -14z" glyph-name="uni00B3" unicode="³"/><glyph d="M640 1210q-32 0 -43.5 18.5t4.5 45.5l119 200q35 54 92 54h50q32 0 44.5 -18t-4.5 -46l-120 -198q-34 -55 -92 -56h-50z" glyph-name="acute" unicode="´"/><glyph d="M141 -289q-46 0 -67.5 26t-13.5 74l158 954q5 33 7.5 62t3 43t0 35.5t-0.5 24.5q0 46 19 66t65 20q155 0 119 -219l-71 -420q-17 -88 -9.5 -141t50.5 -53q49 0 113 63t134 176t129 218t129 240q22 42 32 61q22 41 41.5 58t54.5 17h36q41 0 60.5 -22.5t13.5 -63.5 l-120 -853q-10 -75 -86 -75h-44q-41 0 -60.5 22.5t-14.5 63.5l68 460q-182 -318 -296.5 -444t-223.5 -126q-49 0 -74 21l-35 -205q-15 -83 -100 -83h-17z" glyph-name="uni00B5" unicode="µ"/><glyph d="M596 0q-14 0 -21.5 8.5t-5.5 22.5l53 370h-109q-162 0 -246 52t-101.5 153t3.5 250q16 119 45 198.5t82 139.5t137.5 88.5t207.5 28.5h270q14 0 21.5 -9t5.5 -22l-176 -1249q-5 -31 -35 -31h-131zM880 31l176 1249q5 31 35 31h131q14 0 21 -9t5 -22l-176 -1249 q-5 -31 -35 -31h-131q-14 0 -21 9t-5 22z" glyph-name="paragraph" unicode="¶"/><glyph d="M649 458q-81 0 -137 56t-56 138q0 81 55.5 137.5t137.5 56.5t138.5 -56t56.5 -138t-56.5 -138t-138.5 -56z" glyph-name="periodcentered" unicode="·"/><glyph d="M343 -437q-18 3 -15 22l10 73q4 24 26 20q76 -10 132 10.5t56 69.5q0 38 -48.5 54t-120.5 -11q-11 -4 -18 -0.5t-5 15.5l11 71q1 12 13 25l98 88h157l-87 -75q65 -6 108 -43t43 -97q0 -82 -53 -139.5t-135 -77.5t-172 -5z" glyph-name="cedilla" unicode="¸"/><glyph d="M579 215q-26 0 -38.5 14t-8.5 39l108 745q-135 -114 -336 -122q-34 0 -31 33l13 122q3 29 28 29q179 9 349 144h157q22 0 33.5 -13t7.5 -35l-128 -909q-6 -47 -53 -47h-101z" glyph-name="uni00B9" unicode="¹"/><glyph d="M673 698q-147 0 -242.5 95.5t-95.5 238.5q0 168 121.5 290t291.5 122q147 0 241.5 -95.5t94.5 -238.5q0 -168 -120.5 -290t-290.5 -122zM482 1046q0 -88 57.5 -144.5t147.5 -56.5q104 0 178.5 74.5t74.5 176.5q0 89 -58 145.5t-149 56.5q-106 0 -178.5 -75t-72.5 -177z " glyph-name="ordmasculine" unicode="º"/><glyph d="M610 147q-18 0 -24 11t6 26l319 391l-208 392q-7 15 -0.5 26t23.5 11h151q26 0 36 -23l207 -383q13 -23 -4 -43l-318 -389q-15 -18 -37 -19h-151zM106 184l320 391l-208 392q-7 15 -1 26t24 11h149q26 0 37 -23l208 -383q12 -22 -4 -43l-319 -389q-15 -18 -37 -19h-150 q-18 0 -24.5 11t5.5 26z" glyph-name="guillemotright" unicode="»"/><glyph d="M85 553q-33 0 -29 33l15 86q3 29 32 28h1106q33 0 29 -32l-14 -86q-3 -29 -33 -29h-1106zM27 -59l83 512q3 26 32 25h142q32 0 28 -28l-63 -391h468l63 394q3 26 33 25h141q32 0 29 -28l-63 -391h141q33 0 29 -28l-17 -93q-3 -25 -33 -25h-144l-44 -278q-3 -25 -33 -24 h-141q-32 0 -29 29l44 273h-638q-31 0 -28 28zM365 1389l12 103q3 24 29 25q178 7 348 121h157q22 0 33.5 -10.5t7.5 -29.5l-128 -770q-6 -40 -53 -40h-101q-26 0 -38 12t-8 34l107 630q-134 -96 -336 -103q-33 0 -30 28z" glyph-name="onequarter" unicode="¼"/><glyph d="M85 553q-33 0 -29 33l15 86q3 29 32 28h1106q33 0 29 -32l-14 -86q-3 -29 -33 -29h-1106zM37 -364l14 84q12 75 62.5 132t121 90t153.5 58.5t165.5 43t150.5 36.5t114 48.5t52 69.5q9 57 -54.5 89t-193.5 32q-262 0 -311 -148q-8 -24 -35 -20l-126 14q-32 2 -26 30 q62 275 500 275q231 0 346 -74.5t95 -196.5q-10 -65 -56.5 -113.5t-113.5 -78.5t-145 -52.5t-156 -40.5t-143.5 -38.5t-109.5 -52.5t-51 -75h669q32 0 29 -28l-14 -85q-3 -25 -33 -24l-875 -2q-32 -1 -29 27zM365 1389l12 103q3 24 29 25q178 7 348 121h157q22 0 33.5 -10.5 t7.5 -29.5l-128 -770q-6 -40 -53 -40h-101q-26 0 -38 12t-8 34l107 630q-134 -96 -336 -103q-33 0 -30 28z" glyph-name="onehalf" unicode="½"/><glyph d="M85 553q-33 0 -29 33l15 86q3 29 32 28h1106q33 0 29 -32l-14 -86q-3 -29 -33 -29h-1106zM48 -59l83 512q3 26 33 25h141q32 0 29 -28l-64 -391h468l64 394q3 26 33 25h141q32 0 29 -28l-64 -391h141q33 0 29 -28l-16 -93q-3 -25 -33 -25h-144l-45 -278q-3 -25 -32 -24 h-142q-32 0 -28 29l44 273h-638q-32 0 -29 28zM193 1018q2 25 31 24l137 5q29 0 31 -26q2 -63 66 -85t206 -22q159 0 245 26t98 93q11 67 -69.5 92t-298.5 26q-35 0 -32 28l7 67q3 24 34 24q208 2 297.5 32.5t98.5 92.5q18 108 -261 107q-133 0 -211.5 -31.5t-103.5 -108.5 q-9 -24 -37 -21l-133 19q-31 3 -26 29q34 141 163.5 200.5t352.5 59.5q233 0 353.5 -61.5t99.5 -183.5q-12 -72 -78.5 -119.5t-173.5 -67.5q119 -23 178.5 -71.5t42.5 -144.5q-10 -66 -53.5 -112t-117.5 -72t-167 -38t-215 -12q-94 0 -165.5 7t-132 24.5t-98 45.5t-55.5 72 t-13 102z" glyph-name="threequarters" unicode="¾"/><glyph d="M531 -321q-229 0 -347.5 95t-94.5 268q10 70 39.5 121.5t69.5 81.5t86 53.5t91.5 43t85 42.5t68 59.5t37.5 86.5q12 61 86 62h35q86 0 76 -83q-8 -65 -31.5 -114t-57 -77.5t-73.5 -52t-81 -37t-81 -30.5t-71.5 -35t-54 -49.5t-28.5 -73.5q-12 -83 50 -129.5t201 -46.5 q269 0 310 188q18 85 98 85q109 0 92 -123q-22 -156 -151.5 -245.5t-353.5 -89.5zM517 853q0 77 54 131t130 54q78 0 132 -54t54 -131q0 -78 -54 -131.5t-131.5 -53.5t-131 53.5t-53.5 131.5z" glyph-name="questiondown" unicode="¿"/><glyph d="M93 0q-45 0 -65.5 29t-3.5 69l369 902q54 134 96 199t88.5 88.5t120.5 23.5h29q62 0 98.5 -13t64.5 -54t43.5 -106t31.5 -181l53 -388l41 11q63 15 96.5 -22.5t15 -86.5t-79.5 -63l-49 -13l42 -307q5 -42 -14.5 -65t-61.5 -23h-31q-77 0 -88 77l-37 272l-69 -16 q-278 -67 -396.5 -119.5t-155.5 -145.5v-1q-26 -67 -99 -67h-39zM339 342q57 54 149 87.5t278 77.5l62 15l-44 321q-16 127 -28.5 183t-25 72.5t-37.5 16.5q-22 0 -36.5 -12.5t-39.5 -63t-65 -153.5zM502 1761q-15 28 -3.5 46t43.5 18h55q59 0 91 -55l120 -199 q16 -27 4.5 -45.5t-43.5 -18.5h-55q-58 0 -91 56z" glyph-name="Agrave" unicode="À"/><glyph d="M93 0q-45 0 -65.5 29t-3.5 69l369 902q54 134 96 199t88.5 88.5t120.5 23.5h29q62 0 98.5 -13t64.5 -54t43.5 -106t31.5 -181l53 -388l41 11q63 15 96.5 -22.5t15 -86.5t-79.5 -63l-49 -13l42 -307q5 -42 -14.5 -65t-61.5 -23h-31q-77 0 -88 77l-37 272l-69 -16 q-278 -67 -396.5 -119.5t-155.5 -145.5v-1q-26 -67 -99 -67h-39zM339 342q57 54 149 87.5t278 77.5l62 15l-44 321q-16 127 -28.5 183t-25 72.5t-37.5 16.5q-22 0 -36.5 -12.5t-39.5 -63t-65 -153.5zM659 1571l119 199q35 54 92 55h51q32 0 44 -18t-4 -46l-120 -198 q-34 -55 -92 -56h-51q-32 0 -43.5 18.5t4.5 45.5z" glyph-name="Aacute" unicode="Á"/><glyph d="M93 0q-45 0 -65.5 29t-3.5 69l369 902q54 134 96 199t88.5 88.5t120.5 23.5h29q62 0 98.5 -13t64.5 -54t43.5 -106t31.5 -181l53 -388l41 11q63 15 96.5 -22.5t15 -86.5t-79.5 -63l-49 -13l42 -307q5 -42 -14.5 -65t-61.5 -23h-31q-77 0 -88 77l-37 272l-69 -16 q-278 -67 -396.5 -119.5t-155.5 -145.5v-1q-26 -67 -99 -67h-39zM339 342q57 54 149 87.5t278 77.5l62 15l-44 321q-16 127 -28.5 183t-25 72.5t-37.5 16.5q-22 0 -36.5 -12.5t-39.5 -63t-65 -153.5zM394 1571l202 211q42 43 104 43h116q63 0 92 -43l144 -211 q16 -23 5.5 -43t-40.5 -20h-92q-41 0 -69 41l-87 127q-9 13 -24.5 13.5t-29.5 -13.5l-121 -127q-40 -41 -80 -41h-101q-31 0 -36.5 19.5t17.5 43.5z" glyph-name="Acircumflex" unicode="Â"/><glyph d="M93 0q-45 0 -65.5 29t-3.5 69l369 902q54 134 96 199t88.5 88.5t120.5 23.5h29q62 0 98.5 -13t64.5 -54t43.5 -106t31.5 -181l53 -388l41 11q63 15 96.5 -22.5t15 -86.5t-79.5 -63l-49 -13l42 -307q5 -42 -14.5 -65t-61.5 -23h-31q-77 0 -88 77l-37 272l-69 -16 q-278 -67 -396.5 -119.5t-155.5 -145.5v-1q-26 -67 -99 -67h-39zM339 342q57 54 149 87.5t278 77.5l62 15l-44 321q-16 127 -28.5 183t-25 72.5t-37.5 16.5q-22 0 -36.5 -12.5t-39.5 -63t-65 -153.5zM365.5 1549.5q-10.5 27.5 3 55.5t44.5 43l207 101q33 16 58 15t51 -20 l95 -74q32 -24 70 -5l143 71q30 14 60 3.5t42 -39.5q10 -28 -3 -56t-42 -42l-209 -103q-34 -16 -58 -15t-51 21l-97 74q-29 23 -68 4l-144 -70q-30 -14 -60.5 -2.5t-41 39z" glyph-name="Atilde" unicode="Ã"/><glyph d="M93 0q-45 0 -65.5 29t-3.5 69l369 902q54 134 96 199t88.5 88.5t120.5 23.5h29q62 0 98.5 -13t64.5 -54t43.5 -106t31.5 -181l53 -388l41 11q63 15 96.5 -22.5t15 -86.5t-79.5 -63l-49 -13l42 -307q5 -42 -14.5 -65t-61.5 -23h-31q-77 0 -88 77l-37 272l-69 -16 q-278 -67 -396.5 -119.5t-155.5 -145.5v-1q-26 -67 -99 -67h-39zM339 342q57 54 149 87.5t278 77.5l62 15l-44 321q-16 127 -28.5 183t-25 72.5t-37.5 16.5q-22 0 -36.5 -12.5t-39.5 -63t-65 -153.5zM440 1694q0 44 32.5 76t77.5 32t77.5 -32t32.5 -76q0 -46 -32.5 -78.5 t-77.5 -32.5t-77.5 32.5t-32.5 78.5zM841 1694q0 44 32.5 76t77.5 32t77.5 -32t32.5 -76q0 -46 -32.5 -78.5t-77.5 -32.5t-77.5 32.5t-32.5 78.5z" glyph-name="Adieresis" unicode="Ä"/><glyph d="M93 0q-45 0 -65.5 29t-3.5 69l369 902q54 134 96 199t88.5 88.5t120.5 23.5h29q62 0 98.5 -13t64.5 -54t43.5 -106t31.5 -181l53 -388l41 11q63 15 96.5 -22.5t15 -86.5t-79.5 -63l-49 -13l42 -307q5 -42 -14.5 -65t-61.5 -23h-31q-77 0 -88 77l-37 272l-69 -16 q-278 -67 -396.5 -119.5t-155.5 -145.5v-1q-26 -67 -99 -67h-39zM339 342q57 54 149 87.5t278 77.5l62 15l-44 321q-16 127 -28.5 183t-25 72.5t-37.5 16.5q-22 0 -36.5 -12.5t-39.5 -63t-65 -153.5zM560 1635q0 78 55.5 134t136.5 56t136 -56t55 -134q0 -77 -55 -132.5 t-136 -55.5t-136.5 55.5t-55.5 132.5zM680 1636.5q0 -30.5 20.5 -50t51 -19.5t51.5 19.5t21 49.5q-1 31 -21.5 50.5t-51 19.5t-51 -19.5t-20.5 -50z" glyph-name="Aring" unicode="Å"/><glyph d="M45 0q-36 0 -48.5 19.5t2.5 54.5l531 1182q25 54 81 55h637q66 0 57 -66l-9 -59q-9 -66 -74 -66h-309l-50 -356h263q66 0 57 -66l-9 -59q-9 -66 -74 -66h-263l-54 -383h311q65 0 55 -65l-8 -59q-9 -66 -74 -66h-456q-66 0 -57 66l32 224h-280l-103 -235q-25 -55 -81 -55 h-77zM384 465h226l89 629h-37z" glyph-name="AE" unicode="Æ"/><glyph d="M696 -26q-39 0 -76 3l-61 -52q65 -6 108.5 -43t43.5 -97q0 -82 -53.5 -139.5t-135.5 -78t-172 -4.5q-18 3 -15 22l10 73q4 24 26 20q76 -10 132 10.5t56 69.5q0 38 -48 54t-121 -11q-11 -4 -17.5 -0.5t-4.5 15.5l10 71q1 12 13 25l98 88h7q-173 49 -264.5 192t-91.5 375 q0 81 11.5 159.5t35.5 155t60 144t87.5 124.5t115 98.5t146 64.5t176.5 23q196 0 307 -94t86 -279q-8 -59 -31.5 -84.5t-64.5 -25.5h-35q-39 0 -59 19.5t-14 57.5q8 54 -6.5 95t-46 64t-72 34.5t-88.5 11.5q-85 0 -154.5 -34.5t-114 -90t-74.5 -128.5t-43 -148t-13 -151 q0 -417 401 -417q112 0 225 27q32 7 47 -10.5t11 -52.5l-6 -39q-4 -31 -37 -55t-82.5 -36.5t-103.5 -19t-108 -6.5z" glyph-name="Ccedilla" unicode="Ç"/><glyph d="M636 -26q-220 0 -340.5 106t-120.5 280q0 160 95 266.5t235 132.5q-67 33 -103.5 95t-36.5 143q0 154 125 246.5t337 92.5q81 0 144 -13.5t105.5 -48.5t42.5 -88q0 -27 -6.5 -61t-20.5 -72t-41 -63t-62 -25q-24 0 -41 10t-17 32q0 13 4.5 37t4.5 41q0 41 -31 57t-90 16 q-120 0 -186.5 -48.5t-66.5 -132.5q0 -71 49 -116t148 -50q45 -3 66 -26t17 -61q-6 -82 -100 -82q-174 0 -264 -66t-90 -183q0 -106 73.5 -165.5t219.5 -59.5q150 0 309 53q39 12 60 -6t20 -56q0 -70 -78 -110q-57 -30 -156 -52.5t-204 -22.5zM539 1761q-15 28 -3.5 46 t43.5 18h55q59 0 91 -55l120 -199q16 -27 4.5 -45.5t-43.5 -18.5h-55q-58 0 -92 56z" glyph-name="Egrave" unicode="È"/><glyph d="M636 -26q-220 0 -340.5 106t-120.5 280q0 160 95 266.5t235 132.5q-67 33 -103.5 95t-36.5 143q0 154 125 246.5t337 92.5q81 0 144 -13.5t105.5 -48.5t42.5 -88q0 -27 -6.5 -61t-20.5 -72t-41 -63t-62 -25q-24 0 -41 10t-17 32q0 13 4.5 37t4.5 41q0 41 -31 57t-90 16 q-120 0 -186.5 -48.5t-66.5 -132.5q0 -71 49 -116t148 -50q45 -3 66 -26t17 -61q-6 -82 -100 -82q-174 0 -264 -66t-90 -183q0 -106 73.5 -165.5t219.5 -59.5q150 0 309 53q39 12 60 -6t20 -56q0 -70 -78 -110q-57 -30 -156 -52.5t-204 -22.5zM696 1571l119 199q35 54 92 55 h50q32 0 44.5 -18t-4.5 -46l-119 -198q-34 -55 -93 -56h-50q-32 0 -43.5 18.5t4.5 45.5z" glyph-name="Eacute" unicode="É"/><glyph d="M636 -26q-220 0 -340.5 106t-120.5 280q0 160 95 266.5t235 132.5q-67 33 -103.5 95t-36.5 143q0 154 125 246.5t337 92.5q81 0 144 -13.5t105.5 -48.5t42.5 -88q0 -27 -6.5 -61t-20.5 -72t-41 -63t-62 -25q-24 0 -41 10t-17 32q0 13 4.5 37t4.5 41q0 41 -31 57t-90 16 q-120 0 -186.5 -48.5t-66.5 -132.5q0 -71 49 -116t148 -50q45 -3 66 -26t17 -61q-6 -82 -100 -82q-174 0 -264 -66t-90 -183q0 -106 73.5 -165.5t219.5 -59.5q150 0 309 53q39 12 60 -6t20 -56q0 -70 -78 -110q-57 -30 -156 -52.5t-204 -22.5zM431 1571l202 211 q42 43 104 43h116q63 0 92 -43l144 -211q16 -23 5 -43t-40 -20h-92q-41 0 -69 41l-87 127q-9 13 -24.5 13.5t-29.5 -13.5l-121 -127q-40 -41 -80 -41h-101q-31 0 -36.5 19.5t17.5 43.5z" glyph-name="Ecircumflex" unicode="Ê"/><glyph d="M636 -26q-220 0 -340.5 106t-120.5 280q0 160 95 266.5t235 132.5q-67 33 -103.5 95t-36.5 143q0 154 125 246.5t337 92.5q81 0 144 -13.5t105.5 -48.5t42.5 -88q0 -27 -6.5 -61t-20.5 -72t-41 -63t-62 -25q-24 0 -41 10t-17 32q0 13 4.5 37t4.5 41q0 41 -31 57t-90 16 q-120 0 -186.5 -48.5t-66.5 -132.5q0 -71 49 -116t148 -50q45 -3 66 -26t17 -61q-6 -82 -100 -82q-174 0 -264 -66t-90 -183q0 -106 73.5 -165.5t219.5 -59.5q150 0 309 53q39 12 60 -6t20 -56q0 -70 -78 -110q-57 -30 -156 -52.5t-204 -22.5zM477 1694q0 44 32.5 76 t77.5 32t77.5 -32t32.5 -76q0 -46 -32.5 -78.5t-77.5 -32.5t-77.5 32.5t-32.5 78.5zM878 1694q0 44 32.5 76t77.5 32t77.5 -32t32.5 -76q0 -46 -32.5 -78.5t-77.5 -32.5t-77.5 32.5t-32.5 78.5z" glyph-name="Edieresis" unicode="Ë"/><glyph d="M484 -26q-41 0 -78.5 5.5t-78 18t-64.5 40t-24 65.5q0 37 22.5 62.5t72.5 25.5q19 0 71.5 -9.5t84.5 -9.5q48 0 87.5 13.5t71.5 48t55.5 68.5t45 101t35.5 116.5t31 145t26 157.5t25 179l5 37q8 61 -11 84t-83 23q-130 0 -241.5 -73t-161.5 -198q-17 -40 -39.5 -61.5 t-64.5 -21.5t-65.5 25.5t-23.5 73.5q0 68 46.5 145.5t125 144.5t197 111.5t248.5 44.5h42q81 0 133.5 -21t78 -61t32 -98t-5.5 -134l-5 -37q-20 -152 -40 -265.5t-48 -223.5t-59.5 -187.5t-74.5 -144t-96.5 -106.5t-121 -62t-150.5 -22zM539 1761q-15 28 -3.5 46t43.5 18h55 q59 0 91 -55l120 -199q16 -27 4.5 -45.5t-43.5 -18.5h-55q-58 0 -92 56z" glyph-name="Igrave" unicode="Ì"/><glyph d="M484 -26q-41 0 -78.5 5.5t-78 18t-64.5 40t-24 65.5q0 37 22.5 62.5t72.5 25.5q19 0 71.5 -9.5t84.5 -9.5q48 0 87.5 13.5t71.5 48t55.5 68.5t45 101t35.5 116.5t31 145t26 157.5t25 179l5 37q8 61 -11 84t-83 23q-130 0 -241.5 -73t-161.5 -198q-17 -40 -39.5 -61.5 t-64.5 -21.5t-65.5 25.5t-23.5 73.5q0 68 46.5 145.5t125 144.5t197 111.5t248.5 44.5h42q81 0 133.5 -21t78 -61t32 -98t-5.5 -134l-5 -37q-20 -152 -40 -265.5t-48 -223.5t-59.5 -187.5t-74.5 -144t-96.5 -106.5t-121 -62t-150.5 -22zM696 1571l119 199q35 54 92 55h50 q32 0 44.5 -18t-4.5 -46l-119 -198q-34 -55 -93 -56h-50q-32 0 -43.5 18.5t4.5 45.5z" glyph-name="Iacute" unicode="Í"/><glyph d="M484 -26q-41 0 -78.5 5.5t-78 18t-64.5 40t-24 65.5q0 37 22.5 62.5t72.5 25.5q19 0 71.5 -9.5t84.5 -9.5q48 0 87.5 13.5t71.5 48t55.5 68.5t45 101t35.5 116.5t31 145t26 157.5t25 179l5 37q8 61 -11 84t-83 23q-130 0 -241.5 -73t-161.5 -198q-17 -40 -39.5 -61.5 t-64.5 -21.5t-65.5 25.5t-23.5 73.5q0 68 46.5 145.5t125 144.5t197 111.5t248.5 44.5h42q81 0 133.5 -21t78 -61t32 -98t-5.5 -134l-5 -37q-20 -152 -40 -265.5t-48 -223.5t-59.5 -187.5t-74.5 -144t-96.5 -106.5t-121 -62t-150.5 -22zM431 1571l202 211q42 43 104 43h116 q63 0 92 -43l144 -211q16 -23 5 -43t-40 -20h-92q-41 0 -69 41l-87 127q-9 13 -24.5 13.5t-29.5 -13.5l-121 -127q-40 -41 -80 -41h-101q-31 0 -36.5 19.5t17.5 43.5z" glyph-name="Icircumflex" unicode="Î"/><glyph d="M484 -26q-41 0 -78.5 5.5t-78 18t-64.5 40t-24 65.5q0 37 22.5 62.5t72.5 25.5q19 0 71.5 -9.5t84.5 -9.5q48 0 87.5 13.5t71.5 48t55.5 68.5t45 101t35.5 116.5t31 145t26 157.5t25 179l5 37q8 61 -11 84t-83 23q-130 0 -241.5 -73t-161.5 -198q-17 -40 -39.5 -61.5 t-64.5 -21.5t-65.5 25.5t-23.5 73.5q0 68 46.5 145.5t125 144.5t197 111.5t248.5 44.5h42q81 0 133.5 -21t78 -61t32 -98t-5.5 -134l-5 -37q-20 -152 -40 -265.5t-48 -223.5t-59.5 -187.5t-74.5 -144t-96.5 -106.5t-121 -62t-150.5 -22zM477 1694q0 44 32.5 76t77.5 32 t77.5 -32t32.5 -76q0 -46 -32.5 -78.5t-77.5 -32.5t-77.5 32.5t-32.5 78.5zM878 1694q0 44 32.5 76t77.5 32t77.5 -32t32.5 -76q0 -46 -32.5 -78.5t-77.5 -32.5t-77.5 32.5t-32.5 78.5z" glyph-name="Idieresis" unicode="Ï"/><glyph d="M238 0q-46 0 -69 25t-15 71l67 484h-124q-53 0 -53 49t53 49h137l21 143q14 99 60.5 156.5t120.5 57.5q30 0 42 -10t10 -32l-43 -315h200q54 0 54 -49t-54 -49h-214l-53 -390h67q111 0 199.5 32.5t146 86t95.5 128.5t53.5 156.5t15.5 172.5q0 87 -16 149.5t-55.5 110 t-110.5 71t-173 23.5h-357q-51 0 -75.5 26t-17.5 74q12 91 105 91h402q136 0 236 -39t158.5 -112.5t86 -168.5t27.5 -216q0 -120 -25 -229.5t-82.5 -209.5t-142 -174t-212.5 -118t-285 -44h-180z" glyph-name="Eth" unicode="Ð"/><glyph d="M871 0q-32 0 -52.5 14.5t-41.5 44.5q-108 156 -203.5 366.5t-148.5 428.5l-110 -779q-10 -75 -86 -75h-47q-41 0 -61 22.5t-15 63.5l163 1150q10 75 85 75h101q33 0 57 -14t24 -42q0 -227 88.5 -499t222.5 -509l139 989q10 75 86 75h47q41 0 61 -22.5t15 -63.5 l-163 -1150q-10 -75 -85 -75h-76zM404.5 1569.5q-10.5 27.5 3 56t44.5 42.5l206 101q33 16 58.5 15.5t51.5 -20.5l95 -73q32 -24 70 -5l143 70q30 14 60 3.5t42 -39.5q10 -28 -3 -56t-42 -42l-209 -102q-34 -16 -58 -15.5t-51 21.5l-97 73q-29 23 -68 5l-144 -70 q-30 -14 -60.5 -3t-41 38.5z" glyph-name="Ntilde" unicode="Ñ"/><glyph d="M567 -26q-239 0 -356 172.5t-70 515.5q47 338 201.5 506t391.5 168q117 0 205 -41t147.5 -125.5t78.5 -214t-5 -307.5q-47 -337 -201 -505.5t-392 -168.5zM347 662q-17 -113 -10 -196t26.5 -139t56.5 -89t79 -47.5t94 -14.5q298 0 361 472q17 113 10.5 196.5t-25 138.5 t-55.5 89t-79.5 48.5t-94.5 14.5q-298 0 -363 -473zM547 1823q-15 28 -3.5 45.5t43.5 17.5h55q59 0 91 -54l120 -200q16 -27 4.5 -45t-43.5 -18h-55q-58 0 -91 55z" glyph-name="Ograve" unicode="Ò"/><glyph d="M567 -26q-239 0 -356 172.5t-70 515.5q47 338 201.5 506t391.5 168q117 0 205 -41t147.5 -125.5t78.5 -214t-5 -307.5q-47 -337 -201 -505.5t-392 -168.5zM347 662q-17 -113 -10 -196t26.5 -139t56.5 -89t79 -47.5t94 -14.5q298 0 361 472q17 113 10.5 196.5t-25 138.5 t-55.5 89t-79.5 48.5t-94.5 14.5q-298 0 -363 -473zM706 1632l118 200q35 54 92 54h51q32 0 44 -18t-4 -45l-120 -199q-34 -55 -92 -55h-51q-32 0 -43 18t5 45z" glyph-name="Oacute" unicode="Ó"/><glyph d="M567 -26q-239 0 -356 172.5t-70 515.5q47 338 201.5 506t391.5 168q117 0 205 -41t147.5 -125.5t78.5 -214t-5 -307.5q-47 -337 -201 -505.5t-392 -168.5zM347 662q-17 -113 -10 -196t26.5 -139t56.5 -89t79 -47.5t94 -14.5q298 0 361 472q17 113 10.5 196.5t-25 138.5 t-55.5 89t-79.5 48.5t-94.5 14.5q-298 0 -363 -473zM440 1632l202 211q42 43 104 43h116q63 0 92 -43l144 -211q16 -23 5.5 -42.5t-40.5 -19.5h-92q-41 0 -69 41l-87 127q-9 13 -25 13t-29 -13l-121 -127q-40 -41 -80 -41h-101q-31 0 -36.5 19t17.5 43z" glyph-name="Ocircumflex" unicode="Ô"/><glyph d="M567 -26q-239 0 -356 172.5t-70 515.5q47 338 201.5 506t391.5 168q117 0 205 -41t147.5 -125.5t78.5 -214t-5 -307.5q-47 -337 -201 -505.5t-392 -168.5zM347 662q-17 -113 -10 -196t26.5 -139t56.5 -89t79 -47.5t94 -14.5q298 0 361 472q17 113 10.5 196.5t-25 138.5 t-55.5 89t-79.5 48.5t-94.5 14.5q-298 0 -363 -473zM410.5 1610.5q-10.5 27.5 3 56t44.5 42.5l207 101q33 16 58.5 15.5t50.5 -20.5l95 -73q32 -24 70 -6l143 71q30 14 60 3.5t42 -39.5q10 -28 -3 -56t-42 -42l-209 -102q-34 -16 -58 -15.5t-51 21.5l-97 73q-29 23 -68 5 l-144 -70q-30 -14 -60.5 -3t-41 38.5z" glyph-name="Otilde" unicode="Õ"/><glyph d="M567 -26q-239 0 -356 172.5t-70 515.5q47 338 201.5 506t391.5 168q117 0 205 -41t147.5 -125.5t78.5 -214t-5 -307.5q-47 -337 -201 -505.5t-392 -168.5zM347 662q-17 -113 -10 -196t26.5 -139t56.5 -89t79 -47.5t94 -14.5q298 0 361 472q17 113 10.5 196.5t-25 138.5 t-55.5 89t-79.5 48.5t-94.5 14.5q-298 0 -363 -473zM486 1755q0 44 32.5 76.5t77.5 32.5t78 -32.5t33 -76.5q0 -46 -33 -78t-78 -32t-77.5 32t-32.5 78zM887 1755q0 44 32.5 76.5t77.5 32.5t77.5 -32.5t32.5 -76.5q0 -46 -32.5 -78t-77.5 -32t-77.5 32t-32.5 78z" glyph-name="Odieresis" unicode="Ö"/><glyph d="M266 998q-18 22 7 44l80 70q24 22 43 0l275 -319l364 319q24 20 43 0l61 -70q18 -23 -6 -44l-365 -319l274 -320q18 -22 -6 -43l-80 -70q-25 -22 -43 0l-274 319l-365 -319q-25 -22 -43 0l-60 70q-18 22 6 43l364 320z" glyph-name="multiply" unicode="×"/><glyph d="M98 -133q-17 0 -22 10t5 27l143 225q-132 179 -83 533q47 338 201.5 506t391.5 168q129 0 223 -50l118 187q15 23 38 22h95q17 0 22 -10t-4 -27l-163 -257q151 -177 97 -553q-47 -337 -201 -505.5t-392 -168.5q-143 0 -243 63l-94 -148q-13 -23 -37 -22h-95zM347 662 q-28 -202 11 -321l484 763q-55 31 -132 31q-298 0 -363 -473zM440 220q59 -44 153 -44q298 0 361 472q32 228 -20 349z" glyph-name="Oslash" unicode="Ø"/><glyph d="M513 -26q-200 0 -300.5 121.5t-69.5 347.5l111 793q10 75 86 75h47q41 0 61 -22.5t15 -63.5l-107 -763q-19 -138 33.5 -212t170.5 -74q117 0 187.5 73.5t91.5 212.5l107 774q10 75 86 75h47q42 0 61.5 -22.5t13.5 -63.5l-131 -938q-9 -68 9.5 -102t63.5 -32 q26 2 38.5 -13t12.5 -43q0 -49 -36 -80t-88 -31q-67 0 -108.5 47.5t-36.5 127.5q-122 -187 -365 -187zM539 1761q-15 28 -3.5 46t43.5 18h55q59 0 91 -55l120 -199q16 -27 4.5 -45.5t-43.5 -18.5h-55q-58 0 -92 56z" glyph-name="Ugrave" unicode="Ù"/><glyph d="M513 -26q-200 0 -300.5 121.5t-69.5 347.5l111 793q10 75 86 75h47q41 0 61 -22.5t15 -63.5l-107 -763q-19 -138 33.5 -212t170.5 -74q117 0 187.5 73.5t91.5 212.5l107 774q10 75 86 75h47q42 0 61.5 -22.5t13.5 -63.5l-131 -938q-9 -68 9.5 -102t63.5 -32 q26 2 38.5 -13t12.5 -43q0 -49 -36 -80t-88 -31q-67 0 -108.5 47.5t-36.5 127.5q-122 -187 -365 -187zM696 1571l119 199q35 54 92 55h50q32 0 44.5 -18t-4.5 -46l-119 -198q-34 -55 -93 -56h-50q-32 0 -43.5 18.5t4.5 45.5z" glyph-name="Uacute" unicode="Ú"/><glyph d="M513 -26q-200 0 -300.5 121.5t-69.5 347.5l111 793q10 75 86 75h47q41 0 61 -22.5t15 -63.5l-107 -763q-19 -138 33.5 -212t170.5 -74q117 0 187.5 73.5t91.5 212.5l107 774q10 75 86 75h47q42 0 61.5 -22.5t13.5 -63.5l-131 -938q-9 -68 9.5 -102t63.5 -32 q26 2 38.5 -13t12.5 -43q0 -49 -36 -80t-88 -31q-67 0 -108.5 47.5t-36.5 127.5q-122 -187 -365 -187zM431 1571l202 211q42 43 104 43h116q63 0 92 -43l144 -211q16 -23 5 -43t-40 -20h-92q-41 0 -69 41l-87 127q-9 13 -24.5 13.5t-29.5 -13.5l-121 -127q-40 -41 -80 -41 h-101q-31 0 -36.5 19.5t17.5 43.5z" glyph-name="Ucircumflex" unicode="Û"/><glyph d="M513 -26q-200 0 -300.5 121.5t-69.5 347.5l111 793q10 75 86 75h47q41 0 61 -22.5t15 -63.5l-107 -763q-19 -138 33.5 -212t170.5 -74q117 0 187.5 73.5t91.5 212.5l107 774q10 75 86 75h47q42 0 61.5 -22.5t13.5 -63.5l-131 -938q-9 -68 9.5 -102t63.5 -32 q26 2 38.5 -13t12.5 -43q0 -49 -36 -80t-88 -31q-67 0 -108.5 47.5t-36.5 127.5q-122 -187 -365 -187zM477 1694q0 44 32.5 76t77.5 32t77.5 -32t32.5 -76q0 -46 -32.5 -78.5t-77.5 -32.5t-77.5 32.5t-32.5 78.5zM878 1694q0 44 32.5 76t77.5 32t77.5 -32t32.5 -76 q0 -46 -32.5 -78.5t-77.5 -32.5t-77.5 32.5t-32.5 78.5z" glyph-name="Udieresis" unicode="Ü"/><glyph d="M511 -26q-98 0 -179 18t-124 42q-32 18 -42.5 53t2.5 67q13 33 44 45t61 2q110 -40 233 -40q73 0 134 14.5t116 47t92 92t49 142.5l38 259q-76 -143 -183 -215.5t-231 -72.5q-152 0 -227.5 101.5t-43.5 280.5l74 426q12 75 86 75h44q40 0 61.5 -20.5t13.5 -56.5l-66 -380 q-20 -121 16.5 -184t119.5 -63q140 0 254.5 169.5t151.5 438.5q13 95 112 96q51 0 78 -25t19 -75l-111 -785q-15 -103 -59 -184t-102 -130.5t-133.5 -81t-147.5 -44t-150 -12.5zM696 1571l119 199q35 54 92 55h50q32 0 44.5 -18t-4.5 -46l-119 -198q-34 -55 -93 -56h-50 q-32 0 -43.5 18.5t4.5 45.5z" glyph-name="Yacute" unicode="Ý"/><glyph d="M151 0q-39 0 -59.5 20.5t-16.5 56.5l162 1159q10 75 86 75h47q40 0 60.5 -20.5t14.5 -56.5l-17 -124h289q238 0 350 -126.5t83 -339.5q-29 -205 -171 -324t-380 -119h-297l-17 -126q-12 -75 -86 -75h-48zM329 391h271q310 0 349 276q19 137 -51 195t-214 58h-283z" glyph-name="Thorn" unicode="Þ"/><glyph d="M163 -256q-41 0 -61 22.5t-15 63.5l128 908h-47q-39 0 -58 21.5t-14 58.5l3 25q9 69 82 68h59l4 32q26 186 141 287t315 101q174 0 270.5 -75t96.5 -213q0 -61 -19.5 -108.5t-47 -75.5t-56 -50.5t-47.5 -48.5t-19 -57q0 -32 21.5 -57t53 -42t69 -41.5t69 -51.5t53 -75 t21.5 -110q0 -166 -137 -246t-369 -80q-49 0 -76 23.5t-24 62.5q7 79 97 79q155 0 231 35.5t76 124.5q0 55 -30 95t-72 64.5t-84 48t-71.5 61t-29.5 88.5q0 42 19 76t46 58.5t54 49.5t46 61t19 81q0 140 -182 140q-113 0 -166 -54.5t-68 -162.5l-155 -1112q-11 -75 -86 -75 h-40z" glyph-name="germandbls" unicode="ß"/><glyph d="M456 -26q-142 0 -230 102.5t-88 303.5q0 127 37.5 242.5t109 209.5t187.5 149t260 55q99 0 184.5 -24t135 -67t41.5 -94q-7 -45 -49 -60.5t-95 9.5q-108 51 -230 51q-91 0 -165.5 -36.5t-120.5 -98.5t-70.5 -139.5t-24.5 -163.5q0 -134 51.5 -194.5t127.5 -60.5 q49 0 95.5 25.5t83.5 66t71.5 96.5t58.5 111t46 116q20 53 48.5 78t72.5 25q50 0 74 -34t15 -93l-40 -299q-5 -41 -6.5 -73t0 -62t1.5 -35q0 -42 -16.5 -61t-62.5 -19q-58 0 -89.5 42t-19.5 154l10 97q-152 -319 -403 -319zM488 1464q-15 28 -3 46t43 18h56q59 0 91 -54 l120 -200q16 -27 4 -45.5t-43 -18.5h-56q-58 0 -91 56z" glyph-name="agrave" unicode="à"/><glyph d="M456 -26q-142 0 -230 102.5t-88 303.5q0 127 37.5 242.5t109 209.5t187.5 149t260 55q99 0 184.5 -24t135 -67t41.5 -94q-7 -45 -49 -60.5t-95 9.5q-108 51 -230 51q-91 0 -165.5 -36.5t-120.5 -98.5t-70.5 -139.5t-24.5 -163.5q0 -134 51.5 -194.5t127.5 -60.5 q49 0 95.5 25.5t83.5 66t71.5 96.5t58.5 111t46 116q20 53 48.5 78t72.5 25q50 0 74 -34t15 -93l-40 -299q-5 -41 -6.5 -73t0 -62t1.5 -35q0 -42 -16.5 -61t-62.5 -19q-58 0 -89.5 42t-19.5 154l10 97q-152 -319 -403 -319zM647 1274l119 200q35 54 92 54h50q32 0 44.5 -18 t-4.5 -46l-120 -198q-34 -55 -92 -56h-50q-32 0 -43.5 18.5t4.5 45.5z" glyph-name="aacute" unicode="á"/><glyph d="M456 -26q-142 0 -230 102.5t-88 303.5q0 127 37.5 242.5t109 209.5t187.5 149t260 55q99 0 184.5 -24t135 -67t41.5 -94q-7 -45 -49 -60.5t-95 9.5q-108 51 -230 51q-91 0 -165.5 -36.5t-120.5 -98.5t-70.5 -139.5t-24.5 -163.5q0 -134 51.5 -194.5t127.5 -60.5 q49 0 95.5 25.5t83.5 66t71.5 96.5t58.5 111t46 116q20 53 48.5 78t72.5 25q50 0 74 -34t15 -93l-40 -299q-5 -41 -6.5 -73t0 -62t1.5 -35q0 -42 -16.5 -61t-62.5 -19q-58 0 -89.5 42t-19.5 154l10 97q-152 -319 -403 -319zM382 1274l202 211q42 43 104 43h116q63 0 92 -43 l143 -211q16 -23 5.5 -43t-39.5 -20h-93q-41 0 -68 41l-87 127q-9 13 -24.5 13.5t-30.5 -13.5l-120 -127q-40 -41 -80 -41h-102q-31 0 -36 19.5t18 43.5z" glyph-name="acircumflex" unicode="â"/><glyph d="M456 -26q-142 0 -230 102.5t-88 303.5q0 127 37.5 242.5t109 209.5t187.5 149t260 55q99 0 184.5 -24t135 -67t41.5 -94q-7 -45 -49 -60.5t-95 9.5q-108 51 -230 51q-91 0 -165.5 -36.5t-120.5 -98.5t-70.5 -139.5t-24.5 -163.5q0 -134 51.5 -194.5t127.5 -60.5 q49 0 95.5 25.5t83.5 66t71.5 96.5t58.5 111t46 116q20 53 48.5 78t72.5 25q50 0 74 -34t15 -93l-40 -299q-5 -41 -6.5 -73t0 -62t1.5 -35q0 -42 -16.5 -61t-62.5 -19q-58 0 -89.5 42t-19.5 154l10 97q-152 -319 -403 -319zM352 1252.5q-10 27.5 3.5 55.5t43.5 43l207 101 q33 16 58.5 15t51.5 -20l95 -74q32 -24 70 -5l143 71q30 14 60 3.5t41 -39.5q10 -28 -2.5 -56t-42.5 -42l-209 -103q-34 -16 -57.5 -15t-50.5 21l-97 74q-29 23 -68 4l-144 -69q-30 -14 -61 -3t-41 38.5z" glyph-name="atilde" unicode="ã"/><glyph d="M456 -26q-142 0 -230 102.5t-88 303.5q0 127 37.5 242.5t109 209.5t187.5 149t260 55q99 0 184.5 -24t135 -67t41.5 -94q-7 -45 -49 -60.5t-95 9.5q-108 51 -230 51q-91 0 -165.5 -36.5t-120.5 -98.5t-70.5 -139.5t-24.5 -163.5q0 -134 51.5 -194.5t127.5 -60.5 q49 0 95.5 25.5t83.5 66t71.5 96.5t58.5 111t46 116q20 53 48.5 78t72.5 25q50 0 74 -34t15 -93l-40 -299q-5 -41 -6.5 -73t0 -62t1.5 -35q0 -42 -16.5 -61t-62.5 -19q-58 0 -89.5 42t-19.5 154l10 97q-152 -319 -403 -319zM428 1397q0 44 32.5 76t77.5 32t77.5 -32 t32.5 -76q0 -46 -32.5 -78.5t-77.5 -32.5t-77.5 32.5t-32.5 78.5zM828 1397q0 44 33 76t78 32t77.5 -32t32.5 -76q0 -46 -32.5 -78.5t-77.5 -32.5t-78 32.5t-33 78.5z" glyph-name="adieresis" unicode="ä"/><glyph d="M456 -26q-142 0 -230 102.5t-88 303.5q0 127 37.5 242.5t109 209.5t187.5 149t260 55q99 0 184.5 -24t135 -67t41.5 -94q-7 -45 -49 -60.5t-95 9.5q-108 51 -230 51q-91 0 -165.5 -36.5t-120.5 -98.5t-70.5 -139.5t-24.5 -163.5q0 -134 51.5 -194.5t127.5 -60.5 q49 0 95.5 25.5t83.5 66t71.5 96.5t58.5 111t46 116q20 53 48.5 78t72.5 25q50 0 74 -34t15 -93l-40 -299q-5 -41 -6.5 -73t0 -62t1.5 -35q0 -42 -16.5 -61t-62.5 -19q-58 0 -89.5 42t-19.5 154l10 97q-152 -319 -403 -319zM547 1338q0 78 55 134t136 56t136.5 -56 t55.5 -134q0 -77 -55.5 -132.5t-136.5 -55.5t-136 55.5t-55 132.5zM667 1339.5q0 -30.5 20.5 -50t51 -19.5t51.5 19.5t21 49.5q-1 31 -21.5 50.5t-51 19.5t-51 -19.5t-20.5 -50z" glyph-name="aring" unicode="å"/><glyph d="M281 -26q-130 0 -197.5 78.5t-46.5 220.5q18 130 99.5 212.5t232.5 82.5h220l12 92q16 116 -16 163.5t-113 47.5q-136 0 -173 -126q-17 -52 -74 -52h-19q-31 0 -46 17t-9 51q24 136 115.5 205.5t225.5 69.5q179 0 231 -132q101 132 256 132q121 0 180 -75t59 -187 q0 -169 -128 -292t-379 -144q4 -96 43.5 -146.5t125.5 -50.5q82 0 154 47q48 30 75 -8l10 -14q31 -44 -9 -83q-106 -109 -265 -109q-185 0 -247 165q-133 -165 -317 -165zM205 290q-9 -66 20.5 -105.5t107.5 -39.5q144 0 214 129l21 156h-186q-159 0 -177 -140zM720 488 q168 15 251.5 87.5t83.5 172.5q0 50 -24.5 80.5t-78.5 30.5q-181 0 -230 -355q-1 -2 -1 -7.5t-1 -8.5z" glyph-name="ae" unicode="æ"/><glyph d="M687 -26q-18 0 -51 2l-59 -51q65 -6 108 -43t43 -97q0 -82 -53 -139.5t-135 -78t-172 -4.5q-18 3 -16 22l10 73q4 24 26 20q76 -10 132.5 10.5t56.5 69.5q0 38 -49 54t-120 -11q-11 -4 -18 -0.5t-5 15.5l10 71q1 12 14 25l96 86q-158 43 -250 159.5t-92 295.5 q0 109 35.5 211t104 186t179 135t247.5 51q77 0 142 -17t117.5 -50.5t82.5 -91.5t30 -134q0 -74 -28.5 -123.5t-90.5 -49.5q-40 0 -64.5 20.5t-24.5 54.5q0 13 6.5 35t6.5 41q0 65 -53.5 96t-139.5 31q-90 0 -161 -35.5t-111 -92.5t-60 -121.5t-20 -131.5q0 -157 102.5 -238 t262.5 -81q103 0 233 46q36 13 56 -2.5t15 -49.5l-6 -38q-9 -54 -57 -75q-128 -55 -280 -55z" glyph-name="ccedilla" unicode="ç"/><glyph d="M645 -26q-236 0 -365 125t-129 334q0 162 76.5 300t212 220.5t298.5 82.5q159 0 245 -74.5t86 -182.5q0 -58 -26 -113.5t-80.5 -110t-150 -104.5t-223.5 -87q-125 -37 -151 38q-10 34 5.5 61t54.5 37q198 51 290 116t92 135q0 47 -40.5 79.5t-119.5 32.5 q-69 0 -136.5 -29t-121.5 -81t-87.5 -131.5t-33.5 -172.5q0 -141 81 -223t249 -82q147 0 268 67q75 40 110 -14q20 -30 11 -62.5t-49 -57.5q-155 -103 -366 -103zM519 1464q-15 28 -3.5 46t43.5 18h55q59 0 92 -54l119 -200q16 -27 4.5 -45.5t-43.5 -18.5h-55q-58 0 -91 56z " glyph-name="egrave" unicode="è"/><glyph d="M645 -26q-236 0 -365 125t-129 334q0 162 76.5 300t212 220.5t298.5 82.5q159 0 245 -74.5t86 -182.5q0 -58 -26 -113.5t-80.5 -110t-150 -104.5t-223.5 -87q-125 -37 -151 38q-10 34 5.5 61t54.5 37q198 51 290 116t92 135q0 47 -40.5 79.5t-119.5 32.5 q-69 0 -136.5 -29t-121.5 -81t-87.5 -131.5t-33.5 -172.5q0 -141 81 -223t249 -82q147 0 268 67q75 40 110 -14q20 -30 11 -62.5t-49 -57.5q-155 -103 -366 -103zM678 1274l119 200q35 54 92 54h50q32 0 44 -18t-4 -46l-120 -198q-34 -55 -92 -56h-50q-32 0 -43.5 18.5 t4.5 45.5z" glyph-name="eacute" unicode="é"/><glyph d="M645 -26q-236 0 -365 125t-129 334q0 162 76.5 300t212 220.5t298.5 82.5q159 0 245 -74.5t86 -182.5q0 -58 -26 -113.5t-80.5 -110t-150 -104.5t-223.5 -87q-125 -37 -151 38q-10 34 5.5 61t54.5 37q198 51 290 116t92 135q0 47 -40.5 79.5t-119.5 32.5 q-69 0 -136.5 -29t-121.5 -81t-87.5 -131.5t-33.5 -172.5q0 -141 81 -223t249 -82q147 0 268 67q75 40 110 -14q20 -30 11 -62.5t-49 -57.5q-155 -103 -366 -103zM413 1274l201 211q42 43 105 43h116q63 0 92 -43l143 -211q16 -23 5.5 -43t-40.5 -20h-92q-41 0 -69 41 l-87 127q-9 13 -24 13.5t-30 -13.5l-121 -127q-40 -41 -80 -41h-101q-31 0 -36 19.5t18 43.5z" glyph-name="ecircumflex" unicode="ê"/><glyph d="M645 -26q-236 0 -365 125t-129 334q0 162 76.5 300t212 220.5t298.5 82.5q159 0 245 -74.5t86 -182.5q0 -58 -26 -113.5t-80.5 -110t-150 -104.5t-223.5 -87q-125 -37 -151 38q-10 34 5.5 61t54.5 37q198 51 290 116t92 135q0 47 -40.5 79.5t-119.5 32.5 q-69 0 -136.5 -29t-121.5 -81t-87.5 -131.5t-33.5 -172.5q0 -141 81 -223t249 -82q147 0 268 67q75 40 110 -14q20 -30 11 -62.5t-49 -57.5q-155 -103 -366 -103zM459 1397q0 44 32 76t77 32t78 -32t33 -76q0 -46 -33 -78.5t-78 -32.5t-77 32.5t-32 78.5zM859 1397 q0 44 33 76t78 32t77 -32t32 -76q0 -46 -32 -78.5t-77 -32.5t-78 32.5t-33 78.5z" glyph-name="edieresis" unicode="ë"/><glyph d="M798 -27q-59 0 -111 12.5t-102 41t-81 76.5t-46.5 118t2.5 165l58 358q8 51 -11.5 74.5t-70.5 23.5h-173q-40 0 -61 23.5t-14 66.5q11 82 88 82h268q103 0 152 -58t33 -160l-63 -392q-11 -60 -4 -103.5t20.5 -71.5t40 -44.5t52.5 -22.5t58 -6q82 0 180 52q37 17 64.5 11 t42.5 -34q15 -26 9.5 -57.5t-28.5 -51.5q-48 -43 -127.5 -73t-175.5 -30zM435 1464q-15 28 -3.5 46t43.5 18h55q59 0 92 -54l119 -200q16 -27 4.5 -45.5t-43.5 -18.5h-55q-58 0 -91 56z" glyph-name="igrave" unicode="ì"/><glyph d="M798 -27q-59 0 -111 12.5t-102 41t-81 76.5t-46.5 118t2.5 165l58 358q8 51 -11.5 74.5t-70.5 23.5h-173q-40 0 -61 23.5t-14 66.5q11 82 88 82h268q103 0 152 -58t33 -160l-63 -392q-11 -60 -4 -103.5t20.5 -71.5t40 -44.5t52.5 -22.5t58 -6q82 0 180 52q37 17 64.5 11 t42.5 -34q15 -26 9.5 -57.5t-28.5 -51.5q-48 -43 -127.5 -73t-175.5 -30zM594 1274l119 200q35 54 92 54h50q32 0 44 -18t-4 -46l-120 -198q-34 -55 -92 -56h-50q-32 0 -43.5 18.5t4.5 45.5z" glyph-name="iacute" unicode="í"/><glyph d="M798 -27q-59 0 -111 12.5t-102 41t-81 76.5t-46.5 118t2.5 165l58 358q8 51 -11.5 74.5t-70.5 23.5h-173q-40 0 -61 23.5t-14 66.5q11 82 88 82h268q103 0 152 -58t33 -160l-63 -392q-11 -60 -4 -103.5t20.5 -71.5t40 -44.5t52.5 -22.5t58 -6q82 0 180 52q37 17 64.5 11 t42.5 -34q15 -26 9.5 -57.5t-28.5 -51.5q-48 -43 -127.5 -73t-175.5 -30zM329 1274l201 211q42 43 105 43h116q63 0 92 -43l143 -211q16 -23 5.5 -43t-40.5 -20h-92q-41 0 -68 41l-88 127q-9 13 -24 13.5t-30 -13.5l-121 -127q-40 -41 -79 -41h-102q-31 0 -36 19.5t18 43.5z " glyph-name="icircumflex" unicode="î"/><glyph d="M798 -27q-59 0 -111 12.5t-102 41t-81 76.5t-46.5 118t2.5 165l58 358q8 51 -11.5 74.5t-70.5 23.5h-173q-40 0 -61 23.5t-14 66.5q11 82 88 82h268q103 0 152 -58t33 -160l-63 -392q-11 -60 -4 -103.5t20.5 -71.5t40 -44.5t52.5 -22.5t58 -6q82 0 180 52q37 17 64.5 11 t42.5 -34q15 -26 9.5 -57.5t-28.5 -51.5q-48 -43 -127.5 -73t-175.5 -30zM375 1397q0 44 32 76t77 32t78 -32t33 -76q0 -46 -33 -78.5t-78 -32.5t-77 32.5t-32 78.5zM775 1397q0 44 33 76t78 32t77 -32t32 -76q0 -46 -32 -78.5t-77 -32.5t-78 32.5t-33 78.5z" glyph-name="idieresis" unicode="ï"/><glyph d="M792 1094q-33 -5 -33 26v41q0 28 28 31l191 22l3 22q9 75 86 75h35q38 0 57.5 -19t18.5 -55l85 10q33 5 32 -26v-41q0 -28 -28 -31l-103 -12l-125 -887q-6 -41 -7 -73t0.5 -60t1.5 -31q0 -46 -17 -66t-63 -20q-66 0 -99 47.5t-16 171.5l75 535q6 45 -47.5 72t-136.5 27 q-122 0 -216.5 -62.5t-144.5 -165t-50 -224.5q0 -245 221 -244q36 0 71 7t47.5 11.5t39.5 17.5q26 12 33.5 8.5t2.5 -33.5l-5 -41q-8 -51 -53 -87q-88 -66 -218 -66q-156 0 -246 100.5t-90 291.5q0 179 74.5 331.5t215.5 245.5t318 93q151 0 216 -48l18 126z" glyph-name="eth" unicode="ð"/><glyph d="M186 0q-41 0 -60.5 22.5t-13.5 63.5l119 853q11 75 86 75h44q42 0 61.5 -22.5t13.5 -63.5l-67 -468l26 49q163 291 282.5 409.5t242.5 118.5q116 0 168.5 -83t28.5 -223l-80 -481q-5 -32 -7.5 -61t-3 -43.5t0 -35.5t0.5 -24q0 -46 -18.5 -66t-64.5 -20q-156 0 -119 219 l66 389q9 56 13 91.5t2 69t-15 49t-38 15.5q-48 0 -108 -57.5t-139.5 -185.5t-123.5 -207t-131 -245q-23 -43 -34 -63q-22 -41 -41.5 -58t-53.5 -17h-36zM374 1252.5q-10 27.5 3 55.5t44 43l207 101q33 16 58.5 15t50.5 -20l96 -74q32 -24 69 -5l144 71q30 14 60 3.5 t41 -39.5q10 -28 -2.5 -56t-42.5 -42l-209 -103q-34 -16 -58 -15t-51 21l-97 74q-29 23 -67 4l-145 -69q-30 -14 -60.5 -3t-40.5 38.5z" glyph-name="ntilde" unicode="ñ"/><glyph d="M606 -26q-215 0 -344.5 137.5t-129.5 361.5q0 244 147 403.5t372 159.5q69 0 125.5 -14t90.5 -48.5t23 -82.5q-7 -33 -29 -45.5t-45 -11.5t-70.5 6.5t-77.5 5.5q-153 0 -245 -101t-92 -264q0 -152 80.5 -235t205.5 -83q134 0 221 90t87 209q0 48 -17 81.5t-34 58 t-17 50.5q0 42 29 65.5t70 23.5q71 0 117 -76t46 -191q0 -99 -37.5 -190t-103 -160t-162.5 -109.5t-210 -40.5zM506 1464q-15 28 -3.5 46t43.5 18h55q59 0 91 -54l120 -200q16 -27 4.5 -45.5t-43.5 -18.5h-55q-58 0 -91 56z" glyph-name="ograve" unicode="ò"/><glyph d="M606 -26q-215 0 -344.5 137.5t-129.5 361.5q0 244 147 403.5t372 159.5q69 0 125.5 -14t90.5 -48.5t23 -82.5q-7 -33 -29 -45.5t-45 -11.5t-70.5 6.5t-77.5 5.5q-153 0 -245 -101t-92 -264q0 -152 80.5 -235t205.5 -83q134 0 221 90t87 209q0 48 -17 81.5t-34 58 t-17 50.5q0 42 29 65.5t70 23.5q71 0 117 -76t46 -191q0 -99 -37.5 -190t-103 -160t-162.5 -109.5t-210 -40.5zM665 1274l118 200q35 54 93 54h50q32 0 44 -18t-4 -46l-120 -198q-34 -55 -92 -56h-51q-32 0 -43 18.5t5 45.5z" glyph-name="oacute" unicode="ó"/><glyph d="M606 -26q-215 0 -344.5 137.5t-129.5 361.5q0 244 147 403.5t372 159.5q69 0 125.5 -14t90.5 -48.5t23 -82.5q-7 -33 -29 -45.5t-45 -11.5t-70.5 6.5t-77.5 5.5q-153 0 -245 -101t-92 -264q0 -152 80.5 -235t205.5 -83q134 0 221 90t87 209q0 48 -17 81.5t-34 58 t-17 50.5q0 42 29 65.5t70 23.5q71 0 117 -76t46 -191q0 -99 -37.5 -190t-103 -160t-162.5 -109.5t-210 -40.5zM399 1274l202 211q42 43 105 43h115q63 0 92 -43l144 -211q16 -23 5.5 -43t-40.5 -20h-92q-41 0 -69 41l-87 127q-9 13 -25 13.5t-29 -13.5l-121 -127 q-40 -41 -80 -41h-101q-31 0 -36.5 19.5t17.5 43.5z" glyph-name="ocircumflex" unicode="ô"/><glyph d="M606 -26q-215 0 -344.5 137.5t-129.5 361.5q0 244 147 403.5t372 159.5q69 0 125.5 -14t90.5 -48.5t23 -82.5q-7 -33 -29 -45.5t-45 -11.5t-70.5 6.5t-77.5 5.5q-153 0 -245 -101t-92 -264q0 -152 80.5 -235t205.5 -83q134 0 221 90t87 209q0 48 -17 81.5t-34 58 t-17 50.5q0 42 29 65.5t70 23.5q71 0 117 -76t46 -191q0 -99 -37.5 -190t-103 -160t-162.5 -109.5t-210 -40.5zM369.5 1252.5q-10.5 27.5 3 55.5t44.5 43l207 101q33 16 58.5 15t50.5 -20l95 -74q32 -24 70 -5l143 71q30 14 60.5 3.5t41.5 -39.5q10 -28 -3 -56t-42 -42 l-209 -103q-34 -16 -58 -15t-51 21l-97 74q-29 23 -68 4l-144 -69q-30 -14 -60.5 -3t-41 38.5z" glyph-name="otilde" unicode="õ"/><glyph d="M606 -26q-215 0 -344.5 137.5t-129.5 361.5q0 244 147 403.5t372 159.5q69 0 125.5 -14t90.5 -48.5t23 -82.5q-7 -33 -29 -45.5t-45 -11.5t-70.5 6.5t-77.5 5.5q-153 0 -245 -101t-92 -264q0 -152 80.5 -235t205.5 -83q134 0 221 90t87 209q0 48 -17 81.5t-34 58 t-17 50.5q0 42 29 65.5t70 23.5q71 0 117 -76t46 -191q0 -99 -37.5 -190t-103 -160t-162.5 -109.5t-210 -40.5zM445 1397q0 44 32.5 76t77.5 32t78 -32t33 -76q0 -46 -33 -78.5t-78 -32.5t-77.5 32.5t-32.5 78.5zM846 1397q0 44 32.5 76t77.5 32t77.5 -32t32.5 -76 q0 -46 -32.5 -78.5t-77.5 -32.5t-77.5 32.5t-32.5 78.5z" glyph-name="odieresis" unicode="ö"/><glyph d="M166 579q-14 0 -21.5 8.5t-5.5 21.5l14 100q5 31 35 30h951q14 0 20.5 -8.5t4.5 -21.5l-13 -100q-5 -31 -35 -30h-950zM397 190q0 78 54.5 132.5t132.5 54.5t132 -54.5t54 -132.5q0 -79 -54 -133t-132 -54t-132.5 54t-54.5 133zM532 1142q0 79 54.5 132.5t132.5 53.5 t132 -53.5t54 -132.5t-54 -133.5t-132 -54.5t-132.5 54.5t-54.5 133.5z" glyph-name="divide" unicode="÷"/><glyph d="M195 -143q-17 0 -22.5 10t4.5 27l117 187q-78 66 -120 166.5t-42 225.5q0 244 147 403.5t372 159.5q143 0 208 -54l86 138q13 23 38 23h82q17 0 22.5 -10.5t-5.5 -26.5l-578 -923q53 -20 113 -20q134 0 221 90t87 209q0 48 -17 81.5t-34 58t-17 50.5q0 42 29 65.5 t70 23.5q71 0 117 -76t46 -191q0 -99 -37.5 -190t-103 -160t-162.5 -109.5t-210 -40.5q-114 0 -208 41l-85 -136q-13 -23 -38 -22h-80zM331 481q0 -140 72 -226l365 583q-79 8 -100 8q-153 0 -245 -101t-92 -264z" glyph-name="oslash" unicode="ø"/><glyph d="M340 -24q-116 0 -168.5 83t-29.5 224l80 481q5 32 7.5 61t3 43.5t0 35.5t-0.5 24q0 46 18.5 66t64.5 20q156 0 119 -219l-65 -389q-9 -56 -13.5 -91.5t-2.5 -69t15.5 -49t38.5 -15.5q47 0 105 55t134.5 177.5t120 200.5t129.5 239q31 58 46 86q22 41 42 58t53 17h36 q41 0 60.5 -22.5t14.5 -63.5l-120 -853q-11 -75 -86 -75h-44q-42 0 -61.5 22.5t-13.5 63.5l68 464l-26 -45q-168 -292 -286 -410.5t-239 -118.5zM497 1464q-15 28 -3.5 46t43.5 18h55q59 0 91 -54l120 -200q16 -27 4.5 -45.5t-43.5 -18.5h-55q-58 0 -92 56z" glyph-name="ugrave" unicode="ù"/><glyph d="M340 -24q-116 0 -168.5 83t-29.5 224l80 481q5 32 7.5 61t3 43.5t0 35.5t-0.5 24q0 46 18.5 66t64.5 20q156 0 119 -219l-65 -389q-9 -56 -13.5 -91.5t-2.5 -69t15.5 -49t38.5 -15.5q47 0 105 55t134.5 177.5t120 200.5t129.5 239q31 58 46 86q22 41 42 58t53 17h36 q41 0 60.5 -22.5t14.5 -63.5l-120 -853q-11 -75 -86 -75h-44q-42 0 -61.5 22.5t-13.5 63.5l68 464l-26 -45q-168 -292 -286 -410.5t-239 -118.5zM654 1274l119 200q35 54 92 54h50q32 0 44.5 -18t-4.5 -46l-119 -198q-34 -55 -93 -56h-50q-32 0 -43.5 18.5t4.5 45.5z" glyph-name="uacute" unicode="ú"/><glyph d="M340 -24q-116 0 -168.5 83t-29.5 224l80 481q5 32 7.5 61t3 43.5t0 35.5t-0.5 24q0 46 18.5 66t64.5 20q156 0 119 -219l-65 -389q-9 -56 -13.5 -91.5t-2.5 -69t15.5 -49t38.5 -15.5q47 0 105 55t134.5 177.5t120 200.5t129.5 239q31 58 46 86q22 41 42 58t53 17h36 q41 0 60.5 -22.5t14.5 -63.5l-120 -853q-11 -75 -86 -75h-44q-42 0 -61.5 22.5t-13.5 63.5l68 464l-26 -45q-168 -292 -286 -410.5t-239 -118.5zM389 1274l202 211q42 43 104 43h116q63 0 92 -43l144 -211q16 -23 5 -43t-40 -20h-92q-41 0 -69 41l-87 127q-9 13 -25 13.5 t-29 -13.5l-121 -127q-40 -41 -80 -41h-101q-31 0 -36.5 19.5t17.5 43.5z" glyph-name="ucircumflex" unicode="û"/><glyph d="M340 -24q-116 0 -168.5 83t-29.5 224l80 481q5 32 7.5 61t3 43.5t0 35.5t-0.5 24q0 46 18.5 66t64.5 20q156 0 119 -219l-65 -389q-9 -56 -13.5 -91.5t-2.5 -69t15.5 -49t38.5 -15.5q47 0 105 55t134.5 177.5t120 200.5t129.5 239q31 58 46 86q22 41 42 58t53 17h36 q41 0 60.5 -22.5t14.5 -63.5l-120 -853q-11 -75 -86 -75h-44q-42 0 -61.5 22.5t-13.5 63.5l68 464l-26 -45q-168 -292 -286 -410.5t-239 -118.5zM436 1397q0 44 32.5 76t77.5 32t77.5 -32t32.5 -76q0 -46 -32.5 -78.5t-77.5 -32.5t-77.5 32.5t-32.5 78.5zM837 1397 q0 44 32.5 76t77.5 32t77.5 -32t32.5 -76q0 -46 -32.5 -78.5t-77.5 -32.5t-77.5 32.5t-32.5 78.5z" glyph-name="udieresis" unicode="ü"/><glyph d="M858 -165q-40 0 -64.5 22t-24.5 64q0 22 17 94t28 149l52 373q-187 -410 -455 -410q-128 0 -198 80t-46 227l82 505q12 75 87 75h40q41 0 62 -23t14 -63l-75 -455q-13 -80 18 -118.5t87 -38.5q74 0 154.5 76.5t139 182t98.5 205t50 156.5v3q11 75 86 75h40q42 0 61 -22.5 t13 -63.5l-122 -873q-30 -220 -144 -220zM654 1274l119 200q35 54 92 54h50q32 0 44.5 -18t-4.5 -46l-119 -198q-34 -55 -93 -56h-50q-32 0 -43.5 18.5t4.5 45.5z" glyph-name="yacute" unicode="ý"/><glyph d="M283 1236q11 75 86 75h40q42 0 61.5 -22.5t13.5 -63.5l-72 -509q174 321 433 320q143 0 222.5 -96.5t79.5 -280.5q0 -169 -61.5 -307t-176.5 -219.5t-262 -81.5q-85 0 -146.5 27.5t-61.5 87.5q0 35 21.5 57t55.5 22q16 0 49 -15t73 -15q133 0 222.5 115t89.5 287 q0 122 -49 179t-127 57q-72 0 -142.5 -47t-124 -121.5t-93 -162.5t-56.5 -173l-26 -189l-36 -249q-9 -75 -86 -75h-40q-41 0 -61 22.5t-14 63.5l104 721z" glyph-name="thorn" unicode="þ"/><glyph d="M858 -165q-40 0 -64.5 22t-24.5 64q0 22 17 94t28 149l52 373q-187 -410 -455 -410q-128 0 -198 80t-46 227l82 505q12 75 87 75h40q41 0 62 -23t14 -63l-75 -455q-13 -80 18 -118.5t87 -38.5q74 0 154.5 76.5t139 182t98.5 205t50 156.5v3q11 75 86 75h40q42 0 61 -22.5 t13 -63.5l-122 -873q-30 -220 -144 -220zM436 1397q0 44 32.5 76t77.5 32t77.5 -32t32.5 -76q0 -46 -32.5 -78.5t-77.5 -32.5t-77.5 32.5t-32.5 78.5zM837 1397q0 44 32.5 76t77.5 32t77.5 -32t32.5 -76q0 -46 -32.5 -78.5t-77.5 -32.5t-77.5 32.5t-32.5 78.5z" glyph-name="ydieresis" unicode="ÿ"/><glyph d="M93 0q-45 0 -65.5 29t-3.5 69l369 902q54 134 96 199t88.5 88.5t120.5 23.5h29q62 0 98.5 -13t64.5 -54t43.5 -106t31.5 -181l53 -388l41 11q63 15 96.5 -22.5t15 -86.5t-79.5 -63l-49 -13l42 -307q5 -42 -14.5 -65t-61.5 -23h-31q-77 0 -88 77l-37 272l-69 -16 q-278 -67 -396.5 -119.5t-155.5 -145.5v-1q-26 -67 -99 -67h-39zM339 342q57 54 149 87.5t278 77.5l62 15l-44 321q-16 127 -28.5 183t-25 72.5t-37.5 16.5q-22 0 -36.5 -12.5t-39.5 -63t-65 -153.5zM430 1664l6 41q4 29 24 44.5t49 15.5h503q29 0 44 -15.5t11 -44.5l-6 -41 q-4 -29 -24 -44.5t-49 -15.5h-503q-29 0 -44 15.5t-11 44.5z" glyph-name="Amacron" unicode="Ā"/><glyph d="M456 -26q-142 0 -230 102.5t-88 303.5q0 127 37.5 242.5t109 209.5t187.5 149t260 55q99 0 184.5 -24t135 -67t41.5 -94q-7 -45 -49 -60.5t-95 9.5q-108 51 -230 51q-91 0 -165.5 -36.5t-120.5 -98.5t-70.5 -139.5t-24.5 -163.5q0 -134 51.5 -194.5t127.5 -60.5 q49 0 95.5 25.5t83.5 66t71.5 96.5t58.5 111t46 116q20 53 48.5 78t72.5 25q50 0 74 -34t15 -93l-40 -299q-5 -41 -6.5 -73t0 -62t1.5 -35q0 -42 -16.5 -61t-62.5 -19q-58 0 -89.5 42t-19.5 154l10 97q-152 -319 -403 -319zM418 1367l6 41q4 29 24 44.5t49 15.5h502 q29 0 44.5 -15.5t11.5 -44.5l-6 -41q-4 -29 -24 -44.5t-49 -15.5h-503q-29 0 -44 15.5t-11 44.5z" glyph-name="amacron" unicode="ā"/><glyph d="M93 0q-45 0 -65.5 29t-3.5 69l369 902q54 134 96 199t88.5 88.5t120.5 23.5h29q62 0 98.5 -13t64.5 -54t43.5 -106t31.5 -181l53 -388l41 11q63 15 96.5 -22.5t15 -86.5t-79.5 -63l-49 -13l42 -307q5 -42 -14.5 -65t-61.5 -23h-31q-77 0 -88 77l-37 272l-69 -16 q-278 -67 -396.5 -119.5t-155.5 -145.5v-1q-26 -67 -99 -67h-39zM339 342q57 54 149 87.5t278 77.5l62 15l-44 321q-16 127 -28.5 183t-25 72.5t-37.5 16.5q-22 0 -36.5 -12.5t-39.5 -63t-65 -153.5zM455 1794q2 31 34 31h84q26 0 29 -29q4 -56 43 -94t108 -38 q120 0 168 132q9 29 36 29h91q32 0 25 -31q-26 -127 -110 -199.5t-219 -72.5q-138 0 -216 73.5t-73 198.5z" glyph-name="Abreve" unicode="Ă"/><glyph d="M456 -26q-142 0 -230 102.5t-88 303.5q0 127 37.5 242.5t109 209.5t187.5 149t260 55q99 0 184.5 -24t135 -67t41.5 -94q-7 -45 -49 -60.5t-95 9.5q-108 51 -230 51q-91 0 -165.5 -36.5t-120.5 -98.5t-70.5 -139.5t-24.5 -163.5q0 -134 51.5 -194.5t127.5 -60.5 q49 0 95.5 25.5t83.5 66t71.5 96.5t58.5 111t46 116q20 53 48.5 78t72.5 25q50 0 74 -34t15 -93l-40 -299q-5 -41 -6.5 -73t0 -62t1.5 -35q0 -42 -16.5 -61t-62.5 -19q-58 0 -89.5 42t-19.5 154l10 97q-152 -319 -403 -319zM442 1497q2 31 35 31h84q26 0 29 -29 q4 -56 43 -94t107 -38q120 0 168 132q9 29 37 29h90q32 0 26 -31q-26 -127 -110.5 -199.5t-218.5 -72.5q-138 0 -216.5 73.5t-73.5 198.5z" glyph-name="abreve" unicode="ă"/><glyph d="M93 0q-45 0 -65.5 29t-3.5 69l369 902q54 134 96 199t88.5 88.5t120.5 23.5h29q62 0 98.5 -13t64.5 -54t43.5 -106t31.5 -181l53 -388l41 11q63 15 96.5 -22.5t15 -86.5t-79.5 -63l-49 -13l42 -307q5 -42 -14.5 -65t-61.5 -23h-47q-129 0 -129.5 -112.5t142.5 -112.5 q30 0 44.5 -19.5t11.5 -47.5q-2 -29 -23 -47t-57 -18h-28q-35 0 -68 5.5t-66.5 20.5t-59 38t-41 61t-15.5 88q0 100 60.5 155.5t155.5 71.5l-36 266l-69 -16q-278 -67 -396.5 -119.5t-155.5 -145.5v-1q-26 -67 -99 -67h-39zM339 342q57 54 149 87.5t278 77.5l62 15l-44 321 q-16 127 -28.5 183t-25 72.5t-37.5 16.5q-22 0 -36.5 -12.5t-39.5 -63t-65 -153.5z" glyph-name="Aogonek" unicode="Ą"/><glyph d="M456 -26q-142 0 -230 102.5t-88 303.5q0 127 37.5 242.5t109 209.5t187.5 149t260 55q99 0 184.5 -24t135 -67t41.5 -94q-7 -45 -49 -60.5t-95 9.5q-108 51 -230 51q-91 0 -165.5 -36.5t-120.5 -98.5t-70.5 -139.5t-24.5 -163.5q0 -134 51.5 -194.5t127.5 -60.5 q49 0 95.5 25.5t83.5 66t71.5 96.5t58.5 111t46 116q20 53 48.5 78t72.5 25q50 0 74 -34t15 -93l-40 -299q-5 -41 -6.5 -73t0 -62t1.5 -35q0 -42 -16.5 -61t-62.5 -19h-47q-129 0 -129 -112.5t143 -112.5q30 0 44.5 -19.5t11.5 -47.5q-2 -29 -23 -47t-57 -18h-29 q-35 0 -67.5 5.5t-66 20.5t-59 38t-41 61t-15.5 88q0 104 64.5 159.5t164.5 69.5q-10 46 -3 111l10 97q-152 -319 -403 -319z" glyph-name="aogonek" unicode="ą"/><glyph d="M696 -26q-267 0 -411.5 149.5t-144.5 443.5q0 81 11.5 159.5t35.5 155t60 144t87.5 124.5t115 98.5t146 64.5t176.5 23q196 0 307 -94t86 -279q-8 -59 -31.5 -84.5t-64.5 -25.5h-35q-39 0 -59 19.5t-14 57.5q8 54 -6.5 95t-46 64t-72 34.5t-88.5 11.5q-85 0 -154.5 -34.5 t-114 -90t-74.5 -128.5t-43 -148t-13 -151q0 -417 401 -417q112 0 225 27q32 7 47 -10.5t11 -52.5l-6 -39q-4 -31 -37 -55t-82.5 -36.5t-103.5 -19t-108 -6.5zM696 1571l119 199q35 54 92 55h50q32 0 44.5 -18t-4.5 -46l-119 -198q-34 -55 -93 -56h-50q-32 0 -43.5 18.5 t4.5 45.5z" glyph-name="Cacute" unicode="Ć"/><glyph d="M687 -26q-229 0 -376.5 125.5t-147.5 353.5q0 109 35.5 211t104 186t179 135t247.5 51q77 0 142 -17t117.5 -50.5t82.5 -91.5t30 -134q0 -74 -28.5 -123.5t-90.5 -49.5q-40 0 -64.5 20.5t-24.5 54.5q0 13 6.5 35t6.5 41q0 65 -53.5 96t-139.5 31q-90 0 -161 -35.5 t-111 -92.5t-60 -121.5t-20 -131.5q0 -157 102.5 -238t262.5 -81q103 0 233 46q36 13 56 -2.5t15 -49.5l-6 -38q-9 -54 -57 -75q-128 -55 -280 -55zM637 1274l119 200q35 54 92 54h50q32 0 44 -18t-4 -46l-120 -198q-34 -55 -92 -56h-50q-32 0 -43.5 18.5t4.5 45.5z" glyph-name="cacute" unicode="ć"/><glyph d="M696 -26q-267 0 -411.5 149.5t-144.5 443.5q0 81 11.5 159.5t35.5 155t60 144t87.5 124.5t115 98.5t146 64.5t176.5 23q196 0 307 -94t86 -279q-8 -59 -31.5 -84.5t-64.5 -25.5h-35q-39 0 -59 19.5t-14 57.5q8 54 -6.5 95t-46 64t-72 34.5t-88.5 11.5q-85 0 -154.5 -34.5 t-114 -90t-74.5 -128.5t-43 -148t-13 -151q0 -417 401 -417q112 0 225 27q32 7 47 -10.5t11 -52.5l-6 -39q-4 -31 -37 -55t-82.5 -36.5t-103.5 -19t-108 -6.5zM451 1571l201 211q42 43 105 43h115q63 0 93 -43l143 -211q16 -23 5.5 -43t-40.5 -20h-92q-41 0 -69 41l-87 127 q-9 13 -25 13.5t-29 -13.5l-121 -127q-40 -41 -80 -41h-101q-31 0 -36 19.5t18 43.5z" glyph-name="Ccircumflex" unicode="Ĉ"/><glyph d="M687 -26q-229 0 -376.5 125.5t-147.5 353.5q0 109 35.5 211t104 186t179 135t247.5 51q77 0 142 -17t117.5 -50.5t82.5 -91.5t30 -134q0 -74 -28.5 -123.5t-90.5 -49.5q-40 0 -64.5 20.5t-24.5 54.5q0 13 6.5 35t6.5 41q0 65 -53.5 96t-139.5 31q-90 0 -161 -35.5 t-111 -92.5t-60 -121.5t-20 -131.5q0 -157 102.5 -238t262.5 -81q103 0 233 46q36 13 56 -2.5t15 -49.5l-6 -38q-9 -54 -57 -75q-128 -55 -280 -55zM390 1274l202 211q42 43 104 43h116q63 0 92 -43l144 -211q16 -23 5 -43t-40 -20h-92q-41 0 -69 41l-87 127 q-9 13 -24.5 13.5t-29.5 -13.5l-121 -127q-40 -41 -80 -41h-101q-31 0 -36.5 19.5t17.5 43.5z" glyph-name="ccircumflex" unicode="ĉ"/><glyph d="M696 -26q-267 0 -411.5 149.5t-144.5 443.5q0 81 11.5 159.5t35.5 155t60 144t87.5 124.5t115 98.5t146 64.5t176.5 23q196 0 307 -94t86 -279q-8 -59 -31.5 -84.5t-64.5 -25.5h-35q-39 0 -59 19.5t-14 57.5q8 54 -6.5 95t-46 64t-72 34.5t-88.5 11.5q-85 0 -154.5 -34.5 t-114 -90t-74.5 -128.5t-43 -148t-13 -151q0 -417 401 -417q112 0 225 27q32 7 47 -10.5t11 -52.5l-6 -39q-4 -31 -37 -55t-82.5 -36.5t-103.5 -19t-108 -6.5zM681 1716q0 44 32.5 76.5t78 32.5t77.5 -32.5t32 -76.5q0 -46 -32 -78t-77.5 -32t-78 32t-32.5 78z" glyph-name="Cdotaccent" unicode="Ċ"/><glyph d="M687 -26q-229 0 -376.5 125.5t-147.5 353.5q0 109 35.5 211t104 186t179 135t247.5 51q77 0 142 -17t117.5 -50.5t82.5 -91.5t30 -134q0 -74 -28.5 -123.5t-90.5 -49.5q-40 0 -64.5 20.5t-24.5 54.5q0 13 6.5 35t6.5 41q0 65 -53.5 96t-139.5 31q-90 0 -161 -35.5 t-111 -92.5t-60 -121.5t-20 -131.5q0 -157 102.5 -238t262.5 -81q103 0 233 46q36 13 56 -2.5t15 -49.5l-6 -38q-9 -54 -57 -75q-128 -55 -280 -55zM622 1419q0 44 32.5 76.5t77.5 32.5t77.5 -32.5t32.5 -76.5q0 -46 -32.5 -78t-77.5 -32t-77.5 32t-32.5 78z" glyph-name="cdotaccent" unicode="ċ"/><glyph d="M696 -26q-267 0 -411.5 149.5t-144.5 443.5q0 81 11.5 159.5t35.5 155t60 144t87.5 124.5t115 98.5t146 64.5t176.5 23q196 0 307 -94t86 -279q-8 -59 -31.5 -84.5t-64.5 -25.5h-35q-39 0 -59 19.5t-14 57.5q8 54 -6.5 95t-46 64t-72 34.5t-88.5 11.5q-85 0 -154.5 -34.5 t-114 -90t-74.5 -128.5t-43 -148t-13 -151q0 -417 401 -417q112 0 225 27q32 7 47 -10.5t11 -52.5l-6 -39q-4 -31 -37 -55t-82.5 -36.5t-103.5 -19t-108 -6.5zM480 1762q-16 24 -5.5 43.5t40.5 19.5h92q41 0 69 -41l87 -127q9 -14 24.5 -14.5t29.5 14.5l121 127q40 41 80 41 h101q31 0 36 -19.5t-17 -43.5l-202 -211q-42 -43 -105 -43h-115q-63 0 -92 43z" glyph-name="Ccaron" unicode="Č"/><glyph d="M687 -26q-229 0 -376.5 125.5t-147.5 353.5q0 109 35.5 211t104 186t179 135t247.5 51q77 0 142 -17t117.5 -50.5t82.5 -91.5t30 -134q0 -74 -28.5 -123.5t-90.5 -49.5q-40 0 -64.5 20.5t-24.5 54.5q0 13 6.5 35t6.5 41q0 65 -53.5 96t-139.5 31q-90 0 -161 -35.5 t-111 -92.5t-60 -121.5t-20 -131.5q0 -157 102.5 -238t262.5 -81q103 0 233 46q36 13 56 -2.5t15 -49.5l-6 -38q-9 -54 -57 -75q-128 -55 -280 -55zM421 1465q-16 24 -5.5 43.5t40.5 19.5h92q41 0 68 -41l87 -127q9 -14 24.5 -14t30.5 14l121 127q40 41 79 41h102 q31 0 36 -19.5t-18 -43.5l-201 -211q-42 -43 -105 -43h-116q-63 0 -92 43z" glyph-name="ccaron" unicode="č"/><glyph d="M238 0q-46 0 -69 25t-15 71l101 725q14 99 60.5 156.5t120.5 57.5q30 0 42 -10t10 -32l-110 -803h67q111 0 199.5 32.5t146 86t95.5 128.5t53.5 156.5t15.5 172.5q0 87 -16 149.5t-55.5 110t-110.5 71t-173 23.5h-357q-51 0 -75.5 26t-17.5 74q12 91 105 91h402 q136 0 236 -39t158.5 -112.5t86 -168.5t27.5 -216q0 -120 -25 -229.5t-82.5 -209.5t-142 -174t-212.5 -118t-285 -44h-180zM480 1762q-16 24 -5.5 43.5t40.5 19.5h92q41 0 69 -41l87 -127q9 -14 24.5 -14.5t29.5 14.5l121 127q40 41 80 41h101q31 0 36 -19.5t-17 -43.5 l-202 -211q-42 -43 -105 -43h-115q-63 0 -92 43z" glyph-name="Dcaron" unicode="Ď"/><glyph d="M458 -26q-156 0 -246 100.5t-90 291.5q0 179 74.5 331.5t215.5 245.5t318 93q151 0 216 -48l35 248q9 75 86 75h35q41 0 60.5 -22.5t14.5 -63.5l-138 -975q-6 -41 -7 -73t0.5 -60t1.5 -31q0 -46 -17 -66t-63 -20q-66 0 -99 47.5t-16 171.5l75 535q6 45 -47.5 72 t-136.5 27q-122 0 -216.5 -62.5t-144.5 -165t-50 -224.5q0 -245 221 -244q36 0 71 7t47.5 11.5t39.5 17.5q26 12 33.5 8.5t2.5 -33.5l-5 -41q-8 -51 -53 -87q-88 -66 -218 -66zM1223 1077l118 200q35 54 93 54h50q32 0 44 -18t-4 -45l-120 -199q-34 -55 -92 -55h-50 q-32 0 -43.5 18t4.5 45z" glyph-name="dcaron" unicode="ď"/><glyph d="M238 0q-46 0 -69 25t-15 71l67 484h-124q-53 0 -53 49t53 49h137l21 143q14 99 60.5 156.5t120.5 57.5q30 0 42 -10t10 -32l-43 -315h200q54 0 54 -49t-54 -49h-214l-53 -390h67q111 0 199.5 32.5t146 86t95.5 128.5t53.5 156.5t15.5 172.5q0 87 -16 149.5t-55.5 110 t-110.5 71t-173 23.5h-357q-51 0 -75.5 26t-17.5 74q12 91 105 91h402q136 0 236 -39t158.5 -112.5t86 -168.5t27.5 -216q0 -120 -25 -229.5t-82.5 -209.5t-142 -174t-212.5 -118t-285 -44h-180z" glyph-name="Dcroat" unicode="Đ"/><glyph d="M741 1094q-25 0 -38.5 12t-13.5 34.5t14 35.5t38 13h234l6 47q9 75 86 75h35q41 0 60.5 -22.5t14.5 -63.5l-6 -36h63q25 0 38 -13t13 -35q0 -47 -51 -47h-76l-119 -844q-6 -41 -7 -73t0.5 -60t1.5 -31q0 -46 -17 -66t-63 -20q-66 0 -99 47.5t-16 171.5l75 535 q6 45 -47.5 72t-136.5 27q-122 0 -216.5 -62.5t-144.5 -165t-50 -224.5q0 -245 221 -244q36 0 71 7t47.5 11.5t39.5 17.5q26 12 33.5 8.5t2.5 -33.5l-5 -41q-8 -51 -53 -87q-88 -66 -218 -66q-156 0 -246 100.5t-90 291.5q0 179 74.5 331.5t215.5 245.5t318 93 q151 0 216 -48l15 106h-220z" glyph-name="dcroat" unicode="đ"/><glyph d="M636 -26q-220 0 -340.5 106t-120.5 280q0 160 95 266.5t235 132.5q-67 33 -103.5 95t-36.5 143q0 154 125 246.5t337 92.5q81 0 144 -13.5t105.5 -48.5t42.5 -88q0 -27 -6.5 -61t-20.5 -72t-41 -63t-62 -25q-24 0 -41 10t-17 32q0 13 4.5 37t4.5 41q0 41 -31 57t-90 16 q-120 0 -186.5 -48.5t-66.5 -132.5q0 -71 49 -116t148 -50q45 -3 66 -26t17 -61q-6 -82 -100 -82q-174 0 -264 -66t-90 -183q0 -106 73.5 -165.5t219.5 -59.5q150 0 309 53q39 12 60 -6t20 -56q0 -70 -78 -110q-57 -30 -156 -52.5t-204 -22.5zM467 1664l6 41q4 29 24 44.5 t49 15.5h503q29 0 44 -15.5t11 -44.5l-6 -41q-4 -29 -24 -44.5t-49 -15.5h-503q-29 0 -44 15.5t-11 44.5z" glyph-name="Emacron" unicode="Ē"/><glyph d="M645 -26q-236 0 -365 125t-129 334q0 162 76.5 300t212 220.5t298.5 82.5q159 0 245 -74.5t86 -182.5q0 -58 -26 -113.5t-80.5 -110t-150 -104.5t-223.5 -87q-125 -37 -151 38q-10 34 5.5 61t54.5 37q198 51 290 116t92 135q0 47 -40.5 79.5t-119.5 32.5 q-69 0 -136.5 -29t-121.5 -81t-87.5 -131.5t-33.5 -172.5q0 -141 81 -223t249 -82q147 0 268 67q75 40 110 -14q20 -30 11 -62.5t-49 -57.5q-155 -103 -366 -103zM449 1367l6 41q4 29 24 44.5t48 15.5h503q29 0 44.5 -15.5t10.5 -44.5l-6 -41q-4 -29 -24 -44.5t-48 -15.5 h-503q-29 0 -44 15.5t-11 44.5z" glyph-name="emacron" unicode="ē"/><glyph d="M636 -26q-220 0 -340.5 106t-120.5 280q0 160 95 266.5t235 132.5q-67 33 -103.5 95t-36.5 143q0 154 125 246.5t337 92.5q81 0 144 -13.5t105.5 -48.5t42.5 -88q0 -27 -6.5 -61t-20.5 -72t-41 -63t-62 -25q-24 0 -41 10t-17 32q0 13 4.5 37t4.5 41q0 41 -31 57t-90 16 q-120 0 -186.5 -48.5t-66.5 -132.5q0 -71 49 -116t148 -50q45 -3 66 -26t17 -61q-6 -82 -100 -82q-174 0 -264 -66t-90 -183q0 -106 73.5 -165.5t219.5 -59.5q150 0 309 53q39 12 60 -6t20 -56q0 -70 -78 -110q-57 -30 -156 -52.5t-204 -22.5zM681 1716q0 44 32.5 76.5 t78 32.5t77.5 -32.5t32 -76.5q0 -46 -32 -78t-77.5 -32t-78 32t-32.5 78z" glyph-name="Edotaccent" unicode="Ė"/><glyph d="M645 -26q-236 0 -365 125t-129 334q0 162 76.5 300t212 220.5t298.5 82.5q159 0 245 -74.5t86 -182.5q0 -58 -26 -113.5t-80.5 -110t-150 -104.5t-223.5 -87q-125 -37 -151 38q-10 34 5.5 61t54.5 37q198 51 290 116t92 135q0 47 -40.5 79.5t-119.5 32.5 q-69 0 -136.5 -29t-121.5 -81t-87.5 -131.5t-33.5 -172.5q0 -141 81 -223t249 -82q147 0 268 67q75 40 110 -14q20 -30 11 -62.5t-49 -57.5q-155 -103 -366 -103zM663 1419q0 44 32.5 76.5t77.5 32.5t77.5 -32.5t32.5 -76.5q0 -46 -32.5 -78t-77.5 -32t-77.5 32t-32.5 78z " glyph-name="edotaccent" unicode="ė"/><glyph d="M636 -26h-47q-129 0 -129 -112.5t142 -112.5q30 0 45 -19.5t11 -46.5q-2 -29 -23 -47.5t-56 -18.5h-29q-35 0 -67.5 5.5t-66.5 20.5t-59 38t-41 61.5t-16 87.5q0 126 100 186q-111 45 -168 135t-57 209q0 160 95 266.5t235 132.5q-67 33 -103.5 95t-36.5 143 q0 154 125 246.5t337 92.5q81 0 144 -13.5t105.5 -48.5t42.5 -88q0 -27 -6.5 -61t-20.5 -72t-41 -63t-62 -25q-24 0 -41 10t-17 32q0 13 4.5 37t4.5 41q0 41 -31 57t-90 16q-120 0 -186.5 -48.5t-66.5 -132.5q0 -71 49 -116t148 -50q45 -3 66 -26t17 -61q-6 -82 -100 -82 q-174 0 -264 -66t-90 -183q0 -106 73.5 -165.5t219.5 -59.5q150 0 309 53q39 12 60 -6t20 -56q0 -70 -78 -110q-57 -30 -156 -52.5t-204 -22.5z" glyph-name="Eogonek" unicode="Ę"/><glyph d="M645 -26h-47q-129 0 -129 -112.5t142 -112.5q30 0 45 -19.5t12 -46.5q-2 -29 -23 -47.5t-57 -18.5h-29q-35 0 -67.5 5.5t-66.5 20.5t-59 38t-41 61.5t-16 87.5q0 126 101 186q-126 52 -192.5 161t-66.5 256q0 162 76.5 300t212 220.5t298.5 82.5q159 0 245 -74.5 t86 -182.5q0 -58 -26 -113.5t-80.5 -110t-150 -104.5t-223.5 -87q-125 -37 -151 38q-10 34 5.5 61t54.5 37q198 51 290 116t92 135q0 47 -40.5 79.5t-119.5 32.5q-69 0 -136.5 -29t-121.5 -81t-87.5 -131.5t-33.5 -172.5q0 -141 81 -223t249 -82q147 0 268 67q75 40 110 -14 q20 -30 11 -62.5t-49 -57.5q-155 -103 -366 -103z" glyph-name="eogonek" unicode="ę"/><glyph d="M636 -26q-220 0 -340.5 106t-120.5 280q0 160 95 266.5t235 132.5q-67 33 -103.5 95t-36.5 143q0 154 125 246.5t337 92.5q81 0 144 -13.5t105.5 -48.5t42.5 -88q0 -27 -6.5 -61t-20.5 -72t-41 -63t-62 -25q-24 0 -41 10t-17 32q0 13 4.5 37t4.5 41q0 41 -31 57t-90 16 q-120 0 -186.5 -48.5t-66.5 -132.5q0 -71 49 -116t148 -50q45 -3 66 -26t17 -61q-6 -82 -100 -82q-174 0 -264 -66t-90 -183q0 -106 73.5 -165.5t219.5 -59.5q150 0 309 53q39 12 60 -6t20 -56q0 -70 -78 -110q-57 -30 -156 -52.5t-204 -22.5zM480 1762q-16 24 -5.5 43.5 t40.5 19.5h92q41 0 69 -41l87 -127q9 -14 24.5 -14.5t29.5 14.5l121 127q40 41 80 41h101q31 0 36 -19.5t-17 -43.5l-202 -211q-42 -43 -105 -43h-115q-63 0 -92 43z" glyph-name="Ecaron" unicode="Ě"/><glyph d="M645 -26q-236 0 -365 125t-129 334q0 162 76.5 300t212 220.5t298.5 82.5q159 0 245 -74.5t86 -182.5q0 -58 -26 -113.5t-80.5 -110t-150 -104.5t-223.5 -87q-125 -37 -151 38q-10 34 5.5 61t54.5 37q198 51 290 116t92 135q0 47 -40.5 79.5t-119.5 32.5 q-69 0 -136.5 -29t-121.5 -81t-87.5 -131.5t-33.5 -172.5q0 -141 81 -223t249 -82q147 0 268 67q75 40 110 -14q20 -30 11 -62.5t-49 -57.5q-155 -103 -366 -103zM462 1465q-16 24 -5.5 43.5t40.5 19.5h92q41 0 68 -41l87 -127q9 -14 24.5 -14t30.5 14l121 127q40 41 79 41 h102q31 0 36 -19.5t-18 -43.5l-201 -211q-42 -43 -105 -43h-116q-63 0 -92 43z" glyph-name="ecaron" unicode="ě"/><glyph d="M654 -26q-115 0 -207.5 34t-162.5 102t-108.5 179.5t-38.5 259.5q0 119 24.5 230t79.5 213.5t135 178t199.5 120.5t266.5 45q56 0 110.5 -6t103 -19t76.5 -36t24 -53l-5 -41q-4 -32 -26 -48t-56 -11q-127 20 -211 21q-114 0 -204 -36t-146.5 -94t-94 -136.5t-52.5 -157.5 t-15 -164q0 -390 335 -390q105 0 166.5 44.5t77.5 156.5l25 180h-221q-66 0 -56 65l6 40q8 63 74 64h341q65 0 55 -66l-47 -341q-10 -75 -41.5 -133.5t-74 -95.5t-99 -61t-113.5 -34t-120 -10zM451 1571l201 211q42 43 105 43h115q63 0 93 -43l143 -211q16 -23 5.5 -43 t-40.5 -20h-92q-41 0 -69 41l-87 127q-9 13 -25 13.5t-29 -13.5l-121 -127q-40 -41 -80 -41h-101q-31 0 -36 19.5t18 43.5z" glyph-name="Gcircumflex" unicode="Ĝ"/><glyph d="M509 -219q-174 0 -297 53q-34 15 -46.5 45t1.5 67q14 32 44.5 42.5t63.5 -0.5q116 -36 232 -36q140 0 226 62t108 209l22 156q-71 -116 -161 -165.5t-202 -49.5q-161 0 -250.5 88t-89.5 260q0 104 34 197.5t100 167t172.5 116.5t241.5 43q160 0 278.5 -53.5t106.5 -128.5 q-7 -45 -50 -60.5t-93 6.5q-125 53 -256 53q-159 0 -248 -90t-89 -224q0 -105 54 -155t144 -50q210 0 327 264q35 78 107 78q52 0 77 -34t16 -93l-50 -356q-13 -92 -48 -164t-84 -118t-113.5 -76t-132.5 -42t-145 -12zM409 1274l201 211q42 43 105 43h115q63 0 93 -43 l143 -211q16 -23 5.5 -43t-40.5 -20h-92q-41 0 -69 41l-87 127q-9 13 -24.5 13.5t-29.5 -13.5l-121 -127q-40 -41 -80 -41h-101q-31 0 -36 19.5t18 43.5z" glyph-name="gcircumflex" unicode="ĝ"/><glyph d="M654 -26q-115 0 -207.5 34t-162.5 102t-108.5 179.5t-38.5 259.5q0 119 24.5 230t79.5 213.5t135 178t199.5 120.5t266.5 45q56 0 110.5 -6t103 -19t76.5 -36t24 -53l-5 -41q-4 -32 -26 -48t-56 -11q-127 20 -211 21q-114 0 -204 -36t-146.5 -94t-94 -136.5t-52.5 -157.5 t-15 -164q0 -390 335 -390q105 0 166.5 44.5t77.5 156.5l25 180h-221q-66 0 -56 65l6 40q8 63 74 64h341q65 0 55 -66l-47 -341q-10 -75 -41.5 -133.5t-74 -95.5t-99 -61t-113.5 -34t-120 -10zM492 1794q2 31 34 31h84q26 0 29 -29q4 -56 43 -94t108 -38q120 0 167 132 q9 29 37 29h90q32 0 26 -31q-26 -127 -110.5 -199.5t-218.5 -72.5q-138 0 -216 73.5t-73 198.5z" glyph-name="Gbreve" unicode="Ğ"/><glyph d="M509 -219q-174 0 -297 53q-34 15 -46.5 45t1.5 67q14 32 44.5 42.5t63.5 -0.5q116 -36 232 -36q140 0 226 62t108 209l22 156q-71 -116 -161 -165.5t-202 -49.5q-161 0 -250.5 88t-89.5 260q0 104 34 197.5t100 167t172.5 116.5t241.5 43q160 0 278.5 -53.5t106.5 -128.5 q-7 -45 -50 -60.5t-93 6.5q-125 53 -256 53q-159 0 -248 -90t-89 -224q0 -105 54 -155t144 -50q210 0 327 264q35 78 107 78q52 0 77 -34t16 -93l-50 -356q-13 -92 -48 -164t-84 -118t-113.5 -76t-132.5 -42t-145 -12zM451 1497q2 31 34 31h84q26 0 29 -29q4 -56 43 -94 t108 -38q120 0 167 132q9 29 37 29h90q32 0 26 -31q-26 -127 -110.5 -199.5t-218.5 -72.5q-138 0 -216 73.5t-73 198.5z" glyph-name="gbreve" unicode="ğ"/><glyph d="M654 -26q-115 0 -207.5 34t-162.5 102t-108.5 179.5t-38.5 259.5q0 119 24.5 230t79.5 213.5t135 178t199.5 120.5t266.5 45q56 0 110.5 -6t103 -19t76.5 -36t24 -53l-5 -41q-4 -32 -26 -48t-56 -11q-127 20 -211 21q-114 0 -204 -36t-146.5 -94t-94 -136.5t-52.5 -157.5 t-15 -164q0 -390 335 -390q105 0 166.5 44.5t77.5 156.5l25 180h-221q-66 0 -56 65l6 40q8 63 74 64h341q65 0 55 -66l-47 -341q-10 -75 -41.5 -133.5t-74 -95.5t-99 -61t-113.5 -34t-120 -10zM681 1716q0 44 32.5 76.5t78 32.5t77.5 -32.5t32 -76.5q0 -46 -32 -78 t-77.5 -32t-78 32t-32.5 78z" glyph-name="Gdotaccent" unicode="Ġ"/><glyph d="M509 -219q-174 0 -297 53q-34 15 -46.5 45t1.5 67q14 32 44.5 42.5t63.5 -0.5q116 -36 232 -36q140 0 226 62t108 209l22 156q-71 -116 -161 -165.5t-202 -49.5q-161 0 -250.5 88t-89.5 260q0 104 34 197.5t100 167t172.5 116.5t241.5 43q160 0 278.5 -53.5t106.5 -128.5 q-7 -45 -50 -60.5t-93 6.5q-125 53 -256 53q-159 0 -248 -90t-89 -224q0 -105 54 -155t144 -50q210 0 327 264q35 78 107 78q52 0 77 -34t16 -93l-50 -356q-13 -92 -48 -164t-84 -118t-113.5 -76t-132.5 -42t-145 -12zM640 1419q0 44 33 76.5t78 32.5t77 -32.5t32 -76.5 q0 -46 -32 -78t-77 -32t-78 32t-33 78z" glyph-name="gdotaccent" unicode="ġ"/><glyph d="M654 -26q-115 0 -207.5 34t-162.5 102t-108.5 179.5t-38.5 259.5q0 119 24.5 230t79.5 213.5t135 178t199.5 120.5t266.5 45q56 0 110.5 -6t103 -19t76.5 -36t24 -53l-5 -41q-4 -32 -26 -48t-56 -11q-127 20 -211 21q-114 0 -204 -36t-146.5 -94t-94 -136.5t-52.5 -157.5 t-15 -164q0 -390 335 -390q105 0 166.5 44.5t77.5 156.5l25 180h-221q-66 0 -56 65l6 40q8 63 74 64h341q65 0 55 -66l-47 -341q-10 -75 -41.5 -133.5t-74 -95.5t-99 -61t-113.5 -34t-120 -10zM318 -222l4 29q4 33 27.5 52.5t57.5 19.5h189q125 0 192.5 -79.5t50.5 -205.5 l-33 -232q-4 -32 -27.5 -51t-57.5 -19h-27q-34 0 -52 19t-14 51l25 178q12 85 -22.5 126t-119.5 41h-129q-34 0 -51 19t-13 52z" glyph-name="Gcommaaccent" unicode="Ģ"/><glyph d="M509 -219q-174 0 -297 53q-34 15 -46.5 45t1.5 67q14 32 44.5 42.5t63.5 -0.5q116 -36 232 -36q140 0 226 62t108 209l22 156q-71 -116 -161 -165.5t-202 -49.5q-161 0 -250.5 88t-89.5 260q0 104 34 197.5t100 167t172.5 116.5t241.5 43q160 0 278.5 -53.5t106.5 -128.5 q-7 -45 -50 -60.5t-93 6.5q-125 53 -256 53q-159 0 -248 -90t-89 -224q0 -105 54 -155t144 -50q210 0 327 264q35 78 107 78q52 0 77 -34t16 -93l-50 -356q-13 -92 -48 -164t-84 -118t-113.5 -76t-132.5 -42t-145 -12zM431 1459l33 233q4 32 27.5 50.5t57.5 18.5h26 q34 0 52 -19t14 -50l-26 -179q-25 -167 143 -166h129q34 0 51 -18.5t13 -51.5l-4 -31q-4 -33 -27 -51.5t-57 -18.5h-190q-124 0 -191.5 79t-50.5 204z" glyph-name="gcommaaccent" unicode="ģ"/><glyph d="M902 0q-41 0 -60.5 22.5t-14.5 63.5l51 359h-471l-53 -372q-10 -75 -86 -75h-48q-41 0 -60.5 22.5t-14.5 63.5l52 361h-45q-42 0 -61.5 22t-14.5 63l5 32q11 74 86 74h56l84 598q10 75 86 75h47q42 0 61.5 -22.5t13.5 -63.5l-82 -587h472l84 600q10 75 86 75h47 q42 0 61.5 -22.5t14.5 -63.5l-163 -1150q-10 -75 -85 -75h-48zM454 1591l201 211q42 43 105 43h116q63 0 92 -43l143 -211q16 -23 5.5 -42.5t-40.5 -19.5h-92q-41 0 -69 41l-87 127q-9 13 -24.5 13t-29.5 -13l-121 -127q-40 -41 -80 -41h-101q-31 0 -36 19t18 43z" glyph-name="Hcircumflex" unicode="Ĥ"/><glyph d="M186 0q-41 0 -60.5 22.5t-13.5 63.5l161 1150q11 75 86 75h44q41 0 60.5 -22.5t14.5 -63.5l-109 -757l32 55q164 283 281 398.5t238 115.5q116 0 168.5 -83t28.5 -223l-80 -481q-5 -32 -7.5 -61t-3 -43.5t0 -35.5t0.5 -24q0 -46 -18.5 -66t-64.5 -20q-156 0 -119 219 l66 389q9 56 13 91.5t2 69t-15 49t-38 15.5q-47 0 -106.5 -56t-137.5 -182t-121.5 -203.5t-130.5 -241.5q-27 -50 -40 -75q-22 -41 -41.5 -58t-53.5 -17h-36zM111 1571l201 211q42 43 105 43h115q63 0 93 -43l143 -211q16 -23 5.5 -43t-40.5 -20h-92q-41 0 -69 41l-87 127 q-9 13 -25 13.5t-29 -13.5l-121 -127q-40 -41 -80 -41h-101q-31 0 -36 19.5t18 43.5z" glyph-name="hcircumflex" unicode="ĥ"/><glyph d="M902 0q-41 0 -60.5 22.5t-14.5 63.5l51 359h-471l-53 -372q-10 -75 -86 -75h-48q-41 0 -60.5 22.5t-14.5 63.5l52 361h-45q-42 0 -61.5 22t-14.5 63l5 32q11 74 86 74h56l84 598q10 75 86 75h47q42 0 61.5 -22.5t13.5 -63.5l-37 -260h472l39 273q10 75 86 75h47 q42 0 61.5 -22.5t14.5 -63.5l-163 -1150q-10 -75 -85 -75h-48zM433 636h472l23 165h-472z" glyph-name="Hbar" unicode="Ħ"/><glyph d="M140 1130q-14 0 -21 9t-5 22l4 34q5 31 35 31h119l1 10q11 75 86 75h44q41 0 60.5 -22.5t14.5 -62.5h352q14 0 21.5 -9t5.5 -22l-4 -34q-5 -31 -35 -31h-353l-96 -662l32 55q164 283 281 398.5t238 115.5q116 0 168.5 -83t28.5 -223l-80 -481q-5 -32 -7.5 -61t-3 -43.5 t0 -35.5t0.5 -24q0 -46 -18.5 -66t-64.5 -20q-156 0 -119 219l66 389q9 56 13 91.5t2 69t-15 49t-38 15.5q-47 0 -106.5 -56t-137.5 -182t-121.5 -203.5t-130.5 -241.5q-27 -50 -40 -75q-22 -41 -41.5 -58t-53.5 -17h-36q-41 0 -60.5 22.5t-13.5 63.5l147 1044h-119z" glyph-name="hbar" unicode="ħ"/><glyph d="M484 -26q-41 0 -78.5 5.5t-78 18t-64.5 40t-24 65.5q0 37 22.5 62.5t72.5 25.5q19 0 71.5 -9.5t84.5 -9.5q48 0 87.5 13.5t71.5 48t55.5 68.5t45 101t35.5 116.5t31 145t26 157.5t25 179l5 37q8 61 -11 84t-83 23q-130 0 -241.5 -73t-161.5 -198q-17 -40 -39.5 -61.5 t-64.5 -21.5t-65.5 25.5t-23.5 73.5q0 68 46.5 145.5t125 144.5t197 111.5t248.5 44.5h42q81 0 133.5 -21t78 -61t32 -98t-5.5 -134l-5 -37q-20 -152 -40 -265.5t-48 -223.5t-59.5 -187.5t-74.5 -144t-96.5 -106.5t-121 -62t-150.5 -22zM400.5 1549.5q-10.5 27.5 3 55.5 t43.5 43l207 101q33 16 58.5 15t51.5 -20l95 -74q32 -24 70 -5l143 71q30 14 60 3.5t42 -39.5q10 -28 -3 -56t-43 -42l-208 -103q-34 -16 -58 -15t-51 21l-97 74q-29 23 -68 4l-144 -70q-30 -14 -60.5 -2.5t-41 39z" glyph-name="Itilde" unicode="Ĩ"/><glyph d="M798 -27q-59 0 -111 12.5t-102 41t-81 76.5t-46.5 118t2.5 165l58 358q8 51 -11.5 74.5t-70.5 23.5h-173q-40 0 -61 23.5t-14 66.5q11 82 88 82h268q103 0 152 -58t33 -160l-63 -392q-11 -60 -4 -103.5t20.5 -71.5t40 -44.5t52.5 -22.5t58 -6q82 0 180 52q37 17 64.5 11 t42.5 -34q15 -26 9.5 -57.5t-28.5 -51.5q-48 -43 -127.5 -73t-175.5 -30zM297 1252.5q-10 27.5 3 55.5t44 43l207 101q33 16 58.5 15t50.5 -20l96 -74q32 -24 69 -5l144 71q30 14 60 3.5t41 -39.5q10 -28 -2.5 -56t-42.5 -42l-209 -103q-34 -16 -58 -15t-50 21l-98 74 q-29 23 -67 4l-145 -69q-30 -14 -60.5 -3t-40.5 38.5z" glyph-name="itilde" unicode="ĩ"/><glyph d="M484 -26q-41 0 -78.5 5.5t-78 18t-64.5 40t-24 65.5q0 37 22.5 62.5t72.5 25.5q19 0 71.5 -9.5t84.5 -9.5q48 0 87.5 13.5t71.5 48t55.5 68.5t45 101t35.5 116.5t31 145t26 157.5t25 179l5 37q8 61 -11 84t-83 23q-130 0 -241.5 -73t-161.5 -198q-17 -40 -39.5 -61.5 t-64.5 -21.5t-65.5 25.5t-23.5 73.5q0 68 46.5 145.5t125 144.5t197 111.5t248.5 44.5h42q81 0 133.5 -21t78 -61t32 -98t-5.5 -134l-5 -37q-20 -152 -40 -265.5t-48 -223.5t-59.5 -187.5t-74.5 -144t-96.5 -106.5t-121 -62t-150.5 -22zM467 1664l6 41q4 29 24 44.5t49 15.5 h503q29 0 44 -15.5t11 -44.5l-6 -41q-4 -29 -24 -44.5t-49 -15.5h-503q-29 0 -44 15.5t-11 44.5z" glyph-name="Imacron" unicode="Ī"/><glyph d="M798 -27q-59 0 -111 12.5t-102 41t-81 76.5t-46.5 118t2.5 165l58 358q8 51 -11.5 74.5t-70.5 23.5h-173q-40 0 -61 23.5t-14 66.5q11 82 88 82h268q103 0 152 -58t33 -160l-63 -392q-11 -60 -4 -103.5t20.5 -71.5t40 -44.5t52.5 -22.5t58 -6q82 0 180 52q37 17 64.5 11 t42.5 -34q15 -26 9.5 -57.5t-28.5 -51.5q-48 -43 -127.5 -73t-175.5 -30zM365 1367l6 41q4 29 24 44.5t48 15.5h503q29 0 44.5 -15.5t10.5 -44.5l-6 -41q-4 -29 -24 -44.5t-48 -15.5h-503q-29 0 -44 15.5t-11 44.5z" glyph-name="imacron" unicode="ī"/><glyph d="M484 -26h-1h-47q-129 0 -129 -112.5t143 -112.5q30 0 44.5 -19.5t11.5 -46.5q-2 -29 -23 -47.5t-57 -18.5h-29q-35 0 -67.5 5.5t-66.5 20.5t-59 38t-41 61.5t-16 87.5q0 141 124 200q-33 28 -32 73q0 37 22.5 62.5t72.5 25.5q19 0 71.5 -9.5t84.5 -9.5q48 0 87.5 13.5 t71.5 48t55.5 68.5t45 101t35.5 116.5t31 145t26 157.5t25 179l5 37q8 61 -11 84t-83 23q-130 0 -241.5 -73t-161.5 -198q-17 -40 -39.5 -61.5t-64.5 -21.5t-65.5 25.5t-23.5 73.5q0 68 46.5 145.5t125 144.5t197 111.5t248.5 44.5h42q81 0 133.5 -21t78 -61t32 -98 t-5.5 -134l-5 -37q-20 -152 -40 -265.5t-48 -223.5t-59.5 -187.5t-74.5 -144t-96.5 -106.5t-121 -62t-150.5 -22z" glyph-name="Iogonek" unicode="Į"/><glyph d="M798 -27h-47q-129 0 -129 -112.5t142 -112.5q30 0 44.5 -19.5t11.5 -46.5q-2 -29 -23 -47.5t-57 -18.5h-28q-35 0 -68 5.5t-66.5 20.5t-58.5 38t-41 61.5t-16 87.5q0 139 122 198q-164 102 -124 359l58 358q8 51 -11.5 74.5t-70.5 23.5h-173q-40 0 -61 23.5t-14 66.5 q11 82 88 82h268q103 0 152 -58t33 -160l-63 -392q-11 -60 -4 -103.5t20.5 -71.5t40 -44.5t52.5 -22.5t58 -6q82 0 180 52q37 17 64.5 11t42.5 -34q15 -26 9.5 -57.5t-28.5 -51.5q-48 -43 -127.5 -73t-175.5 -30zM579 1419q0 44 32.5 76.5t77.5 32.5t77.5 -32.5t32.5 -76.5 q0 -46 -32.5 -78t-77.5 -32t-77.5 32t-32.5 78z" glyph-name="iogonek" unicode="į"/><glyph d="M484 -26q-41 0 -78.5 5.5t-78 18t-64.5 40t-24 65.5q0 37 22.5 62.5t72.5 25.5q19 0 71.5 -9.5t84.5 -9.5q48 0 87.5 13.5t71.5 48t55.5 68.5t45 101t35.5 116.5t31 145t26 157.5t25 179l5 37q8 61 -11 84t-83 23q-130 0 -241.5 -73t-161.5 -198q-17 -40 -39.5 -61.5 t-64.5 -21.5t-65.5 25.5t-23.5 73.5q0 68 46.5 145.5t125 144.5t197 111.5t248.5 44.5h42q81 0 133.5 -21t78 -61t32 -98t-5.5 -134l-5 -37q-20 -152 -40 -265.5t-48 -223.5t-59.5 -187.5t-74.5 -144t-96.5 -106.5t-121 -62t-150.5 -22zM681 1716q0 44 32.5 76.5t78 32.5 t77.5 -32.5t32 -76.5q0 -46 -32 -78t-77.5 -32t-78 32t-32.5 78z" glyph-name="Idotaccent" unicode="İ"/><glyph d="M798 -27q-59 0 -111 12.5t-102 41t-81 76.5t-46.5 118t2.5 165l58 358q8 51 -11.5 74.5t-70.5 23.5h-173q-40 0 -61 23.5t-14 66.5q11 82 88 82h268q103 0 152 -58t33 -160l-63 -392q-11 -60 -4 -103.5t20.5 -71.5t40 -44.5t52.5 -22.5t58 -6q82 0 180 52q37 17 64.5 11 t42.5 -34q15 -26 9.5 -57.5t-28.5 -51.5q-48 -43 -127.5 -73t-175.5 -30z" glyph-name="dotlessi" unicode="ı"/><glyph d="M612 -18q-73 0 -127 14.5t-81 48.5t-7 83l5 12q27 62 85 51q83 -15 123 -15q132 0 230.5 88.5t124.5 266.5l83 589h-407q-43 0 -66.5 21t-17.5 63l5 31q12 76 101 76h508q50 0 77.5 -32t20.5 -85l-94 -674q-19 -139 -73 -245t-131 -169t-167.5 -93.5t-191.5 -30.5zM29 86 l160 1150q10 75 86 75h48q41 0 60.5 -22.5t14.5 -63.5l-160 -1150q-12 -75 -86 -75h-49q-41 0 -60.5 22.5t-13.5 63.5z" glyph-name="IJ" unicode="Ĳ"/><glyph d="M182 152q-42 0 -61.5 22.5t-12.5 63.5l96 681q9 75 86 74h40q41 0 61 -22.5t13 -63.5l-96 -682q-11 -74 -86 -73h-40zM225 1325q0 57 40.5 97.5t98 40.5t97.5 -40.5t40 -97.5t-40 -97.5t-97.5 -40.5t-98 40.5t-40.5 97.5zM302 32q13 32 42.5 43t64.5 0q108 -37 194 -37 q53 0 98 14t87 46t71.5 92.5t41.5 145.5l54 388q8 52 -10.5 74.5t-71.5 22.5h-203q-40 0 -61 23.5t-14 66.5q11 82 88 82h298q102 0 150.5 -57.5t33.5 -160.5l-62 -452q-14 -104 -51 -186t-85 -132t-110.5 -82.5t-123 -44.5t-127.5 -12q-145 0 -253 51q-34 16 -49.5 48.5 t-1.5 66.5zM988 1325q0 59 41 100t99 41q59 0 100.5 -41t41.5 -100t-41 -100t-101 -41q-58 0 -99 41t-41 100z" glyph-name="ij" unicode="ĳ"/><glyph d="M504 -26q-183 0 -288 90t-105 252q0 61 14.5 114.5t56 108t107 93t175.5 62.5t254 24q48 0 112 -3l58 415h-102q-122 0 -183.5 -32t-62.5 -121q0 -22 -1.5 -33t-8 -29t-23.5 -26.5t-43 -8.5q-55 0 -85 38.5t-30 102.5q0 124 101 207t299 83h256q48 0 78 -34.5t23 -82.5 l-69 -500q22 -3 76 -11q51 -8 76.5 -34.5t19.5 -67.5q-5 -43 -35.5 -65t-77.5 -13q-55 10 -83 14l-9 -66q-31 -223 -156.5 -350t-343.5 -127zM318 334q0 -83 54 -123.5t145 -40.5q132 0 196.5 82t86.5 238l7 51q-52 4 -112 4q-377 0 -377 -211zM451 1571l201 211 q42 43 105 43h115q63 0 93 -43l143 -211q16 -23 5.5 -43t-40.5 -20h-92q-41 0 -69 41l-87 127q-9 13 -25 13.5t-29 -13.5l-121 -127q-40 -41 -80 -41h-101q-31 0 -36 19.5t18 43.5z" glyph-name="Jcircumflex" unicode="Ĵ"/><glyph d="M416 -134q-142 0 -250 51q-34 17 -50 49t-1 66q13 32 42.5 43t63.5 0q108 -37 196 -37q53 0 97.5 14t86.5 46t71 92.5t42 145.5l57 408q8 52 -11 75t-71 23h-204q-40 0 -61 23.5t-13 66.5q11 82 88 82h298q102 0 150.5 -58t34.5 -160l-66 -473q-14 -104 -51.5 -186 t-86 -132t-111.5 -82.5t-123.5 -44.5t-127.5 -12zM406 1274l201 211q42 43 105 43h115q63 0 93 -43l143 -211q16 -23 5.5 -43t-40.5 -20h-92q-41 0 -69 41l-87 127q-9 13 -25 13.5t-29 -13.5l-121 -127q-40 -41 -80 -41h-101q-31 0 -36 19.5t18 43.5z" glyph-name="jcircumflex" unicode="ĵ"/><glyph d="M1147 1311q46 0 56.5 -31.5t-24.5 -68.5q-281 -275 -470 -511l360 -604q25 -41 9 -68.5t-64 -27.5h-55q-63 0 -97 55l-182 303q-72 120 -95 184q-166 -233 -283 -467q-19 -38 -40 -56.5t-59 -18.5h-27q-44 0 -65.5 27.5t-15.5 72.5l158 1136q10 75 86 75h47 q40 0 60.5 -20.5t15.5 -56.5l-110 -780q93 194 268.5 418.5t341.5 378.5q62 59 129 60h56zM318 -222l4 29q4 33 27.5 52.5t57.5 19.5h189q125 0 192.5 -79.5t50.5 -205.5l-33 -232q-4 -32 -27.5 -51t-57.5 -19h-27q-34 0 -52 19t-14 51l25 178q12 85 -22.5 126t-119.5 41 h-129q-34 0 -51 19t-13 52z" glyph-name="Kcommaaccent" unicode="Ķ"/><glyph d="M892 -26q-161 0 -273 108.5t-136 295.5q-13 100 110 126q122 23 204.5 88.5t82.5 152.5q0 50 -29.5 77.5t-86.5 27.5q-59 0 -121.5 -29t-119 -83.5t-99.5 -145t-58 -202.5l-45 -315q-9 -75 -87 -75h-39q-41 0 -60.5 22.5t-14.5 63.5l162 1150q11 75 86 75h40 q41 0 60.5 -22.5t14.5 -63.5l-59 -418q73 106 173.5 161.5t218.5 55.5q126 0 194 -61t68 -169q0 -151 -122.5 -268.5t-292.5 -143.5q20 -104 87 -167t168 -63q48 0 119 25q27 8 51 -5.5t34 -42.5q20 -58 -49.5 -106.5t-180.5 -48.5zM319 -222l4 29q4 33 27.5 52.5t57.5 19.5 h189q125 0 192.5 -79.5t50.5 -205.5l-33 -232q-4 -32 -27.5 -51t-57.5 -19h-27q-34 0 -52 19t-14 51l25 178q12 85 -22.5 126t-119.5 41h-129q-34 0 -51 19t-13 52z" glyph-name="kcommaaccent" unicode="ķ"/><glyph d="M905 -27q-82 0 -246.5 51.5t-240.5 51.5q-59 0 -108.5 -20.5t-85.5 -40.5t-61 -20q-33 0 -55.5 19t-22.5 55q0 35 25 66.5t54 67.5t35 77l85 600q34 241 147 348.5t307 107.5q162 0 252.5 -68.5t90.5 -180.5q0 -63 -29.5 -102t-84.5 -39q-45 0 -70.5 26.5t-27.5 70.5 q-2 43 -34.5 70.5t-103.5 27.5q-68 0 -114 -31t-82 -115t-57 -229l-62 -448q-7 -45 -24 -76q33 11 81 11q91 0 228 -45t220 -45q37 0 69.5 6.5t39.5 6.5q26 0 41 -19t15 -54q0 -62 -49 -96t-132 -34zM460 1623l119 200q35 54 92 54h50q32 0 44 -18t-4 -45l-120 -199 q-34 -55 -92 -55h-50q-32 0 -43.5 18t4.5 45z" glyph-name="Lacute" unicode="Ĺ"/><glyph d="M665 -26q-57 0 -109 11.5t-100.5 39.5t-81.5 70t-49 108.5t-7 150.5l-129 -41q-48 -15 -78.5 5t-25.5 58l2 19q5 39 24.5 61.5t60.5 35.5l175 51l34 222q22 139 60.5 245.5t84.5 171.5t104 106t113 56.5t116 15.5q257 0 257 -279q0 -67 -13 -128.5t-52 -137 t-101.5 -141.5t-170.5 -133t-251 -119l-4 -28q-11 -69 0.5 -119t39.5 -76.5t62 -39t75 -12.5q82 0 189 61q34 18 64 14t47 -32q17 -25 12 -56t-34 -54q-50 -42 -132.5 -74t-181.5 -32zM559 615q110 46 185.5 100t114 110.5t54 108t15.5 109.5q0 67 -21 100.5t-77 33.5 q-40 0 -74 -20.5t-68 -69t-62 -140.5t-49 -225zM769 1562l119 199q35 54 92 55h50q32 0 44 -18t-4 -46l-120 -199q-34 -55 -92 -55h-50q-32 0 -43.5 18.5t4.5 45.5z" glyph-name="lacute" unicode="ĺ"/><glyph d="M905 -27q-82 0 -246.5 51.5t-240.5 51.5q-59 0 -108.5 -20.5t-85.5 -40.5t-61 -20q-33 0 -55.5 19t-22.5 55q0 35 25 66.5t54 67.5t35 77l85 600q34 241 147 348.5t307 107.5q162 0 252.5 -68.5t90.5 -180.5q0 -63 -29.5 -102t-84.5 -39q-45 0 -70.5 26.5t-27.5 70.5 q-2 43 -34.5 70.5t-103.5 27.5q-68 0 -114 -31t-82 -115t-57 -229l-62 -448q-7 -45 -24 -76q33 11 81 11q91 0 228 -45t220 -45q37 0 69.5 6.5t39.5 6.5q26 0 41 -19t15 -54q0 -62 -49 -96t-132 -34zM318 -222l4 29q4 33 27.5 52.5t57.5 19.5h189q125 0 192.5 -79.5 t50.5 -205.5l-33 -232q-4 -32 -27.5 -51t-57.5 -19h-27q-34 0 -52 19t-14 51l25 178q12 85 -22.5 126t-119.5 41h-129q-34 0 -51 19t-13 52z" glyph-name="Lcommaaccent" unicode="Ļ"/><glyph d="M665 -26q-57 0 -109 11.5t-100.5 39.5t-81.5 70t-49 108.5t-7 150.5l-129 -41q-48 -15 -78.5 5t-25.5 58l2 19q5 39 24.5 61.5t60.5 35.5l175 51l34 222q22 139 60.5 245.5t84.5 171.5t104 106t113 56.5t116 15.5q257 0 257 -279q0 -67 -13 -128.5t-52 -137 t-101.5 -141.5t-170.5 -133t-251 -119l-4 -28q-11 -69 0.5 -119t39.5 -76.5t62 -39t75 -12.5q82 0 189 61q34 18 64 14t47 -32q17 -25 12 -56t-34 -54q-50 -42 -132.5 -74t-181.5 -32zM325 -222l3 29q4 33 27.5 52.5t57.5 19.5h189q125 0 192.5 -79.5t50.5 -205.5l-33 -232 q-4 -32 -27.5 -51t-57.5 -19h-27q-34 0 -52 19t-14 51l25 178q12 85 -22.5 126t-119.5 41h-129q-34 0 -50.5 19t-12.5 52zM559 615q110 46 185.5 100t114 110.5t54 108t15.5 109.5q0 67 -21 100.5t-77 33.5q-40 0 -74 -20.5t-68 -69t-62 -140.5t-49 -225z" glyph-name="lcommaaccent" unicode="ļ"/><glyph d="M874 -27q-82 0 -246.5 51.5t-240.5 51.5q-59 0 -108.5 -20.5t-85 -40.5t-61.5 -20q-33 0 -55.5 19t-22.5 55q0 35 25 66.5t54 67.5t35 77l85 600q34 241 147 348.5t308 107.5q162 0 252.5 -68.5t90.5 -180.5q0 -63 -30 -102t-85 -39q-45 0 -70 26.5t-27 70.5 q-2 43 -35 70.5t-104 27.5q-68 0 -113.5 -31t-82 -115t-57.5 -229l-62 -448q-7 -45 -24 -76q33 11 81 11q91 0 228 -45t220 -45q37 0 69.5 6.5t39.5 6.5q26 0 41.5 -19t15.5 -54q0 -62 -49.5 -96t-132.5 -34zM865 1594l4 30q4 31 27 50t55 19h186q121 0 187 -77.5t48 -199.5 l-32 -226q-4 -31 -27 -49.5t-56 -18.5h-25q-33 0 -51 18.5t-14 49.5l25 173q25 163 -138 163h-126q-33 0 -50 18t-13 50z" glyph-name="Lcaron" unicode="Ľ"/><glyph d="M624 -26q-57 0 -109 11.5t-100.5 39.5t-81.5 70t-49 108.5t-6 150.5l-130 -41q-48 -15 -78.5 5t-25.5 58l2 19q5 39 24.5 61.5t60.5 35.5l175 51l34 222q22 139 60.5 245.5t84.5 171.5t104 106t113 56.5t116 15.5q257 0 257 -279q0 -67 -13 -128.5t-52 -137 t-101.5 -141.5t-170.5 -133t-251 -119l-4 -28q-11 -69 0.5 -119t39.5 -76.5t62.5 -39t74.5 -12.5q82 0 189 61q34 18 64 14t48 -32q17 -25 11.5 -56t-34.5 -54q-50 -42 -132.5 -74t-181.5 -32zM518 615q110 46 185.5 100t114 110.5t54 108t15.5 109.5q0 67 -21 100.5 t-76 33.5q-40 0 -74.5 -20.5t-68.5 -69t-62 -140.5t-49 -225zM912 1630l3 29q4 31 26 49t53 18h178q117 0 180 -75.5t47 -194.5l-31 -221q-4 -31 -26 -49t-54 -18h-24q-32 0 -49 18t-13 49l24 169q23 160 -133 160h-121q-31 0 -47.5 17.5t-12.5 48.5z" glyph-name="lcaron" unicode="ľ"/><glyph d="M905 -27q-82 0 -246.5 51.5t-240.5 51.5q-59 0 -108.5 -20.5t-85.5 -40.5t-61 -20q-33 0 -55.5 19t-22.5 55q0 35 25 66.5t54 67.5t35 77l85 600q34 241 147 348.5t307 107.5q162 0 252.5 -68.5t90.5 -180.5q0 -63 -29.5 -102t-84.5 -39q-45 0 -70.5 26.5t-27.5 70.5 q-2 43 -34.5 70.5t-103.5 27.5q-68 0 -114 -31t-82 -115t-57 -229l-62 -448q-7 -45 -24 -76q33 11 81 11q91 0 228 -45t220 -45q37 0 69.5 6.5t39.5 6.5q26 0 41 -19t15 -54q0 -62 -49 -96t-132 -34zM652 605q0 81 56 137.5t138 56.5t138 -56t56 -138t-56 -138t-138 -56 q-81 0 -137.5 56t-56.5 138z" glyph-name="Ldot" unicode="Ŀ"/><glyph d="M632 -26q-57 0 -109 11.5t-100.5 39.5t-81.5 70t-49 108.5t-6 150.5l-129 -41q-48 -15 -79 5t-26 58l2 19q5 39 24.5 61.5t60.5 35.5l175 51l34 222q22 139 60.5 245.5t85 171.5t104 106t112.5 56.5t116 15.5q257 0 257 -279q0 -67 -13 -128.5t-52 -137t-101.5 -141.5 t-170.5 -133t-250 -119l-4 -28q-11 -69 0 -119t39 -76.5t62.5 -39t75.5 -12.5q82 0 188 61q34 18 64 14t48 -32q17 -25 11.5 -56t-34.5 -54q-50 -42 -132.5 -74t-181.5 -32zM526 615q110 46 185.5 100t114 110.5t54 108t15.5 109.5q0 67 -21 100.5t-76 33.5 q-40 0 -74.5 -20.5t-68 -69t-62 -140.5t-49.5 -225zM852 446q0 70 47 117t116.5 47t117.5 -47t48 -117q0 -69 -48 -116t-117 -47t-116.5 47t-47.5 116z" glyph-name="ldot" unicode="ŀ"/><glyph d="M110 407q-22 -11 -36.5 -2.5t-16.5 32.5v24q-1 35 30 51l157 83l40 285q34 241 147 348.5t307 107.5q162 0 252.5 -68.5t90.5 -180.5q0 -63 -29.5 -102t-84.5 -39q-45 0 -70.5 26.5t-27.5 70.5q-2 43 -34.5 70.5t-103.5 27.5q-68 0 -114 -31t-82 -115t-57 -229l-7 -50 l177 94q22 11 36 3t15 -32l1 -23q1 -35 -29 -51l-217 -116l-38 -273q-7 -45 -24 -76q33 11 81 11q91 0 228 -45t220 -45q37 0 69.5 6.5t39.5 6.5q26 0 41 -19t15 -54q0 -62 -49 -96t-132 -34q-82 0 -246.5 51.5t-240.5 51.5q-59 0 -108.5 -20.5t-85.5 -40.5t-61 -20 q-33 0 -55.5 19t-22.5 55q0 35 25 66.5t54 67.5t35 77l26 188z" glyph-name="Lslash" unicode="Ł"/><glyph d="M243 677q-20 -8 -31.5 1t-8.5 31l7 40q4 28 32 39l154 60q25 119 64 210.5t84 147.5t99.5 91.5t106.5 49t109 13.5q257 0 257 -279q0 -67 -13 -128.5t-52 -137t-101.5 -141.5t-170.5 -133t-251 -119l-4 -28q-11 -69 0.5 -119t39.5 -76.5t62 -39t75 -12.5q82 0 189 61 q34 18 64 14t47 -32q17 -25 12 -56t-34 -54q-50 -42 -132.5 -74t-181.5 -32q-57 0 -109 11.5t-100.5 39.5t-81.5 70t-49 108.5t-7 150.5l-129 -41q-48 -15 -78.5 5t-25.5 58l2 19q5 39 24.5 61.5t60.5 35.5l175 51l29 185zM559 615q110 46 185.5 100t114 110.5t54 108 t15.5 109.5q0 67 -21 100.5t-77 33.5q-63 0 -115 -54.5t-92 -186.5l117 45q19 7 31 -2t9 -30l-7 -40q-4 -30 -32 -39l-148 -57q-8 -37 -16 -91z" glyph-name="lslash" unicode="ł"/><glyph d="M871 0q-32 0 -52.5 14.5t-41.5 44.5q-108 156 -203.5 366.5t-148.5 428.5l-110 -779q-10 -75 -86 -75h-47q-41 0 -61 22.5t-15 63.5l163 1150q10 75 85 75h101q33 0 57 -14t24 -42q0 -227 88.5 -499t222.5 -509l139 989q10 75 86 75h47q41 0 61 -22.5t15 -63.5 l-163 -1150q-10 -75 -85 -75h-76zM699 1591l119 200q35 54 92 54h51q32 0 44 -18t-5 -45l-119 -199q-34 -55 -93 -55h-50q-32 0 -43.5 18t4.5 45z" glyph-name="Nacute" unicode="Ń"/><glyph d="M186 0q-41 0 -60.5 22.5t-13.5 63.5l119 853q11 75 86 75h44q42 0 61.5 -22.5t13.5 -63.5l-67 -468l26 49q163 291 282.5 409.5t242.5 118.5q116 0 168.5 -83t28.5 -223l-80 -481q-5 -32 -7.5 -61t-3 -43.5t0 -35.5t0.5 -24q0 -46 -18.5 -66t-64.5 -20q-156 0 -119 219 l66 389q9 56 13 91.5t2 69t-15 49t-38 15.5q-48 0 -108 -57.5t-139.5 -185.5t-123.5 -207t-131 -245q-23 -43 -34 -63q-22 -41 -41.5 -58t-53.5 -17h-36zM669 1274l118 200q35 54 93 54h50q32 0 44 -18t-4 -46l-120 -198q-34 -55 -92 -56h-50q-32 0 -43.5 18.5t4.5 45.5z " glyph-name="nacute" unicode="ń"/><glyph d="M871 0q-32 0 -52.5 14.5t-41.5 44.5q-108 156 -203.5 366.5t-148.5 428.5l-110 -779q-10 -75 -86 -75h-47q-41 0 -61 22.5t-15 63.5l163 1150q10 75 85 75h101q33 0 57 -14t24 -42q0 -227 88.5 -499t222.5 -509l139 989q10 75 86 75h47q41 0 61 -22.5t15 -63.5 l-163 -1150q-10 -75 -85 -75h-76zM318 -222l4 29q4 33 27.5 52.5t57.5 19.5h189q125 0 192.5 -79.5t50.5 -205.5l-33 -232q-4 -32 -27.5 -51t-57.5 -19h-27q-34 0 -52 19t-14 51l25 178q12 85 -22.5 126t-119.5 41h-129q-34 0 -51 19t-13 52z" glyph-name="Ncommaaccent" unicode="Ņ"/><glyph d="M186 0q-41 0 -60.5 22.5t-13.5 63.5l119 853q11 75 86 75h44q42 0 61.5 -22.5t13.5 -63.5l-67 -468l26 49q163 291 282.5 409.5t242.5 118.5q116 0 168.5 -83t28.5 -223l-80 -481q-5 -32 -7.5 -61t-3 -43.5t0 -35.5t0.5 -24q0 -46 -18.5 -66t-64.5 -20q-156 0 -119 219 l66 389q9 56 13 91.5t2 69t-15 49t-38 15.5q-48 0 -108 -57.5t-139.5 -185.5t-123.5 -207t-131 -245q-23 -43 -34 -63q-22 -41 -41.5 -58t-53.5 -17h-36zM325 -222l3 29q4 33 27.5 52.5t57.5 19.5h189q125 0 192.5 -79.5t50.5 -205.5l-33 -232q-4 -32 -27.5 -51t-57.5 -19 h-27q-34 0 -52 19t-14 51l25 178q12 85 -22.5 126t-119.5 41h-129q-34 0 -50.5 19t-12.5 52z" glyph-name="ncommaaccent" unicode="ņ"/><glyph d="M871 0q-32 0 -52.5 14.5t-41.5 44.5q-108 156 -203.5 366.5t-148.5 428.5l-110 -779q-10 -75 -86 -75h-47q-41 0 -61 22.5t-15 63.5l163 1150q10 75 85 75h101q33 0 57 -14t24 -42q0 -227 88.5 -499t222.5 -509l139 989q10 75 86 75h47q41 0 61 -22.5t15 -63.5 l-163 -1150q-10 -75 -85 -75h-76zM483 1783q-16 24 -5.5 43t40.5 19h92q41 0 69 -41l87 -127q9 -14 25 -14t29 14l121 127q40 41 80 41h101q31 0 36 -19.5t-17 -42.5l-202 -211q-42 -43 -104 -43h-116q-63 0 -92 43z" glyph-name="Ncaron" unicode="Ň"/><glyph d="M186 0q-41 0 -60.5 22.5t-13.5 63.5l119 853q11 75 86 75h44q42 0 61.5 -22.5t13.5 -63.5l-67 -468l26 49q163 291 282.5 409.5t242.5 118.5q116 0 168.5 -83t28.5 -223l-80 -481q-5 -32 -7.5 -61t-3 -43.5t0 -35.5t0.5 -24q0 -46 -18.5 -66t-64.5 -20q-156 0 -119 219 l66 389q9 56 13 91.5t2 69t-15 49t-38 15.5q-48 0 -108 -57.5t-139.5 -185.5t-123.5 -207t-131 -245q-23 -43 -34 -63q-22 -41 -41.5 -58t-53.5 -17h-36zM453 1465q-16 24 -5.5 43.5t39.5 19.5h93q41 0 68 -41l87 -127q9 -14 25 -14t30 14l120 127q40 41 80 41h102 q31 0 36 -19.5t-18 -43.5l-202 -211q-42 -43 -104 -43h-116q-63 0 -92 43z" glyph-name="ncaron" unicode="ň"/><glyph d="M548 -388q-33 0 -48.5 17t-11.5 48l10 69q8 58 65 58q122 0 187 50t79 152v2q-26 12 -52 51q-108 156 -203.5 366.5t-148.5 428.5l-110 -779q-10 -75 -86 -75h-47q-41 0 -61 22.5t-15 63.5l163 1150q10 75 85 75h101q33 0 57 -14t24 -42q0 -227 88.5 -499t222.5 -509 l139 989q10 75 86 75h47q41 0 61 -22.5t15 -63.5l-144 -1022l-30 -209q-28 -194 -144.5 -288t-328.5 -94z" glyph-name="Eng" unicode="Ŋ"/><glyph d="M520 -323q-137 0 -249 52q-34 16 -49.5 48.5t-1.5 64.5q13 32 43.5 44t64.5 0q115 -37 193 -37q249 0 291 298l61 447q17 127 -16.5 191t-106.5 64q-140 0 -268.5 -214t-177.5 -560q-9 -75 -86 -75h-40q-41 0 -61 22.5t-14 63.5l121 853q9 75 86 75h40q41 0 61 -22.5 t14 -63.5l-42 -295h14q83 201 197.5 302t244.5 101q136 0 204.5 -102.5t42.5 -285.5l-71 -514q-14 -104 -51 -185.5t-85.5 -131.5t-110.5 -82.5t-122 -45t-126 -12.5z" glyph-name="eng" unicode="ŋ"/><glyph d="M567 -26q-239 0 -356 172.5t-70 515.5q47 338 201.5 506t391.5 168q117 0 205 -41t147.5 -125.5t78.5 -214t-5 -307.5q-47 -337 -201 -505.5t-392 -168.5zM347 662q-17 -113 -10 -196t26.5 -139t56.5 -89t79 -47.5t94 -14.5q298 0 361 472q17 113 10.5 196.5t-25 138.5 t-55.5 89t-79.5 48.5t-94.5 14.5q-298 0 -363 -473zM476 1725l6 41q4 29 24 45t49 16h503q29 0 44 -16t11 -45l-6 -41q-4 -29 -24 -44.5t-49 -15.5h-503q-29 0 -44 15.5t-11 44.5z" glyph-name="Omacron" unicode="Ō"/><glyph d="M606 -26q-215 0 -344.5 137.5t-129.5 361.5q0 244 147 403.5t372 159.5q69 0 125.5 -14t90.5 -48.5t23 -82.5q-7 -33 -29 -45.5t-45 -11.5t-70.5 6.5t-77.5 5.5q-153 0 -245 -101t-92 -264q0 -152 80.5 -235t205.5 -83q134 0 221 90t87 209q0 48 -17 81.5t-34 58 t-17 50.5q0 42 29 65.5t70 23.5q71 0 117 -76t46 -191q0 -99 -37.5 -190t-103 -160t-162.5 -109.5t-210 -40.5zM435 1367l6 41q4 29 24 44.5t49 15.5h503q29 0 44 -15.5t11 -44.5l-6 -41q-4 -29 -24 -44.5t-49 -15.5h-503q-29 0 -44 15.5t-11 44.5z" glyph-name="omacron" unicode="ō"/><glyph d="M567 -26q-239 0 -356 172.5t-70 515.5q47 338 201.5 506t391.5 168q117 0 205 -41t147.5 -125.5t78.5 -214t-5 -307.5q-47 -337 -201 -505.5t-392 -168.5zM347 662q-17 -113 -10 -196t26.5 -139t56.5 -89t79 -47.5t94 -14.5q298 0 361 472q17 113 10.5 196.5t-25 138.5 t-55.5 89t-79.5 48.5t-94.5 14.5q-298 0 -363 -473zM516 1632l119 200q35 54 92 54h50q32 0 44.5 -18t-4.5 -45l-120 -199q-34 -55 -92 -55h-50q-32 0 -43.5 18t4.5 45zM846 1632l119 200q35 54 92 54h50q32 0 44 -18t-4 -45l-120 -199q-34 -55 -92 -55h-50q-32 0 -43.5 18 t4.5 45z" glyph-name="Ohungarumlaut" unicode="Ő"/><glyph d="M606 -26q-215 0 -344.5 137.5t-129.5 361.5q0 244 147 403.5t372 159.5q69 0 125.5 -14t90.5 -48.5t23 -82.5q-7 -33 -29 -45.5t-45 -11.5t-70.5 6.5t-77.5 5.5q-153 0 -245 -101t-92 -264q0 -152 80.5 -235t205.5 -83q134 0 221 90t87 209q0 48 -17 81.5t-34 58 t-17 50.5q0 42 29 65.5t70 23.5q71 0 117 -76t46 -191q0 -99 -37.5 -190t-103 -160t-162.5 -109.5t-210 -40.5zM475 1274l119 200q35 54 92 54h50q32 0 44.5 -18t-4.5 -46l-120 -198q-34 -55 -92 -56h-50q-32 0 -43.5 18.5t4.5 45.5zM805 1274l119 200q35 54 92 54h50 q32 0 44 -18t-4 -46l-120 -198q-34 -55 -92 -56h-50q-32 0 -43.5 18.5t4.5 45.5z" glyph-name="ohungarumlaut" unicode="ő"/><glyph d="M538 0q-93 0 -161.5 13t-122.5 43.5t-86.5 81t-49.5 127t-15.5 179t21.5 237.5q29 203 76 336t122 212.5t172.5 111t236.5 31.5h518q30 0 27 -31l-19 -129q-5 -31 -34 -30h-308l-55 -389h261q30 0 27 -31l-19 -129q-5 -31 -34 -31h-261l-59 -412h310q14 0 21 -8t5 -22 l-17 -129q-5 -31 -36 -31h-520zM329 681q-13 -95 -17.5 -167t-1 -124.5t18.5 -88t34 -57.5t52.5 -33t66.5 -14.5t82 -3.5l141 987q-57 0 -98 -7t-80.5 -26t-67 -53t-53 -89.5t-44 -134.5t-33.5 -189z" glyph-name="OE" unicode="Œ"/><glyph d="M321 -26q-108 0 -174.5 68.5t-84 186.5t2.5 276q35 245 134.5 388t257.5 143q178 0 239 -179q106 179 287 179q121 0 180.5 -75t59.5 -187q0 -169 -128 -292t-379 -144q4 -96 43.5 -146.5t125.5 -50.5q82 0 154 47q48 30 75 -8l10 -14q31 -43 -9 -83q-106 -109 -265 -109 q-190 0 -250 176q-107 -176 -279 -176zM222 505q-24 -169 7.5 -261.5t112.5 -92.5q80 0 135 92t79 262q24 169 -7.5 261.5t-112.5 92.5q-80 0 -135 -92t-79 -262zM725 488q168 15 251.5 87.5t83.5 172.5q0 50 -24.5 80.5t-78.5 30.5q-182 0 -230 -355q0 -2 -1 -7.5t-1 -8.5z " glyph-name="oe" unicode="œ"/><glyph d="M138 0q-46 0 -69.5 30t-16.5 86l58 442q23 170 66.5 303t101.5 221t132.5 146t155.5 83t174 25q191 0 295 -99t104 -258q0 -170 -118.5 -288t-322.5 -149l357 -454q35 -46 13.5 -85t-78.5 -39h-8q-46 0 -72 18.5t-52 55.5l-387 515q-23 32 -19 69q7 66 93 73 q201 16 296 82t95 184q0 97 -56.5 141t-146.5 44q-343 0 -424 -651l-48 -393q-7 -53 -30 -77.5t-66 -24.5h-27zM696 1571l119 199q35 54 92 55h50q32 0 44.5 -18t-4.5 -46l-119 -198q-34 -55 -93 -56h-50q-32 0 -43.5 18.5t4.5 45.5z" glyph-name="Racute" unicode="Ŕ"/><glyph d="M956 -20q-102 0 -151 69.5t-29 192.5l88 530l-174 1q-150 1 -254 21l-65 -398q-7 -41 -34 -65.5t-69 -24.5q-48 0 -74 33.5t-17 85.5l77 439q-71 51 -71 132q0 61 37 102t98 41q53 0 90 -31t37 -76q0 -51 36.5 -65.5t149.5 -15.5h343q53 0 75 -30t15 -75l-95 -588 q-7 -48 9 -77.5t60 -29.5q18 0 25.5 -0.5t19 -5.5t16 -16.5t4.5 -32.5q0 -59 -42.5 -87.5t-104.5 -28.5zM654 1274l119 200q35 54 92 54h50q32 0 44.5 -18t-4.5 -46l-119 -198q-34 -55 -93 -56h-50q-32 0 -43.5 18.5t4.5 45.5z" glyph-name="racute" unicode="ŕ"/><glyph d="M138 0q-46 0 -69.5 30t-16.5 86l58 442q23 170 66.5 303t101.5 221t132.5 146t155.5 83t174 25q191 0 295 -99t104 -258q0 -170 -118.5 -288t-322.5 -149l357 -454q35 -46 13.5 -85t-78.5 -39h-8q-46 0 -72 18.5t-52 55.5l-387 515q-23 32 -19 69q7 66 93 73 q201 16 296 82t95 184q0 97 -56.5 141t-146.5 44q-343 0 -424 -651l-48 -393q-7 -53 -30 -77.5t-66 -24.5h-27zM318 -222l4 29q4 33 27.5 52.5t57.5 19.5h189q125 0 192.5 -79.5t50.5 -205.5l-33 -232q-4 -32 -27.5 -51t-57.5 -19h-27q-34 0 -52 19t-14 51l25 178 q12 85 -22.5 126t-119.5 41h-129q-34 0 -51 19t-13 52z" glyph-name="Rcommaaccent" unicode="Ŗ"/><glyph d="M956 -20q-102 0 -151 69.5t-29 192.5l88 530l-174 1q-150 1 -254 21l-65 -398q-7 -41 -34 -65.5t-69 -24.5q-48 0 -74 33.5t-17 85.5l77 439q-71 51 -71 132q0 61 37 102t98 41q53 0 90 -31t37 -76q0 -51 36.5 -65.5t149.5 -15.5h343q53 0 75 -30t15 -75l-95 -588 q-7 -48 9 -77.5t60 -29.5q18 0 25.5 -0.5t19 -5.5t16 -16.5t4.5 -32.5q0 -59 -42.5 -87.5t-104.5 -28.5zM318 -222l4 29q4 33 27.5 52.5t57.5 19.5h189q125 0 192.5 -79.5t50.5 -205.5l-33 -232q-4 -32 -27.5 -51t-57.5 -19h-27q-34 0 -52 19t-14 51l25 178q12 85 -22.5 126 t-119.5 41h-129q-34 0 -51 19t-13 52z" glyph-name="rcommaaccent" unicode="ŗ"/><glyph d="M138 0q-46 0 -69.5 30t-16.5 86l58 442q23 170 66.5 303t101.5 221t132.5 146t155.5 83t174 25q191 0 295 -99t104 -258q0 -170 -118.5 -288t-322.5 -149l357 -454q35 -46 13.5 -85t-78.5 -39h-8q-46 0 -72 18.5t-52 55.5l-387 515q-23 32 -19 69q7 66 93 73 q201 16 296 82t95 184q0 97 -56.5 141t-146.5 44q-343 0 -424 -651l-48 -393q-7 -53 -30 -77.5t-66 -24.5h-27zM480 1762q-16 24 -5.5 43.5t40.5 19.5h92q41 0 69 -41l87 -127q9 -14 24.5 -14.5t29.5 14.5l121 127q40 41 80 41h101q31 0 36 -19.5t-17 -43.5l-202 -211 q-42 -43 -105 -43h-115q-63 0 -92 43z" glyph-name="Rcaron" unicode="Ř"/><glyph d="M956 -20q-102 0 -151 69.5t-29 192.5l88 530l-174 1q-150 1 -254 21l-65 -398q-7 -41 -34 -65.5t-69 -24.5q-48 0 -74 33.5t-17 85.5l77 439q-71 51 -71 132q0 61 37 102t98 41q53 0 90 -31t37 -76q0 -51 36.5 -65.5t149.5 -15.5h343q53 0 75 -30t15 -75l-95 -588 q-7 -48 9 -77.5t60 -29.5q18 0 25.5 -0.5t19 -5.5t16 -16.5t4.5 -32.5q0 -59 -42.5 -87.5t-104.5 -28.5zM438 1465q-16 24 -5.5 43.5t40.5 19.5h92q41 0 69 -41l87 -127q9 -14 25 -14t29 14l121 127q40 41 80 41h101q31 0 36 -19.5t-17 -43.5l-202 -211q-42 -43 -104 -43 h-116q-63 0 -92 43z" glyph-name="rcaron" unicode="ř"/><glyph d="M579 -26q-208 0 -345 64t-137 149q0 49 41.5 73t90.5 -2q169 -97 365 -97q120 0 184.5 39.5t64.5 115.5q0 48 -29.5 92.5t-76 81t-103 74t-113 79.5t-103 89t-76 112t-29.5 140q0 163 118.5 257.5t292.5 94.5q110 0 202.5 -37.5t150.5 -113.5t58 -174q0 -142 -118 -143 q-41 0 -57 17.5t-16 49.5q0 101 -57 157.5t-165 56.5q-95 0 -151.5 -43t-56.5 -121q0 -53 29.5 -101t78 -86.5t105.5 -76.5t115 -80t106 -88t78 -110t30 -137q0 -159 -123 -245.5t-354 -86.5zM696 1571l119 199q35 54 92 55h50q32 0 44.5 -18t-4.5 -46l-119 -198 q-34 -55 -93 -56h-50q-32 0 -43.5 18.5t4.5 45.5z" glyph-name="Sacute" unicode="Ś"/><glyph d="M633 -26q-126 0 -252 28t-205 71q-60 34 -82.5 72.5t-7.5 73.5q14 33 47 42.5t73 -6.5q232 -103 432 -103q141 0 206 50t65 129q0 43 -19 91t-47.5 94.5t-57.5 95t-53.5 108.5t-32.5 119l-199 -277q-41 -56 -97.5 -50t-74.5 53t14 102l232 310q26 35 53.5 47.5t67.5 12.5 h46q48 0 85.5 -20t37.5 -51q0 -7 -5 -24.5t-5 -33.5q0 -52 39.5 -126.5t86 -141t86 -157t39.5 -171.5q0 -67 -25.5 -124.5t-79.5 -106.5t-148 -78t-219 -29zM631 1274l119 200q35 54 92 54h50q32 0 44 -18t-4 -46l-120 -198q-34 -55 -92 -56h-50q-32 0 -43.5 18.5t4.5 45.5z " glyph-name="sacute" unicode="ś"/><glyph d="M579 -26q-208 0 -345 64t-137 149q0 49 41.5 73t90.5 -2q169 -97 365 -97q120 0 184.5 39.5t64.5 115.5q0 48 -29.5 92.5t-76 81t-103 74t-113 79.5t-103 89t-76 112t-29.5 140q0 163 118.5 257.5t292.5 94.5q110 0 202.5 -37.5t150.5 -113.5t58 -174q0 -142 -118 -143 q-41 0 -57 17.5t-16 49.5q0 101 -57 157.5t-165 56.5q-95 0 -151.5 -43t-56.5 -121q0 -53 29.5 -101t78 -86.5t105.5 -76.5t115 -80t106 -88t78 -110t30 -137q0 -159 -123 -245.5t-354 -86.5zM451 1571l201 211q42 43 105 43h115q63 0 93 -43l143 -211q16 -23 5.5 -43 t-40.5 -20h-92q-41 0 -69 41l-87 127q-9 13 -25 13.5t-29 -13.5l-121 -127q-40 -41 -80 -41h-101q-31 0 -36 19.5t18 43.5z" glyph-name="Scircumflex" unicode="Ŝ"/><glyph d="M633 -26q-126 0 -252 28t-205 71q-60 34 -82.5 72.5t-7.5 73.5q14 33 47 42.5t73 -6.5q232 -103 432 -103q141 0 206 50t65 129q0 43 -19 91t-47.5 94.5t-57.5 95t-53.5 108.5t-32.5 119l-199 -277q-41 -56 -97.5 -50t-74.5 53t14 102l232 310q26 35 53.5 47.5t67.5 12.5 h46q48 0 85.5 -20t37.5 -51q0 -7 -5 -24.5t-5 -33.5q0 -52 39.5 -126.5t86 -141t86 -157t39.5 -171.5q0 -67 -25.5 -124.5t-79.5 -106.5t-148 -78t-219 -29zM384 1274l202 211q42 43 104 43h116q63 0 92 -43l143 -211q16 -23 5.5 -43t-39.5 -20h-93q-41 0 -68 41l-87 127 q-9 13 -24.5 13.5t-29.5 -13.5l-121 -127q-40 -41 -80 -41h-102q-31 0 -36 19.5t18 43.5z" glyph-name="scircumflex" unicode="ŝ"/><glyph d="M350 -437q-18 3 -15 22l10 73q4 24 26 20q76 -10 132 10.5t56 69.5q0 38 -48 54t-121 -11q-11 -4 -17.5 -0.5t-4.5 15.5l10 71q1 12 13 25l76 68q-165 17 -267.5 76.5t-102.5 130.5q0 49 41.5 73t90.5 -2q169 -97 365 -97q120 0 184.5 39.5t64.5 115.5q0 48 -29.5 92.5 t-76 81t-103 74t-113 79.5t-103 89t-76 112t-29.5 140q0 163 118.5 257.5t292.5 94.5q110 0 202.5 -37.5t150.5 -113.5t58 -174q0 -142 -118 -143q-41 0 -57 17.5t-16 49.5q0 101 -57 157.5t-165 56.5q-95 0 -151.5 -43t-56.5 -121q0 -53 29.5 -101t78 -86.5t105.5 -76.5 t115 -80t106 -88t78 -110t30 -137q0 -152 -113.5 -237.5t-326.5 -93.5l-57 -50q65 -6 108.5 -43t43.5 -97q0 -82 -53.5 -139.5t-135.5 -77.5t-172 -5z" glyph-name="Scedilla" unicode="Ş"/><glyph d="M633 -26l-38 1l-57 -50q65 -6 108 -43t43 -97q0 -82 -53 -139.5t-135 -78t-172 -4.5q-18 3 -16 22l11 73q4 24 25 20q76 -10 132.5 10.5t56.5 69.5q0 38 -49 54t-120 -11q-11 -4 -18 -0.5t-5 15.5l10 71q1 12 14 25l85 77q-172 26 -279 84q-60 34 -82.5 72.5t-7.5 73.5 q14 33 47 42.5t73 -6.5q232 -103 432 -103q141 0 206 50t65 129q0 43 -19 91t-47.5 94.5t-57.5 95t-53.5 108.5t-32.5 119l-199 -277q-41 -56 -97.5 -50t-74.5 53t14 102l232 310q26 35 53.5 47.5t67.5 12.5h46q48 0 85.5 -20t37.5 -51q0 -7 -5 -24.5t-5 -33.5 q0 -52 39.5 -126.5t86 -141t86 -157t39.5 -171.5q0 -67 -25.5 -124.5t-79.5 -106.5t-148 -78t-219 -29z" glyph-name="scedilla" unicode="ş"/><glyph d="M579 -26q-208 0 -345 64t-137 149q0 49 41.5 73t90.5 -2q169 -97 365 -97q120 0 184.5 39.5t64.5 115.5q0 48 -29.5 92.5t-76 81t-103 74t-113 79.5t-103 89t-76 112t-29.5 140q0 163 118.5 257.5t292.5 94.5q110 0 202.5 -37.5t150.5 -113.5t58 -174q0 -142 -118 -143 q-41 0 -57 17.5t-16 49.5q0 101 -57 157.5t-165 56.5q-95 0 -151.5 -43t-56.5 -121q0 -53 29.5 -101t78 -86.5t105.5 -76.5t115 -80t106 -88t78 -110t30 -137q0 -159 -123 -245.5t-354 -86.5zM480 1762q-16 24 -5.5 43.5t40.5 19.5h92q41 0 69 -41l87 -127q9 -14 24.5 -14.5 t29.5 14.5l121 127q40 41 80 41h101q31 0 36 -19.5t-17 -43.5l-202 -211q-42 -43 -105 -43h-115q-63 0 -92 43z" glyph-name="Scaron" unicode="Š"/><glyph d="M633 -26q-126 0 -252 28t-205 71q-60 34 -82.5 72.5t-7.5 73.5q14 33 47 42.5t73 -6.5q232 -103 432 -103q141 0 206 50t65 129q0 43 -19 91t-47.5 94.5t-57.5 95t-53.5 108.5t-32.5 119l-199 -277q-41 -56 -97.5 -50t-74.5 53t14 102l232 310q26 35 53.5 47.5t67.5 12.5 h46q48 0 85.5 -20t37.5 -51q0 -7 -5 -24.5t-5 -33.5q0 -52 39.5 -126.5t86 -141t86 -157t39.5 -171.5q0 -67 -25.5 -124.5t-79.5 -106.5t-148 -78t-219 -29zM415 1465q-16 24 -5.5 43.5t40.5 19.5h92q41 0 68 -41l87 -127q9 -14 24.5 -14t30.5 14l120 127q40 41 80 41h102 q31 0 36 -19.5t-18 -43.5l-202 -211q-42 -43 -104 -43h-116q-63 0 -92 43z" glyph-name="scaron" unicode="š"/><glyph d="M526 -437q-18 3 -15 22l10 73q4 24 26 20q79 -10 137.5 9.5t58.5 64.5q0 42 -48 59.5t-124 -9.5q-11 -4 -17.5 -0.5t-4.5 15.5l50 270v1l184 1004q5 29 -25 28h-322q-48 0 -67.5 -14.5t-15.5 -44.5q7 -49 -16 -72t-63 -23q-62 0 -98 50t-36 116q0 74 48.5 126.5 t150.5 52.5h489q74 0 142 10t83 10q50 0 78.5 -29t28.5 -75q0 -34 -16.5 -55.5t-41.5 -34t-51 -25t-48 -38.5t-29 -66l-167 -926l-1 -5l-30 -158q59 -11 89 -49.5t30 -95.5q0 -80 -54.5 -134.5t-138.5 -73t-176 -3.5z" glyph-name="Tcommaaccent" unicode="Ţ"/><glyph d="M731 -26h-23l-58 -49q65 -6 108.5 -43t43.5 -97q0 -82 -53.5 -139.5t-135.5 -78t-172 -4.5q-18 3 -15 22l10 73q4 24 26 20q76 -10 132 10.5t56 69.5q0 38 -48.5 54t-120.5 -11q-11 -4 -17.5 -0.5t-4.5 15.5l10 71q1 12 13 25l97 87q-49 17 -87 46.5t-67 77t-36 112 t4 151.5l71 435h-254q-39 0 -58 22t-13 61l2 18q10 72 82 71h269l32 206q7 43 29 62.5t64 19.5h31q44 0 65 -24t14 -69l-32 -195h375q40 0 58.5 -22t13.5 -61l-3 -17q-9 -72 -82 -72h-389l-69 -417q-6 -51 -5.5 -88.5t12.5 -65.5t27.5 -46t38.5 -28.5t45.5 -14.5t48.5 -4 q82 0 180 52q37 17 64.5 11t43.5 -34q15 -26 9.5 -57.5t-29.5 -51.5q-48 -43 -127.5 -73t-175.5 -30z" glyph-name="tcommaaccent" unicode="ţ"/><glyph d="M674 0q-41 0 -62 22.5t-13 65.5l184 1004q5 29 -25 28h-322q-48 0 -67.5 -14.5t-15.5 -44.5q7 -49 -16 -72t-63 -23q-62 0 -98 50t-36 116q0 74 48.5 126.5t150.5 52.5h489q74 0 142 10t83 10q50 0 78.5 -29t28.5 -75q0 -34 -16.5 -55.5t-41.5 -34t-51 -25t-48 -38.5 t-29 -66l-167 -926q-14 -82 -87 -82h-46zM480 1762q-16 24 -5.5 43.5t40.5 19.5h92q41 0 69 -41l87 -127q9 -14 24.5 -14.5t29.5 14.5l121 127q40 41 80 41h101q31 0 36 -19.5t-17 -43.5l-202 -211q-42 -43 -105 -43h-115q-63 0 -92 43z" glyph-name="Tcaron" unicode="Ť"/><glyph d="M731 -26q-59 0 -111.5 12.5t-102.5 41t-80 76t-45.5 117.5t1.5 165l71 435h-254q-39 0 -58 22t-13 61l2 18q10 72 82 71h269l32 206q7 43 29 62.5t64 19.5h31q44 0 65 -24t14 -69l-32 -195h375q40 0 58.5 -22t13.5 -61l-3 -17q-9 -72 -82 -72h-389l-69 -417 q-6 -51 -5.5 -88.5t12.5 -65.5t27.5 -46t38.5 -28.5t45.5 -14.5t48.5 -4q82 0 180 52q37 17 64.5 11t43.5 -34q15 -26 9.5 -57.5t-29.5 -51.5q-48 -43 -127.5 -73t-175.5 -30zM1023 1417l119 200q35 54 92 54h50q32 0 44 -18t-4 -45l-120 -199q-34 -55 -92 -55h-50 q-32 0 -43.5 18t4.5 45z" glyph-name="tcaron" unicode="ť"/><glyph d="M601 751q-46 0 -68 21t-17 59q11 81 95 81h140l32 180q5 29 -25 28h-322q-48 0 -67.5 -14.5t-15.5 -44.5q7 -49 -16 -72t-63 -23q-62 0 -98 50t-36 116q0 74 48.5 126.5t150.5 52.5h489q74 0 142 10t83 10q50 0 78.5 -29t28.5 -75q0 -34 -16.5 -55.5t-41.5 -34t-51 -25 t-48 -38.5t-29 -66l-18 -96h188q46 0 69 -21.5t17 -59.5q-12 -81 -95 -80h-207l-121 -669q-14 -82 -87 -82h-46q-41 0 -62 22.5t-13 65.5l122 663h-120z" glyph-name="Tbar" unicode="Ŧ"/><glyph d="M165 497q-40 0 -58.5 22t-13.5 61l3 18q9 72 82 72h282l24 151h-254q-39 0 -57.5 22t-12.5 61l2 18q10 72 82 71h268l33 206q7 43 29 62.5t64 19.5h31q44 0 65 -24t14 -69l-32 -195h375q40 0 58 -22t13 -61l-3 -17q-9 -72 -82 -72h-389l-25 -151h393q39 0 57.5 -22 t12.5 -61l-2 -19q-10 -72 -83 -71h-406l-15 -93q-6 -51 -6 -88.5t12.5 -65.5t28 -46t38.5 -28.5t45.5 -14.5t47.5 -4q82 0 181 52q37 17 64.5 11t42.5 -34q15 -26 9.5 -57.5t-28.5 -51.5q-48 -43 -127.5 -73t-175.5 -30q-59 0 -111.5 12.5t-103 41t-80.5 76t-45.5 117.5 t2.5 165l17 111h-266z" glyph-name="tbar" horiz-adv-x="1280" unicode="ŧ"/><glyph d="M513 -26q-200 0 -300.5 121.5t-69.5 347.5l111 793q10 75 86 75h47q41 0 61 -22.5t15 -63.5l-107 -763q-19 -138 33.5 -212t170.5 -74q117 0 187.5 73.5t91.5 212.5l107 774q10 75 86 75h47q42 0 61.5 -22.5t13.5 -63.5l-131 -938q-9 -68 9.5 -102t63.5 -32 q26 2 38.5 -13t12.5 -43q0 -49 -36 -80t-88 -31q-67 0 -108.5 47.5t-36.5 127.5q-122 -187 -365 -187zM400.5 1549.5q-10.5 27.5 3 55.5t43.5 43l207 101q33 16 58.5 15t51.5 -20l95 -74q32 -24 70 -5l143 71q30 14 60 3.5t42 -39.5q10 -28 -3 -56t-43 -42l-208 -103 q-34 -16 -58 -15t-51 21l-97 74q-29 23 -68 4l-144 -70q-30 -14 -60.5 -2.5t-41 39z" glyph-name="Utilde" unicode="Ũ"/><glyph d="M340 -24q-116 0 -168.5 83t-29.5 224l80 481q5 32 7.5 61t3 43.5t0 35.5t-0.5 24q0 46 18.5 66t64.5 20q156 0 119 -219l-65 -389q-9 -56 -13.5 -91.5t-2.5 -69t15.5 -49t38.5 -15.5q47 0 105 55t134.5 177.5t120 200.5t129.5 239q31 58 46 86q22 41 42 58t53 17h36 q41 0 60.5 -22.5t14.5 -63.5l-120 -853q-11 -75 -86 -75h-44q-42 0 -61.5 22.5t-13.5 63.5l68 464l-26 -45q-168 -292 -286 -410.5t-239 -118.5zM358.5 1252.5q-10.5 27.5 3 55.5t44.5 43l206 101q33 16 58.5 15t51.5 -20l95 -74q32 -24 70 -5l143 71q30 14 60 3.5t42 -39.5 q10 -28 -3 -56t-43 -42l-208 -103q-34 -16 -58 -15t-51 21l-97 74q-29 23 -68 4l-144 -69q-30 -14 -60.5 -3t-41 38.5z" glyph-name="utilde" unicode="ũ"/><glyph d="M513 -26q-200 0 -300.5 121.5t-69.5 347.5l111 793q10 75 86 75h47q41 0 61 -22.5t15 -63.5l-107 -763q-19 -138 33.5 -212t170.5 -74q117 0 187.5 73.5t91.5 212.5l107 774q10 75 86 75h47q42 0 61.5 -22.5t13.5 -63.5l-131 -938q-9 -68 9.5 -102t63.5 -32 q26 2 38.5 -13t12.5 -43q0 -49 -36 -80t-88 -31q-67 0 -108.5 47.5t-36.5 127.5q-122 -187 -365 -187zM467 1664l6 41q4 29 24 44.5t49 15.5h503q29 0 44 -15.5t11 -44.5l-6 -41q-4 -29 -24 -44.5t-49 -15.5h-503q-29 0 -44 15.5t-11 44.5z" glyph-name="Umacron" unicode="Ū"/><glyph d="M340 -24q-116 0 -168.5 83t-29.5 224l80 481q5 32 7.5 61t3 43.5t0 35.5t-0.5 24q0 46 18.5 66t64.5 20q156 0 119 -219l-65 -389q-9 -56 -13.5 -91.5t-2.5 -69t15.5 -49t38.5 -15.5q47 0 105 55t134.5 177.5t120 200.5t129.5 239q31 58 46 86q22 41 42 58t53 17h36 q41 0 60.5 -22.5t14.5 -63.5l-120 -853q-11 -75 -86 -75h-44q-42 0 -61.5 22.5t-13.5 63.5l68 464l-26 -45q-168 -292 -286 -410.5t-239 -118.5zM426 1367l6 41q4 29 24 44.5t49 15.5h503q29 0 44 -15.5t11 -44.5l-6 -41q-4 -29 -24 -44.5t-49 -15.5h-503q-29 0 -44 15.5 t-11 44.5z" glyph-name="umacron" unicode="ū"/><glyph d="M513 -26q-200 0 -300.5 121.5t-69.5 347.5l111 793q10 75 86 75h47q41 0 61 -22.5t15 -63.5l-107 -763q-19 -138 33.5 -212t170.5 -74q117 0 187.5 73.5t91.5 212.5l107 774q10 75 86 75h47q42 0 61.5 -22.5t13.5 -63.5l-131 -938q-9 -68 9.5 -102t63.5 -32 q26 2 38.5 -13t12.5 -43q0 -49 -36 -80t-88 -31q-67 0 -108.5 47.5t-36.5 127.5q-122 -187 -365 -187zM492 1794q2 31 34 31h84q26 0 29 -29q4 -56 43 -94t108 -38q120 0 167 132q9 29 37 29h90q32 0 26 -31q-26 -127 -110.5 -199.5t-218.5 -72.5q-138 0 -216 73.5 t-73 198.5z" glyph-name="Ubreve" unicode="Ŭ"/><glyph d="M340 -24q-116 0 -168.5 83t-29.5 224l80 481q5 32 7.5 61t3 43.5t0 35.5t-0.5 24q0 46 18.5 66t64.5 20q156 0 119 -219l-65 -389q-9 -56 -13.5 -91.5t-2.5 -69t15.5 -49t38.5 -15.5q47 0 105 55t134.5 177.5t120 200.5t129.5 239q31 58 46 86q22 41 42 58t53 17h36 q41 0 60.5 -22.5t14.5 -63.5l-120 -853q-11 -75 -86 -75h-44q-42 0 -61.5 22.5t-13.5 63.5l68 464l-26 -45q-168 -292 -286 -410.5t-239 -118.5zM451 1497q2 31 34 31h84q26 0 29 -29q4 -56 43 -94t108 -38q120 0 167 132q9 29 37 29h90q32 0 26 -31q-26 -127 -110.5 -199.5 t-218.5 -72.5q-138 0 -216 73.5t-73 198.5z" glyph-name="ubreve" unicode="ŭ"/><glyph d="M513 -26q-200 0 -300.5 121.5t-69.5 347.5l111 793q10 75 86 75h47q41 0 61 -22.5t15 -63.5l-107 -763q-19 -138 33.5 -212t170.5 -74q117 0 187.5 73.5t91.5 212.5l107 774q10 75 86 75h47q42 0 61.5 -22.5t13.5 -63.5l-131 -938q-9 -68 9.5 -102t63.5 -32 q26 2 38.5 -13t12.5 -43q0 -49 -36 -80t-88 -31q-67 0 -108.5 47.5t-36.5 127.5q-122 -187 -365 -187zM597 1635q0 78 55.5 134t136 56t136 -56t55.5 -134q0 -77 -55.5 -132.5t-136 -55.5t-136 55.5t-55.5 132.5zM717 1636.5q0 -30.5 20.5 -50t51 -19.5t51.5 19.5t21 49.5 q-1 31 -21.5 50.5t-51 19.5t-51 -19.5t-20.5 -50z" glyph-name="Uring" unicode="Ů"/><glyph d="M340 -24q-116 0 -168.5 83t-29.5 224l80 481q5 32 7.5 61t3 43.5t0 35.5t-0.5 24q0 46 18.5 66t64.5 20q156 0 119 -219l-65 -389q-9 -56 -13.5 -91.5t-2.5 -69t15.5 -49t38.5 -15.5q47 0 105 55t134.5 177.5t120 200.5t129.5 239q31 58 46 86q22 41 42 58t53 17h36 q41 0 60.5 -22.5t14.5 -63.5l-120 -853q-11 -75 -86 -75h-44q-42 0 -61.5 22.5t-13.5 63.5l68 464l-26 -45q-168 -292 -286 -410.5t-239 -118.5zM555 1338q0 78 55.5 134t136 56t136 -56t55.5 -134q0 -77 -55.5 -132.5t-136 -55.5t-136 55.5t-55.5 132.5zM675 1339.5 q0 -30.5 20.5 -50t51 -19.5t51.5 19.5t21 49.5q-1 31 -21.5 50.5t-51 19.5t-51 -19.5t-20.5 -50z" glyph-name="uring" unicode="ů"/><glyph d="M513 -26q-200 0 -300.5 121.5t-69.5 347.5l111 793q10 75 86 75h47q41 0 61 -22.5t15 -63.5l-107 -763q-19 -138 33.5 -212t170.5 -74q117 0 187.5 73.5t91.5 212.5l107 774q10 75 86 75h47q42 0 61.5 -22.5t13.5 -63.5l-131 -938q-9 -68 9.5 -102t63.5 -32 q26 2 38.5 -13t12.5 -43q0 -49 -36 -80t-88 -31q-67 0 -108.5 47.5t-36.5 127.5q-122 -187 -365 -187zM507 1571l119 199q35 54 92 55h50q32 0 44 -18t-4 -46l-120 -198q-34 -55 -92 -56h-50q-32 0 -43.5 18.5t4.5 45.5zM837 1571l118 199q35 54 93 55h50q32 0 44 -18 t-4 -46l-120 -198q-34 -55 -92 -56h-50q-32 0 -43.5 18.5t4.5 45.5z" glyph-name="Uhungarumlaut" unicode="Ű"/><glyph d="M340 -24q-116 0 -168.5 83t-29.5 224l80 481q5 32 7.5 61t3 43.5t0 35.5t-0.5 24q0 46 18.5 66t64.5 20q156 0 119 -219l-65 -389q-9 -56 -13.5 -91.5t-2.5 -69t15.5 -49t38.5 -15.5q47 0 105 55t134.5 177.5t120 200.5t129.5 239q31 58 46 86q22 41 42 58t53 17h36 q41 0 60.5 -22.5t14.5 -63.5l-120 -853q-11 -75 -86 -75h-44q-42 0 -61.5 22.5t-13.5 63.5l68 464l-26 -45q-168 -292 -286 -410.5t-239 -118.5zM465 1274l119 200q35 54 92 54h50q32 0 44 -18t-4 -46l-120 -198q-34 -55 -92 -56h-50q-32 0 -43.5 18.5t4.5 45.5zM795 1274 l118 200q35 54 93 54h50q32 0 44 -18t-4 -46l-120 -198q-34 -55 -92 -56h-50q-32 0 -43.5 18.5t4.5 45.5z" glyph-name="uhungarumlaut" unicode="ű"/><glyph d="M513 -26q-200 0 -300.5 121.5t-69.5 347.5l111 793q10 75 86 75h47q41 0 61 -22.5t15 -63.5l-107 -763q-19 -138 33.5 -212t170.5 -74q117 0 187.5 73.5t91.5 212.5l107 774q10 75 86 75h47q42 0 61.5 -22.5t13.5 -63.5l-131 -938q-9 -68 9.5 -102t63.5 -32 q26 2 38.5 -13t12.5 -43q0 -49 -36 -80t-88 -31h-1h-47q-129 0 -129 -113t142 -113q30 0 45 -19.5t11 -46.5q-2 -29 -23 -47.5t-56 -18.5h-29q-35 0 -67.5 6t-66.5 20.5t-59 37.5t-41 61.5t-16 87.5q0 99 58 153.5t150 72.5q-19 42 -16 94q-122 -187 -365 -187z" glyph-name="Uogonek" unicode="Ų"/><glyph d="M340 -24q-116 0 -168.5 83t-29.5 224l80 481q5 32 7.5 61t3 43.5t0 35.5t-0.5 24q0 46 18.5 66t64.5 20q156 0 119 -219l-65 -389q-9 -56 -13.5 -91.5t-2.5 -69t15.5 -49t38.5 -15.5q47 0 105 55t134.5 177.5t120 200.5t129.5 239q31 58 46 86q22 41 42 58t53 17h36 q41 0 60.5 -22.5t14.5 -63.5l-120 -853q-11 -75 -86 -75h-63q-129 0 -129 -112.5t142 -112.5q30 0 44.5 -19.5t11.5 -47.5q-2 -29 -23 -47t-57 -18h-28q-35 0 -68 5.5t-66.5 20.5t-58.5 38t-41 61t-16 88q0 105 66 160.5t167 68.5v1l68 464l-26 -45q-168 -292 -286 -410.5 t-239 -118.5z" glyph-name="uogonek" unicode="ų"/><glyph d="M274 -25q-109 0 -160 90t-26 252l135 918q10 74 87 74h36q40 0 59 -22.5t13 -63.5l-119 -828q-16 -115 -4 -165.5t57 -50.5q77 0 137.5 161t111.5 524l7 54q11 75 83 74h25q39 0 57.5 -22.5t12.5 -63.5l-72 -511q-16 -115 -2 -165.5t64 -50.5q47 0 91 58.5t78 161.5 t54.5 255.5t20.5 327.5q0 146 -18 231q-10 51 14.5 74.5t69.5 23.5q50 0 78 -27t41 -81q14 -69 15 -197q0 -117 -10 -232.5t-30.5 -233t-56.5 -218t-83 -178.5t-114.5 -123.5t-148.5 -45.5q-100 0 -154.5 67.5t-51.5 223.5q-24 -83 -59.5 -143t-76.5 -90.5t-80.5 -44 t-80.5 -13.5zM431 1571l202 211q42 43 104 43h116q63 0 92 -43l144 -211q16 -23 5 -43t-40 -20h-92q-41 0 -69 41l-87 127q-9 13 -24.5 13.5t-29.5 -13.5l-121 -127q-40 -41 -80 -41h-101q-31 0 -36.5 19.5t17.5 43.5z" glyph-name="Wcircumflex" unicode="Ŵ"/><glyph d="M342 -26q-115 0 -183.5 83.5t-42.5 244.5l103 637q11 75 86 75h34q41 0 60.5 -22.5t13.5 -63.5l-100 -618q-23 -145 79 -145q52 0 87 36.5t44 102.5l92 628q12 82 94 82q44 0 65.5 -25t15.5 -70l-92 -618q-9 -65 9.5 -100.5t59.5 -35.5q69 0 122.5 109.5t80.5 282 t27 371.5q0 51 25.5 80t72.5 29q95 0 95 -117q0 -142 -15.5 -276.5t-48.5 -257t-80.5 -213.5t-116.5 -145t-151 -54q-75 0 -127 41t-60 120h-10q-74 -161 -239 -161zM388 1274l202 211q42 43 104 43h116q63 0 92 -43l144 -211q16 -23 5 -43t-40 -20h-92q-41 0 -69 41 l-87 127q-9 13 -24.5 13.5t-29.5 -13.5l-121 -127q-40 -41 -80 -41h-101q-31 0 -36.5 19.5t17.5 43.5z" glyph-name="wcircumflex" unicode="ŵ"/><glyph d="M511 -26q-98 0 -179 18t-124 42q-32 18 -42.5 53t2.5 67q13 33 44 45t61 2q110 -40 233 -40q73 0 134 14.5t116 47t92 92t49 142.5l38 259q-76 -143 -183 -215.5t-231 -72.5q-152 0 -227.5 101.5t-43.5 280.5l74 426q12 75 86 75h44q40 0 61.5 -20.5t13.5 -56.5l-66 -380 q-20 -121 16.5 -184t119.5 -63q140 0 254.5 169.5t151.5 438.5q13 95 112 96q51 0 78 -25t19 -75l-111 -785q-15 -103 -59 -184t-102 -130.5t-133.5 -81t-147.5 -44t-150 -12.5zM431 1571l202 211q42 43 104 43h116q63 0 92 -43l144 -211q16 -23 5 -43t-40 -20h-92 q-41 0 -69 41l-87 127q-9 13 -24.5 13.5t-29.5 -13.5l-121 -127q-40 -41 -80 -41h-101q-31 0 -36.5 19.5t17.5 43.5z" glyph-name="Ycircumflex" unicode="Ŷ"/><glyph d="M858 -165q-40 0 -64.5 22t-24.5 64q0 22 17 94t28 149l52 373q-187 -410 -455 -410q-128 0 -198 80t-46 227l82 505q12 75 87 75h40q41 0 62 -23t14 -63l-75 -455q-13 -80 18 -118.5t87 -38.5q74 0 154.5 76.5t139 182t98.5 205t50 156.5v3q11 75 86 75h40q42 0 61 -22.5 t13 -63.5l-122 -873q-30 -220 -144 -220zM389 1274l202 211q42 43 104 43h116q63 0 92 -43l144 -211q16 -23 5 -43t-40 -20h-92q-41 0 -69 41l-87 127q-9 13 -25 13.5t-29 -13.5l-121 -127q-40 -41 -80 -41h-101q-31 0 -36.5 19.5t17.5 43.5z" glyph-name="ycircumflex" unicode="ŷ"/><glyph d="M511 -26q-98 0 -179 18t-124 42q-32 18 -42.5 53t2.5 67q13 33 44 45t61 2q110 -40 233 -40q73 0 134 14.5t116 47t92 92t49 142.5l38 259q-76 -143 -183 -215.5t-231 -72.5q-152 0 -227.5 101.5t-43.5 280.5l74 426q12 75 86 75h44q40 0 61.5 -20.5t13.5 -56.5l-66 -380 q-20 -121 16.5 -184t119.5 -63q140 0 254.5 169.5t151.5 438.5q13 95 112 96q51 0 78 -25t19 -75l-111 -785q-15 -103 -59 -184t-102 -130.5t-133.5 -81t-147.5 -44t-150 -12.5zM477 1694q0 44 32.5 76t77.5 32t77.5 -32t32.5 -76q0 -46 -32.5 -78.5t-77.5 -32.5t-77.5 32.5 t-32.5 78.5zM878 1694q0 44 32.5 76t77.5 32t77.5 -32t32.5 -76q0 -46 -32.5 -78.5t-77.5 -32.5t-77.5 32.5t-32.5 78.5z" glyph-name="Ydieresis" unicode="Ÿ"/><glyph d="M886 -41q-63 0 -149 25.5t-177 51t-169 25.5q-46 0 -90.5 -10.5t-64.5 -19t-60 -28.5q-42 -23 -71 -8.5t-23 60.5l3 29q8 62 45 104l817 932h-606q-41 0 -60.5 23t-14.5 64l4 29q9 75 86 75h761q41 0 61 -22.5t15 -63.5l-7 -50q-7 -54 -44 -95l-759 -862q43 14 99 14 q79 0 221.5 -45t220.5 -45q40 0 75.5 8.5t39.5 8.5q31 0 23 -38l-10 -51q-24 -111 -166 -111zM706 1632l118 200q35 54 92 54h51q32 0 44 -18t-4 -45l-120 -199q-34 -55 -92 -55h-51q-32 0 -43 18t5 45z" glyph-name="Zacute" unicode="Ź"/><glyph d="M921 -26q-78 0 -238.5 57t-240.5 57q-50 0 -94 -16t-68.5 -35.5t-53 -35t-52.5 -15.5q-30 0 -46.5 21.5t-11.5 55.5l4 26q8 62 55 104l704 649h-589q-40 0 -59 21.5t-13 60.5l2 17q11 73 82 73h742q45 0 67.5 -23.5t16.5 -65.5l-4 -28q-8 -59 -55 -103l-599 -553 q26 6 56 6q71 0 215 -48t225 -48q38 0 64.5 8.5t31.5 8.5q29 0 22 -30l-11 -53q-23 -111 -152 -111zM653 1264l119 199q35 54 92 55h50q32 0 44.5 -18t-4.5 -46l-119 -199q-34 -55 -93 -55h-50q-32 0 -43.5 18.5t4.5 45.5z" glyph-name="zacute" unicode="ź"/><glyph d="M886 -41q-63 0 -149 25.5t-177 51t-169 25.5q-46 0 -90.5 -10.5t-64.5 -19t-60 -28.5q-42 -23 -71 -8.5t-23 60.5l3 29q8 62 45 104l817 932h-606q-41 0 -60.5 23t-14.5 64l4 29q9 75 86 75h761q41 0 61 -22.5t15 -63.5l-7 -50q-7 -54 -44 -95l-759 -862q43 14 99 14 q79 0 221.5 -45t220.5 -45q40 0 75.5 8.5t39.5 8.5q31 0 23 -38l-10 -51q-24 -111 -166 -111zM690 1778q0 44 33 76t78 32t77 -32t32 -76q0 -46 -32 -78.5t-77 -32.5t-78 32.5t-33 78.5z" glyph-name="Zdotaccent" unicode="Ż"/><glyph d="M921 -26q-78 0 -238.5 57t-240.5 57q-50 0 -94 -16t-68.5 -35.5t-53 -35t-52.5 -15.5q-30 0 -46.5 21.5t-11.5 55.5l4 26q8 62 55 104l704 649h-589q-40 0 -59 21.5t-13 60.5l2 17q11 73 82 73h742q45 0 67.5 -23.5t16.5 -65.5l-4 -28q-8 -59 -55 -103l-599 -553 q26 6 56 6q71 0 215 -48t225 -48q38 0 64.5 8.5t31.5 8.5q29 0 22 -30l-11 -53q-23 -111 -152 -111zM638 1409q0 44 32.5 76.5t78 32.5t77.5 -32.5t32 -76.5q0 -46 -32 -78.5t-77.5 -32.5t-78 32.5t-32.5 78.5z" glyph-name="zdotaccent" unicode="ż"/><glyph d="M886 -41q-63 0 -149 25.5t-177 51t-169 25.5q-46 0 -90.5 -10.5t-64.5 -19t-60 -28.5q-42 -23 -71 -8.5t-23 60.5l3 29q8 62 45 104l817 932h-606q-41 0 -60.5 23t-14.5 64l4 29q9 75 86 75h761q41 0 61 -22.5t15 -63.5l-7 -50q-7 -54 -44 -95l-759 -862q43 14 99 14 q79 0 221.5 -45t220.5 -45q40 0 75.5 8.5t39.5 8.5q31 0 23 -38l-10 -51q-24 -111 -166 -111zM489 1824q-16 24 -5 43t40 19h92q41 0 69 -41l87 -127q9 -14 25 -14t29 14l121 127q40 41 80 41h101q31 0 36 -19.5t-17 -42.5l-202 -211q-42 -43 -104 -43h-116q-63 0 -92 43z " glyph-name="Zcaron" unicode="Ž"/><glyph d="M921 -26q-78 0 -238.5 57t-240.5 57q-50 0 -94 -16t-68.5 -35.5t-53 -35t-52.5 -15.5q-30 0 -46.5 21.5t-11.5 55.5l4 26q8 62 55 104l704 649h-589q-40 0 -59 21.5t-13 60.5l2 17q11 73 82 73h742q45 0 67.5 -23.5t16.5 -65.5l-4 -28q-8 -59 -55 -103l-599 -553 q26 6 56 6q71 0 215 -48t225 -48q38 0 64.5 8.5t31.5 8.5q29 0 22 -30l-11 -53q-23 -111 -152 -111zM437 1455q-16 24 -5.5 43.5t40.5 19.5h92q41 0 69 -41l87 -127q9 -14 24.5 -14.5t29.5 14.5l121 127q40 41 80 41h101q31 0 36 -19.5t-17 -43.5l-202 -211 q-42 -43 -105 -43h-115q-63 0 -92 43z" glyph-name="zcaron" unicode="ž"/><glyph d="M225 -399q-113 0 -186 37t-67 82l12 72q3 22 16 29t30 2q6 -2 26.5 -10t33.5 -12t33.5 -9.5t41.5 -8t42 -2.5q40 0 74.5 11t69 37.5t58 77t32.5 122.5l87 709h-329q-39 0 -58 21.5t-14 58.5l3 25q9 69 82 68h338l19 156q10 82 40 145.5t71.5 103.5t95.5 65.5t109.5 35.5 t118.5 10q52 0 103 -7t94.5 -21t67.5 -36.5t19 -49.5l-14 -72q-9 -40 -61 -26q-2 1 -15 5t-23 7t-28.5 6.5t-34.5 6t-39.5 4.5t-47.5 2q-116 0 -178.5 -48.5t-77.5 -170.5l-131 -1031q-12 -93 -43 -165t-71 -114.5t-92.5 -69.5t-102 -36.5t-104.5 -9.5z" glyph-name="longs" unicode="ſ"/><glyph d="M486 -26q-90 0 -162.5 13.5t-130 40.5t-85.5 75.5t-19 112.5l62 433q4 34 17.5 50t44.5 16h750q13 128 -3.5 212.5t-64 131t-114.5 64.5t-169 18q-111 0 -260 -24q-34 -5 -50.5 10.5t-11.5 48.5l7 41q10 58 120.5 86t253.5 28q121 0 208.5 -21.5t153.5 -69.5t98.5 -126 t42.5 -191t-14 -264q-27 -191 -82.5 -324t-142 -212t-196 -114t-253.5 -35zM294 294q-9 -69 37 -99t174 -30q69 0 120 8.5t101.5 32.5t87.5 66t68.5 110.5t52.5 163.5h-608z" glyph-name="uni018F" unicode="Ə"/><glyph d="M287 -10q-42 0 -89 5t-87.5 14t-67 23t-24.5 29l15 102q4 30 33 23q6 -1 27 -6t37.5 -8.5t49 -6.5t67.5 -3q115 0 182 54t86 197l45 319h-324q-37 0 -55 20t-14 57l3 24q7 69 76 68h338l15 109q16 117 54.5 196.5t97.5 121.5t124.5 59.5t150.5 17.5q95 0 185 -21t85 -51 l-15 -103q-4 -28 -33 -22q-1 0 -32.5 8.5t-64.5 12.5t-77 4q-120 0 -188 -54t-88 -197l-12 -81h306q36 0 53.5 -20t13.5 -57l-2 -23q-9 -69 -77 -69h-317l-48 -347q-13 -94 -42 -164t-67 -114t-90.5 -70.5t-107 -36.5t-122.5 -10z" glyph-name="florin" unicode="ƒ"/><glyph d="M567 -26q-239 0 -356 172.5t-70 515.5q47 338 201.5 506t391.5 168q120 0 208 -42q40 -13 67 -14.5t41.5 9t21 24.5t9.5 37l13 84q4 33 24.5 50.5t50.5 17.5h41q31 0 46 -18t11 -50l-18 -122q-8 -62 -49 -103.5t-104 -52.5q111 -180 64 -508q-47 -337 -201 -505.5 t-392 -168.5zM347 662q-17 -113 -10 -196t26.5 -139t56.5 -89t79 -47.5t94 -14.5q298 0 361 472q17 113 10.5 196.5t-25 138.5t-55.5 89t-79.5 48.5t-94.5 14.5q-298 0 -363 -473z" glyph-name="Ohorn" unicode="Ơ"/><glyph d="M606 -26q-215 0 -344.5 137.5t-129.5 361.5q0 244 146.5 403.5t373.5 159.5q70 0 157 -20t105 -20q57 0 67 69l10 72q4 33 24.5 50.5t51.5 17.5h41q31 0 45.5 -18t10.5 -50l-18 -132q-26 -190 -219 -191q-42 0 -123 19t-133 19q-155 0 -247.5 -103.5t-92.5 -266.5 q0 -152 80.5 -235.5t205.5 -83.5q134 0 221 89.5t87 207.5q0 48 -17 80.5t-34 57.5t-17 51q0 41 28.5 64t69.5 23q72 0 118 -74t46 -189q0 -134 -63 -247t-181.5 -182.5t-268.5 -69.5z" glyph-name="ohorn" unicode="ơ"/><glyph d="M513 -26q-200 0 -300.5 121.5t-69.5 347.5l111 793q10 75 86 75h47q41 0 61 -22.5t15 -63.5l-107 -763q-19 -138 33.5 -212t170.5 -74q117 0 187.5 73.5t91.5 212.5l107 774q10 75 86 75h47h1h39q27 0 38.5 10t16.5 39l10 74q11 69 76 68h40q32 0 47 -18t10 -50l-18 -130 q-10 -74 -62 -119t-126 -45h-9l-119 -853q-9 -68 9.5 -102t63.5 -32q26 2 38.5 -13t12.5 -43q0 -49 -36 -80t-88 -31q-67 0 -108.5 47.5t-36.5 127.5q-122 -187 -365 -187z" glyph-name="Uhorn" unicode="Ư"/><glyph d="M340 -24q-116 0 -168.5 83t-29.5 224l80 481q5 32 7.5 61t3 43.5t0 35.5t-0.5 24q0 46 18.5 66t64.5 20q156 0 119 -219l-65 -389q-9 -56 -13.5 -91.5t-2.5 -69t15.5 -49t38.5 -15.5q47 0 105 55t134.5 177.5t120 200.5t129.5 239q31 58 46 86q22 41 42 58t53 17h36h1h39 q27 0 38.5 10t15.5 39l11 74q11 69 75 68h41q32 0 47 -18t10 -50l-18 -130q-10 -74 -62 -119t-126 -45h-9l-108 -768q-11 -75 -86 -75h-44q-42 0 -61.5 22.5t-13.5 63.5l68 464l-26 -45q-168 -292 -286 -410.5t-239 -118.5z" glyph-name="uhorn" unicode="ư"/><glyph d="M514 -26q-207 0 -337 63q-63 33 -52 114q12 99 106 65q156 -56 300 -56q176 0 285 71t109 205q0 116 -88 164.5t-277 48.5q-34 0 -50 18t-11 50l6 40q5 47 40 79l313 284h-527q-65 0 -56 66l9 59q8 66 74 66h804q38 0 45 -33t-27 -65l-451 -402q191 -15 297.5 -106 t106.5 -259q0 -146 -81 -254t-220.5 -163t-317.5 -55z" glyph-name="uni01B7" unicode="Ʒ"/><glyph d="M93 0q-45 0 -65.5 29t-3.5 69l369 902q54 134 96 199t88.5 88.5t120.5 23.5h29q62 0 98.5 -13t64.5 -54t43.5 -106t31.5 -181l53 -388l41 11q63 15 96.5 -22.5t15 -86.5t-79.5 -63l-49 -13l42 -307q5 -42 -14.5 -65t-61.5 -23h-31q-77 0 -88 77l-37 272l-69 -16 q-278 -67 -396.5 -119.5t-155.5 -145.5v-1q-26 -67 -99 -67h-39zM339 342q57 54 149 87.5t278 77.5l62 15l-44 321q-16 127 -28.5 183t-25 72.5t-37.5 16.5q-22 0 -36.5 -12.5t-39.5 -63t-65 -153.5zM443 1762q-16 24 -5 43.5t40 19.5h92q41 0 69 -41l87 -127 q9 -14 24.5 -14.5t29.5 14.5l121 127q40 41 80 41h101q31 0 36 -19.5t-17 -43.5l-202 -211q-42 -43 -104 -43h-116q-63 0 -92 43z" glyph-name="uni01CD" unicode="Ǎ"/><glyph d="M456 -26q-142 0 -230 102.5t-88 303.5q0 127 37.5 242.5t109 209.5t187.5 149t260 55q99 0 184.5 -24t135 -67t41.5 -94q-7 -45 -49 -60.5t-95 9.5q-108 51 -230 51q-91 0 -165.5 -36.5t-120.5 -98.5t-70.5 -139.5t-24.5 -163.5q0 -134 51.5 -194.5t127.5 -60.5 q49 0 95.5 25.5t83.5 66t71.5 96.5t58.5 111t46 116q20 53 48.5 78t72.5 25q50 0 74 -34t15 -93l-40 -299q-5 -41 -6.5 -73t0 -62t1.5 -35q0 -42 -16.5 -61t-62.5 -19q-58 0 -89.5 42t-19.5 154l10 97q-152 -319 -403 -319zM431 1465q-16 24 -5.5 43.5t40.5 19.5h92 q41 0 69 -41l87 -127q9 -14 24.5 -14t29.5 14l121 127q40 41 80 41h101q31 0 36 -19.5t-17 -43.5l-202 -211q-42 -43 -105 -43h-115q-63 0 -93 43z" glyph-name="uni01CE" unicode="ǎ"/><glyph d="M484 -26q-41 0 -78.5 5.5t-78 18t-64.5 40t-24 65.5q0 37 22.5 62.5t72.5 25.5q19 0 71.5 -9.5t84.5 -9.5q48 0 87.5 13.5t71.5 48t55.5 68.5t45 101t35.5 116.5t31 145t26 157.5t25 179l5 37q8 61 -11 84t-83 23q-130 0 -241.5 -73t-161.5 -198q-17 -40 -39.5 -61.5 t-64.5 -21.5t-65.5 25.5t-23.5 73.5q0 68 46.5 145.5t125 144.5t197 111.5t248.5 44.5h42q81 0 133.5 -21t78 -61t32 -98t-5.5 -134l-5 -37q-20 -152 -40 -265.5t-48 -223.5t-59.5 -187.5t-74.5 -144t-96.5 -106.5t-121 -62t-150.5 -22zM480 1762q-16 24 -5.5 43.5 t40.5 19.5h92q41 0 69 -41l87 -127q9 -14 24.5 -14.5t29.5 14.5l121 127q40 41 80 41h101q31 0 36 -19.5t-17 -43.5l-202 -211q-42 -43 -105 -43h-115q-63 0 -92 43z" glyph-name="uni01CF" unicode="Ǐ"/><glyph d="M798 -27q-59 0 -111 12.5t-102 41t-81 76.5t-46.5 118t2.5 165l58 358q8 51 -11.5 74.5t-70.5 23.5h-173q-40 0 -61 23.5t-14 66.5q11 82 88 82h268q103 0 152 -58t33 -160l-63 -392q-11 -60 -4 -103.5t20.5 -71.5t40 -44.5t52.5 -22.5t58 -6q82 0 180 52q37 17 64.5 11 t42.5 -34q15 -26 9.5 -57.5t-28.5 -51.5q-48 -43 -127.5 -73t-175.5 -30zM378 1465q-16 24 -5.5 43.5t40.5 19.5h92q41 0 68 -41l87 -127q9 -14 24.5 -14t30.5 14l121 127q40 41 79 41h102q31 0 36 -19.5t-18 -43.5l-201 -211q-42 -43 -105 -43h-116q-63 0 -92 43z" glyph-name="uni01D0" unicode="ǐ"/><glyph d="M567 -26q-239 0 -356 172.5t-70 515.5q47 338 201.5 506t391.5 168q117 0 205 -41t147.5 -125.5t78.5 -214t-5 -307.5q-47 -337 -201 -505.5t-392 -168.5zM347 662q-17 -113 -10 -196t26.5 -139t56.5 -89t79 -47.5t94 -14.5q298 0 361 472q17 113 10.5 196.5t-25 138.5 t-55.5 89t-79.5 48.5t-94.5 14.5q-298 0 -363 -473zM489 1824q-16 24 -5 43t40 19h92q41 0 69 -41l87 -127q9 -14 25 -14t29 14l121 127q40 41 80 41h101q31 0 36 -19.5t-17 -42.5l-202 -211q-42 -43 -104 -43h-116q-63 0 -92 43z" glyph-name="uni01D1" unicode="Ǒ"/><glyph d="M606 -26q-215 0 -344.5 137.5t-129.5 361.5q0 244 147 403.5t372 159.5q69 0 125.5 -14t90.5 -48.5t23 -82.5q-7 -33 -29 -45.5t-45 -11.5t-70.5 6.5t-77.5 5.5q-153 0 -245 -101t-92 -264q0 -152 80.5 -235t205.5 -83q134 0 221 90t87 209q0 48 -17 81.5t-34 58 t-17 50.5q0 42 29 65.5t70 23.5q71 0 117 -76t46 -191q0 -99 -37.5 -190t-103 -160t-162.5 -109.5t-210 -40.5zM449 1465q-16 24 -5.5 43.5t39.5 19.5h92q41 0 69 -41l87 -127q9 -14 25 -14t29 14l121 127q40 41 80 41h101q31 0 36 -19.5t-17 -43.5l-202 -211 q-42 -43 -104 -43h-116q-63 0 -92 43z" glyph-name="uni01D2" unicode="ǒ"/><glyph d="M513 -26q-200 0 -300.5 121.5t-69.5 347.5l111 793q10 75 86 75h47q41 0 61 -22.5t15 -63.5l-107 -763q-19 -138 33.5 -212t170.5 -74q117 0 187.5 73.5t91.5 212.5l107 774q10 75 86 75h47q42 0 61.5 -22.5t13.5 -63.5l-131 -938q-9 -68 9.5 -102t63.5 -32 q26 2 38.5 -13t12.5 -43q0 -49 -36 -80t-88 -31q-67 0 -108.5 47.5t-36.5 127.5q-122 -187 -365 -187zM480 1762q-16 24 -5.5 43.5t40.5 19.5h92q41 0 69 -41l87 -127q9 -14 24.5 -14.5t29.5 14.5l121 127q40 41 80 41h101q31 0 36 -19.5t-17 -43.5l-202 -211 q-42 -43 -105 -43h-115q-63 0 -92 43z" glyph-name="uni01D3" unicode="Ǔ"/><glyph d="M340 -24q-116 0 -168.5 83t-29.5 224l80 481q5 32 7.5 61t3 43.5t0 35.5t-0.5 24q0 46 18.5 66t64.5 20q156 0 119 -219l-65 -389q-9 -56 -13.5 -91.5t-2.5 -69t15.5 -49t38.5 -15.5q47 0 105 55t134.5 177.5t120 200.5t129.5 239q31 58 46 86q22 41 42 58t53 17h36 q41 0 60.5 -22.5t14.5 -63.5l-120 -853q-11 -75 -86 -75h-44q-42 0 -61.5 22.5t-13.5 63.5l68 464l-26 -45q-168 -292 -286 -410.5t-239 -118.5zM439 1465q-16 24 -5.5 43.5t40.5 19.5h92q41 0 69 -41l87 -127q9 -14 24.5 -14t29.5 14l121 127q40 41 80 41h101 q31 0 36 -19.5t-17 -43.5l-202 -211q-42 -43 -104 -43h-116q-63 0 -92 43z" glyph-name="uni01D4" unicode="ǔ"/><glyph d="M513 -26q-200 0 -300.5 121.5t-69.5 347.5l111 793q10 75 86 75h47q41 0 61 -22.5t15 -63.5l-107 -763q-19 -138 33.5 -212t170.5 -74q117 0 187.5 73.5t91.5 212.5l107 774q10 75 86 75h47q42 0 61.5 -22.5t13.5 -63.5l-131 -938q-9 -68 9.5 -102t63.5 -32 q26 2 38.5 -13t12.5 -43q0 -49 -36 -80t-88 -31q-67 0 -108.5 47.5t-36.5 127.5q-122 -187 -365 -187zM485 1694q0 44 32.5 76t77.5 32t78 -32t33 -76q0 -46 -33 -78.5t-78 -32.5t-77.5 32.5t-32.5 78.5zM542 2070l6 40q4 29 24 45t49 16h502q29 0 44.5 -16t11.5 -45l-7 -40 q-4 -29 -24 -45t-48 -16h-503q-29 0 -44 16t-11 45zM886 1694q0 44 32.5 76t77.5 32t77.5 -32t32.5 -76q0 -46 -32.5 -78.5t-77.5 -32.5t-77.5 32.5t-32.5 78.5z" glyph-name="uni01D5" unicode="Ǖ"/><glyph d="M340 -24q-116 0 -168.5 83t-29.5 224l80 481q5 32 7.5 61t3 43.5t0 35.5t-0.5 24q0 46 18.5 66t64.5 20q156 0 119 -219l-65 -389q-9 -56 -13.5 -91.5t-2.5 -69t15.5 -49t38.5 -15.5q47 0 105 55t134.5 177.5t120 200.5t129.5 239q31 58 46 86q22 41 42 58t53 17h36 q41 0 60.5 -22.5t14.5 -63.5l-120 -853q-11 -75 -86 -75h-44q-42 0 -61.5 22.5t-13.5 63.5l68 464l-26 -45q-168 -292 -286 -410.5t-239 -118.5zM444 1397q0 44 32.5 76t77.5 32t78 -32t33 -76q0 -46 -33 -78.5t-78 -32.5t-77.5 32.5t-32.5 78.5zM500 1773l6 41 q4 29 24 44.5t49 15.5h502q29 0 44.5 -16t11.5 -44l-7 -41q-4 -29 -24 -45t-48 -16h-503q-29 0 -44 16t-11 45zM845 1397q0 44 32.5 76t77.5 32t77.5 -32t32.5 -76q0 -46 -32.5 -78.5t-77.5 -32.5t-77.5 32.5t-32.5 78.5z" glyph-name="uni01D6" unicode="ǖ"/><glyph d="M513 -26q-200 0 -300.5 121.5t-69.5 347.5l111 793q10 75 86 75h47q41 0 61 -22.5t15 -63.5l-107 -763q-19 -138 33.5 -212t170.5 -74q117 0 187.5 73.5t91.5 212.5l107 774q10 75 86 75h47q42 0 61.5 -22.5t13.5 -63.5l-131 -938q-9 -68 9.5 -102t63.5 -32 q26 2 38.5 -13t12.5 -43q0 -49 -36 -80t-88 -31q-67 0 -108.5 47.5t-36.5 127.5q-122 -187 -365 -187zM485 1694q0 44 32.5 76t77.5 32t78 -32t33 -76q0 -46 -33 -78.5t-78 -32.5t-77.5 32.5t-32.5 78.5zM708 1976l118 200q35 54 93 54h50q32 0 44 -18t-4 -45l-120 -199 q-34 -55 -92 -55h-51q-32 0 -43 18t5 45zM886 1694q0 44 32.5 76t77.5 32t77.5 -32t32.5 -76q0 -46 -32.5 -78.5t-77.5 -32.5t-77.5 32.5t-32.5 78.5z" glyph-name="uni01D7" unicode="Ǘ"/><glyph d="M340 -24q-116 0 -168.5 83t-29.5 224l80 481q5 32 7.5 61t3 43.5t0 35.5t-0.5 24q0 46 18.5 66t64.5 20q156 0 119 -219l-65 -389q-9 -56 -13.5 -91.5t-2.5 -69t15.5 -49t38.5 -15.5q47 0 105 55t134.5 177.5t120 200.5t129.5 239q31 58 46 86q22 41 42 58t53 17h36 q41 0 60.5 -22.5t14.5 -63.5l-120 -853q-11 -75 -86 -75h-44q-42 0 -61.5 22.5t-13.5 63.5l68 464l-26 -45q-168 -292 -286 -410.5t-239 -118.5zM444 1397q0 44 32.5 76t77.5 32t78 -32t33 -76q0 -46 -33 -78.5t-78 -32.5t-77.5 32.5t-32.5 78.5zM666 1679l118 200 q35 54 93 54h50q32 0 44 -18t-4 -45l-120 -199q-34 -55 -92 -55h-50q-32 0 -43.5 18t4.5 45zM845 1397q0 44 32.5 76t77.5 32t77.5 -32t32.5 -76q0 -46 -32.5 -78.5t-77.5 -32.5t-77.5 32.5t-32.5 78.5z" glyph-name="uni01D8" unicode="ǘ"/><glyph d="M513 -26q-200 0 -300.5 121.5t-69.5 347.5l111 793q10 75 86 75h47q41 0 61 -22.5t15 -63.5l-107 -763q-19 -138 33.5 -212t170.5 -74q117 0 187.5 73.5t91.5 212.5l107 774q10 75 86 75h47q42 0 61.5 -22.5t13.5 -63.5l-131 -938q-9 -68 9.5 -102t63.5 -32 q26 2 38.5 -13t12.5 -43q0 -49 -36 -80t-88 -31q-67 0 -108.5 47.5t-36.5 127.5q-122 -187 -365 -187zM485 1694q0 44 32.5 76t77.5 32t78 -32t33 -76q0 -46 -33 -78.5t-78 -32.5t-77.5 32.5t-32.5 78.5zM543 2168q-16 24 -5.5 43t40.5 19h92q41 0 68 -41l87 -127 q9 -14 25 -14t30 14l120 127q40 41 80 41h102q31 0 36 -19.5t-18 -42.5l-202 -211q-42 -43 -104 -43h-116q-63 0 -92 43zM886 1694q0 44 32.5 76t77.5 32t77.5 -32t32.5 -76q0 -46 -32.5 -78.5t-77.5 -32.5t-77.5 32.5t-32.5 78.5z" glyph-name="uni01D9" unicode="Ǚ"/><glyph d="M340 -24q-116 0 -168.5 83t-29.5 224l80 481q5 32 7.5 61t3 43.5t0 35.5t-0.5 24q0 46 18.5 66t64.5 20q156 0 119 -219l-65 -389q-9 -56 -13.5 -91.5t-2.5 -69t15.5 -49t38.5 -15.5q47 0 105 55t134.5 177.5t120 200.5t129.5 239q31 58 46 86q22 41 42 58t53 17h36 q41 0 60.5 -22.5t14.5 -63.5l-120 -853q-11 -75 -86 -75h-44q-42 0 -61.5 22.5t-13.5 63.5l68 464l-26 -45q-168 -292 -286 -410.5t-239 -118.5zM444 1397q0 44 32.5 76t77.5 32t78 -32t33 -76q0 -46 -33 -78.5t-78 -32.5t-77.5 32.5t-32.5 78.5zM501 1871q-16 24 -5.5 43 t40.5 19h92q41 0 68 -41l87 -127q9 -14 24.5 -14t30.5 14l120 127q40 41 80 41h102q31 0 36 -19.5t-18 -42.5l-202 -211q-42 -43 -104 -43h-116q-63 0 -92 43zM845 1397q0 44 32.5 76t77.5 32t77.5 -32t32.5 -76q0 -46 -32.5 -78.5t-77.5 -32.5t-77.5 32.5t-32.5 78.5z" glyph-name="uni01DA" unicode="ǚ"/><glyph d="M513 -26q-200 0 -300.5 121.5t-69.5 347.5l111 793q10 75 86 75h47q41 0 61 -22.5t15 -63.5l-107 -763q-19 -138 33.5 -212t170.5 -74q117 0 187.5 73.5t91.5 212.5l107 774q10 75 86 75h47q42 0 61.5 -22.5t13.5 -63.5l-131 -938q-9 -68 9.5 -102t63.5 -32 q26 2 38.5 -13t12.5 -43q0 -49 -36 -80t-88 -31q-67 0 -108.5 47.5t-36.5 127.5q-122 -187 -365 -187zM485 1694q0 44 32.5 76t77.5 32t78 -32t33 -76q0 -46 -33 -78.5t-78 -32.5t-77.5 32.5t-32.5 78.5zM703 2167q-15 28 -3 45.5t43 17.5h56q59 0 91 -54l120 -200 q16 -27 4 -45t-43 -18h-56q-58 0 -91 55zM886 1694q0 44 32.5 76t77.5 32t77.5 -32t32.5 -76q0 -46 -32.5 -78.5t-77.5 -32.5t-77.5 32.5t-32.5 78.5z" glyph-name="uni01DB" unicode="Ǜ"/><glyph d="M340 -24q-116 0 -168.5 83t-29.5 224l80 481q5 32 7.5 61t3 43.5t0 35.5t-0.5 24q0 46 18.5 66t64.5 20q156 0 119 -219l-65 -389q-9 -56 -13.5 -91.5t-2.5 -69t15.5 -49t38.5 -15.5q47 0 105 55t134.5 177.5t120 200.5t129.5 239q31 58 46 86q22 41 42 58t53 17h36 q41 0 60.5 -22.5t14.5 -63.5l-120 -853q-11 -75 -86 -75h-44q-42 0 -61.5 22.5t-13.5 63.5l68 464l-26 -45q-168 -292 -286 -410.5t-239 -118.5zM444 1397q0 44 32.5 76t77.5 32t78 -32t33 -76q0 -46 -33 -78.5t-78 -32.5t-77.5 32.5t-32.5 78.5zM662 1870q-15 28 -3.5 45.5 t42.5 17.5h56q59 0 91 -54l120 -200q16 -27 4.5 -45t-43.5 -18h-56q-58 0 -91 55zM845 1397q0 44 32.5 76t77.5 32t77.5 -32t32.5 -76q0 -46 -32.5 -78.5t-77.5 -32.5t-77.5 32.5t-32.5 78.5z" glyph-name="uni01DC" unicode="ǜ"/><glyph d="M630 333q-26 0 -40.5 13t-14.5 37q0 23 14.5 36t40.5 13h304l16 114h-221q-66 0 -56 65l6 40q8 63 74 64h341q65 0 55 -66l-30 -217h59q25 0 39 -13t14 -36q0 -24 -14 -37t-39 -13h-73l-3 -25q-10 -75 -41.5 -133.5t-74 -95.5t-99 -61t-113 -34t-120.5 -10 q-115 0 -207.5 34t-162.5 102t-108.5 179.5t-38.5 259.5q0 119 24.5 230t79.5 213.5t135 178t199.5 120.5t266.5 45q56 0 110.5 -6t103 -19t76.5 -36t24 -53l-5 -41q-4 -32 -26 -48t-56 -11q-127 20 -211 21q-114 0 -204 -36t-146.5 -94t-94 -136.5t-52.5 -157.5t-15 -164 q0 -390 335 -390q98 0 157.5 37.5t80.5 130.5h-289z" glyph-name="uni01E4" unicode="Ǥ"/><glyph d="M509 -219q-174 0 -297 53q-34 15 -46.5 45t1.5 67q14 32 44.5 42.5t63.5 -0.5q116 -36 232 -36q164 0 247 80h-163q-25 0 -38.5 12t-13.5 34.5t13.5 35.5t38.5 13h225q17 42 25 96l22 156q-71 -116 -161 -165.5t-202 -49.5q-161 0 -250.5 88t-89.5 260q0 104 34 197.5 t100 167t172.5 116.5t241.5 43q160 0 278.5 -53.5t106.5 -128.5q-7 -45 -50 -60.5t-93 6.5q-125 53 -256 53q-159 0 -248 -90t-89 -224q0 -105 54 -155t144 -50q210 0 327 264q35 78 107 78q52 0 77 -34t16 -93l-50 -356q-5 -36 -12 -66h63q25 0 38.5 -13t13.5 -35 q0 -47 -52 -47h-97q-33 -69 -84 -118.5t-115 -78t-132 -41.5t-146 -13z" glyph-name="uni01E5" unicode="ǥ"/><glyph d="M654 -26q-115 0 -207.5 34t-162.5 102t-108.5 179.5t-38.5 259.5q0 119 24.5 230t79.5 213.5t135 178t199.5 120.5t266.5 45q56 0 110.5 -6t103 -19t76.5 -36t24 -53l-5 -41q-4 -32 -26 -48t-56 -11q-127 20 -211 21q-114 0 -204 -36t-146.5 -94t-94 -136.5t-52.5 -157.5 t-15 -164q0 -390 335 -390q105 0 166.5 44.5t77.5 156.5l25 180h-221q-66 0 -56 65l6 40q8 63 74 64h341q65 0 55 -66l-47 -341q-10 -75 -41.5 -133.5t-74 -95.5t-99 -61t-113.5 -34t-120 -10zM480 1762q-16 24 -5.5 43.5t40.5 19.5h92q41 0 69 -41l87 -127 q9 -14 24.5 -14.5t29.5 14.5l121 127q40 41 80 41h101q31 0 36 -19.5t-17 -43.5l-202 -211q-42 -43 -105 -43h-115q-63 0 -92 43z" glyph-name="Gcaron" unicode="Ǧ"/><glyph d="M509 -219q-174 0 -297 53q-34 15 -46.5 45t1.5 67q14 32 44.5 42.5t63.5 -0.5q116 -36 232 -36q140 0 226 62t108 209l22 156q-71 -116 -161 -165.5t-202 -49.5q-161 0 -250.5 88t-89.5 260q0 104 34 197.5t100 167t172.5 116.5t241.5 43q160 0 278.5 -53.5t106.5 -128.5 q-7 -45 -50 -60.5t-93 6.5q-125 53 -256 53q-159 0 -248 -90t-89 -224q0 -105 54 -155t144 -50q210 0 327 264q35 78 107 78q52 0 77 -34t16 -93l-50 -356q-13 -92 -48 -164t-84 -118t-113.5 -76t-132.5 -42t-145 -12zM439 1465q-16 24 -5.5 43.5t40.5 19.5h92q41 0 69 -41 l87 -127q9 -14 24.5 -14t29.5 14l121 127q40 41 80 41h101q31 0 36 -19.5t-17 -43.5l-202 -211q-42 -43 -104 -43h-116q-63 0 -92 43z" glyph-name="gcaron" unicode="ǧ"/><glyph d="M1147 1311q46 0 56.5 -31.5t-24.5 -68.5q-281 -275 -470 -511l360 -604q25 -41 9 -68.5t-64 -27.5h-55q-63 0 -97 55l-182 303q-72 120 -95 184q-166 -233 -283 -467q-19 -38 -40 -56.5t-59 -18.5h-27q-44 0 -65.5 27.5t-15.5 72.5l158 1136q10 75 86 75h47 q40 0 60.5 -20.5t15.5 -56.5l-110 -780q93 194 268.5 418.5t341.5 378.5q62 59 129 60h56zM477 1762q-16 24 -5.5 43.5t40.5 19.5h92q41 0 69 -41l87 -127q9 -14 25 -14.5t29 14.5l121 127q40 41 80 41h101q31 0 36 -19.5t-17 -43.5l-202 -211q-42 -43 -105 -43h-115 q-63 0 -92 43z" glyph-name="uni01E8" unicode="Ǩ"/><glyph d="M892 -26q-161 0 -273 108.5t-136 295.5q-13 100 110 126q122 23 204.5 88.5t82.5 152.5q0 50 -29.5 77.5t-86.5 27.5q-59 0 -121.5 -29t-119 -83.5t-99.5 -145t-58 -202.5l-45 -315q-9 -75 -87 -75h-39q-41 0 -60.5 22.5t-14.5 63.5l162 1150q11 75 86 75h40 q41 0 60.5 -22.5t14.5 -63.5l-59 -418q73 106 173.5 161.5t218.5 55.5q126 0 194 -61t68 -169q0 -151 -122.5 -268.5t-292.5 -143.5q20 -104 87 -167t168 -63q48 0 119 25q27 8 51 -5.5t34 -42.5q20 -58 -49.5 -106.5t-180.5 -48.5zM475 1465q-16 24 -5.5 43.5t40.5 19.5h92 q41 0 69 -41l87 -127q9 -14 25 -14t29 14l121 127q40 41 80 41h101q31 0 36 -19.5t-17 -43.5l-202 -211q-42 -43 -105 -43h-115q-63 0 -93 43z" glyph-name="uni01E9" unicode="ǩ"/><glyph d="M567 -26h-47q-129 0 -129 -112.5t143 -112.5q30 0 44.5 -19.5t11.5 -46.5q-2 -29 -23 -47.5t-57 -18.5h-29q-35 0 -67.5 5.5t-66.5 20.5t-59 38t-41 61.5t-16 87.5q0 134 114 195q-129 68 -184 227.5t-20 409.5q47 338 201.5 506t391.5 168q117 0 205 -41t147.5 -125.5 t78.5 -214t-5 -307.5q-47 -337 -201 -505.5t-392 -168.5zM347 662q-17 -113 -10 -196t26.5 -139t56.5 -89t79 -47.5t94 -14.5q298 0 361 472q17 113 10.5 196.5t-25 138.5t-55.5 89t-79.5 48.5t-94.5 14.5q-298 0 -363 -473z" glyph-name="uni01EA" unicode="Ǫ"/><glyph d="M606 -26h-47q-129 0 -129 -112.5t142 -112.5q30 0 45 -19.5t12 -46.5q-2 -29 -23 -47.5t-57 -18.5h-29q-35 0 -67.5 5.5t-66.5 20.5t-59 38t-41 61.5t-16 87.5q0 131 112 194q-118 57 -184 174t-66 275q0 244 147 403.5t372 159.5q69 0 125.5 -14t90.5 -48.5t23 -82.5 q-7 -33 -29 -45.5t-45 -11.5t-70.5 6.5t-77.5 5.5q-153 0 -245 -101t-92 -264q0 -152 80.5 -235t205.5 -83q134 0 221 90t87 209q0 48 -17 81.5t-34 58t-17 50.5q0 42 29 65.5t70 23.5q71 0 117 -76t46 -191q0 -99 -37.5 -190t-103 -160t-162.5 -109.5t-210 -40.5z" glyph-name="uni01EB" unicode="ǫ"/><glyph d="M514 -26q-207 0 -337 63q-63 33 -52 114q12 99 106 65q156 -56 300 -56q176 0 285 71t109 205q0 116 -88 164.5t-277 48.5q-34 0 -50 18t-11 50l6 40q5 47 40 79l313 284h-527q-65 0 -56 66l9 59q8 66 74 66h804q38 0 45 -33t-27 -65l-451 -402q191 -15 297.5 -106 t106.5 -259q0 -146 -81 -254t-220.5 -163t-317.5 -55zM477 1762q-16 24 -5.5 43.5t40.5 19.5h92q41 0 69 -41l87 -127q9 -14 25 -14.5t29 14.5l121 127q40 41 80 41h101q31 0 36 -19.5t-17 -43.5l-202 -211q-42 -43 -105 -43h-115q-63 0 -92 43z" glyph-name="uni01EE" unicode="Ǯ"/><glyph d="M478 -155q-100 0 -187 14t-133 36q-57 28 -49 95q11 88 105 63q134 -36 288 -36q80 0 148 12t123.5 36t87.5 66.5t32 98.5q0 92 -89 131.5t-275 39.5q-70 0 -61 68l6 39q7 51 42 81l296 252h-515q-65 0 -55 65l5 42q9 66 75 66h785q39 0 46 -33t-29 -65l-434 -364 q406 -18 406 -305q0 -81 -32.5 -148t-89 -113.5t-135 -78.5t-169.5 -47t-192 -15zM436 1465q-16 24 -5.5 43.5t40.5 19.5h92q41 0 69 -41l87 -127q9 -14 25 -14t29 14l121 127q40 41 80 41h101q31 0 36 -19.5t-17 -43.5l-202 -211q-42 -43 -105 -43h-115q-63 0 -92 43z" glyph-name="uni01EF" unicode="ǯ"/><glyph d="M579 -26q-208 0 -345 64t-137 149q0 49 41.5 73t90.5 -2q169 -97 365 -97q120 0 184.5 39.5t64.5 115.5q0 48 -29.5 92.5t-76 81t-103 74t-113 79.5t-103 89t-76 112t-29.5 140q0 163 118.5 257.5t292.5 94.5q110 0 202.5 -37.5t150.5 -113.5t58 -174q0 -142 -118 -143 q-41 0 -57 17.5t-16 49.5q0 101 -57 157.5t-165 56.5q-95 0 -151.5 -43t-56.5 -121q0 -53 29.5 -101t78 -86.5t105.5 -76.5t115 -80t106 -88t78 -110t30 -137q0 -159 -123 -245.5t-354 -86.5zM317 -222l4 29q4 33 27.5 52.5t57.5 19.5h189q125 0 192.5 -79.5t50.5 -205.5 l-33 -232q-4 -32 -27.5 -51t-57.5 -19h-27q-34 0 -52 19t-14 51l25 178q12 85 -22.5 126t-119.5 41h-129q-34 0 -51 19t-13 52z" glyph-name="Scommaaccent" unicode="Ș"/><glyph d="M633 -26q-126 0 -252 28t-205 71q-60 34 -82.5 72.5t-7.5 73.5q14 33 47 42.5t73 -6.5q232 -103 432 -103q141 0 206 50t65 129q0 43 -19 91t-47.5 94.5t-57.5 95t-53.5 108.5t-32.5 119l-199 -277q-41 -56 -97.5 -50t-74.5 53t14 102l232 310q26 35 53.5 47.5t67.5 12.5 h46q48 0 85.5 -20t37.5 -51q0 -7 -5 -24.5t-5 -33.5q0 -52 39.5 -126.5t86 -141t86 -157t39.5 -171.5q0 -67 -25.5 -124.5t-79.5 -106.5t-148 -78t-219 -29zM297 -222l3 29q4 33 27.5 52.5t57.5 19.5h189q125 0 193 -79.5t50 -205.5l-33 -232q-4 -32 -27.5 -51t-57.5 -19 h-26q-34 0 -52.5 19t-14.5 51l26 178q12 85 -23 126t-120 41h-129q-34 0 -50.5 19t-12.5 52z" glyph-name="scommaaccent" unicode="ș"/><glyph d="M674 0q-41 0 -62 22.5t-13 65.5l184 1004q5 29 -25 28h-322q-48 0 -67.5 -14.5t-15.5 -44.5q7 -49 -16 -72t-63 -23q-62 0 -98 50t-36 116q0 74 48.5 126.5t150.5 52.5h489q74 0 142 10t83 10q50 0 78.5 -29t28.5 -75q0 -34 -16.5 -55.5t-41.5 -34t-51 -25t-48 -38.5 t-29 -66l-167 -926q-14 -82 -87 -82h-46zM433 -222l3 29q4 33 27.5 52.5t57.5 19.5h190q125 0 192.5 -79.5t49.5 -205.5l-32 -232q-4 -32 -28 -51t-57 -19h-27q-34 0 -52.5 19t-14.5 51l26 178q12 85 -22.5 126t-119.5 41h-129q-34 0 -51 19t-13 52z" glyph-name="uni021A" unicode="Ț"/><glyph d="M731 -26q-59 0 -111.5 12.5t-102.5 41t-80 76t-45.5 117.5t1.5 165l71 435h-254q-39 0 -58 22t-13 61l2 18q10 72 82 71h269l32 206q7 43 29 62.5t64 19.5h31q44 0 65 -24t14 -69l-32 -195h375q40 0 58.5 -22t13.5 -61l-3 -17q-9 -72 -82 -72h-389l-69 -417 q-6 -51 -5.5 -88.5t12.5 -65.5t27.5 -46t38.5 -28.5t45.5 -14.5t48.5 -4q82 0 180 52q37 17 64.5 11t43.5 -34q15 -26 9.5 -57.5t-29.5 -51.5q-48 -43 -127.5 -73t-175.5 -30zM463 -222l3 29q4 33 27.5 52.5t57.5 19.5h189q125 0 192.5 -79.5t50.5 -205.5l-33 -232 q-4 -32 -27.5 -51t-57.5 -19h-26q-34 0 -52.5 19t-14.5 51l26 178q12 85 -23 126t-120 41h-129q-34 0 -50.5 19t-12.5 52z" glyph-name="uni021B" unicode="ț"/><glyph d="M416 -134q-142 0 -250 51q-34 17 -50 49t-1 66q13 32 42.5 43t63.5 0q108 -37 196 -37q53 0 97.5 14t86.5 46t71 92.5t42 145.5l57 408q8 52 -11 75t-71 23h-204q-40 0 -61 23.5t-13 66.5q11 82 88 82h298q102 0 150.5 -58t34.5 -160l-66 -473q-14 -104 -51.5 -186 t-86 -132t-111.5 -82.5t-123.5 -44.5t-127.5 -12z" glyph-name="uni0237" unicode="ȷ"/><glyph d="M614 1039q236 0 365.5 -124.5t129.5 -333.5q0 -162 -77 -300.5t-212.5 -221t-298.5 -82.5q-159 0 -245 75t-86 182q0 58 26.5 113.5t80.5 110.5t150 104.5t224 87.5q125 37 150 -39q10 -34 -5 -61t-54 -36q-198 -51 -290 -116t-92 -135q0 -47 40.5 -79.5t119.5 -32.5 q69 0 136 29t121.5 80.5t88 131.5t33.5 173q0 141 -81 222.5t-249 81.5q-147 0 -268 -66q-75 -40 -110 14q-20 30 -11 62t49 58q154 102 365 102z" glyph-name="uni0259" unicode="ə"/><glyph d="M478 -155q-100 0 -187 14t-133 36q-57 28 -49 95q11 88 105 63q134 -36 288 -36q80 0 148 12t123.5 36t87.5 66.5t32 98.5q0 92 -89 131.5t-275 39.5q-70 0 -61 68l6 39q7 51 42 81l296 252h-515q-65 0 -55 65l5 42q9 66 75 66h785q39 0 46 -33t-29 -65l-434 -364 q406 -18 406 -305q0 -81 -32.5 -148t-89 -113.5t-135 -78.5t-169.5 -47t-192 -15z" glyph-name="uni0292" unicode="ʒ"/><glyph d="M427 1211q-31 0 -36 19.5t18 43.5l201 211q42 43 105 43h115q63 0 93 -43l143 -211q16 -23 5.5 -43t-40.5 -20h-92q-41 0 -69 41l-87 127q-9 13 -24.5 13.5t-29.5 -13.5l-121 -127q-40 -41 -80 -41h-101z" glyph-name="circumflex" unicode="ˆ"/><glyph d="M1074 1528q31 0 36 -19.5t-17 -43.5l-202 -211q-42 -43 -105 -43h-115q-63 0 -92 43l-144 211q-16 24 -5.5 43.5t40.5 19.5h92q41 0 69 -41l87 -127q9 -14 24.5 -14t29.5 14l121 127q40 41 80 41h101z" glyph-name="caron" unicode="ˇ"/><glyph d="M750 1225q-138 0 -216.5 73.5t-73.5 198.5q1 31 35 31h84q26 0 28 -29q4 -56 43 -94t108 -38q120 0 168 132q9 29 37 29h90q32 0 25 -31q-26 -127 -110 -199.5t-218 -72.5z" glyph-name="breve" unicode="˘"/><glyph d="M759 1309q-45 0 -78 32t-33 78q0 44 33 76.5t78 32.5t77 -32.5t32 -76.5q0 -46 -32 -78t-77 -32z" glyph-name="dotaccent" unicode="˙"/><glyph d="M747.5 1150q-80.5 0 -136 56t-55.5 132q0 78 55.5 134t136 56t136 -56t55.5 -134q0 -77 -55.5 -132.5t-136 -55.5zM676 1339.5q0 -30.5 20.5 -50t51 -19.5t51.5 19.5t21 49.5q-1 31 -21.5 50.5t-51 19.5t-51 -19.5t-20.5 -50z" glyph-name="ring" unicode="˚"/><glyph d="M601 -357q-35 0 -67.5 5.5t-66.5 20.5t-59 38t-41 61t-16 88q0 65 26 111.5t71 72.5t95 37.5t106 11.5h38v-89h-47q-129 0 -129 -112.5t142 -112.5q30 0 45 -19.5t12 -47.5q-2 -29 -23 -47t-57 -18h-29z" glyph-name="ogonek" unicode="˛"/><glyph d="M878 1202q-34 -16 -58 -15t-51 21l-97 74q-29 23 -68 4l-144 -69q-30 -14 -60.5 -3t-41 38.5t3 55.5t44.5 43l206 101q33 16 58.5 15t51.5 -20l95 -74q32 -24 70 -5l143 71q30 14 60 3.5t42 -39.5q10 -28 -3 -56t-43 -42z" glyph-name="tilde" unicode="˜"/><glyph d="M804 1210q-32 0 -43.5 18.5t4.5 45.5l119 200q35 54 92 54h50q32 0 44 -18t-4 -46l-120 -198q-34 -55 -92 -56h-50zM435 1274l119 200q35 54 92 54h50q32 0 44.5 -18t-4.5 -46l-120 -198q-34 -55 -92 -56h-50q-32 0 -43.5 18.5t4.5 45.5z" glyph-name="hungarumlaut" unicode="˝"/><glyph d="M810 1210q-58 0 -91 56l-121 198q-15 28 -3.5 46t43.5 18h55q59 0 91 -54l120 -200q16 -27 4.5 -45.5t-43.5 -18.5h-55z" glyph-name="gravecomb" horiz-adv-x="0" unicode="̀"/><glyph d="M640 1210q-32 0 -43.5 18.5t4.5 45.5l119 200q35 54 92 54h50q32 0 44.5 -18t-4.5 -46l-120 -198q-34 -55 -92 -56h-50z" glyph-name="acutecomb" horiz-adv-x="0" unicode="́"/><glyph d="M427 1211q-31 0 -36 19.5t18 43.5l201 211q42 43 105 43h115q63 0 93 -43l143 -211q16 -23 5.5 -43t-40.5 -20h-92q-41 0 -69 41l-87 127q-9 13 -24.5 13.5t-29.5 -13.5l-121 -127q-40 -41 -80 -41h-101z" glyph-name="uni0302" horiz-adv-x="0" unicode="̂"/><glyph d="M878 1202q-34 -16 -58 -15t-51 21l-97 74q-29 23 -68 4l-144 -69q-30 -14 -60.5 -3t-41 38.5t3 55.5t44.5 43l206 101q33 16 58.5 15t51.5 -20l95 -74q32 -24 70 -5l143 71q30 14 60 3.5t42 -39.5q10 -28 -3 -56t-43 -42z" glyph-name="tildecomb" horiz-adv-x="0" unicode="̃"/><glyph d="M490 1307q-29 0 -44 15.5t-11 44.5l6 41q4 29 24 44.5t49 15.5h503q29 0 44 -15.5t11 -44.5l-6 -41q-4 -29 -24 -44.5t-49 -15.5h-503z" glyph-name="uni0304" horiz-adv-x="0" unicode="̄"/><glyph d="M750 1225q-138 0 -216.5 73.5t-73.5 198.5q1 31 35 31h84q26 0 28 -29q4 -56 43 -94t108 -38q120 0 168 132q9 29 37 29h90q32 0 25 -31q-26 -127 -110 -199.5t-218 -72.5z" glyph-name="uni0306" horiz-adv-x="0" unicode="̆"/><glyph d="M554 1286q-45 0 -77.5 32.5t-32.5 78.5q0 44 32.5 76t77.5 32t78 -32t33 -76q0 -46 -33 -78.5t-78 -32.5zM845 1397q0 44 32.5 76t77.5 32t77.5 -32t32.5 -76q0 -46 -32.5 -78.5t-77.5 -32.5t-77.5 32.5t-32.5 78.5z" glyph-name="uni0308" horiz-adv-x="0" unicode="̈"/><glyph d="M750 1124q-20 -2 -28 5t-6 23l8 56q3 22 27 29q31 11 50 36t19 56t-19 49.5t-51 18.5q-59 0 -76 -51q-9 -23 -35 -23h-68q-15 0 -20.5 12t-0.5 31q16 62 72.5 107.5t141.5 45.5t133.5 -46.5t48.5 -125.5q0 -88 -56.5 -152.5t-139.5 -70.5z" glyph-name="hookabovecomb" horiz-adv-x="0" unicode="̉"/><glyph d="M747.5 1150q-80.5 0 -136 56t-55.5 132q0 78 55.5 134t136 56t136 -56t55.5 -134q0 -77 -55.5 -132.5t-136 -55.5zM676 1339.5q0 -30.5 20.5 -50t51 -19.5t51.5 19.5t21 49.5q-1 31 -21.5 50.5t-51 19.5t-51 -19.5t-20.5 -50z" glyph-name="uni030A" horiz-adv-x="0" unicode="̊"/><glyph d="M1074 1528q31 0 36 -19.5t-17 -43.5l-202 -211q-42 -43 -105 -43h-115q-63 0 -92 43l-144 211q-16 24 -5.5 43.5t40.5 19.5h92q41 0 69 -41l87 -127q9 -14 24.5 -14t29.5 14l121 127q40 41 80 41h101z" glyph-name="uni030C" horiz-adv-x="0" unicode="̌"/><glyph d="M570 1010l25 171h39q27 0 38.5 10t15.5 39l10 74q11 69 76 68h41q32 0 47 -18t9 -50l-17 -130q-10 -74 -62.5 -119t-125.5 -45h-96z" glyph-name="uni031B" horiz-adv-x="0" unicode="̛"/><glyph d="M508 -365q-45 0 -78 32.5t-33 78.5q0 44 33 76.5t78 32.5t77 -32.5t32 -76.5q0 -46 -32 -78.5t-77 -32.5z" glyph-name="dotbelowcomb" horiz-adv-x="0" unicode="̣"/><glyph d="M692 -708q-34 0 -52 19t-14 51l25 178q12 85 -22.5 126t-119.5 41h-129q-34 0 -51 19t-13 52l3 29q4 33 28 52.5t57 19.5h190q125 0 192.5 -79.5t50.5 -205.5l-33 -232q-4 -32 -27.5 -51t-57.5 -19h-27z" glyph-name="uni0326" horiz-adv-x="0" unicode="̦"/><glyph d="M338 333q-26 0 -39.5 13t-13.5 37q0 23 14 36t39 13h548q26 0 40 -13t14 -36q0 -24 -14.5 -37t-39.5 -13h-548z" glyph-name="uni0335" horiz-adv-x="0" unicode="̵"/></font>
</defs>
</svg>
